<?xml version="1.0" encoding="UTF-8" standalone="no"?><svg xmlns="http://www.w3.org/2000/svg" xmlns:xlink="http://www.w3.org/1999/xlink" clip-rule="evenodd" stroke-miterlimit="4.00" viewBox="0 0 1024 768"><desc>SVG generated by Keynote</desc><defs></defs><g transform="matrix(1.00, 0.00, -0.00, -1.00, 0.0, 768.0)"><g><clipPath id="clip-63"><path d="M 0.0 768.0 L 1024.0 768.0 L 1024.0 0.0 L 0.0 0.0 Z M 0.0 768.0 "></path></clipPath><g clip-path="url(#clip-63)"><image xlink:href="../../7271B8B7-3FC1-4276-9B71-E31342A69E14/assets/50163466EC2834942505D00A94D158E6.jpeg" width="1024.00" height="768.00" transform="matrix(1.00, 0.00, -0.00, -1.00, 0.0, 768.0)"></image></g></g><text xml:space="preserve" font-family="Palatino-Roman" font-size="36.0" fill="#414040" transform="matrix(1.00, 0.00, -0.00, -1.00, 325.0, 370.0)">S</text><text xml:space="preserve" font-family="Palatino-Roman" font-size="36.0" fill="#414040" transform="matrix(1.00, 0.00, -0.00, -1.00, 343.9, 370.0)">o</text><text xml:space="preserve" font-family="Palatino-Roman" font-size="36.0" fill="#414040" transform="matrix(1.00, 0.00, -0.00, -1.00, 363.5, 370.0)">m</text><text xml:space="preserve" font-family="Palatino-Roman" font-size="36.0" fill="#414040" transform="matrix(1.00, 0.00, -0.00, -1.00, 395.3, 370.0)">e</text><text xml:space="preserve" font-family="Palatino-Roman" font-size="36.0" fill="#414040" transform="matrix(1.00, 0.00, -0.00, -1.00, 412.6, 370.0)"> </text><text xml:space="preserve" font-family="Palatino-Roman" font-size="36.0" fill="#414040" transform="matrix(1.00, 0.00, -0.00, -1.00, 421.6, 370.0)">g</text><text xml:space="preserve" font-family="Palatino-Roman" font-size="36.0" fill="#414040" transform="matrix(1.00, 0.00, -0.00, -1.00, 441.6, 370.0)">o</text><text xml:space="preserve" font-family="Palatino-Roman" font-size="36.0" fill="#414040" transform="matrix(1.00, 0.00, -0.00, -1.00, 461.2, 370.0)">o</text><text xml:space="preserve" font-family="Palatino-Roman" font-size="36.0" fill="#414040" transform="matrix(1.00, 0.00, -0.00, -1.00, 480.9, 370.0)">d</text><text xml:space="preserve" font-family="Palatino-Roman" font-size="36.0" fill="#414040" transform="matrix(1.00, 0.00, -0.00, -1.00, 502.9, 370.0)"> </text><text xml:space="preserve" font-family="Palatino-Roman" font-size="36.0" fill="#414040" transform="matrix(1.00, 0.00, -0.00, -1.00, 511.9, 370.0)">e</text><text xml:space="preserve" font-family="Palatino-Roman" font-size="36.0" fill="#414040" transform="matrix(1.00, 0.00, -0.00, -1.00, 529.1, 370.0)">x</text><text xml:space="preserve" font-family="Palatino-Roman" font-size="36.0" fill="#414040" transform="matrix(1.00, 0.00, -0.00, -1.00, 547.7, 370.0)">a</text><text xml:space="preserve" font-family="Palatino-Roman" font-size="36.0" fill="#414040" transform="matrix(1.00, 0.00, -0.00, -1.00, 565.7, 370.0)">m</text><text xml:space="preserve" font-family="Palatino-Roman" font-size="36.0" fill="#414040" transform="matrix(1.00, 0.00, -0.00, -1.00, 597.5, 370.0)">p</text><text xml:space="preserve" font-family="Palatino-Roman" font-size="36.0" fill="#414040" transform="matrix(1.00, 0.00, -0.00, -1.00, 619.1, 370.0)">l</text><text xml:space="preserve" font-family="Palatino-Roman" font-size="36.0" fill="#414040" transform="matrix(1.00, 0.00, -0.00, -1.00, 629.6, 370.0)">e</text><text xml:space="preserve" font-family="Palatino-Roman" font-size="36.0" fill="#414040" transform="matrix(1.00, 0.00, -0.00, -1.00, 646.8, 370.0)">s</text><text xml:space="preserve" font-family="Palatino-Roman" font-size="36.0" fill="#414040" transform="matrix(1.00, 0.00, -0.00, -1.00, 662.1, 370.0)">…</text></g></svg>