<?xml version="1.0" encoding="UTF-8" standalone="no"?><svg xmlns="http://www.w3.org/2000/svg" xmlns:xlink="http://www.w3.org/1999/xlink" clip-rule="evenodd" stroke-miterlimit="4.00" viewBox="0 0 1024 768"><desc>SVG generated by Keynote</desc><defs></defs><g transform="matrix(1.00, 0.00, -0.00, -1.00, 0.0, 768.0)"><g><clipPath id="clip-187"><path d="M 0.0 768.0 L 1024.0 768.0 L 1024.0 0.0 L 0.0 0.0 Z M 0.0 768.0 "></path></clipPath><g clip-path="url(#clip-187)"><image xlink:href="../../7271B8B7-3FC1-4276-9B71-E31342A69E14/assets/50163466EC2834942505D00A94D158E6.jpeg" width="1024.00" height="768.00" transform="matrix(1.00, 0.00, -0.00, -1.00, 0.0, 768.0)"></image></g></g><g opacity="0.30"><g><clipPath id="clip-188"><path d="M 39.0 595.0 L 986.0 595.0 L 986.0 599.0 L 39.0 599.0 Z M 39.0 595.0 "></path></clipPath><g clip-path="url(#clip-188)"><path d="M 0.0 0.0 L 944.7 0.0 " fill="none" stroke="#434343" stroke-width="1.00" transform="matrix(1.00, 0.00, 0.00, -1.00, 40.0, 597.0)"></path></g></g></g><g opacity="0.30"><g><clipPath id="clip-189"><path d="M 39.0 716.0 L 986.0 716.0 L 986.0 720.0 L 39.0 720.0 Z M 39.0 716.0 "></path></clipPath><g clip-path="url(#clip-189)"><path d="M 0.0 0.0 L 944.7 0.0 " fill="none" stroke="#434343" stroke-width="1.00" transform="matrix(1.00, 0.00, 0.00, -1.00, 40.0, 718.0)"></path></g></g></g><text xml:space="preserve" font-family="BodoniSvtyTwoITCTT-Book" font-size="70.0" fill="#D93D2A" transform="matrix(1.00, 0.00, -0.00, -1.00, 338.0, 633.0)">E</text><text xml:space="preserve" font-family="BodoniSvtyTwoITCTT-Book" font-size="70.0" fill="#D93D2A" transform="matrix(1.00, 0.00, -0.00, -1.00, 378.7, 633.0)">k</text><text xml:space="preserve" font-family="BodoniSvtyTwoITCTT-Book" font-size="70.0" fill="#D93D2A" transform="matrix(1.00, 0.00, -0.00, -1.00, 411.6, 633.0)">s</text><text xml:space="preserve" font-family="BodoniSvtyTwoITCTT-Book" font-size="70.0" fill="#D93D2A" transform="matrix(1.00, 0.00, -0.00, -1.00, 436.9, 633.0)">p</text><text xml:space="preserve" font-family="BodoniSvtyTwoITCTT-Book" font-size="70.0" fill="#D93D2A" transform="matrix(1.00, 0.00, -0.00, -1.00, 471.1, 633.0)">e</text><text xml:space="preserve" font-family="BodoniSvtyTwoITCTT-Book" font-size="70.0" fill="#D93D2A" transform="matrix(1.00, 0.00, -0.00, -1.00, 501.2, 633.0)">r</text><text xml:space="preserve" font-family="BodoniSvtyTwoITCTT-Book" font-size="70.0" fill="#D93D2A" transform="matrix(1.00, 0.00, -0.00, -1.00, 524.9, 633.0)">y</text><text xml:space="preserve" font-family="BodoniSvtyTwoITCTT-Book" font-size="70.0" fill="#D93D2A" transform="matrix(1.00, 0.00, -0.00, -1.00, 553.0, 633.0)">m</text><text xml:space="preserve" font-family="BodoniSvtyTwoITCTT-Book" font-size="70.0" fill="#D93D2A" transform="matrix(1.00, 0.00, -0.00, -1.00, 602.2, 633.0)">e</text><text xml:space="preserve" font-family="BodoniSvtyTwoITCTT-Book" font-size="70.0" fill="#D93D2A" transform="matrix(1.00, 0.00, -0.00, -1.00, 632.3, 633.0)">n</text><text xml:space="preserve" font-family="BodoniSvtyTwoITCTT-Book" font-size="70.0" fill="#D93D2A" transform="matrix(1.00, 0.00, -0.00, -1.00, 666.5, 633.0)">t</text><text xml:space="preserve" font-family="Palatino-Roman" font-size="16.0" fill="#414040" transform="matrix(1.00, 0.00, -0.00, -1.00, 864.0, 12.0)">ź</text><text xml:space="preserve" font-family="Palatino-Roman" font-size="16.0" fill="#414040" transform="matrix(1.00, 0.00, -0.00, -1.00, 872.0, 12.0)">r</text><text xml:space="preserve" font-family="Palatino-Roman" font-size="16.0" fill="#414040" transform="matrix(1.00, 0.00, -0.00, -1.00, 878.3, 12.0)">ó</text><text xml:space="preserve" font-family="Palatino-Roman" font-size="16.0" fill="#414040" transform="matrix(1.00, 0.00, -0.00, -1.00, 887.1, 12.0)">d</text><text xml:space="preserve" font-family="Palatino-Roman" font-size="16.0" fill="#414040" transform="matrix(1.00, 0.00, -0.00, -1.00, 896.8, 12.0)">ł</text><text xml:space="preserve" font-family="Palatino-Roman" font-size="16.0" fill="#414040" transform="matrix(1.00, 0.00, -0.00, -1.00, 901.5, 12.0)">o</text><text xml:space="preserve" font-family="Palatino-Roman" font-size="16.0" fill="#414040" transform="matrix(1.00, 0.00, -0.00, -1.00, 910.2, 12.0)">:</text><text xml:space="preserve" font-family="Palatino-Roman" font-size="16.0" fill="#414040" transform="matrix(1.00, 0.00, -0.00, -1.00, 914.2, 12.0)"> </text><text xml:space="preserve" font-family="Palatino-Roman" font-size="16.0" fill="#414040" transform="matrix(1.00, 0.00, -0.00, -1.00, 918.2, 12.0)">o</text><text xml:space="preserve" font-family="Palatino-Roman" font-size="16.0" fill="#414040" transform="matrix(1.00, 0.00, -0.00, -1.00, 926.9, 12.0)">p</text><text xml:space="preserve" font-family="Palatino-Roman" font-size="16.0" fill="#414040" transform="matrix(1.00, 0.00, -0.00, -1.00, 936.6, 12.0)">r</text><text xml:space="preserve" font-family="Palatino-Roman" font-size="16.0" fill="#414040" transform="matrix(1.00, 0.00, -0.00, -1.00, 942.9, 12.0)">a</text><text xml:space="preserve" font-family="Palatino-Roman" font-size="16.0" fill="#414040" transform="matrix(1.00, 0.00, -0.00, -1.00, 950.9, 12.0)">c</text><text xml:space="preserve" font-family="Palatino-Roman" font-size="16.0" fill="#414040" transform="matrix(1.00, 0.00, -0.00, -1.00, 958.0, 12.0)">.</text><text xml:space="preserve" font-family="Palatino-Roman" font-size="16.0" fill="#414040" transform="matrix(1.00, 0.00, -0.00, -1.00, 962.0, 12.0)"> </text><text xml:space="preserve" font-family="Palatino-Roman" font-size="16.0" fill="#414040" transform="matrix(1.00, 0.00, -0.00, -1.00, 966.0, 12.0)">w</text><text xml:space="preserve" font-family="Palatino-Roman" font-size="16.0" fill="#414040" transform="matrix(1.00, 0.00, -0.00, -1.00, 979.3, 12.0)">ł</text><text xml:space="preserve" font-family="Palatino-Roman" font-size="16.0" fill="#414040" transform="matrix(1.00, 0.00, -0.00, -1.00, 984.0, 12.0)">a</text><text xml:space="preserve" font-family="Palatino-Roman" font-size="16.0" fill="#414040" transform="matrix(1.00, 0.00, -0.00, -1.00, 992.0, 12.0)">s</text><text xml:space="preserve" font-family="Palatino-Roman" font-size="16.0" fill="#414040" transform="matrix(1.00, 0.00, -0.00, -1.00, 998.8, 12.0)">n</text><text xml:space="preserve" font-family="Palatino-Roman" font-size="16.0" fill="#414040" transform="matrix(1.00, 0.00, -0.00, -1.00, 1008.1, 12.0)">e</text><image xlink:href="../../21C15DCC-42F9-4FE5-96CC-4B2F73E59247/assets/8735670BE76EBC6350F1E60C8F6F2968.jpeg" width="494.00" height="215.00" transform="matrix(1.00, 0.00, -0.00, -1.00, 44.0, 578.0)"></image><image xlink:href="../../21C15DCC-42F9-4FE5-96CC-4B2F73E59247/assets/BEC794B30AACA8B0D48E83171F598EA7.jpeg" width="494.00" height="215.00" transform="matrix(1.00, 0.00, -0.00, -1.00, 482.0, 254.0)"></image><text xml:space="preserve" font-family="Palatino-Bold" font-weight="bold" font-size="52.0" fill="#414040" transform="matrix(1.00, 0.00, -0.00, -1.00, 479.0, 301.0)">v</text><text xml:space="preserve" font-family="Palatino-Bold" font-weight="bold" font-size="52.0" fill="#414040" transform="matrix(1.00, 0.00, -0.00, -1.00, 507.9, 301.0)">s</text><text xml:space="preserve" font-family="Palatino-Bold" font-weight="bold" font-size="52.0" fill="#414040" transform="matrix(1.00, 0.00, -0.00, -1.00, 531.0, 301.0)">.</text><text xml:space="preserve" font-family="Palatino-Roman" font-size="24.0" fill="#414040" transform="matrix(1.00, 0.00, -0.00, -1.00, 554.0, 461.0)">(</text><text xml:space="preserve" font-family="Palatino-Roman" font-size="24.0" fill="#414040" transform="matrix(1.00, 0.00, -0.00, -1.00, 562.0, 461.0)">x</text><text xml:space="preserve" font-family="Palatino-Roman" font-size="24.0" fill="#414040" transform="matrix(1.00, 0.00, -0.00, -1.00, 574.4, 461.0)"> </text><text xml:space="preserve" font-family="Palatino-Roman" font-size="24.0" fill="#414040" transform="matrix(1.00, 0.00, -0.00, -1.00, 580.4, 461.0)">7</text><text xml:space="preserve" font-family="Palatino-Roman" font-size="24.0" fill="#414040" transform="matrix(1.00, 0.00, -0.00, -1.00, 592.4, 461.0)">)</text><text xml:space="preserve" font-family="Palatino-Roman" font-size="24.0" fill="#414040" transform="matrix(1.00, 0.00, -0.00, -1.00, 423.0, 138.0)">(</text><text xml:space="preserve" font-family="Palatino-Roman" font-size="24.0" fill="#414040" transform="matrix(1.00, 0.00, -0.00, -1.00, 431.0, 138.0)">7</text><text xml:space="preserve" font-family="Palatino-Roman" font-size="24.0" fill="#414040" transform="matrix(1.00, 0.00, -0.00, -1.00, 443.0, 138.0)"> </text><text xml:space="preserve" font-family="Palatino-Roman" font-size="24.0" fill="#414040" transform="matrix(1.00, 0.00, -0.00, -1.00, 449.0, 138.0)">x</text><text xml:space="preserve" font-family="Palatino-Roman" font-size="24.0" fill="#414040" transform="matrix(1.00, 0.00, -0.00, -1.00, 461.4, 138.0)">)</text></g></svg>