<?xml version="1.0" encoding="UTF-8" standalone="no"?><svg xmlns="http://www.w3.org/2000/svg" xmlns:xlink="http://www.w3.org/1999/xlink" clip-rule="evenodd" stroke-miterlimit="4.00" viewBox="0 0 1024 768"><desc>SVG generated by Keynote</desc><defs></defs><g transform="matrix(1.00, 0.00, -0.00, -1.00, 0.0, 768.0)"><g><clipPath id="clip-190"><path d="M 0.0 768.0 L 1024.0 768.0 L 1024.0 0.0 L 0.0 0.0 Z M 0.0 768.0 "></path></clipPath><g clip-path="url(#clip-190)"><image xlink:href="../../7271B8B7-3FC1-4276-9B71-E31342A69E14/assets/50163466EC2834942505D00A94D158E6.jpeg" width="1024.00" height="768.00" transform="matrix(1.00, 0.00, -0.00, -1.00, 0.0, 768.0)"></image></g></g><g opacity="0.30"><g><clipPath id="clip-191"><path d="M 39.0 595.0 L 986.0 595.0 L 986.0 599.0 L 39.0 599.0 Z M 39.0 595.0 "></path></clipPath><g clip-path="url(#clip-191)"><path d="M 0.0 0.0 L 944.7 0.0 " fill="none" stroke="#434343" stroke-width="1.00" transform="matrix(1.00, 0.00, 0.00, -1.00, 40.0, 597.0)"></path></g></g></g><g opacity="0.30"><g><clipPath id="clip-192"><path d="M 39.0 716.0 L 986.0 716.0 L 986.0 720.0 L 39.0 720.0 Z M 39.0 716.0 "></path></clipPath><g clip-path="url(#clip-192)"><path d="M 0.0 0.0 L 944.7 0.0 " fill="none" stroke="#434343" stroke-width="1.00" transform="matrix(1.00, 0.00, 0.00, -1.00, 40.0, 718.0)"></path></g></g></g><text xml:space="preserve" font-family="BodoniSvtyTwoITCTT-Book" font-size="65.1" fill="#D93D2A" transform="matrix(1.00, 0.00, -0.00, -1.00, 44.0, 635.0)">D</text><text xml:space="preserve" font-family="BodoniSvtyTwoITCTT-Book" font-size="65.1" fill="#D93D2A" transform="matrix(1.00, 0.00, -0.00, -1.00, 90.6, 635.0)">e</text><text xml:space="preserve" font-family="BodoniSvtyTwoITCTT-Book" font-size="65.1" fill="#D93D2A" transform="matrix(1.00, 0.00, -0.00, -1.00, 118.6, 635.0)">k</text><text xml:space="preserve" font-family="BodoniSvtyTwoITCTT-Book" font-size="65.1" fill="#D93D2A" transform="matrix(1.00, 0.00, -0.00, -1.00, 149.1, 635.0)">o</text><text xml:space="preserve" font-family="BodoniSvtyTwoITCTT-Book" font-size="65.1" fill="#D93D2A" transform="matrix(1.00, 0.00, -0.00, -1.00, 180.4, 635.0)">m</text><text xml:space="preserve" font-family="BodoniSvtyTwoITCTT-Book" font-size="65.1" fill="#D93D2A" transform="matrix(1.00, 0.00, -0.00, -1.00, 226.1, 635.0)">p</text><text xml:space="preserve" font-family="BodoniSvtyTwoITCTT-Book" font-size="65.1" fill="#D93D2A" transform="matrix(1.00, 0.00, -0.00, -1.00, 258.0, 635.0)">o</text><text xml:space="preserve" font-family="BodoniSvtyTwoITCTT-Book" font-size="65.1" fill="#D93D2A" transform="matrix(1.00, 0.00, -0.00, -1.00, 289.2, 635.0)">z</text><text xml:space="preserve" font-family="BodoniSvtyTwoITCTT-Book" font-size="65.1" fill="#D93D2A" transform="matrix(1.00, 0.00, -0.00, -1.00, 314.9, 635.0)">y</text><text xml:space="preserve" font-family="BodoniSvtyTwoITCTT-Book" font-size="65.1" fill="#D93D2A" transform="matrix(1.00, 0.00, -0.00, -1.00, 341.1, 635.0)">c</text><text xml:space="preserve" font-family="BodoniSvtyTwoITCTT-Book" font-size="65.1" fill="#D93D2A" transform="matrix(1.00, 0.00, -0.00, -1.00, 367.7, 635.0)">j</text><text xml:space="preserve" font-family="BodoniSvtyTwoITCTT-Book" font-size="65.1" fill="#D93D2A" transform="matrix(1.00, 0.00, -0.00, -1.00, 383.1, 635.0)">a</text><text xml:space="preserve" font-family="BodoniSvtyTwoITCTT-Book" font-size="65.1" fill="#D93D2A" transform="matrix(1.00, 0.00, -0.00, -1.00, 409.0, 635.0)"> </text><text xml:space="preserve" font-family="BodoniSvtyTwoITCTT-Book" font-size="65.1" fill="#D93D2A" transform="matrix(1.00, 0.00, -0.00, -1.00, 421.1, 635.0)">z</text><text xml:space="preserve" font-family="BodoniSvtyTwoITCTT-Book" font-size="65.1" fill="#D93D2A" transform="matrix(1.00, 0.00, -0.00, -1.00, 446.8, 635.0)">a</text><text xml:space="preserve" font-family="BodoniSvtyTwoITCTT-Book" font-size="65.1" fill="#D93D2A" transform="matrix(1.00, 0.00, -0.00, -1.00, 472.6, 635.0)">d</text><text xml:space="preserve" font-family="BodoniSvtyTwoITCTT-Book" font-size="65.1" fill="#D93D2A" transform="matrix(1.00, 0.00, -0.00, -1.00, 503.6, 635.0)">a</text><text xml:space="preserve" font-family="BodoniSvtyTwoITCTT-Book" font-size="65.1" fill="#D93D2A" transform="matrix(1.00, 0.00, -0.00, -1.00, 529.5, 635.0)">ń</text><text xml:space="preserve" font-family="BodoniSvtyTwoITCTT-Book" font-size="65.1" fill="#D93D2A" transform="matrix(1.00, 0.00, -0.00, -1.00, 561.3, 635.0)"> </text><text xml:space="preserve" font-family="BodoniSvtyTwoITCTT-Book" font-size="65.1" fill="#D93D2A" transform="matrix(1.00, 0.00, -0.00, -1.00, 573.4, 635.0)">-</text><text xml:space="preserve" font-family="BodoniSvtyTwoITCTT-Book" font-size="65.1" fill="#D93D2A" transform="matrix(1.00, 0.00, -0.00, -1.00, 593.2, 635.0)"> </text><text xml:space="preserve" font-family="BodoniSvtyTwoITCTT-Book" font-size="65.1" fill="#D93D2A" transform="matrix(1.00, 0.00, -0.00, -1.00, 605.4, 635.0)">z</text><text xml:space="preserve" font-family="BodoniSvtyTwoITCTT-Book" font-size="65.1" fill="#D93D2A" transform="matrix(1.00, 0.00, -0.00, -1.00, 631.1, 635.0)">e</text><text xml:space="preserve" font-family="BodoniSvtyTwoITCTT-Book" font-size="65.1" fill="#D93D2A" transform="matrix(1.00, 0.00, -0.00, -1.00, 659.1, 635.0)">s</text><text xml:space="preserve" font-family="BodoniSvtyTwoITCTT-Book" font-size="65.1" fill="#D93D2A" transform="matrix(1.00, 0.00, -0.00, -1.00, 682.6, 635.0)">p</text><text xml:space="preserve" font-family="BodoniSvtyTwoITCTT-Book" font-size="65.1" fill="#D93D2A" transform="matrix(1.00, 0.00, -0.00, -1.00, 714.5, 635.0)">ó</text><text xml:space="preserve" font-family="BodoniSvtyTwoITCTT-Book" font-size="65.1" fill="#D93D2A" transform="matrix(1.00, 0.00, -0.00, -1.00, 745.7, 635.0)">ł</text><text xml:space="preserve" font-family="BodoniSvtyTwoITCTT-Book" font-size="65.1" fill="#D93D2A" transform="matrix(1.00, 0.00, -0.00, -1.00, 761.0, 635.0)"> </text><text xml:space="preserve" font-family="BodoniSvtyTwoITCTT-Book" font-size="65.1" fill="#D93D2A" transform="matrix(1.00, 0.00, -0.00, -1.00, 773.1, 635.0)">s</text><text xml:space="preserve" font-family="BodoniSvtyTwoITCTT-Book" font-size="65.1" fill="#D93D2A" transform="matrix(1.00, 0.00, -0.00, -1.00, 796.7, 635.0)">i</text><text xml:space="preserve" font-family="BodoniSvtyTwoITCTT-Book" font-size="65.1" fill="#D93D2A" transform="matrix(1.00, 0.00, -0.00, -1.00, 813.0, 635.0)">l</text><text xml:space="preserve" font-family="BodoniSvtyTwoITCTT-Book" font-size="65.1" fill="#D93D2A" transform="matrix(1.00, 0.00, -0.00, -1.00, 828.3, 635.0)">o</text><text xml:space="preserve" font-family="BodoniSvtyTwoITCTT-Book" font-size="65.1" fill="#D93D2A" transform="matrix(1.00, 0.00, -0.00, -1.00, 859.6, 635.0)">s</text><text xml:space="preserve" font-family="BodoniSvtyTwoITCTT-Book" font-size="65.1" fill="#D93D2A" transform="matrix(1.00, 0.00, -0.00, -1.00, 883.1, 635.0)">o</text><text xml:space="preserve" font-family="BodoniSvtyTwoITCTT-Book" font-size="65.1" fill="#D93D2A" transform="matrix(1.00, 0.00, -0.00, -1.00, 914.4, 635.0)">w</text><text xml:space="preserve" font-family="BodoniSvtyTwoITCTT-Book" font-size="65.1" fill="#D93D2A" transform="matrix(1.00, 0.00, -0.00, -1.00, 953.4, 635.0)">y</text><text xml:space="preserve" font-family="Palatino-Roman" font-size="16.0" fill="#414040" transform="matrix(1.00, 0.00, -0.00, -1.00, 864.0, 12.0)">ź</text><text xml:space="preserve" font-family="Palatino-Roman" font-size="16.0" fill="#414040" transform="matrix(1.00, 0.00, -0.00, -1.00, 872.0, 12.0)">r</text><text xml:space="preserve" font-family="Palatino-Roman" font-size="16.0" fill="#414040" transform="matrix(1.00, 0.00, -0.00, -1.00, 878.3, 12.0)">ó</text><text xml:space="preserve" font-family="Palatino-Roman" font-size="16.0" fill="#414040" transform="matrix(1.00, 0.00, -0.00, -1.00, 887.1, 12.0)">d</text><text xml:space="preserve" font-family="Palatino-Roman" font-size="16.0" fill="#414040" transform="matrix(1.00, 0.00, -0.00, -1.00, 896.8, 12.0)">ł</text><text xml:space="preserve" font-family="Palatino-Roman" font-size="16.0" fill="#414040" transform="matrix(1.00, 0.00, -0.00, -1.00, 901.5, 12.0)">o</text><text xml:space="preserve" font-family="Palatino-Roman" font-size="16.0" fill="#414040" transform="matrix(1.00, 0.00, -0.00, -1.00, 910.2, 12.0)">:</text><text xml:space="preserve" font-family="Palatino-Roman" font-size="16.0" fill="#414040" transform="matrix(1.00, 0.00, -0.00, -1.00, 914.2, 12.0)"> </text><text xml:space="preserve" font-family="Palatino-Roman" font-size="16.0" fill="#414040" transform="matrix(1.00, 0.00, -0.00, -1.00, 918.2, 12.0)">o</text><text xml:space="preserve" font-family="Palatino-Roman" font-size="16.0" fill="#414040" transform="matrix(1.00, 0.00, -0.00, -1.00, 926.9, 12.0)">p</text><text xml:space="preserve" font-family="Palatino-Roman" font-size="16.0" fill="#414040" transform="matrix(1.00, 0.00, -0.00, -1.00, 936.6, 12.0)">r</text><text xml:space="preserve" font-family="Palatino-Roman" font-size="16.0" fill="#414040" transform="matrix(1.00, 0.00, -0.00, -1.00, 942.9, 12.0)">a</text><text xml:space="preserve" font-family="Palatino-Roman" font-size="16.0" fill="#414040" transform="matrix(1.00, 0.00, -0.00, -1.00, 950.9, 12.0)">c</text><text xml:space="preserve" font-family="Palatino-Roman" font-size="16.0" fill="#414040" transform="matrix(1.00, 0.00, -0.00, -1.00, 958.0, 12.0)">.</text><text xml:space="preserve" font-family="Palatino-Roman" font-size="16.0" fill="#414040" transform="matrix(1.00, 0.00, -0.00, -1.00, 962.0, 12.0)"> </text><text xml:space="preserve" font-family="Palatino-Roman" font-size="16.0" fill="#414040" transform="matrix(1.00, 0.00, -0.00, -1.00, 966.0, 12.0)">w</text><text xml:space="preserve" font-family="Palatino-Roman" font-size="16.0" fill="#414040" transform="matrix(1.00, 0.00, -0.00, -1.00, 979.3, 12.0)">ł</text><text xml:space="preserve" font-family="Palatino-Roman" font-size="16.0" fill="#414040" transform="matrix(1.00, 0.00, -0.00, -1.00, 984.0, 12.0)">a</text><text xml:space="preserve" font-family="Palatino-Roman" font-size="16.0" fill="#414040" transform="matrix(1.00, 0.00, -0.00, -1.00, 992.0, 12.0)">s</text><text xml:space="preserve" font-family="Palatino-Roman" font-size="16.0" fill="#414040" transform="matrix(1.00, 0.00, -0.00, -1.00, 998.8, 12.0)">n</text><text xml:space="preserve" font-family="Palatino-Roman" font-size="16.0" fill="#414040" transform="matrix(1.00, 0.00, -0.00, -1.00, 1008.1, 12.0)">e</text><image xlink:href="7F7EB93B71C66E1F956DA3AE2FDBF63E.png" width="884.00" height="554.00" transform="matrix(1.00, 0.00, -0.00, -1.00, 70.0, 591.0)"></image></g></svg>