<?xml version="1.0" encoding="UTF-8" standalone="no"?><svg xmlns="http://www.w3.org/2000/svg" xmlns:xlink="http://www.w3.org/1999/xlink" clip-rule="evenodd" stroke-miterlimit="4.00" viewBox="0 0 244 206"><desc>SVG generated by Keynote</desc><defs></defs><g transform="matrix(1.00, 0.00, -0.00, -1.00, 0.0, 206.0)"><path d="M 39.1 29.5 C 38.2 29.4 37.0 27.5 36.3 27.5 M 39.1 29.5 C 39.1 29.5 39.1 29.5 39.1 29.5 C 40.0 29.6 38.4 26.4 38.5 25.7 C 38.6 25.1 37.8 25.2 37.4 24.9 C 36.6 24.2 38.6 24.1 36.7 23.1 C 35.2 22.3 34.4 20.8 33.3 19.6 C 32.3 18.6 31.5 18.1 30.6 19.4 C 31.4 21.7 30.3 22.6 30.3 22.6 C 28.9 21.7 26.0 19.6 25.5 18.3 C 25.3 17.9 28.6 15.5 28.4 15.3 C 27.8 14.4 26.7 15.1 25.9 14.5 C 25.1 13.8 24.6 13.6 24.3 12.4 C 24.2 12.2 22.7 10.9 22.9 11.8 C 22.4 11.3 21.7 10.3 20.9 10.0 C 20.2 9.8 19.2 10.7 19.8 11.4 C 19.5 11.4 22.4 14.2 22.6 14.0 C 21.8 14.8 20.4 11.6 18.7 12.4 C 16.4 13.4 18.4 13.9 18.8 15.1 C 19.2 16.2 16.3 15.3 15.5 14.7 C 13.9 13.4 16.6 18.3 14.6 17.4 C 12.5 16.6 13.9 18.4 14.5 20.4 C 15.0 21.7 14.1 22.1 13.0 21.9 C 14.2 22.6 14.6 23.4 14.6 25.0 C 15.5 26.1 15.6 25.0 15.9 24.5 C 17.1 22.1 18.9 27.5 19.1 27.6 C 19.7 28.0 20.6 27.8 21.1 28.5 C 21.4 29.0 20.6 29.9 21.0 30.2 C 21.5 30.6 22.1 31.1 22.6 31.5 C 23.1 31.9 22.4 30.7 23.6 30.6 C 24.7 30.5 24.8 28.7 24.8 28.4 C 25.4 27.7 25.7 33.0 27.3 34.2 C 28.9 35.3 28.5 33.9 29.6 34.6 C 30.5 35.3 29.4 36.0 30.1 36.5 C 30.7 37.1 31.4 36.7 31.8 37.4 C 32.6 39.0 33.8 37.6 33.8 35.7 C 33.8 34.9 33.4 33.8 34.7 33.3 C 35.9 32.8 37.0 34.5 36.8 33.3 C 36.6 32.0 32.7 30.4 32.8 29.5 C 32.8 28.5 36.1 31.5 36.3 30.3 C 36.5 29.1 35.5 29.9 34.7 28.5 C 35.1 28.2 35.4 29.0 35.9 28.5 C 36.4 28.1 35.5 27.5 36.3 27.5 C 37.0 27.5 38.2 29.4 39.1 29.5 C 39.1 29.5 39.1 29.5 39.1 29.5 Z M 25.7 15.5 C 25.7 15.5 25.7 15.5 25.7 15.5 C 25.7 15.1 26.2 15.2 26.5 15.6 C 26.8 16.0 25.7 15.8 25.7 15.5 C 25.7 15.5 25.7 15.5 25.7 15.5 Z M 26.7 34.9 C 26.7 34.9 26.7 34.9 26.7 34.9 C 26.7 34.6 27.2 34.6 27.5 35.0 C 27.7 35.5 26.7 35.2 26.7 34.9 C 26.7 34.9 26.7 34.9 26.7 34.9 Z M 16.5 25.1 C 16.5 25.1 16.5 25.1 16.5 25.1 C 16.5 24.8 17.1 24.8 17.3 25.3 C 17.6 25.7 16.6 25.4 16.5 25.1 C 16.5 25.1 16.5 25.1 16.5 25.1 Z M 29.2 19.2 C 29.2 19.2 29.2 19.2 29.2 19.2 C 29.7 19.6 30.0 20.5 28.6 20.0 C 28.0 19.8 27.6 19.4 27.4 19.0 C 27.0 18.7 26.5 18.1 26.5 17.7 C 27.7 18.2 29.1 18.2 29.2 19.2 C 29.2 19.2 29.2 19.2 29.2 19.2 Z M 25.5 24.3 C 25.5 24.3 25.5 24.3 25.5 24.3 C 25.9 24.1 27.0 24.8 26.2 25.5 C 25.4 25.3 25.1 24.4 25.5 24.3 C 25.5 24.3 25.5 24.3 25.5 24.3 Z M 16.7 11.3 C 16.7 11.3 16.7 11.3 16.7 11.3 C 17.2 11.2 18.2 11.8 17.4 12.6 C 16.6 12.3 16.3 11.5 16.7 11.3 C 16.7 11.3 16.7 11.3 16.7 11.3 Z M 30.0 23.6 C 30.0 23.6 30.0 23.6 30.0 23.6 C 30.4 24.2 30.0 25.2 29.2 24.7 C 29.2 24.0 27.7 22.5 30.0 23.6 C 30.0 23.6 30.0 23.6 30.0 23.6 Z M 35.9 23.8 C 35.9 23.8 35.9 23.8 35.9 23.8 C 36.1 24.3 36.4 24.4 35.8 25.0 C 35.3 24.6 35.4 24.7 34.8 24.3 C 34.2 23.5 32.6 24.7 32.9 23.5 C 33.4 21.7 36.1 23.1 35.9 23.8 C 35.9 23.8 35.9 23.8 35.9 23.8 Z M 30.2 25.7 C 30.2 25.7 30.2 25.7 30.2 25.7 C 30.3 25.9 30.4 26.2 30.3 26.4 C 29.9 26.6 29.9 25.7 30.2 25.7 C 30.2 25.7 30.2 25.7 30.2 25.7 Z M 13.2 18.8 C 13.2 18.8 13.2 18.8 13.2 18.8 C 13.4 19.0 13.4 19.4 13.4 19.5 C 13.0 19.7 12.9 18.8 13.2 18.8 C 13.2 18.8 13.2 18.8 13.2 18.8 Z M 19.7 28.4 C 19.7 28.4 19.7 28.4 19.7 28.4 C 19.8 28.6 19.9 29.0 19.8 29.1 C 19.4 29.3 19.4 28.4 19.7 28.4 C 19.7 28.4 19.7 28.4 19.7 28.4 Z M 23.5 17.3 C 23.5 17.3 23.5 17.3 23.5 17.3 C 22.8 17.3 22.4 15.6 22.7 15.5 C 23.6 15.2 24.1 17.3 23.5 17.3 C 23.5 17.3 23.5 17.3 23.5 17.3 Z M 40.6 27.3 C 40.6 27.3 40.6 27.3 40.6 27.3 C 39.9 27.3 39.5 25.6 39.8 25.5 C 40.8 25.2 41.3 27.3 40.6 27.3 C 40.6 27.3 40.6 27.3 40.6 27.3 Z M 230.3 184.8 C 230.3 184.8 230.3 184.8 230.3 184.8 C 230.6 185.0 230.9 185.2 231.3 185.3 C 231.3 185.1 231.2 184.9 231.1 184.8 C 230.9 184.6 230.7 184.4 230.5 184.3 C 229.6 183.5 231.8 183.5 229.7 182.3 C 228.2 181.5 228.5 181.0 227.4 179.8 C 227.1 179.6 226.7 181.5 226.5 181.8 C 226.0 182.8 224.2 183.2 224.1 182.9 C 223.5 182.6 222.2 181.9 221.7 180.7 C 220.6 179.9 222.7 178.6 222.6 178.5 C 221.2 177.6 221.9 177.7 221.0 176.7 C 220.2 176.1 219.6 177.4 218.8 176.7 C 218.4 176.7 219.9 174.4 218.1 172.9 C 217.2 172.1 216.7 171.9 216.3 170.7 C 216.3 170.4 214.7 169.0 214.9 170.0 C 214.6 169.7 214.1 169.1 213.6 169.3 C 211.8 170.0 214.3 171.1 214.1 171.6 C 214.1 171.7 212.7 171.0 212.4 171.7 C 212.1 172.4 208.0 168.4 208.9 170.4 C 210.0 172.6 207.7 174.3 207.2 174.2 C 206.9 174.0 207.7 172.8 206.7 173.0 C 205.6 173.1 206.5 175.0 206.1 175.5 C 204.0 178.1 205.4 176.5 206.1 178.5 C 206.5 179.6 204.8 179.3 204.2 179.4 C 204.2 179.7 205.5 180.6 205.5 180.9 C 206.0 181.5 206.1 181.1 206.1 182.2 C 206.1 182.9 207.5 183.3 207.7 183.4 C 208.1 183.4 207.2 182.8 207.5 182.4 C 208.4 180.4 208.4 183.7 209.5 184.5 C 210.6 185.3 211.1 185.6 211.2 185.8 C 211.4 185.9 212.3 184.7 212.5 185.0 C 213.0 185.2 212.9 186.0 212.9 186.6 C 213.0 187.2 214.5 187.1 215.0 187.6 C 215.4 188.0 214.9 188.5 215.7 189.8 C 216.5 191.1 217.8 189.4 218.0 188.8 C 218.7 186.8 217.7 191.1 218.6 191.6 C 219.4 192.2 219.9 191.5 220.4 192.0 C 220.6 192.3 220.6 192.7 220.7 193.1 C 221.2 192.9 221.5 193.5 222.3 194.1 C 222.4 194.2 222.5 194.3 222.6 194.3 C 222.8 194.3 222.1 192.5 222.4 192.4 C 223.3 192.1 223.3 193.6 223.2 194.1 C 224.1 194.0 224.9 194.3 225.4 195.1 C 226.4 196.8 227.6 195.4 227.6 193.4 C 227.5 192.5 227.1 191.0 228.4 190.9 C 229.8 190.9 230.6 192.8 230.7 191.0 C 230.6 190.9 231.3 190.5 229.6 189.8 C 227.9 189.2 227.7 187.9 227.7 187.9 C 227.0 187.2 226.5 187.6 226.4 186.9 C 226.3 186.1 227.4 187.0 228.1 187.6 C 228.4 187.5 228.4 186.8 229.1 187.3 C 229.8 187.8 229.3 188.4 229.9 188.3 C 230.6 188.2 230.1 188.1 230.1 187.9 C 230.7 188.2 231.2 188.7 231.7 189.1 C 232.6 190.2 232.0 187.5 231.6 187.0 C 231.0 186.2 229.3 186.5 230.3 184.8 C 230.3 184.8 230.3 184.8 230.3 184.8 Z M 227.5 189.6 C 227.5 189.6 227.5 189.6 227.5 189.6 C 227.1 189.6 226.3 188.5 227.0 188.6 C 227.6 188.6 227.9 189.7 227.5 189.6 C 227.5 189.6 227.5 189.6 227.5 189.6 Z M 214.9 190.2 C 214.9 190.2 214.9 190.2 214.9 190.2 C 214.5 190.2 213.7 189.1 214.3 189.2 C 215.0 189.2 215.3 190.3 214.9 190.2 C 214.9 190.2 214.9 190.2 214.9 190.2 Z M 224.7 178.9 C 224.7 178.9 224.7 178.9 224.7 178.9 C 223.8 179.2 223.8 177.5 224.3 177.6 C 224.6 178.0 224.7 178.6 224.7 178.9 C 224.7 178.9 224.7 178.9 224.7 178.9 Z M 220.2 190.6 C 220.2 190.6 220.2 190.6 220.2 190.6 C 220.1 190.5 219.9 190.3 219.8 190.2 C 220.2 190.1 221.1 190.4 221.4 190.6 C 221.0 191.2 220.5 190.8 220.2 190.6 C 220.2 190.6 220.2 190.6 220.2 190.6 Z M 221.3 176.1 C 221.3 176.1 221.3 176.1 221.3 176.1 C 220.5 176.2 220.2 175.6 219.8 175.2 C 221.1 173.4 222.0 176.0 221.3 176.1 C 221.3 176.1 221.3 176.1 221.3 176.1 Z M 212.9 174.0 C 212.9 174.0 212.9 174.0 212.9 174.0 C 213.2 175.1 210.7 174.6 210.8 173.8 C 210.9 173.0 211.7 173.4 212.2 173.7 C 212.4 173.7 212.6 172.9 212.9 174.0 C 212.9 174.0 212.9 174.0 212.9 174.0 Z M 211.7 184.1 C 211.7 184.1 211.7 184.1 211.7 184.1 C 211.8 184.1 212.2 184.0 212.2 184.2 C 212.2 184.4 211.7 184.5 211.7 184.1 C 211.7 184.1 211.7 184.1 211.7 184.1 Z M 224.3 195.2 C 224.3 195.2 224.3 195.2 224.3 195.2 C 224.5 195.2 224.8 195.1 224.8 195.3 C 224.8 195.6 224.3 195.6 224.3 195.2 C 224.3 195.2 224.3 195.2 224.3 195.2 Z M 208.2 180.7 C 208.2 180.7 208.2 180.7 208.2 180.7 C 208.4 180.1 208.7 180.8 209.0 180.8 C 208.8 181.3 208.0 181.4 208.2 180.7 C 208.2 180.7 208.2 180.7 208.2 180.7 Z M 223.1 179.7 C 223.1 179.7 223.1 179.7 223.1 179.7 C 224.3 179.4 226.0 180.7 224.8 182.1 C 224.3 181.7 223.6 181.6 223.3 181.1 C 223.0 180.8 223.1 180.1 223.1 179.7 C 223.1 179.7 223.1 179.7 223.1 179.7 Z M 228.2 183.4 C 228.2 183.4 228.2 183.4 228.2 183.4 C 228.7 183.4 229.4 184.0 228.4 184.3 C 228.0 184.4 227.7 184.4 227.3 184.2 C 226.9 184.1 226.0 184.0 226.1 183.6 C 226.2 183.2 227.6 182.7 228.2 183.4 C 228.2 183.4 228.2 183.4 228.2 183.4 Z M 220.0 177.6 C 220.0 177.6 220.0 177.6 220.0 177.6 C 220.5 177.2 221.7 178.2 221.5 178.5 C 221.4 178.7 219.5 177.9 220.0 177.6 C 220.0 177.6 220.0 177.6 220.0 177.6 Z M 225.8 180.2 C 225.8 180.2 225.8 180.2 225.8 180.2 C 226.0 180.3 226.1 180.5 225.9 180.5 C 225.7 180.5 225.5 180.4 225.5 180.2 C 225.5 180.1 225.7 180.0 225.8 180.2 C 225.8 180.2 225.8 180.2 225.8 180.2 Z M 218.4 172.0 C 218.4 172.0 218.4 172.0 218.4 172.0 C 218.5 172.2 218.6 172.4 218.4 172.4 C 218.2 172.4 218.1 172.2 218.0 172.1 C 218.0 172.0 218.2 171.9 218.4 172.0 C 218.4 172.0 218.4 172.0 218.4 172.0 Z M 231.5 184.1 C 231.5 184.1 231.5 184.1 231.5 184.1 C 231.7 184.3 231.8 184.5 231.6 184.5 C 231.4 184.5 231.2 184.3 231.2 184.2 C 231.2 184.0 231.3 183.9 231.5 184.1 C 231.5 184.1 231.5 184.1 231.5 184.1 Z M 217.8 174.2 C 217.8 174.2 217.8 174.2 217.8 174.2 C 217.9 174.8 217.5 175.2 216.8 174.7 C 219.3 179.1 213.8 175.2 214.3 173.7 C 214.9 171.5 218.0 173.4 217.8 174.2 C 217.8 174.2 217.8 174.2 217.8 174.2 Z M 47.2 36.3 C 46.9 34.6 44.2 33.6 43.3 32.2 C 42.5 30.8 42.5 28.9 40.8 30.0 C 39.5 30.7 36.5 28.3 35.9 29.5 C 35.5 30.4 35.5 31.3 34.8 32.1 C 33.5 33.5 31.9 32.8 32.6 35.1 C 33.2 37.0 34.6 35.0 34.0 37.7 C 33.6 39.6 35.2 41.1 37.0 40.3 C 38.6 39.6 40.2 39.7 39.6 42.1 C 39.3 43.3 39.1 43.6 39.7 44.7 C 39.9 45.0 42.8 45.9 42.8 46.0 C 42.9 45.5 42.3 43.4 43.6 44.3 C 44.4 44.8 44.7 46.5 43.8 47.1 C 42.2 48.0 47.6 50.7 47.5 50.0 C 47.6 50.2 47.4 52.5 48.7 51.8 C 48.7 51.8 50.8 53.2 51.2 53.4 C 55.5 56.4 50.7 48.7 55.1 52.2 C 58.0 54.5 54.5 55.0 54.3 55.5 C 54.0 56.6 56.4 58.4 57.2 59.2 C 57.8 59.8 59.2 59.4 60.0 59.4 C 61.2 59.3 62.6 60.9 62.6 61.9 C 62.6 62.4 62.4 63.5 62.8 64.0 C 62.7 63.9 64.1 65.2 64.0 64.8 C 64.0 64.5 63.3 63.0 64.1 63.1 C 64.7 63.1 64.8 65.4 65.2 65.9 C 65.9 66.9 67.8 64.6 68.5 67.0 C 69.0 68.6 68.4 68.0 70.0 67.5 C 70.9 67.3 71.6 70.0 71.3 70.5 C 72.6 67.9 72.7 71.3 73.1 71.0 C 72.8 71.2 71.9 70.6 71.7 71.0 C 71.6 71.2 78.1 77.1 79.0 76.6 C 79.8 76.0 79.4 74.5 81.0 76.3 C 81.5 76.8 82.1 78.1 81.8 78.3 C 80.5 77.8 81.0 77.8 79.5 77.4 C 79.5 77.4 81.5 79.5 81.8 79.7 C 83.0 80.7 83.8 80.6 85.3 80.9 C 86.3 81.2 86.0 82.7 86.8 83.4 C 87.8 84.3 88.6 85.0 89.8 85.6 C 90.8 86.2 91.1 86.5 91.7 85.8 C 92.4 85.1 94.3 86.5 95.0 86.5 C 95.8 86.5 95.9 86.6 96.2 87.5 C 96.8 89.2 95.9 88.6 95.7 89.1 C 95.0 90.9 98.1 93.2 99.3 93.7 C 100.6 94.4 99.4 92.2 99.7 92.3 C 100.5 92.4 101.0 93.4 101.5 93.9 C 102.4 94.6 101.1 94.4 101.2 94.9 C 101.7 97.3 104.3 95.1 105.1 96.2 C 106.3 97.6 105.2 99.7 107.5 100.1 C 109.9 100.6 109.9 103.5 112.2 104.2 C 114.1 104.7 114.5 108.5 116.8 107.4 C 117.9 106.8 120.1 107.0 120.9 106.1 C 121.1 105.8 122.3 102.5 121.6 102.6 C 122.1 102.5 123.0 103.4 123.5 103.1 C 123.8 102.8 122.7 101.1 122.7 100.7 C 122.7 100.5 125.0 101.4 125.3 101.2 C 125.7 100.9 123.2 97.7 124.1 96.4 C 124.6 95.9 123.6 94.5 123.1 95.1 C 122.9 95.4 122.1 97.4 122.6 97.7 C 122.4 97.6 121.0 95.8 121.1 95.8 C 121.1 96.2 121.0 96.6 120.7 96.9 C 120.5 97.0 117.0 94.1 117.0 93.8 C 117.1 93.0 118.7 92.0 118.5 91.3 C 118.3 90.9 116.8 91.1 116.4 90.7 C 115.7 90.0 117.1 89.9 116.5 89.1 C 116.4 88.9 111.9 86.2 111.6 86.3 C 111.5 86.4 111.5 88.6 111.2 89.1 C 110.6 90.0 109.7 88.7 109.3 88.3 C 108.6 87.6 106.5 84.6 107.4 83.4 C 107.7 83.0 109.7 84.5 110.2 84.6 C 109.6 84.5 108.7 80.4 106.8 81.2 C 106.6 81.3 107.5 82.2 107.5 82.4 C 107.4 82.6 105.6 83.4 105.2 82.8 C 105.0 82.5 105.0 80.9 104.4 80.9 C 104.7 80.9 102.4 81.3 102.7 80.6 C 102.5 81.0 102.8 82.7 102.3 82.9 C 102.3 82.9 100.4 81.0 100.2 80.8 C 99.1 79.2 99.2 80.1 98.0 80.0 C 96.8 79.9 94.6 78.9 96.1 77.7 C 97.9 76.3 96.6 74.5 95.5 75.8 C 94.4 77.1 94.4 76.6 93.4 75.2 C 92.4 73.8 90.6 73.3 90.4 71.4 C 90.2 69.1 92.4 70.6 92.4 69.8 C 92.4 68.8 91.2 68.0 90.5 67.6 C 89.4 67.0 89.5 68.6 89.0 68.4 C 88.1 68.0 88.4 66.1 87.5 65.7 C 87.4 65.7 85.6 65.5 85.9 65.7 C 82.9 63.0 85.6 66.3 85.0 67.8 C 84.7 68.4 83.5 66.0 82.8 67.8 C 82.0 69.7 79.4 67.5 79.9 66.6 C 80.2 66.7 80.5 66.6 80.8 66.6 C 81.1 65.6 78.2 63.6 78.7 62.9 C 78.9 62.5 83.4 64.6 83.5 63.3 C 83.5 62.5 82.1 62.7 81.7 62.7 C 81.0 62.8 81.7 61.8 81.6 61.5 C 81.7 61.7 80.0 60.4 79.3 60.8 C 79.1 60.9 80.1 62.4 79.5 62.2 C 77.3 61.4 79.2 61.0 79.0 59.6 C 78.9 58.7 76.5 55.9 76.5 56.0 C 76.5 56.3 77.2 57.2 76.8 57.3 C 76.2 57.6 75.5 56.5 75.0 56.7 C 74.8 56.8 75.4 57.7 75.3 57.7 C 74.5 57.9 72.8 56.1 72.3 56.5 C 72.0 56.9 74.1 58.2 73.7 58.7 C 73.4 59.2 71.9 58.9 72.3 58.2 C 72.8 57.1 70.1 56.6 69.9 55.7 C 69.7 54.7 72.0 55.4 70.7 54.0 C 69.2 52.4 69.8 54.1 69.0 54.3 C 67.0 54.7 68.3 49.0 66.9 49.5 C 66.4 49.7 66.8 52.7 65.5 51.0 C 64.9 50.3 60.4 49.1 61.5 47.8 C 61.7 47.5 63.8 48.9 63.8 48.6 C 64.0 47.7 62.6 46.8 62.2 46.3 C 61.4 45.4 62.4 45.1 62.2 44.2 C 61.9 43.1 60.3 44.1 59.7 43.6 C 59.2 43.0 58.0 45.5 57.9 45.9 C 58.4 44.8 55.7 44.5 55.8 43.3 C 56.2 40.6 55.4 41.1 54.5 39.4 C 54.7 39.6 54.8 39.9 54.7 40.3 C 54.5 40.3 53.4 39.6 53.4 39.4 C 53.7 39.9 53.8 40.4 53.8 40.9 C 53.7 41.0 47.3 39.4 48.4 37.1 C 48.5 36.8 50.7 33.5 49.1 33.8 C 48.6 33.9 47.3 36.4 47.2 36.3 M 65.2 49.0 C 65.5 49.2 65.7 49.5 65.5 49.9 C 65.0 49.8 64.7 49.6 64.4 49.1 C 64.6 48.7 64.8 48.7 65.2 49.0 M 65.9 47.9 C 66.2 48.1 66.3 48.4 66.1 48.7 C 63.8 47.8 65.4 45.6 66.4 47.7 C 66.4 47.7 65.7 47.6 65.9 47.9 M 81.0 60.1 C 80.9 60.4 79.1 59.7 79.8 59.3 C 80.2 59.2 81.1 59.8 81.0 60.1 M 81.9 64.9 C 82.0 65.8 80.8 64.9 80.8 64.5 C 80.9 63.8 81.9 64.7 81.9 64.9 M 115.8 91.5 C 115.1 92.8 110.6 92.2 111.8 90.3 C 113.2 88.1 116.8 89.6 115.8 91.5 M 94.8 72.2 C 94.3 72.6 93.3 71.1 93.8 70.6 C 94.6 69.9 95.3 71.8 94.8 72.2 M 92.4 72.6 C 91.9 73.0 91.2 72.0 91.5 71.7 C 91.7 71.4 93.0 72.2 92.4 72.6 M 109.5 86.3 C 109.9 86.0 110.5 87.4 110.1 87.3 C 109.7 87.3 109.0 86.5 109.5 86.3 C 109.5 86.3 109.5 86.3 109.5 86.3 Z M 119.2 94.5 C 119.0 94.2 119.5 94.0 119.6 94.4 C 119.7 94.6 119.3 94.8 119.2 94.5 C 119.2 94.5 119.2 94.5 119.2 94.5 Z M 99.4 79.0 C 98.5 78.0 100.5 77.7 101.1 79.2 C 101.6 80.5 100.6 80.1 99.4 79.0 C 99.4 79.0 99.4 79.0 99.4 79.0 Z M 107.5 99.2 C 107.6 99.5 106.9 99.4 106.7 99.1 C 106.4 98.3 107.3 98.9 107.5 99.2 C 107.5 99.2 107.5 99.2 107.5 99.2 Z M 60.2 49.2 C 60.4 49.9 59.6 49.5 59.6 49.1 C 59.6 48.7 60.0 48.5 60.2 49.2 C 60.2 49.2 60.2 49.2 60.2 49.2 Z M 50.7 37.9 C 51.0 38.6 49.9 37.7 49.9 37.3 C 49.9 36.9 50.5 37.2 50.7 37.9 C 50.7 37.9 50.7 37.9 50.7 37.9 Z M 36.4 36.9 C 36.6 37.5 35.8 37.1 35.8 36.8 C 35.8 36.3 36.2 36.2 36.4 36.9 C 36.4 36.9 36.4 36.9 36.4 36.9 Z M 54.0 49.1 C 54.3 49.8 53.4 49.4 53.4 49.0 C 53.4 48.6 53.8 48.4 54.0 49.1 C 54.0 49.1 54.0 49.1 54.0 49.1 Z M 59.1 46.3 C 59.0 45.4 60.7 44.2 60.7 46.3 C 60.7 48.3 59.1 47.1 59.1 46.3 C 59.1 46.3 59.1 46.3 59.1 46.3 Z M 89.3 83.7 C 89.3 83.7 90.4 83.6 90.4 83.9 C 90.7 85.4 89.3 83.7 89.3 83.7 C 89.3 83.7 89.3 83.7 89.3 83.7 Z M 81.4 66.5 C 81.4 66.5 82.1 66.6 82.2 66.8 C 82.6 67.9 81.4 66.5 81.4 66.5 C 81.4 66.5 81.4 66.5 81.4 66.5 Z M 78.6 57.2 C 78.6 57.2 79.4 57.4 79.5 57.5 C 79.9 58.7 78.6 57.2 78.6 57.2 C 78.6 57.2 78.6 57.2 78.6 57.2 Z M 51.6 37.2 C 50.6 36.0 52.1 36.2 52.8 37.2 C 53.5 38.1 52.7 38.4 51.6 37.2 C 51.6 37.2 51.6 37.2 51.6 37.2 Z M 53.7 42.8 C 53.3 41.0 54.8 41.6 54.9 43.0 C 55.1 44.3 54.1 44.6 53.7 42.8 C 53.7 42.8 53.7 42.8 53.7 42.8 Z M 48.3 39.8 C 48.6 39.9 48.6 40.1 48.3 40.3 C 47.8 40.4 46.9 39.4 46.9 38.9 C 47.0 38.0 48.3 39.8 48.3 39.8 M 47.4 46.4 C 50.5 46.6 45.8 48.7 45.8 48.1 C 45.8 47.4 46.7 46.4 47.4 46.4 C 47.4 46.4 47.4 46.4 47.4 46.4 Z M 63.7 61.8 C 64.4 61.8 64.7 62.8 64.0 62.7 C 63.5 62.7 63.0 61.8 63.7 61.8 C 63.7 61.8 63.7 61.8 63.7 61.8 Z M 68.8 51.8 C 69.2 51.8 70.2 52.8 69.5 52.8 C 69.1 52.8 68.1 51.9 68.8 51.8 C 68.8 51.8 68.8 51.8 68.8 51.8 Z M 43.4 29.8 C 43.7 29.8 44.7 30.8 44.1 30.7 C 43.6 30.7 42.6 29.8 43.4 29.8 C 43.4 29.8 43.4 29.8 43.4 29.8 Z M 76.0 67.2 C 77.3 67.4 77.4 68.7 76.5 68.4 C 75.6 68.1 74.7 67.1 76.0 67.2 C 76.0 67.2 76.0 67.2 76.0 67.2 Z M 96.8 78.7 C 97.4 78.7 97.4 79.5 97.0 79.3 C 96.6 79.1 96.5 78.7 96.8 78.7 C 96.8 78.7 96.8 78.7 96.8 78.7 Z M 101.1 80.3 C 101.5 80.3 101.7 80.9 101.3 80.7 C 100.9 80.4 100.8 80.2 101.1 80.3 C 101.1 80.3 101.1 80.3 101.1 80.3 Z M 112.6 94.7 C 113.5 94.9 113.9 96.2 113.0 95.6 C 112.0 95.1 111.9 94.6 112.6 94.7 C 112.6 94.7 112.6 94.7 112.6 94.7 Z M 105.3 81.4 C 105.7 81.4 105.9 82.0 105.5 81.8 C 105.0 81.5 105.0 81.3 105.3 81.4 C 105.3 81.4 105.3 81.4 105.3 81.4 Z M 114.3 90.1 C 115.2 90.1 115.2 91.2 114.7 90.9 C 114.1 90.6 113.9 90.1 114.3 90.1 C 114.3 90.1 114.3 90.1 114.3 90.1 Z M 115.1 86.5 C 116.0 86.5 115.9 87.6 115.4 87.3 C 114.8 86.9 114.6 86.4 115.1 86.5 C 115.1 86.5 115.1 86.5 115.1 86.5 Z M 83.2 81.4 C 84.1 81.5 84.0 82.6 83.5 82.3 C 82.9 81.9 82.7 81.4 83.2 81.4 C 83.2 81.4 83.2 81.4 83.2 81.4 Z M 57.7 40.6 C 58.8 41.3 58.8 42.0 57.9 42.0 C 56.9 41.9 56.7 39.8 57.7 40.6 C 57.7 40.6 57.7 40.6 57.7 40.6 Z M 112.7 90.6 C 113.1 90.6 113.1 91.1 112.8 91.0 C 112.4 91.0 112.2 90.6 112.7 90.6 C 112.7 90.6 112.7 90.6 112.7 90.6 Z M 87.2 73.4 C 87.1 73.8 87.0 74.1 86.6 74.1 C 86.1 73.6 86.1 72.1 86.8 71.6 C 87.5 71.1 88.8 73.6 87.9 73.8 C 87.6 73.8 87.3 72.9 87.2 73.4 M 87.0 80.2 C 87.2 80.7 86.4 80.7 86.4 80.1 C 86.3 79.4 86.8 79.6 87.0 80.2 C 87.0 80.2 87.0 80.2 87.0 80.2 Z M 75.0 72.9 C 75.2 73.5 74.5 73.4 74.4 72.8 C 74.3 72.1 74.8 72.3 75.0 72.9 C 75.0 72.9 75.0 72.9 75.0 72.9 Z M 104.0 79.5 C 104.5 80.0 104.2 79.2 104.5 79.2 C 104.9 79.5 105.0 79.8 105.1 80.3 C 104.8 81.2 103.5 79.4 103.6 79.2 C 103.7 79.3 103.9 79.4 104.0 79.5 M 109.1 99.1 C 109.6 99.7 109.4 98.8 109.6 98.9 C 110.0 99.1 110.2 99.5 110.2 99.9 C 109.9 100.8 108.7 99.1 108.7 98.9 C 108.8 99.0 109.0 99.1 109.1 99.1 M 39.2 27.9 C 39.1 28.2 37.3 27.5 38.0 27.1 C 38.4 27.0 39.3 27.6 39.2 27.9 M 71.6 72.2 C 71.5 72.5 69.7 71.8 70.4 71.4 C 70.7 71.2 71.6 71.9 71.6 72.2 M 79.1 73.2 C 79.6 73.7 79.3 72.9 79.6 72.9 C 80.0 73.2 80.2 73.5 80.2 74.0 C 79.9 74.9 78.7 73.1 78.7 72.9 C 78.8 73.0 79.0 73.1 79.1 73.2 M 101.9 93.0 C 102.0 92.7 102.8 93.3 102.3 93.4 C 102.0 93.5 101.7 93.3 101.9 93.0 C 101.9 93.0 101.9 93.0 101.9 93.0 Z M 73.1 55.9 C 73.3 55.6 74.1 56.5 73.5 56.3 C 73.2 56.2 73.0 56.2 73.1 55.9 C 73.1 55.9 73.1 55.9 73.1 55.9 Z M 83.8 69.6 C 83.1 69.5 83.6 68.9 84.0 68.7 C 85.1 68.4 84.5 70.6 84.3 70.4 C 84.1 70.3 84.0 69.6 83.8 69.6 M 66.6 56.1 C 65.3 56.0 67.8 53.5 67.9 56.1 C 67.9 58.8 66.9 56.1 66.6 56.1 M 114.2 104.3 C 114.8 104.3 113.2 102.5 113.6 102.4 C 114.6 102.1 115.1 104.6 114.6 105.2 C 114.5 105.3 113.3 104.3 114.2 104.3 M 105.7 85.4 C 106.3 85.4 104.7 83.6 105.1 83.5 C 106.1 83.2 106.6 85.7 106.1 86.3 C 106.0 86.4 104.7 85.4 105.7 85.4 M 74.8 59.3 C 74.4 58.9 76.1 58.8 76.1 59.7 C 76.0 61.4 75.1 59.5 74.8 59.3 M 46.2 33.3 C 45.8 33.1 45.7 32.9 45.7 32.5 C 45.8 31.9 47.3 33.0 47.1 33.1 C 46.8 33.1 46.5 33.2 46.2 33.3 M 94.7 87.3 C 95.3 87.0 95.4 88.1 94.9 88.0 C 94.3 87.7 94.1 87.6 94.7 87.3 C 94.7 87.3 94.7 87.3 94.7 87.3 Z M 46.2 51.5 C 46.9 51.2 46.9 52.4 46.4 52.2 C 45.8 52.0 45.6 51.8 46.2 51.5 C 46.2 51.5 46.2 51.5 46.2 51.5 Z M 125.6 98.0 C 126.1 97.9 126.3 98.9 125.8 98.7 C 125.3 98.4 125.0 98.2 125.6 98.0 C 125.6 98.0 125.6 98.0 125.6 98.0 Z M 102.9 85.2 C 103.1 85.2 103.9 86.3 102.8 86.0 C 102.1 85.9 102.6 85.2 102.9 85.2 C 102.9 85.2 102.9 85.2 102.9 85.2 Z M 120.4 93.1 C 120.7 93.1 121.8 94.5 120.3 94.1 C 119.5 93.8 120.0 93.0 120.4 93.1 C 120.4 93.1 120.4 93.1 120.4 93.1 Z M 92.0 80.0 C 92.4 80.0 92.5 80.5 92.0 80.4 C 91.6 80.2 91.6 80.0 92.0 80.0 C 92.0 80.0 92.0 80.0 92.0 80.0 Z M 96.2 71.3 C 96.6 71.2 96.6 71.8 96.2 71.6 C 95.8 71.5 95.8 71.3 96.2 71.3 C 96.2 71.3 96.2 71.3 96.2 71.3 Z M 83.7 66.2 C 84.1 66.2 84.2 66.7 83.7 66.6 C 83.3 66.4 83.3 66.2 83.7 66.2 C 83.7 66.2 83.7 66.2 83.7 66.2 Z M 100.2 75.5 C 101.9 76.3 102.5 77.5 100.1 76.9 C 98.6 76.6 99.8 75.4 100.2 75.5 C 100.2 75.5 100.2 75.5 100.2 75.5 Z M 84.0 74.3 C 84.5 74.4 84.4 74.8 84.0 74.7 C 83.8 74.6 83.6 74.3 84.0 74.3 C 84.0 74.3 84.0 74.3 84.0 74.3 Z M 87.4 68.6 C 87.0 67.2 91.3 70.0 89.5 71.0 C 87.1 72.3 87.6 69.2 87.4 68.6 M 72.4 53.3 C 72.3 52.7 73.6 53.6 73.1 54.1 C 72.1 55.1 72.4 53.5 72.4 53.3 M 58.0 57.4 C 58.0 57.4 57.8 58.2 57.6 57.8 C 57.2 57.1 58.0 57.4 58.0 57.4 C 58.0 57.4 58.0 57.4 58.0 57.4 Z M 60.3 58.1 C 60.9 57.9 61.5 59.2 60.7 58.8 C 60.3 58.6 59.8 58.2 60.3 58.1 C 60.3 58.1 60.3 58.1 60.3 58.1 Z M 68.7 49.6 C 68.9 49.5 69.2 50.1 68.9 49.9 C 68.7 49.8 68.5 49.6 68.7 49.6 C 68.7 49.6 68.7 49.6 68.7 49.6 Z M 58.4 61.0 C 58.8 60.9 59.5 62.0 58.8 61.6 C 58.4 61.4 57.9 61.1 58.4 61.0 C 58.4 61.0 58.4 61.0 58.4 61.0 Z M 93.7 69.6 C 94.0 69.5 94.2 70.1 93.9 69.9 C 93.7 69.8 93.5 69.7 93.7 69.6 C 93.7 69.6 93.7 69.6 93.7 69.6 Z M 124.1 94.4 C 124.3 94.4 124.6 94.9 124.2 94.7 C 124.1 94.7 123.9 94.5 124.1 94.4 C 124.1 94.4 124.1 94.4 124.1 94.4 Z M 40.8 41.5 C 41.3 41.3 41.8 42.6 41.1 42.3 C 40.7 42.1 40.2 41.8 40.8 41.5 C 40.8 41.5 40.8 41.5 40.8 41.5 Z M 94.5 75.0 C 95.1 74.8 95.4 76.0 94.6 75.6 C 94.1 75.4 93.9 75.2 94.5 75.0 C 94.5 75.0 94.5 75.0 94.5 75.0 Z M 54.1 53.4 C 54.7 53.2 55.0 54.4 54.1 54.0 C 53.6 53.8 53.5 53.6 54.1 53.4 C 54.1 53.4 54.1 53.4 54.1 53.4 Z M 93.1 72.8 C 93.4 72.7 93.7 73.3 93.2 73.1 C 93.0 73.0 92.8 72.9 93.1 72.8 C 93.1 72.8 93.1 72.8 93.1 72.8 Z M 93.3 87.1 C 93.6 87.0 93.9 87.6 93.5 87.4 C 93.2 87.3 93.0 87.2 93.3 87.1 C 93.3 87.1 93.3 87.1 93.3 87.1 Z M 98.5 94.1 C 98.8 94.0 99.1 94.6 98.6 94.3 C 98.3 94.2 98.1 94.2 98.5 94.1 C 98.5 94.1 98.5 94.1 98.5 94.1 Z M 97.0 81.7 C 97.3 81.6 97.7 82.4 97.2 82.1 C 97.0 82.0 96.7 81.8 97.0 81.7 C 97.0 81.7 97.0 81.7 97.0 81.7 Z M 54.5 48.6 C 53.8 48.1 53.5 46.6 54.0 45.8 C 53.6 46.4 56.1 47.6 56.3 47.9 C 56.5 48.2 55.2 49.0 54.5 48.6 M 98.5 83.9 C 94.3 81.1 98.5 80.3 100.3 83.2 C 100.5 83.5 99.2 84.4 98.5 83.9 C 100.5 83.5 99.2 84.4 98.5 83.9 C 100.5 83.5 99.2 84.4 98.5 83.9 C 100.5 83.5 99.2 84.4 98.5 83.9 M 129.5 99.3 C 127.0 97.7 128.5 99.1 126.4 99.5 C 126.0 99.6 123.5 99.1 123.4 99.6 C 123.2 100.4 125.0 100.7 124.9 101.4 C 124.8 103.0 122.5 101.5 122.0 101.7 C 120.5 102.4 120.8 104.4 121.0 105.7 C 121.4 107.4 122.3 105.7 123.2 106.0 C 123.9 106.2 122.5 107.4 122.3 107.6 C 121.0 108.6 120.4 106.7 119.3 108.8 C 118.7 110.1 118.4 110.7 120.0 111.2 C 121.2 111.7 122.1 110.4 123.1 109.9 C 123.7 109.6 126.6 112.4 125.0 112.8 C 123.9 113.0 123.1 113.4 124.3 114.3 C 124.8 114.5 125.3 114.5 125.9 114.5 C 126.8 114.5 126.6 115.6 127.6 115.8 C 129.5 116.2 129.6 120.2 132.1 121.0 C 132.5 121.1 136.0 120.1 135.1 122.8 C 135.5 123.3 136.6 122.2 136.9 122.4 C 137.9 123.4 136.9 124.0 137.1 124.4 C 137.7 125.2 141.9 125.7 141.1 126.9 C 139.7 128.7 143.2 130.1 143.7 129.9 C 143.9 129.8 146.0 132.3 147.5 133.1 C 147.5 132.9 147.4 132.6 147.2 132.4 C 147.5 132.6 148.0 132.7 148.1 132.8 C 147.6 132.4 146.4 130.4 146.4 129.7 C 146.4 129.5 150.6 131.3 149.4 132.4 C 148.8 132.9 148.3 133.3 149.4 133.7 C 150.9 134.4 149.2 134.2 149.8 135.2 C 150.9 136.7 152.5 135.1 152.8 137.1 C 153.0 138.4 153.5 137.8 154.5 138.3 C 156.2 139.1 155.3 140.5 156.7 141.4 C 156.8 141.5 159.6 143.6 159.4 142.4 C 159.3 141.6 158.1 140.4 158.2 139.5 C 158.6 137.6 160.9 142.1 160.6 141.7 C 161.2 142.5 164.3 142.5 164.5 143.2 C 164.6 143.8 161.5 143.5 161.2 143.5 C 159.7 143.5 163.4 146.1 163.4 146.1 C 163.7 146.6 165.0 146.5 165.2 147.1 C 165.5 147.9 165.3 148.1 166.2 148.7 C 166.7 149.1 167.1 149.4 167.6 149.8 C 168.3 150.4 169.4 149.4 170.3 149.5 C 171.8 149.6 170.7 150.8 171.1 151.4 C 171.8 152.9 175.6 153.7 175.2 155.0 C 174.7 156.6 178.7 155.1 178.9 157.3 C 178.9 158.0 179.8 159.3 180.3 159.2 C 179.2 159.5 181.6 161.4 182.0 161.8 C 182.5 162.4 183.4 162.1 184.1 162.3 C 185.0 162.6 184.9 163.8 185.2 164.5 C 185.9 166.2 186.9 163.4 187.3 165.0 C 188.0 167.5 189.6 163.6 190.2 163.8 C 190.5 164.0 189.8 166.8 189.8 167.2 C 189.9 168.0 190.8 166.8 190.8 167.4 C 190.9 168.3 190.9 169.7 192.2 169.4 C 192.8 169.3 193.4 167.6 193.8 168.2 C 193.8 168.3 194.2 169.6 194.4 169.4 C 196.5 167.3 194.4 172.9 193.6 170.8 C 194.0 171.8 197.7 175.3 198.5 174.4 C 198.9 173.9 197.3 172.3 198.0 172.0 C 199.4 171.5 201.2 175.6 199.8 175.2 C 200.7 175.5 201.1 178.3 202.7 178.5 C 202.9 178.5 203.5 179.5 203.7 179.3 C 204.1 179.0 204.6 178.0 205.1 178.0 C 206.2 177.9 208.2 178.5 208.7 177.2 C 208.8 176.9 210.2 171.8 209.9 172.0 C 210.4 171.7 211.4 172.7 211.8 172.2 C 212.6 171.4 208.8 169.9 210.1 169.0 C 210.1 169.0 209.3 168.0 209.5 167.6 C 210.1 166.5 210.3 167.2 209.3 166.1 C 208.5 165.2 208.9 166.1 208.1 166.4 C 207.6 166.5 208.3 164.0 206.2 163.9 C 207.1 165.1 206.3 165.1 206.3 166.4 C 206.3 168.1 204.5 166.6 204.0 166.3 C 201.7 165.0 201.4 163.8 200.6 161.6 C 200.1 160.4 204.7 159.6 201.5 159.8 C 200.1 159.9 197.2 156.5 195.8 156.0 C 195.8 156.0 196.2 157.3 196.1 157.5 C 194.7 159.5 192.1 154.5 191.8 153.7 C 191.5 152.3 191.1 153.1 191.0 154.1 C 190.8 155.6 189.6 154.8 189.0 154.2 C 188.6 153.9 187.8 152.7 187.3 152.8 C 186.5 152.8 187.4 149.1 187.1 148.6 C 186.6 147.3 185.5 148.3 184.8 146.9 C 184.8 146.8 183.5 143.5 183.1 144.1 C 182.2 145.2 185.8 149.2 181.9 146.8 C 181.7 146.7 177.4 143.7 178.4 143.4 C 178.9 143.2 179.3 143.9 179.7 144.0 C 178.0 143.5 179.8 140.2 177.3 139.4 C 176.1 139.0 172.3 134.7 172.6 137.4 C 172.9 139.8 170.5 139.0 170.0 137.2 C 169.5 135.6 169.3 135.1 167.7 135.0 C 167.4 134.9 164.5 133.3 165.4 132.7 C 165.9 132.4 166.6 133.4 167.4 132.7 C 167.8 132.3 167.6 131.4 167.0 131.3 C 166.4 131.1 165.7 131.7 165.1 131.8 C 165.0 131.8 164.2 130.5 164.1 130.3 C 163.5 129.6 162.4 129.0 162.1 128.1 C 161.8 127.5 163.1 127.6 162.9 127.1 C 162.0 124.5 161.2 129.4 161.4 129.3 C 161.3 129.3 158.2 128.5 157.9 128.3 C 156.1 127.2 156.2 126.1 157.0 124.3 C 157.1 124.0 159.7 125.6 159.7 125.6 C 159.9 122.7 156.9 122.7 155.6 121.3 C 155.2 120.9 153.2 117.6 152.5 119.7 C 152.0 120.9 151.3 119.6 150.9 119.4 C 151.1 119.5 151.4 122.2 151.6 122.7 C 150.3 121.9 149.0 121.2 147.8 120.2 C 147.2 119.7 146.3 119.1 145.9 118.3 C 145.7 118.0 146.5 116.5 145.4 116.3 C 146.0 116.4 146.8 116.8 147.5 117.1 C 147.0 116.5 147.4 113.4 145.8 113.7 C 145.3 113.8 145.4 114.7 144.7 114.3 C 144.0 113.9 143.3 113.4 142.5 113.2 C 141.8 113.0 140.3 115.3 139.2 112.8 C 139.3 112.9 139.7 110.6 139.7 110.7 C 140.1 109.8 140.3 109.3 139.4 108.5 C 140.0 109.0 137.7 111.5 136.3 110.7 C 134.9 109.9 132.5 107.6 134.1 105.9 C 133.6 104.8 133.8 103.1 131.7 103.2 C 130.4 103.3 128.5 102.2 128.2 100.7 C 128.2 100.3 129.7 101.0 130.0 100.9 C 130.4 100.8 129.7 99.4 129.5 99.3 M 131.4 101.7 C 131.3 102.4 129.8 100.8 130.9 100.7 C 131.2 100.9 131.4 101.2 131.4 101.7 M 129.7 101.8 C 129.3 101.8 129.5 101.4 129.7 101.4 C 129.9 101.5 130.2 101.8 129.7 101.8 C 129.7 101.8 129.7 101.8 129.7 101.8 Z M 141.5 112.5 C 140.7 112.1 140.9 111.9 141.6 112.0 C 142.2 112.0 142.2 112.9 141.5 112.5 C 141.5 112.5 141.5 112.5 141.5 112.5 Z M 142.6 130.9 C 141.9 130.5 142.1 130.3 142.7 130.4 C 143.4 130.4 143.4 131.3 142.6 130.9 C 142.6 130.9 142.6 130.9 142.6 130.9 Z M 149.5 119.5 C 149.4 119.7 149.1 119.4 149.2 119.2 C 149.4 119.0 149.6 119.4 149.5 119.5 C 149.5 119.5 149.5 119.5 149.5 119.5 Z M 136.6 109.6 C 136.4 109.7 136.2 109.5 136.3 109.3 C 136.4 109.1 136.7 109.4 136.6 109.6 C 136.6 109.6 136.6 109.6 136.6 109.6 Z M 150.0 117.4 C 150.2 117.8 148.5 118.1 149.1 116.1 C 149.2 115.7 150.3 117.1 150.3 117.3 C 150.3 117.4 149.8 117.0 150.0 117.4 M 161.2 125.5 C 161.4 125.9 161.3 126.1 160.9 126.3 C 160.9 126.3 160.2 125.1 161.2 125.5 M 174.7 157.1 C 174.9 157.4 174.8 157.7 174.4 157.9 C 174.4 157.9 173.7 156.6 174.7 157.1 M 186.7 146.4 C 187.2 146.5 187.3 147.6 187.1 147.6 C 186.5 147.6 186.0 146.4 186.7 146.4 M 170.5 135.9 C 170.7 135.9 172.4 137.3 171.8 137.4 C 171.2 137.4 170.3 135.8 170.5 135.9 M 194.6 154.4 C 194.4 153.9 194.1 153.4 193.9 153.0 C 193.8 152.8 196.9 154.3 196.3 155.0 C 195.9 155.5 194.7 154.6 194.6 154.4 M 199.4 156.8 C 199.7 156.8 200.5 157.8 200.1 158.1 C 199.6 158.5 198.8 156.8 199.4 156.8 M 180.4 142.1 C 180.5 142.4 180.1 142.5 179.8 142.2 C 179.5 141.8 180.2 141.8 180.4 142.1 C 180.4 142.1 180.4 142.1 180.4 142.1 Z M 169.6 134.1 C 169.5 134.0 168.6 132.7 169.1 132.7 C 170.6 132.6 172.9 135.8 169.6 134.1 M 144.2 112.2 C 144.2 112.2 145.5 112.5 145.0 113.5 C 144.2 114.7 144.2 112.3 144.2 112.2 M 138.6 109.1 C 138.9 109.5 138.4 109.6 138.2 109.3 C 138.1 108.8 138.4 108.8 138.6 109.1 C 138.6 109.1 138.6 109.1 138.6 109.1 Z M 188.1 148.9 C 188.3 149.4 187.4 148.8 187.6 148.6 C 187.7 148.4 187.9 148.4 188.1 148.9 C 188.1 148.9 188.1 148.9 188.1 148.9 Z M 193.1 152.5 C 193.3 153.0 192.4 152.4 192.5 152.2 C 192.7 152.0 192.9 152.0 193.1 152.5 C 193.1 152.5 193.1 152.5 193.1 152.5 Z M 191.6 170.4 C 191.8 170.9 190.8 170.3 191.0 170.1 C 191.2 169.9 191.4 169.9 191.6 170.4 C 191.6 170.4 191.6 170.4 191.6 170.4 Z M 138.3 116.8 C 137.8 116.8 137.7 116.5 137.8 116.1 C 138.1 115.9 138.4 115.9 138.7 116.0 C 138.3 115.8 136.8 114.2 138.2 114.3 C 139.4 114.4 139.5 116.0 140.4 116.4 C 140.8 116.5 141.7 116.1 141.8 115.9 C 141.7 115.9 142.2 116.8 141.7 118.0 C 141.1 119.5 138.9 116.9 138.3 116.8 M 163.7 135.0 C 163.8 135.2 165.0 136.5 164.8 136.6 C 162.9 138.0 161.0 133.2 162.9 132.2 C 165.3 130.8 164.0 135.6 163.7 135.0 M 197.9 159.8 C 196.8 158.9 198.6 161.8 198.1 162.2 C 197.3 162.9 196.4 159.7 196.4 159.3 C 196.5 156.6 199.7 159.3 199.2 160.4 C 198.6 160.5 198.2 160.3 197.9 159.8 M 205.0 164.3 C 205.2 165.1 202.3 163.2 202.2 162.9 C 201.9 162.3 202.8 161.7 203.3 161.7 C 204.8 161.8 204.7 163.3 205.0 164.3 M 159.8 127.6 C 160.0 128.9 156.5 126.7 157.5 125.9 C 158.0 125.5 159.7 127.1 159.8 127.6 M 174.1 150.2 C 174.1 149.3 176.5 151.4 176.7 151.5 C 177.1 151.6 176.8 149.6 177.0 149.8 C 178.0 151.0 183.3 155.7 178.1 153.1 C 177.1 152.6 175.4 153.2 174.4 152.7 C 172.3 151.6 174.1 151.6 174.1 150.2 M 130.6 104.6 C 131.2 105.4 131.6 103.9 132.2 104.1 C 132.9 104.4 132.5 106.3 131.8 106.3 C 128.8 106.6 128.5 102.0 130.6 104.6 M 142.8 115.2 C 142.3 114.5 142.9 114.4 143.3 114.8 C 143.6 115.2 143.3 115.9 142.8 115.2 C 142.8 115.2 142.8 115.2 142.8 115.2 Z M 148.1 118.7 C 148.4 118.9 148.6 119.9 148.2 120.1 C 147.5 120.4 146.9 117.9 148.1 118.7 M 135.0 103.3 C 135.4 103.5 135.6 104.5 135.1 104.7 C 134.4 105.0 133.9 102.5 135.0 103.3 M 177.0 146.5 C 177.3 146.7 177.5 147.7 177.0 147.9 C 176.3 148.2 175.8 145.8 177.0 146.5 M 168.8 136.0 C 169.8 136.6 169.1 139.1 168.4 138.2 C 167.9 137.7 167.1 134.9 168.8 136.0 M 151.7 132.9 C 151.8 133.1 152.0 133.3 152.1 133.5 C 151.8 135.7 148.6 130.6 151.7 132.9 M 177.7 141.2 C 179.4 142.4 176.2 144.0 175.4 143.3 C 173.7 141.5 176.2 140.1 177.7 141.2 M 166.7 133.7 C 166.6 133.2 167.6 133.5 167.5 134.3 C 167.5 134.6 166.9 134.2 166.7 133.7 C 166.7 133.7 166.7 133.7 166.7 133.7 Z M 175.1 151.6 C 175.0 151.9 174.6 151.9 174.7 151.5 C 174.8 151.2 175.1 151.3 175.1 151.6 C 175.1 151.6 175.1 151.6 175.1 151.6 Z M 176.7 152.6 C 176.9 152.9 176.1 152.9 176.0 152.5 C 175.8 151.8 176.5 152.3 176.7 152.6 C 176.7 152.6 176.7 152.6 176.7 152.6 Z M 182.2 144.3 C 182.4 144.5 181.7 144.5 181.5 144.1 C 181.4 143.5 182.0 144.0 182.2 144.3 C 182.2 144.3 182.2 144.3 182.2 144.3 Z M 131.0 117.7 C 132.5 118.7 131.9 119.2 130.9 118.2 C 130.2 117.6 129.5 116.8 131.0 117.7 C 131.0 117.7 131.0 117.7 131.0 117.7 Z M 153.8 120.6 C 156.2 122.0 153.8 124.9 152.3 122.4 C 152.3 122.4 151.4 119.2 153.8 120.6 C 153.8 120.6 153.8 120.6 153.8 120.6 Z M 156.7 130.1 C 157.1 130.1 156.8 130.8 156.3 130.6 C 155.9 130.5 156.4 130.1 156.7 130.1 C 156.7 130.1 156.7 130.1 156.7 130.1 Z M 177.2 137.4 C 177.6 137.4 177.2 138.1 176.8 138.0 C 176.4 137.9 176.9 137.4 177.2 137.4 C 177.2 137.4 177.2 137.4 177.2 137.4 Z M 132.3 119.6 C 132.7 119.6 132.3 120.3 131.8 120.1 C 131.5 120.0 131.9 119.6 132.3 119.6 C 132.3 119.6 132.3 119.6 132.3 119.6 Z M 190.4 153.9 C 190.8 153.9 190.4 154.6 190.0 154.5 C 189.6 154.4 190.1 154.0 190.4 153.9 C 190.4 153.9 190.4 153.9 190.4 153.9 Z M 165.5 144.5 C 165.7 143.7 167.2 145.3 166.2 145.0 C 165.2 144.6 165.3 145.3 165.5 144.5 C 165.5 144.5 165.5 144.5 165.5 144.5 Z M 170.5 148.7 C 170.7 148.3 171.5 148.8 171.0 149.0 C 170.7 149.1 170.3 149.1 170.5 148.7 C 170.5 148.7 170.5 148.7 170.5 148.7 Z M 200.8 157.6 C 201.0 157.1 201.8 157.6 201.3 157.8 C 201.0 158.0 200.7 158.0 200.8 157.6 C 200.8 157.6 200.8 157.6 200.8 157.6 Z M 180.9 162.4 C 181.1 162.0 181.9 162.5 181.4 162.7 C 181.1 162.8 180.7 162.8 180.9 162.4 C 180.9 162.4 180.9 162.4 180.9 162.4 Z M 188.3 162.1 C 188.7 162.7 188.0 162.8 188.0 162.1 C 188.0 161.6 187.9 161.5 188.3 162.1 C 188.3 162.1 188.3 162.1 188.3 162.1 Z M 180.7 144.3 C 181.0 144.0 184.0 146.8 182.1 146.0 C 181.2 145.6 180.0 144.9 180.7 144.3 C 180.7 144.3 180.7 144.3 180.7 144.3 Z M 201.7 171.4 C 202.2 171.4 202.1 172.2 201.6 172.4 C 201.6 172.4 201.2 171.4 201.7 171.4 C 201.7 171.4 201.7 171.4 201.7 171.4 Z M 207.9 169.1 C 208.4 169.1 208.3 169.9 207.8 170.1 C 207.8 170.1 207.4 169.1 207.9 169.1 C 207.9 169.1 207.9 169.1 207.9 169.1 Z M 211.1 167.8 C 211.7 167.8 211.5 168.6 211.0 168.8 C 211.0 168.8 210.6 167.8 211.1 167.8 C 211.1 167.8 211.1 167.8 211.1 167.8 Z M 144.1 123.3 C 143.2 123.2 144.1 122.6 144.1 122.6 C 145.0 123.5 145.0 123.5 144.1 123.3 C 144.1 123.3 144.1 123.3 144.1 123.3 Z M 148.0 114.5 C 147.6 114.5 148.0 114.2 148.0 114.2 C 148.4 114.6 148.4 114.6 148.0 114.5 C 148.0 114.5 148.0 114.5 148.0 114.5 Z M 155.2 119.8 C 154.8 119.8 155.2 119.5 155.2 119.5 C 155.6 119.9 155.5 119.9 155.2 119.8 C 155.2 119.8 155.2 119.8 155.2 119.8 Z M 139.3 126.7 C 138.7 126.6 139.3 126.2 139.3 126.2 C 139.8 126.8 139.8 126.8 139.3 126.7 C 139.3 126.7 139.3 126.7 139.3 126.7 Z M 170.1 141.8 C 169.2 141.6 170.1 141.1 170.1 141.1 C 170.9 141.9 170.9 141.9 170.1 141.8 C 170.1 141.8 170.1 141.8 170.1 141.8 Z M 170.1 146.6 C 169.2 146.5 170.1 145.9 170.1 145.9 C 170.9 146.8 170.9 146.8 170.1 146.6 C 170.1 146.6 170.1 146.6 170.1 146.6 Z M 161.0 145.6 C 160.6 145.6 161.0 145.3 161.0 145.3 C 161.3 145.7 161.3 145.7 161.0 145.6 C 161.0 145.6 161.0 145.6 161.0 145.6 Z M 169.9 150.7 C 169.5 150.6 169.9 150.4 169.9 150.4 C 170.3 150.8 170.3 150.8 169.9 150.7 C 169.9 150.7 169.9 150.7 169.9 150.7 Z M 123.2 111.1 C 123.7 111.5 123.4 111.8 122.9 111.3 C 122.6 111.0 122.7 110.8 123.2 111.1 C 123.2 111.1 123.2 111.1 123.2 111.1 Z M 127.2 105.2 C 128.0 105.7 127.3 106.5 126.4 105.5 C 125.9 104.9 126.3 104.7 127.2 105.2 C 127.2 105.2 127.2 105.2 127.2 105.2 Z M 174.1 138.4 C 174.0 138.1 175.0 138.6 175.0 138.7 C 175.4 139.0 175.0 139.8 175.0 139.9 C 174.8 139.4 174.4 138.8 174.1 138.4 M 163.7 131.0 C 164.0 131.4 163.5 131.5 163.4 131.2 C 163.2 130.8 163.5 130.6 163.7 131.0 C 163.7 131.0 163.7 131.0 163.7 131.0 Z M 190.5 152.2 C 190.5 153.5 188.4 152.0 188.5 151.0 C 188.6 150.7 190.5 150.8 190.5 152.2 C 190.5 152.2 190.5 152.2 190.5 152.2 Z M 177.7 157.1 C 177.9 157.0 178.2 157.6 177.9 157.4 C 177.4 157.2 177.5 157.2 177.7 157.1 C 177.7 157.1 177.7 157.1 177.7 157.1 Z M 181.0 158.3 C 181.8 158.5 181.4 159.9 181.0 159.4 C 180.5 158.6 180.3 158.1 181.0 158.3 C 181.0 158.3 181.0 158.3 181.0 158.3 Z M 200.1 164.0 C 200.5 164.4 200.5 164.8 200.4 165.3 C 200.1 166.2 198.9 162.9 200.1 164.0 M 164.1 128.1 C 164.5 128.3 164.8 128.7 164.8 129.2 C 164.4 130.6 162.8 126.8 164.1 128.1 M 193.7 155.0 C 194.0 155.5 193.1 155.3 193.1 154.8 C 193.1 154.3 193.3 154.5 193.7 155.0 C 193.7 155.0 193.7 155.0 193.7 155.0 Z M 204.2 165.4 C 204.6 165.9 203.7 165.7 203.7 165.2 C 203.7 164.7 203.9 164.9 204.2 165.4 C 204.2 165.4 204.2 165.4 204.2 165.4 Z M 155.9 123.8 C 157.2 124.5 155.0 125.5 154.4 125.4 C 152.9 125.0 154.9 124.1 155.0 124.0 C 155.0 124.0 154.4 124.7 154.8 124.7 C 155.6 124.6 155.5 123.6 155.9 123.8 M 135.7 108.6 C 136.4 109.4 135.7 109.9 135.3 109.2 C 135.0 108.5 135.0 107.8 135.7 108.6 C 135.7 108.6 135.7 108.6 135.7 108.6 Z M 135.7 108.6 " fill="#FF0000"></path></g></svg>