<?xml version="1.0" encoding="UTF-8" standalone="no"?><svg xmlns="http://www.w3.org/2000/svg" xmlns:xlink="http://www.w3.org/1999/xlink" clip-rule="evenodd" stroke-miterlimit="4.00" viewBox="0 0 224 206"><desc>SVG generated by Keynote</desc><defs></defs><g transform="matrix(1.00, 0.00, -0.00, -1.00, 0.0, 206.0)"><path d="M 191.0 36.1 C 191.3 35.2 193.3 34.4 193.4 33.6 M 191.0 36.1 C 191.0 36.1 191.0 36.1 191.0 36.1 C 190.8 37.0 194.2 35.9 194.8 36.1 C 195.4 36.3 195.5 35.4 195.8 35.1 C 196.6 34.4 196.4 36.4 197.7 34.6 C 198.7 33.3 200.3 32.7 201.6 31.8 C 202.7 30.9 203.4 30.2 202.2 29.2 C 199.8 29.6 199.1 28.4 199.1 28.4 C 200.2 27.2 202.7 24.6 204.0 24.2 C 204.4 24.1 206.4 27.7 206.6 27.5 C 207.5 27.1 207.0 25.9 207.7 25.2 C 208.5 24.5 208.9 24.0 210.0 23.9 C 210.3 23.8 211.8 22.6 210.8 22.6 C 211.4 22.2 212.5 21.6 212.9 20.8 C 213.2 20.2 212.4 19.1 211.6 19.6 C 211.7 19.3 208.6 21.7 208.7 22.0 C 208.0 21.0 211.4 20.2 210.8 18.4 C 210.1 15.9 209.4 17.8 208.2 18.1 C 207.0 18.3 208.3 15.6 209.0 14.9 C 210.6 13.5 205.3 15.5 206.4 13.6 C 207.6 11.7 205.6 12.7 203.5 13.1 C 202.1 13.4 201.8 12.4 202.2 11.4 C 201.3 12.4 200.5 12.8 198.9 12.5 C 197.7 13.2 198.8 13.5 199.3 13.9 C 201.5 15.4 195.9 16.4 195.7 16.6 C 195.3 17.1 195.3 18.1 194.6 18.4 C 194.0 18.7 193.3 17.7 192.9 18.1 C 192.4 18.6 191.9 19.1 191.3 19.5 C 190.9 19.9 192.2 19.5 192.1 20.6 C 192.1 21.7 193.9 22.1 194.2 22.1 C 194.7 22.8 189.5 22.4 188.1 23.8 C 186.7 25.2 188.2 25.0 187.3 26.0 C 186.5 26.8 186.0 25.6 185.3 26.2 C 184.7 26.8 184.9 27.5 184.2 27.8 C 182.5 28.4 183.8 29.7 185.6 30.0 C 186.4 30.1 187.6 29.9 187.9 31.2 C 188.2 32.5 186.3 33.3 187.6 33.3 C 188.9 33.3 191.0 29.7 191.9 29.9 C 192.9 30.1 189.5 32.8 190.6 33.2 C 191.8 33.6 191.2 32.5 192.6 31.9 C 192.9 32.4 192.0 32.5 192.4 33.1 C 192.8 33.6 193.6 32.8 193.4 33.6 C 193.3 34.4 191.3 35.2 191.0 36.1 C 191.0 36.1 191.0 36.1 191.0 36.1 Z M 206.8 24.9 C 206.8 24.9 206.8 24.9 206.8 24.9 C 207.1 24.9 207.0 25.4 206.6 25.6 C 206.1 25.8 206.5 24.8 206.8 24.9 C 206.8 24.9 206.8 24.9 206.8 24.9 Z M 187.4 23.1 C 187.4 23.1 187.4 23.1 187.4 23.1 C 187.7 23.1 187.6 23.6 187.2 23.8 C 186.7 24.0 187.1 23.0 187.4 23.1 C 187.4 23.1 187.4 23.1 187.4 23.1 Z M 198.5 14.4 C 198.5 14.4 198.5 14.4 198.5 14.4 C 198.9 14.5 198.8 15.0 198.3 15.2 C 197.8 15.4 198.2 14.4 198.5 14.4 C 198.5 14.4 198.5 14.4 198.5 14.4 Z M 202.6 27.7 C 202.6 27.7 202.6 27.7 202.6 27.7 C 202.2 28.2 201.2 28.3 201.9 27.1 C 202.2 26.5 202.6 26.2 203.0 26.0 C 203.4 25.7 204.0 25.3 204.5 25.4 C 203.8 26.4 203.6 27.9 202.6 27.7 C 202.6 27.7 202.6 27.7 202.6 27.7 Z M 198.1 23.4 C 198.1 23.4 198.1 23.4 198.1 23.4 C 198.2 23.8 197.4 24.8 196.8 23.9 C 197.1 23.2 198.0 23.0 198.1 23.4 C 198.1 23.4 198.1 23.4 198.1 23.4 Z M 212.2 16.6 C 212.2 16.6 212.2 16.6 212.2 16.6 C 212.3 17.0 211.4 18.0 210.8 17.0 C 211.2 16.3 212.1 16.1 212.2 16.6 C 212.2 16.6 212.2 16.6 212.2 16.6 Z M 198.2 27.9 C 198.2 27.9 198.2 27.9 198.2 27.9 C 197.5 28.3 196.6 27.8 197.2 27.1 C 197.8 27.1 199.5 25.8 198.2 27.9 C 198.2 27.9 198.2 27.9 198.2 27.9 Z M 197.1 33.8 C 197.1 33.8 197.1 33.8 197.1 33.8 C 196.6 33.9 196.4 34.2 196.0 33.5 C 196.4 33.1 196.3 33.2 196.7 32.6 C 197.7 32.1 196.7 30.3 197.8 30.9 C 199.5 31.6 197.7 34.0 197.1 33.8 C 197.1 33.8 197.1 33.8 197.1 33.8 Z M 196.1 27.8 C 196.1 27.8 196.1 27.8 196.1 27.8 C 195.8 27.9 195.5 27.9 195.3 27.9 C 195.2 27.4 196.1 27.5 196.1 27.8 C 196.1 27.8 196.1 27.8 196.1 27.8 Z M 205.3 12.1 C 205.3 12.1 205.3 12.1 205.3 12.1 C 205.0 12.2 204.7 12.2 204.5 12.1 C 204.4 11.6 205.3 11.7 205.3 12.1 C 205.3 12.1 205.3 12.1 205.3 12.1 Z M 194.8 17.0 C 194.8 17.0 194.8 17.0 194.8 17.0 C 194.6 17.2 194.3 17.2 194.1 17.1 C 194.0 16.6 194.9 16.7 194.8 17.0 C 194.8 17.0 194.8 17.0 194.8 17.0 Z M 205.3 22.4 C 205.3 22.4 205.3 22.4 205.3 22.4 C 205.4 21.7 207.1 21.5 207.2 21.9 C 207.4 22.9 205.2 23.0 205.3 22.4 C 205.3 22.4 205.3 22.4 205.3 22.4 Z M 193.0 37.9 C 193.0 37.9 193.0 37.9 193.0 37.9 C 193.0 37.3 194.8 37.1 194.8 37.4 C 195.0 38.4 192.9 38.6 193.0 37.9 C 193.0 37.9 193.0 37.9 193.0 37.9 Z M 20.8 193.7 C 20.8 193.7 20.8 193.7 20.8 193.7 C 20.6 194.0 20.4 194.3 20.2 194.7 C 20.4 194.7 20.6 194.6 20.7 194.6 C 20.9 194.4 21.1 194.2 21.3 194.0 C 22.2 193.2 21.9 195.4 23.4 193.5 C 24.4 192.2 24.9 192.5 26.2 191.6 C 26.4 191.3 24.5 190.6 24.3 190.5 C 23.4 189.8 23.3 188.0 23.6 187.9 C 23.9 187.4 24.8 186.2 26.1 185.8 C 27.0 184.9 28.1 187.1 28.1 187.0 C 29.2 185.8 29.0 186.4 30.2 185.7 C 30.9 185.0 29.7 184.2 30.4 183.5 C 30.5 183.1 32.6 184.9 34.3 183.4 C 35.2 182.6 35.5 182.1 36.8 181.9 C 37.0 181.9 38.7 180.5 37.6 180.6 C 38.0 180.3 38.6 179.9 38.6 179.4 C 38.1 177.6 36.6 179.9 36.2 179.6 C 36.0 179.6 37.0 178.3 36.3 177.9 C 35.6 177.5 40.2 174.0 38.1 174.6 C 35.7 175.4 34.4 172.9 34.5 172.4 C 34.8 172.1 35.8 173.1 35.8 172.0 C 35.8 171.0 33.8 171.6 33.4 171.1 C 31.2 168.6 32.6 170.3 30.4 170.7 C 29.4 170.9 29.8 169.3 29.8 168.7 C 29.6 168.6 28.4 169.8 28.2 169.7 C 27.5 170.2 27.9 170.3 26.8 170.2 C 26.2 170.1 25.5 171.4 25.4 171.6 C 25.3 172.0 26.1 171.2 26.5 171.5 C 28.2 172.7 25.0 172.3 24.1 173.2 C 23.1 174.2 22.8 174.6 22.6 174.8 C 22.4 174.9 23.5 175.9 23.1 176.1 C 22.9 176.6 22.1 176.3 21.5 176.3 C 20.9 176.3 20.7 177.8 20.2 178.2 C 19.7 178.6 19.3 178.0 17.9 178.6 C 16.5 179.2 18.1 180.8 18.6 181.1 C 20.4 182.0 16.4 180.4 15.7 181.2 C 15.0 181.9 15.6 182.5 15.1 183.0 C 14.8 183.1 14.4 183.1 14.0 183.1 C 14.0 183.6 13.5 183.8 12.7 184.5 C 12.6 184.6 12.6 184.7 12.5 184.8 C 12.5 184.9 14.4 184.5 14.4 184.8 C 14.6 185.8 13.1 185.6 12.6 185.4 C 12.6 186.3 12.2 187.1 11.3 187.5 C 9.5 188.2 10.7 189.6 12.7 189.8 C 13.5 189.9 15.2 189.7 15.0 191.0 C 14.9 192.4 12.9 192.9 14.6 193.3 C 14.7 193.2 15.0 193.9 15.9 192.4 C 16.8 190.8 18.1 190.8 18.1 190.8 C 18.9 190.2 18.5 189.6 19.3 189.6 C 20.1 189.6 19.1 190.6 18.3 191.2 C 18.4 191.5 19.1 191.6 18.5 192.2 C 17.9 192.8 17.3 192.2 17.4 192.9 C 17.4 193.6 17.6 193.1 17.8 193.1 C 17.4 193.7 16.9 194.1 16.3 194.5 C 15.2 195.3 17.9 195.1 18.4 194.8 C 19.3 194.2 19.3 192.6 20.8 193.7 C 20.8 193.7 20.8 193.7 20.8 193.7 Z M 16.4 190.3 C 16.4 190.3 16.4 190.3 16.4 190.3 C 16.6 189.9 17.7 189.3 17.6 189.9 C 17.4 190.6 16.3 190.7 16.4 190.3 C 16.4 190.3 16.4 190.3 16.4 190.3 Z M 17.6 177.7 C 17.6 177.7 17.6 177.7 17.6 177.7 C 17.7 177.3 18.9 176.7 18.7 177.3 C 18.6 178.0 17.5 178.1 17.6 177.7 C 17.6 177.7 17.6 177.7 17.6 177.7 Z M 27.4 189.0 C 27.4 189.0 27.4 189.0 27.4 189.0 C 27.2 188.2 28.9 188.3 28.8 188.9 C 28.4 189.1 27.7 189.1 27.4 189.0 C 27.4 189.0 27.4 189.0 27.4 189.0 Z M 16.5 182.9 C 16.5 182.9 16.5 182.9 16.5 182.9 C 16.7 182.8 16.8 182.7 16.9 182.6 C 17.0 183.0 16.5 183.8 16.3 184.1 C 15.8 183.6 16.2 183.2 16.5 182.9 C 16.5 182.9 16.5 182.9 16.5 182.9 Z M 30.7 186.0 C 30.7 186.0 30.7 186.0 30.7 186.0 C 30.7 185.3 31.3 185.1 31.8 184.7 C 33.4 186.3 30.7 186.8 30.7 186.0 C 30.7 186.0 30.7 186.0 30.7 186.0 Z M 33.9 178.1 C 33.9 178.1 33.9 178.1 33.9 178.1 C 32.8 178.2 33.7 175.8 34.5 176.0 C 35.2 176.2 34.8 177.0 34.4 177.4 C 34.4 177.6 35.1 177.9 33.9 178.1 C 33.9 178.1 33.9 178.1 33.9 178.1 Z M 24.2 175.4 C 24.2 175.4 24.2 175.4 24.2 175.4 C 24.1 175.6 24.2 175.9 24.0 175.9 C 23.7 175.9 23.8 175.4 24.2 175.4 C 24.2 175.4 24.2 175.4 24.2 175.4 Z M 11.4 186.4 C 11.4 186.4 11.4 186.4 11.4 186.4 C 11.3 186.5 11.4 186.9 11.2 186.8 C 10.9 186.8 11.0 186.3 11.4 186.4 C 11.4 186.4 11.4 186.4 11.4 186.4 Z M 28.0 172.4 C 28.0 172.4 28.0 172.4 28.0 172.4 C 28.6 172.7 27.9 173.0 27.8 173.3 C 27.3 173.0 27.4 172.1 28.0 172.4 C 28.0 172.4 28.0 172.4 28.0 172.4 Z M 26.9 187.3 C 26.9 187.3 26.9 187.3 26.9 187.3 C 27.0 188.6 25.5 190.1 24.3 188.7 C 24.7 188.2 24.9 187.6 25.5 187.3 C 25.8 187.1 26.5 187.3 26.9 187.3 C 26.9 187.3 26.9 187.3 26.9 187.3 Z M 22.5 191.9 C 22.5 191.9 22.5 191.9 22.5 191.9 C 22.4 192.3 21.7 192.9 21.5 192.0 C 21.5 191.6 21.6 191.2 21.8 190.9 C 22.0 190.5 22.2 189.7 22.6 189.8 C 23.0 189.9 23.3 191.4 22.5 191.9 C 22.5 191.9 22.5 191.9 22.5 191.9 Z M 29.4 184.6 C 29.4 184.6 29.4 184.6 29.4 184.6 C 29.7 185.1 28.5 186.2 28.3 186.0 C 28.1 185.8 29.2 184.1 29.4 184.6 C 29.4 184.6 29.4 184.6 29.4 184.6 Z M 26.0 190.0 C 26.0 190.0 26.0 190.0 26.0 190.0 C 25.8 190.1 25.6 190.2 25.6 190.0 C 25.7 189.8 25.9 189.7 26.0 189.7 C 26.1 189.7 26.2 189.9 26.0 190.0 C 26.0 190.0 26.0 190.0 26.0 190.0 Z M 35.1 183.8 C 35.1 183.8 35.1 183.8 35.1 183.8 C 34.9 183.9 34.7 183.9 34.8 183.8 C 34.8 183.6 35.0 183.4 35.1 183.4 C 35.2 183.4 35.3 183.6 35.1 183.8 C 35.1 183.8 35.1 183.8 35.1 183.8 Z M 21.3 195.0 C 21.3 195.0 21.3 195.0 21.3 195.0 C 21.1 195.2 20.9 195.2 20.9 195.1 C 21.0 194.9 21.2 194.7 21.3 194.7 C 21.4 194.7 21.5 194.9 21.3 195.0 C 21.3 195.0 21.3 195.0 21.3 195.0 Z M 33.0 182.9 C 33.0 182.9 33.0 182.9 33.0 182.9 C 32.5 182.9 32.1 182.5 32.7 181.8 C 28.0 183.7 32.6 178.8 34.1 179.5 C 36.1 180.4 33.8 183.2 33.0 182.9 C 33.0 182.9 33.0 182.9 33.0 182.9 Z M 183.7 42.7 C 185.4 42.6 186.6 40.2 188.0 39.7 C 189.5 39.1 191.3 39.4 190.5 37.6 C 189.9 36.2 192.6 33.8 191.4 33.0 C 190.6 32.5 189.7 32.3 189.0 31.5 C 187.8 30.0 188.7 28.6 186.4 28.9 C 184.5 29.1 186.2 30.8 183.7 29.8 C 181.9 29.1 180.4 30.4 181.0 32.2 C 181.5 33.9 181.2 35.4 178.9 34.4 C 177.8 33.9 177.6 33.7 176.5 34.1 C 176.1 34.2 174.9 36.8 174.9 36.8 C 175.3 37.0 177.4 36.8 176.4 37.8 C 175.8 38.5 174.1 38.6 173.7 37.6 C 173.0 35.9 169.9 40.7 170.5 40.7 C 170.3 40.7 168.1 40.1 168.7 41.5 C 168.7 41.5 167.1 43.3 166.8 43.6 C 163.6 47.2 171.4 43.9 167.6 47.5 C 165.1 49.9 165.0 46.5 164.5 46.2 C 163.5 45.7 161.5 47.7 160.7 48.3 C 160.0 48.8 160.2 50.3 160.2 51.0 C 160.1 52.2 158.5 53.2 157.5 53.1 C 157.0 53.0 156.0 52.6 155.5 52.9 C 155.5 52.9 154.2 54.0 154.6 54.0 C 154.9 54.0 156.4 53.5 156.2 54.3 C 156.1 54.8 153.9 54.6 153.4 54.9 C 152.4 55.4 154.4 57.6 152.0 57.9 C 150.4 58.1 151.1 57.6 151.3 59.2 C 151.4 60.1 148.8 60.3 148.3 60.0 C 150.7 61.7 147.4 61.2 147.6 61.6 C 147.5 61.3 148.1 60.5 147.8 60.2 C 147.7 60.2 141.3 65.3 141.7 66.3 C 142.1 67.2 143.6 67.0 141.8 68.3 C 141.2 68.7 139.9 69.0 139.8 68.7 C 140.4 67.5 140.3 68.0 140.8 66.6 C 140.8 66.6 138.7 68.2 138.4 68.4 C 137.3 69.4 137.3 70.2 136.9 71.6 C 136.5 72.5 135.1 72.0 134.3 72.6 C 133.4 73.4 132.6 74.0 131.9 75.0 C 131.2 76.0 130.9 76.1 131.5 76.9 C 132.1 77.6 130.6 79.2 130.5 79.9 C 130.4 80.7 130.3 80.7 129.4 80.9 C 127.7 81.2 128.4 80.4 127.9 80.1 C 126.3 79.2 123.8 81.8 123.1 82.8 C 122.4 83.9 124.5 83.1 124.4 83.4 C 124.3 84.2 123.2 84.5 122.7 84.9 C 121.9 85.6 122.3 84.5 121.8 84.5 C 119.5 84.5 121.2 87.4 120.2 88.0 C 118.7 88.8 116.8 87.4 116.1 89.6 C 115.4 91.8 112.6 91.3 111.7 93.4 C 111.0 95.1 107.3 94.9 108.2 97.3 C 108.6 98.4 108.2 100.5 109.0 101.4 C 109.2 101.6 112.3 103.4 112.2 102.7 C 112.3 103.1 111.3 103.9 111.6 104.3 C 111.8 104.7 113.5 103.9 113.9 104.0 C 114.1 104.0 113.1 106.1 113.2 106.5 C 113.4 106.9 116.8 105.0 117.9 106.1 C 118.3 106.6 119.8 105.9 119.3 105.4 C 119.0 105.1 117.1 104.0 116.8 104.4 C 117.0 104.2 118.8 103.3 118.8 103.3 C 118.4 103.2 118.1 103.1 117.8 102.8 C 117.7 102.6 120.9 99.7 121.2 99.7 C 121.9 99.9 122.7 101.6 123.4 101.5 C 123.9 101.5 123.8 100.0 124.2 99.7 C 125.0 99.1 124.9 100.5 125.7 100.1 C 126.0 99.9 129.0 96.1 128.9 95.9 C 128.8 95.7 126.7 95.4 126.3 95.0 C 125.5 94.2 126.8 93.6 127.3 93.3 C 128.0 92.7 131.2 91.2 132.2 92.3 C 132.5 92.6 130.8 94.4 130.8 94.8 C 130.8 94.2 134.9 94.1 134.4 92.1 C 134.3 91.8 133.3 92.6 133.1 92.5 C 132.9 92.5 132.4 90.6 133.0 90.3 C 133.3 90.1 134.8 90.4 134.8 89.9 C 134.8 90.1 134.7 87.9 135.3 88.3 C 135.0 88.0 133.3 88.0 133.2 87.5 C 133.2 87.5 135.2 86.0 135.4 85.9 C 137.0 85.0 136.2 85.0 136.4 83.9 C 136.6 82.7 137.8 80.9 138.8 82.5 C 139.9 84.4 141.9 83.4 140.7 82.2 C 139.6 81.0 140.1 81.0 141.5 80.3 C 142.9 79.6 143.7 78.0 145.4 78.1 C 147.7 78.2 146.1 80.1 146.8 80.3 C 147.7 80.4 148.6 79.4 149.1 78.8 C 149.8 77.9 148.3 77.7 148.5 77.3 C 148.9 76.5 150.8 77.1 151.3 76.3 C 151.3 76.2 151.6 74.5 151.4 74.7 C 154.3 72.3 150.8 74.3 149.5 73.5 C 149.0 73.2 151.3 72.4 149.7 71.4 C 148.0 70.3 150.4 68.2 151.1 68.8 C 151.1 69.1 151.1 69.4 151.1 69.7 C 152.0 70.2 154.2 67.7 154.9 68.3 C 155.2 68.5 152.7 72.5 154.0 72.8 C 154.7 73.0 154.7 71.6 154.7 71.2 C 154.7 70.5 155.6 71.3 155.9 71.4 C 155.7 71.3 157.1 70.0 156.8 69.3 C 156.7 69.1 155.2 69.7 155.5 69.2 C 156.5 67.2 156.7 69.1 158.0 69.2 C 158.9 69.2 161.9 67.4 161.7 67.3 C 161.5 67.3 160.5 67.8 160.4 67.4 C 160.2 66.8 161.4 66.4 161.2 65.8 C 161.1 65.6 160.2 66.1 160.2 65.9 C 160.1 65.2 162.0 63.8 161.6 63.3 C 161.4 62.9 159.9 64.7 159.4 64.2 C 159.0 63.8 159.4 62.4 160.1 62.9 C 161.0 63.6 161.8 61.2 162.7 61.1 C 163.7 61.1 162.7 63.2 164.2 62.1 C 166.0 61.0 164.3 61.2 164.2 60.5 C 164.0 58.5 169.3 60.7 168.9 59.3 C 168.8 58.8 165.9 58.7 167.6 57.7 C 168.4 57.3 170.0 53.2 171.2 54.4 C 171.5 54.7 169.8 56.4 170.1 56.5 C 171.0 56.8 172.0 55.6 172.6 55.3 C 173.5 54.8 173.6 55.7 174.5 55.7 C 175.6 55.6 174.8 53.9 175.4 53.4 C 176.0 53.0 173.7 51.5 173.4 51.3 C 174.3 51.9 175.0 49.4 176.1 49.8 C 178.6 50.5 178.2 49.7 180.0 49.1 C 179.7 49.3 179.4 49.4 179.1 49.2 C 179.1 49.0 179.9 48.1 180.0 48.0 C 179.6 48.2 179.1 48.3 178.6 48.2 C 178.5 48.1 180.7 42.3 182.8 43.7 C 183.1 43.8 186.0 46.5 185.9 44.9 C 185.9 44.4 183.6 42.7 183.7 42.7 M 169.6 57.7 C 169.4 58.0 169.1 58.1 168.7 57.9 C 168.8 57.4 169.1 57.1 169.6 57.0 C 169.9 57.2 169.9 57.5 169.6 57.7 M 170.6 58.6 C 170.3 58.8 170.1 58.9 169.8 58.7 C 170.9 56.6 172.9 58.5 170.8 59.1 C 170.7 59.1 170.9 58.4 170.6 58.6 M 157.3 71.0 C 157.0 70.8 157.9 69.3 158.2 70.0 C 158.3 70.3 157.6 71.1 157.3 71.0 M 152.6 71.1 C 151.8 71.0 152.7 70.0 153.1 70.1 C 153.7 70.2 152.8 71.1 152.6 71.1 M 123.5 99.0 C 122.3 98.1 123.4 93.9 125.1 95.4 C 127.1 97.0 125.3 100.2 123.5 99.0 M 144.2 82.1 C 143.9 81.6 145.5 80.8 145.8 81.4 C 146.5 82.4 144.5 82.7 144.2 82.1 M 144.1 79.7 C 143.8 79.2 144.8 78.8 145.1 79.1 C 145.4 79.3 144.4 80.4 144.1 79.7 M 129.2 93.8 C 129.4 94.3 128.0 94.6 128.1 94.2 C 128.2 93.9 129.0 93.3 129.2 93.8 C 129.2 93.8 129.2 93.8 129.2 93.8 Z M 120.2 101.7 C 120.6 101.6 120.7 102.1 120.3 102.1 C 120.1 102.1 119.9 101.8 120.2 101.7 C 120.2 101.7 120.2 101.7 120.2 101.7 Z M 137.2 85.4 C 138.3 84.7 138.3 86.6 136.8 87.0 C 135.6 87.3 136.1 86.4 137.2 85.4 C 137.2 85.4 137.2 85.4 137.2 85.4 Z M 117.0 89.7 C 116.7 89.8 116.8 89.1 117.2 89.0 C 118.0 88.8 117.3 89.6 117.0 89.7 C 117.0 89.7 117.0 89.7 117.0 89.7 Z M 169.9 52.9 C 169.3 53.0 169.7 52.3 170.1 52.4 C 170.5 52.4 170.6 52.8 169.9 52.9 C 169.9 52.9 169.9 52.9 169.9 52.9 Z M 181.8 45.8 C 181.1 45.9 182.1 45.0 182.4 45.1 C 182.9 45.1 182.5 45.7 181.8 45.8 C 181.8 45.8 181.8 45.8 181.8 45.8 Z M 184.3 32.3 C 183.6 32.4 184.1 31.6 184.4 31.7 C 184.9 31.7 185.0 32.2 184.3 32.3 C 184.3 32.3 184.3 32.3 184.3 32.3 Z M 170.7 47.0 C 170.0 47.1 170.5 46.4 170.8 46.5 C 171.3 46.5 171.4 46.9 170.7 47.0 C 170.7 47.0 170.7 47.0 170.7 47.0 Z M 172.9 52.3 C 173.7 52.5 174.7 54.2 172.7 53.9 C 170.7 53.6 172.1 52.2 172.9 52.3 C 172.9 52.3 172.9 52.3 172.9 52.3 Z M 133.8 74.9 C 133.8 74.9 133.8 76.0 133.5 76.0 C 132.0 76.0 133.8 74.9 133.8 74.9 C 133.8 74.9 133.8 74.9 133.8 74.9 Z M 151.2 70.3 C 151.2 70.3 150.9 71.0 150.8 71.0 C 149.6 71.2 151.2 70.3 151.2 70.3 C 151.2 70.3 151.2 70.3 151.2 70.3 Z M 160.3 69.2 C 160.3 69.2 160.1 69.9 160.0 70.0 C 158.8 70.2 160.3 69.2 160.3 69.2 C 160.3 69.2 160.3 69.2 160.3 69.2 Z M 182.4 46.8 C 183.6 46.0 183.3 47.4 182.2 47.9 C 181.3 48.4 181.1 47.6 182.4 46.8 C 182.4 46.8 182.4 46.8 182.4 46.8 Z M 176.7 47.8 C 178.5 47.7 177.9 49.1 176.4 48.9 C 175.2 48.8 175.0 47.8 176.7 47.8 C 176.7 47.8 176.7 47.8 176.7 47.8 Z M 180.3 43.1 C 180.1 43.4 179.9 43.4 179.8 43.1 C 179.7 42.5 180.8 41.9 181.3 42.0 C 182.1 42.2 180.3 43.1 180.3 43.1 M 174.0 41.1 C 173.4 44.1 172.0 39.2 172.6 39.3 C 173.2 39.5 174.1 40.4 174.0 41.1 C 174.0 41.1 174.0 41.1 174.0 41.1 Z M 157.5 54.1 C 157.5 54.8 156.5 54.9 156.6 54.3 C 156.7 53.8 157.5 53.4 157.5 54.1 C 157.5 54.1 157.5 54.1 157.5 54.1 Z M 166.5 60.7 C 166.5 61.1 165.4 61.9 165.5 61.3 C 165.6 60.8 166.6 60.0 166.5 60.7 C 166.5 60.7 166.5 60.7 166.5 60.7 Z M 190.3 40.1 C 190.3 40.5 189.3 41.2 189.4 40.6 C 189.4 40.2 190.4 39.4 190.3 40.1 C 190.3 40.1 190.3 40.1 190.3 40.1 Z M 151.0 65.0 C 150.7 66.2 149.5 66.1 149.8 65.3 C 150.2 64.5 151.3 63.8 151.0 65.0 C 151.0 65.0 151.0 65.0 151.0 65.0 Z M 137.8 82.9 C 137.7 83.6 136.9 83.4 137.2 83.1 C 137.5 82.7 137.8 82.6 137.8 82.9 C 137.8 82.9 137.8 82.9 137.8 82.9 Z M 135.8 86.8 C 135.7 87.2 135.2 87.3 135.4 86.9 C 135.7 86.6 135.9 86.5 135.8 86.8 C 135.8 86.8 135.8 86.8 135.8 86.8 Z M 120.8 95.4 C 120.5 96.2 119.2 96.4 119.8 95.6 C 120.5 94.8 120.9 94.7 120.8 95.4 C 120.8 95.4 120.8 95.4 120.8 95.4 Z M 134.3 90.6 C 134.2 91.0 133.7 91.1 133.9 90.7 C 134.2 90.4 134.4 90.4 134.3 90.6 C 134.3 90.6 134.3 90.6 134.3 90.6 Z M 125.0 97.8 C 124.9 98.7 123.8 98.5 124.2 98.0 C 124.6 97.5 125.1 97.4 125.0 97.8 C 125.0 97.8 125.0 97.8 125.0 97.8 Z M 128.4 99.1 C 128.3 100.0 127.2 99.8 127.6 99.3 C 128.0 98.8 128.5 98.7 128.4 99.1 C 128.4 99.1 128.4 99.1 128.4 99.1 Z M 136.6 69.4 C 136.5 70.3 135.4 70.1 135.8 69.6 C 136.2 69.1 136.7 69.0 136.6 69.4 C 136.6 69.4 136.6 69.4 136.6 69.4 Z M 178.5 52.0 C 177.7 52.9 177.0 52.8 177.1 51.9 C 177.3 51.0 179.3 51.1 178.5 52.0 C 178.5 52.0 178.5 52.0 178.5 52.0 Z M 124.7 96.1 C 124.7 96.6 124.2 96.5 124.3 96.2 C 124.4 95.8 124.8 95.6 124.7 96.1 C 124.7 96.1 124.7 96.1 124.7 96.1 Z M 143.9 74.6 C 143.5 74.5 143.3 74.3 143.3 74.0 C 143.9 73.6 145.3 73.8 145.7 74.6 C 146.0 75.3 143.5 76.2 143.4 75.2 C 143.4 75.0 144.3 74.9 143.9 74.6 M 137.4 73.3 C 136.9 73.4 137.0 72.7 137.6 72.7 C 138.3 72.8 138.0 73.2 137.4 73.3 C 137.4 73.3 137.4 73.3 137.4 73.3 Z M 145.7 63.1 C 145.1 63.2 145.2 62.5 145.8 62.5 C 146.5 62.6 146.2 63.0 145.7 63.1 C 145.7 63.1 145.7 63.1 145.7 63.1 Z M 136.3 89.7 C 135.7 90.1 136.5 90.0 136.5 90.2 C 136.2 90.5 135.9 90.7 135.4 90.6 C 134.6 90.1 136.4 89.3 136.6 89.3 C 136.5 89.5 136.4 89.6 136.3 89.7 M 116.9 91.3 C 116.3 91.7 117.1 91.6 117.1 91.8 C 116.8 92.1 116.5 92.2 116.0 92.2 C 115.2 91.7 117.0 90.9 117.2 90.9 C 117.1 91.1 117.0 91.2 116.9 91.3 M 192.6 36.4 C 192.3 36.3 193.2 34.7 193.5 35.5 C 193.6 35.8 192.9 36.5 192.6 36.4 M 146.7 59.9 C 146.4 59.8 147.3 58.2 147.6 59.0 C 147.7 59.3 147.0 60.0 146.7 59.9 M 144.9 67.0 C 144.4 67.4 145.2 67.2 145.2 67.5 C 144.9 67.8 144.5 67.9 144.1 67.9 C 143.3 67.4 145.0 66.5 145.2 66.6 C 145.2 66.7 145.0 66.9 144.9 67.0 M 123.5 85.4 C 123.8 85.6 123.1 86.2 123.1 85.8 C 123.1 85.4 123.3 85.2 123.5 85.4 C 123.5 85.4 123.5 85.4 123.5 85.4 Z M 162.2 64.2 C 162.5 64.4 161.5 64.9 161.7 64.4 C 161.9 64.1 161.9 64.0 162.2 64.2 C 162.2 64.2 162.2 64.2 162.2 64.2 Z M 147.9 72.1 C 148.0 71.4 148.6 72.0 148.7 72.4 C 148.9 73.5 146.9 72.6 147.0 72.4 C 147.2 72.2 147.9 72.2 147.9 72.1 M 162.7 57.9 C 162.9 56.7 165.1 59.5 162.5 59.1 C 160.0 58.7 162.6 58.2 162.7 57.9 M 111.4 95.3 C 111.4 95.8 113.3 94.7 113.3 95.1 C 113.4 96.1 111.0 96.1 110.5 95.6 C 110.4 95.4 111.5 94.4 111.4 95.3 M 130.4 90.4 C 130.4 90.9 132.3 89.7 132.3 90.1 C 132.5 91.1 130.1 91.2 129.5 90.6 C 129.4 90.5 130.5 89.4 130.4 90.4 M 158.8 65.2 C 159.2 64.9 159.1 66.6 158.2 66.3 C 156.6 65.9 158.5 65.4 158.8 65.2 M 186.7 42.2 C 186.9 41.9 187.2 41.8 187.5 41.9 C 188.1 42.1 186.8 43.3 186.8 43.1 C 186.8 42.8 186.7 42.5 186.7 42.2 M 129.8 79.5 C 130.0 80.2 128.9 80.0 129.1 79.6 C 129.4 79.1 129.6 78.9 129.8 79.5 C 129.8 79.5 129.8 79.5 129.8 79.5 Z M 169.2 39.2 C 169.4 39.8 168.3 39.7 168.5 39.2 C 168.8 38.7 169.0 38.5 169.2 39.2 C 169.2 39.2 169.2 39.2 169.2 39.2 Z M 116.2 107.2 C 116.3 107.8 115.3 107.7 115.6 107.4 C 115.9 106.9 116.1 106.7 116.2 107.2 C 116.2 107.2 116.2 107.2 116.2 107.2 Z M 130.9 87.7 C 130.9 87.9 129.7 88.4 130.1 87.4 C 130.3 86.8 130.9 87.4 130.9 87.7 C 130.9 87.7 130.9 87.7 130.9 87.7 Z M 121.5 103.1 C 121.4 103.4 120.0 104.2 120.6 102.9 C 120.9 102.2 121.6 102.8 121.5 103.1 C 121.5 103.1 121.5 103.1 121.5 103.1 Z M 137.0 78.2 C 137.0 78.6 136.5 78.6 136.7 78.1 C 136.9 77.8 137.1 77.8 137.0 78.2 C 137.0 78.2 137.0 78.2 137.0 78.2 Z M 145.0 83.6 C 145.0 84.0 144.5 84.0 144.7 83.5 C 144.8 83.2 145.0 83.2 145.0 83.6 C 145.0 83.6 145.0 83.6 145.0 83.6 Z M 151.2 72.6 C 151.1 73.0 150.6 72.9 150.8 72.5 C 151.0 72.2 151.2 72.2 151.2 72.6 C 151.2 72.6 151.2 72.6 151.2 72.6 Z M 140.5 86.7 C 139.6 88.3 138.3 88.6 139.1 86.4 C 139.6 85.1 140.7 86.4 140.5 86.7 C 140.5 86.7 140.5 86.7 140.5 86.7 Z M 143.3 71.5 C 143.2 71.9 142.8 71.8 143.0 71.4 C 143.1 71.2 143.4 71.1 143.3 71.5 C 143.3 71.5 143.3 71.5 143.3 71.5 Z M 148.5 75.7 C 149.9 75.5 146.7 79.1 146.0 77.2 C 145.0 74.8 147.9 75.8 148.5 75.7 M 164.7 63.9 C 165.3 63.9 164.4 65.0 163.9 64.4 C 163.0 63.3 164.6 63.9 164.7 63.9 M 162.3 49.5 C 162.3 49.5 161.6 49.2 162.0 49.0 C 162.7 48.8 162.3 49.5 162.3 49.5 C 162.3 49.5 162.3 49.5 162.3 49.5 Z M 161.4 51.6 C 161.5 52.1 160.2 52.5 160.7 51.8 C 160.9 51.4 161.3 51.1 161.4 51.6 C 161.4 51.6 161.4 51.6 161.4 51.6 Z M 168.7 61.0 C 168.7 61.2 168.2 61.4 168.4 61.1 C 168.5 61.0 168.7 60.8 168.7 61.0 C 168.7 61.0 168.7 61.0 168.7 61.0 Z M 158.8 49.2 C 158.8 49.6 157.7 50.1 158.2 49.5 C 158.4 49.1 158.8 48.8 158.8 49.2 C 158.8 49.2 158.8 49.2 158.8 49.2 Z M 146.8 81.6 C 146.9 81.8 146.3 82.0 146.5 81.7 C 146.6 81.5 146.8 81.3 146.8 81.6 C 146.8 81.6 146.8 81.6 146.8 81.6 Z M 119.8 106.4 C 119.9 106.6 119.3 106.8 119.5 106.5 C 119.6 106.3 119.8 106.2 119.8 106.4 C 119.8 106.4 119.8 106.4 119.8 106.4 Z M 179.3 35.6 C 179.5 36.2 178.2 36.4 178.6 35.8 C 178.8 35.4 179.2 35.1 179.3 35.6 C 179.3 35.6 179.3 35.6 179.3 35.6 Z M 141.5 81.4 C 141.7 82.0 140.5 82.1 141.0 81.4 C 141.2 81.0 141.4 80.8 141.5 81.4 C 141.5 81.4 141.5 81.4 141.5 81.4 Z M 166.5 46.3 C 166.7 46.9 165.5 47.0 166.0 46.3 C 166.3 45.9 166.4 45.7 166.5 46.3 C 166.5 46.3 166.5 46.3 166.5 46.3 Z M 143.8 80.4 C 143.9 80.7 143.3 80.9 143.5 80.5 C 143.7 80.3 143.7 80.1 143.8 80.4 C 143.8 80.4 143.8 80.4 143.8 80.4 Z M 130.1 78.2 C 130.2 78.5 129.5 78.7 129.8 78.3 C 129.9 78.1 130.0 77.9 130.1 78.2 C 130.1 78.2 130.1 78.2 130.1 78.2 Z M 122.9 81.9 C 122.9 82.3 122.3 82.5 122.6 82.0 C 122.7 81.8 122.8 81.6 122.9 81.9 C 122.9 81.9 122.9 81.9 122.9 81.9 Z M 134.9 82.6 C 135.0 82.9 134.2 83.2 134.4 82.8 C 134.6 82.5 134.9 82.3 134.9 82.6 C 134.9 82.6 134.9 82.6 134.9 82.6 Z M 171.1 47.6 C 171.6 47.0 173.2 47.0 173.9 47.6 C 173.3 47.1 171.9 49.3 171.6 49.4 C 171.3 49.5 170.6 48.2 171.1 47.6 M 132.6 83.7 C 135.7 80.2 136.1 84.3 133.1 85.6 C 132.8 85.7 132.1 84.3 132.6 83.7 C 132.8 85.7 132.1 84.3 132.6 83.7 C 132.8 85.7 132.1 84.3 132.6 83.7 C 132.8 85.7 132.1 84.3 132.6 83.7 M 114.6 110.8 C 116.4 108.7 114.9 109.8 114.7 107.8 C 114.7 107.4 115.4 105.0 115.0 104.9 C 114.2 104.6 113.7 106.2 113.0 106.0 C 111.5 105.6 113.2 103.7 113.0 103.2 C 112.6 101.6 110.6 101.6 109.4 101.6 C 107.6 101.6 109.2 102.8 108.8 103.6 C 108.5 104.2 107.5 102.7 107.4 102.5 C 106.5 101.1 108.4 100.8 106.5 99.4 C 105.3 98.6 104.9 98.2 104.1 99.6 C 103.6 100.7 104.7 101.8 105.1 102.9 C 105.3 103.4 102.3 105.7 102.1 104.2 C 102.0 103.1 101.7 102.2 100.8 103.3 C 100.5 103.7 100.4 104.2 100.4 104.7 C 100.3 105.6 99.3 105.2 99.0 106.1 C 98.3 107.9 94.5 107.4 93.5 109.6 C 93.4 110.0 93.9 113.5 91.5 112.2 C 90.9 112.5 91.9 113.7 91.6 113.9 C 90.6 114.7 90.1 113.7 89.7 113.8 C 88.9 114.2 87.9 118.2 86.9 117.2 C 85.3 115.6 83.5 118.7 83.7 119.1 C 83.8 119.4 81.2 121.0 80.2 122.3 C 80.5 122.3 80.7 122.2 80.9 122.1 C 80.8 122.3 80.6 122.8 80.5 122.9 C 80.9 122.5 83.0 121.7 83.6 121.8 C 83.9 121.8 81.6 125.6 80.7 124.2 C 80.3 123.5 80.0 123.0 79.5 124.0 C 78.7 125.4 79.0 123.7 78.0 124.1 C 76.4 124.9 77.8 126.7 75.9 126.7 C 74.6 126.6 75.1 127.2 74.6 128.1 C 73.6 129.6 72.3 128.5 71.3 129.6 C 71.2 129.8 68.9 132.0 70.0 132.1 C 70.9 132.1 72.1 131.2 73.0 131.5 C 74.7 132.1 70.2 133.6 70.6 133.3 C 69.8 133.8 69.5 136.8 68.7 136.8 C 68.1 136.8 68.8 133.9 68.9 133.6 C 69.0 132.2 66.0 135.3 66.1 135.3 C 65.6 135.5 65.5 136.7 65.0 136.8 C 64.1 137.0 63.9 136.8 63.3 137.5 C 62.9 138.0 62.6 138.2 62.1 138.7 C 61.4 139.2 62.3 140.5 62.1 141.3 C 61.8 142.7 60.8 141.5 60.2 141.7 C 58.7 142.2 57.6 145.7 56.3 145.1 C 54.8 144.4 55.8 148.4 53.7 148.2 C 53.0 148.1 51.7 148.8 51.7 149.2 C 51.6 148.1 49.5 150.1 49.1 150.4 C 48.4 150.8 48.6 151.7 48.3 152.4 C 48.0 153.2 46.9 152.9 46.1 153.0 C 44.5 153.4 47.0 154.9 45.5 155.0 C 43.0 155.2 46.6 157.4 46.2 158.0 C 46.1 158.2 43.4 157.0 43.0 157.0 C 42.3 157.0 43.4 158.0 42.7 157.9 C 41.9 157.8 40.6 157.7 40.7 158.9 C 40.7 159.5 42.3 160.3 41.7 160.6 C 41.6 160.7 40.3 160.8 40.5 161.1 C 42.3 163.4 37.1 160.4 39.2 160.0 C 38.2 160.2 34.4 163.1 35.3 164.1 C 35.7 164.6 37.4 163.2 37.6 164.0 C 38.0 165.5 33.8 166.4 34.3 165.2 C 34.0 166.1 31.2 165.9 30.9 167.4 C 30.8 167.6 29.8 168.0 30.0 168.3 C 30.2 168.7 31.1 169.4 31.1 169.8 C 31.1 170.8 30.3 172.7 31.5 173.3 C 31.8 173.5 36.5 175.7 36.4 175.4 C 36.5 175.9 35.5 176.7 35.9 177.2 C 36.7 178.1 38.5 174.7 39.2 176.1 C 39.2 176.1 40.3 175.5 40.6 175.7 C 41.6 176.5 40.9 176.6 42.1 175.8 C 43.0 175.2 42.1 175.5 41.9 174.6 C 41.9 174.1 44.2 175.2 44.5 173.2 C 43.3 173.9 43.3 173.1 42.1 172.9 C 40.5 172.7 42.1 171.1 42.4 170.7 C 43.9 168.8 45.1 168.7 47.3 168.2 C 48.5 168.0 48.8 172.6 48.9 169.4 C 49.0 168.0 52.6 165.9 53.2 164.6 C 53.2 164.7 51.9 164.8 51.8 164.7 C 50.0 163.0 55.0 161.3 55.8 161.2 C 57.2 161.1 56.5 160.6 55.5 160.3 C 54.1 159.9 55.0 158.9 55.6 158.4 C 56.0 158.1 57.2 157.5 57.2 157.0 C 57.2 156.3 60.7 157.7 61.2 157.6 C 62.5 157.3 61.6 156.1 63.0 155.7 C 63.2 155.6 66.5 155.0 66.0 154.5 C 65.0 153.4 60.8 156.2 63.5 152.9 C 63.6 152.7 67.0 149.1 67.1 150.1 C 67.2 150.6 66.6 150.9 66.4 151.3 C 67.1 149.7 70.1 152.0 71.1 149.8 C 71.6 148.7 76.1 145.8 73.5 145.6 C 71.1 145.4 72.2 143.2 73.9 143.1 C 75.5 142.9 76.0 142.8 76.3 141.3 C 76.4 141.0 78.3 138.5 78.7 139.4 C 79.0 140.0 77.9 140.5 78.5 141.4 C 78.9 141.8 79.7 141.8 79.9 141.2 C 80.2 140.7 79.6 139.9 79.6 139.3 C 79.6 139.2 81.0 138.7 81.2 138.6 C 81.9 138.2 82.6 137.2 83.5 137.0 C 84.1 136.9 83.9 138.1 84.3 138.0 C 87.0 137.6 82.3 136.0 82.5 136.2 C 82.4 136.1 83.5 133.3 83.7 133.1 C 85.0 131.5 86.1 131.8 87.7 132.8 C 87.9 133.0 86.2 135.2 86.2 135.2 C 88.9 135.8 89.2 133.0 90.7 132.1 C 91.2 131.7 94.5 130.4 92.6 129.3 C 91.5 128.7 92.8 128.2 93.1 127.9 C 93.0 128.0 90.3 127.8 89.8 127.9 C 90.7 126.8 91.6 125.7 92.6 124.8 C 93.1 124.2 93.8 123.5 94.6 123.2 C 95.0 123.1 96.3 124.1 96.6 123.0 C 96.4 123.7 96.0 124.4 95.6 124.9 C 96.3 124.6 99.1 125.5 99.0 123.9 C 99.0 123.4 98.1 123.4 98.6 122.8 C 99.0 122.2 99.6 121.6 99.9 120.9 C 100.2 120.3 98.1 118.4 100.6 117.8 C 100.5 117.8 102.7 118.6 102.6 118.6 C 103.4 119.2 103.9 119.4 104.7 118.7 C 104.1 119.2 102.0 116.6 102.9 115.4 C 103.8 114.2 106.3 112.2 107.7 114.1 C 108.9 113.7 110.5 114.2 110.6 112.2 C 110.7 111.0 111.9 109.3 113.4 109.3 C 113.8 109.3 112.9 110.7 113.0 110.9 C 113.1 111.4 114.4 111.0 114.6 110.8 M 112.1 112.2 C 111.4 112.0 113.1 110.8 113.1 111.9 C 112.9 112.2 112.5 112.3 112.1 112.2 M 112.2 110.6 C 112.2 110.1 112.6 110.4 112.5 110.6 C 112.4 110.8 112.1 111.0 112.2 110.6 C 112.2 110.6 112.2 110.6 112.2 110.6 Z M 100.6 120.0 C 101.1 119.3 101.3 119.6 101.2 120.2 C 101.0 120.8 100.1 120.6 100.6 120.0 C 100.6 120.0 100.6 120.0 100.6 120.0 Z M 82.8 118.0 C 83.3 117.4 83.5 117.6 83.4 118.2 C 83.2 118.8 82.4 118.6 82.8 118.0 C 82.8 118.0 82.8 118.0 82.8 118.0 Z M 93.1 126.5 C 92.9 126.3 93.2 126.1 93.4 126.3 C 93.5 126.4 93.2 126.6 93.1 126.5 C 93.1 126.5 93.1 126.5 93.1 126.5 Z M 104.0 115.8 C 103.8 115.6 104.1 115.4 104.3 115.6 C 104.4 115.7 104.1 115.9 104.0 115.8 C 104.0 115.8 104.0 115.8 104.0 115.8 Z M 95.1 127.3 C 94.6 127.4 94.5 125.7 96.4 126.7 C 96.8 126.9 95.3 127.7 95.2 127.6 C 95.0 127.6 95.5 127.2 95.1 127.3 M 86.1 136.6 C 85.7 136.8 85.5 136.6 85.4 136.3 C 85.4 136.2 86.6 135.8 86.1 136.6 M 54.3 144.2 C 54.0 144.4 53.8 144.2 53.6 143.9 C 53.6 143.8 54.9 143.4 54.3 144.2 M 63.3 157.6 C 63.2 158.0 62.2 157.9 62.2 157.7 C 62.2 157.2 63.5 156.8 63.3 157.6 M 75.2 143.8 C 75.1 144.0 73.6 145.4 73.6 144.8 C 73.6 144.2 75.2 143.7 75.2 143.8 M 54.9 163.8 C 55.3 163.6 55.8 163.4 56.3 163.3 C 56.5 163.2 54.7 165.9 54.1 165.2 C 53.6 164.8 54.6 163.8 54.9 163.8 M 52.1 167.9 C 52.0 168.2 51.0 168.8 50.7 168.4 C 50.3 167.8 52.1 167.3 52.1 167.9 M 68.1 152.2 C 67.9 152.3 67.8 151.8 68.1 151.7 C 68.5 151.4 68.4 152.0 68.1 152.2 C 68.1 152.2 68.1 152.2 68.1 152.2 Z M 76.9 143.3 C 77.1 143.1 78.4 142.5 78.4 143.0 C 78.3 144.5 74.9 146.1 76.9 143.3 M 100.6 122.6 C 100.6 122.6 100.2 123.8 99.4 123.2 C 98.2 122.2 100.6 122.6 100.6 122.6 M 104.2 117.8 C 103.8 118.0 103.7 117.5 104.1 117.4 C 104.5 117.3 104.5 117.6 104.2 117.8 C 104.2 117.8 104.2 117.8 104.2 117.8 Z M 60.8 158.5 C 60.4 158.6 61.0 157.8 61.2 158.0 C 61.3 158.2 61.3 158.3 60.8 158.5 C 60.8 158.5 60.8 158.5 60.8 158.5 Z M 56.8 162.6 C 56.4 162.7 57.0 161.9 57.2 162.1 C 57.3 162.3 57.3 162.5 56.8 162.6 C 56.8 162.6 56.8 162.6 56.8 162.6 Z M 39.8 158.1 C 39.3 158.2 40.0 157.4 40.2 157.6 C 40.3 157.8 40.3 158.0 39.8 158.1 C 39.8 158.1 39.8 158.1 39.8 158.1 Z M 96.8 116.2 C 96.9 115.8 97.2 115.7 97.6 115.9 C 97.7 116.2 97.7 116.5 97.6 116.7 C 97.8 116.4 99.5 115.2 99.3 116.5 C 99.0 117.7 97.5 117.5 97.0 118.3 C 96.9 118.7 97.2 119.6 97.4 119.7 C 97.3 119.7 96.5 120.0 95.3 119.3 C 94.0 118.4 96.7 116.8 96.8 116.2 M 76.7 137.4 C 76.5 137.5 75.1 138.5 75.0 138.3 C 73.9 136.1 78.7 135.2 79.5 137.2 C 80.6 139.7 76.1 137.7 76.7 137.4 M 49.3 165.9 C 50.3 165.1 47.3 166.3 47.0 165.8 C 46.5 164.8 49.6 164.5 50.0 164.6 C 52.6 165.2 49.6 167.8 48.6 167.1 C 48.6 166.6 48.8 166.2 49.3 165.9 M 44.2 172.0 C 43.5 172.0 45.5 169.7 45.9 169.6 C 46.5 169.4 46.9 170.3 46.9 170.8 C 46.7 172.3 45.3 171.9 44.2 172.0 M 84.3 134.9 C 82.9 134.9 85.4 131.9 86.1 133.1 C 86.4 133.6 84.7 134.9 84.3 134.9 M 61.0 144.9 C 61.9 145.0 59.6 146.9 59.5 147.1 C 59.4 147.5 61.4 147.6 61.1 147.7 C 59.9 148.4 54.8 152.7 57.8 148.2 C 58.4 147.3 58.0 145.5 58.6 144.7 C 59.8 142.8 59.7 144.6 61.0 144.9 M 109.3 110.9 C 108.5 111.3 109.9 111.9 109.7 112.5 C 109.3 113.2 107.6 112.5 107.6 111.8 C 107.6 108.9 112.1 109.3 109.3 110.9 M 97.9 120.8 C 98.6 120.4 98.7 121.1 98.3 121.3 C 97.8 121.6 97.2 121.1 97.9 120.8 C 97.9 120.8 97.9 120.8 97.9 120.8 Z M 94.0 125.3 C 93.8 125.6 92.8 125.6 92.7 125.1 C 92.5 124.4 94.9 124.3 94.0 125.3 M 110.2 115.4 C 110.0 115.7 109.0 115.7 108.8 115.2 C 108.6 114.5 111.0 114.4 110.2 115.4 M 64.2 148.2 C 64.0 148.5 63.0 148.5 62.9 148.0 C 62.7 147.3 65.1 147.2 64.2 148.2 M 75.2 142.2 C 74.5 143.0 72.2 141.9 73.1 141.4 C 73.7 141.0 76.5 140.7 75.2 142.2 M 80.0 126.3 C 79.8 126.4 79.6 126.5 79.4 126.6 C 77.3 126.0 82.6 123.8 80.0 126.3 M 69.3 149.8 C 68.0 151.2 66.7 147.9 67.5 147.3 C 69.4 145.9 70.5 148.6 69.3 149.8 M 77.6 140.6 C 78.1 140.5 77.8 141.4 77.0 141.2 C 76.7 141.1 77.2 140.6 77.6 140.6 C 77.6 140.6 77.6 140.6 77.6 140.6 Z M 59.6 145.5 C 59.3 145.4 59.4 145.0 59.7 145.2 C 60.0 145.3 59.9 145.6 59.6 145.5 C 59.6 145.5 59.6 145.5 59.6 145.5 Z M 58.5 146.9 C 58.2 147.0 58.3 146.3 58.6 146.2 C 59.3 146.2 58.8 146.7 58.5 146.9 C 58.5 146.9 58.5 146.9 58.5 146.9 Z M 65.9 153.6 C 65.6 153.7 65.7 153.0 66.1 153.0 C 66.7 152.9 66.2 153.5 65.9 153.6 C 65.9 153.6 65.9 153.6 65.9 153.6 Z M 96.7 109.0 C 95.6 110.3 95.2 109.7 96.3 108.9 C 97.0 108.4 97.8 107.8 96.7 109.0 C 96.7 109.0 96.7 109.0 96.7 109.0 Z M 91.6 130.4 C 90.0 132.5 87.5 129.7 90.0 128.7 C 90.0 128.7 93.1 128.4 91.6 130.4 C 91.6 130.4 91.6 130.4 91.6 130.4 Z M 82.2 131.6 C 82.2 132.0 81.5 131.5 81.7 131.1 C 81.8 130.8 82.2 131.3 82.2 131.6 C 82.2 131.6 82.2 131.6 82.2 131.6 Z M 73.0 150.0 C 73.0 150.3 72.3 149.9 72.5 149.4 C 72.6 149.1 73.0 149.6 73.0 150.0 C 73.0 150.0 73.0 150.0 73.0 150.0 Z M 94.8 110.0 C 94.8 110.4 94.2 109.9 94.3 109.5 C 94.5 109.2 94.8 109.7 94.8 110.0 C 94.8 110.0 94.8 110.0 94.8 110.0 Z M 55.7 159.8 C 55.7 160.2 55.1 159.7 55.2 159.3 C 55.4 159.0 55.8 159.5 55.7 159.8 C 55.7 159.8 55.7 159.8 55.7 159.8 Z M 67.4 137.5 C 68.1 137.9 66.5 139.0 66.9 138.2 C 67.4 137.3 66.7 137.2 67.4 137.5 C 67.4 137.5 67.4 137.5 67.4 137.5 Z M 62.8 141.6 C 63.2 141.9 62.7 142.5 62.5 142.1 C 62.4 141.7 62.5 141.4 62.8 141.6 C 62.8 141.6 62.8 141.6 62.8 141.6 Z M 51.2 169.2 C 51.5 169.4 51.0 170.1 50.9 169.6 C 50.8 169.2 50.8 168.9 51.2 169.2 C 51.2 169.2 51.2 169.2 51.2 169.2 Z M 48.6 149.3 C 49.0 149.5 48.5 150.2 48.3 149.7 C 48.2 149.4 48.2 149.1 48.6 149.3 C 48.6 149.3 48.6 149.3 48.6 149.3 Z M 48.1 156.4 C 47.5 156.7 47.5 156.0 48.2 156.1 C 48.7 156.2 48.7 156.2 48.1 156.4 C 48.1 156.4 48.1 156.4 48.1 156.4 Z M 66.0 152.1 C 66.3 152.5 63.3 154.8 64.2 153.2 C 64.7 152.4 65.5 151.4 66.0 152.1 C 66.0 152.1 66.0 152.1 66.0 152.1 Z M 37.8 167.7 C 37.7 168.2 37.0 167.9 36.9 167.4 C 36.9 167.4 37.8 167.2 37.8 167.7 C 37.8 167.7 37.8 167.7 37.8 167.7 Z M 39.4 174.0 C 39.3 174.5 38.5 174.2 38.4 173.7 C 38.4 173.7 39.4 173.5 39.4 174.0 C 39.4 174.0 39.4 174.0 39.4 174.0 Z M 40.2 177.3 C 40.2 177.8 39.4 177.5 39.3 177.0 C 39.3 177.0 40.3 176.8 40.2 177.3 C 40.2 177.3 40.2 177.3 40.2 177.3 Z M 90.0 120.7 C 90.2 119.8 90.7 120.8 90.7 120.8 C 89.7 121.5 89.7 121.5 90.0 120.7 C 90.0 120.7 90.0 120.7 90.0 120.7 Z M 98.0 125.9 C 98.1 125.5 98.3 126.0 98.3 126.0 C 97.9 126.3 97.9 126.3 98.0 125.9 C 98.0 125.9 98.0 125.9 98.0 125.9 Z M 92.2 131.8 C 92.3 131.5 92.5 131.9 92.5 131.9 C 92.1 132.2 92.1 132.2 92.2 131.8 C 92.2 131.8 92.2 131.8 92.2 131.8 Z M 87.3 115.5 C 87.5 115.0 87.7 115.6 87.7 115.6 C 87.1 116.0 87.1 116.0 87.3 115.5 C 87.3 115.5 87.3 115.5 87.3 115.5 Z M 69.6 142.4 C 69.8 141.6 70.2 142.5 70.2 142.5 C 69.3 143.2 69.3 143.2 69.6 142.4 C 69.6 142.4 69.6 142.4 69.6 142.4 Z M 64.9 141.6 C 65.1 140.8 65.6 141.7 65.6 141.7 C 64.7 142.4 64.7 142.4 64.9 141.6 C 64.9 141.6 64.9 141.6 64.9 141.6 Z M 66.8 133.0 C 66.9 132.7 67.1 133.1 67.1 133.1 C 66.7 133.4 66.7 133.4 66.8 133.0 C 66.8 133.0 66.8 133.0 66.8 133.0 Z M 61.0 140.7 C 61.1 140.4 61.3 140.8 61.3 140.8 C 60.9 141.1 60.9 141.1 61.0 140.7 C 61.0 140.7 61.0 140.7 61.0 140.7 Z M 103.9 102.7 C 103.5 103.1 103.2 102.8 103.7 102.4 C 104.0 102.2 104.3 102.3 103.9 102.7 C 103.9 102.7 103.9 102.7 103.9 102.7 Z M 109.2 107.5 C 108.6 108.2 107.9 107.5 109.0 106.7 C 109.5 106.4 109.8 106.8 109.2 107.5 C 109.2 107.5 109.2 107.5 109.2 107.5 Z M 72.4 146.9 C 72.7 146.7 72.1 147.7 72.0 147.7 C 71.6 147.9 70.9 147.4 70.8 147.5 C 71.3 147.3 71.9 147.0 72.4 146.9 M 80.5 138.2 C 80.1 138.3 80.1 137.9 80.4 137.8 C 80.8 137.7 80.9 138.0 80.5 138.2 C 80.5 138.2 80.5 138.2 80.5 138.2 Z M 57.4 160.2 C 56.1 159.9 57.8 158.2 58.8 158.5 C 59.0 158.6 58.7 160.4 57.4 160.2 C 57.4 160.2 57.4 160.2 57.4 160.2 Z M 54.0 147.1 C 54.1 147.3 53.5 147.5 53.7 147.2 C 53.9 146.8 54.0 146.9 54.0 147.1 C 54.0 147.1 54.0 147.1 54.0 147.1 Z M 52.5 150.1 C 52.3 150.8 51.0 150.2 51.5 149.9 C 52.3 149.5 52.8 149.4 52.5 150.1 C 52.5 150.1 52.5 150.1 52.5 150.1 Z M 45.0 167.4 C 44.6 167.7 44.2 167.7 43.8 167.4 C 42.9 167.0 46.3 166.4 45.0 167.4 M 83.3 139.0 C 83.1 139.4 82.7 139.5 82.2 139.4 C 80.9 138.9 84.7 138.0 83.3 139.0 M 54.4 162.8 C 53.8 163.0 54.2 162.2 54.6 162.2 C 55.1 162.3 54.9 162.5 54.4 162.8 C 54.4 162.8 54.4 162.8 54.4 162.8 Z M 43.3 171.1 C 42.7 171.3 43.1 170.5 43.5 170.6 C 44.0 170.7 43.8 170.8 43.3 171.1 C 43.3 171.1 43.3 171.1 43.3 171.1 Z M 88.3 131.9 C 87.5 133.0 86.8 130.7 87.0 130.2 C 87.4 128.8 88.1 130.9 88.1 130.9 C 88.2 131.0 87.5 130.3 87.5 130.6 C 87.6 131.5 88.6 131.5 88.3 131.9 M 105.0 115.2 C 104.2 115.7 103.8 114.9 104.5 114.7 C 105.2 114.5 105.9 114.6 105.0 115.2 C 105.0 115.2 105.0 115.2 105.0 115.2 Z M 105.0 115.2 " fill="#FF0000"></path></g></svg>