<?xml version="1.0" encoding="UTF-8" standalone="no"?><svg xmlns="http://www.w3.org/2000/svg" xmlns:xlink="http://www.w3.org/1999/xlink" clip-rule="evenodd" stroke-miterlimit="4.00" viewBox="0 0 224 207"><desc>SVG generated by Keynote</desc><defs></defs><g transform="matrix(1.00, 0.00, -0.00, -1.00, 0.0, 207.0)"><path d="M 191.0 36.6 C 191.3 35.7 193.3 34.8 193.4 34.0 M 191.0 36.6 C 191.0 36.6 191.0 36.6 191.0 36.6 C 190.8 37.4 194.2 36.3 194.8 36.5 C 195.4 36.7 195.5 35.9 195.8 35.6 C 196.6 34.8 196.4 36.9 197.7 35.1 C 198.7 33.7 200.3 33.2 201.6 32.2 C 202.7 31.4 203.4 30.6 202.2 29.6 C 199.8 30.1 199.1 28.8 199.1 28.8 C 200.2 27.6 202.7 25.0 204.0 24.7 C 204.4 24.6 206.3 28.2 206.6 28.0 C 207.5 27.5 207.0 26.3 207.7 25.7 C 208.5 24.9 208.8 24.4 210.0 24.3 C 210.3 24.3 211.8 23.0 210.8 23.1 C 211.4 22.6 212.5 22.0 212.8 21.3 C 213.2 20.6 212.4 19.5 211.6 20.0 C 211.7 19.8 208.5 22.2 208.7 22.4 C 208.0 21.5 211.4 20.6 210.8 18.8 C 210.1 16.4 209.4 18.3 208.2 18.5 C 206.9 18.7 208.3 16.0 209.0 15.3 C 210.6 13.9 205.3 15.9 206.4 14.0 C 207.6 12.1 205.5 13.2 203.5 13.5 C 202.1 13.8 201.8 12.9 202.2 11.8 C 201.3 12.9 200.5 13.2 198.9 12.9 C 197.7 13.6 198.8 13.9 199.3 14.3 C 201.5 15.9 195.9 16.9 195.7 17.0 C 195.2 17.6 195.3 18.5 194.6 18.9 C 194.0 19.1 193.3 18.2 192.9 18.5 C 192.4 19.0 191.8 19.5 191.3 20.0 C 190.9 20.4 192.2 19.9 192.1 21.0 C 192.1 22.2 193.9 22.5 194.1 22.5 C 194.7 23.3 189.5 22.8 188.1 24.2 C 186.7 25.6 188.2 25.4 187.3 26.4 C 186.4 27.2 186.0 26.1 185.3 26.6 C 184.7 27.2 184.9 27.9 184.2 28.2 C 182.5 28.8 183.7 30.2 185.6 30.4 C 186.4 30.6 187.5 30.3 187.9 31.6 C 188.2 33.0 186.3 33.7 187.6 33.7 C 188.9 33.7 191.0 30.1 191.9 30.3 C 192.8 30.5 189.4 33.3 190.6 33.6 C 191.8 34.0 191.2 32.9 192.6 32.4 C 192.9 32.8 192.0 32.9 192.4 33.5 C 192.8 34.1 193.5 33.3 193.4 34.0 C 193.3 34.8 191.3 35.7 191.0 36.6 C 191.0 36.6 191.0 36.6 191.0 36.6 Z M 206.8 25.3 C 206.8 25.3 206.8 25.3 206.8 25.3 C 207.1 25.4 207.0 25.9 206.6 26.1 C 206.1 26.3 206.5 25.3 206.8 25.3 C 206.8 25.3 206.8 25.3 206.8 25.3 Z M 187.4 23.5 C 187.4 23.5 187.4 23.5 187.4 23.5 C 187.7 23.5 187.6 24.1 187.2 24.2 C 186.7 24.5 187.1 23.5 187.4 23.5 C 187.4 23.5 187.4 23.5 187.4 23.5 Z M 198.5 14.8 C 198.5 14.8 198.5 14.8 198.5 14.8 C 198.9 14.9 198.8 15.4 198.3 15.6 C 197.8 15.8 198.2 14.8 198.5 14.8 C 198.5 14.8 198.5 14.8 198.5 14.8 Z M 202.6 28.2 C 202.6 28.2 202.6 28.2 202.6 28.2 C 202.2 28.7 201.2 28.8 201.9 27.5 C 202.2 27.0 202.6 26.6 203.0 26.5 C 203.4 26.1 204.0 25.7 204.5 25.8 C 203.8 26.8 203.6 28.3 202.6 28.2 C 202.6 28.2 202.6 28.2 202.6 28.2 Z M 198.1 23.8 C 198.1 23.8 198.1 23.8 198.1 23.8 C 198.2 24.3 197.4 25.2 196.7 24.3 C 197.1 23.6 198.0 23.4 198.1 23.8 C 198.1 23.8 198.1 23.8 198.1 23.8 Z M 212.2 17.0 C 212.2 17.0 212.2 17.0 212.2 17.0 C 212.3 17.4 211.4 18.4 210.8 17.5 C 211.2 16.7 212.1 16.6 212.2 17.0 C 212.2 17.0 212.2 17.0 212.2 17.0 Z M 198.1 28.4 C 198.1 28.4 198.1 28.4 198.1 28.4 C 197.5 28.7 196.6 28.2 197.2 27.5 C 197.8 27.6 199.5 26.3 198.1 28.4 C 198.1 28.4 198.1 28.4 198.1 28.4 Z M 197.1 34.2 C 197.1 34.2 197.1 34.2 197.1 34.2 C 196.6 34.4 196.4 34.6 195.9 33.9 C 196.4 33.5 196.2 33.6 196.7 33.1 C 197.6 32.6 196.7 30.8 197.8 31.3 C 199.5 32.0 197.7 34.5 197.1 34.2 C 197.1 34.2 197.1 34.2 197.1 34.2 Z M 196.1 28.3 C 196.1 28.3 196.1 28.3 196.1 28.3 C 195.8 28.4 195.5 28.4 195.3 28.3 C 195.2 27.9 196.1 28.0 196.1 28.3 C 196.1 28.3 196.1 28.3 196.1 28.3 Z M 205.3 12.5 C 205.3 12.5 205.3 12.5 205.3 12.5 C 205.0 12.6 204.7 12.6 204.5 12.5 C 204.4 12.1 205.3 12.2 205.3 12.5 C 205.3 12.5 205.3 12.5 205.3 12.5 Z M 194.8 17.5 C 194.8 17.5 194.8 17.5 194.8 17.5 C 194.6 17.6 194.2 17.6 194.1 17.5 C 194.0 17.1 194.9 17.2 194.8 17.5 C 194.8 17.5 194.8 17.5 194.8 17.5 Z M 205.3 22.8 C 205.3 22.8 205.3 22.8 205.3 22.8 C 205.4 22.1 207.1 22.0 207.2 22.3 C 207.4 23.3 205.2 23.5 205.3 22.8 C 205.3 22.8 205.3 22.8 205.3 22.8 Z M 192.9 38.4 C 192.9 38.4 192.9 38.4 192.9 38.4 C 193.0 37.7 194.8 37.5 194.8 37.8 C 195.0 38.8 192.9 39.0 192.9 38.4 C 192.9 38.4 192.9 38.4 192.9 38.4 Z M 20.8 194.2 C 20.8 194.2 20.8 194.2 20.8 194.2 C 20.5 194.5 20.3 194.8 20.2 195.1 C 20.4 195.1 20.6 195.1 20.7 195.0 C 20.9 194.8 21.1 194.6 21.3 194.5 C 22.2 193.7 21.9 195.8 23.4 193.9 C 24.4 192.6 24.8 192.9 26.2 192.0 C 26.4 191.7 24.5 191.1 24.3 190.9 C 23.4 190.2 23.3 188.4 23.6 188.3 C 23.9 187.8 24.8 186.6 26.1 186.3 C 27.0 185.3 28.1 187.5 28.1 187.5 C 29.2 186.2 29.0 186.8 30.2 186.2 C 30.8 185.5 29.7 184.6 30.4 183.9 C 30.5 183.5 32.6 185.3 34.3 183.8 C 35.2 183.0 35.5 182.5 36.8 182.4 C 37.0 182.3 38.7 181.0 37.6 181.0 C 38.0 180.8 38.6 180.4 38.6 179.9 C 38.1 178.0 36.6 180.3 36.2 180.1 C 36.0 180.0 36.9 178.7 36.3 178.4 C 35.6 177.9 40.2 174.4 38.1 175.1 C 35.7 175.8 34.4 173.4 34.5 172.8 C 34.8 172.6 35.8 173.5 35.8 172.5 C 35.8 171.4 33.8 172.0 33.4 171.6 C 31.2 169.1 32.6 170.7 30.4 171.1 C 29.3 171.3 29.8 169.8 29.8 169.1 C 29.6 169.1 28.4 170.2 28.2 170.2 C 27.5 170.6 27.9 170.8 26.8 170.6 C 26.1 170.6 25.5 171.9 25.4 172.0 C 25.3 172.4 26.1 171.7 26.4 171.9 C 28.2 173.2 25.0 172.7 24.0 173.7 C 23.1 174.6 22.8 175.1 22.5 175.2 C 22.4 175.3 23.4 176.3 23.1 176.5 C 22.9 177.0 22.1 176.8 21.5 176.7 C 20.9 176.7 20.7 178.3 20.2 178.6 C 19.7 179.0 19.3 178.4 17.9 179.0 C 16.5 179.6 18.0 181.2 18.6 181.5 C 20.4 182.5 16.4 180.8 15.7 181.6 C 15.0 182.4 15.6 182.9 15.1 183.4 C 14.7 183.5 14.4 183.5 14.0 183.5 C 14.0 184.1 13.5 184.2 12.7 184.9 C 12.6 185.1 12.5 185.1 12.5 185.2 C 12.5 185.4 14.3 185.0 14.4 185.3 C 14.5 186.2 13.1 186.0 12.6 185.9 C 12.6 186.8 12.2 187.6 11.3 187.9 C 9.5 188.6 10.7 190.0 12.6 190.3 C 13.5 190.4 15.1 190.2 15.0 191.5 C 14.9 192.8 12.9 193.4 14.6 193.7 C 14.7 193.6 15.0 194.4 15.9 192.8 C 16.8 191.2 18.1 191.2 18.1 191.2 C 18.9 190.6 18.5 190.0 19.3 190.0 C 20.1 190.0 19.1 191.0 18.3 191.6 C 18.4 191.9 19.1 192.0 18.5 192.6 C 17.9 193.3 17.3 192.7 17.4 193.3 C 17.4 194.0 17.6 193.5 17.8 193.6 C 17.4 194.1 16.8 194.6 16.3 195.0 C 15.2 195.7 17.9 195.5 18.4 195.2 C 19.3 194.6 19.3 193.0 20.8 194.2 C 20.8 194.2 20.8 194.2 20.8 194.2 Z M 16.4 190.7 C 16.4 190.7 16.4 190.7 16.4 190.7 C 16.5 190.4 17.7 189.7 17.5 190.4 C 17.4 191.0 16.3 191.1 16.4 190.7 C 16.4 190.7 16.4 190.7 16.4 190.7 Z M 17.6 178.2 C 17.6 178.2 17.6 178.2 17.6 178.2 C 17.7 177.8 18.9 177.1 18.7 177.8 C 18.6 178.4 17.5 178.6 17.6 178.2 C 17.6 178.2 17.6 178.2 17.6 178.2 Z M 27.4 189.4 C 27.4 189.4 27.4 189.4 27.4 189.4 C 27.2 188.6 28.9 188.7 28.8 189.3 C 28.4 189.5 27.7 189.5 27.4 189.4 C 27.4 189.4 27.4 189.4 27.4 189.4 Z M 16.5 183.4 C 16.5 183.4 16.5 183.4 16.5 183.4 C 16.6 183.3 16.8 183.1 16.9 183.0 C 17.0 183.5 16.5 184.3 16.3 184.5 C 15.8 184.1 16.2 183.6 16.5 183.4 C 16.5 183.4 16.5 183.4 16.5 183.4 Z M 30.7 186.5 C 30.7 186.5 30.7 186.5 30.7 186.5 C 30.7 185.7 31.3 185.5 31.8 185.1 C 33.4 186.7 30.6 187.2 30.7 186.5 C 30.7 186.5 30.7 186.5 30.7 186.5 Z M 33.9 178.5 C 33.9 178.5 33.9 178.5 33.9 178.5 C 32.8 178.6 33.7 176.2 34.5 176.4 C 35.2 176.6 34.8 177.4 34.3 177.8 C 34.4 178.0 35.1 178.4 33.9 178.5 C 33.9 178.5 33.9 178.5 33.9 178.5 Z M 24.2 175.9 C 24.2 175.9 24.2 175.9 24.2 175.9 C 24.1 176.0 24.2 176.4 24.0 176.3 C 23.7 176.3 23.8 175.8 24.2 175.9 C 24.2 175.9 24.2 175.9 24.2 175.9 Z M 11.4 186.8 C 11.4 186.8 11.4 186.8 11.4 186.8 C 11.3 187.0 11.4 187.3 11.2 187.3 C 10.9 187.2 11.0 186.8 11.4 186.8 C 11.4 186.8 11.4 186.8 11.4 186.8 Z M 28.0 172.9 C 28.0 172.9 28.0 172.9 28.0 172.9 C 28.6 173.2 27.8 173.4 27.7 173.7 C 27.3 173.4 27.4 172.6 28.0 172.9 C 28.0 172.9 28.0 172.9 28.0 172.9 Z M 26.9 187.8 C 26.9 187.8 26.9 187.8 26.9 187.8 C 27.0 189.0 25.5 190.5 24.3 189.1 C 24.7 188.7 24.9 188.1 25.5 187.8 C 25.8 187.5 26.5 187.8 26.9 187.8 C 26.9 187.8 26.9 187.8 26.9 187.8 Z M 22.4 192.3 C 22.4 192.3 22.4 192.3 22.4 192.3 C 22.4 192.8 21.7 193.4 21.5 192.4 C 21.5 192.0 21.6 191.6 21.8 191.3 C 22.0 191.0 22.2 190.1 22.6 190.2 C 23.0 190.3 23.3 191.8 22.4 192.3 C 22.4 192.3 22.4 192.3 22.4 192.3 Z M 29.4 185.0 C 29.4 185.0 29.4 185.0 29.4 185.0 C 29.7 185.6 28.5 186.6 28.3 186.4 C 28.1 186.2 29.2 184.5 29.4 185.0 C 29.4 185.0 29.4 185.0 29.4 185.0 Z M 26.0 190.4 C 26.0 190.4 26.0 190.4 26.0 190.4 C 25.8 190.6 25.6 190.6 25.6 190.4 C 25.7 190.3 25.9 190.1 26.0 190.1 C 26.1 190.1 26.2 190.3 26.0 190.4 C 26.0 190.4 26.0 190.4 26.0 190.4 Z M 35.1 184.2 C 35.1 184.2 35.1 184.2 35.1 184.2 C 34.9 184.3 34.7 184.4 34.7 184.2 C 34.8 184.0 35.0 183.9 35.1 183.9 C 35.2 183.9 35.3 184.1 35.1 184.2 C 35.1 184.2 35.1 184.2 35.1 184.2 Z M 21.3 195.5 C 21.3 195.5 21.3 195.5 21.3 195.5 C 21.1 195.6 20.9 195.7 20.9 195.5 C 21.0 195.3 21.2 195.2 21.3 195.2 C 21.4 195.2 21.5 195.4 21.3 195.5 C 21.3 195.5 21.3 195.5 21.3 195.5 Z M 33.0 183.4 C 33.0 183.4 33.0 183.4 33.0 183.4 C 32.5 183.4 32.1 182.9 32.7 182.3 C 28.0 184.1 32.6 179.2 34.0 179.9 C 36.1 180.8 33.8 183.7 33.0 183.4 C 33.0 183.4 33.0 183.4 33.0 183.4 Z M 183.7 43.1 C 185.4 43.1 186.6 40.7 188.0 40.1 C 189.5 39.5 191.3 39.9 190.4 38.0 C 189.8 36.7 192.5 34.2 191.4 33.5 C 190.6 32.9 189.7 32.8 189.0 31.9 C 187.8 30.5 188.6 29.1 186.4 29.4 C 184.5 29.6 186.2 31.2 183.7 30.3 C 181.9 29.6 180.4 30.8 180.9 32.6 C 181.5 34.3 181.2 35.9 178.9 34.9 C 177.8 34.4 177.5 34.1 176.5 34.5 C 176.1 34.7 174.9 37.2 174.9 37.2 C 175.3 37.4 177.4 37.2 176.4 38.3 C 175.8 38.9 174.1 39.0 173.7 38.0 C 173.0 36.3 169.8 41.1 170.5 41.1 C 170.3 41.1 168.1 40.5 168.7 41.9 C 168.7 41.9 167.1 43.7 166.8 44.0 C 163.6 47.6 171.4 44.4 167.6 48.0 C 165.0 50.3 165.0 46.9 164.5 46.7 C 163.5 46.2 161.5 48.1 160.7 48.8 C 160.0 49.3 160.2 50.7 160.2 51.5 C 160.1 52.6 158.5 53.6 157.5 53.5 C 157.0 53.5 155.9 53.1 155.5 53.3 C 155.5 53.3 154.2 54.4 154.6 54.4 C 154.8 54.4 156.4 54.0 156.2 54.7 C 156.1 55.3 153.9 55.1 153.4 55.3 C 152.4 55.9 154.4 58.0 152.0 58.3 C 150.4 58.5 151.1 58.0 151.3 59.7 C 151.4 60.5 148.7 60.7 148.3 60.4 C 150.7 62.1 147.4 61.6 147.6 62.0 C 147.4 61.7 148.1 60.9 147.8 60.7 C 147.7 60.6 141.3 65.8 141.7 66.7 C 142.1 67.6 143.6 67.4 141.8 68.7 C 141.2 69.1 139.9 69.4 139.8 69.1 C 140.4 68.0 140.3 68.5 140.8 67.1 C 140.8 67.0 138.7 68.6 138.4 68.9 C 137.3 69.8 137.3 70.6 136.9 72.0 C 136.5 72.9 135.1 72.4 134.3 73.1 C 133.4 73.8 132.6 74.5 131.8 75.5 C 131.2 76.4 130.9 76.6 131.5 77.3 C 132.1 78.1 130.6 79.6 130.5 80.4 C 130.4 81.1 130.3 81.2 129.4 81.3 C 127.7 81.6 128.4 80.8 127.9 80.6 C 126.3 79.6 123.7 82.2 123.1 83.2 C 122.3 84.4 124.5 83.6 124.4 83.9 C 124.2 84.6 123.2 84.9 122.7 85.4 C 121.9 86.1 122.2 84.9 121.8 84.9 C 119.4 84.9 121.2 87.8 120.2 88.4 C 118.7 89.3 116.7 87.9 116.1 90.0 C 115.3 92.3 112.6 91.7 111.7 93.8 C 111.0 95.5 107.3 95.3 108.2 97.7 C 108.6 98.8 108.2 100.9 108.9 101.8 C 109.2 102.1 112.3 103.8 112.2 103.1 C 112.3 103.6 111.3 104.3 111.6 104.8 C 111.8 105.1 113.5 104.3 113.9 104.4 C 114.1 104.5 113.1 106.5 113.2 106.9 C 113.4 107.3 116.8 105.4 117.9 106.6 C 118.3 107.0 119.8 106.4 119.3 105.8 C 119.0 105.5 117.1 104.5 116.8 104.8 C 117.0 104.7 118.8 103.7 118.8 103.7 C 118.4 103.7 118.1 103.5 117.8 103.2 C 117.7 103.0 120.9 100.1 121.2 100.2 C 121.9 100.4 122.7 102.1 123.4 102.0 C 123.8 101.9 123.8 100.5 124.2 100.1 C 124.9 99.5 124.9 100.9 125.7 100.5 C 125.9 100.4 129.0 96.6 128.9 96.3 C 128.8 96.2 126.7 95.8 126.3 95.4 C 125.4 94.6 126.8 94.1 127.3 93.7 C 128.0 93.2 131.1 91.6 132.2 92.7 C 132.5 93.1 130.8 94.8 130.7 95.2 C 130.8 94.7 134.9 94.5 134.3 92.6 C 134.3 92.3 133.3 93.0 133.1 93.0 C 132.9 92.9 132.4 91.1 132.9 90.7 C 133.3 90.6 134.8 90.9 134.8 90.3 C 134.8 90.6 134.7 88.3 135.3 88.7 C 135.0 88.5 133.3 88.4 133.2 87.9 C 133.2 87.9 135.2 86.4 135.4 86.3 C 137.0 85.5 136.2 85.4 136.4 84.3 C 136.6 83.2 137.8 81.3 138.8 82.9 C 139.9 84.8 141.8 83.9 140.7 82.7 C 139.6 81.4 140.1 81.5 141.5 80.8 C 142.9 80.0 143.6 78.4 145.4 78.5 C 147.7 78.7 146.0 80.6 146.8 80.7 C 147.7 80.9 148.6 79.9 149.1 79.3 C 149.8 78.3 148.3 78.1 148.5 77.7 C 148.9 76.9 150.8 77.5 151.2 76.7 C 151.3 76.6 151.6 74.9 151.4 75.1 C 154.3 72.8 150.8 74.7 149.4 73.9 C 149.0 73.6 151.3 72.9 149.7 71.8 C 147.9 70.8 150.4 68.7 151.1 69.2 C 151.1 69.5 151.1 69.8 151.0 70.1 C 152.0 70.6 154.2 68.2 154.9 68.7 C 155.2 69.0 152.7 73.0 154.0 73.2 C 154.7 73.4 154.7 72.0 154.7 71.6 C 154.7 70.9 155.6 71.8 155.9 71.8 C 155.7 71.8 157.1 70.4 156.8 69.7 C 156.7 69.5 155.2 70.1 155.5 69.6 C 156.5 67.6 156.7 69.5 158.0 69.6 C 158.9 69.6 161.8 67.8 161.7 67.8 C 161.5 67.7 160.5 68.3 160.4 67.9 C 160.2 67.2 161.3 66.8 161.2 66.2 C 161.1 66.0 160.2 66.5 160.2 66.3 C 160.1 65.6 162.0 64.2 161.6 63.7 C 161.3 63.3 159.8 65.2 159.4 64.7 C 159.0 64.3 159.4 62.9 160.1 63.4 C 161.0 64.1 161.8 61.6 162.7 61.5 C 163.7 61.5 162.7 63.6 164.2 62.6 C 166.0 61.4 164.2 61.7 164.2 61.0 C 163.9 59.0 169.3 61.2 168.9 59.7 C 168.8 59.2 165.9 59.1 167.6 58.1 C 168.4 57.7 170.0 53.6 171.2 54.8 C 171.5 55.1 169.8 56.8 170.1 57.0 C 171.0 57.2 172.0 56.1 172.6 55.7 C 173.5 55.2 173.6 56.2 174.5 56.1 C 175.6 56.0 174.8 54.3 175.4 53.9 C 176.0 53.4 173.7 51.9 173.4 51.7 C 174.3 52.3 174.9 49.8 176.1 50.2 C 178.6 51.0 178.2 50.2 180.0 49.5 C 179.7 49.8 179.4 49.8 179.1 49.7 C 179.1 49.4 179.9 48.5 180.0 48.5 C 179.6 48.7 179.1 48.7 178.6 48.6 C 178.5 48.6 180.7 42.7 182.8 44.1 C 183.0 44.3 186.0 47.0 185.9 45.4 C 185.9 44.9 183.6 43.1 183.7 43.1 M 169.6 58.2 C 169.3 58.5 169.1 58.5 168.7 58.4 C 168.8 57.9 169.1 57.6 169.6 57.4 C 169.9 57.7 169.9 57.9 169.6 58.2 M 170.6 59.0 C 170.3 59.3 170.1 59.3 169.8 59.1 C 170.9 57.0 172.9 59.0 170.8 59.6 C 170.7 59.6 170.9 58.9 170.6 59.0 M 157.3 71.4 C 157.0 71.3 157.9 69.7 158.2 70.4 C 158.3 70.8 157.6 71.5 157.3 71.4 M 152.6 71.5 C 151.8 71.4 152.7 70.4 153.1 70.5 C 153.7 70.7 152.8 71.5 152.6 71.5 M 123.5 99.4 C 122.3 98.5 123.4 94.4 125.1 95.8 C 127.0 97.5 125.2 100.7 123.5 99.4 M 144.2 82.5 C 143.9 82.0 145.5 81.3 145.8 81.8 C 146.4 82.8 144.5 83.2 144.2 82.5 M 144.1 80.2 C 143.8 79.6 144.8 79.2 145.1 79.5 C 145.4 79.8 144.4 80.8 144.1 80.2 M 129.2 94.2 C 129.4 94.7 128.0 95.1 128.1 94.7 C 128.2 94.3 129.0 93.8 129.2 94.2 C 129.2 94.2 129.2 94.2 129.2 94.2 Z M 120.2 102.1 C 120.5 102.1 120.7 102.5 120.3 102.5 C 120.1 102.6 119.9 102.2 120.2 102.1 C 120.2 102.1 120.2 102.1 120.2 102.1 Z M 137.2 85.9 C 138.2 85.1 138.3 87.1 136.8 87.4 C 135.6 87.7 136.0 86.8 137.2 85.9 C 137.2 85.9 137.2 85.9 137.2 85.9 Z M 117.0 90.1 C 116.7 90.2 116.8 89.5 117.2 89.4 C 118.0 89.2 117.3 90.1 117.0 90.1 C 117.0 90.1 117.0 90.1 117.0 90.1 Z M 169.9 53.4 C 169.3 53.5 169.7 52.8 170.1 52.8 C 170.5 52.9 170.6 53.3 169.9 53.4 C 169.9 53.4 169.9 53.4 169.9 53.4 Z M 181.8 46.2 C 181.1 46.3 182.1 45.5 182.4 45.5 C 182.8 45.6 182.5 46.1 181.8 46.2 C 181.8 46.2 181.8 46.2 181.8 46.2 Z M 184.3 32.7 C 183.6 32.8 184.1 32.1 184.4 32.1 C 184.9 32.2 185.0 32.6 184.3 32.7 C 184.3 32.7 184.3 32.7 184.3 32.7 Z M 170.7 47.5 C 170.0 47.6 170.5 46.9 170.8 46.9 C 171.2 46.9 171.3 47.4 170.7 47.5 C 170.7 47.5 170.7 47.5 170.7 47.5 Z M 172.9 52.8 C 173.7 52.9 174.7 54.7 172.7 54.3 C 170.7 54.0 172.1 52.6 172.9 52.8 C 172.9 52.8 172.9 52.8 172.9 52.8 Z M 133.8 75.3 C 133.8 75.3 133.8 76.4 133.5 76.4 C 132.0 76.4 133.8 75.3 133.8 75.3 C 133.8 75.3 133.8 75.3 133.8 75.3 Z M 151.2 70.7 C 151.2 70.7 150.9 71.4 150.8 71.4 C 149.6 71.7 151.2 70.7 151.2 70.7 C 151.2 70.7 151.2 70.7 151.2 70.7 Z M 160.3 69.7 C 160.3 69.7 160.1 70.4 159.9 70.4 C 158.8 70.6 160.3 69.7 160.3 69.7 C 160.3 69.7 160.3 69.7 160.3 69.7 Z M 182.4 47.2 C 183.6 46.4 183.2 47.8 182.2 48.3 C 181.3 48.8 181.1 48.0 182.4 47.2 C 182.4 47.2 182.4 47.2 182.4 47.2 Z M 176.7 48.2 C 178.5 48.2 177.8 49.5 176.4 49.4 C 175.2 49.3 175.0 48.3 176.7 48.2 C 176.7 48.2 176.7 48.2 176.7 48.2 Z M 180.3 43.6 C 180.1 43.8 179.9 43.8 179.8 43.5 C 179.7 43.0 180.8 42.3 181.2 42.4 C 182.1 42.6 180.3 43.6 180.3 43.6 M 173.9 41.5 C 173.4 44.5 172.0 39.7 172.5 39.8 C 173.2 39.9 174.1 40.9 173.9 41.5 C 173.9 41.5 173.9 41.5 173.9 41.5 Z M 157.5 54.5 C 157.4 55.2 156.5 55.4 156.6 54.7 C 156.7 54.3 157.5 53.9 157.5 54.5 C 157.5 54.5 157.5 54.5 157.5 54.5 Z M 166.5 61.2 C 166.5 61.5 165.4 62.3 165.5 61.7 C 165.6 61.3 166.5 60.5 166.5 61.2 C 166.5 61.2 166.5 61.2 166.5 61.2 Z M 190.3 40.5 C 190.3 40.9 189.2 41.7 189.4 41.1 C 189.4 40.6 190.4 39.8 190.3 40.5 C 190.3 40.5 190.3 40.5 190.3 40.5 Z M 151.0 65.5 C 150.7 66.7 149.4 66.5 149.8 65.7 C 150.2 64.9 151.2 64.2 151.0 65.5 C 151.0 65.5 151.0 65.5 151.0 65.5 Z M 137.8 83.4 C 137.7 84.0 136.9 83.9 137.2 83.5 C 137.5 83.1 137.8 83.1 137.8 83.4 C 137.8 83.4 137.8 83.4 137.8 83.4 Z M 135.8 87.3 C 135.7 87.6 135.2 87.7 135.4 87.4 C 135.7 87.0 135.9 87.0 135.8 87.3 C 135.8 87.3 135.8 87.3 135.8 87.3 Z M 120.7 95.8 C 120.5 96.6 119.2 96.8 119.8 96.0 C 120.5 95.2 120.9 95.2 120.7 95.8 C 120.7 95.8 120.7 95.8 120.7 95.8 Z M 134.3 91.1 C 134.2 91.4 133.6 91.5 133.9 91.2 C 134.2 90.8 134.4 90.8 134.3 91.1 C 134.3 91.1 134.3 91.1 134.3 91.1 Z M 125.0 98.2 C 124.9 99.1 123.8 98.9 124.2 98.4 C 124.6 97.9 125.1 97.8 125.0 98.2 C 125.0 98.2 125.0 98.2 125.0 98.2 Z M 128.4 99.5 C 128.3 100.4 127.2 100.2 127.6 99.8 C 128.0 99.2 128.5 99.2 128.4 99.5 C 128.4 99.5 128.4 99.5 128.4 99.5 Z M 136.6 69.9 C 136.5 70.7 135.4 70.5 135.8 70.1 C 136.1 69.6 136.6 69.5 136.6 69.9 C 136.6 69.9 136.6 69.9 136.6 69.9 Z M 178.5 52.5 C 177.6 53.3 177.0 53.2 177.1 52.3 C 177.3 51.5 179.3 51.6 178.5 52.5 C 178.5 52.5 178.5 52.5 178.5 52.5 Z M 124.7 96.6 C 124.7 97.0 124.2 96.9 124.3 96.6 C 124.4 96.3 124.7 96.1 124.7 96.6 C 124.7 96.6 124.7 96.6 124.7 96.6 Z M 143.9 75.1 C 143.5 75.0 143.3 74.8 143.3 74.4 C 143.8 74.0 145.3 74.3 145.6 75.0 C 146.0 75.8 143.5 76.6 143.4 75.7 C 143.4 75.4 144.3 75.3 143.9 75.1 M 137.4 73.7 C 136.8 73.8 137.0 73.2 137.6 73.2 C 138.3 73.2 138.0 73.6 137.4 73.7 C 137.4 73.7 137.4 73.7 137.4 73.7 Z M 145.7 63.5 C 145.1 63.6 145.2 62.9 145.8 63.0 C 146.5 63.0 146.2 63.4 145.7 63.5 C 145.7 63.5 145.7 63.5 145.7 63.5 Z M 136.3 90.2 C 135.7 90.5 136.5 90.4 136.5 90.7 C 136.2 91.0 135.8 91.1 135.4 91.0 C 134.6 90.6 136.4 89.7 136.6 89.8 C 136.5 89.9 136.4 90.0 136.3 90.2 M 116.9 91.8 C 116.3 92.1 117.1 92.0 117.1 92.3 C 116.8 92.6 116.5 92.7 116.0 92.6 C 115.2 92.2 117.0 91.3 117.2 91.4 C 117.1 91.5 117.0 91.6 116.9 91.8 M 192.6 36.8 C 192.3 36.7 193.2 35.2 193.5 35.9 C 193.6 36.2 192.9 37.0 192.6 36.8 M 146.7 60.3 C 146.4 60.2 147.3 58.7 147.5 59.4 C 147.7 59.7 147.0 60.5 146.7 60.3 M 144.9 67.4 C 144.4 67.8 145.2 67.7 145.2 68.0 C 144.9 68.2 144.5 68.4 144.1 68.3 C 143.2 67.9 145.0 67.0 145.2 67.0 C 145.1 67.2 145.0 67.3 144.9 67.4 M 123.5 85.8 C 123.8 86.0 123.1 86.7 123.1 86.2 C 123.0 85.8 123.3 85.7 123.5 85.8 C 123.5 85.8 123.5 85.8 123.5 85.8 Z M 162.2 64.6 C 162.4 64.8 161.4 65.4 161.7 64.9 C 161.9 64.6 161.9 64.4 162.2 64.6 C 162.2 64.6 162.2 64.6 162.2 64.6 Z M 147.9 72.5 C 148.0 71.8 148.6 72.4 148.7 72.8 C 148.9 73.9 146.9 73.0 147.0 72.8 C 147.2 72.6 147.9 72.7 147.9 72.5 M 162.7 58.4 C 162.9 57.1 165.1 59.9 162.5 59.5 C 160.0 59.1 162.6 58.6 162.7 58.4 M 111.4 95.7 C 111.3 96.3 113.2 95.1 113.3 95.5 C 113.4 96.5 111.0 96.5 110.5 96.0 C 110.4 95.9 111.5 94.8 111.4 95.7 M 130.4 90.8 C 130.4 91.3 132.3 90.2 132.3 90.6 C 132.5 91.5 130.1 91.6 129.5 91.0 C 129.4 90.9 130.5 89.9 130.4 90.8 M 158.8 65.6 C 159.2 65.3 159.1 67.0 158.2 66.8 C 156.6 66.4 158.5 65.8 158.8 65.6 M 186.7 42.6 C 186.9 42.3 187.1 42.2 187.5 42.4 C 188.0 42.5 186.8 43.8 186.8 43.5 C 186.8 43.2 186.7 42.9 186.7 42.6 M 129.8 80.0 C 130.0 80.6 128.9 80.4 129.1 80.0 C 129.4 79.5 129.6 79.3 129.8 80.0 C 129.8 80.0 129.8 80.0 129.8 80.0 Z M 169.2 39.6 C 169.4 40.3 168.3 40.1 168.5 39.7 C 168.8 39.2 169.0 39.0 169.2 39.6 C 169.2 39.6 169.2 39.6 169.2 39.6 Z M 116.2 107.7 C 116.3 108.2 115.3 108.2 115.6 107.8 C 115.8 107.3 116.0 107.1 116.2 107.7 C 116.2 107.7 116.2 107.7 116.2 107.7 Z M 130.9 88.1 C 130.8 88.4 129.7 88.9 130.1 87.9 C 130.3 87.3 130.9 87.8 130.9 88.1 C 130.9 88.1 130.9 88.1 130.9 88.1 Z M 121.5 103.5 C 121.4 103.8 119.9 104.6 120.6 103.3 C 120.9 102.6 121.6 103.2 121.5 103.5 C 121.5 103.5 121.5 103.5 121.5 103.5 Z M 137.0 78.6 C 137.0 79.0 136.5 79.0 136.7 78.6 C 136.8 78.2 137.1 78.2 137.0 78.6 C 137.0 78.6 137.0 78.6 137.0 78.6 Z M 145.0 84.0 C 145.0 84.4 144.5 84.4 144.6 84.0 C 144.8 83.6 145.0 83.7 145.0 84.0 C 145.0 84.0 145.0 84.0 145.0 84.0 Z M 151.1 73.0 C 151.1 73.4 150.6 73.4 150.8 72.9 C 151.0 72.6 151.2 72.6 151.1 73.0 C 151.1 73.0 151.1 73.0 151.1 73.0 Z M 140.4 87.2 C 139.6 88.7 138.3 89.1 139.1 86.9 C 139.6 85.5 140.7 86.8 140.4 87.2 C 140.4 87.2 140.4 87.2 140.4 87.2 Z M 143.3 71.9 C 143.2 72.4 142.8 72.2 143.0 71.8 C 143.1 71.6 143.4 71.5 143.3 71.9 C 143.3 71.9 143.3 71.9 143.3 71.9 Z M 148.5 76.1 C 149.8 75.9 146.7 79.6 145.9 77.7 C 145.0 75.2 147.9 76.2 148.5 76.1 M 164.7 64.3 C 165.3 64.3 164.3 65.4 163.9 64.8 C 163.0 63.8 164.6 64.3 164.7 64.3 M 162.3 49.9 C 162.3 49.9 161.6 49.6 162.0 49.5 C 162.7 49.2 162.3 49.9 162.3 49.9 C 162.3 49.9 162.3 49.9 162.3 49.9 Z M 161.4 52.0 C 161.5 52.5 160.2 52.9 160.7 52.2 C 160.9 51.9 161.3 51.5 161.4 52.0 C 161.4 52.0 161.4 52.0 161.4 52.0 Z M 168.7 61.4 C 168.7 61.7 168.2 61.8 168.3 61.5 C 168.5 61.4 168.6 61.2 168.7 61.4 C 168.7 61.4 168.7 61.4 168.7 61.4 Z M 158.8 49.6 C 158.8 50.0 157.7 50.5 158.1 49.9 C 158.4 49.6 158.8 49.2 158.8 49.6 C 158.8 49.6 158.8 49.6 158.8 49.6 Z M 146.8 82.0 C 146.9 82.2 146.3 82.4 146.5 82.1 C 146.6 82.0 146.8 81.8 146.8 82.0 C 146.8 82.0 146.8 82.0 146.8 82.0 Z M 119.8 106.8 C 119.9 107.1 119.3 107.2 119.5 106.9 C 119.6 106.8 119.8 106.6 119.8 106.8 C 119.8 106.8 119.8 106.8 119.8 106.8 Z M 179.3 36.1 C 179.5 36.6 178.2 36.9 178.6 36.2 C 178.8 35.9 179.2 35.5 179.3 36.1 C 179.3 36.1 179.3 36.1 179.3 36.1 Z M 141.5 81.9 C 141.6 82.5 140.5 82.5 141.0 81.8 C 141.2 81.4 141.4 81.2 141.5 81.9 C 141.5 81.9 141.5 81.9 141.5 81.9 Z M 166.5 46.8 C 166.6 47.4 165.5 47.5 166.0 46.7 C 166.2 46.3 166.4 46.2 166.5 46.8 C 166.5 46.8 166.5 46.8 166.5 46.8 Z M 143.8 80.8 C 143.9 81.2 143.3 81.3 143.5 80.9 C 143.7 80.7 143.7 80.5 143.8 80.8 C 143.8 80.8 143.8 80.8 143.8 80.8 Z M 130.1 78.6 C 130.1 79.0 129.5 79.1 129.8 78.7 C 129.9 78.5 130.0 78.3 130.1 78.6 C 130.1 78.6 130.1 78.6 130.1 78.6 Z M 122.9 82.4 C 122.9 82.7 122.3 82.9 122.6 82.5 C 122.7 82.2 122.8 82.0 122.9 82.4 C 122.9 82.4 122.9 82.4 122.9 82.4 Z M 134.9 83.1 C 135.0 83.4 134.2 83.6 134.4 83.2 C 134.6 83.0 134.8 82.7 134.9 83.1 C 134.9 83.1 134.9 83.1 134.9 83.1 Z M 171.1 48.0 C 171.6 47.5 173.1 47.4 173.9 48.0 C 173.3 47.6 171.9 49.7 171.6 49.9 C 171.3 50.0 170.6 48.6 171.1 48.0 M 132.6 84.1 C 135.7 80.6 136.1 84.7 133.0 86.0 C 132.8 86.1 132.1 84.7 132.6 84.1 C 132.8 86.1 132.1 84.7 132.6 84.1 C 132.8 86.1 132.1 84.7 132.6 84.1 C 132.8 86.1 132.1 84.7 132.6 84.1 M 114.6 111.2 C 116.3 109.1 114.9 110.3 114.7 108.2 C 114.7 107.8 115.4 105.5 115.0 105.3 C 114.2 105.0 113.7 106.6 113.0 106.4 C 111.5 106.1 113.2 104.2 113.0 103.6 C 112.6 102.1 110.6 102.0 109.4 102.0 C 107.6 102.1 109.2 103.3 108.8 104.1 C 108.5 104.7 107.5 103.2 107.4 102.9 C 106.5 101.5 108.4 101.2 106.5 99.9 C 105.3 99.0 104.8 98.6 104.1 100.1 C 103.5 101.2 104.7 102.2 105.1 103.3 C 105.3 103.9 102.3 106.2 102.1 104.6 C 102.0 103.6 101.7 102.7 100.7 103.7 C 100.5 104.1 100.4 104.6 100.4 105.2 C 100.3 106.0 99.2 105.7 98.9 106.5 C 98.3 108.4 94.5 107.8 93.5 110.0 C 93.4 110.4 93.9 113.9 91.4 112.6 C 90.9 112.9 91.9 114.1 91.6 114.3 C 90.6 115.2 90.1 114.1 89.7 114.2 C 88.9 114.7 87.9 118.6 86.9 117.6 C 85.3 116.0 83.5 119.1 83.7 119.6 C 83.8 119.8 81.2 121.4 80.2 122.7 C 80.5 122.7 80.7 122.7 80.9 122.6 C 80.7 122.8 80.6 123.2 80.4 123.4 C 80.9 123.0 83.0 122.2 83.6 122.2 C 83.9 122.2 81.6 126.0 80.7 124.7 C 80.3 124.0 80.0 123.5 79.4 124.4 C 78.6 125.8 79.0 124.1 78.0 124.6 C 76.4 125.3 77.8 127.1 75.9 127.1 C 74.6 127.1 75.1 127.7 74.5 128.5 C 73.6 130.0 72.3 128.9 71.3 130.1 C 71.2 130.2 68.9 132.5 70.0 132.5 C 70.8 132.5 72.1 131.6 73.0 131.9 C 74.7 132.5 70.2 134.0 70.6 133.8 C 69.8 134.3 69.5 137.2 68.7 137.2 C 68.1 137.3 68.8 134.4 68.9 134.1 C 69.0 132.7 66.0 135.7 66.1 135.7 C 65.6 136.0 65.5 137.2 65.0 137.3 C 64.1 137.4 63.9 137.2 63.3 137.9 C 62.9 138.4 62.5 138.7 62.1 139.1 C 61.4 139.7 62.3 141.0 62.1 141.8 C 61.8 143.1 60.8 141.9 60.1 142.2 C 58.7 142.7 57.5 146.1 56.3 145.5 C 54.8 144.8 55.8 148.8 53.7 148.6 C 53.0 148.5 51.7 149.2 51.7 149.7 C 51.5 148.6 49.5 150.6 49.1 150.9 C 48.4 151.2 48.6 152.1 48.3 152.8 C 48.0 153.6 46.8 153.3 46.1 153.5 C 44.5 153.9 47.0 155.3 45.5 155.4 C 42.9 155.6 46.5 157.8 46.2 158.4 C 46.1 158.6 43.4 157.5 43.0 157.4 C 42.3 157.4 43.4 158.4 42.7 158.4 C 41.9 158.2 40.6 158.1 40.6 159.4 C 40.7 159.9 42.3 160.7 41.7 161.0 C 41.6 161.1 40.3 161.2 40.5 161.5 C 42.3 163.9 37.1 160.8 39.2 160.5 C 38.2 160.6 34.4 163.6 35.3 164.6 C 35.7 165.0 37.4 163.7 37.6 164.4 C 37.9 165.9 33.8 166.9 34.3 165.6 C 34.0 166.5 31.2 166.3 30.9 167.8 C 30.8 168.1 29.8 168.5 30.0 168.7 C 30.2 169.1 31.1 169.8 31.1 170.3 C 31.1 171.3 30.3 173.1 31.4 173.8 C 31.8 173.9 36.5 176.2 36.4 175.8 C 36.5 176.4 35.5 177.1 35.9 177.6 C 36.6 178.6 38.4 175.1 39.2 176.6 C 39.2 176.5 40.3 175.9 40.6 176.2 C 41.6 177.0 40.9 177.0 42.1 176.3 C 43.0 175.6 42.1 175.9 41.9 175.1 C 41.9 174.5 44.1 175.6 44.5 173.7 C 43.3 174.4 43.3 173.5 42.1 173.3 C 40.5 173.1 42.1 171.6 42.4 171.1 C 43.9 169.2 45.1 169.1 47.3 168.7 C 48.5 168.4 48.8 173.0 48.9 169.9 C 48.9 168.5 52.6 166.3 53.2 165.0 C 53.2 165.1 51.9 165.2 51.7 165.1 C 49.9 163.4 55.0 161.7 55.8 161.7 C 57.2 161.6 56.5 161.0 55.5 160.7 C 54.1 160.3 55.0 159.4 55.6 158.8 C 55.9 158.6 57.2 157.9 57.2 157.4 C 57.2 156.7 60.7 158.1 61.2 158.0 C 62.4 157.8 61.6 156.5 63.0 156.1 C 63.2 156.0 66.4 155.4 66.0 154.9 C 64.9 153.8 60.8 156.6 63.4 153.3 C 63.6 153.1 67.0 149.6 67.1 150.6 C 67.2 151.1 66.6 151.3 66.4 151.7 C 67.1 150.1 70.1 152.4 71.1 150.2 C 71.6 149.1 76.1 146.2 73.5 146.0 C 71.1 145.8 72.2 143.7 73.9 143.5 C 75.5 143.3 76.0 143.3 76.3 141.7 C 76.4 141.5 78.3 138.9 78.7 139.9 C 79.0 140.4 77.9 141.0 78.5 141.8 C 78.9 142.3 79.7 142.2 79.9 141.7 C 80.1 141.1 79.6 140.4 79.6 139.8 C 79.6 139.6 81.0 139.2 81.1 139.1 C 81.9 138.6 82.6 137.6 83.5 137.5 C 84.1 137.3 83.8 138.5 84.3 138.4 C 87.0 138.1 82.3 136.4 82.5 136.6 C 82.4 136.5 83.5 133.8 83.7 133.5 C 84.9 132.0 86.1 132.2 87.6 133.3 C 87.9 133.4 86.1 135.6 86.1 135.6 C 88.9 136.3 89.2 133.4 90.7 132.5 C 91.1 132.2 94.5 130.8 92.6 129.7 C 91.5 129.1 92.7 128.7 93.1 128.3 C 93.0 128.4 90.3 128.3 89.8 128.3 C 90.7 127.3 91.5 126.2 92.6 125.2 C 93.1 124.7 93.8 123.9 94.6 123.7 C 95.0 123.6 96.3 124.6 96.5 123.5 C 96.4 124.1 96.0 124.8 95.6 125.4 C 96.3 125.0 99.1 125.9 99.0 124.4 C 99.0 123.9 98.1 123.8 98.6 123.2 C 99.0 122.6 99.6 122.0 99.9 121.3 C 100.2 120.7 98.0 118.8 100.6 118.2 C 100.5 118.2 102.7 119.1 102.6 119.0 C 103.4 119.6 103.8 119.9 104.7 119.1 C 104.1 119.6 102.0 117.0 102.9 115.8 C 103.8 114.6 106.3 112.6 107.7 114.5 C 108.9 114.2 110.5 114.7 110.6 112.7 C 110.7 111.4 111.9 109.7 113.4 109.8 C 113.8 109.8 112.9 111.1 112.9 111.4 C 113.0 111.8 114.4 111.4 114.6 111.2 M 112.1 112.6 C 111.4 112.4 113.1 111.3 113.1 112.3 C 112.9 112.6 112.5 112.7 112.1 112.6 M 112.2 111.0 C 112.2 110.6 112.6 110.8 112.5 111.0 C 112.4 111.2 112.1 111.4 112.2 111.0 C 112.2 111.0 112.2 111.0 112.2 111.0 Z M 100.6 120.4 C 101.1 119.8 101.3 120.0 101.1 120.6 C 101.0 121.2 100.1 121.0 100.6 120.4 C 100.6 120.4 100.6 120.4 100.6 120.4 Z M 82.8 118.4 C 83.3 117.8 83.5 118.0 83.4 118.6 C 83.2 119.2 82.4 119.0 82.8 118.4 C 82.8 118.4 82.8 118.4 82.8 118.4 Z M 93.1 126.9 C 92.9 126.8 93.2 126.5 93.4 126.7 C 93.5 126.9 93.2 127.0 93.1 126.9 C 93.1 126.9 93.1 126.9 93.1 126.9 Z M 103.9 116.2 C 103.8 116.1 104.1 115.8 104.3 116.0 C 104.4 116.2 104.1 116.4 103.9 116.2 C 103.9 116.2 103.9 116.2 103.9 116.2 Z M 95.1 127.7 C 94.6 127.9 94.5 126.2 96.4 127.1 C 96.8 127.3 95.3 128.1 95.1 128.1 C 95.0 128.1 95.5 127.6 95.1 127.7 M 86.0 137.1 C 85.7 137.2 85.5 137.1 85.4 136.7 C 85.3 136.6 86.6 136.2 86.0 137.1 M 54.3 144.7 C 54.0 144.8 53.8 144.7 53.6 144.3 C 53.6 144.2 54.9 143.8 54.3 144.7 M 63.3 158.0 C 63.2 158.5 62.2 158.3 62.2 158.1 C 62.2 157.6 63.4 157.3 63.3 158.0 M 75.2 144.2 C 75.1 144.5 73.6 145.8 73.6 145.2 C 73.6 144.6 75.2 144.1 75.2 144.2 M 54.8 164.2 C 55.3 164.1 55.8 163.8 56.3 163.7 C 56.5 163.7 54.6 166.3 54.0 165.7 C 53.6 165.2 54.6 164.3 54.8 164.2 M 52.1 168.3 C 52.0 168.7 50.9 169.2 50.7 168.8 C 50.3 168.2 52.1 167.7 52.1 168.3 M 68.1 152.6 C 67.8 152.8 67.8 152.3 68.1 152.1 C 68.5 151.8 68.4 152.5 68.1 152.6 C 68.1 152.6 68.1 152.6 68.1 152.6 Z M 76.9 143.7 C 77.1 143.6 78.4 142.9 78.4 143.5 C 78.3 144.9 74.9 146.5 76.9 143.7 M 100.6 123.0 C 100.6 123.0 100.2 124.3 99.3 123.6 C 98.2 122.7 100.5 123.0 100.6 123.0 M 104.2 118.3 C 103.8 118.4 103.7 118.0 104.1 117.9 C 104.5 117.8 104.5 118.1 104.2 118.3 C 104.2 118.3 104.2 118.3 104.2 118.3 Z M 60.8 158.9 C 60.3 159.0 61.0 158.2 61.1 158.4 C 61.3 158.6 61.3 158.8 60.8 158.9 C 60.8 158.9 60.8 158.9 60.8 158.9 Z M 56.8 163.0 C 56.3 163.1 57.0 162.4 57.1 162.5 C 57.3 162.7 57.3 162.9 56.8 163.0 C 56.8 163.0 56.8 163.0 56.8 163.0 Z M 39.8 158.6 C 39.3 158.7 40.0 157.9 40.1 158.1 C 40.3 158.3 40.3 158.5 39.8 158.6 C 39.8 158.6 39.8 158.6 39.8 158.6 Z M 96.8 116.6 C 96.9 116.2 97.2 116.1 97.6 116.3 C 97.7 116.6 97.7 116.9 97.6 117.1 C 97.8 116.8 99.5 115.7 99.2 116.9 C 99.0 118.1 97.4 117.9 97.0 118.8 C 96.8 119.1 97.2 120.0 97.4 120.1 C 97.3 120.1 96.5 120.4 95.3 119.7 C 94.0 118.9 96.7 117.2 96.8 116.6 M 76.7 137.9 C 76.5 137.9 75.1 138.9 75.0 138.7 C 73.9 136.6 78.7 135.6 79.5 137.6 C 80.5 140.1 76.1 138.1 76.7 137.9 M 49.3 166.4 C 50.3 165.5 47.3 166.8 47.0 166.2 C 46.4 165.3 49.5 164.9 50.0 165.0 C 52.6 165.6 49.6 168.3 48.6 167.5 C 48.6 167.0 48.8 166.6 49.3 166.4 M 44.2 172.4 C 43.4 172.5 45.5 170.1 45.9 170.0 C 46.5 169.9 46.9 170.8 46.9 171.2 C 46.7 172.7 45.3 172.4 44.2 172.4 M 84.3 135.4 C 82.9 135.4 85.4 132.4 86.1 133.5 C 86.4 134.0 84.7 135.4 84.3 135.4 M 61.0 145.3 C 61.9 145.5 59.6 147.3 59.5 147.5 C 59.4 147.9 61.3 148.0 61.1 148.1 C 59.9 148.8 54.8 153.1 57.8 148.6 C 58.4 147.7 58.0 146.0 58.6 145.1 C 59.8 143.3 59.7 145.0 61.0 145.3 M 109.3 111.3 C 108.5 111.8 109.9 112.4 109.6 112.9 C 109.3 113.6 107.6 112.9 107.6 112.2 C 107.6 109.3 112.1 109.8 109.3 111.3 M 97.9 121.2 C 98.6 120.8 98.7 121.5 98.2 121.7 C 97.8 122.0 97.2 121.6 97.9 121.2 C 97.9 121.2 97.9 121.2 97.9 121.2 Z M 94.0 125.7 C 93.8 126.0 92.8 126.0 92.7 125.5 C 92.4 124.8 94.9 124.7 94.0 125.7 M 110.2 115.8 C 110.0 116.1 109.0 116.1 108.8 115.6 C 108.6 114.9 111.0 114.8 110.2 115.8 M 64.2 148.6 C 64.0 148.9 63.0 148.9 62.9 148.4 C 62.7 147.7 65.1 147.6 64.2 148.6 M 75.2 142.6 C 74.5 143.4 72.2 142.4 73.1 141.8 C 73.7 141.5 76.5 141.1 75.2 142.6 M 80.0 126.8 C 79.8 126.9 79.6 127.0 79.4 127.1 C 77.3 126.4 82.5 124.2 80.0 126.8 M 69.3 150.3 C 68.0 151.6 66.7 148.4 67.5 147.7 C 69.4 146.3 70.5 149.0 69.3 150.3 M 77.6 141.0 C 78.1 141.0 77.7 141.8 76.9 141.6 C 76.7 141.6 77.2 141.0 77.6 141.0 C 77.6 141.0 77.6 141.0 77.6 141.0 Z M 59.6 146.0 C 59.3 145.8 59.4 145.5 59.7 145.6 C 60.0 145.7 59.9 146.1 59.6 146.0 C 59.6 146.0 59.6 146.0 59.6 146.0 Z M 58.4 147.3 C 58.1 147.5 58.2 146.7 58.6 146.7 C 59.3 146.6 58.7 147.2 58.4 147.3 C 58.4 147.3 58.4 147.3 58.4 147.3 Z M 65.9 154.0 C 65.6 154.2 65.7 153.5 66.1 153.4 C 66.7 153.4 66.2 153.9 65.9 154.0 C 65.9 154.0 65.9 154.0 65.9 154.0 Z M 96.7 109.5 C 95.6 110.8 95.2 110.2 96.3 109.3 C 97.0 108.8 97.8 108.2 96.7 109.5 C 96.7 109.5 96.7 109.5 96.7 109.5 Z M 91.6 130.9 C 90.0 132.9 87.4 130.2 90.0 129.1 C 90.0 129.1 93.1 128.8 91.6 130.9 C 91.6 130.9 91.6 130.9 91.6 130.9 Z M 82.2 132.1 C 82.1 132.4 81.5 132.0 81.7 131.5 C 81.8 131.2 82.2 131.7 82.2 132.1 C 82.2 132.1 82.2 132.1 82.2 132.1 Z M 73.0 150.4 C 72.9 150.8 72.3 150.3 72.5 149.9 C 72.6 149.6 73.0 150.1 73.0 150.4 C 73.0 150.4 73.0 150.4 73.0 150.4 Z M 94.8 110.5 C 94.8 110.8 94.1 110.4 94.3 109.9 C 94.5 109.6 94.8 110.1 94.8 110.5 C 94.8 110.5 94.8 110.5 94.8 110.5 Z M 55.7 160.3 C 55.7 160.6 55.1 160.2 55.2 159.7 C 55.4 159.4 55.7 159.9 55.7 160.3 C 55.7 160.3 55.7 160.3 55.7 160.3 Z M 67.4 138.0 C 68.1 138.3 66.5 139.5 66.9 138.6 C 67.4 137.7 66.7 137.7 67.4 138.0 C 67.4 138.0 67.4 138.0 67.4 138.0 Z M 62.8 142.1 C 63.2 142.3 62.7 143.0 62.5 142.5 C 62.4 142.2 62.4 141.8 62.8 142.1 C 62.8 142.1 62.8 142.1 62.8 142.1 Z M 51.2 169.6 C 51.5 169.8 51.0 170.5 50.8 170.0 C 50.7 169.7 50.8 169.4 51.2 169.6 C 51.2 169.6 51.2 169.6 51.2 169.6 Z M 48.6 149.7 C 49.0 150.0 48.4 150.6 48.3 150.1 C 48.2 149.8 48.2 149.5 48.6 149.7 C 48.6 149.7 48.6 149.7 48.6 149.7 Z M 48.1 156.8 C 47.5 157.1 47.5 156.4 48.2 156.5 C 48.6 156.6 48.7 156.6 48.1 156.8 C 48.1 156.8 48.1 156.8 48.1 156.8 Z M 66.0 152.5 C 66.2 152.9 63.3 155.3 64.2 153.7 C 64.7 152.8 65.5 151.8 66.0 152.5 C 66.0 152.5 66.0 152.5 66.0 152.5 Z M 37.8 168.1 C 37.7 168.6 37.0 168.3 36.9 167.8 C 36.9 167.8 37.8 167.6 37.8 168.1 C 37.8 168.1 37.8 168.1 37.8 168.1 Z M 39.3 174.4 C 39.3 174.9 38.5 174.6 38.4 174.2 C 38.4 174.2 39.4 173.9 39.3 174.4 C 39.3 174.4 39.3 174.4 39.3 174.4 Z M 40.2 177.7 C 40.2 178.2 39.4 178.0 39.3 177.5 C 39.3 177.5 40.3 177.2 40.2 177.7 C 40.2 177.7 40.2 177.7 40.2 177.7 Z M 90.0 121.1 C 90.2 120.3 90.7 121.2 90.7 121.2 C 89.7 122.0 89.7 122.0 90.0 121.1 C 90.0 121.1 90.0 121.1 90.0 121.1 Z M 98.0 126.3 C 98.1 126.0 98.3 126.4 98.3 126.4 C 97.9 126.7 97.9 126.7 98.0 126.3 C 98.0 126.3 98.0 126.3 98.0 126.3 Z M 92.2 132.3 C 92.3 131.9 92.5 132.3 92.5 132.3 C 92.1 132.6 92.1 132.6 92.2 132.3 C 92.2 132.3 92.2 132.3 92.2 132.3 Z M 87.3 115.9 C 87.4 115.4 87.7 116.0 87.7 116.0 C 87.1 116.5 87.1 116.5 87.3 115.9 C 87.3 115.9 87.3 115.9 87.3 115.9 Z M 69.5 142.8 C 69.8 142.0 70.2 142.9 70.2 142.9 C 69.3 143.6 69.3 143.6 69.5 142.8 C 69.5 142.8 69.5 142.8 69.5 142.8 Z M 64.9 142.0 C 65.1 141.2 65.5 142.1 65.5 142.1 C 64.6 142.8 64.6 142.8 64.9 142.0 C 64.9 142.0 64.9 142.0 64.9 142.0 Z M 66.8 133.5 C 66.9 133.1 67.1 133.5 67.1 133.5 C 66.7 133.8 66.7 133.8 66.8 133.5 C 66.8 133.5 66.8 133.5 66.8 133.5 Z M 61.0 141.2 C 61.1 140.8 61.3 141.2 61.3 141.2 C 60.9 141.5 60.9 141.5 61.0 141.2 C 61.0 141.2 61.0 141.2 61.0 141.2 Z M 103.9 103.1 C 103.5 103.5 103.2 103.2 103.7 102.9 C 104.0 102.6 104.3 102.7 103.9 103.1 C 103.9 103.1 103.9 103.1 103.9 103.1 Z M 109.2 108.0 C 108.5 108.7 107.8 107.9 109.0 107.2 C 109.5 106.8 109.8 107.3 109.2 108.0 C 109.2 108.0 109.2 108.0 109.2 108.0 Z M 72.3 147.3 C 72.7 147.2 72.1 148.1 72.0 148.1 C 71.6 148.4 70.9 147.9 70.8 147.9 C 71.3 147.7 71.9 147.5 72.3 147.3 M 80.5 138.6 C 80.1 138.8 80.1 138.3 80.4 138.2 C 80.7 138.1 80.9 138.4 80.5 138.6 C 80.5 138.6 80.5 138.6 80.5 138.6 Z M 57.4 160.6 C 56.1 160.3 57.8 158.6 58.8 158.9 C 59.0 159.0 58.7 160.8 57.4 160.6 C 57.4 160.6 57.4 160.6 57.4 160.6 Z M 54.0 147.5 C 54.0 147.8 53.5 148.0 53.7 147.7 C 53.9 147.3 54.0 147.3 54.0 147.5 C 54.0 147.5 54.0 147.5 54.0 147.5 Z M 52.5 150.5 C 52.3 151.2 51.0 150.6 51.5 150.3 C 52.3 150.0 52.7 149.9 52.5 150.5 C 52.5 150.5 52.5 150.5 52.5 150.5 Z M 45.0 167.8 C 44.6 168.1 44.2 168.1 43.8 167.8 C 42.9 167.5 46.3 166.8 45.0 167.8 M 83.3 139.4 C 83.0 139.8 82.7 140.0 82.2 139.9 C 80.8 139.3 84.7 138.4 83.3 139.4 M 54.4 163.2 C 53.8 163.4 54.1 162.6 54.6 162.7 C 55.1 162.7 54.9 162.9 54.4 163.2 C 54.4 163.2 54.4 163.2 54.4 163.2 Z M 43.3 171.5 C 42.7 171.8 43.0 170.9 43.5 171.0 C 44.0 171.1 43.8 171.3 43.3 171.5 C 43.3 171.5 43.3 171.5 43.3 171.5 Z M 88.3 132.3 C 87.5 133.4 86.7 131.1 86.9 130.6 C 87.4 129.2 88.1 131.3 88.1 131.4 C 88.2 131.4 87.5 130.7 87.5 131.1 C 87.5 131.9 88.5 132.0 88.3 132.3 M 105.0 115.6 C 104.2 116.1 103.7 115.3 104.5 115.1 C 105.2 114.9 105.8 115.1 105.0 115.6 C 105.0 115.6 105.0 115.6 105.0 115.6 Z M 105.0 115.6 " fill="#FF0000"></path></g></svg>