<?xml version="1.0" encoding="UTF-8" standalone="no"?><svg xmlns="http://www.w3.org/2000/svg" xmlns:xlink="http://www.w3.org/1999/xlink" clip-rule="evenodd" stroke-miterlimit="4.00" viewBox="0 0 1024 768"><desc>SVG generated by Keynote</desc><defs></defs><g transform="matrix(1.00, 0.00, -0.00, -1.00, 0.0, 768.0)"><g><clipPath id="clip-6"><path d="M 0.0 768.0 L 1024.0 768.0 L 1024.0 0.0 L 0.0 0.0 Z M 0.0 768.0 "></path></clipPath><g clip-path="url(#clip-6)"><image xlink:href="../../F4CC33EE-B913-4F83-93F5-E700039820FD/assets/50163466EC2834942505D00A94D158E6.jpeg" width="1024.00" height="768.00" transform="matrix(1.00, 0.00, -0.00, -1.00, 0.0, 768.0)"></image></g></g><g opacity="0.30"><g><clipPath id="clip-7"><path d="M 39.0 595.0 L 986.0 595.0 L 986.0 599.0 L 39.0 599.0 Z M 39.0 595.0 "></path></clipPath><g clip-path="url(#clip-7)"><path d="M 0.0 0.0 L 944.7 0.0 " fill="none" stroke="#434343" stroke-width="1.00" transform="matrix(1.00, 0.00, 0.00, -1.00, 40.0, 597.0)"></path></g></g></g><g opacity="0.30"><g><clipPath id="clip-8"><path d="M 39.0 716.0 L 986.0 716.0 L 986.0 720.0 L 39.0 720.0 Z M 39.0 716.0 "></path></clipPath><g clip-path="url(#clip-8)"><path d="M 0.0 0.0 L 944.7 0.0 " fill="none" stroke="#434343" stroke-width="1.00" transform="matrix(1.00, 0.00, 0.00, -1.00, 40.0, 718.0)"></path></g></g></g><text xml:space="preserve" font-family="BodoniSvtyTwoITCTT-Book" font-size="70.0" fill="#D93D2A" transform="matrix(1.00, 0.00, -0.00, -1.00, 401.0, 633.0)">P</text><text xml:space="preserve" font-family="BodoniSvtyTwoITCTT-Book" font-size="70.0" fill="#D93D2A" transform="matrix(1.00, 0.00, -0.00, -1.00, 436.3, 633.0)">r</text><text xml:space="preserve" font-family="BodoniSvtyTwoITCTT-Book" font-size="70.0" fill="#D93D2A" transform="matrix(1.00, 0.00, -0.00, -1.00, 459.9, 633.0)">o</text><text xml:space="preserve" font-family="BodoniSvtyTwoITCTT-Book" font-size="70.0" fill="#D93D2A" transform="matrix(1.00, 0.00, -0.00, -1.00, 493.5, 633.0)">b</text><text xml:space="preserve" font-family="BodoniSvtyTwoITCTT-Book" font-size="70.0" fill="#D93D2A" transform="matrix(1.00, 0.00, -0.00, -1.00, 527.2, 633.0)">l</text><text xml:space="preserve" font-family="BodoniSvtyTwoITCTT-Book" font-size="70.0" fill="#D93D2A" transform="matrix(1.00, 0.00, -0.00, -1.00, 543.7, 633.0)">e</text><text xml:space="preserve" font-family="BodoniSvtyTwoITCTT-Book" font-size="70.0" fill="#D93D2A" transform="matrix(1.00, 0.00, -0.00, -1.00, 573.8, 633.0)">m</text><text xml:space="preserve" font-family="ZapfDingbatsITC" font-size="19.7" fill="#919191" transform="matrix(1.00, 0.00, -0.00, -1.00, 44.0, 508.5)">❖</text><text xml:space="preserve" font-family="Palatino-Roman" font-size="32.8" fill="#414040" transform="matrix(1.00, 0.00, -0.00, -1.00, 78.0, 503.0)">D</text><text xml:space="preserve" font-family="Palatino-Roman" font-size="32.8" fill="#414040" transform="matrix(1.00, 0.00, -0.00, -1.00, 103.4, 503.0)">e</text><text xml:space="preserve" font-family="Palatino-Roman" font-size="32.8" fill="#414040" transform="matrix(1.00, 0.00, -0.00, -1.00, 119.0, 503.0)">v</text><text xml:space="preserve" font-family="Palatino-Roman" font-size="32.8" fill="#414040" transform="matrix(1.00, 0.00, -0.00, -1.00, 137.5, 503.0)">-</text><text xml:space="preserve" font-family="Palatino-Roman" font-size="32.8" fill="#414040" transform="matrix(1.00, 0.00, -0.00, -1.00, 148.5, 503.0)">O</text><text xml:space="preserve" font-family="Palatino-Roman" font-size="32.8" fill="#414040" transform="matrix(1.00, 0.00, -0.00, -1.00, 174.2, 503.0)">p</text><text xml:space="preserve" font-family="Palatino-Roman" font-size="32.8" fill="#414040" transform="matrix(1.00, 0.00, -0.00, -1.00, 193.9, 503.0)">s</text><text xml:space="preserve" font-family="Palatino-Roman" font-size="32.8" fill="#414040" transform="matrix(1.00, 0.00, -0.00, -1.00, 207.8, 503.0)"> </text><text xml:space="preserve" font-family="Palatino-Roman" font-size="32.8" fill="#414040" transform="matrix(1.00, 0.00, -0.00, -1.00, 216.0, 503.0)">-</text><text xml:space="preserve" font-family="Palatino-Roman" font-size="32.8" fill="#414040" transform="matrix(1.00, 0.00, -0.00, -1.00, 226.9, 503.0)"> </text><text xml:space="preserve" font-family="Palatino-Roman" font-size="32.8" fill="#414040" transform="matrix(1.00, 0.00, -0.00, -1.00, 235.1, 503.0)">n</text><text xml:space="preserve" font-family="Palatino-Roman" font-size="32.8" fill="#414040" transform="matrix(1.00, 0.00, -0.00, -1.00, 254.1, 503.0)">e</text><text xml:space="preserve" font-family="Palatino-Roman" font-size="32.8" fill="#414040" transform="matrix(1.00, 0.00, -0.00, -1.00, 269.8, 503.0)">w</text><text xml:space="preserve" font-family="Palatino-Roman" font-size="32.8" fill="#414040" transform="matrix(1.00, 0.00, -0.00, -1.00, 297.2, 503.0)"> </text><text xml:space="preserve" font-family="Palatino-Roman" font-size="32.8" fill="#414040" transform="matrix(1.00, 0.00, -0.00, -1.00, 305.3, 503.0)">w</text><text xml:space="preserve" font-family="Palatino-Roman" font-size="32.8" fill="#414040" transform="matrix(1.00, 0.00, -0.00, -1.00, 332.7, 503.0)">a</text><text xml:space="preserve" font-family="Palatino-Roman" font-size="32.8" fill="#414040" transform="matrix(1.00, 0.00, -0.00, -1.00, 349.0, 503.0)">y</text><text xml:space="preserve" font-family="Palatino-Roman" font-size="32.8" fill="#414040" transform="matrix(1.00, 0.00, -0.00, -1.00, 367.3, 503.0)"> </text><text xml:space="preserve" font-family="Palatino-Roman" font-size="32.8" fill="#414040" transform="matrix(1.00, 0.00, -0.00, -1.00, 375.5, 503.0)">o</text><text xml:space="preserve" font-family="Palatino-Roman" font-size="32.8" fill="#414040" transform="matrix(1.00, 0.00, -0.00, -1.00, 393.3, 503.0)">f</text><text xml:space="preserve" font-family="Palatino-Roman" font-size="32.8" fill="#414040" transform="matrix(1.00, 0.00, -0.00, -1.00, 404.3, 503.0)"> </text><text xml:space="preserve" font-family="Palatino-Roman" font-size="32.8" fill="#414040" transform="matrix(1.00, 0.00, -0.00, -1.00, 412.4, 503.0)">b</text><text xml:space="preserve" font-family="Palatino-Roman" font-size="32.8" fill="#414040" transform="matrix(1.00, 0.00, -0.00, -1.00, 430.6, 503.0)">u</text><text xml:space="preserve" font-family="Palatino-Roman" font-size="32.8" fill="#414040" transform="matrix(1.00, 0.00, -0.00, -1.00, 450.3, 503.0)">i</text><text xml:space="preserve" font-family="Palatino-Roman" font-size="32.8" fill="#414040" transform="matrix(1.00, 0.00, -0.00, -1.00, 459.9, 503.0)">l</text><text xml:space="preserve" font-family="Palatino-Roman" font-size="32.8" fill="#414040" transform="matrix(1.00, 0.00, -0.00, -1.00, 469.4, 503.0)">d</text><text xml:space="preserve" font-family="Palatino-Roman" font-size="32.8" fill="#414040" transform="matrix(1.00, 0.00, -0.00, -1.00, 489.4, 503.0)"> </text><text xml:space="preserve" font-family="Palatino-Roman" font-size="32.8" fill="#414040" transform="matrix(1.00, 0.00, -0.00, -1.00, 497.6, 503.0)">t</text><text xml:space="preserve" font-family="Palatino-Roman" font-size="32.8" fill="#414040" transform="matrix(1.00, 0.00, -0.00, -1.00, 508.3, 503.0)">e</text><text xml:space="preserve" font-family="Palatino-Roman" font-size="32.8" fill="#414040" transform="matrix(1.00, 0.00, -0.00, -1.00, 524.0, 503.0)">a</text><text xml:space="preserve" font-family="Palatino-Roman" font-size="32.8" fill="#414040" transform="matrix(1.00, 0.00, -0.00, -1.00, 540.4, 503.0)">m</text><text xml:space="preserve" font-family="Palatino-Roman" font-size="32.8" fill="#414040" transform="matrix(1.00, 0.00, -0.00, -1.00, 569.3, 503.0)">s</text><text xml:space="preserve" font-family="Palatino-Roman" font-size="32.8" fill="#414040" transform="matrix(1.00, 0.00, -0.00, -1.00, 583.1, 503.0)"> </text><text xml:space="preserve" font-family="Palatino-Roman" font-size="32.8" fill="#414040" transform="matrix(1.00, 0.00, -0.00, -1.00, 591.3, 503.0)">i</text><text xml:space="preserve" font-family="Palatino-Roman" font-size="32.8" fill="#414040" transform="matrix(1.00, 0.00, -0.00, -1.00, 600.9, 503.0)">n</text><text xml:space="preserve" font-family="Palatino-Roman" font-size="32.8" fill="#414040" transform="matrix(1.00, 0.00, -0.00, -1.00, 619.9, 503.0)"> </text><text xml:space="preserve" font-family="Palatino-Roman" font-size="32.8" fill="#414040" transform="matrix(1.00, 0.00, -0.00, -1.00, 628.1, 503.0)">I</text><text xml:space="preserve" font-family="Palatino-Roman" font-size="32.8" fill="#414040" transform="matrix(1.00, 0.00, -0.00, -1.00, 639.2, 503.0)">T</text><text xml:space="preserve" font-family="Palatino-Roman" font-size="32.8" fill="#414040" transform="matrix(1.00, 0.00, -0.00, -1.00, 659.2, 503.0)"> </text><text xml:space="preserve" font-family="Palatino-Roman" font-size="32.8" fill="#414040" transform="matrix(1.00, 0.00, -0.00, -1.00, 667.4, 503.0)">C</text><text xml:space="preserve" font-family="Palatino-Roman" font-size="32.8" fill="#414040" transform="matrix(1.00, 0.00, -0.00, -1.00, 690.6, 503.0)">o</text><text xml:space="preserve" font-family="Palatino-Roman" font-size="32.8" fill="#414040" transform="matrix(1.00, 0.00, -0.00, -1.00, 708.5, 503.0)">m</text><text xml:space="preserve" font-family="Palatino-Roman" font-size="32.8" fill="#414040" transform="matrix(1.00, 0.00, -0.00, -1.00, 737.4, 503.0)">p</text><text xml:space="preserve" font-family="Palatino-Roman" font-size="32.8" fill="#414040" transform="matrix(1.00, 0.00, -0.00, -1.00, 757.1, 503.0)">a</text><text xml:space="preserve" font-family="Palatino-Roman" font-size="32.8" fill="#414040" transform="matrix(1.00, 0.00, -0.00, -1.00, 773.5, 503.0)">n</text><text xml:space="preserve" font-family="Palatino-Roman" font-size="32.8" fill="#414040" transform="matrix(1.00, 0.00, -0.00, -1.00, 792.6, 503.0)">i</text><text xml:space="preserve" font-family="Palatino-Roman" font-size="32.8" fill="#414040" transform="matrix(1.00, 0.00, -0.00, -1.00, 802.1, 503.0)">e</text><text xml:space="preserve" font-family="Palatino-Roman" font-size="32.8" fill="#414040" transform="matrix(1.00, 0.00, -0.00, -1.00, 817.8, 503.0)">s</text><text xml:space="preserve" font-family="ZapfDingbatsITC" font-size="19.7" fill="#919191" transform="matrix(1.00, 0.00, -0.00, -1.00, 44.0, 443.6)">❖</text><text xml:space="preserve" font-family="Palatino-Roman" font-size="32.8" fill="#414040" transform="matrix(1.00, 0.00, -0.00, -1.00, 78.0, 438.0)">W</text><text xml:space="preserve" font-family="Palatino-Roman" font-size="32.8" fill="#414040" transform="matrix(1.00, 0.00, -0.00, -1.00, 110.8, 438.0)">h</text><text xml:space="preserve" font-family="Palatino-Roman" font-size="32.8" fill="#414040" transform="matrix(1.00, 0.00, -0.00, -1.00, 129.8, 438.0)">a</text><text xml:space="preserve" font-family="Palatino-Roman" font-size="32.8" fill="#414040" transform="matrix(1.00, 0.00, -0.00, -1.00, 146.2, 438.0)">t</text><text xml:space="preserve" font-family="Palatino-Roman" font-size="32.8" fill="#414040" transform="matrix(1.00, 0.00, -0.00, -1.00, 156.9, 438.0)"> </text><text xml:space="preserve" font-family="Palatino-Roman" font-size="32.8" fill="#414040" transform="matrix(1.00, 0.00, -0.00, -1.00, 165.1, 438.0)">e</text><text xml:space="preserve" font-family="Palatino-Roman" font-size="32.8" fill="#414040" transform="matrix(1.00, 0.00, -0.00, -1.00, 180.8, 438.0)">x</text><text xml:space="preserve" font-family="Palatino-Roman" font-size="32.8" fill="#414040" transform="matrix(1.00, 0.00, -0.00, -1.00, 197.7, 438.0)">a</text><text xml:space="preserve" font-family="Palatino-Roman" font-size="32.8" fill="#414040" transform="matrix(1.00, 0.00, -0.00, -1.00, 214.1, 438.0)">c</text><text xml:space="preserve" font-family="Palatino-Roman" font-size="32.8" fill="#414040" transform="matrix(1.00, 0.00, -0.00, -1.00, 228.6, 438.0)">t</text><text xml:space="preserve" font-family="Palatino-Roman" font-size="32.8" fill="#414040" transform="matrix(1.00, 0.00, -0.00, -1.00, 239.3, 438.0)">l</text><text xml:space="preserve" font-family="Palatino-Roman" font-size="32.8" fill="#414040" transform="matrix(1.00, 0.00, -0.00, -1.00, 248.8, 438.0)">y</text><text xml:space="preserve" font-family="Palatino-Roman" font-size="32.8" fill="#414040" transform="matrix(1.00, 0.00, -0.00, -1.00, 267.1, 438.0)"> </text><text xml:space="preserve" font-family="Palatino-Roman" font-size="32.8" fill="#414040" transform="matrix(1.00, 0.00, -0.00, -1.00, 275.2, 438.0)">m</text><text xml:space="preserve" font-family="Palatino-Roman" font-size="32.8" fill="#414040" transform="matrix(1.00, 0.00, -0.00, -1.00, 304.2, 438.0)">e</text><text xml:space="preserve" font-family="Palatino-Roman" font-size="32.8" fill="#414040" transform="matrix(1.00, 0.00, -0.00, -1.00, 319.9, 438.0)">a</text><text xml:space="preserve" font-family="Palatino-Roman" font-size="32.8" fill="#414040" transform="matrix(1.00, 0.00, -0.00, -1.00, 336.2, 438.0)">n</text><text xml:space="preserve" font-family="Palatino-Roman" font-size="32.8" fill="#414040" transform="matrix(1.00, 0.00, -0.00, -1.00, 355.3, 438.0)">s</text><text xml:space="preserve" font-family="Palatino-Roman" font-size="32.8" fill="#414040" transform="matrix(1.00, 0.00, -0.00, -1.00, 369.2, 438.0)"> </text><text xml:space="preserve" font-family="Palatino-Roman" font-size="32.8" fill="#414040" transform="matrix(1.00, 0.00, -0.00, -1.00, 377.4, 438.0)">„</text><text xml:space="preserve" font-family="Palatino-Roman" font-size="32.8" fill="#414040" transform="matrix(1.00, 0.00, -0.00, -1.00, 393.8, 438.0)">D</text><text xml:space="preserve" font-family="Palatino-Roman" font-size="32.8" fill="#414040" transform="matrix(1.00, 0.00, -0.00, -1.00, 419.1, 438.0)">e</text><text xml:space="preserve" font-family="Palatino-Roman" font-size="32.8" fill="#414040" transform="matrix(1.00, 0.00, -0.00, -1.00, 434.8, 438.0)">v</text><text xml:space="preserve" font-family="Palatino-Roman" font-size="32.8" fill="#414040" transform="matrix(1.00, 0.00, -0.00, -1.00, 453.3, 438.0)">-</text><text xml:space="preserve" font-family="Palatino-Roman" font-size="32.8" fill="#414040" transform="matrix(1.00, 0.00, -0.00, -1.00, 464.2, 438.0)">O</text><text xml:space="preserve" font-family="Palatino-Roman" font-size="32.8" fill="#414040" transform="matrix(1.00, 0.00, -0.00, -1.00, 490.0, 438.0)">p</text><text xml:space="preserve" font-family="Palatino-Roman" font-size="32.8" fill="#414040" transform="matrix(1.00, 0.00, -0.00, -1.00, 509.7, 438.0)">s</text><text xml:space="preserve" font-family="Palatino-Roman" font-size="32.8" fill="#414040" transform="matrix(1.00, 0.00, -0.00, -1.00, 523.5, 438.0)">”</text><text xml:space="preserve" font-family="Palatino-Roman" font-size="32.8" fill="#414040" transform="matrix(1.00, 0.00, -0.00, -1.00, 539.9, 438.0)">?</text><text xml:space="preserve" font-family="ZapfDingbatsITC" font-size="19.7" fill="#919191" transform="matrix(1.00, 0.00, -0.00, -1.00, 44.0, 378.8)">❖</text><text xml:space="preserve" font-family="Palatino-Roman" font-size="32.8" fill="#414040" transform="matrix(1.00, 0.00, -0.00, -1.00, 78.0, 373.0)">W</text><text xml:space="preserve" font-family="Palatino-Roman" font-size="32.8" fill="#414040" transform="matrix(1.00, 0.00, -0.00, -1.00, 110.8, 373.0)">h</text><text xml:space="preserve" font-family="Palatino-Roman" font-size="32.8" fill="#414040" transform="matrix(1.00, 0.00, -0.00, -1.00, 129.8, 373.0)">y</text><text xml:space="preserve" font-family="Palatino-Roman" font-size="32.8" fill="#414040" transform="matrix(1.00, 0.00, -0.00, -1.00, 148.1, 373.0)"> </text><text xml:space="preserve" font-family="Palatino-Roman" font-size="32.8" fill="#414040" transform="matrix(1.00, 0.00, -0.00, -1.00, 156.2, 373.0)">s</text><text xml:space="preserve" font-family="Palatino-Roman" font-size="32.8" fill="#414040" transform="matrix(1.00, 0.00, -0.00, -1.00, 170.1, 373.0)">h</text><text xml:space="preserve" font-family="Palatino-Roman" font-size="32.8" fill="#414040" transform="matrix(1.00, 0.00, -0.00, -1.00, 189.2, 373.0)">o</text><text xml:space="preserve" font-family="Palatino-Roman" font-size="32.8" fill="#414040" transform="matrix(1.00, 0.00, -0.00, -1.00, 207.1, 373.0)">u</text><text xml:space="preserve" font-family="Palatino-Roman" font-size="32.8" fill="#414040" transform="matrix(1.00, 0.00, -0.00, -1.00, 226.8, 373.0)">l</text><text xml:space="preserve" font-family="Palatino-Roman" font-size="32.8" fill="#414040" transform="matrix(1.00, 0.00, -0.00, -1.00, 236.4, 373.0)">d</text><text xml:space="preserve" font-family="Palatino-Roman" font-size="32.8" fill="#414040" transform="matrix(1.00, 0.00, -0.00, -1.00, 256.4, 373.0)"> </text><text xml:space="preserve" font-family="Palatino-Roman" font-size="32.8" fill="#414040" transform="matrix(1.00, 0.00, -0.00, -1.00, 264.6, 373.0)">c</text><text xml:space="preserve" font-family="Palatino-Roman" font-size="32.8" fill="#414040" transform="matrix(1.00, 0.00, -0.00, -1.00, 279.1, 373.0)">o</text><text xml:space="preserve" font-family="Palatino-Roman" font-size="32.8" fill="#414040" transform="matrix(1.00, 0.00, -0.00, -1.00, 297.0, 373.0)">m</text><text xml:space="preserve" font-family="Palatino-Roman" font-size="32.8" fill="#414040" transform="matrix(1.00, 0.00, -0.00, -1.00, 325.9, 373.0)">p</text><text xml:space="preserve" font-family="Palatino-Roman" font-size="32.8" fill="#414040" transform="matrix(1.00, 0.00, -0.00, -1.00, 345.6, 373.0)">a</text><text xml:space="preserve" font-family="Palatino-Roman" font-size="32.8" fill="#414040" transform="matrix(1.00, 0.00, -0.00, -1.00, 362.0, 373.0)">n</text><text xml:space="preserve" font-family="Palatino-Roman" font-size="32.8" fill="#414040" transform="matrix(1.00, 0.00, -0.00, -1.00, 381.0, 373.0)">i</text><text xml:space="preserve" font-family="Palatino-Roman" font-size="32.8" fill="#414040" transform="matrix(1.00, 0.00, -0.00, -1.00, 390.6, 373.0)">e</text><text xml:space="preserve" font-family="Palatino-Roman" font-size="32.8" fill="#414040" transform="matrix(1.00, 0.00, -0.00, -1.00, 406.2, 373.0)">s</text><text xml:space="preserve" font-family="Palatino-Roman" font-size="32.8" fill="#414040" transform="matrix(1.00, 0.00, -0.00, -1.00, 420.1, 373.0)"> </text><text xml:space="preserve" font-family="Palatino-Roman" font-size="32.8" fill="#414040" transform="matrix(1.00, 0.00, -0.00, -1.00, 428.3, 373.0)">u</text><text xml:space="preserve" font-family="Palatino-Roman" font-size="32.8" fill="#414040" transform="matrix(1.00, 0.00, -0.00, -1.00, 448.1, 373.0)">s</text><text xml:space="preserve" font-family="Palatino-Roman" font-size="32.8" fill="#414040" transform="matrix(1.00, 0.00, -0.00, -1.00, 462.0, 373.0)">e</text><text xml:space="preserve" font-family="Palatino-Roman" font-size="32.8" fill="#414040" transform="matrix(1.00, 0.00, -0.00, -1.00, 477.6, 373.0)"> </text><text xml:space="preserve" font-family="Palatino-Roman" font-size="32.8" fill="#414040" transform="matrix(1.00, 0.00, -0.00, -1.00, 485.8, 373.0)">D</text><text xml:space="preserve" font-family="Palatino-Roman" font-size="32.8" fill="#414040" transform="matrix(1.00, 0.00, -0.00, -1.00, 511.2, 373.0)">e</text><text xml:space="preserve" font-family="Palatino-Roman" font-size="32.8" fill="#414040" transform="matrix(1.00, 0.00, -0.00, -1.00, 526.9, 373.0)">v</text><text xml:space="preserve" font-family="Palatino-Roman" font-size="32.8" fill="#414040" transform="matrix(1.00, 0.00, -0.00, -1.00, 545.4, 373.0)">-</text><text xml:space="preserve" font-family="Palatino-Roman" font-size="32.8" fill="#414040" transform="matrix(1.00, 0.00, -0.00, -1.00, 556.3, 373.0)">O</text><text xml:space="preserve" font-family="Palatino-Roman" font-size="32.8" fill="#414040" transform="matrix(1.00, 0.00, -0.00, -1.00, 582.0, 373.0)">p</text><text xml:space="preserve" font-family="Palatino-Roman" font-size="32.8" fill="#414040" transform="matrix(1.00, 0.00, -0.00, -1.00, 601.7, 373.0)">s</text><text xml:space="preserve" font-family="Palatino-Roman" font-size="32.8" fill="#414040" transform="matrix(1.00, 0.00, -0.00, -1.00, 615.6, 373.0)"> </text><text xml:space="preserve" font-family="Palatino-Roman" font-size="32.8" fill="#414040" transform="matrix(1.00, 0.00, -0.00, -1.00, 623.8, 373.0)">o</text><text xml:space="preserve" font-family="Palatino-Roman" font-size="32.8" fill="#414040" transform="matrix(1.00, 0.00, -0.00, -1.00, 641.7, 373.0)">r</text><text xml:space="preserve" font-family="Palatino-Roman" font-size="32.8" fill="#414040" transform="matrix(1.00, 0.00, -0.00, -1.00, 654.6, 373.0)"> </text><text xml:space="preserve" font-family="Palatino-Roman" font-size="32.8" fill="#414040" transform="matrix(1.00, 0.00, -0.00, -1.00, 662.8, 373.0)">w</text><text xml:space="preserve" font-family="Palatino-Roman" font-size="32.8" fill="#414040" transform="matrix(1.00, 0.00, -0.00, -1.00, 690.1, 373.0)">h</text><text xml:space="preserve" font-family="Palatino-Roman" font-size="32.8" fill="#414040" transform="matrix(1.00, 0.00, -0.00, -1.00, 709.2, 373.0)">y</text><text xml:space="preserve" font-family="Palatino-Roman" font-size="32.8" fill="#414040" transform="matrix(1.00, 0.00, -0.00, -1.00, 727.4, 373.0)"> </text><text xml:space="preserve" font-family="Palatino-Roman" font-size="32.8" fill="#414040" transform="matrix(1.00, 0.00, -0.00, -1.00, 735.6, 373.0)">s</text><text xml:space="preserve" font-family="Palatino-Roman" font-size="32.8" fill="#414040" transform="matrix(1.00, 0.00, -0.00, -1.00, 749.5, 373.0)">h</text><text xml:space="preserve" font-family="Palatino-Roman" font-size="32.8" fill="#414040" transform="matrix(1.00, 0.00, -0.00, -1.00, 768.6, 373.0)">o</text><text xml:space="preserve" font-family="Palatino-Roman" font-size="32.8" fill="#414040" transform="matrix(1.00, 0.00, -0.00, -1.00, 786.4, 373.0)">u</text><text xml:space="preserve" font-family="Palatino-Roman" font-size="32.8" fill="#414040" transform="matrix(1.00, 0.00, -0.00, -1.00, 806.2, 373.0)">l</text><text xml:space="preserve" font-family="Palatino-Roman" font-size="32.8" fill="#414040" transform="matrix(1.00, 0.00, -0.00, -1.00, 815.7, 373.0)">d</text><text xml:space="preserve" font-family="Palatino-Roman" font-size="32.8" fill="#414040" transform="matrix(1.00, 0.00, -0.00, -1.00, 835.7, 373.0)">n</text><text xml:space="preserve" font-family="Palatino-Roman" font-size="32.8" fill="#414040" transform="matrix(1.00, 0.00, -0.00, -1.00, 854.8, 373.0)">’</text><text xml:space="preserve" font-family="Palatino-Roman" font-size="32.8" fill="#414040" transform="matrix(1.00, 0.00, -0.00, -1.00, 863.9, 373.0)">t</text><text xml:space="preserve" font-family="Palatino-Roman" font-size="32.8" fill="#414040" transform="matrix(1.00, 0.00, -0.00, -1.00, 874.6, 373.0)"> </text><text xml:space="preserve" font-family="Palatino-Roman" font-size="32.8" fill="#414040" transform="matrix(1.00, 0.00, -0.00, -1.00, 882.8, 373.0)">u</text><text xml:space="preserve" font-family="Palatino-Roman" font-size="32.8" fill="#414040" transform="matrix(1.00, 0.00, -0.00, -1.00, 902.5, 373.0)">s</text><text xml:space="preserve" font-family="Palatino-Roman" font-size="32.8" fill="#414040" transform="matrix(1.00, 0.00, -0.00, -1.00, 916.4, 373.0)">e</text><text xml:space="preserve" font-family="Palatino-Roman" font-size="32.8" fill="#414040" transform="matrix(1.00, 0.00, -0.00, -1.00, 932.1, 373.0)"> </text><text xml:space="preserve" font-family="Palatino-Roman" font-size="32.8" fill="#414040" transform="matrix(1.00, 0.00, -0.00, -1.00, 940.3, 373.0)">i</text><text xml:space="preserve" font-family="Palatino-Roman" font-size="32.8" fill="#414040" transform="matrix(1.00, 0.00, -0.00, -1.00, 949.8, 373.0)">t</text><text xml:space="preserve" font-family="Palatino-Roman" font-size="32.8" fill="#414040" transform="matrix(1.00, 0.00, -0.00, -1.00, 960.5, 373.0)">?</text><text xml:space="preserve" font-family="ZapfDingbatsITC" font-size="19.7" fill="#919191" transform="matrix(1.00, 0.00, -0.00, -1.00, 81.0, 314.0)">❖</text><text xml:space="preserve" font-family="Palatino-Roman" font-size="32.8" fill="#414040" transform="matrix(1.00, 0.00, -0.00, -1.00, 115.0, 309.0)">I</text><text xml:space="preserve" font-family="Palatino-Roman" font-size="32.8" fill="#414040" transform="matrix(1.00, 0.00, -0.00, -1.00, 126.0, 309.0)">s</text><text xml:space="preserve" font-family="Palatino-Roman" font-size="32.8" fill="#414040" transform="matrix(1.00, 0.00, -0.00, -1.00, 139.9, 309.0)"> </text><text xml:space="preserve" font-family="Palatino-Roman" font-size="32.8" fill="#414040" transform="matrix(1.00, 0.00, -0.00, -1.00, 148.1, 309.0)">a</text><text xml:space="preserve" font-family="Palatino-Roman" font-size="32.8" fill="#414040" transform="matrix(1.00, 0.00, -0.00, -1.00, 164.5, 309.0)"> </text><text xml:space="preserve" font-family="Palatino-Roman" font-size="32.8" fill="#414040" transform="matrix(1.00, 0.00, -0.00, -1.00, 172.7, 309.0)">„</text><text xml:space="preserve" font-family="Palatino-Roman" font-size="32.8" fill="#414040" transform="matrix(1.00, 0.00, -0.00, -1.00, 189.1, 309.0)">D</text><text xml:space="preserve" font-family="Palatino-Roman" font-size="32.8" fill="#414040" transform="matrix(1.00, 0.00, -0.00, -1.00, 214.4, 309.0)">e</text><text xml:space="preserve" font-family="Palatino-Roman" font-size="32.8" fill="#414040" transform="matrix(1.00, 0.00, -0.00, -1.00, 230.1, 309.0)">v</text><text xml:space="preserve" font-family="Palatino-Roman" font-size="32.8" fill="#414040" transform="matrix(1.00, 0.00, -0.00, -1.00, 248.6, 309.0)">-</text><text xml:space="preserve" font-family="Palatino-Roman" font-size="32.8" fill="#414040" transform="matrix(1.00, 0.00, -0.00, -1.00, 259.5, 309.0)">O</text><text xml:space="preserve" font-family="Palatino-Roman" font-size="32.8" fill="#414040" transform="matrix(1.00, 0.00, -0.00, -1.00, 285.3, 309.0)">p</text><text xml:space="preserve" font-family="Palatino-Roman" font-size="32.8" fill="#414040" transform="matrix(1.00, 0.00, -0.00, -1.00, 305.0, 309.0)">s</text><text xml:space="preserve" font-family="Palatino-Roman" font-size="32.8" fill="#414040" transform="matrix(1.00, 0.00, -0.00, -1.00, 318.8, 309.0)">”</text><text xml:space="preserve" font-family="Palatino-Roman" font-size="32.8" fill="#414040" transform="matrix(1.00, 0.00, -0.00, -1.00, 335.2, 309.0)"> </text><text xml:space="preserve" font-family="Palatino-Roman" font-size="32.8" fill="#414040" transform="matrix(1.00, 0.00, -0.00, -1.00, 343.4, 309.0)">w</text><text xml:space="preserve" font-family="Palatino-Roman" font-size="32.8" fill="#414040" transform="matrix(1.00, 0.00, -0.00, -1.00, 370.7, 309.0)">a</text><text xml:space="preserve" font-family="Palatino-Roman" font-size="32.8" fill="#414040" transform="matrix(1.00, 0.00, -0.00, -1.00, 387.1, 309.0)">s</text><text xml:space="preserve" font-family="Palatino-Roman" font-size="32.8" fill="#414040" transform="matrix(1.00, 0.00, -0.00, -1.00, 401.0, 309.0)">t</text><text xml:space="preserve" font-family="Palatino-Roman" font-size="32.8" fill="#414040" transform="matrix(1.00, 0.00, -0.00, -1.00, 411.7, 309.0)">i</text><text xml:space="preserve" font-family="Palatino-Roman" font-size="32.8" fill="#414040" transform="matrix(1.00, 0.00, -0.00, -1.00, 421.2, 309.0)">n</text><text xml:space="preserve" font-family="Palatino-Roman" font-size="32.8" fill="#414040" transform="matrix(1.00, 0.00, -0.00, -1.00, 440.3, 309.0)">g</text><text xml:space="preserve" font-family="Palatino-Roman" font-size="32.8" fill="#414040" transform="matrix(1.00, 0.00, -0.00, -1.00, 458.5, 309.0)"> </text><text xml:space="preserve" font-family="Palatino-Roman" font-size="32.8" fill="#414040" transform="matrix(1.00, 0.00, -0.00, -1.00, 466.7, 309.0)">a</text><text xml:space="preserve" font-family="Palatino-Roman" font-size="32.8" fill="#414040" transform="matrix(1.00, 0.00, -0.00, -1.00, 483.1, 309.0)"> </text><text xml:space="preserve" font-family="Palatino-Roman" font-size="32.8" fill="#414040" transform="matrix(1.00, 0.00, -0.00, -1.00, 491.3, 309.0)">r</text><text xml:space="preserve" font-family="Palatino-Roman" font-size="32.8" fill="#414040" transform="matrix(1.00, 0.00, -0.00, -1.00, 503.6, 309.0)">e</text><text xml:space="preserve" font-family="Palatino-Roman" font-size="32.8" fill="#414040" transform="matrix(1.00, 0.00, -0.00, -1.00, 519.3, 309.0)">s</text><text xml:space="preserve" font-family="Palatino-Roman" font-size="32.8" fill="#414040" transform="matrix(1.00, 0.00, -0.00, -1.00, 533.2, 309.0)">o</text><text xml:space="preserve" font-family="Palatino-Roman" font-size="32.8" fill="#414040" transform="matrix(1.00, 0.00, -0.00, -1.00, 551.1, 309.0)">u</text><text xml:space="preserve" font-family="Palatino-Roman" font-size="32.8" fill="#414040" transform="matrix(1.00, 0.00, -0.00, -1.00, 570.8, 309.0)">r</text><text xml:space="preserve" font-family="Palatino-Roman" font-size="32.8" fill="#414040" transform="matrix(1.00, 0.00, -0.00, -1.00, 583.2, 309.0)">c</text><text xml:space="preserve" font-family="Palatino-Roman" font-size="32.8" fill="#414040" transform="matrix(1.00, 0.00, -0.00, -1.00, 597.7, 309.0)">e</text><text xml:space="preserve" font-family="Palatino-Roman" font-size="32.8" fill="#414040" transform="matrix(1.00, 0.00, -0.00, -1.00, 613.4, 309.0)">s</text><text xml:space="preserve" font-family="Palatino-Roman" font-size="32.8" fill="#414040" transform="matrix(1.00, 0.00, -0.00, -1.00, 627.3, 309.0)">?</text><text xml:space="preserve" font-family="ZapfDingbatsITC" font-size="19.7" fill="#919191" transform="matrix(1.00, 0.00, -0.00, -1.00, 118.0, 249.1)">❖</text><text xml:space="preserve" font-family="Palatino-Roman" font-size="32.8" fill="#414040" transform="matrix(1.00, 0.00, -0.00, -1.00, 152.0, 244.0)">H</text><text xml:space="preserve" font-family="Palatino-Roman" font-size="32.8" fill="#414040" transform="matrix(1.00, 0.00, -0.00, -1.00, 179.3, 244.0)">o</text><text xml:space="preserve" font-family="Palatino-Roman" font-size="32.8" fill="#414040" transform="matrix(1.00, 0.00, -0.00, -1.00, 197.1, 244.0)">w</text><text xml:space="preserve" font-family="Palatino-Roman" font-size="32.8" fill="#414040" transform="matrix(1.00, 0.00, -0.00, -1.00, 224.5, 244.0)"> </text><text xml:space="preserve" font-family="Palatino-Roman" font-size="32.8" fill="#414040" transform="matrix(1.00, 0.00, -0.00, -1.00, 232.6, 244.0)">e</text><text xml:space="preserve" font-family="Palatino-Roman" font-size="32.8" fill="#414040" transform="matrix(1.00, 0.00, -0.00, -1.00, 248.3, 244.0)">f</text><text xml:space="preserve" font-family="Palatino-Roman" font-size="32.8" fill="#414040" transform="matrix(1.00, 0.00, -0.00, -1.00, 259.3, 244.0)">ﬁ</text><text xml:space="preserve" font-family="Palatino-Roman" font-size="32.8" fill="#414040" transform="matrix(1.00, 0.00, -0.00, -1.00, 279.1, 244.0)">c</text><text xml:space="preserve" font-family="Palatino-Roman" font-size="32.8" fill="#414040" transform="matrix(1.00, 0.00, -0.00, -1.00, 293.6, 244.0)">i</text><text xml:space="preserve" font-family="Palatino-Roman" font-size="32.8" fill="#414040" transform="matrix(1.00, 0.00, -0.00, -1.00, 303.1, 244.0)">e</text><text xml:space="preserve" font-family="Palatino-Roman" font-size="32.8" fill="#414040" transform="matrix(1.00, 0.00, -0.00, -1.00, 318.8, 244.0)">n</text><text xml:space="preserve" font-family="Palatino-Roman" font-size="32.8" fill="#414040" transform="matrix(1.00, 0.00, -0.00, -1.00, 337.9, 244.0)">c</text><text xml:space="preserve" font-family="Palatino-Roman" font-size="32.8" fill="#414040" transform="matrix(1.00, 0.00, -0.00, -1.00, 352.4, 244.0)">y</text><text xml:space="preserve" font-family="Palatino-Roman" font-size="32.8" fill="#414040" transform="matrix(1.00, 0.00, -0.00, -1.00, 370.7, 244.0)"> </text><text xml:space="preserve" font-family="Palatino-Roman" font-size="32.8" fill="#414040" transform="matrix(1.00, 0.00, -0.00, -1.00, 378.8, 244.0)">„</text><text xml:space="preserve" font-family="Palatino-Roman" font-size="32.8" fill="#414040" transform="matrix(1.00, 0.00, -0.00, -1.00, 395.2, 244.0)">D</text><text xml:space="preserve" font-family="Palatino-Roman" font-size="32.8" fill="#414040" transform="matrix(1.00, 0.00, -0.00, -1.00, 420.6, 244.0)">e</text><text xml:space="preserve" font-family="Palatino-Roman" font-size="32.8" fill="#414040" transform="matrix(1.00, 0.00, -0.00, -1.00, 436.3, 244.0)">v</text><text xml:space="preserve" font-family="Palatino-Roman" font-size="32.8" fill="#414040" transform="matrix(1.00, 0.00, -0.00, -1.00, 454.8, 244.0)">-</text><text xml:space="preserve" font-family="Palatino-Roman" font-size="32.8" fill="#414040" transform="matrix(1.00, 0.00, -0.00, -1.00, 465.7, 244.0)">O</text><text xml:space="preserve" font-family="Palatino-Roman" font-size="32.8" fill="#414040" transform="matrix(1.00, 0.00, -0.00, -1.00, 491.4, 244.0)">p</text><text xml:space="preserve" font-family="Palatino-Roman" font-size="32.8" fill="#414040" transform="matrix(1.00, 0.00, -0.00, -1.00, 511.1, 244.0)">s</text><text xml:space="preserve" font-family="Palatino-Roman" font-size="32.8" fill="#414040" transform="matrix(1.00, 0.00, -0.00, -1.00, 525.0, 244.0)">”</text><text xml:space="preserve" font-family="Palatino-Roman" font-size="32.8" fill="#414040" transform="matrix(1.00, 0.00, -0.00, -1.00, 541.4, 244.0)"> </text><text xml:space="preserve" font-family="Palatino-Roman" font-size="32.8" fill="#414040" transform="matrix(1.00, 0.00, -0.00, -1.00, 549.6, 244.0)">i</text><text xml:space="preserve" font-family="Palatino-Roman" font-size="32.8" fill="#414040" transform="matrix(1.00, 0.00, -0.00, -1.00, 559.1, 244.0)">s</text><text xml:space="preserve" font-family="Palatino-Roman" font-size="32.8" fill="#414040" transform="matrix(1.00, 0.00, -0.00, -1.00, 573.0, 244.0)">?</text><text xml:space="preserve" font-family="ZapfDingbatsITC" font-size="19.7" fill="#919191" transform="matrix(1.00, 0.00, -0.00, -1.00, 155.0, 184.3)">❖</text><text xml:space="preserve" font-family="Palatino-Roman" font-size="32.8" fill="#414040" transform="matrix(1.00, 0.00, -0.00, -1.00, 189.0, 179.0)">W</text><text xml:space="preserve" font-family="Palatino-Roman" font-size="32.8" fill="#414040" transform="matrix(1.00, 0.00, -0.00, -1.00, 221.8, 179.0)">h</text><text xml:space="preserve" font-family="Palatino-Roman" font-size="32.8" fill="#414040" transform="matrix(1.00, 0.00, -0.00, -1.00, 240.8, 179.0)">a</text><text xml:space="preserve" font-family="Palatino-Roman" font-size="32.8" fill="#414040" transform="matrix(1.00, 0.00, -0.00, -1.00, 257.2, 179.0)">t</text><text xml:space="preserve" font-family="Palatino-Roman" font-size="32.8" fill="#414040" transform="matrix(1.00, 0.00, -0.00, -1.00, 267.9, 179.0)"> </text><text xml:space="preserve" font-family="Palatino-Roman" font-size="32.8" fill="#414040" transform="matrix(1.00, 0.00, -0.00, -1.00, 276.1, 179.0)">i</text><text xml:space="preserve" font-family="Palatino-Roman" font-size="32.8" fill="#414040" transform="matrix(1.00, 0.00, -0.00, -1.00, 285.6, 179.0)">s</text><text xml:space="preserve" font-family="Palatino-Roman" font-size="32.8" fill="#414040" transform="matrix(1.00, 0.00, -0.00, -1.00, 299.5, 179.0)"> </text><text xml:space="preserve" font-family="Palatino-Roman" font-size="32.8" fill="#414040" transform="matrix(1.00, 0.00, -0.00, -1.00, 307.7, 179.0)">„</text><text xml:space="preserve" font-family="Palatino-Roman" font-size="32.8" fill="#414040" transform="matrix(1.00, 0.00, -0.00, -1.00, 324.1, 179.0)">w</text><text xml:space="preserve" font-family="Palatino-Roman" font-size="32.8" fill="#414040" transform="matrix(1.00, 0.00, -0.00, -1.00, 351.4, 179.0)">a</text><text xml:space="preserve" font-family="Palatino-Roman" font-size="32.8" fill="#414040" transform="matrix(1.00, 0.00, -0.00, -1.00, 367.8, 179.0)">s</text><text xml:space="preserve" font-family="Palatino-Roman" font-size="32.8" fill="#414040" transform="matrix(1.00, 0.00, -0.00, -1.00, 381.7, 179.0)">t</text><text xml:space="preserve" font-family="Palatino-Roman" font-size="32.8" fill="#414040" transform="matrix(1.00, 0.00, -0.00, -1.00, 392.3, 179.0)">e</text><text xml:space="preserve" font-family="Palatino-Roman" font-size="32.8" fill="#414040" transform="matrix(1.00, 0.00, -0.00, -1.00, 408.0, 179.0)">”</text><text xml:space="preserve" font-family="Palatino-Roman" font-size="32.8" fill="#414040" transform="matrix(1.00, 0.00, -0.00, -1.00, 424.4, 179.0)"> </text><text xml:space="preserve" font-family="Palatino-Roman" font-size="32.8" fill="#414040" transform="matrix(1.00, 0.00, -0.00, -1.00, 432.6, 179.0)">i</text><text xml:space="preserve" font-family="Palatino-Roman" font-size="32.8" fill="#414040" transform="matrix(1.00, 0.00, -0.00, -1.00, 442.1, 179.0)">n</text><text xml:space="preserve" font-family="Palatino-Roman" font-size="32.8" fill="#414040" transform="matrix(1.00, 0.00, -0.00, -1.00, 461.2, 179.0)"> </text><text xml:space="preserve" font-family="Palatino-Roman" font-size="32.8" fill="#414040" transform="matrix(1.00, 0.00, -0.00, -1.00, 469.4, 179.0)">o</text><text xml:space="preserve" font-family="Palatino-Roman" font-size="32.8" fill="#414040" transform="matrix(1.00, 0.00, -0.00, -1.00, 487.3, 179.0)">t</text><text xml:space="preserve" font-family="Palatino-Roman" font-size="32.8" fill="#414040" transform="matrix(1.00, 0.00, -0.00, -1.00, 498.0, 179.0)">h</text><text xml:space="preserve" font-family="Palatino-Roman" font-size="32.8" fill="#414040" transform="matrix(1.00, 0.00, -0.00, -1.00, 517.0, 179.0)">e</text><text xml:space="preserve" font-family="Palatino-Roman" font-size="32.8" fill="#414040" transform="matrix(1.00, 0.00, -0.00, -1.00, 532.7, 179.0)">r</text><text xml:space="preserve" font-family="Palatino-Roman" font-size="32.8" fill="#414040" transform="matrix(1.00, 0.00, -0.00, -1.00, 545.7, 179.0)"> </text><text xml:space="preserve" font-family="Palatino-Roman" font-size="32.8" fill="#414040" transform="matrix(1.00, 0.00, -0.00, -1.00, 553.9, 179.0)">m</text><text xml:space="preserve" font-family="Palatino-Roman" font-size="32.8" fill="#414040" transform="matrix(1.00, 0.00, -0.00, -1.00, 582.8, 179.0)">e</text><text xml:space="preserve" font-family="Palatino-Roman" font-size="32.8" fill="#414040" transform="matrix(1.00, 0.00, -0.00, -1.00, 598.5, 179.0)">t</text><text xml:space="preserve" font-family="Palatino-Roman" font-size="32.8" fill="#414040" transform="matrix(1.00, 0.00, -0.00, -1.00, 609.2, 179.0)">h</text><text xml:space="preserve" font-family="Palatino-Roman" font-size="32.8" fill="#414040" transform="matrix(1.00, 0.00, -0.00, -1.00, 628.2, 179.0)">o</text><text xml:space="preserve" font-family="Palatino-Roman" font-size="32.8" fill="#414040" transform="matrix(1.00, 0.00, -0.00, -1.00, 646.1, 179.0)">d</text><text xml:space="preserve" font-family="Palatino-Roman" font-size="32.8" fill="#414040" transform="matrix(1.00, 0.00, -0.00, -1.00, 666.1, 179.0)">o</text><text xml:space="preserve" font-family="Palatino-Roman" font-size="32.8" fill="#414040" transform="matrix(1.00, 0.00, -0.00, -1.00, 684.0, 179.0)">l</text><text xml:space="preserve" font-family="Palatino-Roman" font-size="32.8" fill="#414040" transform="matrix(1.00, 0.00, -0.00, -1.00, 693.5, 179.0)">o</text><text xml:space="preserve" font-family="Palatino-Roman" font-size="32.8" fill="#414040" transform="matrix(1.00, 0.00, -0.00, -1.00, 711.4, 179.0)">g</text><text xml:space="preserve" font-family="Palatino-Roman" font-size="32.8" fill="#414040" transform="matrix(1.00, 0.00, -0.00, -1.00, 729.6, 179.0)">i</text><text xml:space="preserve" font-family="Palatino-Roman" font-size="32.8" fill="#414040" transform="matrix(1.00, 0.00, -0.00, -1.00, 739.2, 179.0)">e</text><text xml:space="preserve" font-family="Palatino-Roman" font-size="32.8" fill="#414040" transform="matrix(1.00, 0.00, -0.00, -1.00, 754.9, 179.0)">s</text><text xml:space="preserve" font-family="Palatino-Roman" font-size="32.8" fill="#414040" transform="matrix(1.00, 0.00, -0.00, -1.00, 768.7, 179.0)">?</text><text xml:space="preserve" font-family="ZapfDingbatsITC" font-size="19.7" fill="#919191" transform="matrix(1.00, 0.00, -0.00, -1.00, 192.0, 119.4)">❖</text><text xml:space="preserve" font-family="Palatino-Roman" font-size="32.8" fill="#414040" transform="matrix(1.00, 0.00, -0.00, -1.00, 226.0, 114.0)">I</text><text xml:space="preserve" font-family="Palatino-Roman" font-size="32.8" fill="#414040" transform="matrix(1.00, 0.00, -0.00, -1.00, 237.0, 114.0)">s</text><text xml:space="preserve" font-family="Palatino-Roman" font-size="32.8" fill="#414040" transform="matrix(1.00, 0.00, -0.00, -1.00, 250.9, 114.0)"> </text><text xml:space="preserve" font-family="Palatino-Roman" font-size="32.8" fill="#414040" transform="matrix(1.00, 0.00, -0.00, -1.00, 259.1, 114.0)">t</text><text xml:space="preserve" font-family="Palatino-Roman" font-size="32.8" fill="#414040" transform="matrix(1.00, 0.00, -0.00, -1.00, 269.8, 114.0)">h</text><text xml:space="preserve" font-family="Palatino-Roman" font-size="32.8" fill="#414040" transform="matrix(1.00, 0.00, -0.00, -1.00, 288.9, 114.0)">e</text><text xml:space="preserve" font-family="Palatino-Roman" font-size="32.8" fill="#414040" transform="matrix(1.00, 0.00, -0.00, -1.00, 304.6, 114.0)">r</text><text xml:space="preserve" font-family="Palatino-Roman" font-size="32.8" fill="#414040" transform="matrix(1.00, 0.00, -0.00, -1.00, 316.9, 114.0)">e</text><text xml:space="preserve" font-family="Palatino-Roman" font-size="32.8" fill="#414040" transform="matrix(1.00, 0.00, -0.00, -1.00, 332.6, 114.0)"> </text><text xml:space="preserve" font-family="Palatino-Roman" font-size="32.8" fill="#414040" transform="matrix(1.00, 0.00, -0.00, -1.00, 340.8, 114.0)">b</text><text xml:space="preserve" font-family="Palatino-Roman" font-size="32.8" fill="#414040" transform="matrix(1.00, 0.00, -0.00, -1.00, 358.9, 114.0)">e</text><text xml:space="preserve" font-family="Palatino-Roman" font-size="32.8" fill="#414040" transform="matrix(1.00, 0.00, -0.00, -1.00, 374.6, 114.0)">t</text><text xml:space="preserve" font-family="Palatino-Roman" font-size="32.8" fill="#414040" transform="matrix(1.00, 0.00, -0.00, -1.00, 385.3, 114.0)">t</text><text xml:space="preserve" font-family="Palatino-Roman" font-size="32.8" fill="#414040" transform="matrix(1.00, 0.00, -0.00, -1.00, 396.0, 114.0)">e</text><text xml:space="preserve" font-family="Palatino-Roman" font-size="32.8" fill="#414040" transform="matrix(1.00, 0.00, -0.00, -1.00, 411.7, 114.0)">r</text><text xml:space="preserve" font-family="Palatino-Roman" font-size="32.8" fill="#414040" transform="matrix(1.00, 0.00, -0.00, -1.00, 424.6, 114.0)"> </text><text xml:space="preserve" font-family="Palatino-Roman" font-size="32.8" fill="#414040" transform="matrix(1.00, 0.00, -0.00, -1.00, 432.8, 114.0)">p</text><text xml:space="preserve" font-family="Palatino-Roman" font-size="32.8" fill="#414040" transform="matrix(1.00, 0.00, -0.00, -1.00, 452.5, 114.0)">r</text><text xml:space="preserve" font-family="Palatino-Roman" font-size="32.8" fill="#414040" transform="matrix(1.00, 0.00, -0.00, -1.00, 464.9, 114.0)">o</text><text xml:space="preserve" font-family="Palatino-Roman" font-size="32.8" fill="#414040" transform="matrix(1.00, 0.00, -0.00, -1.00, 482.8, 114.0)">d</text><text xml:space="preserve" font-family="Palatino-Roman" font-size="32.8" fill="#414040" transform="matrix(1.00, 0.00, -0.00, -1.00, 502.8, 114.0)">u</text><text xml:space="preserve" font-family="Palatino-Roman" font-size="32.8" fill="#414040" transform="matrix(1.00, 0.00, -0.00, -1.00, 522.5, 114.0)">c</text><text xml:space="preserve" font-family="Palatino-Roman" font-size="32.8" fill="#414040" transform="matrix(1.00, 0.00, -0.00, -1.00, 537.1, 114.0)">t</text><text xml:space="preserve" font-family="Palatino-Roman" font-size="32.8" fill="#414040" transform="matrix(1.00, 0.00, -0.00, -1.00, 547.8, 114.0)"> </text><text xml:space="preserve" font-family="Palatino-Roman" font-size="32.8" fill="#414040" transform="matrix(1.00, 0.00, -0.00, -1.00, 555.9, 114.0)">q</text><text xml:space="preserve" font-family="Palatino-Roman" font-size="32.8" fill="#414040" transform="matrix(1.00, 0.00, -0.00, -1.00, 574.3, 114.0)">u</text><text xml:space="preserve" font-family="Palatino-Roman" font-size="32.8" fill="#414040" transform="matrix(1.00, 0.00, -0.00, -1.00, 594.0, 114.0)">a</text><text xml:space="preserve" font-family="Palatino-Roman" font-size="32.8" fill="#414040" transform="matrix(1.00, 0.00, -0.00, -1.00, 610.4, 114.0)">l</text><text xml:space="preserve" font-family="Palatino-Roman" font-size="32.8" fill="#414040" transform="matrix(1.00, 0.00, -0.00, -1.00, 620.0, 114.0)">i</text><text xml:space="preserve" font-family="Palatino-Roman" font-size="32.8" fill="#414040" transform="matrix(1.00, 0.00, -0.00, -1.00, 629.5, 114.0)">t</text><text xml:space="preserve" font-family="Palatino-Roman" font-size="32.8" fill="#414040" transform="matrix(1.00, 0.00, -0.00, -1.00, 640.2, 114.0)">y</text><text xml:space="preserve" font-family="Palatino-Roman" font-size="32.8" fill="#414040" transform="matrix(1.00, 0.00, -0.00, -1.00, 658.4, 114.0)"> </text><text xml:space="preserve" font-family="Palatino-Roman" font-size="32.8" fill="#414040" transform="matrix(1.00, 0.00, -0.00, -1.00, 666.6, 114.0)">i</text><text xml:space="preserve" font-family="Palatino-Roman" font-size="32.8" fill="#414040" transform="matrix(1.00, 0.00, -0.00, -1.00, 676.1, 114.0)">n</text><text xml:space="preserve" font-family="Palatino-Roman" font-size="32.8" fill="#414040" transform="matrix(1.00, 0.00, -0.00, -1.00, 695.2, 114.0)"> </text><text xml:space="preserve" font-family="Palatino-Roman" font-size="32.8" fill="#414040" transform="matrix(1.00, 0.00, -0.00, -1.00, 703.4, 114.0)">D</text><text xml:space="preserve" font-family="Palatino-Roman" font-size="32.8" fill="#414040" transform="matrix(1.00, 0.00, -0.00, -1.00, 728.7, 114.0)">e</text><text xml:space="preserve" font-family="Palatino-Roman" font-size="32.8" fill="#414040" transform="matrix(1.00, 0.00, -0.00, -1.00, 744.4, 114.0)">v</text><text xml:space="preserve" font-family="Palatino-Roman" font-size="32.8" fill="#414040" transform="matrix(1.00, 0.00, -0.00, -1.00, 762.9, 114.0)">-</text><text xml:space="preserve" font-family="Palatino-Roman" font-size="32.8" fill="#414040" transform="matrix(1.00, 0.00, -0.00, -1.00, 773.9, 114.0)">O</text><text xml:space="preserve" font-family="Palatino-Roman" font-size="32.8" fill="#414040" transform="matrix(1.00, 0.00, -0.00, -1.00, 799.6, 114.0)">p</text><text xml:space="preserve" font-family="Palatino-Roman" font-size="32.8" fill="#414040" transform="matrix(1.00, 0.00, -0.00, -1.00, 819.3, 114.0)">s</text><text xml:space="preserve" font-family="Palatino-Roman" font-size="32.8" fill="#414040" transform="matrix(1.00, 0.00, -0.00, -1.00, 833.2, 114.0)">?</text></g></svg>