<?xml version="1.0" encoding="UTF-8" standalone="no"?><svg xmlns="http://www.w3.org/2000/svg" xmlns:xlink="http://www.w3.org/1999/xlink" clip-rule="evenodd" stroke-miterlimit="4.00" viewBox="0 0 229 25"><desc>SVG generated by Keynote</desc><defs></defs><g transform="matrix(1.00, 0.00, -0.00, -1.00, 0.0, 25.0)"><text xml:space="preserve" font-family="Palatino-Italic" font-style="italic" font-size="30.0" fill="#414040" transform="matrix(1.00, 0.00, -0.00, -1.00, 2.0, 2.0)">–</text><text xml:space="preserve" font-family="Palatino-Italic" font-style="italic" font-size="30.0" fill="#414040" transform="matrix(1.00, 0.00, -0.00, -1.00, 17.0, 2.0)"> </text><text xml:space="preserve" font-family="Palatino-Italic" font-style="italic" font-size="30.0" fill="#414040" transform="matrix(1.00, 0.00, -0.00, -1.00, 24.5, 2.0)">D</text><text xml:space="preserve" font-family="Palatino-Italic" font-style="italic" font-size="30.0" fill="#414040" transform="matrix(1.00, 0.00, -0.00, -1.00, 47.8, 2.0)">a</text><text xml:space="preserve" font-family="Palatino-Italic" font-style="italic" font-size="30.0" fill="#414040" transform="matrix(1.00, 0.00, -0.00, -1.00, 61.1, 2.0)">l</text><text xml:space="preserve" font-family="Palatino-Italic" font-style="italic" font-size="30.0" fill="#414040" transform="matrix(1.00, 0.00, -0.00, -1.00, 69.5, 2.0)">a</text><text xml:space="preserve" font-family="Palatino-Italic" font-style="italic" font-size="30.0" fill="#414040" transform="matrix(1.00, 0.00, -0.00, -1.00, 82.8, 2.0)">i</text><text xml:space="preserve" font-family="Palatino-Italic" font-style="italic" font-size="30.0" fill="#414040" transform="matrix(1.00, 0.00, -0.00, -1.00, 91.1, 2.0)"> </text><text xml:space="preserve" font-family="Palatino-Italic" font-style="italic" font-size="30.0" fill="#414040" transform="matrix(1.00, 0.00, -0.00, -1.00, 98.6, 2.0)">L</text><text xml:space="preserve" font-family="Palatino-Italic" font-style="italic" font-size="30.0" fill="#414040" transform="matrix(1.00, 0.00, -0.00, -1.00, 115.3, 2.0)">a</text><text xml:space="preserve" font-family="Palatino-Italic" font-style="italic" font-size="30.0" fill="#414040" transform="matrix(1.00, 0.00, -0.00, -1.00, 128.6, 2.0)">m</text><text xml:space="preserve" font-family="Palatino-Italic" font-style="italic" font-size="30.0" fill="#414040" transform="matrix(1.00, 0.00, -0.00, -1.00, 151.9, 2.0)">a</text><text xml:space="preserve" font-family="Palatino-Italic" font-style="italic" font-size="30.0" fill="#414040" transform="matrix(1.00, 0.00, -0.00, -1.00, 165.2, 2.0)"> </text><text xml:space="preserve" font-family="Palatino-Italic" font-style="italic" font-size="30.0" fill="#414040" transform="matrix(1.00, 0.00, -0.00, -1.00, 172.7, 2.0)">X</text><text xml:space="preserve" font-family="Palatino-Italic" font-style="italic" font-size="30.0" fill="#414040" transform="matrix(1.00, 0.00, -0.00, -1.00, 194.4, 2.0)">I</text><text xml:space="preserve" font-family="Palatino-Italic" font-style="italic" font-size="30.0" fill="#414040" transform="matrix(1.00, 0.00, -0.00, -1.00, 204.4, 2.0)">V</text></g></svg>