<?xml version="1.0" encoding="UTF-8" standalone="no"?><svg xmlns="http://www.w3.org/2000/svg" xmlns:xlink="http://www.w3.org/1999/xlink" clip-rule="evenodd" stroke-miterlimit="4.00" viewBox="0 0 1024 768"><desc>SVG generated by Keynote</desc><defs></defs><g transform="matrix(1.00, 0.00, -0.00, -1.00, 0.0, 768.0)"><g><clipPath id="clip-101"><path d="M 0.0 768.0 L 1024.0 768.0 L 1024.0 0.0 L 0.0 0.0 Z M 0.0 768.0 "></path></clipPath><g clip-path="url(#clip-101)"><image xlink:href="../../EB4A9AD7-9766-4570-86E7-B488A0CF42BD/assets/50163466EC2834942505D00A94D158E6.jpeg" width="1024.00" height="768.00" transform="matrix(1.00, 0.00, -0.00, -1.00, 0.0, 768.0)"></image></g></g><g opacity="0.30"><g><clipPath id="clip-102"><path d="M 39.0 595.0 L 986.0 595.0 L 986.0 599.0 L 39.0 599.0 Z M 39.0 595.0 "></path></clipPath><g clip-path="url(#clip-102)"><path d="M 0.0 0.0 L 944.7 0.0 " fill="none" stroke="#434343" stroke-width="1.00" transform="matrix(1.00, 0.00, 0.00, -1.00, 40.0, 597.0)"></path></g></g></g><g opacity="0.30"><g><clipPath id="clip-103"><path d="M 39.0 716.0 L 986.0 716.0 L 986.0 720.0 L 39.0 720.0 Z M 39.0 716.0 "></path></clipPath><g clip-path="url(#clip-103)"><path d="M 0.0 0.0 L 944.7 0.0 " fill="none" stroke="#434343" stroke-width="1.00" transform="matrix(1.00, 0.00, 0.00, -1.00, 40.0, 718.0)"></path></g></g></g><text xml:space="preserve" font-family="BodoniSvtyTwoITCTT-Book" font-size="70.0" fill="#D93D2A" transform="matrix(1.00, 0.00, -0.00, -1.00, 337.0, 633.0)">T</text><text xml:space="preserve" font-family="BodoniSvtyTwoITCTT-Book" font-size="70.0" fill="#D93D2A" transform="matrix(1.00, 0.00, -0.00, -1.00, 378.0, 633.0)">a</text><text xml:space="preserve" font-family="BodoniSvtyTwoITCTT-Book" font-size="70.0" fill="#D93D2A" transform="matrix(1.00, 0.00, -0.00, -1.00, 405.8, 633.0)">s</text><text xml:space="preserve" font-family="BodoniSvtyTwoITCTT-Book" font-size="70.0" fill="#D93D2A" transform="matrix(1.00, 0.00, -0.00, -1.00, 431.1, 633.0)">k</text><text xml:space="preserve" font-family="BodoniSvtyTwoITCTT-Book" font-size="70.0" fill="#D93D2A" transform="matrix(1.00, 0.00, -0.00, -1.00, 464.0, 633.0)">s</text><text xml:space="preserve" font-family="BodoniSvtyTwoITCTT-Book" font-size="70.0" fill="#D93D2A" transform="matrix(1.00, 0.00, -0.00, -1.00, 489.3, 633.0)"> </text><text xml:space="preserve" font-family="BodoniSvtyTwoITCTT-Book" font-size="70.0" fill="#D93D2A" transform="matrix(1.00, 0.00, -0.00, -1.00, 502.3, 633.0)">f</text><text xml:space="preserve" font-family="BodoniSvtyTwoITCTT-Book" font-size="70.0" fill="#D93D2A" transform="matrix(1.00, 0.00, -0.00, -1.00, 520.8, 633.0)">o</text><text xml:space="preserve" font-family="BodoniSvtyTwoITCTT-Book" font-size="70.0" fill="#D93D2A" transform="matrix(1.00, 0.00, -0.00, -1.00, 554.4, 633.0)">r</text><text xml:space="preserve" font-family="BodoniSvtyTwoITCTT-Book" font-size="70.0" fill="#D93D2A" transform="matrix(1.00, 0.00, -0.00, -1.00, 578.1, 633.0)"> </text><text xml:space="preserve" font-family="BodoniSvtyTwoITCTT-Book" font-size="70.0" fill="#D93D2A" transform="matrix(1.00, 0.00, -0.00, -1.00, 591.1, 633.0)">y</text><text xml:space="preserve" font-family="BodoniSvtyTwoITCTT-Book" font-size="70.0" fill="#D93D2A" transform="matrix(1.00, 0.00, -0.00, -1.00, 619.2, 633.0)">o</text><text xml:space="preserve" font-family="BodoniSvtyTwoITCTT-Book" font-size="70.0" fill="#D93D2A" transform="matrix(1.00, 0.00, -0.00, -1.00, 652.8, 633.0)">u</text><text xml:space="preserve" font-family="Palatino-Roman" font-size="34.2" fill="#414040" transform="matrix(1.00, 0.00, -0.00, -1.00, 44.0, 522.5)">1</text><text xml:space="preserve" font-family="Palatino-Roman" font-size="34.2" fill="#414040" transform="matrix(1.00, 0.00, -0.00, -1.00, 61.1, 522.5)">.</text><text xml:space="preserve" font-family="Palatino-Roman" font-size="34.2" fill="#414040" transform="matrix(1.00, 0.00, -0.00, -1.00, 93.0, 522.0)">S</text><text xml:space="preserve" font-family="Palatino-Roman" font-size="34.2" fill="#414040" transform="matrix(1.00, 0.00, -0.00, -1.00, 110.9, 522.0)">p</text><text xml:space="preserve" font-family="Palatino-Roman" font-size="34.2" fill="#414040" transform="matrix(1.00, 0.00, -0.00, -1.00, 131.5, 522.0)">l</text><text xml:space="preserve" font-family="Palatino-Roman" font-size="34.2" fill="#414040" transform="matrix(1.00, 0.00, -0.00, -1.00, 141.5, 522.0)">i</text><text xml:space="preserve" font-family="Palatino-Roman" font-size="34.2" fill="#414040" transform="matrix(1.00, 0.00, -0.00, -1.00, 151.4, 522.0)">t</text><text xml:space="preserve" font-family="Palatino-Roman" font-size="34.2" fill="#414040" transform="matrix(1.00, 0.00, -0.00, -1.00, 162.6, 522.0)"> </text><text xml:space="preserve" font-family="Palatino-Roman" font-size="34.2" fill="#414040" transform="matrix(1.00, 0.00, -0.00, -1.00, 171.1, 522.0)">y</text><text xml:space="preserve" font-family="Palatino-Roman" font-size="34.2" fill="#414040" transform="matrix(1.00, 0.00, -0.00, -1.00, 190.2, 522.0)">o</text><text xml:space="preserve" font-family="Palatino-Roman" font-size="34.2" fill="#414040" transform="matrix(1.00, 0.00, -0.00, -1.00, 208.8, 522.0)">u</text><text xml:space="preserve" font-family="Palatino-Roman" font-size="34.2" fill="#414040" transform="matrix(1.00, 0.00, -0.00, -1.00, 229.4, 522.0)">r</text><text xml:space="preserve" font-family="Palatino-Roman" font-size="34.2" fill="#414040" transform="matrix(1.00, 0.00, -0.00, -1.00, 243.0, 522.0)">s</text><text xml:space="preserve" font-family="Palatino-Roman" font-size="34.2" fill="#414040" transform="matrix(1.00, 0.00, -0.00, -1.00, 257.4, 522.0)">e</text><text xml:space="preserve" font-family="Palatino-Roman" font-size="34.2" fill="#414040" transform="matrix(1.00, 0.00, -0.00, -1.00, 273.8, 522.0)">l</text><text xml:space="preserve" font-family="Palatino-Roman" font-size="34.2" fill="#414040" transform="matrix(1.00, 0.00, -0.00, -1.00, 283.8, 522.0)">f</text><text xml:space="preserve" font-family="Palatino-Roman" font-size="34.2" fill="#414040" transform="matrix(1.00, 0.00, -0.00, -1.00, 295.2, 522.0)"> </text><text xml:space="preserve" font-family="Palatino-Roman" font-size="34.2" fill="#414040" transform="matrix(1.00, 0.00, -0.00, -1.00, 303.7, 522.0)">i</text><text xml:space="preserve" font-family="Palatino-Roman" font-size="34.2" fill="#414040" transform="matrix(1.00, 0.00, -0.00, -1.00, 313.7, 522.0)">n</text><text xml:space="preserve" font-family="Palatino-Roman" font-size="34.2" fill="#414040" transform="matrix(1.00, 0.00, -0.00, -1.00, 333.6, 522.0)">t</text><text xml:space="preserve" font-family="Palatino-Roman" font-size="34.2" fill="#414040" transform="matrix(1.00, 0.00, -0.00, -1.00, 344.7, 522.0)">o</text><text xml:space="preserve" font-family="Palatino-Roman" font-size="34.2" fill="#414040" transform="matrix(1.00, 0.00, -0.00, -1.00, 363.4, 522.0)"> </text><text xml:space="preserve" font-family="Palatino-Roman" font-size="34.2" fill="#414040" transform="matrix(1.00, 0.00, -0.00, -1.00, 372.0, 522.0)">t</text><text xml:space="preserve" font-family="Palatino-Roman" font-size="34.2" fill="#414040" transform="matrix(1.00, 0.00, -0.00, -1.00, 383.1, 522.0)">w</text><text xml:space="preserve" font-family="Palatino-Roman" font-size="34.2" fill="#414040" transform="matrix(1.00, 0.00, -0.00, -1.00, 411.6, 522.0)">o</text><text xml:space="preserve" font-family="Palatino-Roman" font-size="34.2" fill="#414040" transform="matrix(1.00, 0.00, -0.00, -1.00, 430.3, 522.0)"> </text><text xml:space="preserve" font-family="Palatino-Roman" font-size="34.2" fill="#414040" transform="matrix(1.00, 0.00, -0.00, -1.00, 438.9, 522.0)">g</text><text xml:space="preserve" font-family="Palatino-Roman" font-size="34.2" fill="#414040" transform="matrix(1.00, 0.00, -0.00, -1.00, 457.9, 522.0)">r</text><text xml:space="preserve" font-family="Palatino-Roman" font-size="34.2" fill="#414040" transform="matrix(1.00, 0.00, -0.00, -1.00, 470.8, 522.0)">o</text><text xml:space="preserve" font-family="Palatino-Roman" font-size="34.2" fill="#414040" transform="matrix(1.00, 0.00, -0.00, -1.00, 489.5, 522.0)">u</text><text xml:space="preserve" font-family="Palatino-Roman" font-size="34.2" fill="#414040" transform="matrix(1.00, 0.00, -0.00, -1.00, 510.1, 522.0)">p</text><text xml:space="preserve" font-family="Palatino-Roman" font-size="34.2" fill="#414040" transform="matrix(1.00, 0.00, -0.00, -1.00, 530.6, 522.0)">s</text><text xml:space="preserve" font-family="Palatino-Roman" font-size="34.2" fill="#414040" transform="matrix(1.00, 0.00, -0.00, -1.00, 545.1, 522.0)"> </text><text xml:space="preserve" font-family="Palatino-Roman" font-size="34.2" fill="#414040" transform="matrix(1.00, 0.00, -0.00, -1.00, 553.7, 522.0)">-</text><text xml:space="preserve" font-family="Palatino-Roman" font-size="34.2" fill="#414040" transform="matrix(1.00, 0.00, -0.00, -1.00, 565.1, 522.0)"> </text><text xml:space="preserve" font-family="Palatino-Roman" font-size="34.2" fill="#414040" transform="matrix(1.00, 0.00, -0.00, -1.00, 573.6, 522.0)">2</text><text xml:space="preserve" font-family="Palatino-Roman" font-size="34.2" fill="#414040" transform="matrix(1.00, 0.00, -0.00, -1.00, 590.7, 522.0)"> </text><text xml:space="preserve" font-family="Palatino-Roman" font-size="34.2" fill="#414040" transform="matrix(1.00, 0.00, -0.00, -1.00, 599.3, 522.0)">m</text><text xml:space="preserve" font-family="Palatino-Roman" font-size="34.2" fill="#414040" transform="matrix(1.00, 0.00, -0.00, -1.00, 629.4, 522.0)">i</text><text xml:space="preserve" font-family="Palatino-Roman" font-size="34.2" fill="#414040" transform="matrix(1.00, 0.00, -0.00, -1.00, 639.4, 522.0)">n</text><text xml:space="preserve" font-family="Palatino-Roman" font-size="34.2" fill="#414040" transform="matrix(1.00, 0.00, -0.00, -1.00, 44.0, 455.7)">2</text><text xml:space="preserve" font-family="Palatino-Roman" font-size="34.2" fill="#414040" transform="matrix(1.00, 0.00, -0.00, -1.00, 61.1, 455.7)">.</text><text xml:space="preserve" font-family="Palatino-Roman" font-size="34.2" fill="#414040" transform="matrix(1.00, 0.00, -0.00, -1.00, 93.0, 456.0)">D</text><text xml:space="preserve" font-family="Palatino-Roman" font-size="34.2" fill="#414040" transform="matrix(1.00, 0.00, -0.00, -1.00, 119.5, 456.0)">e</text><text xml:space="preserve" font-family="Palatino-Roman" font-size="34.2" fill="#414040" transform="matrix(1.00, 0.00, -0.00, -1.00, 135.8, 456.0)">ï¬</text><text xml:space="preserve" font-family="Palatino-Roman" font-size="34.2" fill="#414040" transform="matrix(1.00, 0.00, -0.00, -1.00, 156.5, 456.0)">n</text><text xml:space="preserve" font-family="Palatino-Roman" font-size="34.2" fill="#414040" transform="matrix(1.00, 0.00, -0.00, -1.00, 176.4, 456.0)">e</text><text xml:space="preserve" font-family="Palatino-Roman" font-size="34.2" fill="#414040" transform="matrix(1.00, 0.00, -0.00, -1.00, 192.8, 456.0)"> </text><text xml:space="preserve" font-family="Palatino-Roman" font-size="34.2" fill="#414040" transform="matrix(1.00, 0.00, -0.00, -1.00, 201.4, 456.0)">a</text><text xml:space="preserve" font-family="Palatino-Roman" font-size="34.2" fill="#414040" transform="matrix(1.00, 0.00, -0.00, -1.00, 218.5, 456.0)"> </text><text xml:space="preserve" font-family="Palatino-Roman" font-size="34.2" fill="#414040" transform="matrix(1.00, 0.00, -0.00, -1.00, 227.0, 456.0)">p</text><text xml:space="preserve" font-family="Palatino-Roman" font-size="34.2" fill="#414040" transform="matrix(1.00, 0.00, -0.00, -1.00, 247.6, 456.0)">o</text><text xml:space="preserve" font-family="Palatino-Roman" font-size="34.2" fill="#414040" transform="matrix(1.00, 0.00, -0.00, -1.00, 266.3, 456.0)">s</text><text xml:space="preserve" font-family="Palatino-Roman" font-size="34.2" fill="#414040" transform="matrix(1.00, 0.00, -0.00, -1.00, 280.7, 456.0)">s</text><text xml:space="preserve" font-family="Palatino-Roman" font-size="34.2" fill="#414040" transform="matrix(1.00, 0.00, -0.00, -1.00, 295.2, 456.0)">i</text><text xml:space="preserve" font-family="Palatino-Roman" font-size="34.2" fill="#414040" transform="matrix(1.00, 0.00, -0.00, -1.00, 305.2, 456.0)">b</text><text xml:space="preserve" font-family="Palatino-Roman" font-size="34.2" fill="#414040" transform="matrix(1.00, 0.00, -0.00, -1.00, 324.1, 456.0)">l</text><text xml:space="preserve" font-family="Palatino-Roman" font-size="34.2" fill="#414040" transform="matrix(1.00, 0.00, -0.00, -1.00, 334.1, 456.0)">e</text><text xml:space="preserve" font-family="Palatino-Roman" font-size="34.2" fill="#414040" transform="matrix(1.00, 0.00, -0.00, -1.00, 350.4, 456.0)"> </text><text xml:space="preserve" font-family="Palatino-Roman" font-size="34.2" fill="#414040" transform="matrix(1.00, 0.00, -0.00, -1.00, 359.0, 456.0)">r</text><text xml:space="preserve" font-family="Palatino-Roman" font-size="34.2" fill="#414040" transform="matrix(1.00, 0.00, -0.00, -1.00, 371.9, 456.0)">o</text><text xml:space="preserve" font-family="Palatino-Roman" font-size="34.2" fill="#414040" transform="matrix(1.00, 0.00, -0.00, -1.00, 390.6, 456.0)">o</text><text xml:space="preserve" font-family="Palatino-Roman" font-size="34.2" fill="#414040" transform="matrix(1.00, 0.00, -0.00, -1.00, 409.2, 456.0)">t</text><text xml:space="preserve" font-family="Palatino-Roman" font-size="34.2" fill="#414040" transform="matrix(1.00, 0.00, -0.00, -1.00, 420.4, 456.0)"> </text><text xml:space="preserve" font-family="Palatino-Roman" font-size="34.2" fill="#414040" transform="matrix(1.00, 0.00, -0.00, -1.00, 428.9, 456.0)">c</text><text xml:space="preserve" font-family="Palatino-Roman" font-size="34.2" fill="#414040" transform="matrix(1.00, 0.00, -0.00, -1.00, 444.1, 456.0)">a</text><text xml:space="preserve" font-family="Palatino-Roman" font-size="34.2" fill="#414040" transform="matrix(1.00, 0.00, -0.00, -1.00, 461.2, 456.0)">u</text><text xml:space="preserve" font-family="Palatino-Roman" font-size="34.2" fill="#414040" transform="matrix(1.00, 0.00, -0.00, -1.00, 481.8, 456.0)">s</text><text xml:space="preserve" font-family="Palatino-Roman" font-size="34.2" fill="#414040" transform="matrix(1.00, 0.00, -0.00, -1.00, 496.3, 456.0)">e</text><text xml:space="preserve" font-family="Palatino-Roman" font-size="34.2" fill="#414040" transform="matrix(1.00, 0.00, -0.00, -1.00, 512.7, 456.0)">s</text><text xml:space="preserve" font-family="Palatino-Roman" font-size="34.2" fill="#414040" transform="matrix(1.00, 0.00, -0.00, -1.00, 527.2, 456.0)"> </text><text xml:space="preserve" font-family="Palatino-Roman" font-size="34.2" fill="#414040" transform="matrix(1.00, 0.00, -0.00, -1.00, 535.7, 456.0)">(</text><text xml:space="preserve" font-family="Palatino-Roman" font-size="34.2" fill="#414040" transform="matrix(1.00, 0.00, -0.00, -1.00, 547.1, 456.0)">B</text><text xml:space="preserve" font-family="Palatino-Roman" font-size="34.2" fill="#414040" transform="matrix(1.00, 0.00, -0.00, -1.00, 568.0, 456.0)">r</text><text xml:space="preserve" font-family="Palatino-Roman" font-size="34.2" fill="#414040" transform="matrix(1.00, 0.00, -0.00, -1.00, 581.5, 456.0)">a</text><text xml:space="preserve" font-family="Palatino-Roman" font-size="34.2" fill="#414040" transform="matrix(1.00, 0.00, -0.00, -1.00, 598.6, 456.0)">i</text><text xml:space="preserve" font-family="Palatino-Roman" font-size="34.2" fill="#414040" transform="matrix(1.00, 0.00, -0.00, -1.00, 608.6, 456.0)">n</text><text xml:space="preserve" font-family="Palatino-Roman" font-size="34.2" fill="#414040" transform="matrix(1.00, 0.00, -0.00, -1.00, 628.5, 456.0)">s</text><text xml:space="preserve" font-family="Palatino-Roman" font-size="34.2" fill="#414040" transform="matrix(1.00, 0.00, -0.00, -1.00, 643.0, 456.0)">t</text><text xml:space="preserve" font-family="Palatino-Roman" font-size="34.2" fill="#414040" transform="matrix(1.00, 0.00, -0.00, -1.00, 654.1, 456.0)">o</text><text xml:space="preserve" font-family="Palatino-Roman" font-size="34.2" fill="#414040" transform="matrix(1.00, 0.00, -0.00, -1.00, 672.8, 456.0)">r</text><text xml:space="preserve" font-family="Palatino-Roman" font-size="34.2" fill="#414040" transform="matrix(1.00, 0.00, -0.00, -1.00, 686.3, 456.0)">m</text><text xml:space="preserve" font-family="Palatino-Roman" font-size="34.2" fill="#414040" transform="matrix(1.00, 0.00, -0.00, -1.00, 716.5, 456.0)">i</text><text xml:space="preserve" font-family="Palatino-Roman" font-size="34.2" fill="#414040" transform="matrix(1.00, 0.00, -0.00, -1.00, 726.5, 456.0)">n</text><text xml:space="preserve" font-family="Palatino-Roman" font-size="34.2" fill="#414040" transform="matrix(1.00, 0.00, -0.00, -1.00, 746.4, 456.0)">g</text><text xml:space="preserve" font-family="Palatino-Roman" font-size="34.2" fill="#414040" transform="matrix(1.00, 0.00, -0.00, -1.00, 765.4, 456.0)">,</text><text xml:space="preserve" font-family="Palatino-Roman" font-size="34.2" fill="#414040" transform="matrix(1.00, 0.00, -0.00, -1.00, 773.9, 456.0)"> </text><text xml:space="preserve" font-family="Palatino-Roman" font-size="34.2" fill="#414040" transform="matrix(1.00, 0.00, -0.00, -1.00, 782.5, 456.0)">4</text><text xml:space="preserve" font-family="Palatino-Roman" font-size="34.2" fill="#414040" transform="matrix(1.00, 0.00, -0.00, -1.00, 799.6, 456.0)">-</text><text xml:space="preserve" font-family="Palatino-Roman" font-size="34.2" fill="#414040" transform="matrix(1.00, 0.00, -0.00, -1.00, 811.0, 456.0)">8</text><text xml:space="preserve" font-family="Palatino-Roman" font-size="34.2" fill="#414040" transform="matrix(1.00, 0.00, -0.00, -1.00, 828.1, 456.0)"> </text><text xml:space="preserve" font-family="Palatino-Roman" font-size="34.2" fill="#414040" transform="matrix(1.00, 0.00, -0.00, -1.00, 836.6, 456.0)">r</text><text xml:space="preserve" font-family="Palatino-Roman" font-size="34.2" fill="#414040" transform="matrix(1.00, 0.00, -0.00, -1.00, 849.5, 456.0)">o</text><text xml:space="preserve" font-family="Palatino-Roman" font-size="34.2" fill="#414040" transform="matrix(1.00, 0.00, -0.00, -1.00, 868.2, 456.0)">o</text><text xml:space="preserve" font-family="Palatino-Roman" font-size="34.2" fill="#414040" transform="matrix(1.00, 0.00, -0.00, -1.00, 886.9, 456.0)">t</text><text xml:space="preserve" font-family="Palatino-Roman" font-size="34.2" fill="#414040" transform="matrix(1.00, 0.00, -0.00, -1.00, 898.0, 456.0)"> </text><text xml:space="preserve" font-family="Palatino-Roman" font-size="34.2" fill="#414040" transform="matrix(1.00, 0.00, -0.00, -1.00, 93.0, 412.0)">c</text><text xml:space="preserve" font-family="Palatino-Roman" font-size="34.2" fill="#414040" transform="matrix(1.00, 0.00, -0.00, -1.00, 108.2, 412.0)">a</text><text xml:space="preserve" font-family="Palatino-Roman" font-size="34.2" fill="#414040" transform="matrix(1.00, 0.00, -0.00, -1.00, 125.3, 412.0)">u</text><text xml:space="preserve" font-family="Palatino-Roman" font-size="34.2" fill="#414040" transform="matrix(1.00, 0.00, -0.00, -1.00, 145.9, 412.0)">s</text><text xml:space="preserve" font-family="Palatino-Roman" font-size="34.2" fill="#414040" transform="matrix(1.00, 0.00, -0.00, -1.00, 160.4, 412.0)">e</text><text xml:space="preserve" font-family="Palatino-Roman" font-size="34.2" fill="#414040" transform="matrix(1.00, 0.00, -0.00, -1.00, 176.8, 412.0)">s</text><text xml:space="preserve" font-family="Palatino-Roman" font-size="34.2" fill="#414040" transform="matrix(1.00, 0.00, -0.00, -1.00, 191.3, 412.0)">)</text><text xml:space="preserve" font-family="Palatino-Roman" font-size="34.2" fill="#414040" transform="matrix(1.00, 0.00, -0.00, -1.00, 202.6, 412.0)"> </text><text xml:space="preserve" font-family="Palatino-Roman" font-size="34.2" fill="#414040" transform="matrix(1.00, 0.00, -0.00, -1.00, 211.2, 412.0)">-</text><text xml:space="preserve" font-family="Palatino-Roman" font-size="34.2" fill="#414040" transform="matrix(1.00, 0.00, -0.00, -1.00, 222.6, 412.0)"> </text><text xml:space="preserve" font-family="Palatino-Roman" font-size="34.2" fill="#414040" transform="matrix(1.00, 0.00, -0.00, -1.00, 231.1, 412.0)">8</text><text xml:space="preserve" font-family="Palatino-Roman" font-size="34.2" fill="#414040" transform="matrix(1.00, 0.00, -0.00, -1.00, 248.2, 412.0)"> </text><text xml:space="preserve" font-family="Palatino-Roman" font-size="34.2" fill="#414040" transform="matrix(1.00, 0.00, -0.00, -1.00, 256.8, 412.0)">m</text><text xml:space="preserve" font-family="Palatino-Roman" font-size="34.2" fill="#414040" transform="matrix(1.00, 0.00, -0.00, -1.00, 287.0, 412.0)">i</text><text xml:space="preserve" font-family="Palatino-Roman" font-size="34.2" fill="#414040" transform="matrix(1.00, 0.00, -0.00, -1.00, 296.9, 412.0)">n</text><text xml:space="preserve" font-family="Palatino-Roman" font-size="34.2" fill="#414040" transform="matrix(1.00, 0.00, -0.00, -1.00, 44.0, 344.9)">3</text><text xml:space="preserve" font-family="Palatino-Roman" font-size="34.2" fill="#414040" transform="matrix(1.00, 0.00, -0.00, -1.00, 61.1, 344.9)">.</text><text xml:space="preserve" font-family="Palatino-Roman" font-size="34.2" fill="#414040" transform="matrix(1.00, 0.00, -0.00, -1.00, 93.0, 345.0)">C</text><text xml:space="preserve" font-family="Palatino-Roman" font-size="34.2" fill="#414040" transform="matrix(1.00, 0.00, -0.00, -1.00, 117.2, 345.0)">h</text><text xml:space="preserve" font-family="Palatino-Roman" font-size="34.2" fill="#414040" transform="matrix(1.00, 0.00, -0.00, -1.00, 137.2, 345.0)">e</text><text xml:space="preserve" font-family="Palatino-Roman" font-size="34.2" fill="#414040" transform="matrix(1.00, 0.00, -0.00, -1.00, 153.5, 345.0)">c</text><text xml:space="preserve" font-family="Palatino-Roman" font-size="34.2" fill="#414040" transform="matrix(1.00, 0.00, -0.00, -1.00, 168.7, 345.0)">k</text><text xml:space="preserve" font-family="Palatino-Roman" font-size="34.2" fill="#414040" transform="matrix(1.00, 0.00, -0.00, -1.00, 187.7, 345.0)"> </text><text xml:space="preserve" font-family="Palatino-Roman" font-size="34.2" fill="#414040" transform="matrix(1.00, 0.00, -0.00, -1.00, 196.3, 345.0)">t</text><text xml:space="preserve" font-family="Palatino-Roman" font-size="34.2" fill="#414040" transform="matrix(1.00, 0.00, -0.00, -1.00, 207.4, 345.0)">h</text><text xml:space="preserve" font-family="Palatino-Roman" font-size="34.2" fill="#414040" transform="matrix(1.00, 0.00, -0.00, -1.00, 227.4, 345.0)">e</text><text xml:space="preserve" font-family="Palatino-Roman" font-size="34.2" fill="#414040" transform="matrix(1.00, 0.00, -0.00, -1.00, 243.7, 345.0)"> </text><text xml:space="preserve" font-family="Palatino-Roman" font-size="34.2" fill="#414040" transform="matrix(1.00, 0.00, -0.00, -1.00, 252.3, 345.0)">d</text><text xml:space="preserve" font-family="Palatino-Roman" font-size="34.2" fill="#414040" transform="matrix(1.00, 0.00, -0.00, -1.00, 273.2, 345.0)">e</text><text xml:space="preserve" font-family="Palatino-Roman" font-size="34.2" fill="#414040" transform="matrix(1.00, 0.00, -0.00, -1.00, 289.5, 345.0)">p</text><text xml:space="preserve" font-family="Palatino-Roman" font-size="34.2" fill="#414040" transform="matrix(1.00, 0.00, -0.00, -1.00, 310.1, 345.0)">e</text><text xml:space="preserve" font-family="Palatino-Roman" font-size="34.2" fill="#414040" transform="matrix(1.00, 0.00, -0.00, -1.00, 326.5, 345.0)">n</text><text xml:space="preserve" font-family="Palatino-Roman" font-size="34.2" fill="#414040" transform="matrix(1.00, 0.00, -0.00, -1.00, 346.4, 345.0)">d</text><text xml:space="preserve" font-family="Palatino-Roman" font-size="34.2" fill="#414040" transform="matrix(1.00, 0.00, -0.00, -1.00, 367.3, 345.0)">e</text><text xml:space="preserve" font-family="Palatino-Roman" font-size="34.2" fill="#414040" transform="matrix(1.00, 0.00, -0.00, -1.00, 383.7, 345.0)">n</text><text xml:space="preserve" font-family="Palatino-Roman" font-size="34.2" fill="#414040" transform="matrix(1.00, 0.00, -0.00, -1.00, 403.6, 345.0)">c</text><text xml:space="preserve" font-family="Palatino-Roman" font-size="34.2" fill="#414040" transform="matrix(1.00, 0.00, -0.00, -1.00, 418.7, 345.0)">y</text><text xml:space="preserve" font-family="Palatino-Roman" font-size="34.2" fill="#414040" transform="matrix(1.00, 0.00, -0.00, -1.00, 437.8, 345.0)"> </text><text xml:space="preserve" font-family="Palatino-Roman" font-size="34.2" fill="#414040" transform="matrix(1.00, 0.00, -0.00, -1.00, 446.3, 345.0)">b</text><text xml:space="preserve" font-family="Palatino-Roman" font-size="34.2" fill="#414040" transform="matrix(1.00, 0.00, -0.00, -1.00, 465.2, 345.0)">e</text><text xml:space="preserve" font-family="Palatino-Roman" font-size="34.2" fill="#414040" transform="matrix(1.00, 0.00, -0.00, -1.00, 481.6, 345.0)">t</text><text xml:space="preserve" font-family="Palatino-Roman" font-size="34.2" fill="#414040" transform="matrix(1.00, 0.00, -0.00, -1.00, 492.8, 345.0)">w</text><text xml:space="preserve" font-family="Palatino-Roman" font-size="34.2" fill="#414040" transform="matrix(1.00, 0.00, -0.00, -1.00, 521.3, 345.0)">e</text><text xml:space="preserve" font-family="Palatino-Roman" font-size="34.2" fill="#414040" transform="matrix(1.00, 0.00, -0.00, -1.00, 537.7, 345.0)">e</text><text xml:space="preserve" font-family="Palatino-Roman" font-size="34.2" fill="#414040" transform="matrix(1.00, 0.00, -0.00, -1.00, 554.1, 345.0)">n</text><text xml:space="preserve" font-family="Palatino-Roman" font-size="34.2" fill="#414040" transform="matrix(1.00, 0.00, -0.00, -1.00, 574.0, 345.0)"> </text><text xml:space="preserve" font-family="Palatino-Roman" font-size="34.2" fill="#414040" transform="matrix(1.00, 0.00, -0.00, -1.00, 582.5, 345.0)">r</text><text xml:space="preserve" font-family="Palatino-Roman" font-size="34.2" fill="#414040" transform="matrix(1.00, 0.00, -0.00, -1.00, 595.4, 345.0)">o</text><text xml:space="preserve" font-family="Palatino-Roman" font-size="34.2" fill="#414040" transform="matrix(1.00, 0.00, -0.00, -1.00, 614.1, 345.0)">o</text><text xml:space="preserve" font-family="Palatino-Roman" font-size="34.2" fill="#414040" transform="matrix(1.00, 0.00, -0.00, -1.00, 632.8, 345.0)">t</text><text xml:space="preserve" font-family="Palatino-Roman" font-size="34.2" fill="#414040" transform="matrix(1.00, 0.00, -0.00, -1.00, 643.9, 345.0)"> </text><text xml:space="preserve" font-family="Palatino-Roman" font-size="34.2" fill="#414040" transform="matrix(1.00, 0.00, -0.00, -1.00, 652.5, 345.0)">c</text><text xml:space="preserve" font-family="Palatino-Roman" font-size="34.2" fill="#414040" transform="matrix(1.00, 0.00, -0.00, -1.00, 667.7, 345.0)">a</text><text xml:space="preserve" font-family="Palatino-Roman" font-size="34.2" fill="#414040" transform="matrix(1.00, 0.00, -0.00, -1.00, 684.8, 345.0)">u</text><text xml:space="preserve" font-family="Palatino-Roman" font-size="34.2" fill="#414040" transform="matrix(1.00, 0.00, -0.00, -1.00, 705.4, 345.0)">s</text><text xml:space="preserve" font-family="Palatino-Roman" font-size="34.2" fill="#414040" transform="matrix(1.00, 0.00, -0.00, -1.00, 719.9, 345.0)">e</text><text xml:space="preserve" font-family="Palatino-Roman" font-size="34.2" fill="#414040" transform="matrix(1.00, 0.00, -0.00, -1.00, 736.2, 345.0)">s</text><text xml:space="preserve" font-family="Palatino-Roman" font-size="34.2" fill="#414040" transform="matrix(1.00, 0.00, -0.00, -1.00, 750.7, 345.0)"> </text><text xml:space="preserve" font-family="Palatino-Roman" font-size="34.2" fill="#414040" transform="matrix(1.00, 0.00, -0.00, -1.00, 759.3, 345.0)">-</text><text xml:space="preserve" font-family="Palatino-Roman" font-size="34.2" fill="#414040" transform="matrix(1.00, 0.00, -0.00, -1.00, 770.7, 345.0)"> </text><text xml:space="preserve" font-family="Palatino-Roman" font-size="34.2" fill="#414040" transform="matrix(1.00, 0.00, -0.00, -1.00, 779.2, 345.0)">8</text><text xml:space="preserve" font-family="Palatino-Roman" font-size="34.2" fill="#414040" transform="matrix(1.00, 0.00, -0.00, -1.00, 796.3, 345.0)"> </text><text xml:space="preserve" font-family="Palatino-Roman" font-size="34.2" fill="#414040" transform="matrix(1.00, 0.00, -0.00, -1.00, 804.9, 345.0)">m</text><text xml:space="preserve" font-family="Palatino-Roman" font-size="34.2" fill="#414040" transform="matrix(1.00, 0.00, -0.00, -1.00, 835.1, 345.0)">i</text><text xml:space="preserve" font-family="Palatino-Roman" font-size="34.2" fill="#414040" transform="matrix(1.00, 0.00, -0.00, -1.00, 845.0, 345.0)">n</text></g></svg>