<?xml version="1.0" encoding="UTF-8" standalone="no"?><svg xmlns="http://www.w3.org/2000/svg" xmlns:xlink="http://www.w3.org/1999/xlink" clip-rule="evenodd" stroke-miterlimit="4.00" viewBox="0 0 1024 768"><desc>SVG generated by Keynote</desc><defs></defs><g transform="matrix(1.00, 0.00, -0.00, -1.00, 0.0, 768.0)"><g><clipPath id="clip-15"><path d="M 0.0 768.0 L 1024.0 768.0 L 1024.0 0.0 L 0.0 0.0 Z M 0.0 768.0 "></path></clipPath><g clip-path="url(#clip-15)"><image xlink:href="../../7271B8B7-3FC1-4276-9B71-E31342A69E14/assets/50163466EC2834942505D00A94D158E6.jpeg" width="1024.00" height="768.00" transform="matrix(1.00, 0.00, -0.00, -1.00, 0.0, 768.0)"></image></g></g><g opacity="0.30"><g><clipPath id="clip-16"><path d="M 39.0 595.0 L 986.0 595.0 L 986.0 599.0 L 39.0 599.0 Z M 39.0 595.0 "></path></clipPath><g clip-path="url(#clip-16)"><path d="M 0.0 0.0 L 944.7 0.0 " fill="none" stroke="#434343" stroke-width="1.00" transform="matrix(1.00, 0.00, 0.00, -1.00, 40.0, 597.0)"></path></g></g></g><g opacity="0.30"><g><clipPath id="clip-17"><path d="M 39.0 716.0 L 986.0 716.0 L 986.0 720.0 L 39.0 720.0 Z M 39.0 716.0 "></path></clipPath><g clip-path="url(#clip-17)"><path d="M 0.0 0.0 L 944.7 0.0 " fill="none" stroke="#434343" stroke-width="1.00" transform="matrix(1.00, 0.00, 0.00, -1.00, 40.0, 718.0)"></path></g></g></g><text xml:space="preserve" font-family="BodoniSvtyTwoITCTT-Book" font-size="70.0" fill="#D93D2A" transform="matrix(1.00, 0.00, -0.00, -1.00, 179.0, 633.0)">„</text><text xml:space="preserve" font-family="BodoniSvtyTwoITCTT-Book" font-size="70.0" fill="#D93D2A" transform="matrix(1.00, 0.00, -0.00, -1.00, 210.2, 633.0)">T</text><text xml:space="preserve" font-family="BodoniSvtyTwoITCTT-Book" font-size="70.0" fill="#D93D2A" transform="matrix(1.00, 0.00, -0.00, -1.00, 251.2, 633.0)">h</text><text xml:space="preserve" font-family="BodoniSvtyTwoITCTT-Book" font-size="70.0" fill="#D93D2A" transform="matrix(1.00, 0.00, -0.00, -1.00, 284.6, 633.0)">e</text><text xml:space="preserve" font-family="BodoniSvtyTwoITCTT-Book" font-size="70.0" fill="#D93D2A" transform="matrix(1.00, 0.00, -0.00, -1.00, 314.7, 633.0)"> </text><text xml:space="preserve" font-family="BodoniSvtyTwoITCTT-Book" font-size="70.0" fill="#D93D2A" transform="matrix(1.00, 0.00, -0.00, -1.00, 327.8, 633.0)">l</text><text xml:space="preserve" font-family="BodoniSvtyTwoITCTT-Book" font-size="70.0" fill="#D93D2A" transform="matrix(1.00, 0.00, -0.00, -1.00, 344.2, 633.0)">o</text><text xml:space="preserve" font-family="BodoniSvtyTwoITCTT-Book" font-size="70.0" fill="#D93D2A" transform="matrix(1.00, 0.00, -0.00, -1.00, 377.8, 633.0)">s</text><text xml:space="preserve" font-family="BodoniSvtyTwoITCTT-Book" font-size="70.0" fill="#D93D2A" transform="matrix(1.00, 0.00, -0.00, -1.00, 403.1, 633.0)">t</text><text xml:space="preserve" font-family="BodoniSvtyTwoITCTT-Book" font-size="70.0" fill="#D93D2A" transform="matrix(1.00, 0.00, -0.00, -1.00, 423.0, 633.0)"> </text><text xml:space="preserve" font-family="BodoniSvtyTwoITCTT-Book" font-size="70.0" fill="#D93D2A" transform="matrix(1.00, 0.00, -0.00, -1.00, 436.0, 633.0)">a</text><text xml:space="preserve" font-family="BodoniSvtyTwoITCTT-Book" font-size="70.0" fill="#D93D2A" transform="matrix(1.00, 0.00, -0.00, -1.00, 463.8, 633.0)">r</text><text xml:space="preserve" font-family="BodoniSvtyTwoITCTT-Book" font-size="70.0" fill="#D93D2A" transform="matrix(1.00, 0.00, -0.00, -1.00, 487.5, 633.0)">t</text><text xml:space="preserve" font-family="BodoniSvtyTwoITCTT-Book" font-size="70.0" fill="#D93D2A" transform="matrix(1.00, 0.00, -0.00, -1.00, 507.4, 633.0)"> </text><text xml:space="preserve" font-family="BodoniSvtyTwoITCTT-Book" font-size="70.0" fill="#D93D2A" transform="matrix(1.00, 0.00, -0.00, -1.00, 520.4, 633.0)">o</text><text xml:space="preserve" font-family="BodoniSvtyTwoITCTT-Book" font-size="70.0" fill="#D93D2A" transform="matrix(1.00, 0.00, -0.00, -1.00, 554.0, 633.0)">f</text><text xml:space="preserve" font-family="BodoniSvtyTwoITCTT-Book" font-size="70.0" fill="#D93D2A" transform="matrix(1.00, 0.00, -0.00, -1.00, 572.5, 633.0)"> </text><text xml:space="preserve" font-family="BodoniSvtyTwoITCTT-Book" font-size="70.0" fill="#D93D2A" transform="matrix(1.00, 0.00, -0.00, -1.00, 585.5, 633.0)">l</text><text xml:space="preserve" font-family="BodoniSvtyTwoITCTT-Book" font-size="70.0" fill="#D93D2A" transform="matrix(1.00, 0.00, -0.00, -1.00, 601.9, 633.0)">i</text><text xml:space="preserve" font-family="BodoniSvtyTwoITCTT-Book" font-size="70.0" fill="#D93D2A" transform="matrix(1.00, 0.00, -0.00, -1.00, 619.5, 633.0)">s</text><text xml:space="preserve" font-family="BodoniSvtyTwoITCTT-Book" font-size="70.0" fill="#D93D2A" transform="matrix(1.00, 0.00, -0.00, -1.00, 644.9, 633.0)">t</text><text xml:space="preserve" font-family="BodoniSvtyTwoITCTT-Book" font-size="70.0" fill="#D93D2A" transform="matrix(1.00, 0.00, -0.00, -1.00, 664.7, 633.0)">e</text><text xml:space="preserve" font-family="BodoniSvtyTwoITCTT-Book" font-size="70.0" fill="#D93D2A" transform="matrix(1.00, 0.00, -0.00, -1.00, 694.8, 633.0)">n</text><text xml:space="preserve" font-family="BodoniSvtyTwoITCTT-Book" font-size="70.0" fill="#D93D2A" transform="matrix(1.00, 0.00, -0.00, -1.00, 729.1, 633.0)">i</text><text xml:space="preserve" font-family="BodoniSvtyTwoITCTT-Book" font-size="70.0" fill="#D93D2A" transform="matrix(1.00, 0.00, -0.00, -1.00, 746.6, 633.0)">n</text><text xml:space="preserve" font-family="BodoniSvtyTwoITCTT-Book" font-size="70.0" fill="#D93D2A" transform="matrix(1.00, 0.00, -0.00, -1.00, 780.9, 633.0)">g</text><text xml:space="preserve" font-family="BodoniSvtyTwoITCTT-Book" font-size="70.0" fill="#D93D2A" transform="matrix(1.00, 0.00, -0.00, -1.00, 813.6, 633.0)">”</text><image xlink:href="../../91385455-2FBE-40C9-9D3C-898C274E9C69/assets/CE0E8C0757616733FD87601C38D713B1.png" width="150.00" height="150.00" transform="matrix(2.47, 0.00, -0.00, -2.47, 118.0, 506.0)"></image><image xlink:href="../../91385455-2FBE-40C9-9D3C-898C274E9C69/assets/AC1E1205D763F2752D792941A873D999.png" width="263.00" height="400.00" transform="matrix(1.15, 0.00, -0.00, -1.15, 620.0, 551.0)"></image></g></svg>