<?xml version="1.0" encoding="UTF-8" standalone="no"?><svg xmlns="http://www.w3.org/2000/svg" xmlns:xlink="http://www.w3.org/1999/xlink" clip-rule="evenodd" stroke-miterlimit="4.00" viewBox="0 0 349 124"><desc>SVG generated by Keynote</desc><defs></defs><g transform="matrix(1.00, 0.00, -0.00, -1.00, 0.0, 124.0)"><text xml:space="preserve" font-family="ZapfDingbatsITC" font-size="19.5" fill="#919191" transform="matrix(1.00, 0.00, -0.00, -1.00, 0.0, 105.9)">❖</text><text xml:space="preserve" font-family="Palatino-Roman" font-size="30.0" fill="#414040" transform="matrix(1.00, 0.00, -0.00, -1.00, 31.0, 100.0)">P</text><text xml:space="preserve" font-family="Palatino-Roman" font-size="30.0" fill="#414040" transform="matrix(1.00, 0.00, -0.00, -1.00, 49.1, 100.0)">r</text><text xml:space="preserve" font-family="Palatino-Roman" font-size="30.0" fill="#414040" transform="matrix(1.00, 0.00, -0.00, -1.00, 60.4, 100.0)">e</text><text xml:space="preserve" font-family="Palatino-Roman" font-size="30.0" fill="#414040" transform="matrix(1.00, 0.00, -0.00, -1.00, 74.8, 100.0)">j</text><text xml:space="preserve" font-family="Palatino-Roman" font-size="30.0" fill="#414040" transform="matrix(1.00, 0.00, -0.00, -1.00, 81.8, 100.0)">u</text><text xml:space="preserve" font-family="Palatino-Roman" font-size="30.0" fill="#414040" transform="matrix(1.00, 0.00, -0.00, -1.00, 99.9, 100.0)">d</text><text xml:space="preserve" font-family="Palatino-Roman" font-size="30.0" fill="#414040" transform="matrix(1.00, 0.00, -0.00, -1.00, 118.2, 100.0)">i</text><text xml:space="preserve" font-family="Palatino-Roman" font-size="30.0" fill="#414040" transform="matrix(1.00, 0.00, -0.00, -1.00, 127.0, 100.0)">c</text><text xml:space="preserve" font-family="Palatino-Roman" font-size="30.0" fill="#414040" transform="matrix(1.00, 0.00, -0.00, -1.00, 140.3, 100.0)">e</text><text xml:space="preserve" font-family="Palatino-Roman" font-size="30.0" fill="#414040" transform="matrix(1.00, 0.00, -0.00, -1.00, 154.6, 100.0)"> </text><text xml:space="preserve" font-family="Palatino-Roman" font-size="30.0" fill="#414040" transform="matrix(1.00, 0.00, -0.00, -1.00, 162.1, 100.0)">a</text><text xml:space="preserve" font-family="Palatino-Roman" font-size="30.0" fill="#414040" transform="matrix(1.00, 0.00, -0.00, -1.00, 177.1, 100.0)">s</text><text xml:space="preserve" font-family="Palatino-Roman" font-size="30.0" fill="#414040" transform="matrix(1.00, 0.00, -0.00, -1.00, 189.9, 100.0)"> </text><text xml:space="preserve" font-family="Palatino-Roman" font-size="30.0" fill="#414040" transform="matrix(1.00, 0.00, -0.00, -1.00, 197.4, 100.0)">a</text><text xml:space="preserve" font-family="Palatino-Roman" font-size="30.0" fill="#414040" transform="matrix(1.00, 0.00, -0.00, -1.00, 212.4, 100.0)"> </text><text xml:space="preserve" font-family="Palatino-Roman" font-size="30.0" fill="#414040" transform="matrix(1.00, 0.00, -0.00, -1.00, 219.9, 100.0)">ﬁ</text><text xml:space="preserve" font-family="Palatino-Roman" font-size="30.0" fill="#414040" transform="matrix(1.00, 0.00, -0.00, -1.00, 238.0, 100.0)">l</text><text xml:space="preserve" font-family="Palatino-Roman" font-size="30.0" fill="#414040" transform="matrix(1.00, 0.00, -0.00, -1.00, 246.7, 100.0)">t</text><text xml:space="preserve" font-family="Palatino-Roman" font-size="30.0" fill="#414040" transform="matrix(1.00, 0.00, -0.00, -1.00, 256.5, 100.0)">e</text><text xml:space="preserve" font-family="Palatino-Roman" font-size="30.0" fill="#414040" transform="matrix(1.00, 0.00, -0.00, -1.00, 270.9, 100.0)">r</text><text xml:space="preserve" font-family="ZapfDingbatsITC" font-size="19.5" fill="#919191" transform="matrix(1.00, 0.00, -0.00, -1.00, 0.0, 47.9)">❖</text><text xml:space="preserve" font-family="Palatino-Roman" font-size="30.0" fill="#414040" transform="matrix(1.00, 0.00, -0.00, -1.00, 31.0, 42.0)">P</text><text xml:space="preserve" font-family="Palatino-Roman" font-size="30.0" fill="#414040" transform="matrix(1.00, 0.00, -0.00, -1.00, 49.1, 42.0)">r</text><text xml:space="preserve" font-family="Palatino-Roman" font-size="30.0" fill="#414040" transform="matrix(1.00, 0.00, -0.00, -1.00, 60.4, 42.0)">e</text><text xml:space="preserve" font-family="Palatino-Roman" font-size="30.0" fill="#414040" transform="matrix(1.00, 0.00, -0.00, -1.00, 74.8, 42.0)">j</text><text xml:space="preserve" font-family="Palatino-Roman" font-size="30.0" fill="#414040" transform="matrix(1.00, 0.00, -0.00, -1.00, 81.8, 42.0)">u</text><text xml:space="preserve" font-family="Palatino-Roman" font-size="30.0" fill="#414040" transform="matrix(1.00, 0.00, -0.00, -1.00, 99.9, 42.0)">d</text><text xml:space="preserve" font-family="Palatino-Roman" font-size="30.0" fill="#414040" transform="matrix(1.00, 0.00, -0.00, -1.00, 118.2, 42.0)">i</text><text xml:space="preserve" font-family="Palatino-Roman" font-size="30.0" fill="#414040" transform="matrix(1.00, 0.00, -0.00, -1.00, 127.0, 42.0)">c</text><text xml:space="preserve" font-family="Palatino-Roman" font-size="30.0" fill="#414040" transform="matrix(1.00, 0.00, -0.00, -1.00, 140.3, 42.0)">e</text><text xml:space="preserve" font-family="Palatino-Roman" font-size="30.0" fill="#414040" transform="matrix(1.00, 0.00, -0.00, -1.00, 154.6, 42.0)"> </text><text xml:space="preserve" font-family="Palatino-Roman" font-size="30.0" fill="#414040" transform="matrix(1.00, 0.00, -0.00, -1.00, 162.1, 42.0)">a</text><text xml:space="preserve" font-family="Palatino-Roman" font-size="30.0" fill="#414040" transform="matrix(1.00, 0.00, -0.00, -1.00, 177.1, 42.0)">s</text><text xml:space="preserve" font-family="Palatino-Roman" font-size="30.0" fill="#414040" transform="matrix(1.00, 0.00, -0.00, -1.00, 189.9, 42.0)"> </text><text xml:space="preserve" font-family="Palatino-Roman" font-size="30.0" fill="#414040" transform="matrix(1.00, 0.00, -0.00, -1.00, 197.4, 42.0)">a</text><text xml:space="preserve" font-family="Palatino-Roman" font-size="30.0" fill="#414040" transform="matrix(1.00, 0.00, -0.00, -1.00, 212.4, 42.0)"> </text><text xml:space="preserve" font-family="Palatino-Roman" font-size="30.0" fill="#414040" transform="matrix(1.00, 0.00, -0.00, -1.00, 219.9, 42.0)">d</text><text xml:space="preserve" font-family="Palatino-Roman" font-size="30.0" fill="#414040" transform="matrix(1.00, 0.00, -0.00, -1.00, 238.2, 42.0)">e</text><text xml:space="preserve" font-family="Palatino-Roman" font-size="30.0" fill="#414040" transform="matrix(1.00, 0.00, -0.00, -1.00, 252.5, 42.0)">f</text><text xml:space="preserve" font-family="Palatino-Roman" font-size="30.0" fill="#414040" transform="matrix(1.00, 0.00, -0.00, -1.00, 262.5, 42.0)">e</text><text xml:space="preserve" font-family="Palatino-Roman" font-size="30.0" fill="#414040" transform="matrix(1.00, 0.00, -0.00, -1.00, 276.9, 42.0)">n</text><text xml:space="preserve" font-family="Palatino-Roman" font-size="30.0" fill="#414040" transform="matrix(1.00, 0.00, -0.00, -1.00, 294.4, 42.0)">s</text><text xml:space="preserve" font-family="Palatino-Roman" font-size="30.0" fill="#414040" transform="matrix(1.00, 0.00, -0.00, -1.00, 307.1, 42.0)">i</text><text xml:space="preserve" font-family="Palatino-Roman" font-size="30.0" fill="#414040" transform="matrix(1.00, 0.00, -0.00, -1.00, 315.8, 42.0)">v</text><text xml:space="preserve" font-family="Palatino-Roman" font-size="30.0" fill="#414040" transform="matrix(1.00, 0.00, -0.00, -1.00, 332.8, 42.0)">e</text><text xml:space="preserve" font-family="Palatino-Roman" font-size="30.0" fill="#414040" transform="matrix(1.00, 0.00, -0.00, -1.00, 347.1, 42.0)"> </text><text xml:space="preserve" font-family="Palatino-Roman" font-size="30.0" fill="#414040" transform="matrix(1.00, 0.00, -0.00, -1.00, 31.0, 2.0)">r</text><text xml:space="preserve" font-family="Palatino-Roman" font-size="30.0" fill="#414040" transform="matrix(1.00, 0.00, -0.00, -1.00, 42.3, 2.0)">e</text><text xml:space="preserve" font-family="Palatino-Roman" font-size="30.0" fill="#414040" transform="matrix(1.00, 0.00, -0.00, -1.00, 56.7, 2.0)">a</text><text xml:space="preserve" font-family="Palatino-Roman" font-size="30.0" fill="#414040" transform="matrix(1.00, 0.00, -0.00, -1.00, 71.7, 2.0)">c</text><text xml:space="preserve" font-family="Palatino-Roman" font-size="30.0" fill="#414040" transform="matrix(1.00, 0.00, -0.00, -1.00, 85.0, 2.0)">t</text><text xml:space="preserve" font-family="Palatino-Roman" font-size="30.0" fill="#414040" transform="matrix(1.00, 0.00, -0.00, -1.00, 94.8, 2.0)">i</text><text xml:space="preserve" font-family="Palatino-Roman" font-size="30.0" fill="#414040" transform="matrix(1.00, 0.00, -0.00, -1.00, 103.5, 2.0)">o</text><text xml:space="preserve" font-family="Palatino-Roman" font-size="30.0" fill="#414040" transform="matrix(1.00, 0.00, -0.00, -1.00, 119.9, 2.0)">n</text></g></svg>