<?xml version="1.0" encoding="UTF-8" standalone="no"?><svg xmlns="http://www.w3.org/2000/svg" xmlns:xlink="http://www.w3.org/1999/xlink" clip-rule="evenodd" stroke-miterlimit="4.00" viewBox="0 0 1024 768"><desc>SVG generated by Keynote</desc><defs><linearGradient id="gradSh1.7" x1="0.0" y1="0.0" x2="100.0" y2="0.0" gradientUnits="userSpaceOnUse" gradientTransform="matrix(0.00, -7.70, -10.26, 0.00, 512.0, 769.0)"><stop offset="0.00000" stop-color="#F1F1FB"></stop><stop offset="0.00293" stop-color="#F0F1FB"></stop><stop offset="0.97801" stop-color="#057FFF"></stop><stop offset="0.98167" stop-color="#047FFF"></stop><stop offset="1.00000" stop-color="#007DFF"></stop></linearGradient></defs><g transform="matrix(1.00, 0.00, -0.00, -1.00, 0.0, 768.0)"><g><clipPath id="clip-71"><path d="M 0.0 768.0 L 1024.0 768.0 L 1024.0 0.0 L 0.0 0.0 Z M 0.0 768.0 "></path></clipPath><g clip-path="url(#clip-71)"><path d="M 0.0 768.0 L 1024.0 768.0 L 1024.0 0.0 L 0.0 0.0 Z M 0.0 768.0 " fill="url(#gradSh1.7)"></path></g></g><image xlink:href="476B9D08DF3206DA4A5C69AC2B3FFD60.png" width="347.00" height="76.00" transform="matrix(1.00, 0.00, -0.00, -1.00, 66.0, 677.0)"></image><text xml:space="preserve" font-family="HelveticaNeue-Light" font-size="72.0" fill="#FEFFFE" transform="matrix(1.00, 0.00, -0.00, -1.00, 66.0, 624.0)">U</text><text xml:space="preserve" font-family="HelveticaNeue-Light" font-size="72.0" fill="#FEFFFE" transform="matrix(1.00, 0.00, -0.00, -1.00, 115.3, 624.0)">r</text><text xml:space="preserve" font-family="HelveticaNeue-Light" font-size="72.0" fill="#FEFFFE" transform="matrix(1.00, 0.00, -0.00, -1.00, 138.0, 624.0)">z</text><text xml:space="preserve" font-family="HelveticaNeue-Light" font-size="72.0" fill="#FEFFFE" transform="matrix(1.00, 0.00, -0.00, -1.00, 171.3, 624.0)">ą</text><text xml:space="preserve" font-family="HelveticaNeue-Light" font-size="72.0" fill="#FEFFFE" transform="matrix(1.00, 0.00, -0.00, -1.00, 208.7, 624.0)">d</text><text xml:space="preserve" font-family="HelveticaNeue-Light" font-size="72.0" fill="#FEFFFE" transform="matrix(1.00, 0.00, -0.00, -1.00, 250.0, 624.0)">z</text><text xml:space="preserve" font-family="HelveticaNeue-Light" font-size="72.0" fill="#FEFFFE" transform="matrix(1.00, 0.00, -0.00, -1.00, 283.4, 624.0)">e</text><text xml:space="preserve" font-family="HelveticaNeue-Light" font-size="72.0" fill="#FEFFFE" transform="matrix(1.00, 0.00, -0.00, -1.00, 320.7, 624.0)">n</text><text xml:space="preserve" font-family="HelveticaNeue-Light" font-size="72.0" fill="#FEFFFE" transform="matrix(1.00, 0.00, -0.00, -1.00, 359.4, 624.0)">i</text><text xml:space="preserve" font-family="HelveticaNeue-Light" font-size="72.0" fill="#FEFFFE" transform="matrix(1.00, 0.00, -0.00, -1.00, 372.7, 624.0)">e</text><image xlink:href="7E42B24D772CD91D6939473B4EF68E41.png" width="13.00" height="13.00" transform="matrix(1.00, 0.00, -0.00, -1.00, 66.0, 528.0)"></image><g><clipPath id="clip-72"><path d="M 66.0 515.4 L 78.3 515.4 L 78.3 527.8 L 66.0 527.8 Z M 66.0 515.4 "></path></clipPath><g clip-path="url(#clip-72)"><g><g><clipPath id="clip-73"><path d="M 66.0 527.8 L 78.3 527.8 L 78.3 515.4 L 66.0 515.4 Z M 66.0 527.8 "></path></clipPath><g clip-path="url(#clip-73)"><g><clipPath id="clip-74"><path d="M 62.0 508.0 L 83.0 508.0 L 83.0 535.0 L 62.0 535.0 Z M 62.0 508.0 "></path></clipPath><g clip-path="url(#clip-74)"><path d="M 78.3 525.3 C 78.3 525.9 78.0 526.4 77.5 527.0 C 77.0 527.5 76.4 527.8 75.8 527.8 C 75.6 527.8 75.1 527.7 74.5 527.4 C 73.6 526.9 72.8 526.7 72.1 526.7 C 71.4 526.7 70.6 526.9 69.7 527.4 C 69.1 527.7 68.7 527.8 68.4 527.8 C 67.8 527.8 67.3 527.5 66.8 527.0 C 66.3 526.5 66.0 525.9 66.0 525.3 C 66.0 525.0 66.1 524.6 66.4 524.0 C 66.8 523.1 67.0 522.3 67.0 521.6 C 67.0 521.0 66.8 520.2 66.4 519.2 C 66.1 518.6 66.0 518.2 66.0 517.9 C 66.0 517.3 66.3 516.8 66.8 516.2 C 67.3 515.7 67.8 515.4 68.4 515.4 C 68.7 515.4 69.1 515.6 69.7 515.9 C 70.6 516.3 71.4 516.5 72.1 516.5 C 72.8 516.5 73.6 516.3 74.5 515.9 C 75.1 515.6 75.6 515.4 75.8 515.4 C 76.4 515.4 77.0 515.7 77.5 516.2 C 78.0 516.8 78.3 517.3 78.3 517.9 C 78.3 518.2 78.2 518.6 77.9 519.2 C 77.4 520.2 77.2 521.0 77.2 521.6 C 77.2 522.3 77.4 523.1 77.9 524.0 C 78.2 524.6 78.3 525.0 78.3 525.3 " fill="#FFFFFF"></path></g></g></g></g></g></g></g><image xlink:href="58554DA45DB6F8A3E3B2154ABF68A04F.png" width="222.00" height="41.00" transform="matrix(1.00, 0.00, -0.00, -1.00, 95.0, 536.0)"></image><text xml:space="preserve" font-family="HelveticaNeue-Light" font-size="34.9" fill="#FEFFFE" transform="matrix(1.00, 0.00, -0.00, -1.00, 100.0, 510.0)">A</text><text xml:space="preserve" font-family="HelveticaNeue-Light" font-size="34.9" fill="#FEFFFE" transform="matrix(1.00, 0.00, -0.00, -1.00, 119.6, 510.0)">T</text><text xml:space="preserve" font-family="HelveticaNeue-Light" font-size="34.9" fill="#FEFFFE" transform="matrix(1.00, 0.00, -0.00, -1.00, 139.0, 510.0)">m</text><text xml:space="preserve" font-family="HelveticaNeue-Light" font-size="34.9" fill="#FEFFFE" transform="matrix(1.00, 0.00, -0.00, -1.00, 168.1, 510.0)">e</text><text xml:space="preserve" font-family="HelveticaNeue-Light" font-size="34.9" fill="#FEFFFE" transform="matrix(1.00, 0.00, -0.00, -1.00, 186.3, 510.0)">g</text><text xml:space="preserve" font-family="HelveticaNeue-Light" font-size="34.9" fill="#FEFFFE" transform="matrix(1.00, 0.00, -0.00, -1.00, 205.7, 510.0)">a</text><text xml:space="preserve" font-family="HelveticaNeue-Light" font-size="34.9" fill="#FEFFFE" transform="matrix(1.00, 0.00, -0.00, -1.00, 223.8, 510.0)"> </text><text xml:space="preserve" font-family="HelveticaNeue-Light" font-size="34.9" fill="#FEFFFE" transform="matrix(1.00, 0.00, -0.00, -1.00, 233.5, 510.0)">3</text><text xml:space="preserve" font-family="HelveticaNeue-Light" font-size="34.9" fill="#FEFFFE" transform="matrix(1.00, 0.00, -0.00, -1.00, 252.9, 510.0)">2</text><text xml:space="preserve" font-family="HelveticaNeue-Light" font-size="34.9" fill="#FEFFFE" transform="matrix(1.00, 0.00, -0.00, -1.00, 272.3, 510.0)">8</text><text xml:space="preserve" font-family="HelveticaNeue-Light" font-size="34.9" fill="#FEFFFE" transform="matrix(1.00, 0.00, -0.00, -1.00, 291.7, 510.0)">P</text><text xml:space="preserve" font-family="HelveticaNeue-Light" font-size="34.9" fill="#FEFFFE" transform="matrix(1.00, 0.00, -0.00, -1.00, 313.7, 510.0)"> </text><image xlink:href="94B27AF46F4816E20D72FFDA48CF906D.png" width="13.00" height="13.00" transform="matrix(1.00, 0.00, -0.00, -1.00, 66.0, 451.0)"></image><g><clipPath id="clip-75"><path d="M 66.0 438.5 L 78.3 438.5 L 78.3 450.9 L 66.0 450.9 Z M 66.0 438.5 "></path></clipPath><g clip-path="url(#clip-75)"><g><g><clipPath id="clip-76"><path d="M 66.0 450.9 L 78.3 450.9 L 78.3 438.5 L 66.0 438.5 Z M 66.0 450.9 "></path></clipPath><g clip-path="url(#clip-76)"><g><clipPath id="clip-77"><path d="M 62.0 431.0 L 83.0 431.0 L 83.0 458.0 L 62.0 458.0 Z M 62.0 431.0 "></path></clipPath><g clip-path="url(#clip-77)"><path d="M 78.3 448.4 C 78.3 448.9 78.0 449.5 77.5 450.0 C 77.0 450.6 76.4 450.9 75.8 450.9 C 75.6 450.9 75.1 450.7 74.5 450.4 C 73.6 450.0 72.8 449.8 72.1 449.8 C 71.4 449.8 70.6 450.0 69.7 450.4 C 69.1 450.7 68.7 450.9 68.4 450.9 C 67.8 450.9 67.3 450.6 66.8 450.1 C 66.3 449.5 66.0 449.0 66.0 448.4 C 66.0 448.1 66.1 447.7 66.4 447.0 C 66.8 446.1 67.0 445.4 67.0 444.7 C 67.0 444.0 66.8 443.2 66.4 442.3 C 66.1 441.7 66.0 441.3 66.0 441.0 C 66.0 440.4 66.3 439.9 66.8 439.3 C 67.3 438.8 67.8 438.5 68.4 438.5 C 68.7 438.5 69.1 438.7 69.7 438.9 C 70.6 439.4 71.4 439.6 72.1 439.6 C 72.8 439.6 73.6 439.4 74.5 438.9 C 75.1 438.7 75.6 438.5 75.8 438.5 C 76.4 438.5 77.0 438.8 77.5 439.3 C 78.0 439.9 78.3 440.4 78.3 441.0 C 78.3 441.3 78.2 441.7 77.9 442.3 C 77.4 443.2 77.2 444.0 77.2 444.7 C 77.2 445.4 77.4 446.1 77.9 447.0 C 78.2 447.7 78.3 448.1 78.3 448.4 " fill="#FFFFFF"></path></g></g></g></g></g></g></g><image xlink:href="EA444FF565A2D839A80D023DC4AF1543.png" width="150.00" height="41.00" transform="matrix(1.00, 0.00, -0.00, -1.00, 97.0, 461.0)"></image><text xml:space="preserve" font-family="HelveticaNeue-Light" font-size="34.9" fill="#FEFFFE" transform="matrix(1.00, 0.00, -0.00, -1.00, 100.0, 434.0)">O</text><text xml:space="preserve" font-family="HelveticaNeue-Light" font-size="34.9" fill="#FEFFFE" transform="matrix(1.00, 0.00, -0.00, -1.00, 125.9, 434.0)">s</text><text xml:space="preserve" font-family="HelveticaNeue-Light" font-size="34.9" fill="#FEFFFE" transform="matrix(1.00, 0.00, -0.00, -1.00, 142.7, 434.0)">c</text><text xml:space="preserve" font-family="HelveticaNeue-Light" font-size="34.9" fill="#FEFFFE" transform="matrix(1.00, 0.00, -0.00, -1.00, 160.8, 434.0)">y</text><text xml:space="preserve" font-family="HelveticaNeue-Light" font-size="34.9" fill="#FEFFFE" transform="matrix(1.00, 0.00, -0.00, -1.00, 177.0, 434.0)">l</text><text xml:space="preserve" font-family="HelveticaNeue-Light" font-size="34.9" fill="#FEFFFE" transform="matrix(1.00, 0.00, -0.00, -1.00, 183.4, 434.0)">a</text><text xml:space="preserve" font-family="HelveticaNeue-Light" font-size="34.9" fill="#FEFFFE" transform="matrix(1.00, 0.00, -0.00, -1.00, 201.5, 434.0)">t</text><text xml:space="preserve" font-family="HelveticaNeue-Light" font-size="34.9" fill="#FEFFFE" transform="matrix(1.00, 0.00, -0.00, -1.00, 211.9, 434.0)">o</text><text xml:space="preserve" font-family="HelveticaNeue-Light" font-size="34.9" fill="#FEFFFE" transform="matrix(1.00, 0.00, -0.00, -1.00, 231.3, 434.0)">r</text><text xml:space="preserve" font-family="HelveticaNeue-Light" font-size="34.9" fill="#FEFFFE" transform="matrix(1.00, 0.00, -0.00, -1.00, 242.3, 434.0)"> </text><image xlink:href="1285CD91EE7EDE4FC57150B44DDD5869.png" width="13.00" height="13.00" transform="matrix(1.00, 0.00, -0.00, -1.00, 66.0, 374.0)"></image><g><clipPath id="clip-78"><path d="M 66.0 361.6 L 78.3 361.6 L 78.3 374.0 L 66.0 374.0 Z M 66.0 361.6 "></path></clipPath><g clip-path="url(#clip-78)"><g><g><clipPath id="clip-79"><path d="M 66.0 374.0 L 78.3 374.0 L 78.3 361.6 L 66.0 361.6 Z M 66.0 374.0 "></path></clipPath><g clip-path="url(#clip-79)"><g><clipPath id="clip-80"><path d="M 62.0 354.0 L 83.0 354.0 L 83.0 381.0 L 62.0 381.0 Z M 62.0 354.0 "></path></clipPath><g clip-path="url(#clip-80)"><path d="M 78.3 371.5 C 78.3 372.0 78.0 372.6 77.5 373.1 C 77.0 373.7 76.4 374.0 75.8 374.0 C 75.6 374.0 75.1 373.8 74.5 373.5 C 73.6 373.1 72.8 372.8 72.1 372.8 C 71.4 372.8 70.6 373.1 69.7 373.5 C 69.1 373.8 68.7 374.0 68.4 374.0 C 67.8 374.0 67.3 373.7 66.8 373.2 C 66.3 372.6 66.0 372.1 66.0 371.5 C 66.0 371.2 66.1 370.7 66.4 370.1 C 66.8 369.2 67.0 368.4 67.0 367.8 C 67.0 367.1 66.8 366.3 66.4 365.4 C 66.1 364.8 66.0 364.4 66.0 364.1 C 66.0 363.5 66.3 362.9 66.8 362.4 C 67.3 361.9 67.8 361.6 68.4 361.6 C 68.7 361.6 69.1 361.7 69.7 362.0 C 70.6 362.5 71.4 362.7 72.1 362.7 C 72.8 362.7 73.6 362.5 74.5 362.0 C 75.1 361.7 75.6 361.6 75.8 361.6 C 76.4 361.6 77.0 361.9 77.5 362.4 C 78.0 362.9 78.3 363.5 78.3 364.1 C 78.3 364.4 78.2 364.8 77.9 365.4 C 77.4 366.3 77.2 367.1 77.2 367.8 C 77.2 368.4 77.4 369.2 77.9 370.1 C 78.2 370.7 78.3 371.2 78.3 371.5 " fill="#FFFFFF"></path></g></g></g></g></g></g></g><image xlink:href="9A5EA55C32E90CDA74634561762B9495.png" width="565.00" height="47.00" transform="matrix(1.00, 0.00, -0.00, -1.00, 96.0, 390.0)"></image><text xml:space="preserve" font-family="HelveticaNeue-Light" font-size="34.9" fill="#FEFFFE" transform="matrix(1.00, 0.00, -0.00, -1.00, 100.0, 357.0)">Ż</text><text xml:space="preserve" font-family="HelveticaNeue-Light" font-size="34.9" fill="#FEFFFE" transform="matrix(1.00, 0.00, -0.00, -1.00, 120.0, 357.0)">y</text><text xml:space="preserve" font-family="HelveticaNeue-Light" font-size="34.9" fill="#FEFFFE" transform="matrix(1.00, 0.00, -0.00, -1.00, 136.2, 357.0)">r</text><text xml:space="preserve" font-family="HelveticaNeue-Light" font-size="34.9" fill="#FEFFFE" transform="matrix(1.00, 0.00, -0.00, -1.00, 146.6, 357.0)">o</text><text xml:space="preserve" font-family="HelveticaNeue-Light" font-size="34.9" fill="#FEFFFE" transform="matrix(1.00, 0.00, -0.00, -1.00, 166.0, 357.0)">s</text><text xml:space="preserve" font-family="HelveticaNeue-Light" font-size="34.9" fill="#FEFFFE" transform="matrix(1.00, 0.00, -0.00, -1.00, 182.8, 357.0)">k</text><text xml:space="preserve" font-family="HelveticaNeue-Light" font-size="34.9" fill="#FEFFFE" transform="matrix(1.00, 0.00, -0.00, -1.00, 200.3, 357.0)">o</text><text xml:space="preserve" font-family="HelveticaNeue-Light" font-size="34.9" fill="#FEFFFE" transform="matrix(1.00, 0.00, -0.00, -1.00, 219.7, 357.0)">p</text><text xml:space="preserve" font-family="HelveticaNeue-Light" font-size="34.9" fill="#FEFFFE" transform="matrix(1.00, 0.00, -0.00, -1.00, 239.7, 357.0)"> </text><text xml:space="preserve" font-family="HelveticaNeue-Light" font-size="34.9" fill="#FEFFFE" transform="matrix(1.00, 0.00, -0.00, -1.00, 249.4, 357.0)">i</text><text xml:space="preserve" font-family="HelveticaNeue-Light" font-size="34.9" fill="#FEFFFE" transform="matrix(1.00, 0.00, -0.00, -1.00, 255.9, 357.0)"> </text><text xml:space="preserve" font-family="HelveticaNeue-Light" font-size="34.9" fill="#FEFFFE" transform="matrix(1.00, 0.00, -0.00, -1.00, 265.6, 357.0)">a</text><text xml:space="preserve" font-family="HelveticaNeue-Light" font-size="34.9" fill="#FEFFFE" transform="matrix(1.00, 0.00, -0.00, -1.00, 283.7, 357.0)">k</text><text xml:space="preserve" font-family="HelveticaNeue-Light" font-size="34.9" fill="#FEFFFE" transform="matrix(1.00, 0.00, -0.00, -1.00, 301.2, 357.0)">c</text><text xml:space="preserve" font-family="HelveticaNeue-Light" font-size="34.9" fill="#FEFFFE" transform="matrix(1.00, 0.00, -0.00, -1.00, 319.3, 357.0)">e</text><text xml:space="preserve" font-family="HelveticaNeue-Light" font-size="34.9" fill="#FEFFFE" transform="matrix(1.00, 0.00, -0.00, -1.00, 337.4, 357.0)">l</text><text xml:space="preserve" font-family="HelveticaNeue-Light" font-size="34.9" fill="#FEFFFE" transform="matrix(1.00, 0.00, -0.00, -1.00, 343.9, 357.0)">e</text><text xml:space="preserve" font-family="HelveticaNeue-Light" font-size="34.9" fill="#FEFFFE" transform="matrix(1.00, 0.00, -0.00, -1.00, 362.0, 357.0)">r</text><text xml:space="preserve" font-family="HelveticaNeue-Light" font-size="34.9" fill="#FEFFFE" transform="matrix(1.00, 0.00, -0.00, -1.00, 372.4, 357.0)">o</text><text xml:space="preserve" font-family="HelveticaNeue-Light" font-size="34.9" fill="#FEFFFE" transform="matrix(1.00, 0.00, -0.00, -1.00, 391.8, 357.0)">m</text><text xml:space="preserve" font-family="HelveticaNeue-Light" font-size="34.9" fill="#FEFFFE" transform="matrix(1.00, 0.00, -0.00, -1.00, 420.9, 357.0)">e</text><text xml:space="preserve" font-family="HelveticaNeue-Light" font-size="34.9" fill="#FEFFFE" transform="matrix(1.00, 0.00, -0.00, -1.00, 439.0, 357.0)">t</text><text xml:space="preserve" font-family="HelveticaNeue-Light" font-size="34.9" fill="#FEFFFE" transform="matrix(1.00, 0.00, -0.00, -1.00, 449.3, 357.0)">r</text><text xml:space="preserve" font-family="HelveticaNeue-Light" font-size="34.9" fill="#FEFFFE" transform="matrix(1.00, 0.00, -0.00, -1.00, 460.3, 357.0)"> </text><text xml:space="preserve" font-family="HelveticaNeue-Light" font-size="34.9" fill="#FEFFFE" transform="matrix(1.00, 0.00, -0.00, -1.00, 470.0, 357.0)">-</text><text xml:space="preserve" font-family="HelveticaNeue-Light" font-size="34.9" fill="#FEFFFE" transform="matrix(1.00, 0.00, -0.00, -1.00, 483.0, 357.0)"> </text><text xml:space="preserve" font-family="HelveticaNeue-Light" font-size="34.9" fill="#FEFFFE" transform="matrix(1.00, 0.00, -0.00, -1.00, 492.7, 357.0)">M</text><text xml:space="preserve" font-family="HelveticaNeue-Light" font-size="34.9" fill="#FEFFFE" transform="matrix(1.00, 0.00, -0.00, -1.00, 521.3, 357.0)">P</text><text xml:space="preserve" font-family="HelveticaNeue-Light" font-size="34.9" fill="#FEFFFE" transform="matrix(1.00, 0.00, -0.00, -1.00, 543.3, 357.0)">U</text><text xml:space="preserve" font-family="HelveticaNeue-Light" font-size="34.9" fill="#FEFFFE" transform="matrix(1.00, 0.00, -0.00, -1.00, 567.3, 357.0)">-</text><text xml:space="preserve" font-family="HelveticaNeue-Light" font-size="34.9" fill="#FEFFFE" transform="matrix(1.00, 0.00, -0.00, -1.00, 580.2, 357.0)">6</text><text xml:space="preserve" font-family="HelveticaNeue-Light" font-size="34.9" fill="#FEFFFE" transform="matrix(1.00, 0.00, -0.00, -1.00, 599.6, 357.0)">0</text><text xml:space="preserve" font-family="HelveticaNeue-Light" font-size="34.9" fill="#FEFFFE" transform="matrix(1.00, 0.00, -0.00, -1.00, 619.0, 357.0)">5</text><text xml:space="preserve" font-family="HelveticaNeue-Light" font-size="34.9" fill="#FEFFFE" transform="matrix(1.00, 0.00, -0.00, -1.00, 638.4, 357.0)">0</text><text xml:space="preserve" font-family="HelveticaNeue-Light" font-size="34.9" fill="#FEFFFE" transform="matrix(1.00, 0.00, -0.00, -1.00, 657.8, 357.0)"> </text><image xlink:href="548F61E9F376EB79E92BE6EEAF8DFA8D.png" width="13.00" height="14.00" transform="matrix(1.00, 0.00, -0.00, -1.00, 66.0, 298.0)"></image><g><clipPath id="clip-81"><path d="M 66.0 284.7 L 78.3 284.7 L 78.3 297.0 L 66.0 297.0 Z M 66.0 284.7 "></path></clipPath><g clip-path="url(#clip-81)"><g><g><clipPath id="clip-82"><path d="M 66.0 297.0 L 78.3 297.0 L 78.3 284.7 L 66.0 284.7 Z M 66.0 297.0 "></path></clipPath><g clip-path="url(#clip-82)"><g><clipPath id="clip-83"><path d="M 62.0 277.0 L 83.0 277.0 L 83.0 305.0 L 62.0 305.0 Z M 62.0 277.0 "></path></clipPath><g clip-path="url(#clip-83)"><path d="M 78.3 294.6 C 78.3 295.1 78.0 295.6 77.5 296.2 C 77.0 296.8 76.4 297.0 75.8 297.0 C 75.6 297.0 75.1 296.9 74.5 296.6 C 73.6 296.1 72.8 295.9 72.1 295.9 C 71.4 295.9 70.6 296.1 69.7 296.6 C 69.1 296.9 68.7 297.0 68.4 297.0 C 67.8 297.0 67.3 296.8 66.8 296.2 C 66.3 295.7 66.0 295.1 66.0 294.6 C 66.0 294.3 66.1 293.8 66.4 293.2 C 66.8 292.3 67.0 291.5 67.0 290.9 C 67.0 290.2 66.8 289.4 66.4 288.4 C 66.1 287.9 66.0 287.4 66.0 287.1 C 66.0 286.6 66.3 286.0 66.8 285.5 C 67.3 284.9 67.8 284.7 68.4 284.7 C 68.7 284.7 69.1 284.8 69.7 285.1 C 70.6 285.6 71.4 285.8 72.1 285.8 C 72.8 285.8 73.6 285.6 74.5 285.1 C 75.1 284.8 75.6 284.7 75.8 284.7 C 76.4 284.7 77.0 284.9 77.5 285.5 C 78.0 286.0 78.3 286.6 78.3 287.1 C 78.3 287.4 78.2 287.9 77.9 288.4 C 77.4 289.4 77.2 290.2 77.2 290.9 C 77.2 291.5 77.4 292.3 77.9 293.2 C 78.2 293.8 78.3 294.3 78.3 294.6 " fill="#FFFFFF"></path></g></g></g></g></g></g></g><image xlink:href="7FE18551416C98F125559B56D47D42AB.png" width="751.00" height="41.00" transform="matrix(1.00, 0.00, -0.00, -1.00, 97.0, 307.0)"></image><text xml:space="preserve" font-family="HelveticaNeue-Light" font-size="34.9" fill="#FEFFFE" transform="matrix(1.00, 0.00, -0.00, -1.00, 100.0, 280.0)">C</text><text xml:space="preserve" font-family="HelveticaNeue-Light" font-size="34.9" fill="#FEFFFE" transform="matrix(1.00, 0.00, -0.00, -1.00, 124.6, 280.0)">z</text><text xml:space="preserve" font-family="HelveticaNeue-Light" font-size="34.9" fill="#FEFFFE" transform="matrix(1.00, 0.00, -0.00, -1.00, 140.8, 280.0)">u</text><text xml:space="preserve" font-family="HelveticaNeue-Light" font-size="34.9" fill="#FEFFFE" transform="matrix(1.00, 0.00, -0.00, -1.00, 159.5, 280.0)">j</text><text xml:space="preserve" font-family="HelveticaNeue-Light" font-size="34.9" fill="#FEFFFE" transform="matrix(1.00, 0.00, -0.00, -1.00, 166.0, 280.0)">n</text><text xml:space="preserve" font-family="HelveticaNeue-Light" font-size="34.9" fill="#FEFFFE" transform="matrix(1.00, 0.00, -0.00, -1.00, 184.7, 280.0)">i</text><text xml:space="preserve" font-family="HelveticaNeue-Light" font-size="34.9" fill="#FEFFFE" transform="matrix(1.00, 0.00, -0.00, -1.00, 191.2, 280.0)">k</text><text xml:space="preserve" font-family="HelveticaNeue-Light" font-size="34.9" fill="#FEFFFE" transform="matrix(1.00, 0.00, -0.00, -1.00, 208.6, 280.0)"> </text><text xml:space="preserve" font-family="HelveticaNeue-Light" font-size="34.9" fill="#FEFFFE" transform="matrix(1.00, 0.00, -0.00, -1.00, 218.3, 280.0)">p</text><text xml:space="preserve" font-family="HelveticaNeue-Light" font-size="34.9" fill="#FEFFFE" transform="matrix(1.00, 0.00, -0.00, -1.00, 238.4, 280.0)">u</text><text xml:space="preserve" font-family="HelveticaNeue-Light" font-size="34.9" fill="#FEFFFE" transform="matrix(1.00, 0.00, -0.00, -1.00, 257.1, 280.0)">l</text><text xml:space="preserve" font-family="HelveticaNeue-Light" font-size="34.9" fill="#FEFFFE" transform="matrix(1.00, 0.00, -0.00, -1.00, 263.6, 280.0)">s</text><text xml:space="preserve" font-family="HelveticaNeue-Light" font-size="34.9" fill="#FEFFFE" transform="matrix(1.00, 0.00, -0.00, -1.00, 280.4, 280.0)">u</text><text xml:space="preserve" font-family="HelveticaNeue-Light" font-size="34.9" fill="#FEFFFE" transform="matrix(1.00, 0.00, -0.00, -1.00, 299.1, 280.0)"> </text><text xml:space="preserve" font-family="HelveticaNeue-Light" font-size="34.9" fill="#FEFFFE" transform="matrix(1.00, 0.00, -0.00, -1.00, 308.9, 280.0)">-</text><text xml:space="preserve" font-family="HelveticaNeue-Light" font-size="34.9" fill="#FEFFFE" transform="matrix(1.00, 0.00, -0.00, -1.00, 321.8, 280.0)"> </text><text xml:space="preserve" font-family="HelveticaNeue-Light" font-size="34.9" fill="#FEFFFE" transform="matrix(1.00, 0.00, -0.00, -1.00, 331.5, 280.0)">S</text><text xml:space="preserve" font-family="HelveticaNeue-Light" font-size="34.9" fill="#FEFFFE" transform="matrix(1.00, 0.00, -0.00, -1.00, 353.5, 280.0)">e</text><text xml:space="preserve" font-family="HelveticaNeue-Light" font-size="34.9" fill="#FEFFFE" transform="matrix(1.00, 0.00, -0.00, -1.00, 371.6, 280.0)">e</text><text xml:space="preserve" font-family="HelveticaNeue-Light" font-size="34.9" fill="#FEFFFE" transform="matrix(1.00, 0.00, -0.00, -1.00, 389.7, 280.0)">e</text><text xml:space="preserve" font-family="HelveticaNeue-Light" font-size="34.9" fill="#FEFFFE" transform="matrix(1.00, 0.00, -0.00, -1.00, 407.9, 280.0)">d</text><text xml:space="preserve" font-family="HelveticaNeue-Light" font-size="34.9" fill="#FEFFFE" transform="matrix(1.00, 0.00, -0.00, -1.00, 427.9, 280.0)">s</text><text xml:space="preserve" font-family="HelveticaNeue-Light" font-size="34.9" fill="#FEFFFE" transform="matrix(1.00, 0.00, -0.00, -1.00, 444.7, 280.0)">t</text><text xml:space="preserve" font-family="HelveticaNeue-Light" font-size="34.9" fill="#FEFFFE" transform="matrix(1.00, 0.00, -0.00, -1.00, 455.0, 280.0)">u</text><text xml:space="preserve" font-family="HelveticaNeue-Light" font-size="34.9" fill="#FEFFFE" transform="matrix(1.00, 0.00, -0.00, -1.00, 473.8, 280.0)">d</text><text xml:space="preserve" font-family="HelveticaNeue-Light" font-size="34.9" fill="#FEFFFE" transform="matrix(1.00, 0.00, -0.00, -1.00, 493.8, 280.0)">i</text><text xml:space="preserve" font-family="HelveticaNeue-Light" font-size="34.9" fill="#FEFFFE" transform="matrix(1.00, 0.00, -0.00, -1.00, 500.3, 280.0)">o</text><text xml:space="preserve" font-family="HelveticaNeue-Light" font-size="34.9" fill="#FEFFFE" transform="matrix(1.00, 0.00, -0.00, -1.00, 519.7, 280.0)"> </text><text xml:space="preserve" font-family="HelveticaNeue-Light" font-size="34.9" fill="#FEFFFE" transform="matrix(1.00, 0.00, -0.00, -1.00, 529.4, 280.0)">G</text><text xml:space="preserve" font-family="HelveticaNeue-Light" font-size="34.9" fill="#FEFFFE" transform="matrix(1.00, 0.00, -0.00, -1.00, 555.3, 280.0)">r</text><text xml:space="preserve" font-family="HelveticaNeue-Light" font-size="34.9" fill="#FEFFFE" transform="matrix(1.00, 0.00, -0.00, -1.00, 565.7, 280.0)">o</text><text xml:space="preserve" font-family="HelveticaNeue-Light" font-size="34.9" fill="#FEFFFE" transform="matrix(1.00, 0.00, -0.00, -1.00, 585.1, 280.0)">v</text><text xml:space="preserve" font-family="HelveticaNeue-Light" font-size="34.9" fill="#FEFFFE" transform="matrix(1.00, 0.00, -0.00, -1.00, 601.2, 280.0)">e</text><text xml:space="preserve" font-family="HelveticaNeue-Light" font-size="34.9" fill="#FEFFFE" transform="matrix(1.00, 0.00, -0.00, -1.00, 619.4, 280.0)"> </text><text xml:space="preserve" font-family="HelveticaNeue-Light" font-size="34.9" fill="#FEFFFE" transform="matrix(1.00, 0.00, -0.00, -1.00, 629.1, 280.0)">-</text><text xml:space="preserve" font-family="HelveticaNeue-Light" font-size="34.9" fill="#FEFFFE" transform="matrix(1.00, 0.00, -0.00, -1.00, 642.0, 280.0)"> </text><text xml:space="preserve" font-family="HelveticaNeue-Light" font-size="34.9" fill="#FEFFFE" transform="matrix(1.00, 0.00, -0.00, -1.00, 651.7, 280.0)">M</text><text xml:space="preserve" font-family="HelveticaNeue-Light" font-size="34.9" fill="#FEFFFE" transform="matrix(1.00, 0.00, -0.00, -1.00, 680.4, 280.0)">E</text><text xml:space="preserve" font-family="HelveticaNeue-Light" font-size="34.9" fill="#FEFFFE" transform="matrix(1.00, 0.00, -0.00, -1.00, 701.1, 280.0)">D</text><text xml:space="preserve" font-family="HelveticaNeue-Light" font-size="34.9" fill="#FEFFFE" transform="matrix(1.00, 0.00, -0.00, -1.00, 725.0, 280.0)">0</text><text xml:space="preserve" font-family="HelveticaNeue-Light" font-size="34.9" fill="#FEFFFE" transform="matrix(1.00, 0.00, -0.00, -1.00, 744.4, 280.0)">3</text><text xml:space="preserve" font-family="HelveticaNeue-Light" font-size="34.9" fill="#FEFFFE" transform="matrix(1.00, 0.00, -0.00, -1.00, 763.8, 280.0)">2</text><text xml:space="preserve" font-family="HelveticaNeue-Light" font-size="34.9" fill="#FEFFFE" transform="matrix(1.00, 0.00, -0.00, -1.00, 783.2, 280.0)">1</text><text xml:space="preserve" font-family="HelveticaNeue-Light" font-size="34.9" fill="#FEFFFE" transform="matrix(1.00, 0.00, -0.00, -1.00, 802.7, 280.0)">2</text><text xml:space="preserve" font-family="HelveticaNeue-Light" font-size="34.9" fill="#FEFFFE" transform="matrix(1.00, 0.00, -0.00, -1.00, 822.1, 280.0)">P</text><text xml:space="preserve" font-family="HelveticaNeue-Light" font-size="34.9" fill="#FEFFFE" transform="matrix(1.00, 0.00, -0.00, -1.00, 844.1, 280.0)"> </text><image xlink:href="3952619477A406B4A2E32251593C0DA0.png" width="13.00" height="14.00" transform="matrix(1.00, 0.00, -0.00, -1.00, 66.0, 221.0)"></image><g><clipPath id="clip-84"><path d="M 66.0 207.8 L 78.3 207.8 L 78.3 220.1 L 66.0 220.1 Z M 66.0 207.8 "></path></clipPath><g clip-path="url(#clip-84)"><g><g><clipPath id="clip-85"><path d="M 66.0 220.1 L 78.3 220.1 L 78.3 207.8 L 66.0 207.8 Z M 66.0 220.1 "></path></clipPath><g clip-path="url(#clip-85)"><g><clipPath id="clip-86"><path d="M 62.0 200.0 L 83.0 200.0 L 83.0 228.0 L 62.0 228.0 Z M 62.0 200.0 "></path></clipPath><g clip-path="url(#clip-86)"><path d="M 78.3 217.6 C 78.3 218.2 78.0 218.7 77.5 219.3 C 77.0 219.8 76.4 220.1 75.8 220.1 C 75.6 220.1 75.1 220.0 74.5 219.7 C 73.6 219.2 72.8 219.0 72.1 219.0 C 71.4 219.0 70.6 219.2 69.7 219.7 C 69.1 220.0 68.7 220.1 68.4 220.1 C 67.8 220.1 67.3 219.8 66.8 219.3 C 66.3 218.8 66.0 218.2 66.0 217.6 C 66.0 217.4 66.1 216.9 66.4 216.3 C 66.8 215.4 67.0 214.6 67.0 213.9 C 67.0 213.3 66.8 212.5 66.4 211.5 C 66.1 210.9 66.0 210.5 66.0 210.2 C 66.0 209.6 66.3 209.1 66.8 208.6 C 67.3 208.0 67.8 207.8 68.4 207.8 C 68.7 207.8 69.1 207.9 69.7 208.2 C 70.6 208.6 71.4 208.9 72.1 208.9 C 72.8 208.9 73.6 208.6 74.5 208.2 C 75.1 207.9 75.6 207.8 75.8 207.8 C 76.4 207.8 77.0 208.0 77.5 208.6 C 78.0 209.1 78.3 209.6 78.3 210.2 C 78.3 210.5 78.2 210.9 77.9 211.5 C 77.4 212.5 77.2 213.3 77.2 213.9 C 77.2 214.6 77.4 215.4 77.9 216.3 C 78.2 216.9 78.3 217.4 78.3 217.6 " fill="#FFFFFF"></path></g></g></g></g></g></g></g><image xlink:href="CB49C6235E6B8F207CFEEA1CE934D5F8.png" width="566.00" height="41.00" transform="matrix(1.00, 0.00, -0.00, -1.00, 98.0, 230.0)"></image><text xml:space="preserve" font-family="HelveticaNeue-Light" font-size="34.9" fill="#FEFFFE" transform="matrix(1.00, 0.00, -0.00, -1.00, 100.0, 203.0)">M</text><text xml:space="preserve" font-family="HelveticaNeue-Light" font-size="34.9" fill="#FEFFFE" transform="matrix(1.00, 0.00, -0.00, -1.00, 128.7, 203.0)">o</text><text xml:space="preserve" font-family="HelveticaNeue-Light" font-size="34.9" fill="#FEFFFE" transform="matrix(1.00, 0.00, -0.00, -1.00, 148.1, 203.0)">n</text><text xml:space="preserve" font-family="HelveticaNeue-Light" font-size="34.9" fill="#FEFFFE" transform="matrix(1.00, 0.00, -0.00, -1.00, 166.8, 203.0)">o</text><text xml:space="preserve" font-family="HelveticaNeue-Light" font-size="34.9" fill="#FEFFFE" transform="matrix(1.00, 0.00, -0.00, -1.00, 186.3, 203.0)">c</text><text xml:space="preserve" font-family="HelveticaNeue-Light" font-size="34.9" fill="#FEFFFE" transform="matrix(1.00, 0.00, -0.00, -1.00, 204.4, 203.0)">h</text><text xml:space="preserve" font-family="HelveticaNeue-Light" font-size="34.9" fill="#FEFFFE" transform="matrix(1.00, 0.00, -0.00, -1.00, 223.1, 203.0)">r</text><text xml:space="preserve" font-family="HelveticaNeue-Light" font-size="34.9" fill="#FEFFFE" transform="matrix(1.00, 0.00, -0.00, -1.00, 233.5, 203.0)">o</text><text xml:space="preserve" font-family="HelveticaNeue-Light" font-size="34.9" fill="#FEFFFE" transform="matrix(1.00, 0.00, -0.00, -1.00, 252.9, 203.0)">m</text><text xml:space="preserve" font-family="HelveticaNeue-Light" font-size="34.9" fill="#FEFFFE" transform="matrix(1.00, 0.00, -0.00, -1.00, 282.0, 203.0)">a</text><text xml:space="preserve" font-family="HelveticaNeue-Light" font-size="34.9" fill="#FEFFFE" transform="matrix(1.00, 0.00, -0.00, -1.00, 300.1, 203.0)">t</text><text xml:space="preserve" font-family="HelveticaNeue-Light" font-size="34.9" fill="#FEFFFE" transform="matrix(1.00, 0.00, -0.00, -1.00, 310.5, 203.0)">y</text><text xml:space="preserve" font-family="HelveticaNeue-Light" font-size="34.9" fill="#FEFFFE" transform="matrix(1.00, 0.00, -0.00, -1.00, 326.6, 203.0)">c</text><text xml:space="preserve" font-family="HelveticaNeue-Light" font-size="34.9" fill="#FEFFFE" transform="matrix(1.00, 0.00, -0.00, -1.00, 344.8, 203.0)">z</text><text xml:space="preserve" font-family="HelveticaNeue-Light" font-size="34.9" fill="#FEFFFE" transform="matrix(1.00, 0.00, -0.00, -1.00, 360.9, 203.0)">n</text><text xml:space="preserve" font-family="HelveticaNeue-Light" font-size="34.9" fill="#FEFFFE" transform="matrix(1.00, 0.00, -0.00, -1.00, 379.7, 203.0)">y</text><text xml:space="preserve" font-family="HelveticaNeue-Light" font-size="34.9" fill="#FEFFFE" transform="matrix(1.00, 0.00, -0.00, -1.00, 395.8, 203.0)"> </text><text xml:space="preserve" font-family="HelveticaNeue-Light" font-size="34.9" fill="#FEFFFE" transform="matrix(1.00, 0.00, -0.00, -1.00, 405.6, 203.0)">w</text><text xml:space="preserve" font-family="HelveticaNeue-Light" font-size="34.9" fill="#FEFFFE" transform="matrix(1.00, 0.00, -0.00, -1.00, 431.4, 203.0)">y</text><text xml:space="preserve" font-family="HelveticaNeue-Light" font-size="34.9" fill="#FEFFFE" transform="matrix(1.00, 0.00, -0.00, -1.00, 447.6, 203.0)">ś</text><text xml:space="preserve" font-family="HelveticaNeue-Light" font-size="34.9" fill="#FEFFFE" transform="matrix(1.00, 0.00, -0.00, -1.00, 464.4, 203.0)">w</text><text xml:space="preserve" font-family="HelveticaNeue-Light" font-size="34.9" fill="#FEFFFE" transform="matrix(1.00, 0.00, -0.00, -1.00, 490.3, 203.0)">i</text><text xml:space="preserve" font-family="HelveticaNeue-Light" font-size="34.9" fill="#FEFFFE" transform="matrix(1.00, 0.00, -0.00, -1.00, 496.7, 203.0)">e</text><text xml:space="preserve" font-family="HelveticaNeue-Light" font-size="34.9" fill="#FEFFFE" transform="matrix(1.00, 0.00, -0.00, -1.00, 514.8, 203.0)">t</text><text xml:space="preserve" font-family="HelveticaNeue-Light" font-size="34.9" fill="#FEFFFE" transform="matrix(1.00, 0.00, -0.00, -1.00, 525.2, 203.0)">l</text><text xml:space="preserve" font-family="HelveticaNeue-Light" font-size="34.9" fill="#FEFFFE" transform="matrix(1.00, 0.00, -0.00, -1.00, 531.6, 203.0)">a</text><text xml:space="preserve" font-family="HelveticaNeue-Light" font-size="34.9" fill="#FEFFFE" transform="matrix(1.00, 0.00, -0.00, -1.00, 549.8, 203.0)">c</text><text xml:space="preserve" font-family="HelveticaNeue-Light" font-size="34.9" fill="#FEFFFE" transform="matrix(1.00, 0.00, -0.00, -1.00, 567.9, 203.0)">z</text><text xml:space="preserve" font-family="HelveticaNeue-Light" font-size="34.9" fill="#FEFFFE" transform="matrix(1.00, 0.00, -0.00, -1.00, 584.1, 203.0)"> </text><text xml:space="preserve" font-family="HelveticaNeue-Light" font-size="34.9" fill="#FEFFFE" transform="matrix(1.00, 0.00, -0.00, -1.00, 593.8, 203.0)">L</text><text xml:space="preserve" font-family="HelveticaNeue-Light" font-size="34.9" fill="#FEFFFE" transform="matrix(1.00, 0.00, -0.00, -1.00, 612.5, 203.0)">C</text><text xml:space="preserve" font-family="HelveticaNeue-Light" font-size="34.9" fill="#FEFFFE" transform="matrix(1.00, 0.00, -0.00, -1.00, 637.1, 203.0)">D</text><text xml:space="preserve" font-family="HelveticaNeue-Light" font-size="34.9" fill="#FEFFFE" transform="matrix(1.00, 0.00, -0.00, -1.00, 661.0, 203.0)"> </text><image xlink:href="0C4DC4EDAB79D5BFD404E4D280E92BBE.png" width="13.00" height="14.00" transform="matrix(1.00, 0.00, -0.00, -1.00, 66.0, 144.0)"></image><g><clipPath id="clip-87"><path d="M 66.0 130.8 L 78.3 130.8 L 78.3 143.2 L 66.0 143.2 Z M 66.0 130.8 "></path></clipPath><g clip-path="url(#clip-87)"><g><g><clipPath id="clip-88"><path d="M 66.0 143.2 L 78.3 143.2 L 78.3 130.8 L 66.0 130.8 Z M 66.0 143.2 "></path></clipPath><g clip-path="url(#clip-88)"><g><clipPath id="clip-89"><path d="M 62.0 123.0 L 83.0 123.0 L 83.0 151.0 L 62.0 151.0 Z M 62.0 123.0 "></path></clipPath><g clip-path="url(#clip-89)"><path d="M 78.3 140.7 C 78.3 141.3 78.0 141.8 77.5 142.4 C 77.0 142.9 76.4 143.2 75.8 143.2 C 75.6 143.2 75.1 143.1 74.5 142.8 C 73.6 142.3 72.8 142.1 72.1 142.1 C 71.4 142.1 70.6 142.3 69.7 142.8 C 69.1 143.1 68.7 143.2 68.4 143.2 C 67.8 143.2 67.3 142.9 66.8 142.4 C 66.3 141.9 66.0 141.3 66.0 140.7 C 66.0 140.4 66.1 140.0 66.4 139.4 C 66.8 138.5 67.0 137.7 67.0 137.0 C 67.0 136.4 66.8 135.6 66.4 134.6 C 66.1 134.0 66.0 133.6 66.0 133.3 C 66.0 132.7 66.3 132.2 66.8 131.6 C 67.3 131.1 67.8 130.8 68.4 130.8 C 68.7 130.8 69.1 131.0 69.7 131.3 C 70.6 131.7 71.4 131.9 72.1 131.9 C 72.8 131.9 73.6 131.7 74.5 131.3 C 75.1 131.0 75.6 130.8 75.8 130.8 C 76.4 130.8 77.0 131.1 77.5 131.6 C 78.0 132.2 78.3 132.7 78.3 133.3 C 78.3 133.6 78.2 134.0 77.9 134.6 C 77.4 135.6 77.2 136.4 77.2 137.0 C 77.2 137.7 77.4 138.5 77.9 139.4 C 78.2 140.0 78.3 140.4 78.3 140.7 " fill="#FFFFFF"></path></g></g></g></g></g></g></g><image xlink:href="24ADE5E68F568D4A27D4326303C8910A.png" width="135.00" height="40.00" transform="matrix(1.00, 0.00, -0.00, -1.00, 98.0, 152.0)"></image><text xml:space="preserve" font-family="HelveticaNeue-Light" font-size="34.9" fill="#FEFFFE" transform="matrix(1.00, 0.00, -0.00, -1.00, 100.0, 126.0)">P</text><text xml:space="preserve" font-family="HelveticaNeue-Light" font-size="34.9" fill="#FEFFFE" transform="matrix(1.00, 0.00, -0.00, -1.00, 122.0, 126.0)">r</text><text xml:space="preserve" font-family="HelveticaNeue-Light" font-size="34.9" fill="#FEFFFE" transform="matrix(1.00, 0.00, -0.00, -1.00, 133.0, 126.0)">z</text><text xml:space="preserve" font-family="HelveticaNeue-Light" font-size="34.9" fill="#FEFFFE" transform="matrix(1.00, 0.00, -0.00, -1.00, 149.2, 126.0)">y</text><text xml:space="preserve" font-family="HelveticaNeue-Light" font-size="34.9" fill="#FEFFFE" transform="matrix(1.00, 0.00, -0.00, -1.00, 165.3, 126.0)">c</text><text xml:space="preserve" font-family="HelveticaNeue-Light" font-size="34.9" fill="#FEFFFE" transform="matrix(1.00, 0.00, -0.00, -1.00, 183.5, 126.0)">i</text><text xml:space="preserve" font-family="HelveticaNeue-Light" font-size="34.9" fill="#FEFFFE" transform="matrix(1.00, 0.00, -0.00, -1.00, 189.9, 126.0)">s</text><text xml:space="preserve" font-family="HelveticaNeue-Light" font-size="34.9" fill="#FEFFFE" transform="matrix(1.00, 0.00, -0.00, -1.00, 206.7, 126.0)">k</text><text xml:space="preserve" font-family="HelveticaNeue-Light" font-size="34.9" fill="#FEFFFE" transform="matrix(1.00, 0.00, -0.00, -1.00, 224.2, 126.0)">i</text><text xml:space="preserve" font-family="HelveticaNeue-Light" font-size="34.9" fill="#FEFFFE" transform="matrix(1.00, 0.00, -0.00, -1.00, 230.6, 126.0)"> </text><image xlink:href="1FE4D476D3057758B845369CE9596FC6.png" width="13.00" height="14.00" transform="matrix(1.00, 0.00, -0.00, -1.00, 66.0, 67.0)"></image><g><clipPath id="clip-90"><path d="M 66.0 53.9 L 78.3 53.9 L 78.3 66.3 L 66.0 66.3 Z M 66.0 53.9 "></path></clipPath><g clip-path="url(#clip-90)"><g><g><clipPath id="clip-91"><path d="M 66.0 66.3 L 78.3 66.3 L 78.3 53.9 L 66.0 53.9 Z M 66.0 66.3 "></path></clipPath><g clip-path="url(#clip-91)"><g><clipPath id="clip-92"><path d="M 62.0 46.0 L 83.0 46.0 L 83.0 74.0 L 62.0 74.0 Z M 62.0 46.0 "></path></clipPath><g clip-path="url(#clip-92)"><path d="M 78.3 63.8 C 78.3 64.3 78.0 64.9 77.5 65.4 C 77.0 66.0 76.4 66.3 75.8 66.3 C 75.6 66.3 75.1 66.1 74.5 65.8 C 73.6 65.4 72.8 65.2 72.1 65.2 C 71.4 65.2 70.6 65.4 69.7 65.8 C 69.1 66.1 68.7 66.3 68.4 66.3 C 67.8 66.3 67.3 66.0 66.8 65.5 C 66.3 64.9 66.0 64.4 66.0 63.8 C 66.0 63.5 66.1 63.1 66.4 62.4 C 66.8 61.5 67.0 60.8 67.0 60.1 C 67.0 59.4 66.8 58.6 66.4 57.7 C 66.1 57.1 66.0 56.7 66.0 56.4 C 66.0 55.8 66.3 55.3 66.8 54.7 C 67.3 54.2 67.8 53.9 68.4 53.9 C 68.7 53.9 69.1 54.1 69.7 54.3 C 70.6 54.8 71.4 55.0 72.1 55.0 C 72.8 55.0 73.6 54.8 74.5 54.3 C 75.1 54.1 75.6 53.9 75.8 53.9 C 76.4 53.9 77.0 54.2 77.5 54.7 C 78.0 55.3 78.3 55.8 78.3 56.4 C 78.3 56.7 78.2 57.1 77.9 57.7 C 77.4 58.6 77.2 59.4 77.2 60.1 C 77.2 60.8 77.4 61.5 77.9 62.4 C 78.2 63.1 78.3 63.5 78.3 63.8 " fill="#FFFFFF"></path></g></g></g></g></g></g></g><image xlink:href="23B095DEE276C068A88FF5B422F63074.png" width="386.00" height="35.00" transform="matrix(1.00, 0.00, -0.00, -1.00, 98.0, 76.0)"></image><text xml:space="preserve" font-family="HelveticaNeue-Light" font-size="34.9" fill="#FEFFFE" transform="matrix(1.00, 0.00, -0.00, -1.00, 100.0, 49.0)">M</text><text xml:space="preserve" font-family="HelveticaNeue-Light" font-size="34.9" fill="#FEFFFE" transform="matrix(1.00, 0.00, -0.00, -1.00, 128.7, 49.0)">o</text><text xml:space="preserve" font-family="HelveticaNeue-Light" font-size="34.9" fill="#FEFFFE" transform="matrix(1.00, 0.00, -0.00, -1.00, 148.1, 49.0)">d</text><text xml:space="preserve" font-family="HelveticaNeue-Light" font-size="34.9" fill="#FEFFFE" transform="matrix(1.00, 0.00, -0.00, -1.00, 168.1, 49.0)">u</text><text xml:space="preserve" font-family="HelveticaNeue-Light" font-size="34.9" fill="#FEFFFE" transform="matrix(1.00, 0.00, -0.00, -1.00, 186.9, 49.0)">ł</text><text xml:space="preserve" font-family="HelveticaNeue-Light" font-size="34.9" fill="#FEFFFE" transform="matrix(1.00, 0.00, -0.00, -1.00, 193.3, 49.0)"> </text><text xml:space="preserve" font-family="HelveticaNeue-Light" font-size="34.9" fill="#FEFFFE" transform="matrix(1.00, 0.00, -0.00, -1.00, 203.0, 49.0)">B</text><text xml:space="preserve" font-family="HelveticaNeue-Light" font-size="34.9" fill="#FEFFFE" transform="matrix(1.00, 0.00, -0.00, -1.00, 226.3, 49.0)">l</text><text xml:space="preserve" font-family="HelveticaNeue-Light" font-size="34.9" fill="#FEFFFE" transform="matrix(1.00, 0.00, -0.00, -1.00, 232.8, 49.0)">u</text><text xml:space="preserve" font-family="HelveticaNeue-Light" font-size="34.9" fill="#FEFFFE" transform="matrix(1.00, 0.00, -0.00, -1.00, 251.6, 49.0)">e</text><text xml:space="preserve" font-family="HelveticaNeue-Light" font-size="34.9" fill="#FEFFFE" transform="matrix(1.00, 0.00, -0.00, -1.00, 269.7, 49.0)">t</text><text xml:space="preserve" font-family="HelveticaNeue-Light" font-size="34.9" fill="#FEFFFE" transform="matrix(1.00, 0.00, -0.00, -1.00, 280.0, 49.0)">o</text><text xml:space="preserve" font-family="HelveticaNeue-Light" font-size="34.9" fill="#FEFFFE" transform="matrix(1.00, 0.00, -0.00, -1.00, 299.4, 49.0)">o</text><text xml:space="preserve" font-family="HelveticaNeue-Light" font-size="34.9" fill="#FEFFFE" transform="matrix(1.00, 0.00, -0.00, -1.00, 318.8, 49.0)">t</text><text xml:space="preserve" font-family="HelveticaNeue-Light" font-size="34.9" fill="#FEFFFE" transform="matrix(1.00, 0.00, -0.00, -1.00, 329.2, 49.0)">h</text><text xml:space="preserve" font-family="HelveticaNeue-Light" font-size="34.9" fill="#FEFFFE" transform="matrix(1.00, 0.00, -0.00, -1.00, 347.9, 49.0)"> </text><text xml:space="preserve" font-family="HelveticaNeue-Light" font-size="34.9" fill="#FEFFFE" transform="matrix(1.00, 0.00, -0.00, -1.00, 357.6, 49.0)">-</text><text xml:space="preserve" font-family="HelveticaNeue-Light" font-size="34.9" fill="#FEFFFE" transform="matrix(1.00, 0.00, -0.00, -1.00, 370.6, 49.0)"> </text><text xml:space="preserve" font-family="HelveticaNeue-Light" font-size="34.9" fill="#FEFFFE" transform="matrix(1.00, 0.00, -0.00, -1.00, 380.3, 49.0)">H</text><text xml:space="preserve" font-family="HelveticaNeue-Light" font-size="34.9" fill="#FEFFFE" transform="matrix(1.00, 0.00, -0.00, -1.00, 404.9, 49.0)">C</text><text xml:space="preserve" font-family="HelveticaNeue-Light" font-size="34.9" fill="#FEFFFE" transform="matrix(1.00, 0.00, -0.00, -1.00, 429.4, 49.0)">-</text><text xml:space="preserve" font-family="HelveticaNeue-Light" font-size="34.9" fill="#FEFFFE" transform="matrix(1.00, 0.00, -0.00, -1.00, 442.4, 49.0)">0</text><text xml:space="preserve" font-family="HelveticaNeue-Light" font-size="34.9" fill="#FEFFFE" transform="matrix(1.00, 0.00, -0.00, -1.00, 461.8, 49.0)">5</text><text xml:space="preserve" font-family="HelveticaNeue-Bold" font-weight="bold" font-size="14.0" fill="#FEFFFE" transform="matrix(1.00, 0.00, -0.00, -1.00, 999.9, 17.4)">5</text></g></svg>