<?xml version="1.0" encoding="UTF-8" standalone="no"?><svg xmlns="http://www.w3.org/2000/svg" xmlns:xlink="http://www.w3.org/1999/xlink" clip-rule="evenodd" stroke-miterlimit="4.00" viewBox="0 0 896 70"><desc>SVG generated by Keynote</desc><defs></defs><g transform="matrix(1.00, 0.00, -0.00, -1.00, 0.0, 70.0)"><text xml:space="preserve" font-family="HelveticaNeue" font-size="28.0" fill="#000000" transform="matrix(1.00, 0.00, -0.00, -1.00, 2.0, 48.0)">A</text><text xml:space="preserve" font-family="HelveticaNeue" font-size="28.0" fill="#000000" transform="matrix(1.00, 0.00, -0.00, -1.00, 20.1, 48.0)">r</text><text xml:space="preserve" font-family="HelveticaNeue" font-size="28.0" fill="#000000" transform="matrix(1.00, 0.00, -0.00, -1.00, 29.0, 48.0)">e</text><text xml:space="preserve" font-family="HelveticaNeue" font-size="28.0" fill="#000000" transform="matrix(1.00, 0.00, -0.00, -1.00, 44.0, 48.0)"> </text><text xml:space="preserve" font-family="HelveticaNeue" font-size="28.0" fill="#000000" transform="matrix(1.00, 0.00, -0.00, -1.00, 51.8, 48.0)">p</text><text xml:space="preserve" font-family="HelveticaNeue" font-size="28.0" fill="#000000" transform="matrix(1.00, 0.00, -0.00, -1.00, 68.4, 48.0)">e</text><text xml:space="preserve" font-family="HelveticaNeue" font-size="28.0" fill="#000000" transform="matrix(1.00, 0.00, -0.00, -1.00, 83.4, 48.0)">o</text><text xml:space="preserve" font-family="HelveticaNeue" font-size="28.0" fill="#000000" transform="matrix(1.00, 0.00, -0.00, -1.00, 99.5, 48.0)">p</text><text xml:space="preserve" font-family="HelveticaNeue" font-size="28.0" fill="#000000" transform="matrix(1.00, 0.00, -0.00, -1.00, 116.1, 48.0)">l</text><text xml:space="preserve" font-family="HelveticaNeue" font-size="28.0" fill="#000000" transform="matrix(1.00, 0.00, -0.00, -1.00, 122.3, 48.0)">e</text><text xml:space="preserve" font-family="HelveticaNeue" font-size="28.0" fill="#000000" transform="matrix(1.00, 0.00, -0.00, -1.00, 137.4, 48.0)"> </text><text xml:space="preserve" font-family="HelveticaNeue" font-size="28.0" fill="#000000" transform="matrix(1.00, 0.00, -0.00, -1.00, 145.1, 48.0)">w</text><text xml:space="preserve" font-family="HelveticaNeue" font-size="28.0" fill="#000000" transform="matrix(1.00, 0.00, -0.00, -1.00, 166.4, 48.0)">h</text><text xml:space="preserve" font-family="HelveticaNeue" font-size="28.0" fill="#000000" transform="matrix(1.00, 0.00, -0.00, -1.00, 181.9, 48.0)">o</text><text xml:space="preserve" font-family="HelveticaNeue" font-size="28.0" fill="#000000" transform="matrix(1.00, 0.00, -0.00, -1.00, 198.0, 48.0)"> </text><text xml:space="preserve" font-family="HelveticaNeue" font-size="28.0" fill="#000000" transform="matrix(1.00, 0.00, -0.00, -1.00, 205.8, 48.0)">w</text><text xml:space="preserve" font-family="HelveticaNeue" font-size="28.0" fill="#000000" transform="matrix(1.00, 0.00, -0.00, -1.00, 227.0, 48.0)">o</text><text xml:space="preserve" font-family="HelveticaNeue" font-size="28.0" fill="#000000" transform="matrix(1.00, 0.00, -0.00, -1.00, 243.1, 48.0)">r</text><text xml:space="preserve" font-family="HelveticaNeue" font-size="28.0" fill="#000000" transform="matrix(1.00, 0.00, -0.00, -1.00, 252.4, 48.0)">k</text><text xml:space="preserve" font-family="HelveticaNeue" font-size="28.0" fill="#000000" transform="matrix(1.00, 0.00, -0.00, -1.00, 266.9, 48.0)">s</text><text xml:space="preserve" font-family="HelveticaNeue" font-size="28.0" fill="#000000" transform="matrix(1.00, 0.00, -0.00, -1.00, 280.9, 48.0)"> </text><text xml:space="preserve" font-family="HelveticaNeue" font-size="28.0" fill="#000000" transform="matrix(1.00, 0.00, -0.00, -1.00, 288.7, 48.0)">i</text><text xml:space="preserve" font-family="HelveticaNeue" font-size="28.0" fill="#000000" transform="matrix(1.00, 0.00, -0.00, -1.00, 294.9, 48.0)">n</text><text xml:space="preserve" font-family="HelveticaNeue" font-size="28.0" fill="#000000" transform="matrix(1.00, 0.00, -0.00, -1.00, 310.5, 48.0)"> </text><text xml:space="preserve" font-family="HelveticaNeue" font-size="28.0" fill="#000000" transform="matrix(1.00, 0.00, -0.00, -1.00, 318.3, 48.0)">b</text><text xml:space="preserve" font-family="HelveticaNeue" font-size="28.0" fill="#000000" transform="matrix(1.00, 0.00, -0.00, -1.00, 334.9, 48.0)">i</text><text xml:space="preserve" font-family="HelveticaNeue" font-size="28.0" fill="#000000" transform="matrix(1.00, 0.00, -0.00, -1.00, 341.1, 48.0)">g</text><text xml:space="preserve" font-family="HelveticaNeue" font-size="28.0" fill="#000000" transform="matrix(1.00, 0.00, -0.00, -1.00, 357.2, 48.0)"> </text><text xml:space="preserve" font-family="HelveticaNeue" font-size="28.0" fill="#000000" transform="matrix(1.00, 0.00, -0.00, -1.00, 365.0, 48.0)">l</text><text xml:space="preserve" font-family="HelveticaNeue" font-size="28.0" fill="#000000" transform="matrix(1.00, 0.00, -0.00, -1.00, 371.2, 48.0)">o</text><text xml:space="preserve" font-family="HelveticaNeue" font-size="28.0" fill="#000000" transform="matrix(1.00, 0.00, -0.00, -1.00, 387.3, 48.0)">c</text><text xml:space="preserve" font-family="HelveticaNeue" font-size="28.0" fill="#000000" transform="matrix(1.00, 0.00, -0.00, -1.00, 402.3, 48.0)">a</text><text xml:space="preserve" font-family="HelveticaNeue" font-size="28.0" fill="#000000" transform="matrix(1.00, 0.00, -0.00, -1.00, 417.3, 48.0)">l</text><text xml:space="preserve" font-family="HelveticaNeue" font-size="28.0" fill="#000000" transform="matrix(1.00, 0.00, -0.00, -1.00, 423.5, 48.0)"> </text><text xml:space="preserve" font-family="HelveticaNeue" font-size="28.0" fill="#000000" transform="matrix(1.00, 0.00, -0.00, -1.00, 431.3, 48.0)">t</text><text xml:space="preserve" font-family="HelveticaNeue" font-size="28.0" fill="#000000" transform="matrix(1.00, 0.00, -0.00, -1.00, 440.1, 48.0)">e</text><text xml:space="preserve" font-family="HelveticaNeue" font-size="28.0" fill="#000000" transform="matrix(1.00, 0.00, -0.00, -1.00, 455.2, 48.0)">a</text><text xml:space="preserve" font-family="HelveticaNeue" font-size="28.0" fill="#000000" transform="matrix(1.00, 0.00, -0.00, -1.00, 470.2, 48.0)">m</text><text xml:space="preserve" font-family="HelveticaNeue" font-size="28.0" fill="#000000" transform="matrix(1.00, 0.00, -0.00, -1.00, 494.1, 48.0)"> </text><text xml:space="preserve" font-family="HelveticaNeue" font-size="28.0" fill="#000000" transform="matrix(1.00, 0.00, -0.00, -1.00, 501.9, 48.0)">m</text><text xml:space="preserve" font-family="HelveticaNeue" font-size="28.0" fill="#000000" transform="matrix(1.00, 0.00, -0.00, -1.00, 525.8, 48.0)">o</text><text xml:space="preserve" font-family="HelveticaNeue" font-size="28.0" fill="#000000" transform="matrix(1.00, 0.00, -0.00, -1.00, 541.8, 48.0)">r</text><text xml:space="preserve" font-family="HelveticaNeue" font-size="28.0" fill="#000000" transform="matrix(1.00, 0.00, -0.00, -1.00, 550.7, 48.0)">e</text><text xml:space="preserve" font-family="HelveticaNeue" font-size="28.0" fill="#000000" transform="matrix(1.00, 0.00, -0.00, -1.00, 565.7, 48.0)"> </text><text xml:space="preserve" font-family="HelveticaNeue" font-size="28.0" fill="#000000" transform="matrix(1.00, 0.00, -0.00, -1.00, 573.5, 48.0)">s</text><text xml:space="preserve" font-family="HelveticaNeue" font-size="28.0" fill="#000000" transform="matrix(1.00, 0.00, -0.00, -1.00, 587.5, 48.0)">o</text><text xml:space="preserve" font-family="HelveticaNeue" font-size="28.0" fill="#000000" transform="matrix(1.00, 0.00, -0.00, -1.00, 603.6, 48.0)">c</text><text xml:space="preserve" font-family="HelveticaNeue" font-size="28.0" fill="#000000" transform="matrix(1.00, 0.00, -0.00, -1.00, 618.6, 48.0)">i</text><text xml:space="preserve" font-family="HelveticaNeue" font-size="28.0" fill="#000000" transform="matrix(1.00, 0.00, -0.00, -1.00, 624.8, 48.0)">a</text><text xml:space="preserve" font-family="HelveticaNeue" font-size="28.0" fill="#000000" transform="matrix(1.00, 0.00, -0.00, -1.00, 639.8, 48.0)">b</text><text xml:space="preserve" font-family="HelveticaNeue" font-size="28.0" fill="#000000" transform="matrix(1.00, 0.00, -0.00, -1.00, 656.4, 48.0)">l</text><text xml:space="preserve" font-family="HelveticaNeue" font-size="28.0" fill="#000000" transform="matrix(1.00, 0.00, -0.00, -1.00, 662.7, 48.0)">e</text><text xml:space="preserve" font-family="HelveticaNeue" font-size="28.0" fill="#000000" transform="matrix(1.00, 0.00, -0.00, -1.00, 677.7, 48.0)"> </text><text xml:space="preserve" font-family="HelveticaNeue" font-size="28.0" fill="#000000" transform="matrix(1.00, 0.00, -0.00, -1.00, 685.5, 48.0)">a</text><text xml:space="preserve" font-family="HelveticaNeue" font-size="28.0" fill="#000000" transform="matrix(1.00, 0.00, -0.00, -1.00, 700.5, 48.0)">n</text><text xml:space="preserve" font-family="HelveticaNeue" font-size="28.0" fill="#000000" transform="matrix(1.00, 0.00, -0.00, -1.00, 716.1, 48.0)">d</text><text xml:space="preserve" font-family="HelveticaNeue" font-size="28.0" fill="#000000" transform="matrix(1.00, 0.00, -0.00, -1.00, 732.7, 48.0)"> </text><text xml:space="preserve" font-family="HelveticaNeue" font-size="28.0" fill="#000000" transform="matrix(1.00, 0.00, -0.00, -1.00, 740.5, 48.0)">w</text><text xml:space="preserve" font-family="HelveticaNeue" font-size="28.0" fill="#000000" transform="matrix(1.00, 0.00, -0.00, -1.00, 761.7, 48.0)">a</text><text xml:space="preserve" font-family="HelveticaNeue" font-size="28.0" fill="#000000" transform="matrix(1.00, 0.00, -0.00, -1.00, 776.7, 48.0)">n</text><text xml:space="preserve" font-family="HelveticaNeue" font-size="28.0" fill="#000000" transform="matrix(1.00, 0.00, -0.00, -1.00, 792.3, 48.0)">t</text><text xml:space="preserve" font-family="HelveticaNeue" font-size="28.0" fill="#000000" transform="matrix(1.00, 0.00, -0.00, -1.00, 801.1, 48.0)"> </text><text xml:space="preserve" font-family="HelveticaNeue" font-size="28.0" fill="#000000" transform="matrix(1.00, 0.00, -0.00, -1.00, 808.9, 48.0)">t</text><text xml:space="preserve" font-family="HelveticaNeue" font-size="28.0" fill="#000000" transform="matrix(1.00, 0.00, -0.00, -1.00, 817.7, 48.0)">o</text><text xml:space="preserve" font-family="HelveticaNeue" font-size="28.0" fill="#000000" transform="matrix(1.00, 0.00, -0.00, -1.00, 833.8, 48.0)"> </text><text xml:space="preserve" font-family="HelveticaNeue" font-size="28.0" fill="#000000" transform="matrix(1.00, 0.00, -0.00, -1.00, 841.6, 48.0)">p</text><text xml:space="preserve" font-family="HelveticaNeue" font-size="28.0" fill="#000000" transform="matrix(1.00, 0.00, -0.00, -1.00, 858.2, 48.0)">l</text><text xml:space="preserve" font-family="HelveticaNeue" font-size="28.0" fill="#000000" transform="matrix(1.00, 0.00, -0.00, -1.00, 864.4, 48.0)">a</text><text xml:space="preserve" font-family="HelveticaNeue" font-size="28.0" fill="#000000" transform="matrix(1.00, 0.00, -0.00, -1.00, 879.4, 48.0)">y</text><text xml:space="preserve" font-family="HelveticaNeue" font-size="28.0" fill="#000000" transform="matrix(1.00, 0.00, -0.00, -1.00, 893.4, 48.0)"> </text><text xml:space="preserve" font-family="HelveticaNeue" font-size="28.0" fill="#000000" transform="matrix(1.00, 0.00, -0.00, -1.00, 307.0, 8.0)">m</text><text xml:space="preserve" font-family="HelveticaNeue" font-size="28.0" fill="#000000" transform="matrix(1.00, 0.00, -0.00, -1.00, 330.9, 8.0)">o</text><text xml:space="preserve" font-family="HelveticaNeue" font-size="28.0" fill="#000000" transform="matrix(1.00, 0.00, -0.00, -1.00, 347.0, 8.0)">r</text><text xml:space="preserve" font-family="HelveticaNeue" font-size="28.0" fill="#000000" transform="matrix(1.00, 0.00, -0.00, -1.00, 355.8, 8.0)">e</text><text xml:space="preserve" font-family="HelveticaNeue" font-size="28.0" fill="#000000" transform="matrix(1.00, 0.00, -0.00, -1.00, 370.8, 8.0)"> </text><text xml:space="preserve" font-family="HelveticaNeue" font-size="28.0" fill="#000000" transform="matrix(1.00, 0.00, -0.00, -1.00, 378.6, 8.0)">d</text><text xml:space="preserve" font-family="HelveticaNeue" font-size="28.0" fill="#000000" transform="matrix(1.00, 0.00, -0.00, -1.00, 395.2, 8.0)">u</text><text xml:space="preserve" font-family="HelveticaNeue" font-size="28.0" fill="#000000" transform="matrix(1.00, 0.00, -0.00, -1.00, 410.8, 8.0)">r</text><text xml:space="preserve" font-family="HelveticaNeue" font-size="28.0" fill="#000000" transform="matrix(1.00, 0.00, -0.00, -1.00, 420.1, 8.0)">i</text><text xml:space="preserve" font-family="HelveticaNeue" font-size="28.0" fill="#000000" transform="matrix(1.00, 0.00, -0.00, -1.00, 426.3, 8.0)">n</text><text xml:space="preserve" font-family="HelveticaNeue" font-size="28.0" fill="#000000" transform="matrix(1.00, 0.00, -0.00, -1.00, 441.9, 8.0)">g</text><text xml:space="preserve" font-family="HelveticaNeue" font-size="28.0" fill="#000000" transform="matrix(1.00, 0.00, -0.00, -1.00, 457.9, 8.0)"> </text><text xml:space="preserve" font-family="HelveticaNeue" font-size="28.0" fill="#000000" transform="matrix(1.00, 0.00, -0.00, -1.00, 465.7, 8.0)">t</text><text xml:space="preserve" font-family="HelveticaNeue" font-size="28.0" fill="#000000" transform="matrix(1.00, 0.00, -0.00, -1.00, 474.6, 8.0)">h</text><text xml:space="preserve" font-family="HelveticaNeue" font-size="28.0" fill="#000000" transform="matrix(1.00, 0.00, -0.00, -1.00, 490.1, 8.0)">e</text><text xml:space="preserve" font-family="HelveticaNeue" font-size="28.0" fill="#000000" transform="matrix(1.00, 0.00, -0.00, -1.00, 505.2, 8.0)"> </text><text xml:space="preserve" font-family="HelveticaNeue" font-size="28.0" fill="#000000" transform="matrix(1.00, 0.00, -0.00, -1.00, 512.9, 8.0)">w</text><text xml:space="preserve" font-family="HelveticaNeue" font-size="28.0" fill="#000000" transform="matrix(1.00, 0.00, -0.00, -1.00, 534.2, 8.0)">o</text><text xml:space="preserve" font-family="HelveticaNeue" font-size="28.0" fill="#000000" transform="matrix(1.00, 0.00, -0.00, -1.00, 550.2, 8.0)">r</text><text xml:space="preserve" font-family="HelveticaNeue" font-size="28.0" fill="#000000" transform="matrix(1.00, 0.00, -0.00, -1.00, 559.6, 8.0)">k</text><text xml:space="preserve" font-family="HelveticaNeue" font-size="28.0" fill="#000000" transform="matrix(1.00, 0.00, -0.00, -1.00, 574.1, 8.0)">?</text></g></svg>