<?xml version="1.0" encoding="UTF-8" standalone="no"?><svg xmlns="http://www.w3.org/2000/svg" xmlns:xlink="http://www.w3.org/1999/xlink" clip-rule="evenodd" stroke-miterlimit="4.00" viewBox="0 0 925 70"><desc>SVG generated by Keynote</desc><defs></defs><g transform="matrix(1.00, 0.00, -0.00, -1.00, 0.0, 70.0)"><text xml:space="preserve" font-family="HelveticaNeue" font-size="28.0" fill="#000000" transform="matrix(1.00, 0.00, -0.00, -1.00, -1.0, 48.0)">D</text><text xml:space="preserve" font-family="HelveticaNeue" font-size="28.0" fill="#000000" transform="matrix(1.00, 0.00, -0.00, -1.00, 18.7, 48.0)">o</text><text xml:space="preserve" font-family="HelveticaNeue" font-size="28.0" fill="#000000" transform="matrix(1.00, 0.00, -0.00, -1.00, 34.8, 48.0)"> </text><text xml:space="preserve" font-family="HelveticaNeue" font-size="28.0" fill="#000000" transform="matrix(1.00, 0.00, -0.00, -1.00, 42.6, 48.0)">p</text><text xml:space="preserve" font-family="HelveticaNeue" font-size="28.0" fill="#000000" transform="matrix(1.00, 0.00, -0.00, -1.00, 59.2, 48.0)">e</text><text xml:space="preserve" font-family="HelveticaNeue" font-size="28.0" fill="#000000" transform="matrix(1.00, 0.00, -0.00, -1.00, 74.2, 48.0)">o</text><text xml:space="preserve" font-family="HelveticaNeue" font-size="28.0" fill="#000000" transform="matrix(1.00, 0.00, -0.00, -1.00, 90.3, 48.0)">p</text><text xml:space="preserve" font-family="HelveticaNeue" font-size="28.0" fill="#000000" transform="matrix(1.00, 0.00, -0.00, -1.00, 106.9, 48.0)">l</text><text xml:space="preserve" font-family="HelveticaNeue" font-size="28.0" fill="#000000" transform="matrix(1.00, 0.00, -0.00, -1.00, 113.1, 48.0)">e</text><text xml:space="preserve" font-family="HelveticaNeue" font-size="28.0" fill="#000000" transform="matrix(1.00, 0.00, -0.00, -1.00, 128.1, 48.0)"> </text><text xml:space="preserve" font-family="HelveticaNeue" font-size="28.0" fill="#000000" transform="matrix(1.00, 0.00, -0.00, -1.00, 135.9, 48.0)">w</text><text xml:space="preserve" font-family="HelveticaNeue" font-size="28.0" fill="#000000" transform="matrix(1.00, 0.00, -0.00, -1.00, 157.1, 48.0)">h</text><text xml:space="preserve" font-family="HelveticaNeue" font-size="28.0" fill="#000000" transform="matrix(1.00, 0.00, -0.00, -1.00, 172.7, 48.0)">o</text><text xml:space="preserve" font-family="HelveticaNeue" font-size="28.0" fill="#000000" transform="matrix(1.00, 0.00, -0.00, -1.00, 188.8, 48.0)"> </text><text xml:space="preserve" font-family="HelveticaNeue" font-size="28.0" fill="#000000" transform="matrix(1.00, 0.00, -0.00, -1.00, 196.6, 48.0)">h</text><text xml:space="preserve" font-family="HelveticaNeue" font-size="28.0" fill="#000000" transform="matrix(1.00, 0.00, -0.00, -1.00, 212.1, 48.0)">a</text><text xml:space="preserve" font-family="HelveticaNeue" font-size="28.0" fill="#000000" transform="matrix(1.00, 0.00, -0.00, -1.00, 227.2, 48.0)">v</text><text xml:space="preserve" font-family="HelveticaNeue" font-size="28.0" fill="#000000" transform="matrix(1.00, 0.00, -0.00, -1.00, 241.2, 48.0)">e</text><text xml:space="preserve" font-family="HelveticaNeue" font-size="28.0" fill="#000000" transform="matrix(1.00, 0.00, -0.00, -1.00, 256.2, 48.0)"> </text><text xml:space="preserve" font-family="HelveticaNeue" font-size="28.0" fill="#000000" transform="matrix(1.00, 0.00, -0.00, -1.00, 264.0, 48.0)">g</text><text xml:space="preserve" font-family="HelveticaNeue" font-size="28.0" fill="#000000" transform="matrix(1.00, 0.00, -0.00, -1.00, 280.1, 48.0)">o</text><text xml:space="preserve" font-family="HelveticaNeue" font-size="28.0" fill="#000000" transform="matrix(1.00, 0.00, -0.00, -1.00, 296.1, 48.0)">t</text><text xml:space="preserve" font-family="HelveticaNeue" font-size="28.0" fill="#000000" transform="matrix(1.00, 0.00, -0.00, -1.00, 305.0, 48.0)"> </text><text xml:space="preserve" font-family="HelveticaNeue" font-size="28.0" fill="#000000" transform="matrix(1.00, 0.00, -0.00, -1.00, 312.7, 48.0)">l</text><text xml:space="preserve" font-family="HelveticaNeue" font-size="28.0" fill="#000000" transform="matrix(1.00, 0.00, -0.00, -1.00, 319.0, 48.0)">o</text><text xml:space="preserve" font-family="HelveticaNeue" font-size="28.0" fill="#000000" transform="matrix(1.00, 0.00, -0.00, -1.00, 335.0, 48.0)">c</text><text xml:space="preserve" font-family="HelveticaNeue" font-size="28.0" fill="#000000" transform="matrix(1.00, 0.00, -0.00, -1.00, 350.1, 48.0)">a</text><text xml:space="preserve" font-family="HelveticaNeue" font-size="28.0" fill="#000000" transform="matrix(1.00, 0.00, -0.00, -1.00, 365.1, 48.0)">l</text><text xml:space="preserve" font-family="HelveticaNeue" font-size="28.0" fill="#000000" transform="matrix(1.00, 0.00, -0.00, -1.00, 371.3, 48.0)"> </text><text xml:space="preserve" font-family="HelveticaNeue" font-size="28.0" fill="#000000" transform="matrix(1.00, 0.00, -0.00, -1.00, 379.1, 48.0)">m</text><text xml:space="preserve" font-family="HelveticaNeue" font-size="28.0" fill="#000000" transform="matrix(1.00, 0.00, -0.00, -1.00, 403.0, 48.0)">a</text><text xml:space="preserve" font-family="HelveticaNeue" font-size="28.0" fill="#000000" transform="matrix(1.00, 0.00, -0.00, -1.00, 418.0, 48.0)">n</text><text xml:space="preserve" font-family="HelveticaNeue" font-size="28.0" fill="#000000" transform="matrix(1.00, 0.00, -0.00, -1.00, 433.6, 48.0)">a</text><text xml:space="preserve" font-family="HelveticaNeue" font-size="28.0" fill="#000000" transform="matrix(1.00, 0.00, -0.00, -1.00, 448.6, 48.0)">g</text><text xml:space="preserve" font-family="HelveticaNeue" font-size="28.0" fill="#000000" transform="matrix(1.00, 0.00, -0.00, -1.00, 464.7, 48.0)">e</text><text xml:space="preserve" font-family="HelveticaNeue" font-size="28.0" fill="#000000" transform="matrix(1.00, 0.00, -0.00, -1.00, 479.7, 48.0)">r</text><text xml:space="preserve" font-family="HelveticaNeue" font-size="28.0" fill="#000000" transform="matrix(1.00, 0.00, -0.00, -1.00, 489.1, 48.0)"> </text><text xml:space="preserve" font-family="HelveticaNeue" font-size="28.0" fill="#000000" transform="matrix(1.00, 0.00, -0.00, -1.00, 496.8, 48.0)">w</text><text xml:space="preserve" font-family="HelveticaNeue" font-size="28.0" fill="#000000" transform="matrix(1.00, 0.00, -0.00, -1.00, 518.1, 48.0)">o</text><text xml:space="preserve" font-family="HelveticaNeue" font-size="28.0" fill="#000000" transform="matrix(1.00, 0.00, -0.00, -1.00, 534.1, 48.0)">r</text><text xml:space="preserve" font-family="HelveticaNeue" font-size="28.0" fill="#000000" transform="matrix(1.00, 0.00, -0.00, -1.00, 543.5, 48.0)">k</text><text xml:space="preserve" font-family="HelveticaNeue" font-size="28.0" fill="#000000" transform="matrix(1.00, 0.00, -0.00, -1.00, 558.0, 48.0)"> </text><text xml:space="preserve" font-family="HelveticaNeue" font-size="28.0" fill="#000000" transform="matrix(1.00, 0.00, -0.00, -1.00, 565.8, 48.0)">m</text><text xml:space="preserve" font-family="HelveticaNeue" font-size="28.0" fill="#000000" transform="matrix(1.00, 0.00, -0.00, -1.00, 589.7, 48.0)">o</text><text xml:space="preserve" font-family="HelveticaNeue" font-size="28.0" fill="#000000" transform="matrix(1.00, 0.00, -0.00, -1.00, 605.7, 48.0)">r</text><text xml:space="preserve" font-family="HelveticaNeue" font-size="28.0" fill="#000000" transform="matrix(1.00, 0.00, -0.00, -1.00, 614.6, 48.0)">e</text><text xml:space="preserve" font-family="HelveticaNeue" font-size="28.0" fill="#000000" transform="matrix(1.00, 0.00, -0.00, -1.00, 629.6, 48.0)"> </text><text xml:space="preserve" font-family="HelveticaNeue" font-size="28.0" fill="#000000" transform="matrix(1.00, 0.00, -0.00, -1.00, 637.4, 48.0)">a</text><text xml:space="preserve" font-family="HelveticaNeue" font-size="28.0" fill="#000000" transform="matrix(1.00, 0.00, -0.00, -1.00, 652.4, 48.0)">n</text><text xml:space="preserve" font-family="HelveticaNeue" font-size="28.0" fill="#000000" transform="matrix(1.00, 0.00, -0.00, -1.00, 668.0, 48.0)">d</text><text xml:space="preserve" font-family="HelveticaNeue" font-size="28.0" fill="#000000" transform="matrix(1.00, 0.00, -0.00, -1.00, 684.6, 48.0)"> </text><text xml:space="preserve" font-family="HelveticaNeue" font-size="28.0" fill="#000000" transform="matrix(1.00, 0.00, -0.00, -1.00, 692.4, 48.0)">u</text><text xml:space="preserve" font-family="HelveticaNeue" font-size="28.0" fill="#000000" transform="matrix(1.00, 0.00, -0.00, -1.00, 707.9, 48.0)">s</text><text xml:space="preserve" font-family="HelveticaNeue" font-size="28.0" fill="#000000" transform="matrix(1.00, 0.00, -0.00, -1.00, 721.9, 48.0)">e</text><text xml:space="preserve" font-family="HelveticaNeue" font-size="28.0" fill="#000000" transform="matrix(1.00, 0.00, -0.00, -1.00, 737.0, 48.0)"> </text><text xml:space="preserve" font-family="HelveticaNeue" font-size="28.0" fill="#000000" transform="matrix(1.00, 0.00, -0.00, -1.00, 744.8, 48.0)">o</text><text xml:space="preserve" font-family="HelveticaNeue" font-size="28.0" fill="#000000" transform="matrix(1.00, 0.00, -0.00, -1.00, 760.8, 48.0)">ﬃ</text><text xml:space="preserve" font-family="HelveticaNeue" font-size="28.0" fill="#000000" transform="matrix(1.00, 0.00, -0.00, -1.00, 783.2, 48.0)">c</text><text xml:space="preserve" font-family="HelveticaNeue" font-size="28.0" fill="#000000" transform="matrix(1.00, 0.00, -0.00, -1.00, 798.2, 48.0)">e</text><text xml:space="preserve" font-family="HelveticaNeue" font-size="28.0" fill="#000000" transform="matrix(1.00, 0.00, -0.00, -1.00, 813.3, 48.0)"> </text><text xml:space="preserve" font-family="HelveticaNeue" font-size="28.0" fill="#000000" transform="matrix(1.00, 0.00, -0.00, -1.00, 821.1, 48.0)">f</text><text xml:space="preserve" font-family="HelveticaNeue" font-size="28.0" fill="#000000" transform="matrix(1.00, 0.00, -0.00, -1.00, 829.3, 48.0)">a</text><text xml:space="preserve" font-family="HelveticaNeue" font-size="28.0" fill="#000000" transform="matrix(1.00, 0.00, -0.00, -1.00, 844.4, 48.0)">c</text><text xml:space="preserve" font-family="HelveticaNeue" font-size="28.0" fill="#000000" transform="matrix(1.00, 0.00, -0.00, -1.00, 859.4, 48.0)">i</text><text xml:space="preserve" font-family="HelveticaNeue" font-size="28.0" fill="#000000" transform="matrix(1.00, 0.00, -0.00, -1.00, 865.6, 48.0)">l</text><text xml:space="preserve" font-family="HelveticaNeue" font-size="28.0" fill="#000000" transform="matrix(1.00, 0.00, -0.00, -1.00, 871.8, 48.0)">i</text><text xml:space="preserve" font-family="HelveticaNeue" font-size="28.0" fill="#000000" transform="matrix(1.00, 0.00, -0.00, -1.00, 878.1, 48.0)">t</text><text xml:space="preserve" font-family="HelveticaNeue" font-size="28.0" fill="#000000" transform="matrix(1.00, 0.00, -0.00, -1.00, 886.9, 48.0)">i</text><text xml:space="preserve" font-family="HelveticaNeue" font-size="28.0" fill="#000000" transform="matrix(1.00, 0.00, -0.00, -1.00, 893.1, 48.0)">e</text><text xml:space="preserve" font-family="HelveticaNeue" font-size="28.0" fill="#000000" transform="matrix(1.00, 0.00, -0.00, -1.00, 908.1, 48.0)">s</text><text xml:space="preserve" font-family="HelveticaNeue" font-size="28.0" fill="#000000" transform="matrix(1.00, 0.00, -0.00, -1.00, 922.1, 48.0)"> </text><text xml:space="preserve" font-family="HelveticaNeue" font-size="28.0" fill="#000000" transform="matrix(1.00, 0.00, -0.00, -1.00, 156.0, 8.0)">l</text><text xml:space="preserve" font-family="HelveticaNeue" font-size="28.0" fill="#000000" transform="matrix(1.00, 0.00, -0.00, -1.00, 162.2, 8.0)">e</text><text xml:space="preserve" font-family="HelveticaNeue" font-size="28.0" fill="#000000" transform="matrix(1.00, 0.00, -0.00, -1.00, 177.3, 8.0)">s</text><text xml:space="preserve" font-family="HelveticaNeue" font-size="28.0" fill="#000000" transform="matrix(1.00, 0.00, -0.00, -1.00, 191.3, 8.0)">s</text><text xml:space="preserve" font-family="HelveticaNeue" font-size="28.0" fill="#000000" transform="matrix(1.00, 0.00, -0.00, -1.00, 205.3, 8.0)"> </text><text xml:space="preserve" font-family="HelveticaNeue" font-size="28.0" fill="#000000" transform="matrix(1.00, 0.00, -0.00, -1.00, 213.0, 8.0)">t</text><text xml:space="preserve" font-family="HelveticaNeue" font-size="28.0" fill="#000000" transform="matrix(1.00, 0.00, -0.00, -1.00, 221.9, 8.0)">h</text><text xml:space="preserve" font-family="HelveticaNeue" font-size="28.0" fill="#000000" transform="matrix(1.00, 0.00, -0.00, -1.00, 237.4, 8.0)">a</text><text xml:space="preserve" font-family="HelveticaNeue" font-size="28.0" fill="#000000" transform="matrix(1.00, 0.00, -0.00, -1.00, 252.5, 8.0)">n</text><text xml:space="preserve" font-family="HelveticaNeue" font-size="28.0" fill="#000000" transform="matrix(1.00, 0.00, -0.00, -1.00, 268.0, 8.0)"> </text><text xml:space="preserve" font-family="HelveticaNeue" font-size="28.0" fill="#000000" transform="matrix(1.00, 0.00, -0.00, -1.00, 275.8, 8.0)">p</text><text xml:space="preserve" font-family="HelveticaNeue" font-size="28.0" fill="#000000" transform="matrix(1.00, 0.00, -0.00, -1.00, 292.4, 8.0)">e</text><text xml:space="preserve" font-family="HelveticaNeue" font-size="28.0" fill="#000000" transform="matrix(1.00, 0.00, -0.00, -1.00, 307.5, 8.0)">o</text><text xml:space="preserve" font-family="HelveticaNeue" font-size="28.0" fill="#000000" transform="matrix(1.00, 0.00, -0.00, -1.00, 323.5, 8.0)">p</text><text xml:space="preserve" font-family="HelveticaNeue" font-size="28.0" fill="#000000" transform="matrix(1.00, 0.00, -0.00, -1.00, 340.1, 8.0)">l</text><text xml:space="preserve" font-family="HelveticaNeue" font-size="28.0" fill="#000000" transform="matrix(1.00, 0.00, -0.00, -1.00, 346.3, 8.0)">e</text><text xml:space="preserve" font-family="HelveticaNeue" font-size="28.0" fill="#000000" transform="matrix(1.00, 0.00, -0.00, -1.00, 361.4, 8.0)"> </text><text xml:space="preserve" font-family="HelveticaNeue" font-size="28.0" fill="#000000" transform="matrix(1.00, 0.00, -0.00, -1.00, 369.2, 8.0)">w</text><text xml:space="preserve" font-family="HelveticaNeue" font-size="28.0" fill="#000000" transform="matrix(1.00, 0.00, -0.00, -1.00, 390.4, 8.0)">h</text><text xml:space="preserve" font-family="HelveticaNeue" font-size="28.0" fill="#000000" transform="matrix(1.00, 0.00, -0.00, -1.00, 406.0, 8.0)">o</text><text xml:space="preserve" font-family="HelveticaNeue" font-size="28.0" fill="#000000" transform="matrix(1.00, 0.00, -0.00, -1.00, 422.0, 8.0)"> </text><text xml:space="preserve" font-family="HelveticaNeue" font-size="28.0" fill="#000000" transform="matrix(1.00, 0.00, -0.00, -1.00, 429.8, 8.0)">h</text><text xml:space="preserve" font-family="HelveticaNeue" font-size="28.0" fill="#000000" transform="matrix(1.00, 0.00, -0.00, -1.00, 445.4, 8.0)">a</text><text xml:space="preserve" font-family="HelveticaNeue" font-size="28.0" fill="#000000" transform="matrix(1.00, 0.00, -0.00, -1.00, 460.4, 8.0)">v</text><text xml:space="preserve" font-family="HelveticaNeue" font-size="28.0" fill="#000000" transform="matrix(1.00, 0.00, -0.00, -1.00, 474.4, 8.0)">e</text><text xml:space="preserve" font-family="HelveticaNeue" font-size="28.0" fill="#000000" transform="matrix(1.00, 0.00, -0.00, -1.00, 489.5, 8.0)"> </text><text xml:space="preserve" font-family="HelveticaNeue" font-size="28.0" fill="#000000" transform="matrix(1.00, 0.00, -0.00, -1.00, 497.2, 8.0)">g</text><text xml:space="preserve" font-family="HelveticaNeue" font-size="28.0" fill="#000000" transform="matrix(1.00, 0.00, -0.00, -1.00, 513.3, 8.0)">o</text><text xml:space="preserve" font-family="HelveticaNeue" font-size="28.0" fill="#000000" transform="matrix(1.00, 0.00, -0.00, -1.00, 529.4, 8.0)">t</text><text xml:space="preserve" font-family="HelveticaNeue" font-size="28.0" fill="#000000" transform="matrix(1.00, 0.00, -0.00, -1.00, 538.2, 8.0)"> </text><text xml:space="preserve" font-family="HelveticaNeue" font-size="28.0" fill="#000000" transform="matrix(1.00, 0.00, -0.00, -1.00, 546.0, 8.0)">r</text><text xml:space="preserve" font-family="HelveticaNeue" font-size="28.0" fill="#000000" transform="matrix(1.00, 0.00, -0.00, -1.00, 554.8, 8.0)">e</text><text xml:space="preserve" font-family="HelveticaNeue" font-size="28.0" fill="#000000" transform="matrix(1.00, 0.00, -0.00, -1.00, 569.8, 8.0)">m</text><text xml:space="preserve" font-family="HelveticaNeue" font-size="28.0" fill="#000000" transform="matrix(1.00, 0.00, -0.00, -1.00, 593.7, 8.0)">o</text><text xml:space="preserve" font-family="HelveticaNeue" font-size="28.0" fill="#000000" transform="matrix(1.00, 0.00, -0.00, -1.00, 609.8, 8.0)">t</text><text xml:space="preserve" font-family="HelveticaNeue" font-size="28.0" fill="#000000" transform="matrix(1.00, 0.00, -0.00, -1.00, 618.6, 8.0)">e</text><text xml:space="preserve" font-family="HelveticaNeue" font-size="28.0" fill="#000000" transform="matrix(1.00, 0.00, -0.00, -1.00, 633.7, 8.0)"> </text><text xml:space="preserve" font-family="HelveticaNeue" font-size="28.0" fill="#000000" transform="matrix(1.00, 0.00, -0.00, -1.00, 641.4, 8.0)">m</text><text xml:space="preserve" font-family="HelveticaNeue" font-size="28.0" fill="#000000" transform="matrix(1.00, 0.00, -0.00, -1.00, 665.3, 8.0)">a</text><text xml:space="preserve" font-family="HelveticaNeue" font-size="28.0" fill="#000000" transform="matrix(1.00, 0.00, -0.00, -1.00, 680.4, 8.0)">n</text><text xml:space="preserve" font-family="HelveticaNeue" font-size="28.0" fill="#000000" transform="matrix(1.00, 0.00, -0.00, -1.00, 695.9, 8.0)">a</text><text xml:space="preserve" font-family="HelveticaNeue" font-size="28.0" fill="#000000" transform="matrix(1.00, 0.00, -0.00, -1.00, 711.0, 8.0)">g</text><text xml:space="preserve" font-family="HelveticaNeue" font-size="28.0" fill="#000000" transform="matrix(1.00, 0.00, -0.00, -1.00, 727.0, 8.0)">e</text><text xml:space="preserve" font-family="HelveticaNeue" font-size="28.0" fill="#000000" transform="matrix(1.00, 0.00, -0.00, -1.00, 742.1, 8.0)">r</text><text xml:space="preserve" font-family="HelveticaNeue" font-size="28.0" fill="#000000" transform="matrix(1.00, 0.00, -0.00, -1.00, 751.4, 8.0)">?</text></g></svg>