<?xml version="1.0" encoding="UTF-8" standalone="no"?><svg xmlns="http://www.w3.org/2000/svg" xmlns:xlink="http://www.w3.org/1999/xlink" clip-rule="evenodd" stroke-miterlimit="4.00" viewBox="0 0 1024 768"><desc>SVG generated by Keynote</desc><defs></defs><g transform="matrix(1.00, 0.00, -0.00, -1.00, 0.0, 768.0)"><g><clipPath id="clip-91"><path d="M 0.0 768.0 L 1024.0 768.0 L 1024.0 0.0 L 0.0 0.0 Z M 0.0 768.0 "></path></clipPath><g clip-path="url(#clip-91)"><image xlink:href="../../7271B8B7-3FC1-4276-9B71-E31342A69E14/assets/50163466EC2834942505D00A94D158E6.jpeg" width="1024.00" height="768.00" transform="matrix(1.00, 0.00, -0.00, -1.00, 0.0, 768.0)"></image></g></g><text xml:space="preserve" font-family="BodoniSvtyTwoITCTT-Book" font-size="70.0" fill="#D93D2A" transform="matrix(1.00, 0.00, -0.00, -1.00, 65.0, 389.0)">„</text><text xml:space="preserve" font-family="BodoniSvtyTwoITCTT-Book" font-size="70.0" fill="#D93D2A" transform="matrix(1.00, 0.00, -0.00, -1.00, 96.2, 389.0)">T</text><text xml:space="preserve" font-family="BodoniSvtyTwoITCTT-Book" font-size="70.0" fill="#D93D2A" transform="matrix(1.00, 0.00, -0.00, -1.00, 137.2, 389.0)">a</text><text xml:space="preserve" font-family="BodoniSvtyTwoITCTT-Book" font-size="70.0" fill="#D93D2A" transform="matrix(1.00, 0.00, -0.00, -1.00, 165.0, 389.0)">k</text><text xml:space="preserve" font-family="BodoniSvtyTwoITCTT-Book" font-size="70.0" fill="#D93D2A" transform="matrix(1.00, 0.00, -0.00, -1.00, 197.9, 389.0)">e</text><text xml:space="preserve" font-family="BodoniSvtyTwoITCTT-Book" font-size="70.0" fill="#D93D2A" transform="matrix(1.00, 0.00, -0.00, -1.00, 228.0, 389.0)"> </text><text xml:space="preserve" font-family="BodoniSvtyTwoITCTT-Book" font-size="70.0" fill="#D93D2A" transform="matrix(1.00, 0.00, -0.00, -1.00, 241.0, 389.0)">Y</text><text xml:space="preserve" font-family="BodoniSvtyTwoITCTT-Book" font-size="70.0" fill="#D93D2A" transform="matrix(1.00, 0.00, -0.00, -1.00, 283.5, 389.0)">o</text><text xml:space="preserve" font-family="BodoniSvtyTwoITCTT-Book" font-size="70.0" fill="#D93D2A" transform="matrix(1.00, 0.00, -0.00, -1.00, 317.1, 389.0)">u</text><text xml:space="preserve" font-family="BodoniSvtyTwoITCTT-Book" font-size="70.0" fill="#D93D2A" transform="matrix(1.00, 0.00, -0.00, -1.00, 351.4, 389.0)">r</text><text xml:space="preserve" font-family="BodoniSvtyTwoITCTT-Book" font-size="70.0" fill="#D93D2A" transform="matrix(1.00, 0.00, -0.00, -1.00, 375.0, 389.0)"> </text><text xml:space="preserve" font-family="BodoniSvtyTwoITCTT-Book" font-size="70.0" fill="#D93D2A" transform="matrix(1.00, 0.00, -0.00, -1.00, 388.1, 389.0)">T</text><text xml:space="preserve" font-family="BodoniSvtyTwoITCTT-Book" font-size="70.0" fill="#D93D2A" transform="matrix(1.00, 0.00, -0.00, -1.00, 429.1, 389.0)">i</text><text xml:space="preserve" font-family="BodoniSvtyTwoITCTT-Book" font-size="70.0" fill="#D93D2A" transform="matrix(1.00, 0.00, -0.00, -1.00, 446.6, 389.0)">m</text><text xml:space="preserve" font-family="BodoniSvtyTwoITCTT-Book" font-size="70.0" fill="#D93D2A" transform="matrix(1.00, 0.00, -0.00, -1.00, 495.9, 389.0)">e</text><text xml:space="preserve" font-family="BodoniSvtyTwoITCTT-Book" font-size="70.0" fill="#D93D2A" transform="matrix(1.00, 0.00, -0.00, -1.00, 526.0, 389.0)"> </text><text xml:space="preserve" font-family="BodoniSvtyTwoITCTT-Book" font-size="70.0" fill="#D93D2A" transform="matrix(1.00, 0.00, -0.00, -1.00, 539.0, 389.0)">-</text><text xml:space="preserve" font-family="BodoniSvtyTwoITCTT-Book" font-size="70.0" fill="#D93D2A" transform="matrix(1.00, 0.00, -0.00, -1.00, 560.3, 389.0)"> </text><text xml:space="preserve" font-family="BodoniSvtyTwoITCTT-Book" font-size="70.0" fill="#D93D2A" transform="matrix(1.00, 0.00, -0.00, -1.00, 573.3, 389.0)">I</text><text xml:space="preserve" font-family="BodoniSvtyTwoITCTT-Book" font-size="70.0" fill="#D93D2A" transform="matrix(1.00, 0.00, -0.00, -1.00, 595.3, 389.0)">’</text><text xml:space="preserve" font-family="BodoniSvtyTwoITCTT-Book" font-size="70.0" fill="#D93D2A" transform="matrix(1.00, 0.00, -0.00, -1.00, 613.7, 389.0)">m</text><text xml:space="preserve" font-family="BodoniSvtyTwoITCTT-Book" font-size="70.0" fill="#D93D2A" transform="matrix(1.00, 0.00, -0.00, -1.00, 662.9, 389.0)"> </text><text xml:space="preserve" font-family="BodoniSvtyTwoITCTT-Book" font-size="70.0" fill="#D93D2A" transform="matrix(1.00, 0.00, -0.00, -1.00, 675.9, 389.0)">L</text><text xml:space="preserve" font-family="BodoniSvtyTwoITCTT-Book" font-size="70.0" fill="#D93D2A" transform="matrix(1.00, 0.00, -0.00, -1.00, 715.4, 389.0)">i</text><text xml:space="preserve" font-family="BodoniSvtyTwoITCTT-Book" font-size="70.0" fill="#D93D2A" transform="matrix(1.00, 0.00, -0.00, -1.00, 732.9, 389.0)">s</text><text xml:space="preserve" font-family="BodoniSvtyTwoITCTT-Book" font-size="70.0" fill="#D93D2A" transform="matrix(1.00, 0.00, -0.00, -1.00, 758.3, 389.0)">t</text><text xml:space="preserve" font-family="BodoniSvtyTwoITCTT-Book" font-size="70.0" fill="#D93D2A" transform="matrix(1.00, 0.00, -0.00, -1.00, 778.2, 389.0)">e</text><text xml:space="preserve" font-family="BodoniSvtyTwoITCTT-Book" font-size="70.0" fill="#D93D2A" transform="matrix(1.00, 0.00, -0.00, -1.00, 808.3, 389.0)">n</text><text xml:space="preserve" font-family="BodoniSvtyTwoITCTT-Book" font-size="70.0" fill="#D93D2A" transform="matrix(1.00, 0.00, -0.00, -1.00, 842.5, 389.0)">i</text><text xml:space="preserve" font-family="BodoniSvtyTwoITCTT-Book" font-size="70.0" fill="#D93D2A" transform="matrix(1.00, 0.00, -0.00, -1.00, 860.1, 389.0)">n</text><text xml:space="preserve" font-family="BodoniSvtyTwoITCTT-Book" font-size="70.0" fill="#D93D2A" transform="matrix(1.00, 0.00, -0.00, -1.00, 894.3, 389.0)">g</text><text xml:space="preserve" font-family="BodoniSvtyTwoITCTT-Book" font-size="70.0" fill="#D93D2A" transform="matrix(1.00, 0.00, -0.00, -1.00, 927.0, 389.0)">”</text><text xml:space="preserve" font-family="BodoniSvtyTwoITCTT-Book" font-size="70.0" fill="#D93D2A" transform="matrix(1.00, 0.00, -0.00, -1.00, 958.2, 389.0)"> </text><text xml:space="preserve" font-family="BodoniSvtyTwoITCTT-BookIta" font-style="italic" font-size="40.0" fill="#000000" transform="matrix(1.00, 0.00, -0.00, -1.00, 170.0, 324.0)">H</text><text xml:space="preserve" font-family="BodoniSvtyTwoITCTT-BookIta" font-style="italic" font-size="40.0" fill="#000000" transform="matrix(1.00, 0.00, -0.00, -1.00, 197.8, 324.0)">o</text><text xml:space="preserve" font-family="BodoniSvtyTwoITCTT-BookIta" font-style="italic" font-size="40.0" fill="#000000" transform="matrix(1.00, 0.00, -0.00, -1.00, 216.3, 324.0)">w</text><text xml:space="preserve" font-family="BodoniSvtyTwoITCTT-BookIta" font-style="italic" font-size="40.0" fill="#000000" transform="matrix(1.00, 0.00, -0.00, -1.00, 243.2, 324.0)"> </text><text xml:space="preserve" font-family="BodoniSvtyTwoITCTT-BookIta" font-style="italic" font-size="40.0" fill="#000000" transform="matrix(1.00, 0.00, -0.00, -1.00, 250.6, 324.0)">t</text><text xml:space="preserve" font-family="BodoniSvtyTwoITCTT-BookIta" font-style="italic" font-size="40.0" fill="#000000" transform="matrix(1.00, 0.00, -0.00, -1.00, 260.8, 324.0)">o</text><text xml:space="preserve" font-family="BodoniSvtyTwoITCTT-BookIta" font-style="italic" font-size="40.0" fill="#000000" transform="matrix(1.00, 0.00, -0.00, -1.00, 279.3, 324.0)"> </text><text xml:space="preserve" font-family="BodoniSvtyTwoITCTT-BookIta" font-style="italic" font-size="40.0" fill="#000000" transform="matrix(1.00, 0.00, -0.00, -1.00, 286.7, 324.0)">L</text><text xml:space="preserve" font-family="BodoniSvtyTwoITCTT-BookIta" font-style="italic" font-size="40.0" fill="#000000" transform="matrix(1.00, 0.00, -0.00, -1.00, 309.7, 324.0)">e</text><text xml:space="preserve" font-family="BodoniSvtyTwoITCTT-BookIta" font-style="italic" font-size="40.0" fill="#000000" transform="matrix(1.00, 0.00, -0.00, -1.00, 324.9, 324.0)">t</text><text xml:space="preserve" font-family="BodoniSvtyTwoITCTT-BookIta" font-style="italic" font-size="40.0" fill="#000000" transform="matrix(1.00, 0.00, -0.00, -1.00, 335.1, 324.0)"> </text><text xml:space="preserve" font-family="BodoniSvtyTwoITCTT-BookIta" font-style="italic" font-size="40.0" fill="#000000" transform="matrix(1.00, 0.00, -0.00, -1.00, 342.6, 324.0)">G</text><text xml:space="preserve" font-family="BodoniSvtyTwoITCTT-BookIta" font-style="italic" font-size="40.0" fill="#000000" transform="matrix(1.00, 0.00, -0.00, -1.00, 369.6, 324.0)">o</text><text xml:space="preserve" font-family="BodoniSvtyTwoITCTT-BookIta" font-style="italic" font-size="40.0" fill="#000000" transform="matrix(1.00, 0.00, -0.00, -1.00, 388.0, 324.0)"> </text><text xml:space="preserve" font-family="BodoniSvtyTwoITCTT-BookIta" font-style="italic" font-size="40.0" fill="#000000" transform="matrix(1.00, 0.00, -0.00, -1.00, 395.5, 324.0)">o</text><text xml:space="preserve" font-family="BodoniSvtyTwoITCTT-BookIta" font-style="italic" font-size="40.0" fill="#000000" transform="matrix(1.00, 0.00, -0.00, -1.00, 414.0, 324.0)">f</text><text xml:space="preserve" font-family="BodoniSvtyTwoITCTT-BookIta" font-style="italic" font-size="40.0" fill="#000000" transform="matrix(1.00, 0.00, -0.00, -1.00, 424.7, 324.0)"> </text><text xml:space="preserve" font-family="BodoniSvtyTwoITCTT-BookIta" font-style="italic" font-size="40.0" fill="#000000" transform="matrix(1.00, 0.00, -0.00, -1.00, 432.2, 324.0)">Y</text><text xml:space="preserve" font-family="BodoniSvtyTwoITCTT-BookIta" font-style="italic" font-size="40.0" fill="#000000" transform="matrix(1.00, 0.00, -0.00, -1.00, 453.9, 324.0)">o</text><text xml:space="preserve" font-family="BodoniSvtyTwoITCTT-BookIta" font-style="italic" font-size="40.0" fill="#000000" transform="matrix(1.00, 0.00, -0.00, -1.00, 472.4, 324.0)">u</text><text xml:space="preserve" font-family="BodoniSvtyTwoITCTT-BookIta" font-style="italic" font-size="40.0" fill="#000000" transform="matrix(1.00, 0.00, -0.00, -1.00, 491.9, 324.0)">r</text><text xml:space="preserve" font-family="BodoniSvtyTwoITCTT-BookIta" font-style="italic" font-size="40.0" fill="#000000" transform="matrix(1.00, 0.00, -0.00, -1.00, 505.4, 324.0)"> </text><text xml:space="preserve" font-family="BodoniSvtyTwoITCTT-BookIta" font-style="italic" font-size="40.0" fill="#000000" transform="matrix(1.00, 0.00, -0.00, -1.00, 512.8, 324.0)">O</text><text xml:space="preserve" font-family="BodoniSvtyTwoITCTT-BookIta" font-style="italic" font-size="40.0" fill="#000000" transform="matrix(1.00, 0.00, -0.00, -1.00, 541.2, 324.0)">w</text><text xml:space="preserve" font-family="BodoniSvtyTwoITCTT-BookIta" font-style="italic" font-size="40.0" fill="#000000" transform="matrix(1.00, 0.00, -0.00, -1.00, 568.1, 324.0)">n</text><text xml:space="preserve" font-family="BodoniSvtyTwoITCTT-BookIta" font-style="italic" font-size="40.0" fill="#000000" transform="matrix(1.00, 0.00, -0.00, -1.00, 587.8, 324.0)"> </text><text xml:space="preserve" font-family="BodoniSvtyTwoITCTT-BookIta" font-style="italic" font-size="40.0" fill="#000000" transform="matrix(1.00, 0.00, -0.00, -1.00, 595.2, 324.0)">N</text><text xml:space="preserve" font-family="BodoniSvtyTwoITCTT-BookIta" font-style="italic" font-size="40.0" fill="#000000" transform="matrix(1.00, 0.00, -0.00, -1.00, 622.6, 324.0)">e</text><text xml:space="preserve" font-family="BodoniSvtyTwoITCTT-BookIta" font-style="italic" font-size="40.0" fill="#000000" transform="matrix(1.00, 0.00, -0.00, -1.00, 637.8, 324.0)">e</text><text xml:space="preserve" font-family="BodoniSvtyTwoITCTT-BookIta" font-style="italic" font-size="40.0" fill="#000000" transform="matrix(1.00, 0.00, -0.00, -1.00, 653.0, 324.0)">d</text><text xml:space="preserve" font-family="BodoniSvtyTwoITCTT-BookIta" font-style="italic" font-size="40.0" fill="#000000" transform="matrix(1.00, 0.00, -0.00, -1.00, 673.3, 324.0)">s</text><text xml:space="preserve" font-family="BodoniSvtyTwoITCTT-BookIta" font-style="italic" font-size="40.0" fill="#000000" transform="matrix(1.00, 0.00, -0.00, -1.00, 687.2, 324.0)"> </text><text xml:space="preserve" font-family="BodoniSvtyTwoITCTT-BookIta" font-style="italic" font-size="40.0" fill="#000000" transform="matrix(1.00, 0.00, -0.00, -1.00, 694.6, 324.0)">a</text><text xml:space="preserve" font-family="BodoniSvtyTwoITCTT-BookIta" font-style="italic" font-size="40.0" fill="#000000" transform="matrix(1.00, 0.00, -0.00, -1.00, 714.1, 324.0)">n</text><text xml:space="preserve" font-family="BodoniSvtyTwoITCTT-BookIta" font-style="italic" font-size="40.0" fill="#000000" transform="matrix(1.00, 0.00, -0.00, -1.00, 733.8, 324.0)">d</text><text xml:space="preserve" font-family="BodoniSvtyTwoITCTT-BookIta" font-style="italic" font-size="40.0" fill="#000000" transform="matrix(1.00, 0.00, -0.00, -1.00, 754.0, 324.0)"> </text><text xml:space="preserve" font-family="BodoniSvtyTwoITCTT-BookIta" font-style="italic" font-size="40.0" fill="#000000" transform="matrix(1.00, 0.00, -0.00, -1.00, 761.5, 324.0)">L</text><text xml:space="preserve" font-family="BodoniSvtyTwoITCTT-BookIta" font-style="italic" font-size="40.0" fill="#000000" transform="matrix(1.00, 0.00, -0.00, -1.00, 784.5, 324.0)">i</text><text xml:space="preserve" font-family="BodoniSvtyTwoITCTT-BookIta" font-style="italic" font-size="40.0" fill="#000000" transform="matrix(1.00, 0.00, -0.00, -1.00, 794.1, 324.0)">s</text><text xml:space="preserve" font-family="BodoniSvtyTwoITCTT-BookIta" font-style="italic" font-size="40.0" fill="#000000" transform="matrix(1.00, 0.00, -0.00, -1.00, 807.9, 324.0)">t</text><text xml:space="preserve" font-family="BodoniSvtyTwoITCTT-BookIta" font-style="italic" font-size="40.0" fill="#000000" transform="matrix(1.00, 0.00, -0.00, -1.00, 818.1, 324.0)">e</text><text xml:space="preserve" font-family="BodoniSvtyTwoITCTT-BookIta" font-style="italic" font-size="40.0" fill="#000000" transform="matrix(1.00, 0.00, -0.00, -1.00, 833.3, 324.0)">n</text></g></svg>