<?xml version="1.0" encoding="UTF-8" standalone="no"?><svg xmlns="http://www.w3.org/2000/svg" xmlns:xlink="http://www.w3.org/1999/xlink" clip-rule="evenodd" stroke-miterlimit="4.00" viewBox="0 0 856 79"><desc>SVG generated by Keynote</desc><defs></defs><g transform="matrix(1.00, 0.00, -0.00, -1.00, 0.0, 79.0)"><text xml:space="preserve" font-family="Palatino-Roman" font-size="34.2" fill="#414040" transform="matrix(1.00, 0.00, -0.00, -1.00, 0.0, 50.7)">2</text><text xml:space="preserve" font-family="Palatino-Roman" font-size="34.2" fill="#414040" transform="matrix(1.00, 0.00, -0.00, -1.00, 17.1, 50.7)">.</text><text xml:space="preserve" font-family="Palatino-Roman" font-size="34.2" fill="#414040" transform="matrix(1.00, 0.00, -0.00, -1.00, 49.0, 51.0)">D</text><text xml:space="preserve" font-family="Palatino-Roman" font-size="34.2" fill="#414040" transform="matrix(1.00, 0.00, -0.00, -1.00, 75.5, 51.0)">e</text><text xml:space="preserve" font-family="Palatino-Roman" font-size="34.2" fill="#414040" transform="matrix(1.00, 0.00, -0.00, -1.00, 91.8, 51.0)">ï¬</text><text xml:space="preserve" font-family="Palatino-Roman" font-size="34.2" fill="#414040" transform="matrix(1.00, 0.00, -0.00, -1.00, 112.5, 51.0)">n</text><text xml:space="preserve" font-family="Palatino-Roman" font-size="34.2" fill="#414040" transform="matrix(1.00, 0.00, -0.00, -1.00, 132.4, 51.0)">e</text><text xml:space="preserve" font-family="Palatino-Roman" font-size="34.2" fill="#414040" transform="matrix(1.00, 0.00, -0.00, -1.00, 148.8, 51.0)"> </text><text xml:space="preserve" font-family="Palatino-Roman" font-size="34.2" fill="#414040" transform="matrix(1.00, 0.00, -0.00, -1.00, 157.4, 51.0)">a</text><text xml:space="preserve" font-family="Palatino-Roman" font-size="34.2" fill="#414040" transform="matrix(1.00, 0.00, -0.00, -1.00, 174.5, 51.0)"> </text><text xml:space="preserve" font-family="Palatino-Roman" font-size="34.2" fill="#414040" transform="matrix(1.00, 0.00, -0.00, -1.00, 183.0, 51.0)">p</text><text xml:space="preserve" font-family="Palatino-Roman" font-size="34.2" fill="#414040" transform="matrix(1.00, 0.00, -0.00, -1.00, 203.6, 51.0)">o</text><text xml:space="preserve" font-family="Palatino-Roman" font-size="34.2" fill="#414040" transform="matrix(1.00, 0.00, -0.00, -1.00, 222.3, 51.0)">s</text><text xml:space="preserve" font-family="Palatino-Roman" font-size="34.2" fill="#414040" transform="matrix(1.00, 0.00, -0.00, -1.00, 236.7, 51.0)">s</text><text xml:space="preserve" font-family="Palatino-Roman" font-size="34.2" fill="#414040" transform="matrix(1.00, 0.00, -0.00, -1.00, 251.2, 51.0)">i</text><text xml:space="preserve" font-family="Palatino-Roman" font-size="34.2" fill="#414040" transform="matrix(1.00, 0.00, -0.00, -1.00, 261.2, 51.0)">b</text><text xml:space="preserve" font-family="Palatino-Roman" font-size="34.2" fill="#414040" transform="matrix(1.00, 0.00, -0.00, -1.00, 280.1, 51.0)">l</text><text xml:space="preserve" font-family="Palatino-Roman" font-size="34.2" fill="#414040" transform="matrix(1.00, 0.00, -0.00, -1.00, 290.1, 51.0)">e</text><text xml:space="preserve" font-family="Palatino-Roman" font-size="34.2" fill="#414040" transform="matrix(1.00, 0.00, -0.00, -1.00, 306.4, 51.0)"> </text><text xml:space="preserve" font-family="Palatino-Roman" font-size="34.2" fill="#414040" transform="matrix(1.00, 0.00, -0.00, -1.00, 315.0, 51.0)">r</text><text xml:space="preserve" font-family="Palatino-Roman" font-size="34.2" fill="#414040" transform="matrix(1.00, 0.00, -0.00, -1.00, 327.9, 51.0)">o</text><text xml:space="preserve" font-family="Palatino-Roman" font-size="34.2" fill="#414040" transform="matrix(1.00, 0.00, -0.00, -1.00, 346.6, 51.0)">o</text><text xml:space="preserve" font-family="Palatino-Roman" font-size="34.2" fill="#414040" transform="matrix(1.00, 0.00, -0.00, -1.00, 365.2, 51.0)">t</text><text xml:space="preserve" font-family="Palatino-Roman" font-size="34.2" fill="#414040" transform="matrix(1.00, 0.00, -0.00, -1.00, 376.4, 51.0)"> </text><text xml:space="preserve" font-family="Palatino-Roman" font-size="34.2" fill="#414040" transform="matrix(1.00, 0.00, -0.00, -1.00, 384.9, 51.0)">c</text><text xml:space="preserve" font-family="Palatino-Roman" font-size="34.2" fill="#414040" transform="matrix(1.00, 0.00, -0.00, -1.00, 400.1, 51.0)">a</text><text xml:space="preserve" font-family="Palatino-Roman" font-size="34.2" fill="#414040" transform="matrix(1.00, 0.00, -0.00, -1.00, 417.2, 51.0)">u</text><text xml:space="preserve" font-family="Palatino-Roman" font-size="34.2" fill="#414040" transform="matrix(1.00, 0.00, -0.00, -1.00, 437.8, 51.0)">s</text><text xml:space="preserve" font-family="Palatino-Roman" font-size="34.2" fill="#414040" transform="matrix(1.00, 0.00, -0.00, -1.00, 452.3, 51.0)">e</text><text xml:space="preserve" font-family="Palatino-Roman" font-size="34.2" fill="#414040" transform="matrix(1.00, 0.00, -0.00, -1.00, 468.7, 51.0)">s</text><text xml:space="preserve" font-family="Palatino-Roman" font-size="34.2" fill="#414040" transform="matrix(1.00, 0.00, -0.00, -1.00, 483.2, 51.0)"> </text><text xml:space="preserve" font-family="Palatino-Roman" font-size="34.2" fill="#414040" transform="matrix(1.00, 0.00, -0.00, -1.00, 491.7, 51.0)">(</text><text xml:space="preserve" font-family="Palatino-Roman" font-size="34.2" fill="#414040" transform="matrix(1.00, 0.00, -0.00, -1.00, 503.1, 51.0)">B</text><text xml:space="preserve" font-family="Palatino-Roman" font-size="34.2" fill="#414040" transform="matrix(1.00, 0.00, -0.00, -1.00, 524.0, 51.0)">r</text><text xml:space="preserve" font-family="Palatino-Roman" font-size="34.2" fill="#414040" transform="matrix(1.00, 0.00, -0.00, -1.00, 537.5, 51.0)">a</text><text xml:space="preserve" font-family="Palatino-Roman" font-size="34.2" fill="#414040" transform="matrix(1.00, 0.00, -0.00, -1.00, 554.6, 51.0)">i</text><text xml:space="preserve" font-family="Palatino-Roman" font-size="34.2" fill="#414040" transform="matrix(1.00, 0.00, -0.00, -1.00, 564.6, 51.0)">n</text><text xml:space="preserve" font-family="Palatino-Roman" font-size="34.2" fill="#414040" transform="matrix(1.00, 0.00, -0.00, -1.00, 584.5, 51.0)">s</text><text xml:space="preserve" font-family="Palatino-Roman" font-size="34.2" fill="#414040" transform="matrix(1.00, 0.00, -0.00, -1.00, 599.0, 51.0)">t</text><text xml:space="preserve" font-family="Palatino-Roman" font-size="34.2" fill="#414040" transform="matrix(1.00, 0.00, -0.00, -1.00, 610.1, 51.0)">o</text><text xml:space="preserve" font-family="Palatino-Roman" font-size="34.2" fill="#414040" transform="matrix(1.00, 0.00, -0.00, -1.00, 628.8, 51.0)">r</text><text xml:space="preserve" font-family="Palatino-Roman" font-size="34.2" fill="#414040" transform="matrix(1.00, 0.00, -0.00, -1.00, 642.3, 51.0)">m</text><text xml:space="preserve" font-family="Palatino-Roman" font-size="34.2" fill="#414040" transform="matrix(1.00, 0.00, -0.00, -1.00, 672.5, 51.0)">i</text><text xml:space="preserve" font-family="Palatino-Roman" font-size="34.2" fill="#414040" transform="matrix(1.00, 0.00, -0.00, -1.00, 682.5, 51.0)">n</text><text xml:space="preserve" font-family="Palatino-Roman" font-size="34.2" fill="#414040" transform="matrix(1.00, 0.00, -0.00, -1.00, 702.4, 51.0)">g</text><text xml:space="preserve" font-family="Palatino-Roman" font-size="34.2" fill="#414040" transform="matrix(1.00, 0.00, -0.00, -1.00, 721.4, 51.0)">,</text><text xml:space="preserve" font-family="Palatino-Roman" font-size="34.2" fill="#414040" transform="matrix(1.00, 0.00, -0.00, -1.00, 729.9, 51.0)"> </text><text xml:space="preserve" font-family="Palatino-Roman" font-size="34.2" fill="#414040" transform="matrix(1.00, 0.00, -0.00, -1.00, 738.5, 51.0)">4</text><text xml:space="preserve" font-family="Palatino-Roman" font-size="34.2" fill="#414040" transform="matrix(1.00, 0.00, -0.00, -1.00, 755.6, 51.0)">-</text><text xml:space="preserve" font-family="Palatino-Roman" font-size="34.2" fill="#414040" transform="matrix(1.00, 0.00, -0.00, -1.00, 767.0, 51.0)">8</text><text xml:space="preserve" font-family="Palatino-Roman" font-size="34.2" fill="#414040" transform="matrix(1.00, 0.00, -0.00, -1.00, 784.1, 51.0)"> </text><text xml:space="preserve" font-family="Palatino-Roman" font-size="34.2" fill="#414040" transform="matrix(1.00, 0.00, -0.00, -1.00, 792.6, 51.0)">r</text><text xml:space="preserve" font-family="Palatino-Roman" font-size="34.2" fill="#414040" transform="matrix(1.00, 0.00, -0.00, -1.00, 805.5, 51.0)">o</text><text xml:space="preserve" font-family="Palatino-Roman" font-size="34.2" fill="#414040" transform="matrix(1.00, 0.00, -0.00, -1.00, 824.2, 51.0)">o</text><text xml:space="preserve" font-family="Palatino-Roman" font-size="34.2" fill="#414040" transform="matrix(1.00, 0.00, -0.00, -1.00, 842.9, 51.0)">t</text><text xml:space="preserve" font-family="Palatino-Roman" font-size="34.2" fill="#414040" transform="matrix(1.00, 0.00, -0.00, -1.00, 854.0, 51.0)"> </text><text xml:space="preserve" font-family="Palatino-Roman" font-size="34.2" fill="#414040" transform="matrix(1.00, 0.00, -0.00, -1.00, 49.0, 7.0)">c</text><text xml:space="preserve" font-family="Palatino-Roman" font-size="34.2" fill="#414040" transform="matrix(1.00, 0.00, -0.00, -1.00, 64.2, 7.0)">a</text><text xml:space="preserve" font-family="Palatino-Roman" font-size="34.2" fill="#414040" transform="matrix(1.00, 0.00, -0.00, -1.00, 81.3, 7.0)">u</text><text xml:space="preserve" font-family="Palatino-Roman" font-size="34.2" fill="#414040" transform="matrix(1.00, 0.00, -0.00, -1.00, 101.9, 7.0)">s</text><text xml:space="preserve" font-family="Palatino-Roman" font-size="34.2" fill="#414040" transform="matrix(1.00, 0.00, -0.00, -1.00, 116.4, 7.0)">e</text><text xml:space="preserve" font-family="Palatino-Roman" font-size="34.2" fill="#414040" transform="matrix(1.00, 0.00, -0.00, -1.00, 132.8, 7.0)">s</text><text xml:space="preserve" font-family="Palatino-Roman" font-size="34.2" fill="#414040" transform="matrix(1.00, 0.00, -0.00, -1.00, 147.3, 7.0)">)</text><text xml:space="preserve" font-family="Palatino-Roman" font-size="34.2" fill="#414040" transform="matrix(1.00, 0.00, -0.00, -1.00, 158.6, 7.0)"> </text><text xml:space="preserve" font-family="Palatino-Roman" font-size="34.2" fill="#414040" transform="matrix(1.00, 0.00, -0.00, -1.00, 167.2, 7.0)">-</text><text xml:space="preserve" font-family="Palatino-Roman" font-size="34.2" fill="#414040" transform="matrix(1.00, 0.00, -0.00, -1.00, 178.6, 7.0)"> </text><text xml:space="preserve" font-family="Palatino-Roman" font-size="34.2" fill="#414040" transform="matrix(1.00, 0.00, -0.00, -1.00, 187.1, 7.0)">8</text><text xml:space="preserve" font-family="Palatino-Roman" font-size="34.2" fill="#414040" transform="matrix(1.00, 0.00, -0.00, -1.00, 204.2, 7.0)"> </text><text xml:space="preserve" font-family="Palatino-Roman" font-size="34.2" fill="#414040" transform="matrix(1.00, 0.00, -0.00, -1.00, 212.8, 7.0)">m</text><text xml:space="preserve" font-family="Palatino-Roman" font-size="34.2" fill="#414040" transform="matrix(1.00, 0.00, -0.00, -1.00, 243.0, 7.0)">i</text><text xml:space="preserve" font-family="Palatino-Roman" font-size="34.2" fill="#414040" transform="matrix(1.00, 0.00, -0.00, -1.00, 252.9, 7.0)">n</text></g></svg>