<?xml version="1.0" encoding="UTF-8" standalone="no"?><svg xmlns="http://www.w3.org/2000/svg" xmlns:xlink="http://www.w3.org/1999/xlink" clip-rule="evenodd" stroke-miterlimit="4.00" viewBox="0 0 933 75"><desc>SVG generated by Keynote</desc><defs></defs><g transform="matrix(1.00, 0.00, -0.00, -1.00, 0.0, 75.0)"><text xml:space="preserve" font-family="Palatino-Roman" font-size="34.2" fill="#414040" transform="matrix(1.00, 0.00, -0.00, -1.00, 0.0, 46.3)">5</text><text xml:space="preserve" font-family="Palatino-Roman" font-size="34.2" fill="#414040" transform="matrix(1.00, 0.00, -0.00, -1.00, 17.1, 46.3)">.</text><text xml:space="preserve" font-family="Palatino-Roman" font-size="34.2" fill="#414040" transform="matrix(1.00, 0.00, -0.00, -1.00, 49.0, 46.0)">P</text><text xml:space="preserve" font-family="Palatino-Roman" font-size="34.2" fill="#414040" transform="matrix(1.00, 0.00, -0.00, -1.00, 69.7, 46.0)">r</text><text xml:space="preserve" font-family="Palatino-Roman" font-size="34.2" fill="#414040" transform="matrix(1.00, 0.00, -0.00, -1.00, 82.6, 46.0)">o</text><text xml:space="preserve" font-family="Palatino-Roman" font-size="34.2" fill="#414040" transform="matrix(1.00, 0.00, -0.00, -1.00, 101.2, 46.0)">p</text><text xml:space="preserve" font-family="Palatino-Roman" font-size="34.2" fill="#414040" transform="matrix(1.00, 0.00, -0.00, -1.00, 121.8, 46.0)">o</text><text xml:space="preserve" font-family="Palatino-Roman" font-size="34.2" fill="#414040" transform="matrix(1.00, 0.00, -0.00, -1.00, 140.5, 46.0)">s</text><text xml:space="preserve" font-family="Palatino-Roman" font-size="34.2" fill="#414040" transform="matrix(1.00, 0.00, -0.00, -1.00, 154.9, 46.0)">e</text><text xml:space="preserve" font-family="Palatino-Roman" font-size="34.2" fill="#414040" transform="matrix(1.00, 0.00, -0.00, -1.00, 171.3, 46.0)"> </text><text xml:space="preserve" font-family="Palatino-Roman" font-size="34.2" fill="#414040" transform="matrix(1.00, 0.00, -0.00, -1.00, 179.9, 46.0)">3</text><text xml:space="preserve" font-family="Palatino-Roman" font-size="34.2" fill="#414040" transform="matrix(1.00, 0.00, -0.00, -1.00, 197.0, 46.0)">-</text><text xml:space="preserve" font-family="Palatino-Roman" font-size="34.2" fill="#414040" transform="matrix(1.00, 0.00, -0.00, -1.00, 208.4, 46.0)">4</text><text xml:space="preserve" font-family="Palatino-Roman" font-size="34.2" fill="#414040" transform="matrix(1.00, 0.00, -0.00, -1.00, 225.5, 46.0)"> </text><text xml:space="preserve" font-family="Palatino-Roman" font-size="34.2" fill="#414040" transform="matrix(1.00, 0.00, -0.00, -1.00, 234.0, 46.0)">s</text><text xml:space="preserve" font-family="Palatino-Roman" font-size="34.2" fill="#414040" transform="matrix(1.00, 0.00, -0.00, -1.00, 248.5, 46.0)">o</text><text xml:space="preserve" font-family="Palatino-Roman" font-size="34.2" fill="#414040" transform="matrix(1.00, 0.00, -0.00, -1.00, 267.2, 46.0)">l</text><text xml:space="preserve" font-family="Palatino-Roman" font-size="34.2" fill="#414040" transform="matrix(1.00, 0.00, -0.00, -1.00, 277.1, 46.0)">u</text><text xml:space="preserve" font-family="Palatino-Roman" font-size="34.2" fill="#414040" transform="matrix(1.00, 0.00, -0.00, -1.00, 297.7, 46.0)">t</text><text xml:space="preserve" font-family="Palatino-Roman" font-size="34.2" fill="#414040" transform="matrix(1.00, 0.00, -0.00, -1.00, 308.9, 46.0)">i</text><text xml:space="preserve" font-family="Palatino-Roman" font-size="34.2" fill="#414040" transform="matrix(1.00, 0.00, -0.00, -1.00, 318.9, 46.0)">o</text><text xml:space="preserve" font-family="Palatino-Roman" font-size="34.2" fill="#414040" transform="matrix(1.00, 0.00, -0.00, -1.00, 337.5, 46.0)">n</text><text xml:space="preserve" font-family="Palatino-Roman" font-size="34.2" fill="#414040" transform="matrix(1.00, 0.00, -0.00, -1.00, 357.4, 46.0)">s</text><text xml:space="preserve" font-family="Palatino-Roman" font-size="34.2" fill="#414040" transform="matrix(1.00, 0.00, -0.00, -1.00, 371.9, 46.0)"> </text><text xml:space="preserve" font-family="Palatino-Roman" font-size="34.2" fill="#414040" transform="matrix(1.00, 0.00, -0.00, -1.00, 380.5, 46.0)">f</text><text xml:space="preserve" font-family="Palatino-Roman" font-size="34.2" fill="#414040" transform="matrix(1.00, 0.00, -0.00, -1.00, 391.9, 46.0)">o</text><text xml:space="preserve" font-family="Palatino-Roman" font-size="34.2" fill="#414040" transform="matrix(1.00, 0.00, -0.00, -1.00, 410.5, 46.0)">r</text><text xml:space="preserve" font-family="Palatino-Roman" font-size="34.2" fill="#414040" transform="matrix(1.00, 0.00, -0.00, -1.00, 424.0, 46.0)"> </text><text xml:space="preserve" font-family="Palatino-Roman" font-size="34.2" fill="#414040" transform="matrix(1.00, 0.00, -0.00, -1.00, 432.6, 46.0)">e</text><text xml:space="preserve" font-family="Palatino-Roman" font-size="34.2" fill="#414040" transform="matrix(1.00, 0.00, -0.00, -1.00, 449.0, 46.0)">a</text><text xml:space="preserve" font-family="Palatino-Roman" font-size="34.2" fill="#414040" transform="matrix(1.00, 0.00, -0.00, -1.00, 466.1, 46.0)">c</text><text xml:space="preserve" font-family="Palatino-Roman" font-size="34.2" fill="#414040" transform="matrix(1.00, 0.00, -0.00, -1.00, 481.2, 46.0)">h</text><text xml:space="preserve" font-family="Palatino-Roman" font-size="34.2" fill="#414040" transform="matrix(1.00, 0.00, -0.00, -1.00, 501.1, 46.0)"> </text><text xml:space="preserve" font-family="Palatino-Roman" font-size="34.2" fill="#414040" transform="matrix(1.00, 0.00, -0.00, -1.00, 509.7, 46.0)">r</text><text xml:space="preserve" font-family="Palatino-Roman" font-size="34.2" fill="#414040" transform="matrix(1.00, 0.00, -0.00, -1.00, 522.6, 46.0)">o</text><text xml:space="preserve" font-family="Palatino-Roman" font-size="34.2" fill="#414040" transform="matrix(1.00, 0.00, -0.00, -1.00, 541.3, 46.0)">o</text><text xml:space="preserve" font-family="Palatino-Roman" font-size="34.2" fill="#414040" transform="matrix(1.00, 0.00, -0.00, -1.00, 559.9, 46.0)">t</text><text xml:space="preserve" font-family="Palatino-Roman" font-size="34.2" fill="#414040" transform="matrix(1.00, 0.00, -0.00, -1.00, 571.1, 46.0)"> </text><text xml:space="preserve" font-family="Palatino-Roman" font-size="34.2" fill="#414040" transform="matrix(1.00, 0.00, -0.00, -1.00, 579.6, 46.0)">c</text><text xml:space="preserve" font-family="Palatino-Roman" font-size="34.2" fill="#414040" transform="matrix(1.00, 0.00, -0.00, -1.00, 594.8, 46.0)">a</text><text xml:space="preserve" font-family="Palatino-Roman" font-size="34.2" fill="#414040" transform="matrix(1.00, 0.00, -0.00, -1.00, 611.9, 46.0)">u</text><text xml:space="preserve" font-family="Palatino-Roman" font-size="34.2" fill="#414040" transform="matrix(1.00, 0.00, -0.00, -1.00, 632.5, 46.0)">s</text><text xml:space="preserve" font-family="Palatino-Roman" font-size="34.2" fill="#414040" transform="matrix(1.00, 0.00, -0.00, -1.00, 647.0, 46.0)">e</text><text xml:space="preserve" font-family="Palatino-Roman" font-size="34.2" fill="#414040" transform="matrix(1.00, 0.00, -0.00, -1.00, 663.4, 46.0)"> </text><text xml:space="preserve" font-family="Palatino-Roman" font-size="34.2" fill="#414040" transform="matrix(1.00, 0.00, -0.00, -1.00, 672.0, 46.0)">(</text><text xml:space="preserve" font-family="Palatino-Roman" font-size="34.2" fill="#414040" transform="matrix(1.00, 0.00, -0.00, -1.00, 683.4, 46.0)">b</text><text xml:space="preserve" font-family="Palatino-Roman" font-size="34.2" fill="#414040" transform="matrix(1.00, 0.00, -0.00, -1.00, 702.3, 46.0)">r</text><text xml:space="preserve" font-family="Palatino-Roman" font-size="34.2" fill="#414040" transform="matrix(1.00, 0.00, -0.00, -1.00, 715.8, 46.0)">a</text><text xml:space="preserve" font-family="Palatino-Roman" font-size="34.2" fill="#414040" transform="matrix(1.00, 0.00, -0.00, -1.00, 732.9, 46.0)">i</text><text xml:space="preserve" font-family="Palatino-Roman" font-size="34.2" fill="#414040" transform="matrix(1.00, 0.00, -0.00, -1.00, 742.8, 46.0)">n</text><text xml:space="preserve" font-family="Palatino-Roman" font-size="34.2" fill="#414040" transform="matrix(1.00, 0.00, -0.00, -1.00, 762.7, 46.0)">s</text><text xml:space="preserve" font-family="Palatino-Roman" font-size="34.2" fill="#414040" transform="matrix(1.00, 0.00, -0.00, -1.00, 777.2, 46.0)">t</text><text xml:space="preserve" font-family="Palatino-Roman" font-size="34.2" fill="#414040" transform="matrix(1.00, 0.00, -0.00, -1.00, 788.4, 46.0)">o</text><text xml:space="preserve" font-family="Palatino-Roman" font-size="34.2" fill="#414040" transform="matrix(1.00, 0.00, -0.00, -1.00, 807.1, 46.0)">r</text><text xml:space="preserve" font-family="Palatino-Roman" font-size="34.2" fill="#414040" transform="matrix(1.00, 0.00, -0.00, -1.00, 820.6, 46.0)">m</text><text xml:space="preserve" font-family="Palatino-Roman" font-size="34.2" fill="#414040" transform="matrix(1.00, 0.00, -0.00, -1.00, 850.8, 46.0)">i</text><text xml:space="preserve" font-family="Palatino-Roman" font-size="34.2" fill="#414040" transform="matrix(1.00, 0.00, -0.00, -1.00, 860.7, 46.0)">n</text><text xml:space="preserve" font-family="Palatino-Roman" font-size="34.2" fill="#414040" transform="matrix(1.00, 0.00, -0.00, -1.00, 880.6, 46.0)">g</text><text xml:space="preserve" font-family="Palatino-Roman" font-size="34.2" fill="#414040" transform="matrix(1.00, 0.00, -0.00, -1.00, 899.6, 46.0)">)</text><text xml:space="preserve" font-family="Palatino-Roman" font-size="34.2" fill="#414040" transform="matrix(1.00, 0.00, -0.00, -1.00, 911.0, 46.0)"> </text><text xml:space="preserve" font-family="Palatino-Roman" font-size="34.2" fill="#414040" transform="matrix(1.00, 0.00, -0.00, -1.00, 919.6, 46.0)">-</text><text xml:space="preserve" font-family="Palatino-Roman" font-size="34.2" fill="#414040" transform="matrix(1.00, 0.00, -0.00, -1.00, 931.0, 46.0)"> </text><text xml:space="preserve" font-family="Palatino-Roman" font-size="34.2" fill="#414040" transform="matrix(1.00, 0.00, -0.00, -1.00, 49.0, 2.0)">1</text><text xml:space="preserve" font-family="Palatino-Roman" font-size="34.2" fill="#414040" transform="matrix(1.00, 0.00, -0.00, -1.00, 66.1, 2.0)">0</text><text xml:space="preserve" font-family="Palatino-Roman" font-size="34.2" fill="#414040" transform="matrix(1.00, 0.00, -0.00, -1.00, 83.2, 2.0)"> </text><text xml:space="preserve" font-family="Palatino-Roman" font-size="34.2" fill="#414040" transform="matrix(1.00, 0.00, -0.00, -1.00, 91.8, 2.0)">m</text><text xml:space="preserve" font-family="Palatino-Roman" font-size="34.2" fill="#414040" transform="matrix(1.00, 0.00, -0.00, -1.00, 121.9, 2.0)">i</text><text xml:space="preserve" font-family="Palatino-Roman" font-size="34.2" fill="#414040" transform="matrix(1.00, 0.00, -0.00, -1.00, 131.9, 2.0)">n</text></g></svg>