<?xml version="1.0" encoding="UTF-8" standalone="no"?><svg xmlns="http://www.w3.org/2000/svg" xmlns:xlink="http://www.w3.org/1999/xlink" clip-rule="evenodd" stroke-miterlimit="4.00" viewBox="0 0 1024 768"><desc>SVG generated by Keynote</desc><defs></defs><g transform="matrix(1.00, 0.00, -0.00, -1.00, 0.0, 768.0)"><g><clipPath id="clip-90"><path d="M 0.0 768.0 L 1024.0 768.0 L 1024.0 0.0 L 0.0 0.0 Z M 0.0 768.0 "></path></clipPath><g clip-path="url(#clip-90)"><image xlink:href="../../7271B8B7-3FC1-4276-9B71-E31342A69E14/assets/50163466EC2834942505D00A94D158E6.jpeg" width="1024.00" height="768.00" transform="matrix(1.00, 0.00, -0.00, -1.00, 0.0, 768.0)"></image></g></g><g opacity="0.30"><g><clipPath id="clip-91"><path d="M 39.0 595.0 L 986.0 595.0 L 986.0 599.0 L 39.0 599.0 Z M 39.0 595.0 "></path></clipPath><g clip-path="url(#clip-91)"><path d="M 0.0 0.0 L 944.7 0.0 " fill="none" stroke="#434343" stroke-width="1.00" transform="matrix(1.00, 0.00, 0.00, -1.00, 40.0, 597.0)"></path></g></g></g><g opacity="0.30"><g><clipPath id="clip-92"><path d="M 39.0 716.0 L 986.0 716.0 L 986.0 720.0 L 39.0 720.0 Z M 39.0 716.0 "></path></clipPath><g clip-path="url(#clip-92)"><path d="M 0.0 0.0 L 944.7 0.0 " fill="none" stroke="#434343" stroke-width="1.00" transform="matrix(1.00, 0.00, 0.00, -1.00, 40.0, 718.0)"></path></g></g></g><text xml:space="preserve" font-family="BodoniSvtyTwoITCTT-Book" font-size="67.2" fill="#D93D2A" transform="matrix(1.00, 0.00, -0.00, -1.00, 48.0, 634.0)">D</text><text xml:space="preserve" font-family="BodoniSvtyTwoITCTT-Book" font-size="67.2" fill="#D93D2A" transform="matrix(1.00, 0.00, -0.00, -1.00, 96.1, 634.0)">e</text><text xml:space="preserve" font-family="BodoniSvtyTwoITCTT-Book" font-size="67.2" fill="#D93D2A" transform="matrix(1.00, 0.00, -0.00, -1.00, 125.0, 634.0)">v</text><text xml:space="preserve" font-family="BodoniSvtyTwoITCTT-Book" font-size="67.2" fill="#D93D2A" transform="matrix(1.00, 0.00, -0.00, -1.00, 150.8, 634.0)">O</text><text xml:space="preserve" font-family="BodoniSvtyTwoITCTT-Book" font-size="67.2" fill="#D93D2A" transform="matrix(1.00, 0.00, -0.00, -1.00, 199.2, 634.0)">p</text><text xml:space="preserve" font-family="BodoniSvtyTwoITCTT-Book" font-size="67.2" fill="#D93D2A" transform="matrix(1.00, 0.00, -0.00, -1.00, 232.1, 634.0)">s</text><text xml:space="preserve" font-family="BodoniSvtyTwoITCTT-Book" font-size="67.2" fill="#D93D2A" transform="matrix(1.00, 0.00, -0.00, -1.00, 256.4, 634.0)"> </text><text xml:space="preserve" font-family="BodoniSvtyTwoITCTT-Book" font-size="67.2" fill="#D93D2A" transform="matrix(1.00, 0.00, -0.00, -1.00, 268.9, 634.0)">-</text><text xml:space="preserve" font-family="BodoniSvtyTwoITCTT-Book" font-size="67.2" fill="#D93D2A" transform="matrix(1.00, 0.00, -0.00, -1.00, 289.4, 634.0)"> </text><text xml:space="preserve" font-family="BodoniSvtyTwoITCTT-Book" font-size="67.2" fill="#D93D2A" transform="matrix(1.00, 0.00, -0.00, -1.00, 301.9, 634.0)">j</text><text xml:space="preserve" font-family="BodoniSvtyTwoITCTT-Book" font-size="67.2" fill="#D93D2A" transform="matrix(1.00, 0.00, -0.00, -1.00, 317.8, 634.0)">e</text><text xml:space="preserve" font-family="BodoniSvtyTwoITCTT-Book" font-size="67.2" fill="#D93D2A" transform="matrix(1.00, 0.00, -0.00, -1.00, 346.7, 634.0)">d</text><text xml:space="preserve" font-family="BodoniSvtyTwoITCTT-Book" font-size="67.2" fill="#D93D2A" transform="matrix(1.00, 0.00, -0.00, -1.00, 378.7, 634.0)">n</text><text xml:space="preserve" font-family="BodoniSvtyTwoITCTT-Book" font-size="67.2" fill="#D93D2A" transform="matrix(1.00, 0.00, -0.00, -1.00, 411.6, 634.0)">o</text><text xml:space="preserve" font-family="BodoniSvtyTwoITCTT-Book" font-size="67.2" fill="#D93D2A" transform="matrix(1.00, 0.00, -0.00, -1.00, 443.8, 634.0)"> </text><text xml:space="preserve" font-family="BodoniSvtyTwoITCTT-Book" font-size="67.2" fill="#D93D2A" transform="matrix(1.00, 0.00, -0.00, -1.00, 456.3, 634.0)">s</text><text xml:space="preserve" font-family="BodoniSvtyTwoITCTT-Book" font-size="67.2" fill="#D93D2A" transform="matrix(1.00, 0.00, -0.00, -1.00, 480.6, 634.0)">ł</text><text xml:space="preserve" font-family="BodoniSvtyTwoITCTT-Book" font-size="67.2" fill="#D93D2A" transform="matrix(1.00, 0.00, -0.00, -1.00, 496.4, 634.0)">o</text><text xml:space="preserve" font-family="BodoniSvtyTwoITCTT-Book" font-size="67.2" fill="#D93D2A" transform="matrix(1.00, 0.00, -0.00, -1.00, 528.7, 634.0)">w</text><text xml:space="preserve" font-family="BodoniSvtyTwoITCTT-Book" font-size="67.2" fill="#D93D2A" transform="matrix(1.00, 0.00, -0.00, -1.00, 568.9, 634.0)">o</text><text xml:space="preserve" font-family="BodoniSvtyTwoITCTT-Book" font-size="67.2" fill="#D93D2A" transform="matrix(1.00, 0.00, -0.00, -1.00, 601.2, 634.0)">,</text><text xml:space="preserve" font-family="BodoniSvtyTwoITCTT-Book" font-size="67.2" fill="#D93D2A" transform="matrix(1.00, 0.00, -0.00, -1.00, 618.6, 634.0)"> </text><text xml:space="preserve" font-family="BodoniSvtyTwoITCTT-Book" font-size="67.2" fill="#D93D2A" transform="matrix(1.00, 0.00, -0.00, -1.00, 631.1, 634.0)">w</text><text xml:space="preserve" font-family="BodoniSvtyTwoITCTT-Book" font-size="67.2" fill="#D93D2A" transform="matrix(1.00, 0.00, -0.00, -1.00, 671.3, 634.0)">i</text><text xml:space="preserve" font-family="BodoniSvtyTwoITCTT-Book" font-size="67.2" fill="#D93D2A" transform="matrix(1.00, 0.00, -0.00, -1.00, 688.2, 634.0)">e</text><text xml:space="preserve" font-family="BodoniSvtyTwoITCTT-Book" font-size="67.2" fill="#D93D2A" transform="matrix(1.00, 0.00, -0.00, -1.00, 717.1, 634.0)">l</text><text xml:space="preserve" font-family="BodoniSvtyTwoITCTT-Book" font-size="67.2" fill="#D93D2A" transform="matrix(1.00, 0.00, -0.00, -1.00, 732.9, 634.0)">e</text><text xml:space="preserve" font-family="BodoniSvtyTwoITCTT-Book" font-size="67.2" fill="#D93D2A" transform="matrix(1.00, 0.00, -0.00, -1.00, 761.8, 634.0)"> </text><text xml:space="preserve" font-family="BodoniSvtyTwoITCTT-Book" font-size="67.2" fill="#D93D2A" transform="matrix(1.00, 0.00, -0.00, -1.00, 774.3, 634.0)">z</text><text xml:space="preserve" font-family="BodoniSvtyTwoITCTT-Book" font-size="67.2" fill="#D93D2A" transform="matrix(1.00, 0.00, -0.00, -1.00, 800.8, 634.0)">n</text><text xml:space="preserve" font-family="BodoniSvtyTwoITCTT-Book" font-size="67.2" fill="#D93D2A" transform="matrix(1.00, 0.00, -0.00, -1.00, 833.7, 634.0)">a</text><text xml:space="preserve" font-family="BodoniSvtyTwoITCTT-Book" font-size="67.2" fill="#D93D2A" transform="matrix(1.00, 0.00, -0.00, -1.00, 860.4, 634.0)">c</text><text xml:space="preserve" font-family="BodoniSvtyTwoITCTT-Book" font-size="67.2" fill="#D93D2A" transform="matrix(1.00, 0.00, -0.00, -1.00, 887.9, 634.0)">z</text><text xml:space="preserve" font-family="BodoniSvtyTwoITCTT-Book" font-size="67.2" fill="#D93D2A" transform="matrix(1.00, 0.00, -0.00, -1.00, 914.4, 634.0)">e</text><text xml:space="preserve" font-family="BodoniSvtyTwoITCTT-Book" font-size="67.2" fill="#D93D2A" transform="matrix(1.00, 0.00, -0.00, -1.00, 943.3, 634.0)">ń</text><text xml:space="preserve" font-family="Palatino-Roman" font-size="36.0" fill="#414040" transform="matrix(1.00, 0.00, -0.00, -1.00, 44.0, 519.0)">1</text><text xml:space="preserve" font-family="Palatino-Roman" font-size="36.0" fill="#414040" transform="matrix(1.00, 0.00, -0.00, -1.00, 62.0, 519.0)">.</text><text xml:space="preserve" font-family="Palatino-Roman" font-size="36.0" fill="#414040" transform="matrix(1.00, 0.00, -0.00, -1.00, 96.0, 519.0)">D</text><text xml:space="preserve" font-family="Palatino-Roman" font-size="36.0" fill="#414040" transform="matrix(1.00, 0.00, -0.00, -1.00, 123.9, 519.0)">e</text><text xml:space="preserve" font-family="Palatino-Roman" font-size="36.0" fill="#414040" transform="matrix(1.00, 0.00, -0.00, -1.00, 141.1, 519.0)">v</text><text xml:space="preserve" font-family="Palatino-Roman" font-size="36.0" fill="#414040" transform="matrix(1.00, 0.00, -0.00, -1.00, 161.4, 519.0)">O</text><text xml:space="preserve" font-family="Palatino-Roman" font-size="36.0" fill="#414040" transform="matrix(1.00, 0.00, -0.00, -1.00, 189.7, 519.0)">p</text><text xml:space="preserve" font-family="Palatino-Roman" font-size="36.0" fill="#414040" transform="matrix(1.00, 0.00, -0.00, -1.00, 211.4, 519.0)">s</text><text xml:space="preserve" font-family="Palatino-Roman" font-size="36.0" fill="#414040" transform="matrix(1.00, 0.00, -0.00, -1.00, 226.6, 519.0)"> </text><text xml:space="preserve" font-family="Palatino-Roman" font-size="36.0" fill="#414040" transform="matrix(1.00, 0.00, -0.00, -1.00, 235.6, 519.0)">j</text><text xml:space="preserve" font-family="Palatino-Roman" font-size="36.0" fill="#414040" transform="matrix(1.00, 0.00, -0.00, -1.00, 244.0, 519.0)">a</text><text xml:space="preserve" font-family="Palatino-Roman" font-size="36.0" fill="#414040" transform="matrix(1.00, 0.00, -0.00, -1.00, 262.0, 519.0)">k</text><text xml:space="preserve" font-family="Palatino-Roman" font-size="36.0" fill="#414040" transform="matrix(1.00, 0.00, -0.00, -1.00, 282.1, 519.0)">o</text><text xml:space="preserve" font-family="Palatino-Roman" font-size="36.0" fill="#414040" transform="matrix(1.00, 0.00, -0.00, -1.00, 301.7, 519.0)"> </text><text xml:space="preserve" font-family="Palatino-Roman" font-size="36.0" fill="#414040" transform="matrix(1.00, 0.00, -0.00, -1.00, 310.7, 519.0)">z</text><text xml:space="preserve" font-family="Palatino-Roman" font-size="36.0" fill="#414040" transform="matrix(1.00, 0.00, -0.00, -1.00, 328.7, 519.0)">e</text><text xml:space="preserve" font-family="Palatino-Roman" font-size="36.0" fill="#414040" transform="matrix(1.00, 0.00, -0.00, -1.00, 346.0, 519.0)">s</text><text xml:space="preserve" font-family="Palatino-Roman" font-size="36.0" fill="#414040" transform="matrix(1.00, 0.00, -0.00, -1.00, 361.2, 519.0)">t</text><text xml:space="preserve" font-family="Palatino-Roman" font-size="36.0" fill="#414040" transform="matrix(1.00, 0.00, -0.00, -1.00, 373.0, 519.0)">a</text><text xml:space="preserve" font-family="Palatino-Roman" font-size="36.0" fill="#414040" transform="matrix(1.00, 0.00, -0.00, -1.00, 391.0, 519.0)">w</text><text xml:space="preserve" font-family="Palatino-Roman" font-size="36.0" fill="#414040" transform="matrix(1.00, 0.00, -0.00, -1.00, 421.0, 519.0)"> </text><text xml:space="preserve" font-family="Palatino-Roman" font-size="36.0" fill="#414040" transform="matrix(1.00, 0.00, -0.00, -1.00, 430.0, 519.0)">n</text><text xml:space="preserve" font-family="Palatino-Roman" font-size="36.0" fill="#414040" transform="matrix(1.00, 0.00, -0.00, -1.00, 450.9, 519.0)">a</text><text xml:space="preserve" font-family="Palatino-Roman" font-size="36.0" fill="#414040" transform="matrix(1.00, 0.00, -0.00, -1.00, 468.9, 519.0)">r</text><text xml:space="preserve" font-family="Palatino-Roman" font-size="36.0" fill="#414040" transform="matrix(1.00, 0.00, -0.00, -1.00, 483.2, 519.0)">z</text><text xml:space="preserve" font-family="Palatino-Roman" font-size="36.0" fill="#414040" transform="matrix(1.00, 0.00, -0.00, -1.00, 501.2, 519.0)">ę</text><text xml:space="preserve" font-family="Palatino-Roman" font-size="36.0" fill="#414040" transform="matrix(1.00, 0.00, -0.00, -1.00, 518.4, 519.0)">d</text><text xml:space="preserve" font-family="Palatino-Roman" font-size="36.0" fill="#414040" transform="matrix(1.00, 0.00, -0.00, -1.00, 540.4, 519.0)">z</text><text xml:space="preserve" font-family="Palatino-Roman" font-size="36.0" fill="#414040" transform="matrix(1.00, 0.00, -0.00, -1.00, 558.4, 519.0)">i</text><text xml:space="preserve" font-family="Palatino-Roman" font-size="36.0" fill="#414040" transform="matrix(1.00, 0.00, -0.00, -1.00, 568.9, 519.0)"> </text><text xml:space="preserve" font-family="Palatino-Roman" font-size="36.0" fill="#414040" transform="matrix(1.00, 0.00, -0.00, -1.00, 577.9, 519.0)">d</text><text xml:space="preserve" font-family="Palatino-Roman" font-size="36.0" fill="#414040" transform="matrix(1.00, 0.00, -0.00, -1.00, 599.9, 519.0)">o</text><text xml:space="preserve" font-family="Palatino-Roman" font-size="36.0" fill="#414040" transform="matrix(1.00, 0.00, -0.00, -1.00, 619.5, 519.0)"> </text><text xml:space="preserve" font-family="Palatino-Roman" font-size="36.0" fill="#414040" transform="matrix(1.00, 0.00, -0.00, -1.00, 628.5, 519.0)">a</text><text xml:space="preserve" font-family="Palatino-Roman" font-size="36.0" fill="#414040" transform="matrix(1.00, 0.00, -0.00, -1.00, 646.5, 519.0)">u</text><text xml:space="preserve" font-family="Palatino-Roman" font-size="36.0" fill="#414040" transform="matrix(1.00, 0.00, -0.00, -1.00, 668.2, 519.0)">t</text><text xml:space="preserve" font-family="Palatino-Roman" font-size="36.0" fill="#414040" transform="matrix(1.00, 0.00, -0.00, -1.00, 680.0, 519.0)">o</text><text xml:space="preserve" font-family="Palatino-Roman" font-size="36.0" fill="#414040" transform="matrix(1.00, 0.00, -0.00, -1.00, 699.6, 519.0)">m</text><text xml:space="preserve" font-family="Palatino-Roman" font-size="36.0" fill="#414040" transform="matrix(1.00, 0.00, -0.00, -1.00, 731.4, 519.0)">a</text><text xml:space="preserve" font-family="Palatino-Roman" font-size="36.0" fill="#414040" transform="matrix(1.00, 0.00, -0.00, -1.00, 749.4, 519.0)">t</text><text xml:space="preserve" font-family="Palatino-Roman" font-size="36.0" fill="#414040" transform="matrix(1.00, 0.00, -0.00, -1.00, 761.1, 519.0)">y</text><text xml:space="preserve" font-family="Palatino-Roman" font-size="36.0" fill="#414040" transform="matrix(1.00, 0.00, -0.00, -1.00, 781.2, 519.0)">z</text><text xml:space="preserve" font-family="Palatino-Roman" font-size="36.0" fill="#414040" transform="matrix(1.00, 0.00, -0.00, -1.00, 799.2, 519.0)">a</text><text xml:space="preserve" font-family="Palatino-Roman" font-size="36.0" fill="#414040" transform="matrix(1.00, 0.00, -0.00, -1.00, 817.2, 519.0)">c</text><text xml:space="preserve" font-family="Palatino-Roman" font-size="36.0" fill="#414040" transform="matrix(1.00, 0.00, -0.00, -1.00, 833.1, 519.0)">j</text><text xml:space="preserve" font-family="Palatino-Roman" font-size="36.0" fill="#414040" transform="matrix(1.00, 0.00, -0.00, -1.00, 841.6, 519.0)">i</text><text xml:space="preserve" font-family="Palatino-Roman" font-size="36.0" fill="#414040" transform="matrix(1.00, 0.00, -0.00, -1.00, 852.0, 519.0)"> </text><text xml:space="preserve" font-family="Palatino-Roman" font-size="36.0" fill="#414040" transform="matrix(1.00, 0.00, -0.00, -1.00, 861.0, 519.0)">z</text><text xml:space="preserve" font-family="Palatino-Roman" font-size="36.0" fill="#414040" transform="matrix(1.00, 0.00, -0.00, -1.00, 879.0, 519.0)">a</text><text xml:space="preserve" font-family="Palatino-Roman" font-size="36.0" fill="#414040" transform="matrix(1.00, 0.00, -0.00, -1.00, 897.0, 519.0)">d</text><text xml:space="preserve" font-family="Palatino-Roman" font-size="36.0" fill="#414040" transform="matrix(1.00, 0.00, -0.00, -1.00, 919.0, 519.0)">a</text><text xml:space="preserve" font-family="Palatino-Roman" font-size="36.0" fill="#414040" transform="matrix(1.00, 0.00, -0.00, -1.00, 937.0, 519.0)">ń</text><text xml:space="preserve" font-family="Palatino-Roman" font-size="36.0" fill="#414040" transform="matrix(1.00, 0.00, -0.00, -1.00, 44.0, 447.0)">2</text><text xml:space="preserve" font-family="Palatino-Roman" font-size="36.0" fill="#414040" transform="matrix(1.00, 0.00, -0.00, -1.00, 62.0, 447.0)">.</text><text xml:space="preserve" font-family="Palatino-Roman" font-size="36.0" fill="#414040" transform="matrix(1.00, 0.00, -0.00, -1.00, 96.0, 447.0)">D</text><text xml:space="preserve" font-family="Palatino-Roman" font-size="36.0" fill="#414040" transform="matrix(1.00, 0.00, -0.00, -1.00, 123.9, 447.0)">e</text><text xml:space="preserve" font-family="Palatino-Roman" font-size="36.0" fill="#414040" transform="matrix(1.00, 0.00, -0.00, -1.00, 141.1, 447.0)">v</text><text xml:space="preserve" font-family="Palatino-Roman" font-size="36.0" fill="#414040" transform="matrix(1.00, 0.00, -0.00, -1.00, 161.4, 447.0)">O</text><text xml:space="preserve" font-family="Palatino-Roman" font-size="36.0" fill="#414040" transform="matrix(1.00, 0.00, -0.00, -1.00, 189.7, 447.0)">p</text><text xml:space="preserve" font-family="Palatino-Roman" font-size="36.0" fill="#414040" transform="matrix(1.00, 0.00, -0.00, -1.00, 211.4, 447.0)">s</text><text xml:space="preserve" font-family="Palatino-Roman" font-size="36.0" fill="#414040" transform="matrix(1.00, 0.00, -0.00, -1.00, 226.6, 447.0)"> </text><text xml:space="preserve" font-family="Palatino-Roman" font-size="36.0" fill="#414040" transform="matrix(1.00, 0.00, -0.00, -1.00, 235.6, 447.0)">j</text><text xml:space="preserve" font-family="Palatino-Roman" font-size="36.0" fill="#414040" transform="matrix(1.00, 0.00, -0.00, -1.00, 244.0, 447.0)">a</text><text xml:space="preserve" font-family="Palatino-Roman" font-size="36.0" fill="#414040" transform="matrix(1.00, 0.00, -0.00, -1.00, 262.0, 447.0)">k</text><text xml:space="preserve" font-family="Palatino-Roman" font-size="36.0" fill="#414040" transform="matrix(1.00, 0.00, -0.00, -1.00, 282.1, 447.0)">o</text><text xml:space="preserve" font-family="Palatino-Roman" font-size="36.0" fill="#414040" transform="matrix(1.00, 0.00, -0.00, -1.00, 301.7, 447.0)"> </text><text xml:space="preserve" font-family="Palatino-Roman" font-size="36.0" fill="#414040" transform="matrix(1.00, 0.00, -0.00, -1.00, 310.7, 447.0)">i</text><text xml:space="preserve" font-family="Palatino-Roman" font-size="36.0" fill="#414040" transform="matrix(1.00, 0.00, -0.00, -1.00, 321.2, 447.0)">n</text><text xml:space="preserve" font-family="Palatino-Roman" font-size="36.0" fill="#414040" transform="matrix(1.00, 0.00, -0.00, -1.00, 342.2, 447.0)">ż</text><text xml:space="preserve" font-family="Palatino-Roman" font-size="36.0" fill="#414040" transform="matrix(1.00, 0.00, -0.00, -1.00, 360.2, 447.0)">y</text><text xml:space="preserve" font-family="Palatino-Roman" font-size="36.0" fill="#414040" transform="matrix(1.00, 0.00, -0.00, -1.00, 380.2, 447.0)">n</text><text xml:space="preserve" font-family="Palatino-Roman" font-size="36.0" fill="#414040" transform="matrix(1.00, 0.00, -0.00, -1.00, 401.1, 447.0)">i</text><text xml:space="preserve" font-family="Palatino-Roman" font-size="36.0" fill="#414040" transform="matrix(1.00, 0.00, -0.00, -1.00, 411.6, 447.0)">e</text><text xml:space="preserve" font-family="Palatino-Roman" font-size="36.0" fill="#414040" transform="matrix(1.00, 0.00, -0.00, -1.00, 428.9, 447.0)">r</text><text xml:space="preserve" font-family="Palatino-Roman" font-size="36.0" fill="#414040" transform="matrix(1.00, 0.00, -0.00, -1.00, 44.0, 375.0)">3</text><text xml:space="preserve" font-family="Palatino-Roman" font-size="36.0" fill="#414040" transform="matrix(1.00, 0.00, -0.00, -1.00, 62.0, 375.0)">.</text><text xml:space="preserve" font-family="Palatino-Roman" font-size="36.0" fill="#414040" transform="matrix(1.00, 0.00, -0.00, -1.00, 96.0, 375.0)">D</text><text xml:space="preserve" font-family="Palatino-Roman" font-size="36.0" fill="#414040" transform="matrix(1.00, 0.00, -0.00, -1.00, 123.9, 375.0)">e</text><text xml:space="preserve" font-family="Palatino-Roman" font-size="36.0" fill="#414040" transform="matrix(1.00, 0.00, -0.00, -1.00, 141.1, 375.0)">v</text><text xml:space="preserve" font-family="Palatino-Roman" font-size="36.0" fill="#414040" transform="matrix(1.00, 0.00, -0.00, -1.00, 161.4, 375.0)">O</text><text xml:space="preserve" font-family="Palatino-Roman" font-size="36.0" fill="#414040" transform="matrix(1.00, 0.00, -0.00, -1.00, 189.7, 375.0)">p</text><text xml:space="preserve" font-family="Palatino-Roman" font-size="36.0" fill="#414040" transform="matrix(1.00, 0.00, -0.00, -1.00, 211.4, 375.0)">s</text><text xml:space="preserve" font-family="Palatino-Roman" font-size="36.0" fill="#414040" transform="matrix(1.00, 0.00, -0.00, -1.00, 226.6, 375.0)"> </text><text xml:space="preserve" font-family="Palatino-Roman" font-size="36.0" fill="#414040" transform="matrix(1.00, 0.00, -0.00, -1.00, 235.6, 375.0)">j</text><text xml:space="preserve" font-family="Palatino-Roman" font-size="36.0" fill="#414040" transform="matrix(1.00, 0.00, -0.00, -1.00, 244.0, 375.0)">a</text><text xml:space="preserve" font-family="Palatino-Roman" font-size="36.0" fill="#414040" transform="matrix(1.00, 0.00, -0.00, -1.00, 262.0, 375.0)">k</text><text xml:space="preserve" font-family="Palatino-Roman" font-size="36.0" fill="#414040" transform="matrix(1.00, 0.00, -0.00, -1.00, 282.1, 375.0)">o</text><text xml:space="preserve" font-family="Palatino-Roman" font-size="36.0" fill="#414040" transform="matrix(1.00, 0.00, -0.00, -1.00, 301.7, 375.0)"> </text><text xml:space="preserve" font-family="Palatino-Roman" font-size="36.0" fill="#414040" transform="matrix(1.00, 0.00, -0.00, -1.00, 310.7, 375.0)">z</text><text xml:space="preserve" font-family="Palatino-Roman" font-size="36.0" fill="#414040" transform="matrix(1.00, 0.00, -0.00, -1.00, 328.7, 375.0)">e</text><text xml:space="preserve" font-family="Palatino-Roman" font-size="36.0" fill="#414040" transform="matrix(1.00, 0.00, -0.00, -1.00, 346.0, 375.0)">s</text><text xml:space="preserve" font-family="Palatino-Roman" font-size="36.0" fill="#414040" transform="matrix(1.00, 0.00, -0.00, -1.00, 361.2, 375.0)">p</text><text xml:space="preserve" font-family="Palatino-Roman" font-size="36.0" fill="#414040" transform="matrix(1.00, 0.00, -0.00, -1.00, 382.9, 375.0)">ó</text><text xml:space="preserve" font-family="Palatino-Roman" font-size="36.0" fill="#414040" transform="matrix(1.00, 0.00, -0.00, -1.00, 402.5, 375.0)">ł</text><text xml:space="preserve" font-family="Palatino-Roman" font-size="36.0" fill="#414040" transform="matrix(1.00, 0.00, -0.00, -1.00, 413.0, 375.0)"> </text><text xml:space="preserve" font-family="Palatino-Roman" font-size="36.0" fill="#414040" transform="matrix(1.00, 0.00, -0.00, -1.00, 422.0, 375.0)">s</text><text xml:space="preserve" font-family="Palatino-Roman" font-size="36.0" fill="#414040" transform="matrix(1.00, 0.00, -0.00, -1.00, 437.2, 375.0)">z</text><text xml:space="preserve" font-family="Palatino-Roman" font-size="36.0" fill="#414040" transform="matrix(1.00, 0.00, -0.00, -1.00, 455.2, 375.0)">e</text><text xml:space="preserve" font-family="Palatino-Roman" font-size="36.0" fill="#414040" transform="matrix(1.00, 0.00, -0.00, -1.00, 472.5, 375.0)">r</text><text xml:space="preserve" font-family="Palatino-Roman" font-size="36.0" fill="#414040" transform="matrix(1.00, 0.00, -0.00, -1.00, 486.1, 375.0)">o</text><text xml:space="preserve" font-family="Palatino-Roman" font-size="36.0" fill="#414040" transform="matrix(1.00, 0.00, -0.00, -1.00, 505.7, 375.0)">k</text><text xml:space="preserve" font-family="Palatino-Roman" font-size="36.0" fill="#414040" transform="matrix(1.00, 0.00, -0.00, -1.00, 525.7, 375.0)">i</text><text xml:space="preserve" font-family="Palatino-Roman" font-size="36.0" fill="#414040" transform="matrix(1.00, 0.00, -0.00, -1.00, 536.2, 375.0)">e</text><text xml:space="preserve" font-family="Palatino-Roman" font-size="36.0" fill="#414040" transform="matrix(1.00, 0.00, -0.00, -1.00, 553.5, 375.0)">g</text><text xml:space="preserve" font-family="Palatino-Roman" font-size="36.0" fill="#414040" transform="matrix(1.00, 0.00, -0.00, -1.00, 573.5, 375.0)">o</text><text xml:space="preserve" font-family="Palatino-Roman" font-size="36.0" fill="#414040" transform="matrix(1.00, 0.00, -0.00, -1.00, 593.1, 375.0)"> </text><text xml:space="preserve" font-family="Palatino-Roman" font-size="36.0" fill="#414040" transform="matrix(1.00, 0.00, -0.00, -1.00, 602.1, 375.0)">p</text><text xml:space="preserve" font-family="Palatino-Roman" font-size="36.0" fill="#414040" transform="matrix(1.00, 0.00, -0.00, -1.00, 623.8, 375.0)">r</text><text xml:space="preserve" font-family="Palatino-Roman" font-size="36.0" fill="#414040" transform="matrix(1.00, 0.00, -0.00, -1.00, 638.0, 375.0)">z</text><text xml:space="preserve" font-family="Palatino-Roman" font-size="36.0" fill="#414040" transform="matrix(1.00, 0.00, -0.00, -1.00, 656.0, 375.0)">e</text><text xml:space="preserve" font-family="Palatino-Roman" font-size="36.0" fill="#414040" transform="matrix(1.00, 0.00, -0.00, -1.00, 673.3, 375.0)">k</text><text xml:space="preserve" font-family="Palatino-Roman" font-size="36.0" fill="#414040" transform="matrix(1.00, 0.00, -0.00, -1.00, 693.3, 375.0)">r</text><text xml:space="preserve" font-family="Palatino-Roman" font-size="36.0" fill="#414040" transform="matrix(1.00, 0.00, -0.00, -1.00, 706.9, 375.0)">o</text><text xml:space="preserve" font-family="Palatino-Roman" font-size="36.0" fill="#414040" transform="matrix(1.00, 0.00, -0.00, -1.00, 726.5, 375.0)">j</text><text xml:space="preserve" font-family="Palatino-Roman" font-size="36.0" fill="#414040" transform="matrix(1.00, 0.00, -0.00, -1.00, 734.9, 375.0)">u</text><text xml:space="preserve" font-family="Palatino-Roman" font-size="36.0" fill="#414040" transform="matrix(1.00, 0.00, -0.00, -1.00, 756.6, 375.0)"> </text><text xml:space="preserve" font-family="Palatino-Roman" font-size="36.0" fill="#414040" transform="matrix(1.00, 0.00, -0.00, -1.00, 765.6, 375.0)">k</text><text xml:space="preserve" font-family="Palatino-Roman" font-size="36.0" fill="#414040" transform="matrix(1.00, 0.00, -0.00, -1.00, 785.7, 375.0)">o</text><text xml:space="preserve" font-family="Palatino-Roman" font-size="36.0" fill="#414040" transform="matrix(1.00, 0.00, -0.00, -1.00, 805.3, 375.0)">m</text><text xml:space="preserve" font-family="Palatino-Roman" font-size="36.0" fill="#414040" transform="matrix(1.00, 0.00, -0.00, -1.00, 837.1, 375.0)">p</text><text xml:space="preserve" font-family="Palatino-Roman" font-size="36.0" fill="#414040" transform="matrix(1.00, 0.00, -0.00, -1.00, 858.7, 375.0)">e</text><text xml:space="preserve" font-family="Palatino-Roman" font-size="36.0" fill="#414040" transform="matrix(1.00, 0.00, -0.00, -1.00, 876.0, 375.0)">t</text><text xml:space="preserve" font-family="Palatino-Roman" font-size="36.0" fill="#414040" transform="matrix(1.00, 0.00, -0.00, -1.00, 887.7, 375.0)">e</text><text xml:space="preserve" font-family="Palatino-Roman" font-size="36.0" fill="#414040" transform="matrix(1.00, 0.00, -0.00, -1.00, 905.0, 375.0)">n</text><text xml:space="preserve" font-family="Palatino-Roman" font-size="36.0" fill="#414040" transform="matrix(1.00, 0.00, -0.00, -1.00, 925.9, 375.0)">c</text><text xml:space="preserve" font-family="Palatino-Roman" font-size="36.0" fill="#414040" transform="matrix(1.00, 0.00, -0.00, -1.00, 941.9, 375.0)">j</text><text xml:space="preserve" font-family="Palatino-Roman" font-size="36.0" fill="#414040" transform="matrix(1.00, 0.00, -0.00, -1.00, 950.3, 375.0)">i</text><image xlink:href="6268A03F3746D65B4583AC1C5C9BEBD4.jpeg" width="920.00" height="316.00" transform="matrix(1.00, 0.00, -0.00, -1.00, 52.0, 363.0)"></image><text xml:space="preserve" font-family="Palatino-Roman" font-size="16.0" fill="#414040" transform="matrix(1.00, 0.00, -0.00, -1.00, 864.0, 12.0)">ź</text><text xml:space="preserve" font-family="Palatino-Roman" font-size="16.0" fill="#414040" transform="matrix(1.00, 0.00, -0.00, -1.00, 872.0, 12.0)">r</text><text xml:space="preserve" font-family="Palatino-Roman" font-size="16.0" fill="#414040" transform="matrix(1.00, 0.00, -0.00, -1.00, 878.3, 12.0)">ó</text><text xml:space="preserve" font-family="Palatino-Roman" font-size="16.0" fill="#414040" transform="matrix(1.00, 0.00, -0.00, -1.00, 887.1, 12.0)">d</text><text xml:space="preserve" font-family="Palatino-Roman" font-size="16.0" fill="#414040" transform="matrix(1.00, 0.00, -0.00, -1.00, 896.8, 12.0)">ł</text><text xml:space="preserve" font-family="Palatino-Roman" font-size="16.0" fill="#414040" transform="matrix(1.00, 0.00, -0.00, -1.00, 901.5, 12.0)">o</text><text xml:space="preserve" font-family="Palatino-Roman" font-size="16.0" fill="#414040" transform="matrix(1.00, 0.00, -0.00, -1.00, 910.2, 12.0)">:</text><text xml:space="preserve" font-family="Palatino-Roman" font-size="16.0" fill="#414040" transform="matrix(1.00, 0.00, -0.00, -1.00, 914.2, 12.0)"> </text><text xml:space="preserve" font-family="Palatino-Roman" font-size="16.0" fill="#414040" transform="matrix(1.00, 0.00, -0.00, -1.00, 918.2, 12.0)">o</text><text xml:space="preserve" font-family="Palatino-Roman" font-size="16.0" fill="#414040" transform="matrix(1.00, 0.00, -0.00, -1.00, 926.9, 12.0)">p</text><text xml:space="preserve" font-family="Palatino-Roman" font-size="16.0" fill="#414040" transform="matrix(1.00, 0.00, -0.00, -1.00, 936.6, 12.0)">r</text><text xml:space="preserve" font-family="Palatino-Roman" font-size="16.0" fill="#414040" transform="matrix(1.00, 0.00, -0.00, -1.00, 942.9, 12.0)">a</text><text xml:space="preserve" font-family="Palatino-Roman" font-size="16.0" fill="#414040" transform="matrix(1.00, 0.00, -0.00, -1.00, 950.9, 12.0)">c</text><text xml:space="preserve" font-family="Palatino-Roman" font-size="16.0" fill="#414040" transform="matrix(1.00, 0.00, -0.00, -1.00, 958.0, 12.0)">.</text><text xml:space="preserve" font-family="Palatino-Roman" font-size="16.0" fill="#414040" transform="matrix(1.00, 0.00, -0.00, -1.00, 962.0, 12.0)"> </text><text xml:space="preserve" font-family="Palatino-Roman" font-size="16.0" fill="#414040" transform="matrix(1.00, 0.00, -0.00, -1.00, 966.0, 12.0)">w</text><text xml:space="preserve" font-family="Palatino-Roman" font-size="16.0" fill="#414040" transform="matrix(1.00, 0.00, -0.00, -1.00, 979.3, 12.0)">ł</text><text xml:space="preserve" font-family="Palatino-Roman" font-size="16.0" fill="#414040" transform="matrix(1.00, 0.00, -0.00, -1.00, 984.0, 12.0)">a</text><text xml:space="preserve" font-family="Palatino-Roman" font-size="16.0" fill="#414040" transform="matrix(1.00, 0.00, -0.00, -1.00, 992.0, 12.0)">s</text><text xml:space="preserve" font-family="Palatino-Roman" font-size="16.0" fill="#414040" transform="matrix(1.00, 0.00, -0.00, -1.00, 998.8, 12.0)">n</text><text xml:space="preserve" font-family="Palatino-Roman" font-size="16.0" fill="#414040" transform="matrix(1.00, 0.00, -0.00, -1.00, 1008.1, 12.0)">e</text></g></svg>