<?xml version="1.0" encoding="UTF-8" standalone="no"?><svg xmlns="http://www.w3.org/2000/svg" xmlns:xlink="http://www.w3.org/1999/xlink" clip-rule="evenodd" stroke-miterlimit="4.00" viewBox="0 0 1024 768"><desc>SVG generated by Keynote</desc><defs></defs><g transform="matrix(1.00, 0.00, -0.00, -1.00, 0.0, 768.0)"><g><clipPath id="clip-62"><path d="M 0.0 768.0 L 1024.0 768.0 L 1024.0 0.0 L 0.0 0.0 Z M 0.0 768.0 "></path></clipPath><g clip-path="url(#clip-62)"><image xlink:href="../../7271B8B7-3FC1-4276-9B71-E31342A69E14/assets/50163466EC2834942505D00A94D158E6.jpeg" width="1024.00" height="768.00" transform="matrix(1.00, 0.00, -0.00, -1.00, 0.0, 768.0)"></image></g></g><g opacity="0.30"><g><clipPath id="clip-63"><path d="M 39.0 595.0 L 986.0 595.0 L 986.0 599.0 L 39.0 599.0 Z M 39.0 595.0 "></path></clipPath><g clip-path="url(#clip-63)"><path d="M 0.0 0.0 L 944.7 0.0 " fill="none" stroke="#434343" stroke-width="1.00" transform="matrix(1.00, 0.00, 0.00, -1.00, 40.0, 597.0)"></path></g></g></g><g opacity="0.30"><g><clipPath id="clip-64"><path d="M 39.0 716.0 L 986.0 716.0 L 986.0 720.0 L 39.0 720.0 Z M 39.0 716.0 "></path></clipPath><g clip-path="url(#clip-64)"><path d="M 0.0 0.0 L 944.7 0.0 " fill="none" stroke="#434343" stroke-width="1.00" transform="matrix(1.00, 0.00, 0.00, -1.00, 40.0, 718.0)"></path></g></g></g><g><clipPath id="clip-65"><path d="M 119.0 578.0 L 905.0 578.0 L 905.0 28.0 L 119.0 28.0 Z M 118.6 578.2 "></path></clipPath><g clip-path="url(#clip-65)"><image xlink:href="8C8F027314FF176DDAB37A83EF54CD36.jpeg" width="804.00" height="550.00" transform="matrix(1.00, 0.00, -0.00, -1.00, 110.0, 578.0)"></image></g></g><text xml:space="preserve" font-family="BodoniSvtyTwoITCTT-Book" font-size="70.0" fill="#D93D2A" transform="matrix(1.00, 0.00, -0.00, -1.00, 241.0, 633.0)">M</text><text xml:space="preserve" font-family="BodoniSvtyTwoITCTT-Book" font-size="70.0" fill="#D93D2A" transform="matrix(1.00, 0.00, -0.00, -1.00, 293.9, 633.0)">o</text><text xml:space="preserve" font-family="BodoniSvtyTwoITCTT-Book" font-size="70.0" fill="#D93D2A" transform="matrix(1.00, 0.00, -0.00, -1.00, 327.5, 633.0)">ż</text><text xml:space="preserve" font-family="BodoniSvtyTwoITCTT-Book" font-size="70.0" fill="#D93D2A" transform="matrix(1.00, 0.00, -0.00, -1.00, 355.1, 633.0)">l</text><text xml:space="preserve" font-family="BodoniSvtyTwoITCTT-Book" font-size="70.0" fill="#D93D2A" transform="matrix(1.00, 0.00, -0.00, -1.00, 371.6, 633.0)">i</text><text xml:space="preserve" font-family="BodoniSvtyTwoITCTT-Book" font-size="70.0" fill="#D93D2A" transform="matrix(1.00, 0.00, -0.00, -1.00, 389.1, 633.0)">w</text><text xml:space="preserve" font-family="BodoniSvtyTwoITCTT-Book" font-size="70.0" fill="#D93D2A" transform="matrix(1.00, 0.00, -0.00, -1.00, 431.1, 633.0)">e</text><text xml:space="preserve" font-family="BodoniSvtyTwoITCTT-Book" font-size="70.0" fill="#D93D2A" transform="matrix(1.00, 0.00, -0.00, -1.00, 461.1, 633.0)"> </text><text xml:space="preserve" font-family="BodoniSvtyTwoITCTT-Book" font-size="70.0" fill="#D93D2A" transform="matrix(1.00, 0.00, -0.00, -1.00, 474.2, 633.0)">r</text><text xml:space="preserve" font-family="BodoniSvtyTwoITCTT-Book" font-size="70.0" fill="#D93D2A" transform="matrix(1.00, 0.00, -0.00, -1.00, 497.8, 633.0)">o</text><text xml:space="preserve" font-family="BodoniSvtyTwoITCTT-Book" font-size="70.0" fill="#D93D2A" transform="matrix(1.00, 0.00, -0.00, -1.00, 531.4, 633.0)">z</text><text xml:space="preserve" font-family="BodoniSvtyTwoITCTT-Book" font-size="70.0" fill="#D93D2A" transform="matrix(1.00, 0.00, -0.00, -1.00, 559.1, 633.0)">w</text><text xml:space="preserve" font-family="BodoniSvtyTwoITCTT-Book" font-size="70.0" fill="#D93D2A" transform="matrix(1.00, 0.00, -0.00, -1.00, 601.0, 633.0)">i</text><text xml:space="preserve" font-family="BodoniSvtyTwoITCTT-Book" font-size="70.0" fill="#D93D2A" transform="matrix(1.00, 0.00, -0.00, -1.00, 618.6, 633.0)">ą</text><text xml:space="preserve" font-family="BodoniSvtyTwoITCTT-Book" font-size="70.0" fill="#D93D2A" transform="matrix(1.00, 0.00, -0.00, -1.00, 646.4, 633.0)">z</text><text xml:space="preserve" font-family="BodoniSvtyTwoITCTT-Book" font-size="70.0" fill="#D93D2A" transform="matrix(1.00, 0.00, -0.00, -1.00, 674.0, 633.0)">a</text><text xml:space="preserve" font-family="BodoniSvtyTwoITCTT-Book" font-size="70.0" fill="#D93D2A" transform="matrix(1.00, 0.00, -0.00, -1.00, 701.8, 633.0)">n</text><text xml:space="preserve" font-family="BodoniSvtyTwoITCTT-Book" font-size="70.0" fill="#D93D2A" transform="matrix(1.00, 0.00, -0.00, -1.00, 736.0, 633.0)">i</text><text xml:space="preserve" font-family="BodoniSvtyTwoITCTT-Book" font-size="70.0" fill="#D93D2A" transform="matrix(1.00, 0.00, -0.00, -1.00, 753.6, 633.0)">e</text><text xml:space="preserve" font-family="Palatino-Roman" font-size="16.0" fill="#414040" transform="matrix(1.00, 0.00, -0.00, -1.00, 864.0, 12.0)">ź</text><text xml:space="preserve" font-family="Palatino-Roman" font-size="16.0" fill="#414040" transform="matrix(1.00, 0.00, -0.00, -1.00, 872.0, 12.0)">r</text><text xml:space="preserve" font-family="Palatino-Roman" font-size="16.0" fill="#414040" transform="matrix(1.00, 0.00, -0.00, -1.00, 878.3, 12.0)">ó</text><text xml:space="preserve" font-family="Palatino-Roman" font-size="16.0" fill="#414040" transform="matrix(1.00, 0.00, -0.00, -1.00, 887.1, 12.0)">d</text><text xml:space="preserve" font-family="Palatino-Roman" font-size="16.0" fill="#414040" transform="matrix(1.00, 0.00, -0.00, -1.00, 896.8, 12.0)">ł</text><text xml:space="preserve" font-family="Palatino-Roman" font-size="16.0" fill="#414040" transform="matrix(1.00, 0.00, -0.00, -1.00, 901.5, 12.0)">o</text><text xml:space="preserve" font-family="Palatino-Roman" font-size="16.0" fill="#414040" transform="matrix(1.00, 0.00, -0.00, -1.00, 910.2, 12.0)">:</text><text xml:space="preserve" font-family="Palatino-Roman" font-size="16.0" fill="#414040" transform="matrix(1.00, 0.00, -0.00, -1.00, 914.2, 12.0)"> </text><text xml:space="preserve" font-family="Palatino-Roman" font-size="16.0" fill="#414040" transform="matrix(1.00, 0.00, -0.00, -1.00, 918.2, 12.0)">o</text><text xml:space="preserve" font-family="Palatino-Roman" font-size="16.0" fill="#414040" transform="matrix(1.00, 0.00, -0.00, -1.00, 926.9, 12.0)">p</text><text xml:space="preserve" font-family="Palatino-Roman" font-size="16.0" fill="#414040" transform="matrix(1.00, 0.00, -0.00, -1.00, 936.6, 12.0)">r</text><text xml:space="preserve" font-family="Palatino-Roman" font-size="16.0" fill="#414040" transform="matrix(1.00, 0.00, -0.00, -1.00, 942.9, 12.0)">a</text><text xml:space="preserve" font-family="Palatino-Roman" font-size="16.0" fill="#414040" transform="matrix(1.00, 0.00, -0.00, -1.00, 950.9, 12.0)">c</text><text xml:space="preserve" font-family="Palatino-Roman" font-size="16.0" fill="#414040" transform="matrix(1.00, 0.00, -0.00, -1.00, 958.0, 12.0)">.</text><text xml:space="preserve" font-family="Palatino-Roman" font-size="16.0" fill="#414040" transform="matrix(1.00, 0.00, -0.00, -1.00, 962.0, 12.0)"> </text><text xml:space="preserve" font-family="Palatino-Roman" font-size="16.0" fill="#414040" transform="matrix(1.00, 0.00, -0.00, -1.00, 966.0, 12.0)">w</text><text xml:space="preserve" font-family="Palatino-Roman" font-size="16.0" fill="#414040" transform="matrix(1.00, 0.00, -0.00, -1.00, 979.3, 12.0)">ł</text><text xml:space="preserve" font-family="Palatino-Roman" font-size="16.0" fill="#414040" transform="matrix(1.00, 0.00, -0.00, -1.00, 984.0, 12.0)">a</text><text xml:space="preserve" font-family="Palatino-Roman" font-size="16.0" fill="#414040" transform="matrix(1.00, 0.00, -0.00, -1.00, 992.0, 12.0)">s</text><text xml:space="preserve" font-family="Palatino-Roman" font-size="16.0" fill="#414040" transform="matrix(1.00, 0.00, -0.00, -1.00, 998.8, 12.0)">n</text><text xml:space="preserve" font-family="Palatino-Roman" font-size="16.0" fill="#414040" transform="matrix(1.00, 0.00, -0.00, -1.00, 1008.1, 12.0)">e</text><text xml:space="preserve" font-family="Palatino-Italic" font-style="italic" font-size="34.0" fill="#0432FF" transform="matrix(1.00, 0.00, -0.00, -1.00, 127.0, 536.0)">~</text><text xml:space="preserve" font-family="Palatino-Italic" font-style="italic" font-size="34.0" fill="#0432FF" transform="matrix(1.00, 0.00, -0.00, -1.00, 147.6, 536.0)">2</text><text xml:space="preserve" font-family="Palatino-Italic" font-style="italic" font-size="34.0" fill="#0432FF" transform="matrix(1.00, 0.00, -0.00, -1.00, 164.6, 536.0)">0</text><text xml:space="preserve" font-family="Palatino-Italic" font-style="italic" font-size="34.0" fill="#0432FF" transform="matrix(1.00, 0.00, -0.00, -1.00, 181.6, 536.0)">0</text><text xml:space="preserve" font-family="Palatino-Italic" font-style="italic" font-size="34.0" fill="#0432FF" transform="matrix(1.00, 0.00, -0.00, -1.00, 198.6, 536.0)">5</text><text xml:space="preserve" font-family="Palatino-Italic" font-style="italic" font-size="34.0" fill="#0432FF" transform="matrix(1.00, 0.00, -0.00, -1.00, 215.6, 536.0)">-</text><text xml:space="preserve" font-family="Palatino-Italic" font-style="italic" font-size="34.0" fill="#0432FF" transform="matrix(1.00, 0.00, -0.00, -1.00, 226.9, 536.0)">2</text><text xml:space="preserve" font-family="Palatino-Italic" font-style="italic" font-size="34.0" fill="#0432FF" transform="matrix(1.00, 0.00, -0.00, -1.00, 243.9, 536.0)">0</text><text xml:space="preserve" font-family="Palatino-Italic" font-style="italic" font-size="34.0" fill="#0432FF" transform="matrix(1.00, 0.00, -0.00, -1.00, 260.9, 536.0)">0</text><text xml:space="preserve" font-family="Palatino-Italic" font-style="italic" font-size="34.0" fill="#0432FF" transform="matrix(1.00, 0.00, -0.00, -1.00, 277.9, 536.0)">8</text></g></svg>