<?xml version="1.0" encoding="UTF-8" standalone="no"?><svg xmlns="http://www.w3.org/2000/svg" xmlns:xlink="http://www.w3.org/1999/xlink" clip-rule="evenodd" stroke-miterlimit="4.00" viewBox="0 0 1024 768"><desc>SVG generated by Keynote</desc><defs></defs><g transform="matrix(1.00, 0.00, -0.00, -1.00, 0.0, 768.0)"><g><clipPath id="clip-723"><path d="M 0.0 768.0 L 1024.0 768.0 L 1024.0 0.0 L 0.0 0.0 Z M 0.0 768.0 "></path></clipPath><g clip-path="url(#clip-723)"><image xlink:href="../../7271B8B7-3FC1-4276-9B71-E31342A69E14/assets/50163466EC2834942505D00A94D158E6.jpeg" width="1024.00" height="768.00" transform="matrix(1.00, 0.00, -0.00, -1.00, 0.0, 768.0)"></image></g></g><text xml:space="preserve" font-family="Palatino-Italic" font-style="italic" font-size="30.0" fill="#414040" transform="matrix(1.00, 0.00, -0.00, -1.00, 675.0, 262.0)">–</text><text xml:space="preserve" font-family="Palatino-Italic" font-style="italic" font-size="30.0" fill="#414040" transform="matrix(1.00, 0.00, -0.00, -1.00, 690.0, 262.0)"> </text><text xml:space="preserve" font-family="Palatino-Italic" font-style="italic" font-size="30.0" fill="#414040" transform="matrix(1.00, 0.00, -0.00, -1.00, 697.5, 262.0)">J</text><text xml:space="preserve" font-family="Palatino-Italic" font-style="italic" font-size="30.0" fill="#414040" transform="matrix(1.00, 0.00, -0.00, -1.00, 707.5, 262.0)">a</text><text xml:space="preserve" font-family="Palatino-Italic" font-style="italic" font-size="30.0" fill="#414040" transform="matrix(1.00, 0.00, -0.00, -1.00, 720.8, 262.0)">m</text><text xml:space="preserve" font-family="Palatino-Italic" font-style="italic" font-size="30.0" fill="#414040" transform="matrix(1.00, 0.00, -0.00, -1.00, 744.1, 262.0)">e</text><text xml:space="preserve" font-family="Palatino-Italic" font-style="italic" font-size="30.0" fill="#414040" transform="matrix(1.00, 0.00, -0.00, -1.00, 755.8, 262.0)">s</text><text xml:space="preserve" font-family="Palatino-Italic" font-style="italic" font-size="30.0" fill="#414040" transform="matrix(1.00, 0.00, -0.00, -1.00, 767.5, 262.0)"> </text><text xml:space="preserve" font-family="Palatino-Italic" font-style="italic" font-size="30.0" fill="#414040" transform="matrix(1.00, 0.00, -0.00, -1.00, 775.0, 262.0)">S</text><text xml:space="preserve" font-family="Palatino-Italic" font-style="italic" font-size="30.0" fill="#414040" transform="matrix(1.00, 0.00, -0.00, -1.00, 791.7, 262.0)">t</text><text xml:space="preserve" font-family="Palatino-Italic" font-style="italic" font-size="30.0" fill="#414040" transform="matrix(1.00, 0.00, -0.00, -1.00, 801.7, 262.0)">e</text><text xml:space="preserve" font-family="Palatino-Italic" font-style="italic" font-size="30.0" fill="#414040" transform="matrix(1.00, 0.00, -0.00, -1.00, 813.4, 262.0)">p</text><text xml:space="preserve" font-family="Palatino-Italic" font-style="italic" font-size="30.0" fill="#414040" transform="matrix(1.00, 0.00, -0.00, -1.00, 828.4, 262.0)">h</text><text xml:space="preserve" font-family="Palatino-Italic" font-style="italic" font-size="30.0" fill="#414040" transform="matrix(1.00, 0.00, -0.00, -1.00, 843.4, 262.0)">e</text><text xml:space="preserve" font-family="Palatino-Italic" font-style="italic" font-size="30.0" fill="#414040" transform="matrix(1.00, 0.00, -0.00, -1.00, 855.0, 262.0)">n</text><text xml:space="preserve" font-family="Palatino-Italic" font-style="italic" font-size="30.0" fill="#414040" transform="matrix(1.00, 0.00, -0.00, -1.00, 871.7, 262.0)">s</text><text xml:space="preserve" font-family="Palatino-Roman" font-size="36.0" fill="#414040" transform="matrix(1.00, 0.00, -0.00, -1.00, 148.0, 463.0)">„</text><text xml:space="preserve" font-family="Palatino-Roman" font-size="36.0" fill="#414040" transform="matrix(1.00, 0.00, -0.00, -1.00, 166.0, 463.0)">W</text><text xml:space="preserve" font-family="Palatino-Roman" font-size="36.0" fill="#414040" transform="matrix(1.00, 0.00, -0.00, -1.00, 198.7, 463.0)">e</text><text xml:space="preserve" font-family="Palatino-Roman" font-size="36.0" fill="#414040" transform="matrix(1.00, 0.00, -0.00, -1.00, 215.9, 463.0)"> </text><text xml:space="preserve" font-family="Palatino-Roman" font-size="36.0" fill="#414040" transform="matrix(1.00, 0.00, -0.00, -1.00, 224.9, 463.0)">g</text><text xml:space="preserve" font-family="Palatino-Roman" font-size="36.0" fill="#414040" transform="matrix(1.00, 0.00, -0.00, -1.00, 245.0, 463.0)">e</text><text xml:space="preserve" font-family="Palatino-Roman" font-size="36.0" fill="#414040" transform="matrix(1.00, 0.00, -0.00, -1.00, 262.2, 463.0)">t</text><text xml:space="preserve" font-family="Palatino-Roman" font-size="36.0" fill="#414040" transform="matrix(1.00, 0.00, -0.00, -1.00, 274.0, 463.0)"> </text><text xml:space="preserve" font-family="Palatino-Roman" font-size="36.0" fill="#414040" transform="matrix(1.00, 0.00, -0.00, -1.00, 283.0, 463.0)">w</text><text xml:space="preserve" font-family="Palatino-Roman" font-size="36.0" fill="#414040" transform="matrix(1.00, 0.00, -0.00, -1.00, 313.0, 463.0)">i</text><text xml:space="preserve" font-family="Palatino-Roman" font-size="36.0" fill="#414040" transform="matrix(1.00, 0.00, -0.00, -1.00, 323.5, 463.0)">s</text><text xml:space="preserve" font-family="Palatino-Roman" font-size="36.0" fill="#414040" transform="matrix(1.00, 0.00, -0.00, -1.00, 338.7, 463.0)">e</text><text xml:space="preserve" font-family="Palatino-Roman" font-size="36.0" fill="#414040" transform="matrix(1.00, 0.00, -0.00, -1.00, 356.0, 463.0)"> </text><text xml:space="preserve" font-family="Palatino-Roman" font-size="36.0" fill="#414040" transform="matrix(1.00, 0.00, -0.00, -1.00, 365.0, 463.0)">b</text><text xml:space="preserve" font-family="Palatino-Roman" font-size="36.0" fill="#414040" transform="matrix(1.00, 0.00, -0.00, -1.00, 384.9, 463.0)">y</text><text xml:space="preserve" font-family="Palatino-Roman" font-size="36.0" fill="#414040" transform="matrix(1.00, 0.00, -0.00, -1.00, 404.9, 463.0)"> </text><text xml:space="preserve" font-family="Palatino-Roman" font-size="36.0" fill="#414040" transform="matrix(1.00, 0.00, -0.00, -1.00, 413.9, 463.0)">a</text><text xml:space="preserve" font-family="Palatino-Roman" font-size="36.0" fill="#414040" transform="matrix(1.00, 0.00, -0.00, -1.00, 431.9, 463.0)">s</text><text xml:space="preserve" font-family="Palatino-Roman" font-size="36.0" fill="#414040" transform="matrix(1.00, 0.00, -0.00, -1.00, 447.2, 463.0)">k</text><text xml:space="preserve" font-family="Palatino-Roman" font-size="36.0" fill="#414040" transform="matrix(1.00, 0.00, -0.00, -1.00, 467.2, 463.0)">i</text><text xml:space="preserve" font-family="Palatino-Roman" font-size="36.0" fill="#414040" transform="matrix(1.00, 0.00, -0.00, -1.00, 477.7, 463.0)">n</text><text xml:space="preserve" font-family="Palatino-Roman" font-size="36.0" fill="#414040" transform="matrix(1.00, 0.00, -0.00, -1.00, 498.6, 463.0)">g</text><text xml:space="preserve" font-family="Palatino-Roman" font-size="36.0" fill="#414040" transform="matrix(1.00, 0.00, -0.00, -1.00, 518.6, 463.0)"> </text><text xml:space="preserve" font-family="Palatino-Roman" font-size="36.0" fill="#414040" transform="matrix(1.00, 0.00, -0.00, -1.00, 527.6, 463.0)">q</text><text xml:space="preserve" font-family="Palatino-Roman" font-size="36.0" fill="#414040" transform="matrix(1.00, 0.00, -0.00, -1.00, 547.8, 463.0)">u</text><text xml:space="preserve" font-family="Palatino-Roman" font-size="36.0" fill="#414040" transform="matrix(1.00, 0.00, -0.00, -1.00, 569.5, 463.0)">e</text><text xml:space="preserve" font-family="Palatino-Roman" font-size="36.0" fill="#414040" transform="matrix(1.00, 0.00, -0.00, -1.00, 586.8, 463.0)">s</text><text xml:space="preserve" font-family="Palatino-Roman" font-size="36.0" fill="#414040" transform="matrix(1.00, 0.00, -0.00, -1.00, 602.0, 463.0)">t</text><text xml:space="preserve" font-family="Palatino-Roman" font-size="36.0" fill="#414040" transform="matrix(1.00, 0.00, -0.00, -1.00, 613.8, 463.0)">i</text><text xml:space="preserve" font-family="Palatino-Roman" font-size="36.0" fill="#414040" transform="matrix(1.00, 0.00, -0.00, -1.00, 624.2, 463.0)">o</text><text xml:space="preserve" font-family="Palatino-Roman" font-size="36.0" fill="#414040" transform="matrix(1.00, 0.00, -0.00, -1.00, 643.9, 463.0)">n</text><text xml:space="preserve" font-family="Palatino-Roman" font-size="36.0" fill="#414040" transform="matrix(1.00, 0.00, -0.00, -1.00, 664.8, 463.0)">s</text><text xml:space="preserve" font-family="Palatino-Roman" font-size="36.0" fill="#414040" transform="matrix(1.00, 0.00, -0.00, -1.00, 680.1, 463.0)">,</text><text xml:space="preserve" font-family="Palatino-Roman" font-size="36.0" fill="#414040" transform="matrix(1.00, 0.00, -0.00, -1.00, 689.1, 463.0)"> </text><text xml:space="preserve" font-family="Palatino-Roman" font-size="36.0" fill="#414040" transform="matrix(1.00, 0.00, -0.00, -1.00, 698.1, 463.0)">a</text><text xml:space="preserve" font-family="Palatino-Roman" font-size="36.0" fill="#414040" transform="matrix(1.00, 0.00, -0.00, -1.00, 716.1, 463.0)">n</text><text xml:space="preserve" font-family="Palatino-Roman" font-size="36.0" fill="#414040" transform="matrix(1.00, 0.00, -0.00, -1.00, 737.0, 463.0)">d</text><text xml:space="preserve" font-family="Palatino-Roman" font-size="36.0" fill="#414040" transform="matrix(1.00, 0.00, -0.00, -1.00, 759.0, 463.0)"> </text><text xml:space="preserve" font-family="Palatino-Roman" font-size="36.0" fill="#414040" transform="matrix(1.00, 0.00, -0.00, -1.00, 768.0, 463.0)">e</text><text xml:space="preserve" font-family="Palatino-Roman" font-size="36.0" fill="#414040" transform="matrix(1.00, 0.00, -0.00, -1.00, 785.3, 463.0)">v</text><text xml:space="preserve" font-family="Palatino-Roman" font-size="36.0" fill="#414040" transform="matrix(1.00, 0.00, -0.00, -1.00, 805.6, 463.0)">e</text><text xml:space="preserve" font-family="Palatino-Roman" font-size="36.0" fill="#414040" transform="matrix(1.00, 0.00, -0.00, -1.00, 822.9, 463.0)">n</text><text xml:space="preserve" font-family="Palatino-Roman" font-size="36.0" fill="#414040" transform="matrix(1.00, 0.00, -0.00, -1.00, 843.8, 463.0)"> </text><text xml:space="preserve" font-family="Palatino-Roman" font-size="36.0" fill="#414040" transform="matrix(1.00, 0.00, -0.00, -1.00, 852.8, 463.0)">i</text><text xml:space="preserve" font-family="Palatino-Roman" font-size="36.0" fill="#414040" transform="matrix(1.00, 0.00, -0.00, -1.00, 863.3, 463.0)">f</text><text xml:space="preserve" font-family="Palatino-Roman" font-size="36.0" fill="#414040" transform="matrix(1.00, 0.00, -0.00, -1.00, 875.3, 463.0)"> </text><text xml:space="preserve" font-family="Palatino-Roman" font-size="36.0" fill="#414040" transform="matrix(1.00, 0.00, -0.00, -1.00, 137.0, 415.0)">t</text><text xml:space="preserve" font-family="Palatino-Roman" font-size="36.0" fill="#414040" transform="matrix(1.00, 0.00, -0.00, -1.00, 148.7, 415.0)">h</text><text xml:space="preserve" font-family="Palatino-Roman" font-size="36.0" fill="#414040" transform="matrix(1.00, 0.00, -0.00, -1.00, 169.7, 415.0)">e</text><text xml:space="preserve" font-family="Palatino-Roman" font-size="36.0" fill="#414040" transform="matrix(1.00, 0.00, -0.00, -1.00, 186.9, 415.0)">s</text><text xml:space="preserve" font-family="Palatino-Roman" font-size="36.0" fill="#414040" transform="matrix(1.00, 0.00, -0.00, -1.00, 202.2, 415.0)">e</text><text xml:space="preserve" font-family="Palatino-Roman" font-size="36.0" fill="#414040" transform="matrix(1.00, 0.00, -0.00, -1.00, 219.4, 415.0)"> </text><text xml:space="preserve" font-family="Palatino-Roman" font-size="36.0" fill="#414040" transform="matrix(1.00, 0.00, -0.00, -1.00, 228.4, 415.0)">a</text><text xml:space="preserve" font-family="Palatino-Roman" font-size="36.0" fill="#414040" transform="matrix(1.00, 0.00, -0.00, -1.00, 246.4, 415.0)">r</text><text xml:space="preserve" font-family="Palatino-Roman" font-size="36.0" fill="#414040" transform="matrix(1.00, 0.00, -0.00, -1.00, 260.0, 415.0)">e</text><text xml:space="preserve" font-family="Palatino-Roman" font-size="36.0" fill="#414040" transform="matrix(1.00, 0.00, -0.00, -1.00, 277.3, 415.0)"> </text><text xml:space="preserve" font-family="Palatino-Roman" font-size="36.0" fill="#414040" transform="matrix(1.00, 0.00, -0.00, -1.00, 286.3, 415.0)">n</text><text xml:space="preserve" font-family="Palatino-Roman" font-size="36.0" fill="#414040" transform="matrix(1.00, 0.00, -0.00, -1.00, 307.2, 415.0)">o</text><text xml:space="preserve" font-family="Palatino-Roman" font-size="36.0" fill="#414040" transform="matrix(1.00, 0.00, -0.00, -1.00, 326.9, 415.0)">t</text><text xml:space="preserve" font-family="Palatino-Roman" font-size="36.0" fill="#414040" transform="matrix(1.00, 0.00, -0.00, -1.00, 338.6, 415.0)"> </text><text xml:space="preserve" font-family="Palatino-Roman" font-size="36.0" fill="#414040" transform="matrix(1.00, 0.00, -0.00, -1.00, 347.6, 415.0)">a</text><text xml:space="preserve" font-family="Palatino-Roman" font-size="36.0" fill="#414040" transform="matrix(1.00, 0.00, -0.00, -1.00, 365.6, 415.0)">n</text><text xml:space="preserve" font-family="Palatino-Roman" font-size="36.0" fill="#414040" transform="matrix(1.00, 0.00, -0.00, -1.00, 386.6, 415.0)">s</text><text xml:space="preserve" font-family="Palatino-Roman" font-size="36.0" fill="#414040" transform="matrix(1.00, 0.00, -0.00, -1.00, 401.8, 415.0)">w</text><text xml:space="preserve" font-family="Palatino-Roman" font-size="36.0" fill="#414040" transform="matrix(1.00, 0.00, -0.00, -1.00, 431.9, 415.0)">e</text><text xml:space="preserve" font-family="Palatino-Roman" font-size="36.0" fill="#414040" transform="matrix(1.00, 0.00, -0.00, -1.00, 449.1, 415.0)">r</text><text xml:space="preserve" font-family="Palatino-Roman" font-size="36.0" fill="#414040" transform="matrix(1.00, 0.00, -0.00, -1.00, 462.7, 415.0)">e</text><text xml:space="preserve" font-family="Palatino-Roman" font-size="36.0" fill="#414040" transform="matrix(1.00, 0.00, -0.00, -1.00, 479.9, 415.0)">d</text><text xml:space="preserve" font-family="Palatino-Roman" font-size="36.0" fill="#414040" transform="matrix(1.00, 0.00, -0.00, -1.00, 501.9, 415.0)">,</text><text xml:space="preserve" font-family="Palatino-Roman" font-size="36.0" fill="#414040" transform="matrix(1.00, 0.00, -0.00, -1.00, 510.9, 415.0)"> </text><text xml:space="preserve" font-family="Palatino-Roman" font-size="36.0" fill="#414040" transform="matrix(1.00, 0.00, -0.00, -1.00, 519.9, 415.0)">w</text><text xml:space="preserve" font-family="Palatino-Roman" font-size="36.0" fill="#414040" transform="matrix(1.00, 0.00, -0.00, -1.00, 549.9, 415.0)">e</text><text xml:space="preserve" font-family="Palatino-Roman" font-size="36.0" fill="#414040" transform="matrix(1.00, 0.00, -0.00, -1.00, 567.2, 415.0)"> </text><text xml:space="preserve" font-family="Palatino-Roman" font-size="36.0" fill="#414040" transform="matrix(1.00, 0.00, -0.00, -1.00, 576.2, 415.0)">g</text><text xml:space="preserve" font-family="Palatino-Roman" font-size="36.0" fill="#414040" transform="matrix(1.00, 0.00, -0.00, -1.00, 596.2, 415.0)">e</text><text xml:space="preserve" font-family="Palatino-Roman" font-size="36.0" fill="#414040" transform="matrix(1.00, 0.00, -0.00, -1.00, 613.4, 415.0)">t</text><text xml:space="preserve" font-family="Palatino-Roman" font-size="36.0" fill="#414040" transform="matrix(1.00, 0.00, -0.00, -1.00, 625.2, 415.0)"> </text><text xml:space="preserve" font-family="Palatino-Roman" font-size="36.0" fill="#414040" transform="matrix(1.00, 0.00, -0.00, -1.00, 634.2, 415.0)">w</text><text xml:space="preserve" font-family="Palatino-Roman" font-size="36.0" fill="#414040" transform="matrix(1.00, 0.00, -0.00, -1.00, 664.2, 415.0)">i</text><text xml:space="preserve" font-family="Palatino-Roman" font-size="36.0" fill="#414040" transform="matrix(1.00, 0.00, -0.00, -1.00, 674.7, 415.0)">s</text><text xml:space="preserve" font-family="Palatino-Roman" font-size="36.0" fill="#414040" transform="matrix(1.00, 0.00, -0.00, -1.00, 689.9, 415.0)">e</text><text xml:space="preserve" font-family="Palatino-Roman" font-size="36.0" fill="#414040" transform="matrix(1.00, 0.00, -0.00, -1.00, 707.2, 415.0)">,</text><text xml:space="preserve" font-family="Palatino-Roman" font-size="36.0" fill="#414040" transform="matrix(1.00, 0.00, -0.00, -1.00, 716.2, 415.0)"> </text><text xml:space="preserve" font-family="Palatino-Roman" font-size="36.0" fill="#414040" transform="matrix(1.00, 0.00, -0.00, -1.00, 725.2, 415.0)">f</text><text xml:space="preserve" font-family="Palatino-Roman" font-size="36.0" fill="#414040" transform="matrix(1.00, 0.00, -0.00, -1.00, 737.2, 415.0)">o</text><text xml:space="preserve" font-family="Palatino-Roman" font-size="36.0" fill="#414040" transform="matrix(1.00, 0.00, -0.00, -1.00, 756.8, 415.0)">r</text><text xml:space="preserve" font-family="Palatino-Roman" font-size="36.0" fill="#414040" transform="matrix(1.00, 0.00, -0.00, -1.00, 771.1, 415.0)"> </text><text xml:space="preserve" font-family="Palatino-Roman" font-size="36.0" fill="#414040" transform="matrix(1.00, 0.00, -0.00, -1.00, 780.1, 415.0)">a</text><text xml:space="preserve" font-family="Palatino-Roman" font-size="36.0" fill="#414040" transform="matrix(1.00, 0.00, -0.00, -1.00, 798.1, 415.0)"> </text><text xml:space="preserve" font-family="Palatino-Roman" font-size="36.0" fill="#414040" transform="matrix(1.00, 0.00, -0.00, -1.00, 807.1, 415.0)">w</text><text xml:space="preserve" font-family="Palatino-Roman" font-size="36.0" fill="#414040" transform="matrix(1.00, 0.00, -0.00, -1.00, 837.1, 415.0)">e</text><text xml:space="preserve" font-family="Palatino-Roman" font-size="36.0" fill="#414040" transform="matrix(1.00, 0.00, -0.00, -1.00, 854.3, 415.0)">l</text><text xml:space="preserve" font-family="Palatino-Roman" font-size="36.0" fill="#414040" transform="matrix(1.00, 0.00, -0.00, -1.00, 864.8, 415.0)">l</text><text xml:space="preserve" font-family="Palatino-Roman" font-size="36.0" fill="#414040" transform="matrix(1.00, 0.00, -0.00, -1.00, 875.3, 415.0)">-</text><text xml:space="preserve" font-family="Palatino-Roman" font-size="36.0" fill="#414040" transform="matrix(1.00, 0.00, -0.00, -1.00, 115.0, 367.0)">p</text><text xml:space="preserve" font-family="Palatino-Roman" font-size="36.0" fill="#414040" transform="matrix(1.00, 0.00, -0.00, -1.00, 136.6, 367.0)">a</text><text xml:space="preserve" font-family="Palatino-Roman" font-size="36.0" fill="#414040" transform="matrix(1.00, 0.00, -0.00, -1.00, 154.6, 367.0)">c</text><text xml:space="preserve" font-family="Palatino-Roman" font-size="36.0" fill="#414040" transform="matrix(1.00, 0.00, -0.00, -1.00, 170.6, 367.0)">k</text><text xml:space="preserve" font-family="Palatino-Roman" font-size="36.0" fill="#414040" transform="matrix(1.00, 0.00, -0.00, -1.00, 190.6, 367.0)">e</text><text xml:space="preserve" font-family="Palatino-Roman" font-size="36.0" fill="#414040" transform="matrix(1.00, 0.00, -0.00, -1.00, 207.9, 367.0)">d</text><text xml:space="preserve" font-family="Palatino-Roman" font-size="36.0" fill="#414040" transform="matrix(1.00, 0.00, -0.00, -1.00, 229.9, 367.0)"> </text><text xml:space="preserve" font-family="Palatino-Roman" font-size="36.0" fill="#414040" transform="matrix(1.00, 0.00, -0.00, -1.00, 238.9, 367.0)">q</text><text xml:space="preserve" font-family="Palatino-Roman" font-size="36.0" fill="#414040" transform="matrix(1.00, 0.00, -0.00, -1.00, 259.0, 367.0)">u</text><text xml:space="preserve" font-family="Palatino-Roman" font-size="36.0" fill="#414040" transform="matrix(1.00, 0.00, -0.00, -1.00, 280.7, 367.0)">e</text><text xml:space="preserve" font-family="Palatino-Roman" font-size="36.0" fill="#414040" transform="matrix(1.00, 0.00, -0.00, -1.00, 298.0, 367.0)">s</text><text xml:space="preserve" font-family="Palatino-Roman" font-size="36.0" fill="#414040" transform="matrix(1.00, 0.00, -0.00, -1.00, 313.2, 367.0)">t</text><text xml:space="preserve" font-family="Palatino-Roman" font-size="36.0" fill="#414040" transform="matrix(1.00, 0.00, -0.00, -1.00, 325.0, 367.0)">i</text><text xml:space="preserve" font-family="Palatino-Roman" font-size="36.0" fill="#414040" transform="matrix(1.00, 0.00, -0.00, -1.00, 335.5, 367.0)">o</text><text xml:space="preserve" font-family="Palatino-Roman" font-size="36.0" fill="#414040" transform="matrix(1.00, 0.00, -0.00, -1.00, 355.1, 367.0)">n</text><text xml:space="preserve" font-family="Palatino-Roman" font-size="36.0" fill="#414040" transform="matrix(1.00, 0.00, -0.00, -1.00, 376.1, 367.0)"> </text><text xml:space="preserve" font-family="Palatino-Roman" font-size="36.0" fill="#414040" transform="matrix(1.00, 0.00, -0.00, -1.00, 385.1, 367.0)">c</text><text xml:space="preserve" font-family="Palatino-Roman" font-size="36.0" fill="#414040" transform="matrix(1.00, 0.00, -0.00, -1.00, 401.0, 367.0)">a</text><text xml:space="preserve" font-family="Palatino-Roman" font-size="36.0" fill="#414040" transform="matrix(1.00, 0.00, -0.00, -1.00, 419.0, 367.0)">r</text><text xml:space="preserve" font-family="Palatino-Roman" font-size="36.0" fill="#414040" transform="matrix(1.00, 0.00, -0.00, -1.00, 433.3, 367.0)">r</text><text xml:space="preserve" font-family="Palatino-Roman" font-size="36.0" fill="#414040" transform="matrix(1.00, 0.00, -0.00, -1.00, 447.5, 367.0)">i</text><text xml:space="preserve" font-family="Palatino-Roman" font-size="36.0" fill="#414040" transform="matrix(1.00, 0.00, -0.00, -1.00, 458.0, 367.0)">e</text><text xml:space="preserve" font-family="Palatino-Roman" font-size="36.0" fill="#414040" transform="matrix(1.00, 0.00, -0.00, -1.00, 475.2, 367.0)">s</text><text xml:space="preserve" font-family="Palatino-Roman" font-size="36.0" fill="#414040" transform="matrix(1.00, 0.00, -0.00, -1.00, 490.5, 367.0)"> </text><text xml:space="preserve" font-family="Palatino-Roman" font-size="36.0" fill="#414040" transform="matrix(1.00, 0.00, -0.00, -1.00, 499.5, 367.0)">i</text><text xml:space="preserve" font-family="Palatino-Roman" font-size="36.0" fill="#414040" transform="matrix(1.00, 0.00, -0.00, -1.00, 509.9, 367.0)">t</text><text xml:space="preserve" font-family="Palatino-Roman" font-size="36.0" fill="#414040" transform="matrix(1.00, 0.00, -0.00, -1.00, 521.7, 367.0)">s</text><text xml:space="preserve" font-family="Palatino-Roman" font-size="36.0" fill="#414040" transform="matrix(1.00, 0.00, -0.00, -1.00, 536.9, 367.0)"> </text><text xml:space="preserve" font-family="Palatino-Roman" font-size="36.0" fill="#414040" transform="matrix(1.00, 0.00, -0.00, -1.00, 545.9, 367.0)">a</text><text xml:space="preserve" font-family="Palatino-Roman" font-size="36.0" fill="#414040" transform="matrix(1.00, 0.00, -0.00, -1.00, 563.9, 367.0)">n</text><text xml:space="preserve" font-family="Palatino-Roman" font-size="36.0" fill="#414040" transform="matrix(1.00, 0.00, -0.00, -1.00, 584.9, 367.0)">s</text><text xml:space="preserve" font-family="Palatino-Roman" font-size="36.0" fill="#414040" transform="matrix(1.00, 0.00, -0.00, -1.00, 600.1, 367.0)">w</text><text xml:space="preserve" font-family="Palatino-Roman" font-size="36.0" fill="#414040" transform="matrix(1.00, 0.00, -0.00, -1.00, 630.2, 367.0)">e</text><text xml:space="preserve" font-family="Palatino-Roman" font-size="36.0" fill="#414040" transform="matrix(1.00, 0.00, -0.00, -1.00, 647.4, 367.0)">r</text><text xml:space="preserve" font-family="Palatino-Roman" font-size="36.0" fill="#414040" transform="matrix(1.00, 0.00, -0.00, -1.00, 661.6, 367.0)"> </text><text xml:space="preserve" font-family="Palatino-Roman" font-size="36.0" fill="#414040" transform="matrix(1.00, 0.00, -0.00, -1.00, 670.6, 367.0)">o</text><text xml:space="preserve" font-family="Palatino-Roman" font-size="36.0" fill="#414040" transform="matrix(1.00, 0.00, -0.00, -1.00, 690.3, 367.0)">n</text><text xml:space="preserve" font-family="Palatino-Roman" font-size="36.0" fill="#414040" transform="matrix(1.00, 0.00, -0.00, -1.00, 711.2, 367.0)"> </text><text xml:space="preserve" font-family="Palatino-Roman" font-size="36.0" fill="#414040" transform="matrix(1.00, 0.00, -0.00, -1.00, 720.2, 367.0)">i</text><text xml:space="preserve" font-family="Palatino-Roman" font-size="36.0" fill="#414040" transform="matrix(1.00, 0.00, -0.00, -1.00, 730.7, 367.0)">t</text><text xml:space="preserve" font-family="Palatino-Roman" font-size="36.0" fill="#414040" transform="matrix(1.00, 0.00, -0.00, -1.00, 742.4, 367.0)">s</text><text xml:space="preserve" font-family="Palatino-Roman" font-size="36.0" fill="#414040" transform="matrix(1.00, 0.00, -0.00, -1.00, 757.7, 367.0)"> </text><text xml:space="preserve" font-family="Palatino-Roman" font-size="36.0" fill="#414040" transform="matrix(1.00, 0.00, -0.00, -1.00, 766.7, 367.0)">b</text><text xml:space="preserve" font-family="Palatino-Roman" font-size="36.0" fill="#414040" transform="matrix(1.00, 0.00, -0.00, -1.00, 786.6, 367.0)">a</text><text xml:space="preserve" font-family="Palatino-Roman" font-size="36.0" fill="#414040" transform="matrix(1.00, 0.00, -0.00, -1.00, 804.6, 367.0)">c</text><text xml:space="preserve" font-family="Palatino-Roman" font-size="36.0" fill="#414040" transform="matrix(1.00, 0.00, -0.00, -1.00, 820.6, 367.0)">k</text><text xml:space="preserve" font-family="Palatino-Roman" font-size="36.0" fill="#414040" transform="matrix(1.00, 0.00, -0.00, -1.00, 840.6, 367.0)"> </text><text xml:space="preserve" font-family="Palatino-Roman" font-size="36.0" fill="#414040" transform="matrix(1.00, 0.00, -0.00, -1.00, 849.6, 367.0)">a</text><text xml:space="preserve" font-family="Palatino-Roman" font-size="36.0" fill="#414040" transform="matrix(1.00, 0.00, -0.00, -1.00, 867.6, 367.0)">s</text><text xml:space="preserve" font-family="Palatino-Roman" font-size="36.0" fill="#414040" transform="matrix(1.00, 0.00, -0.00, -1.00, 882.9, 367.0)"> </text><text xml:space="preserve" font-family="Palatino-Roman" font-size="36.0" fill="#414040" transform="matrix(1.00, 0.00, -0.00, -1.00, 891.9, 367.0)">a</text><text xml:space="preserve" font-family="Palatino-Roman" font-size="36.0" fill="#414040" transform="matrix(1.00, 0.00, -0.00, -1.00, 909.9, 367.0)"> </text><text xml:space="preserve" font-family="Palatino-Roman" font-size="36.0" fill="#414040" transform="matrix(1.00, 0.00, -0.00, -1.00, 339.0, 319.0)">s</text><text xml:space="preserve" font-family="Palatino-Roman" font-size="36.0" fill="#414040" transform="matrix(1.00, 0.00, -0.00, -1.00, 354.3, 319.0)">n</text><text xml:space="preserve" font-family="Palatino-Roman" font-size="36.0" fill="#414040" transform="matrix(1.00, 0.00, -0.00, -1.00, 375.2, 319.0)">a</text><text xml:space="preserve" font-family="Palatino-Roman" font-size="36.0" fill="#414040" transform="matrix(1.00, 0.00, -0.00, -1.00, 393.2, 319.0)">i</text><text xml:space="preserve" font-family="Palatino-Roman" font-size="36.0" fill="#414040" transform="matrix(1.00, 0.00, -0.00, -1.00, 403.7, 319.0)">l</text><text xml:space="preserve" font-family="Palatino-Roman" font-size="36.0" fill="#414040" transform="matrix(1.00, 0.00, -0.00, -1.00, 414.2, 319.0)"> </text><text xml:space="preserve" font-family="Palatino-Roman" font-size="36.0" fill="#414040" transform="matrix(1.00, 0.00, -0.00, -1.00, 423.2, 319.0)">c</text><text xml:space="preserve" font-family="Palatino-Roman" font-size="36.0" fill="#414040" transform="matrix(1.00, 0.00, -0.00, -1.00, 439.1, 319.0)">a</text><text xml:space="preserve" font-family="Palatino-Roman" font-size="36.0" fill="#414040" transform="matrix(1.00, 0.00, -0.00, -1.00, 457.1, 319.0)">r</text><text xml:space="preserve" font-family="Palatino-Roman" font-size="36.0" fill="#414040" transform="matrix(1.00, 0.00, -0.00, -1.00, 471.3, 319.0)">r</text><text xml:space="preserve" font-family="Palatino-Roman" font-size="36.0" fill="#414040" transform="matrix(1.00, 0.00, -0.00, -1.00, 485.6, 319.0)">i</text><text xml:space="preserve" font-family="Palatino-Roman" font-size="36.0" fill="#414040" transform="matrix(1.00, 0.00, -0.00, -1.00, 496.0, 319.0)">e</text><text xml:space="preserve" font-family="Palatino-Roman" font-size="36.0" fill="#414040" transform="matrix(1.00, 0.00, -0.00, -1.00, 513.3, 319.0)">s</text><text xml:space="preserve" font-family="Palatino-Roman" font-size="36.0" fill="#414040" transform="matrix(1.00, 0.00, -0.00, -1.00, 528.5, 319.0)"> </text><text xml:space="preserve" font-family="Palatino-Roman" font-size="36.0" fill="#414040" transform="matrix(1.00, 0.00, -0.00, -1.00, 537.5, 319.0)">i</text><text xml:space="preserve" font-family="Palatino-Roman" font-size="36.0" fill="#414040" transform="matrix(1.00, 0.00, -0.00, -1.00, 548.0, 319.0)">t</text><text xml:space="preserve" font-family="Palatino-Roman" font-size="36.0" fill="#414040" transform="matrix(1.00, 0.00, -0.00, -1.00, 559.8, 319.0)">s</text><text xml:space="preserve" font-family="Palatino-Roman" font-size="36.0" fill="#414040" transform="matrix(1.00, 0.00, -0.00, -1.00, 575.0, 319.0)"> </text><text xml:space="preserve" font-family="Palatino-Roman" font-size="36.0" fill="#414040" transform="matrix(1.00, 0.00, -0.00, -1.00, 584.0, 319.0)">s</text><text xml:space="preserve" font-family="Palatino-Roman" font-size="36.0" fill="#414040" transform="matrix(1.00, 0.00, -0.00, -1.00, 599.3, 319.0)">h</text><text xml:space="preserve" font-family="Palatino-Roman" font-size="36.0" fill="#414040" transform="matrix(1.00, 0.00, -0.00, -1.00, 620.2, 319.0)">e</text><text xml:space="preserve" font-family="Palatino-Roman" font-size="36.0" fill="#414040" transform="matrix(1.00, 0.00, -0.00, -1.00, 637.5, 319.0)">l</text><text xml:space="preserve" font-family="Palatino-Roman" font-size="36.0" fill="#414040" transform="matrix(1.00, 0.00, -0.00, -1.00, 647.9, 319.0)">l</text><text xml:space="preserve" font-family="Palatino-Roman" font-size="36.0" fill="#414040" transform="matrix(1.00, 0.00, -0.00, -1.00, 658.4, 319.0)">.</text><text xml:space="preserve" font-family="Palatino-Roman" font-size="36.0" fill="#414040" transform="matrix(1.00, 0.00, -0.00, -1.00, 667.4, 319.0)">”</text><text xml:space="preserve" font-family="Palatino-Roman" font-size="36.0" fill="#414040" transform="matrix(1.00, 0.00, -0.00, -1.00, 685.4, 319.0)"> </text></g></svg>