<?xml version="1.0" encoding="UTF-8" standalone="no"?><svg xmlns="http://www.w3.org/2000/svg" xmlns:xlink="http://www.w3.org/1999/xlink" clip-rule="evenodd" stroke-miterlimit="4.00" viewBox="0 0 1024 768"><desc>SVG generated by Keynote</desc><defs></defs><g transform="matrix(1.00, 0.00, -0.00, -1.00, 0.0, 768.0)"><g><clipPath id="clip-0"><path d="M 0.0 768.0 L 1024.0 768.0 L 1024.0 0.0 L 0.0 0.0 Z M 0.0 768.0 "></path></clipPath><g clip-path="url(#clip-0)"><image xlink:href="50163466EC2834942505D00A94D158E6.jpeg" width="1024.00" height="768.00" transform="matrix(1.00, 0.00, -0.00, -1.00, 0.0, 768.0)"></image></g></g><g opacity="0.30"><g><clipPath id="clip-1"><path d="M 39.0 247.0 L 986.0 247.0 L 986.0 251.0 L 39.0 251.0 Z M 39.0 247.0 "></path></clipPath><g clip-path="url(#clip-1)"><path d="M 0.0 0.0 L 944.8 0.0 " fill="none" stroke="#434343" stroke-width="1.00" transform="matrix(1.00, 0.00, 0.00, -1.00, 40.0, 249.0)"></path></g></g></g><g opacity="0.30"><g><clipPath id="clip-2"><path d="M 39.0 444.0 L 986.0 444.0 L 986.0 448.0 L 39.0 448.0 Z M 39.0 444.0 "></path></clipPath><g clip-path="url(#clip-2)"><path d="M 0.0 0.0 L 944.9 0.0 " fill="none" stroke="#434343" stroke-width="1.00" transform="matrix(1.00, 0.00, 0.00, -1.00, 40.0, 446.0)"></path></g></g></g><g opacity="0.30"><g><clipPath id="clip-3"><path d="M 627.0 281.0 L 631.0 281.0 L 631.0 413.0 L 627.0 413.0 Z M 627.0 281.0 "></path></clipPath><g clip-path="url(#clip-3)"><path d="M 0.0 0.0 L 129.4 0.0 " fill="none" stroke="#434343" stroke-width="1.00" transform="matrix(0.00, 1.00, 1.00, 0.00, 629.5, 282.3)"></path></g></g></g><text xml:space="preserve" font-family="Palatino-Italic" font-style="italic" font-size="24.0" fill="#414040" transform="matrix(1.00, 0.00, -0.00, -1.00, 44.0, 463.0)">M</text><text xml:space="preserve" font-family="Palatino-Italic" font-style="italic" font-size="24.0" fill="#414040" transform="matrix(1.00, 0.00, -0.00, -1.00, 66.6, 463.0)">a</text><text xml:space="preserve" font-family="Palatino-Italic" font-style="italic" font-size="24.0" fill="#414040" transform="matrix(1.00, 0.00, -0.00, -1.00, 77.3, 463.0)">c</text><text xml:space="preserve" font-family="Palatino-Italic" font-style="italic" font-size="24.0" fill="#414040" transform="matrix(1.00, 0.00, -0.00, -1.00, 87.1, 463.0)">i</text><text xml:space="preserve" font-family="Palatino-Italic" font-style="italic" font-size="24.0" fill="#414040" transform="matrix(1.00, 0.00, -0.00, -1.00, 93.7, 463.0)">e</text><text xml:space="preserve" font-family="Palatino-Italic" font-style="italic" font-size="24.0" fill="#414040" transform="matrix(1.00, 0.00, -0.00, -1.00, 103.1, 463.0)">j</text><text xml:space="preserve" font-family="Palatino-Italic" font-style="italic" font-size="24.0" fill="#414040" transform="matrix(1.00, 0.00, -0.00, -1.00, 109.7, 463.0)"> </text><text xml:space="preserve" font-family="Palatino-Italic" font-style="italic" font-size="24.0" fill="#414040" transform="matrix(1.00, 0.00, -0.00, -1.00, 115.7, 463.0)">K</text><text xml:space="preserve" font-family="Palatino-Italic" font-style="italic" font-size="24.0" fill="#414040" transform="matrix(1.00, 0.00, -0.00, -1.00, 131.8, 463.0)">a</text><text xml:space="preserve" font-family="Palatino-Italic" font-style="italic" font-size="24.0" fill="#414040" transform="matrix(1.00, 0.00, -0.00, -1.00, 142.4, 463.0)">s</text><text xml:space="preserve" font-family="Palatino-Italic" font-style="italic" font-size="24.0" fill="#414040" transform="matrix(1.00, 0.00, -0.00, -1.00, 151.7, 463.0)">p</text><text xml:space="preserve" font-family="Palatino-Italic" font-style="italic" font-size="24.0" fill="#414040" transform="matrix(1.00, 0.00, -0.00, -1.00, 163.7, 463.0)">r</text><text xml:space="preserve" font-family="Palatino-Italic" font-style="italic" font-size="24.0" fill="#414040" transform="matrix(1.00, 0.00, -0.00, -1.00, 173.1, 463.0)">z</text><text xml:space="preserve" font-family="Palatino-Italic" font-style="italic" font-size="24.0" fill="#414040" transform="matrix(1.00, 0.00, -0.00, -1.00, 183.7, 463.0)">y</text><text xml:space="preserve" font-family="Palatino-Italic" font-style="italic" font-size="24.0" fill="#414040" transform="matrix(1.00, 0.00, -0.00, -1.00, 195.7, 463.0)">c</text><text xml:space="preserve" font-family="Palatino-Italic" font-style="italic" font-size="24.0" fill="#414040" transform="matrix(1.00, 0.00, -0.00, -1.00, 205.5, 463.0)">k</text><text xml:space="preserve" font-family="Palatino-Italic" font-style="italic" font-size="24.0" fill="#414040" transform="matrix(1.00, 0.00, -0.00, -1.00, 216.2, 463.0)">i</text><text xml:space="preserve" font-family="BodoniSvtyTwoITCTT-Book" font-size="58.8" fill="#D93D2A" transform="matrix(1.00, 0.00, -0.00, -1.00, 44.0, 359.0)">F</text><text xml:space="preserve" font-family="BodoniSvtyTwoITCTT-Book" font-size="58.8" fill="#D93D2A" transform="matrix(1.00, 0.00, -0.00, -1.00, 75.9, 359.0)">a</text><text xml:space="preserve" font-family="BodoniSvtyTwoITCTT-Book" font-size="58.8" fill="#D93D2A" transform="matrix(1.00, 0.00, -0.00, -1.00, 99.3, 359.0)">c</text><text xml:space="preserve" font-family="BodoniSvtyTwoITCTT-Book" font-size="58.8" fill="#D93D2A" transform="matrix(1.00, 0.00, -0.00, -1.00, 123.3, 359.0)">t</text><text xml:space="preserve" font-family="BodoniSvtyTwoITCTT-Book" font-size="58.8" fill="#D93D2A" transform="matrix(1.00, 0.00, -0.00, -1.00, 140.0, 359.0)">o</text><text xml:space="preserve" font-family="BodoniSvtyTwoITCTT-Book" font-size="58.8" fill="#D93D2A" transform="matrix(1.00, 0.00, -0.00, -1.00, 168.2, 359.0)">r</text><text xml:space="preserve" font-family="BodoniSvtyTwoITCTT-Book" font-size="58.8" fill="#D93D2A" transform="matrix(1.00, 0.00, -0.00, -1.00, 188.1, 359.0)">s</text><text xml:space="preserve" font-family="BodoniSvtyTwoITCTT-Book" font-size="58.8" fill="#D93D2A" transform="matrix(1.00, 0.00, -0.00, -1.00, 209.4, 359.0)"> </text><text xml:space="preserve" font-family="BodoniSvtyTwoITCTT-Book" font-size="58.8" fill="#D93D2A" transform="matrix(1.00, 0.00, -0.00, -1.00, 220.3, 359.0)">d</text><text xml:space="preserve" font-family="BodoniSvtyTwoITCTT-Book" font-size="58.8" fill="#D93D2A" transform="matrix(1.00, 0.00, -0.00, -1.00, 248.3, 359.0)">e</text><text xml:space="preserve" font-family="BodoniSvtyTwoITCTT-Book" font-size="58.8" fill="#D93D2A" transform="matrix(1.00, 0.00, -0.00, -1.00, 273.6, 359.0)">t</text><text xml:space="preserve" font-family="BodoniSvtyTwoITCTT-Book" font-size="58.8" fill="#D93D2A" transform="matrix(1.00, 0.00, -0.00, -1.00, 290.3, 359.0)">e</text><text xml:space="preserve" font-family="BodoniSvtyTwoITCTT-Book" font-size="58.8" fill="#D93D2A" transform="matrix(1.00, 0.00, -0.00, -1.00, 315.6, 359.0)">r</text><text xml:space="preserve" font-family="BodoniSvtyTwoITCTT-Book" font-size="58.8" fill="#D93D2A" transform="matrix(1.00, 0.00, -0.00, -1.00, 335.5, 359.0)">m</text><text xml:space="preserve" font-family="BodoniSvtyTwoITCTT-Book" font-size="58.8" fill="#D93D2A" transform="matrix(1.00, 0.00, -0.00, -1.00, 376.8, 359.0)">i</text><text xml:space="preserve" font-family="BodoniSvtyTwoITCTT-Book" font-size="58.8" fill="#D93D2A" transform="matrix(1.00, 0.00, -0.00, -1.00, 391.6, 359.0)">n</text><text xml:space="preserve" font-family="BodoniSvtyTwoITCTT-Book" font-size="58.8" fill="#D93D2A" transform="matrix(1.00, 0.00, -0.00, -1.00, 420.3, 359.0)">e</text><text xml:space="preserve" font-family="BodoniSvtyTwoITCTT-Book" font-size="58.8" fill="#D93D2A" transform="matrix(1.00, 0.00, -0.00, -1.00, 445.6, 359.0)">s</text><text xml:space="preserve" font-family="BodoniSvtyTwoITCTT-Book" font-size="58.8" fill="#D93D2A" transform="matrix(1.00, 0.00, -0.00, -1.00, 466.9, 359.0)"> </text><text xml:space="preserve" font-family="BodoniSvtyTwoITCTT-Book" font-size="58.8" fill="#D93D2A" transform="matrix(1.00, 0.00, -0.00, -1.00, 477.8, 359.0)">u</text><text xml:space="preserve" font-family="BodoniSvtyTwoITCTT-Book" font-size="58.8" fill="#D93D2A" transform="matrix(1.00, 0.00, -0.00, -1.00, 506.6, 359.0)">s</text><text xml:space="preserve" font-family="BodoniSvtyTwoITCTT-Book" font-size="58.8" fill="#D93D2A" transform="matrix(1.00, 0.00, -0.00, -1.00, 527.9, 359.0)">i</text><text xml:space="preserve" font-family="BodoniSvtyTwoITCTT-Book" font-size="58.8" fill="#D93D2A" transform="matrix(1.00, 0.00, -0.00, -1.00, 542.7, 359.0)">n</text><text xml:space="preserve" font-family="BodoniSvtyTwoITCTT-Book" font-size="58.8" fill="#D93D2A" transform="matrix(1.00, 0.00, -0.00, -1.00, 571.4, 359.0)">g</text><text xml:space="preserve" font-family="BodoniSvtyTwoITCTT-Book" font-size="58.8" fill="#D93D2A" transform="matrix(1.00, 0.00, -0.00, -1.00, 598.9, 359.0)"> </text><text xml:space="preserve" font-family="BodoniSvtyTwoITCTT-Book" font-size="58.8" fill="#D93D2A" transform="matrix(1.00, 0.00, -0.00, -1.00, 44.0, 295.0)">f</text><text xml:space="preserve" font-family="BodoniSvtyTwoITCTT-Book" font-size="58.8" fill="#D93D2A" transform="matrix(1.00, 0.00, -0.00, -1.00, 59.5, 295.0)">a</text><text xml:space="preserve" font-family="BodoniSvtyTwoITCTT-Book" font-size="58.8" fill="#D93D2A" transform="matrix(1.00, 0.00, -0.00, -1.00, 82.9, 295.0)">c</text><text xml:space="preserve" font-family="BodoniSvtyTwoITCTT-Book" font-size="58.8" fill="#D93D2A" transform="matrix(1.00, 0.00, -0.00, -1.00, 106.9, 295.0)">i</text><text xml:space="preserve" font-family="BodoniSvtyTwoITCTT-Book" font-size="58.8" fill="#D93D2A" transform="matrix(1.00, 0.00, -0.00, -1.00, 121.7, 295.0)">l</text><text xml:space="preserve" font-family="BodoniSvtyTwoITCTT-Book" font-size="58.8" fill="#D93D2A" transform="matrix(1.00, 0.00, -0.00, -1.00, 135.5, 295.0)">i</text><text xml:space="preserve" font-family="BodoniSvtyTwoITCTT-Book" font-size="58.8" fill="#D93D2A" transform="matrix(1.00, 0.00, -0.00, -1.00, 150.3, 295.0)">t</text><text xml:space="preserve" font-family="BodoniSvtyTwoITCTT-Book" font-size="58.8" fill="#D93D2A" transform="matrix(1.00, 0.00, -0.00, -1.00, 167.0, 295.0)">a</text><text xml:space="preserve" font-family="BodoniSvtyTwoITCTT-Book" font-size="58.8" fill="#D93D2A" transform="matrix(1.00, 0.00, -0.00, -1.00, 190.3, 295.0)">t</text><text xml:space="preserve" font-family="BodoniSvtyTwoITCTT-Book" font-size="58.8" fill="#D93D2A" transform="matrix(1.00, 0.00, -0.00, -1.00, 207.0, 295.0)">e</text><text xml:space="preserve" font-family="BodoniSvtyTwoITCTT-Book" font-size="58.8" fill="#D93D2A" transform="matrix(1.00, 0.00, -0.00, -1.00, 232.3, 295.0)">s</text><text xml:space="preserve" font-family="BodoniSvtyTwoITCTT-Book" font-size="58.8" fill="#D93D2A" transform="matrix(1.00, 0.00, -0.00, -1.00, 253.6, 295.0)"> </text><text xml:space="preserve" font-family="BodoniSvtyTwoITCTT-Book" font-size="58.8" fill="#D93D2A" transform="matrix(1.00, 0.00, -0.00, -1.00, 264.5, 295.0)">d</text><text xml:space="preserve" font-family="BodoniSvtyTwoITCTT-Book" font-size="58.8" fill="#D93D2A" transform="matrix(1.00, 0.00, -0.00, -1.00, 292.5, 295.0)">u</text><text xml:space="preserve" font-family="BodoniSvtyTwoITCTT-Book" font-size="58.8" fill="#D93D2A" transform="matrix(1.00, 0.00, -0.00, -1.00, 321.3, 295.0)">r</text><text xml:space="preserve" font-family="BodoniSvtyTwoITCTT-Book" font-size="58.8" fill="#D93D2A" transform="matrix(1.00, 0.00, -0.00, -1.00, 341.2, 295.0)">i</text><text xml:space="preserve" font-family="BodoniSvtyTwoITCTT-Book" font-size="58.8" fill="#D93D2A" transform="matrix(1.00, 0.00, -0.00, -1.00, 355.9, 295.0)">n</text><text xml:space="preserve" font-family="BodoniSvtyTwoITCTT-Book" font-size="58.8" fill="#D93D2A" transform="matrix(1.00, 0.00, -0.00, -1.00, 384.7, 295.0)">g</text><text xml:space="preserve" font-family="BodoniSvtyTwoITCTT-Book" font-size="58.8" fill="#D93D2A" transform="matrix(1.00, 0.00, -0.00, -1.00, 412.1, 295.0)"> </text><text xml:space="preserve" font-family="BodoniSvtyTwoITCTT-Book" font-size="58.8" fill="#D93D2A" transform="matrix(1.00, 0.00, -0.00, -1.00, 423.1, 295.0)">w</text><text xml:space="preserve" font-family="BodoniSvtyTwoITCTT-Book" font-size="58.8" fill="#D93D2A" transform="matrix(1.00, 0.00, -0.00, -1.00, 458.3, 295.0)">o</text><text xml:space="preserve" font-family="BodoniSvtyTwoITCTT-Book" font-size="58.8" fill="#D93D2A" transform="matrix(1.00, 0.00, -0.00, -1.00, 486.5, 295.0)">r</text><text xml:space="preserve" font-family="BodoniSvtyTwoITCTT-Book" font-size="58.8" fill="#D93D2A" transform="matrix(1.00, 0.00, -0.00, -1.00, 506.4, 295.0)">k</text><text xml:space="preserve" font-family="Palatino-Roman" font-size="24.0" fill="#414040" transform="matrix(1.00, 0.00, -0.00, -1.00, 656.0, 338.0)">S</text><text xml:space="preserve" font-family="Palatino-Roman" font-size="24.0" fill="#414040" transform="matrix(1.00, 0.00, -0.00, -1.00, 668.6, 338.0)">u</text><text xml:space="preserve" font-family="Palatino-Roman" font-size="24.0" fill="#414040" transform="matrix(1.00, 0.00, -0.00, -1.00, 683.1, 338.0)">r</text><text xml:space="preserve" font-family="Palatino-Roman" font-size="24.0" fill="#414040" transform="matrix(1.00, 0.00, -0.00, -1.00, 692.5, 338.0)">v</text><text xml:space="preserve" font-family="Palatino-Roman" font-size="24.0" fill="#414040" transform="matrix(1.00, 0.00, -0.00, -1.00, 706.1, 338.0)">e</text><text xml:space="preserve" font-family="Palatino-Roman" font-size="24.0" fill="#414040" transform="matrix(1.00, 0.00, -0.00, -1.00, 717.6, 338.0)">y</text><text xml:space="preserve" font-family="Palatino-Roman" font-size="24.0" fill="#414040" transform="matrix(1.00, 0.00, -0.00, -1.00, 731.0, 338.0)"> </text><text xml:space="preserve" font-family="Palatino-Roman" font-size="24.0" fill="#414040" transform="matrix(1.00, 0.00, -0.00, -1.00, 737.0, 338.0)">r</text><text xml:space="preserve" font-family="Palatino-Roman" font-size="24.0" fill="#414040" transform="matrix(1.00, 0.00, -0.00, -1.00, 746.0, 338.0)">e</text><text xml:space="preserve" font-family="Palatino-Roman" font-size="24.0" fill="#414040" transform="matrix(1.00, 0.00, -0.00, -1.00, 757.5, 338.0)">s</text><text xml:space="preserve" font-family="Palatino-Roman" font-size="24.0" fill="#414040" transform="matrix(1.00, 0.00, -0.00, -1.00, 767.7, 338.0)">u</text><text xml:space="preserve" font-family="Palatino-Roman" font-size="24.0" fill="#414040" transform="matrix(1.00, 0.00, -0.00, -1.00, 782.1, 338.0)">l</text><text xml:space="preserve" font-family="Palatino-Roman" font-size="24.0" fill="#414040" transform="matrix(1.00, 0.00, -0.00, -1.00, 789.1, 338.0)">t</text><text xml:space="preserve" font-family="Palatino-Roman" font-size="24.0" fill="#414040" transform="matrix(1.00, 0.00, -0.00, -1.00, 797.0, 338.0)">s</text></g></svg>