<?xml version="1.0" encoding="UTF-8" standalone="no"?><svg xmlns="http://www.w3.org/2000/svg" xmlns:xlink="http://www.w3.org/1999/xlink" clip-rule="evenodd" stroke-miterlimit="4.00" viewBox="0 0 1024 768"><desc>SVG generated by Keynote</desc><defs><linearGradient id="gradSh1.22" x1="0.0" y1="0.0" x2="100.0" y2="0.0" gradientUnits="userSpaceOnUse" gradientTransform="matrix(0.00, -7.70, -10.26, 0.00, 512.0, 769.0)"><stop offset="0.00000" stop-color="#F1F1FB"></stop><stop offset="0.00293" stop-color="#F0F1FB"></stop><stop offset="0.97801" stop-color="#057FFF"></stop><stop offset="0.98167" stop-color="#047FFF"></stop><stop offset="1.00000" stop-color="#007DFF"></stop></linearGradient></defs><g transform="matrix(1.00, 0.00, -0.00, -1.00, 0.0, 768.0)"><g><clipPath id="clip-275"><path d="M 0.0 768.0 L 1024.0 768.0 L 1024.0 0.0 L 0.0 0.0 Z M 0.0 768.0 "></path></clipPath><g clip-path="url(#clip-275)"><path d="M 0.0 768.0 L 1024.0 768.0 L 1024.0 0.0 L 0.0 0.0 Z M 0.0 768.0 " fill="url(#gradSh1.22)"></path></g></g><image xlink:href="../../DA5D4BCE-68DC-4D38-A9E8-895E36D67940/assets/7F9D838A66E7D6264110D56B5A670854.png" width="597.00" height="75.00" transform="matrix(1.00, 0.00, -0.00, -1.00, 67.0, 678.0)"></image><text xml:space="preserve" font-family="HelveticaNeue-Light" font-size="72.0" fill="#FEFFFE" transform="matrix(1.00, 0.00, -0.00, -1.00, 66.0, 624.0)">M</text><text xml:space="preserve" font-family="HelveticaNeue-Light" font-size="72.0" fill="#FEFFFE" transform="matrix(1.00, 0.00, -0.00, -1.00, 125.1, 624.0)">e</text><text xml:space="preserve" font-family="HelveticaNeue-Light" font-size="72.0" fill="#FEFFFE" transform="matrix(1.00, 0.00, -0.00, -1.00, 162.5, 624.0)">t</text><text xml:space="preserve" font-family="HelveticaNeue-Light" font-size="72.0" fill="#FEFFFE" transform="matrix(1.00, 0.00, -0.00, -1.00, 183.8, 624.0)">o</text><text xml:space="preserve" font-family="HelveticaNeue-Light" font-size="72.0" fill="#FEFFFE" transform="matrix(1.00, 0.00, -0.00, -1.00, 223.8, 624.0)">d</text><text xml:space="preserve" font-family="HelveticaNeue-Light" font-size="72.0" fill="#FEFFFE" transform="matrix(1.00, 0.00, -0.00, -1.00, 265.2, 624.0)">y</text><text xml:space="preserve" font-family="HelveticaNeue-Light" font-size="72.0" fill="#FEFFFE" transform="matrix(1.00, 0.00, -0.00, -1.00, 298.5, 624.0)">k</text><text xml:space="preserve" font-family="HelveticaNeue-Light" font-size="72.0" fill="#FEFFFE" transform="matrix(1.00, 0.00, -0.00, -1.00, 334.5, 624.0)">a</text><text xml:space="preserve" font-family="HelveticaNeue-Light" font-size="72.0" fill="#FEFFFE" transform="matrix(1.00, 0.00, -0.00, -1.00, 371.9, 624.0)">:</text><text xml:space="preserve" font-family="HelveticaNeue-Light" font-size="72.0" fill="#FEFFFE" transform="matrix(1.00, 0.00, -0.00, -1.00, 391.9, 624.0)"> </text><text xml:space="preserve" font-family="HelveticaNeue-Light" font-size="72.0" fill="#FEFFFE" transform="matrix(1.00, 0.00, -0.00, -1.00, 411.9, 624.0)">S</text><text xml:space="preserve" font-family="HelveticaNeue-Light" font-size="72.0" fill="#FEFFFE" transform="matrix(1.00, 0.00, -0.00, -1.00, 457.2, 624.0)">C</text><text xml:space="preserve" font-family="HelveticaNeue-Light" font-size="72.0" fill="#FEFFFE" transform="matrix(1.00, 0.00, -0.00, -1.00, 507.9, 624.0)">R</text><text xml:space="preserve" font-family="HelveticaNeue-Light" font-size="72.0" fill="#FEFFFE" transform="matrix(1.00, 0.00, -0.00, -1.00, 556.0, 624.0)">U</text><text xml:space="preserve" font-family="HelveticaNeue-Light" font-size="72.0" fill="#FEFFFE" transform="matrix(1.00, 0.00, -0.00, -1.00, 605.3, 624.0)">M</text><image xlink:href="../../F1B4BC77-6245-4A11-9B6C-44A6E150CF4F/assets/EAF6C6CDEC7DBCD52B69A706E10EF119.png" width="13.00" height="14.00" transform="matrix(1.00, 0.00, -0.00, -1.00, 66.0, 489.0)"></image><g><clipPath id="clip-276"><path d="M 66.0 475.9 L 78.7 475.9 L 78.7 488.7 L 66.0 488.7 Z M 66.0 475.9 "></path></clipPath><g clip-path="url(#clip-276)"><g><g><clipPath id="clip-277"><path d="M 66.0 488.7 L 78.7 488.7 L 78.7 475.9 L 66.0 475.9 Z M 66.0 488.7 "></path></clipPath><g clip-path="url(#clip-277)"><g><clipPath id="clip-278"><path d="M 62.0 468.0 L 83.0 468.0 L 83.0 496.0 L 62.0 496.0 Z M 62.0 468.0 "></path></clipPath><g clip-path="url(#clip-278)"><path d="M 78.7 486.1 C 78.7 486.7 78.4 487.2 77.9 487.8 C 77.4 488.4 76.8 488.7 76.1 488.7 C 75.9 488.7 75.4 488.5 74.8 488.2 C 73.8 487.7 73.0 487.5 72.3 487.5 C 71.6 487.5 70.8 487.7 69.8 488.2 C 69.2 488.5 68.8 488.7 68.5 488.7 C 67.9 488.7 67.3 488.4 66.8 487.8 C 66.3 487.3 66.0 486.7 66.0 486.1 C 66.0 485.8 66.1 485.3 66.4 484.7 C 66.9 483.8 67.1 483.0 67.1 482.3 C 67.1 481.6 66.9 480.8 66.4 479.8 C 66.1 479.2 66.0 478.8 66.0 478.5 C 66.0 477.9 66.3 477.3 66.8 476.7 C 67.3 476.2 67.9 475.9 68.5 475.9 C 68.8 475.9 69.2 476.1 69.8 476.4 C 70.8 476.8 71.6 477.1 72.3 477.1 C 73.0 477.1 73.8 476.8 74.8 476.4 C 75.4 476.1 75.9 475.9 76.1 475.9 C 76.8 475.9 77.4 476.2 77.9 476.7 C 78.4 477.3 78.7 477.9 78.7 478.5 C 78.7 478.8 78.5 479.2 78.2 479.8 C 77.8 480.8 77.5 481.6 77.5 482.3 C 77.5 483.0 77.8 483.8 78.2 484.7 C 78.5 485.3 78.7 485.8 78.7 486.1 " fill="#FFFFFF"></path></g></g></g></g></g></g></g><image xlink:href="../../DA5D4BCE-68DC-4D38-A9E8-895E36D67940/assets/71456BE11B3C86A9C306AFCBB3141508.png" width="156.00" height="41.00" transform="matrix(1.00, 0.00, -0.00, -1.00, 99.0, 498.0)"></image><text xml:space="preserve" font-family="HelveticaNeue-Light" font-size="36.0" fill="#FEFFFE" transform="matrix(1.00, 0.00, -0.00, -1.00, 101.0, 471.0)">R</text><text xml:space="preserve" font-family="HelveticaNeue-Light" font-size="36.0" fill="#FEFFFE" transform="matrix(1.00, 0.00, -0.00, -1.00, 125.0, 471.0)">e</text><text xml:space="preserve" font-family="HelveticaNeue-Light" font-size="36.0" fill="#FEFFFE" transform="matrix(1.00, 0.00, -0.00, -1.00, 143.7, 471.0)">l</text><text xml:space="preserve" font-family="HelveticaNeue-Light" font-size="36.0" fill="#FEFFFE" transform="matrix(1.00, 0.00, -0.00, -1.00, 150.4, 471.0)">e</text><text xml:space="preserve" font-family="HelveticaNeue-Light" font-size="36.0" fill="#FEFFFE" transform="matrix(1.00, 0.00, -0.00, -1.00, 169.0, 471.0)">a</text><text xml:space="preserve" font-family="HelveticaNeue-Light" font-size="36.0" fill="#FEFFFE" transform="matrix(1.00, 0.00, -0.00, -1.00, 187.7, 471.0)">s</text><text xml:space="preserve" font-family="HelveticaNeue-Light" font-size="36.0" fill="#FEFFFE" transform="matrix(1.00, 0.00, -0.00, -1.00, 205.0, 471.0)">e</text><text xml:space="preserve" font-family="HelveticaNeue-Light" font-size="36.0" fill="#FEFFFE" transform="matrix(1.00, 0.00, -0.00, -1.00, 223.7, 471.0)">’</text><text xml:space="preserve" font-family="HelveticaNeue-Light" font-size="36.0" fill="#FEFFFE" transform="matrix(1.00, 0.00, -0.00, -1.00, 233.7, 471.0)">y</text><text xml:space="preserve" font-family="HelveticaNeue-Light" font-size="36.0" fill="#FEFFFE" transform="matrix(1.00, 0.00, -0.00, -1.00, 250.4, 471.0)"> </text><image xlink:href="../../F1B4BC77-6245-4A11-9B6C-44A6E150CF4F/assets/EAF6C6CDEC7DBCD52B69A706E10EF119.png" width="13.00" height="14.00" transform="matrix(1.00, 0.00, -0.00, -1.00, 66.0, 409.0)"></image><g><clipPath id="clip-279"><path d="M 66.0 395.9 L 78.7 395.9 L 78.7 408.7 L 66.0 408.7 Z M 66.0 395.9 "></path></clipPath><g clip-path="url(#clip-279)"><g><g><clipPath id="clip-280"><path d="M 66.0 408.7 L 78.7 408.7 L 78.7 395.9 L 66.0 395.9 Z M 66.0 408.7 "></path></clipPath><g clip-path="url(#clip-280)"><g><clipPath id="clip-281"><path d="M 62.0 388.0 L 83.0 388.0 L 83.0 416.0 L 62.0 416.0 Z M 62.0 388.0 "></path></clipPath><g clip-path="url(#clip-281)"><path d="M 78.7 406.1 C 78.7 406.7 78.4 407.2 77.9 407.8 C 77.4 408.4 76.8 408.7 76.1 408.7 C 75.9 408.7 75.4 408.5 74.8 408.2 C 73.8 407.7 73.0 407.5 72.3 407.5 C 71.6 407.5 70.8 407.7 69.8 408.2 C 69.2 408.5 68.8 408.7 68.5 408.7 C 67.9 408.7 67.3 408.4 66.8 407.8 C 66.3 407.3 66.0 406.7 66.0 406.1 C 66.0 405.8 66.1 405.3 66.4 404.7 C 66.9 403.8 67.1 403.0 67.1 402.3 C 67.1 401.6 66.9 400.8 66.4 399.8 C 66.1 399.2 66.0 398.8 66.0 398.5 C 66.0 397.9 66.3 397.3 66.8 396.7 C 67.3 396.2 67.9 395.9 68.5 395.9 C 68.8 395.9 69.2 396.1 69.8 396.4 C 70.8 396.8 71.6 397.1 72.3 397.1 C 73.0 397.1 73.8 396.8 74.8 396.4 C 75.4 396.1 75.9 395.9 76.1 395.9 C 76.8 395.9 77.4 396.2 77.9 396.7 C 78.4 397.3 78.7 397.9 78.7 398.5 C 78.7 398.8 78.5 399.2 78.2 399.8 C 77.8 400.8 77.5 401.6 77.5 402.3 C 77.5 403.0 77.8 403.8 78.2 404.7 C 78.5 405.3 78.7 405.8 78.7 406.1 " fill="#FFFFFF"></path></g></g></g></g></g></g></g><image xlink:href="../../DA5D4BCE-68DC-4D38-A9E8-895E36D67940/assets/B3AE05E51071E3538B2EDE4C3E2508DD.png" width="149.00" height="41.00" transform="matrix(1.00, 0.00, -0.00, -1.00, 99.0, 418.0)"></image><text xml:space="preserve" font-family="HelveticaNeue-Light" font-size="36.0" fill="#FEFFFE" transform="matrix(1.00, 0.00, -0.00, -1.00, 101.0, 391.0)">F</text><text xml:space="preserve" font-family="HelveticaNeue-Light" font-size="36.0" fill="#FEFFFE" transform="matrix(1.00, 0.00, -0.00, -1.00, 120.3, 391.0)">e</text><text xml:space="preserve" font-family="HelveticaNeue-Light" font-size="36.0" fill="#FEFFFE" transform="matrix(1.00, 0.00, -0.00, -1.00, 139.0, 391.0)">a</text><text xml:space="preserve" font-family="HelveticaNeue-Light" font-size="36.0" fill="#FEFFFE" transform="matrix(1.00, 0.00, -0.00, -1.00, 157.7, 391.0)">t</text><text xml:space="preserve" font-family="HelveticaNeue-Light" font-size="36.0" fill="#FEFFFE" transform="matrix(1.00, 0.00, -0.00, -1.00, 168.4, 391.0)">u</text><text xml:space="preserve" font-family="HelveticaNeue-Light" font-size="36.0" fill="#FEFFFE" transform="matrix(1.00, 0.00, -0.00, -1.00, 187.7, 391.0)">r</text><text xml:space="preserve" font-family="HelveticaNeue-Light" font-size="36.0" fill="#FEFFFE" transform="matrix(1.00, 0.00, -0.00, -1.00, 198.4, 391.0)">e</text><text xml:space="preserve" font-family="HelveticaNeue-Light" font-size="36.0" fill="#FEFFFE" transform="matrix(1.00, 0.00, -0.00, -1.00, 217.1, 391.0)">’</text><text xml:space="preserve" font-family="HelveticaNeue-Light" font-size="36.0" fill="#FEFFFE" transform="matrix(1.00, 0.00, -0.00, -1.00, 227.1, 391.0)">y</text><text xml:space="preserve" font-family="HelveticaNeue-Light" font-size="36.0" fill="#FEFFFE" transform="matrix(1.00, 0.00, -0.00, -1.00, 243.7, 391.0)"> </text><image xlink:href="../../F1B4BC77-6245-4A11-9B6C-44A6E150CF4F/assets/EAF6C6CDEC7DBCD52B69A706E10EF119.png" width="13.00" height="14.00" transform="matrix(1.00, 0.00, -0.00, -1.00, 66.0, 329.0)"></image><g><clipPath id="clip-282"><path d="M 66.0 315.9 L 78.7 315.9 L 78.7 328.7 L 66.0 328.7 Z M 66.0 315.9 "></path></clipPath><g clip-path="url(#clip-282)"><g><g><clipPath id="clip-283"><path d="M 66.0 328.7 L 78.7 328.7 L 78.7 315.9 L 66.0 315.9 Z M 66.0 328.7 "></path></clipPath><g clip-path="url(#clip-283)"><g><clipPath id="clip-284"><path d="M 62.0 308.0 L 83.0 308.0 L 83.0 336.0 L 62.0 336.0 Z M 62.0 308.0 "></path></clipPath><g clip-path="url(#clip-284)"><path d="M 78.7 326.1 C 78.7 326.7 78.4 327.2 77.9 327.8 C 77.4 328.4 76.8 328.7 76.1 328.7 C 75.9 328.7 75.4 328.5 74.8 328.2 C 73.8 327.7 73.0 327.5 72.3 327.5 C 71.6 327.5 70.8 327.7 69.8 328.2 C 69.2 328.5 68.8 328.7 68.5 328.7 C 67.9 328.7 67.3 328.4 66.8 327.8 C 66.3 327.3 66.0 326.7 66.0 326.1 C 66.0 325.8 66.1 325.3 66.4 324.7 C 66.9 323.8 67.1 323.0 67.1 322.3 C 67.1 321.6 66.9 320.8 66.4 319.8 C 66.1 319.2 66.0 318.8 66.0 318.5 C 66.0 317.9 66.3 317.3 66.8 316.7 C 67.3 316.2 67.9 315.9 68.5 315.9 C 68.8 315.9 69.2 316.1 69.8 316.4 C 70.8 316.8 71.6 317.1 72.3 317.1 C 73.0 317.1 73.8 316.8 74.8 316.4 C 75.4 316.1 75.9 315.9 76.1 315.9 C 76.8 315.9 77.4 316.2 77.9 316.7 C 78.4 317.3 78.7 317.9 78.7 318.5 C 78.7 318.8 78.5 319.2 78.2 319.8 C 77.8 320.8 77.5 321.6 77.5 322.3 C 77.5 323.0 77.8 323.8 78.2 324.7 C 78.5 325.3 78.7 325.8 78.7 326.1 " fill="#FFFFFF"></path></g></g></g></g></g></g></g><image xlink:href="../../DA5D4BCE-68DC-4D38-A9E8-895E36D67940/assets/1428866DF1C33EDDBE704ABB6749863F.png" width="94.00" height="35.00" transform="matrix(1.00, 0.00, -0.00, -1.00, 96.0, 338.0)"></image><text xml:space="preserve" font-family="HelveticaNeue-Light" font-size="36.0" fill="#FEFFFE" transform="matrix(1.00, 0.00, -0.00, -1.00, 101.0, 311.0)">T</text><text xml:space="preserve" font-family="HelveticaNeue-Light" font-size="36.0" fill="#FEFFFE" transform="matrix(1.00, 0.00, -0.00, -1.00, 117.0, 311.0)">a</text><text xml:space="preserve" font-family="HelveticaNeue-Light" font-size="36.0" fill="#FEFFFE" transform="matrix(1.00, 0.00, -0.00, -1.00, 135.7, 311.0)">s</text><text xml:space="preserve" font-family="HelveticaNeue-Light" font-size="36.0" fill="#FEFFFE" transform="matrix(1.00, 0.00, -0.00, -1.00, 153.0, 311.0)">k</text><text xml:space="preserve" font-family="HelveticaNeue-Light" font-size="36.0" fill="#FEFFFE" transform="matrix(1.00, 0.00, -0.00, -1.00, 171.0, 311.0)">’</text><text xml:space="preserve" font-family="HelveticaNeue-Light" font-size="36.0" fill="#FEFFFE" transform="matrix(1.00, 0.00, -0.00, -1.00, 181.0, 311.0)">i</text><text xml:space="preserve" font-family="HelveticaNeue-Light" font-size="36.0" fill="#FEFFFE" transform="matrix(1.00, 0.00, -0.00, -1.00, 187.7, 311.0)"> </text><image xlink:href="../../F1B4BC77-6245-4A11-9B6C-44A6E150CF4F/assets/DE07F9AB8193DFDF98269BE738D2089E.png" width="13.00" height="14.00" transform="matrix(1.00, 0.00, -0.00, -1.00, 66.0, 249.0)"></image><g><clipPath id="clip-285"><path d="M 66.0 235.9 L 78.7 235.9 L 78.7 248.7 L 66.0 248.7 Z M 66.0 235.9 "></path></clipPath><g clip-path="url(#clip-285)"><g><g><clipPath id="clip-286"><path d="M 66.0 248.7 L 78.7 248.7 L 78.7 235.9 L 66.0 235.9 Z M 66.0 248.7 "></path></clipPath><g clip-path="url(#clip-286)"><g><clipPath id="clip-287"><path d="M 62.0 228.0 L 83.0 228.0 L 83.0 256.0 L 62.0 256.0 Z M 62.0 228.0 "></path></clipPath><g clip-path="url(#clip-287)"><path d="M 78.7 246.1 C 78.7 246.7 78.4 247.2 77.9 247.8 C 77.4 248.4 76.8 248.7 76.1 248.7 C 75.9 248.7 75.4 248.5 74.8 248.2 C 73.8 247.7 73.0 247.5 72.3 247.5 C 71.6 247.5 70.8 247.7 69.8 248.2 C 69.2 248.5 68.8 248.7 68.5 248.7 C 67.9 248.7 67.3 248.4 66.8 247.8 C 66.3 247.3 66.0 246.7 66.0 246.1 C 66.0 245.8 66.1 245.3 66.4 244.7 C 66.9 243.8 67.1 243.0 67.1 242.3 C 67.1 241.6 66.9 240.8 66.4 239.8 C 66.1 239.2 66.0 238.8 66.0 238.5 C 66.0 237.9 66.3 237.3 66.8 236.7 C 67.3 236.2 67.9 235.9 68.5 235.9 C 68.8 235.9 69.2 236.1 69.8 236.4 C 70.8 236.8 71.6 237.1 72.3 237.1 C 73.0 237.1 73.8 236.8 74.8 236.4 C 75.4 236.1 75.9 235.9 76.1 235.9 C 76.8 235.9 77.4 236.2 77.9 236.7 C 78.4 237.3 78.7 237.9 78.7 238.5 C 78.7 238.8 78.5 239.2 78.2 239.8 C 77.8 240.8 77.5 241.6 77.5 242.3 C 77.5 243.0 77.8 243.8 78.2 244.7 C 78.5 245.3 78.7 245.8 78.7 246.1 " fill="#FFFFFF"></path></g></g></g></g></g></g></g><image xlink:href="../../DA5D4BCE-68DC-4D38-A9E8-895E36D67940/assets/B5D468E29A3D1C386FF49137654FE6E9.png" width="144.00" height="35.00" transform="matrix(1.00, 0.00, -0.00, -1.00, 99.0, 258.0)"></image><text xml:space="preserve" font-family="HelveticaNeue-Light" font-size="36.0" fill="#FEFFFE" transform="matrix(1.00, 0.00, -0.00, -1.00, 101.0, 231.0)">R</text><text xml:space="preserve" font-family="HelveticaNeue-Light" font-size="36.0" fill="#FEFFFE" transform="matrix(1.00, 0.00, -0.00, -1.00, 125.0, 231.0)">e</text><text xml:space="preserve" font-family="HelveticaNeue-Light" font-size="36.0" fill="#FEFFFE" transform="matrix(1.00, 0.00, -0.00, -1.00, 143.7, 231.0)">d</text><text xml:space="preserve" font-family="HelveticaNeue-Light" font-size="36.0" fill="#FEFFFE" transform="matrix(1.00, 0.00, -0.00, -1.00, 164.4, 231.0)">m</text><text xml:space="preserve" font-family="HelveticaNeue-Light" font-size="36.0" fill="#FEFFFE" transform="matrix(1.00, 0.00, -0.00, -1.00, 194.3, 231.0)">i</text><text xml:space="preserve" font-family="HelveticaNeue-Light" font-size="36.0" fill="#FEFFFE" transform="matrix(1.00, 0.00, -0.00, -1.00, 201.0, 231.0)">n</text><text xml:space="preserve" font-family="HelveticaNeue-Light" font-size="36.0" fill="#FEFFFE" transform="matrix(1.00, 0.00, -0.00, -1.00, 220.3, 231.0)">e</text><text xml:space="preserve" font-family="HelveticaNeue-Light" font-size="36.0" fill="#FEFFFE" transform="matrix(1.00, 0.00, -0.00, -1.00, 239.0, 231.0)"> </text><image xlink:href="../../F1B4BC77-6245-4A11-9B6C-44A6E150CF4F/assets/DE07F9AB8193DFDF98269BE738D2089E.png" width="13.00" height="14.00" transform="matrix(1.00, 0.00, -0.00, -1.00, 66.0, 169.0)"></image><g><clipPath id="clip-288"><path d="M 66.0 155.9 L 78.7 155.9 L 78.7 168.7 L 66.0 168.7 Z M 66.0 155.9 "></path></clipPath><g clip-path="url(#clip-288)"><g><g><clipPath id="clip-289"><path d="M 66.0 168.7 L 78.7 168.7 L 78.7 155.9 L 66.0 155.9 Z M 66.0 168.7 "></path></clipPath><g clip-path="url(#clip-289)"><g><clipPath id="clip-290"><path d="M 62.0 148.0 L 83.0 148.0 L 83.0 176.0 L 62.0 176.0 Z M 62.0 148.0 "></path></clipPath><g clip-path="url(#clip-290)"><path d="M 78.7 166.1 C 78.7 166.7 78.4 167.2 77.9 167.8 C 77.4 168.4 76.8 168.7 76.1 168.7 C 75.9 168.7 75.4 168.5 74.8 168.2 C 73.8 167.7 73.0 167.5 72.3 167.5 C 71.6 167.5 70.8 167.7 69.8 168.2 C 69.2 168.5 68.8 168.7 68.5 168.7 C 67.9 168.7 67.3 168.4 66.8 167.8 C 66.3 167.3 66.0 166.7 66.0 166.1 C 66.0 165.8 66.1 165.3 66.4 164.7 C 66.9 163.8 67.1 163.0 67.1 162.3 C 67.1 161.6 66.9 160.8 66.4 159.8 C 66.1 159.2 66.0 158.8 66.0 158.5 C 66.0 157.9 66.3 157.3 66.8 156.7 C 67.3 156.2 67.9 155.9 68.5 155.9 C 68.8 155.9 69.2 156.1 69.8 156.4 C 70.8 156.8 71.6 157.1 72.3 157.1 C 73.0 157.1 73.8 156.8 74.8 156.4 C 75.4 156.1 75.9 155.9 76.1 155.9 C 76.8 155.9 77.4 156.2 77.9 156.7 C 78.4 157.3 78.7 157.9 78.7 158.5 C 78.7 158.8 78.5 159.2 78.2 159.8 C 77.8 160.8 77.5 161.6 77.5 162.3 C 77.5 163.0 77.8 163.8 78.2 164.7 C 78.5 165.3 78.7 165.8 78.7 166.1 " fill="#FFFFFF"></path></g></g></g></g></g></g></g><image xlink:href="../../DA5D4BCE-68DC-4D38-A9E8-895E36D67940/assets/ECED2698E0ADCB115B0A92ADA25BE8CC.png" width="115.00" height="42.00" transform="matrix(1.00, 0.00, -0.00, -1.00, 98.0, 179.0)"></image><text xml:space="preserve" font-family="HelveticaNeue-Light" font-size="36.0" fill="#FEFFFE" transform="matrix(1.00, 0.00, -0.00, -1.00, 101.0, 151.0)">S</text><text xml:space="preserve" font-family="HelveticaNeue-Light" font-size="36.0" fill="#FEFFFE" transform="matrix(1.00, 0.00, -0.00, -1.00, 123.7, 151.0)">p</text><text xml:space="preserve" font-family="HelveticaNeue-Light" font-size="36.0" fill="#FEFFFE" transform="matrix(1.00, 0.00, -0.00, -1.00, 144.3, 151.0)">r</text><text xml:space="preserve" font-family="HelveticaNeue-Light" font-size="36.0" fill="#FEFFFE" transform="matrix(1.00, 0.00, -0.00, -1.00, 155.7, 151.0)">i</text><text xml:space="preserve" font-family="HelveticaNeue-Light" font-size="36.0" fill="#FEFFFE" transform="matrix(1.00, 0.00, -0.00, -1.00, 162.3, 151.0)">n</text><text xml:space="preserve" font-family="HelveticaNeue-Light" font-size="36.0" fill="#FEFFFE" transform="matrix(1.00, 0.00, -0.00, -1.00, 181.7, 151.0)">t</text><text xml:space="preserve" font-family="HelveticaNeue-Light" font-size="36.0" fill="#FEFFFE" transform="matrix(1.00, 0.00, -0.00, -1.00, 192.3, 151.0)">y</text><text xml:space="preserve" font-family="HelveticaNeue-Bold" font-weight="bold" font-size="14.0" fill="#FEFFFE" transform="matrix(1.00, 0.00, -0.00, -1.00, 992.1, 17.4)">1</text><text xml:space="preserve" font-family="HelveticaNeue-Bold" font-weight="bold" font-size="14.0" fill="#FEFFFE" transform="matrix(1.00, 0.00, -0.00, -1.00, 999.9, 17.4)">2</text></g></svg>