<?xml version="1.0" encoding="UTF-8" standalone="no"?><svg xmlns="http://www.w3.org/2000/svg" xmlns:xlink="http://www.w3.org/1999/xlink" clip-rule="evenodd" stroke-miterlimit="4.00" viewBox="0 0 1024 768"><desc>SVG generated by Keynote</desc><defs></defs><g transform="matrix(1.00, 0.00, -0.00, -1.00, 0.0, 768.0)"><g><clipPath id="clip-29"><path d="M 0.0 768.0 L 1024.0 768.0 L 1024.0 0.0 L 0.0 0.0 Z M 0.0 768.0 "></path></clipPath><g clip-path="url(#clip-29)"><image xlink:href="../../F4CC33EE-B913-4F83-93F5-E700039820FD/assets/50163466EC2834942505D00A94D158E6.jpeg" width="1024.00" height="768.00" transform="matrix(1.00, 0.00, -0.00, -1.00, 0.0, 768.0)"></image></g></g><g opacity="0.30"><g><clipPath id="clip-30"><path d="M 39.0 595.0 L 986.0 595.0 L 986.0 599.0 L 39.0 599.0 Z M 39.0 595.0 "></path></clipPath><g clip-path="url(#clip-30)"><path d="M 0.0 0.0 L 944.7 0.0 " fill="none" stroke="#434343" stroke-width="1.00" transform="matrix(1.00, 0.00, 0.00, -1.00, 40.0, 597.0)"></path></g></g></g><g opacity="0.30"><g><clipPath id="clip-31"><path d="M 39.0 716.0 L 986.0 716.0 L 986.0 720.0 L 39.0 720.0 Z M 39.0 716.0 "></path></clipPath><g clip-path="url(#clip-31)"><path d="M 0.0 0.0 L 944.7 0.0 " fill="none" stroke="#434343" stroke-width="1.00" transform="matrix(1.00, 0.00, 0.00, -1.00, 40.0, 718.0)"></path></g></g></g><text xml:space="preserve" font-family="BodoniSvtyTwoITCTT-Book" font-size="70.0" fill="#D93D2A" transform="matrix(1.00, 0.00, -0.00, -1.00, 259.0, 633.0)">W</text><text xml:space="preserve" font-family="BodoniSvtyTwoITCTT-Book" font-size="70.0" fill="#D93D2A" transform="matrix(1.00, 0.00, -0.00, -1.00, 322.8, 633.0)">h</text><text xml:space="preserve" font-family="BodoniSvtyTwoITCTT-Book" font-size="70.0" fill="#D93D2A" transform="matrix(1.00, 0.00, -0.00, -1.00, 356.2, 633.0)">a</text><text xml:space="preserve" font-family="BodoniSvtyTwoITCTT-Book" font-size="70.0" fill="#D93D2A" transform="matrix(1.00, 0.00, -0.00, -1.00, 384.0, 633.0)">t</text><text xml:space="preserve" font-family="BodoniSvtyTwoITCTT-Book" font-size="70.0" fill="#D93D2A" transform="matrix(1.00, 0.00, -0.00, -1.00, 403.9, 633.0)"> </text><text xml:space="preserve" font-family="BodoniSvtyTwoITCTT-Book" font-size="70.0" fill="#D93D2A" transform="matrix(1.00, 0.00, -0.00, -1.00, 416.9, 633.0)">w</text><text xml:space="preserve" font-family="BodoniSvtyTwoITCTT-Book" font-size="70.0" fill="#D93D2A" transform="matrix(1.00, 0.00, -0.00, -1.00, 458.9, 633.0)">a</text><text xml:space="preserve" font-family="BodoniSvtyTwoITCTT-Book" font-size="70.0" fill="#D93D2A" transform="matrix(1.00, 0.00, -0.00, -1.00, 486.6, 633.0)">s</text><text xml:space="preserve" font-family="BodoniSvtyTwoITCTT-Book" font-size="70.0" fill="#D93D2A" transform="matrix(1.00, 0.00, -0.00, -1.00, 512.0, 633.0)"> </text><text xml:space="preserve" font-family="BodoniSvtyTwoITCTT-Book" font-size="70.0" fill="#D93D2A" transform="matrix(1.00, 0.00, -0.00, -1.00, 525.0, 633.0)">p</text><text xml:space="preserve" font-family="BodoniSvtyTwoITCTT-Book" font-size="70.0" fill="#D93D2A" transform="matrix(1.00, 0.00, -0.00, -1.00, 559.2, 633.0)">l</text><text xml:space="preserve" font-family="BodoniSvtyTwoITCTT-Book" font-size="70.0" fill="#D93D2A" transform="matrix(1.00, 0.00, -0.00, -1.00, 575.7, 633.0)">a</text><text xml:space="preserve" font-family="BodoniSvtyTwoITCTT-Book" font-size="70.0" fill="#D93D2A" transform="matrix(1.00, 0.00, -0.00, -1.00, 603.5, 633.0)">n</text><text xml:space="preserve" font-family="BodoniSvtyTwoITCTT-Book" font-size="70.0" fill="#D93D2A" transform="matrix(1.00, 0.00, -0.00, -1.00, 637.7, 633.0)">n</text><text xml:space="preserve" font-family="BodoniSvtyTwoITCTT-Book" font-size="70.0" fill="#D93D2A" transform="matrix(1.00, 0.00, -0.00, -1.00, 671.9, 633.0)">e</text><text xml:space="preserve" font-family="BodoniSvtyTwoITCTT-Book" font-size="70.0" fill="#D93D2A" transform="matrix(1.00, 0.00, -0.00, -1.00, 702.0, 633.0)">d</text><text xml:space="preserve" font-family="BodoniSvtyTwoITCTT-Book" font-size="70.0" fill="#D93D2A" transform="matrix(1.00, 0.00, -0.00, -1.00, 735.4, 633.0)">?</text><text xml:space="preserve" font-family="ZapfDingbatsITC" font-size="21.6" fill="#919191" transform="matrix(1.00, 0.00, -0.00, -1.00, 44.0, 420.8)">❖</text><text xml:space="preserve" font-family="Palatino-Bold" font-weight="bold" font-size="36.0" fill="#00F900" transform="matrix(1.00, 0.00, -0.00, -1.00, 81.0, 415.0)">P</text><text xml:space="preserve" font-family="Palatino-Bold" font-weight="bold" font-size="36.0" fill="#00F900" transform="matrix(1.00, 0.00, -0.00, -1.00, 103.0, 415.0)">r</text><text xml:space="preserve" font-family="Palatino-Bold" font-weight="bold" font-size="36.0" fill="#00F900" transform="matrix(1.00, 0.00, -0.00, -1.00, 117.0, 415.0)">e</text><text xml:space="preserve" font-family="Palatino-Bold" font-weight="bold" font-size="36.0" fill="#00F900" transform="matrix(1.00, 0.00, -0.00, -1.00, 135.0, 415.0)">p</text><text xml:space="preserve" font-family="Palatino-Bold" font-weight="bold" font-size="36.0" fill="#00F900" transform="matrix(1.00, 0.00, -0.00, -1.00, 157.0, 415.0)">a</text><text xml:space="preserve" font-family="Palatino-Bold" font-weight="bold" font-size="36.0" fill="#00F900" transform="matrix(1.00, 0.00, -0.00, -1.00, 175.0, 415.0)">r</text><text xml:space="preserve" font-family="Palatino-Bold" font-weight="bold" font-size="36.0" fill="#00F900" transform="matrix(1.00, 0.00, -0.00, -1.00, 189.0, 415.0)">e</text><text xml:space="preserve" font-family="Palatino-Bold" font-weight="bold" font-size="36.0" fill="#00F900" transform="matrix(1.00, 0.00, -0.00, -1.00, 207.0, 415.0)"> </text><text xml:space="preserve" font-family="Palatino-Bold" font-weight="bold" font-size="36.0" fill="#00F900" transform="matrix(1.00, 0.00, -0.00, -1.00, 216.0, 415.0)">a</text><text xml:space="preserve" font-family="Palatino-Bold" font-weight="bold" font-size="36.0" fill="#00F900" transform="matrix(1.00, 0.00, -0.00, -1.00, 234.0, 415.0)">n</text><text xml:space="preserve" font-family="Palatino-Bold" font-weight="bold" font-size="36.0" fill="#00F900" transform="matrix(1.00, 0.00, -0.00, -1.00, 256.0, 415.0)"> </text><text xml:space="preserve" font-family="Palatino-Bold" font-weight="bold" font-size="36.0" fill="#00F900" transform="matrix(1.00, 0.00, -0.00, -1.00, 265.0, 415.0)">e</text><text xml:space="preserve" font-family="Palatino-Bold" font-weight="bold" font-size="36.0" fill="#00F900" transform="matrix(1.00, 0.00, -0.00, -1.00, 283.0, 415.0)">x</text><text xml:space="preserve" font-family="Palatino-Bold" font-weight="bold" font-size="36.0" fill="#00F900" transform="matrix(1.00, 0.00, -0.00, -1.00, 301.0, 415.0)">p</text><text xml:space="preserve" font-family="Palatino-Bold" font-weight="bold" font-size="36.0" fill="#00F900" transform="matrix(1.00, 0.00, -0.00, -1.00, 323.0, 415.0)">e</text><text xml:space="preserve" font-family="Palatino-Bold" font-weight="bold" font-size="36.0" fill="#00F900" transform="matrix(1.00, 0.00, -0.00, -1.00, 341.0, 415.0)">r</text><text xml:space="preserve" font-family="Palatino-Bold" font-weight="bold" font-size="36.0" fill="#00F900" transform="matrix(1.00, 0.00, -0.00, -1.00, 355.0, 415.0)">i</text><text xml:space="preserve" font-family="Palatino-Bold" font-weight="bold" font-size="36.0" fill="#00F900" transform="matrix(1.00, 0.00, -0.00, -1.00, 367.0, 415.0)">m</text><text xml:space="preserve" font-family="Palatino-Bold" font-weight="bold" font-size="36.0" fill="#00F900" transform="matrix(1.00, 0.00, -0.00, -1.00, 399.0, 415.0)">e</text><text xml:space="preserve" font-family="Palatino-Bold" font-weight="bold" font-size="36.0" fill="#00F900" transform="matrix(1.00, 0.00, -0.00, -1.00, 417.0, 415.0)">n</text><text xml:space="preserve" font-family="Palatino-Bold" font-weight="bold" font-size="36.0" fill="#00F900" transform="matrix(1.00, 0.00, -0.00, -1.00, 439.0, 415.0)">t</text><text xml:space="preserve" font-family="Palatino-Bold" font-weight="bold" font-size="36.0" fill="#00F900" transform="matrix(1.00, 0.00, -0.00, -1.00, 451.0, 415.0)"> </text><text xml:space="preserve" font-family="Palatino-Bold" font-weight="bold" font-size="36.0" fill="#00F900" transform="matrix(1.00, 0.00, -0.00, -1.00, 460.0, 415.0)">(</text><text xml:space="preserve" font-family="Palatino-Bold" font-weight="bold" font-size="36.0" fill="#00F900" transform="matrix(1.00, 0.00, -0.00, -1.00, 471.9, 415.0)">w</text><text xml:space="preserve" font-family="Palatino-Bold" font-weight="bold" font-size="36.0" fill="#00F900" transform="matrix(1.00, 0.00, -0.00, -1.00, 501.9, 415.0)">e</text><text xml:space="preserve" font-family="Palatino-Bold" font-weight="bold" font-size="36.0" fill="#00F900" transform="matrix(1.00, 0.00, -0.00, -1.00, 519.9, 415.0)">e</text><text xml:space="preserve" font-family="Palatino-Bold" font-weight="bold" font-size="36.0" fill="#00F900" transform="matrix(1.00, 0.00, -0.00, -1.00, 537.9, 415.0)">k</text><text xml:space="preserve" font-family="Palatino-Bold" font-weight="bold" font-size="36.0" fill="#00F900" transform="matrix(1.00, 0.00, -0.00, -1.00, 559.9, 415.0)"> </text><text xml:space="preserve" font-family="Palatino-Bold" font-weight="bold" font-size="36.0" fill="#00F900" transform="matrix(1.00, 0.00, -0.00, -1.00, 568.9, 415.0)">1</text><text xml:space="preserve" font-family="Palatino-Bold" font-weight="bold" font-size="36.0" fill="#00F900" transform="matrix(1.00, 0.00, -0.00, -1.00, 586.9, 415.0)">)</text><text xml:space="preserve" font-family="ZapfDingbatsITC" font-size="21.6" fill="#919191" transform="matrix(1.00, 0.00, -0.00, -1.00, 44.0, 348.8)">❖</text><text xml:space="preserve" font-family="Palatino-Bold" font-weight="bold" font-size="36.0" fill="#00F900" transform="matrix(1.00, 0.00, -0.00, -1.00, 81.0, 343.0)">E</text><text xml:space="preserve" font-family="Palatino-Bold" font-weight="bold" font-size="36.0" fill="#00F900" transform="matrix(1.00, 0.00, -0.00, -1.00, 103.0, 343.0)">x</text><text xml:space="preserve" font-family="Palatino-Bold" font-weight="bold" font-size="36.0" fill="#00F900" transform="matrix(1.00, 0.00, -0.00, -1.00, 121.0, 343.0)">e</text><text xml:space="preserve" font-family="Palatino-Bold" font-weight="bold" font-size="36.0" fill="#00F900" transform="matrix(1.00, 0.00, -0.00, -1.00, 139.0, 343.0)">c</text><text xml:space="preserve" font-family="Palatino-Bold" font-weight="bold" font-size="36.0" fill="#00F900" transform="matrix(1.00, 0.00, -0.00, -1.00, 155.0, 343.0)">u</text><text xml:space="preserve" font-family="Palatino-Bold" font-weight="bold" font-size="36.0" fill="#00F900" transform="matrix(1.00, 0.00, -0.00, -1.00, 176.9, 343.0)">t</text><text xml:space="preserve" font-family="Palatino-Bold" font-weight="bold" font-size="36.0" fill="#00F900" transform="matrix(1.00, 0.00, -0.00, -1.00, 188.9, 343.0)">e</text><text xml:space="preserve" font-family="Palatino-Bold" font-weight="bold" font-size="36.0" fill="#00F900" transform="matrix(1.00, 0.00, -0.00, -1.00, 206.9, 343.0)"> </text><text xml:space="preserve" font-family="Palatino-Bold" font-weight="bold" font-size="36.0" fill="#00F900" transform="matrix(1.00, 0.00, -0.00, -1.00, 215.9, 343.0)">a</text><text xml:space="preserve" font-family="Palatino-Bold" font-weight="bold" font-size="36.0" fill="#00F900" transform="matrix(1.00, 0.00, -0.00, -1.00, 233.9, 343.0)">n</text><text xml:space="preserve" font-family="Palatino-Bold" font-weight="bold" font-size="36.0" fill="#00F900" transform="matrix(1.00, 0.00, -0.00, -1.00, 255.9, 343.0)"> </text><text xml:space="preserve" font-family="Palatino-Bold" font-weight="bold" font-size="36.0" fill="#00F900" transform="matrix(1.00, 0.00, -0.00, -1.00, 264.9, 343.0)">e</text><text xml:space="preserve" font-family="Palatino-Bold" font-weight="bold" font-size="36.0" fill="#00F900" transform="matrix(1.00, 0.00, -0.00, -1.00, 282.9, 343.0)">x</text><text xml:space="preserve" font-family="Palatino-Bold" font-weight="bold" font-size="36.0" fill="#00F900" transform="matrix(1.00, 0.00, -0.00, -1.00, 300.9, 343.0)">p</text><text xml:space="preserve" font-family="Palatino-Bold" font-weight="bold" font-size="36.0" fill="#00F900" transform="matrix(1.00, 0.00, -0.00, -1.00, 322.9, 343.0)">e</text><text xml:space="preserve" font-family="Palatino-Bold" font-weight="bold" font-size="36.0" fill="#00F900" transform="matrix(1.00, 0.00, -0.00, -1.00, 340.9, 343.0)">r</text><text xml:space="preserve" font-family="Palatino-Bold" font-weight="bold" font-size="36.0" fill="#00F900" transform="matrix(1.00, 0.00, -0.00, -1.00, 354.9, 343.0)">i</text><text xml:space="preserve" font-family="Palatino-Bold" font-weight="bold" font-size="36.0" fill="#00F900" transform="matrix(1.00, 0.00, -0.00, -1.00, 366.9, 343.0)">m</text><text xml:space="preserve" font-family="Palatino-Bold" font-weight="bold" font-size="36.0" fill="#00F900" transform="matrix(1.00, 0.00, -0.00, -1.00, 398.9, 343.0)">e</text><text xml:space="preserve" font-family="Palatino-Bold" font-weight="bold" font-size="36.0" fill="#00F900" transform="matrix(1.00, 0.00, -0.00, -1.00, 416.9, 343.0)">n</text><text xml:space="preserve" font-family="Palatino-Bold" font-weight="bold" font-size="36.0" fill="#00F900" transform="matrix(1.00, 0.00, -0.00, -1.00, 438.9, 343.0)">t</text><text xml:space="preserve" font-family="Palatino-Bold" font-weight="bold" font-size="36.0" fill="#00F900" transform="matrix(1.00, 0.00, -0.00, -1.00, 450.9, 343.0)"> </text><text xml:space="preserve" font-family="Palatino-Bold" font-weight="bold" font-size="36.0" fill="#00F900" transform="matrix(1.00, 0.00, -0.00, -1.00, 459.9, 343.0)">(</text><text xml:space="preserve" font-family="Palatino-Bold" font-weight="bold" font-size="36.0" fill="#00F900" transform="matrix(1.00, 0.00, -0.00, -1.00, 471.9, 343.0)">w</text><text xml:space="preserve" font-family="Palatino-Bold" font-weight="bold" font-size="36.0" fill="#00F900" transform="matrix(1.00, 0.00, -0.00, -1.00, 501.9, 343.0)">e</text><text xml:space="preserve" font-family="Palatino-Bold" font-weight="bold" font-size="36.0" fill="#00F900" transform="matrix(1.00, 0.00, -0.00, -1.00, 519.9, 343.0)">e</text><text xml:space="preserve" font-family="Palatino-Bold" font-weight="bold" font-size="36.0" fill="#00F900" transform="matrix(1.00, 0.00, -0.00, -1.00, 537.9, 343.0)">k</text><text xml:space="preserve" font-family="Palatino-Bold" font-weight="bold" font-size="36.0" fill="#00F900" transform="matrix(1.00, 0.00, -0.00, -1.00, 559.8, 343.0)"> </text><text xml:space="preserve" font-family="Palatino-Bold" font-weight="bold" font-size="36.0" fill="#00F900" transform="matrix(1.00, 0.00, -0.00, -1.00, 568.8, 343.0)">2</text><text xml:space="preserve" font-family="Palatino-Bold" font-weight="bold" font-size="36.0" fill="#00F900" transform="matrix(1.00, 0.00, -0.00, -1.00, 586.8, 343.0)">)</text><text xml:space="preserve" font-family="ZapfDingbatsITC" font-size="21.6" fill="#919191" transform="matrix(1.00, 0.00, -0.00, -1.00, 44.0, 276.8)">❖</text><text xml:space="preserve" font-family="Palatino-Bold" font-weight="bold" font-size="36.0" fill="#FEFB00" transform="matrix(1.00, 0.00, -0.00, -1.00, 81.0, 271.0)">A</text><text xml:space="preserve" font-family="Palatino-Bold" font-weight="bold" font-size="36.0" fill="#FEFB00" transform="matrix(1.00, 0.00, -0.00, -1.00, 109.0, 271.0)">n</text><text xml:space="preserve" font-family="Palatino-Bold" font-weight="bold" font-size="36.0" fill="#FEFB00" transform="matrix(1.00, 0.00, -0.00, -1.00, 131.0, 271.0)">a</text><text xml:space="preserve" font-family="Palatino-Bold" font-weight="bold" font-size="36.0" fill="#FEFB00" transform="matrix(1.00, 0.00, -0.00, -1.00, 149.0, 271.0)">l</text><text xml:space="preserve" font-family="Palatino-Bold" font-weight="bold" font-size="36.0" fill="#FEFB00" transform="matrix(1.00, 0.00, -0.00, -1.00, 161.0, 271.0)">y</text><text xml:space="preserve" font-family="Palatino-Bold" font-weight="bold" font-size="36.0" fill="#FEFB00" transform="matrix(1.00, 0.00, -0.00, -1.00, 181.0, 271.0)">z</text><text xml:space="preserve" font-family="Palatino-Bold" font-weight="bold" font-size="36.0" fill="#FEFB00" transform="matrix(1.00, 0.00, -0.00, -1.00, 199.0, 271.0)">e</text><text xml:space="preserve" font-family="Palatino-Bold" font-weight="bold" font-size="36.0" fill="#FEFB00" transform="matrix(1.00, 0.00, -0.00, -1.00, 217.0, 271.0)"> </text><text xml:space="preserve" font-family="Palatino-Bold" font-weight="bold" font-size="36.0" fill="#FEFB00" transform="matrix(1.00, 0.00, -0.00, -1.00, 226.0, 271.0)">r</text><text xml:space="preserve" font-family="Palatino-Bold" font-weight="bold" font-size="36.0" fill="#FEFB00" transform="matrix(1.00, 0.00, -0.00, -1.00, 240.0, 271.0)">e</text><text xml:space="preserve" font-family="Palatino-Bold" font-weight="bold" font-size="36.0" fill="#FEFB00" transform="matrix(1.00, 0.00, -0.00, -1.00, 258.0, 271.0)">s</text><text xml:space="preserve" font-family="Palatino-Bold" font-weight="bold" font-size="36.0" fill="#FEFB00" transform="matrix(1.00, 0.00, -0.00, -1.00, 274.0, 271.0)">u</text><text xml:space="preserve" font-family="Palatino-Bold" font-weight="bold" font-size="36.0" fill="#FEFB00" transform="matrix(1.00, 0.00, -0.00, -1.00, 296.0, 271.0)">l</text><text xml:space="preserve" font-family="Palatino-Bold" font-weight="bold" font-size="36.0" fill="#FEFB00" transform="matrix(1.00, 0.00, -0.00, -1.00, 308.0, 271.0)">t</text><text xml:space="preserve" font-family="Palatino-Bold" font-weight="bold" font-size="36.0" fill="#FEFB00" transform="matrix(1.00, 0.00, -0.00, -1.00, 319.9, 271.0)">s</text><text xml:space="preserve" font-family="Palatino-Bold" font-weight="bold" font-size="36.0" fill="#FEFB00" transform="matrix(1.00, 0.00, -0.00, -1.00, 335.9, 271.0)"> </text><text xml:space="preserve" font-family="Palatino-Bold" font-weight="bold" font-size="36.0" fill="#FEFB00" transform="matrix(1.00, 0.00, -0.00, -1.00, 344.9, 271.0)">(</text><text xml:space="preserve" font-family="Palatino-Bold" font-weight="bold" font-size="36.0" fill="#FEFB00" transform="matrix(1.00, 0.00, -0.00, -1.00, 356.9, 271.0)">w</text><text xml:space="preserve" font-family="Palatino-Bold" font-weight="bold" font-size="36.0" fill="#FEFB00" transform="matrix(1.00, 0.00, -0.00, -1.00, 386.9, 271.0)">e</text><text xml:space="preserve" font-family="Palatino-Bold" font-weight="bold" font-size="36.0" fill="#FEFB00" transform="matrix(1.00, 0.00, -0.00, -1.00, 404.9, 271.0)">e</text><text xml:space="preserve" font-family="Palatino-Bold" font-weight="bold" font-size="36.0" fill="#FEFB00" transform="matrix(1.00, 0.00, -0.00, -1.00, 422.9, 271.0)">k</text><text xml:space="preserve" font-family="Palatino-Bold" font-weight="bold" font-size="36.0" fill="#FEFB00" transform="matrix(1.00, 0.00, -0.00, -1.00, 444.9, 271.0)"> </text><text xml:space="preserve" font-family="Palatino-Bold" font-weight="bold" font-size="36.0" fill="#FEFB00" transform="matrix(1.00, 0.00, -0.00, -1.00, 453.9, 271.0)">3</text><text xml:space="preserve" font-family="Palatino-Bold" font-weight="bold" font-size="36.0" fill="#FEFB00" transform="matrix(1.00, 0.00, -0.00, -1.00, 471.9, 271.0)">-</text><text xml:space="preserve" font-family="Palatino-Bold" font-weight="bold" font-size="36.0" fill="#FEFB00" transform="matrix(1.00, 0.00, -0.00, -1.00, 483.9, 271.0)">4</text><text xml:space="preserve" font-family="Palatino-Bold" font-weight="bold" font-size="36.0" fill="#FEFB00" transform="matrix(1.00, 0.00, -0.00, -1.00, 501.9, 271.0)">)</text><text xml:space="preserve" font-family="ZapfDingbatsITC" font-size="21.6" fill="#919191" transform="matrix(1.00, 0.00, -0.00, -1.00, 44.0, 204.8)">❖</text><text xml:space="preserve" font-family="Palatino-Bold" font-weight="bold" font-size="36.0" fill="#00F900" transform="matrix(1.00, 0.00, -0.00, -1.00, 81.0, 199.0)">P</text><text xml:space="preserve" font-family="Palatino-Bold" font-weight="bold" font-size="36.0" fill="#00F900" transform="matrix(1.00, 0.00, -0.00, -1.00, 103.0, 199.0)">r</text><text xml:space="preserve" font-family="Palatino-Bold" font-weight="bold" font-size="36.0" fill="#00F900" transform="matrix(1.00, 0.00, -0.00, -1.00, 117.0, 199.0)">e</text><text xml:space="preserve" font-family="Palatino-Bold" font-weight="bold" font-size="36.0" fill="#00F900" transform="matrix(1.00, 0.00, -0.00, -1.00, 135.0, 199.0)">p</text><text xml:space="preserve" font-family="Palatino-Bold" font-weight="bold" font-size="36.0" fill="#00F900" transform="matrix(1.00, 0.00, -0.00, -1.00, 157.0, 199.0)">a</text><text xml:space="preserve" font-family="Palatino-Bold" font-weight="bold" font-size="36.0" fill="#00F900" transform="matrix(1.00, 0.00, -0.00, -1.00, 175.0, 199.0)">r</text><text xml:space="preserve" font-family="Palatino-Bold" font-weight="bold" font-size="36.0" fill="#00F900" transform="matrix(1.00, 0.00, -0.00, -1.00, 189.0, 199.0)">e</text><text xml:space="preserve" font-family="Palatino-Bold" font-weight="bold" font-size="36.0" fill="#00F900" transform="matrix(1.00, 0.00, -0.00, -1.00, 207.0, 199.0)"> </text><text xml:space="preserve" font-family="Palatino-Bold" font-weight="bold" font-size="36.0" fill="#00F900" transform="matrix(1.00, 0.00, -0.00, -1.00, 216.0, 199.0)">t</text><text xml:space="preserve" font-family="Palatino-Bold" font-weight="bold" font-size="36.0" fill="#00F900" transform="matrix(1.00, 0.00, -0.00, -1.00, 228.0, 199.0)">w</text><text xml:space="preserve" font-family="Palatino-Bold" font-weight="bold" font-size="36.0" fill="#00F900" transform="matrix(1.00, 0.00, -0.00, -1.00, 258.0, 199.0)">o</text><text xml:space="preserve" font-family="Palatino-Bold" font-weight="bold" font-size="36.0" fill="#00F900" transform="matrix(1.00, 0.00, -0.00, -1.00, 278.0, 199.0)"> </text><text xml:space="preserve" font-family="Palatino-Bold" font-weight="bold" font-size="36.0" fill="#00F900" transform="matrix(1.00, 0.00, -0.00, -1.00, 287.0, 199.0)">t</text><text xml:space="preserve" font-family="Palatino-Bold" font-weight="bold" font-size="36.0" fill="#00F900" transform="matrix(1.00, 0.00, -0.00, -1.00, 299.0, 199.0)">h</text><text xml:space="preserve" font-family="Palatino-Bold" font-weight="bold" font-size="36.0" fill="#00F900" transform="matrix(1.00, 0.00, -0.00, -1.00, 321.0, 199.0)">e</text><text xml:space="preserve" font-family="Palatino-Bold" font-weight="bold" font-size="36.0" fill="#00F900" transform="matrix(1.00, 0.00, -0.00, -1.00, 339.0, 199.0)">s</text><text xml:space="preserve" font-family="Palatino-Bold" font-weight="bold" font-size="36.0" fill="#00F900" transform="matrix(1.00, 0.00, -0.00, -1.00, 354.9, 199.0)">i</text><text xml:space="preserve" font-family="Palatino-Bold" font-weight="bold" font-size="36.0" fill="#00F900" transform="matrix(1.00, 0.00, -0.00, -1.00, 366.9, 199.0)">s</text><text xml:space="preserve" font-family="Palatino-Bold" font-weight="bold" font-size="36.0" fill="#00F900" transform="matrix(1.00, 0.00, -0.00, -1.00, 382.9, 199.0)"> </text><text xml:space="preserve" font-family="Palatino-Bold" font-weight="bold" font-size="36.0" fill="#00F900" transform="matrix(1.00, 0.00, -0.00, -1.00, 391.9, 199.0)">c</text><text xml:space="preserve" font-family="Palatino-Bold" font-weight="bold" font-size="36.0" fill="#00F900" transform="matrix(1.00, 0.00, -0.00, -1.00, 407.9, 199.0)">h</text><text xml:space="preserve" font-family="Palatino-Bold" font-weight="bold" font-size="36.0" fill="#00F900" transform="matrix(1.00, 0.00, -0.00, -1.00, 429.9, 199.0)">a</text><text xml:space="preserve" font-family="Palatino-Bold" font-weight="bold" font-size="36.0" fill="#00F900" transform="matrix(1.00, 0.00, -0.00, -1.00, 447.9, 199.0)">p</text><text xml:space="preserve" font-family="Palatino-Bold" font-weight="bold" font-size="36.0" fill="#00F900" transform="matrix(1.00, 0.00, -0.00, -1.00, 469.8, 199.0)">t</text><text xml:space="preserve" font-family="Palatino-Bold" font-weight="bold" font-size="36.0" fill="#00F900" transform="matrix(1.00, 0.00, -0.00, -1.00, 481.8, 199.0)">e</text><text xml:space="preserve" font-family="Palatino-Bold" font-weight="bold" font-size="36.0" fill="#00F900" transform="matrix(1.00, 0.00, -0.00, -1.00, 499.8, 199.0)">r</text></g></svg>