<?xml version="1.0" encoding="UTF-8" standalone="no"?><svg xmlns="http://www.w3.org/2000/svg" xmlns:xlink="http://www.w3.org/1999/xlink" clip-rule="evenodd" stroke-miterlimit="4.00" viewBox="0 0 1024 768"><desc>SVG generated by Keynote</desc><defs></defs><g transform="matrix(1.00, 0.00, -0.00, -1.00, 0.0, 768.0)"><g><clipPath id="clip-0"><path d="M 0.0 768.0 L 1024.0 768.0 L 1024.0 0.0 L 0.0 0.0 Z M 0.0 768.0 "></path></clipPath><g clip-path="url(#clip-0)"><image xlink:href="50163466EC2834942505D00A94D158E6.jpeg" width="1024.00" height="768.00" transform="matrix(1.00, 0.00, -0.00, -1.00, 0.0, 768.0)"></image></g></g><g opacity="0.30"><g><clipPath id="clip-1"><path d="M 39.0 247.0 L 986.0 247.0 L 986.0 251.0 L 39.0 251.0 Z M 39.0 247.0 "></path></clipPath><g clip-path="url(#clip-1)"><path d="M 0.0 0.0 L 944.8 0.0 " fill="none" stroke="#434343" stroke-width="1.00" transform="matrix(1.00, 0.00, 0.00, -1.00, 40.0, 249.0)"></path></g></g></g><g opacity="0.30"><g><clipPath id="clip-2"><path d="M 39.0 444.0 L 986.0 444.0 L 986.0 448.0 L 39.0 448.0 Z M 39.0 444.0 "></path></clipPath><g clip-path="url(#clip-2)"><path d="M 0.0 0.0 L 944.9 0.0 " fill="none" stroke="#434343" stroke-width="1.00" transform="matrix(1.00, 0.00, 0.00, -1.00, 40.0, 446.0)"></path></g></g></g><g opacity="0.30"><g><clipPath id="clip-3"><path d="M 627.0 281.0 L 631.0 281.0 L 631.0 413.0 L 627.0 413.0 Z M 627.0 281.0 "></path></clipPath><g clip-path="url(#clip-3)"><path d="M 0.0 0.0 L 129.4 0.0 " fill="none" stroke="#434343" stroke-width="1.00" transform="matrix(0.00, 1.00, 1.00, 0.00, 629.5, 282.3)"></path></g></g></g><text xml:space="preserve" font-family="Palatino-Italic" font-style="italic" font-size="24.0" fill="#414040" transform="matrix(1.00, 0.00, -0.00, -1.00, 44.0, 463.0)">N</text><text xml:space="preserve" font-family="Palatino-Italic" font-style="italic" font-size="24.0" fill="#414040" transform="matrix(1.00, 0.00, -0.00, -1.00, 62.7, 463.0)">T</text><text xml:space="preserve" font-family="Palatino-Italic" font-style="italic" font-size="24.0" fill="#414040" transform="matrix(1.00, 0.00, -0.00, -1.00, 77.3, 463.0)">T</text><text xml:space="preserve" font-family="Palatino-Italic" font-style="italic" font-size="24.0" fill="#414040" transform="matrix(1.00, 0.00, -0.00, -1.00, 92.0, 463.0)">M</text><text xml:space="preserve" font-family="Palatino-Italic" font-style="italic" font-size="24.0" fill="#414040" transform="matrix(1.00, 0.00, -0.00, -1.00, 114.6, 463.0)"> </text><text xml:space="preserve" font-family="Palatino-Italic" font-style="italic" font-size="24.0" fill="#414040" transform="matrix(1.00, 0.00, -0.00, -1.00, 120.6, 463.0)">2</text><text xml:space="preserve" font-family="Palatino-Italic" font-style="italic" font-size="24.0" fill="#414040" transform="matrix(1.00, 0.00, -0.00, -1.00, 132.6, 463.0)">0</text><text xml:space="preserve" font-family="Palatino-Italic" font-style="italic" font-size="24.0" fill="#414040" transform="matrix(1.00, 0.00, -0.00, -1.00, 144.6, 463.0)">1</text><text xml:space="preserve" font-family="Palatino-Italic" font-style="italic" font-size="24.0" fill="#414040" transform="matrix(1.00, 0.00, -0.00, -1.00, 156.6, 463.0)">7</text><text xml:space="preserve" font-family="BodoniSvtyTwoITCTT-Book" font-size="53.9" fill="#D93D2A" transform="matrix(1.00, 0.00, -0.00, -1.00, 44.0, 387.0)">G</text><text xml:space="preserve" font-family="BodoniSvtyTwoITCTT-Book" font-size="53.9" fill="#D93D2A" transform="matrix(1.00, 0.00, -0.00, -1.00, 79.8, 387.0)">u</text><text xml:space="preserve" font-family="BodoniSvtyTwoITCTT-Book" font-size="53.9" fill="#D93D2A" transform="matrix(1.00, 0.00, -0.00, -1.00, 106.3, 387.0)">i</text><text xml:space="preserve" font-family="BodoniSvtyTwoITCTT-Book" font-size="53.9" fill="#D93D2A" transform="matrix(1.00, 0.00, -0.00, -1.00, 119.8, 387.0)">d</text><text xml:space="preserve" font-family="BodoniSvtyTwoITCTT-Book" font-size="53.9" fill="#D93D2A" transform="matrix(1.00, 0.00, -0.00, -1.00, 145.4, 387.0)">e</text><text xml:space="preserve" font-family="BodoniSvtyTwoITCTT-Book" font-size="53.9" fill="#D93D2A" transform="matrix(1.00, 0.00, -0.00, -1.00, 168.6, 387.0)">l</text><text xml:space="preserve" font-family="BodoniSvtyTwoITCTT-Book" font-size="53.9" fill="#D93D2A" transform="matrix(1.00, 0.00, -0.00, -1.00, 181.3, 387.0)">i</text><text xml:space="preserve" font-family="BodoniSvtyTwoITCTT-Book" font-size="53.9" fill="#D93D2A" transform="matrix(1.00, 0.00, -0.00, -1.00, 194.8, 387.0)">n</text><text xml:space="preserve" font-family="BodoniSvtyTwoITCTT-Book" font-size="53.9" fill="#D93D2A" transform="matrix(1.00, 0.00, -0.00, -1.00, 221.2, 387.0)">e</text><text xml:space="preserve" font-family="BodoniSvtyTwoITCTT-Book" font-size="53.9" fill="#D93D2A" transform="matrix(1.00, 0.00, -0.00, -1.00, 244.3, 387.0)">s</text><text xml:space="preserve" font-family="BodoniSvtyTwoITCTT-Book" font-size="53.9" fill="#D93D2A" transform="matrix(1.00, 0.00, -0.00, -1.00, 263.9, 387.0)"> </text><text xml:space="preserve" font-family="BodoniSvtyTwoITCTT-Book" font-size="53.9" fill="#D93D2A" transform="matrix(1.00, 0.00, -0.00, -1.00, 273.9, 387.0)">w</text><text xml:space="preserve" font-family="BodoniSvtyTwoITCTT-Book" font-size="53.9" fill="#D93D2A" transform="matrix(1.00, 0.00, -0.00, -1.00, 306.2, 387.0)"> </text><text xml:space="preserve" font-family="BodoniSvtyTwoITCTT-Book" font-size="53.9" fill="#D93D2A" transform="matrix(1.00, 0.00, -0.00, -1.00, 316.2, 387.0)">a</text><text xml:space="preserve" font-family="BodoniSvtyTwoITCTT-Book" font-size="53.9" fill="#D93D2A" transform="matrix(1.00, 0.00, -0.00, -1.00, 337.6, 387.0)">p</text><text xml:space="preserve" font-family="BodoniSvtyTwoITCTT-Book" font-size="53.9" fill="#D93D2A" transform="matrix(1.00, 0.00, -0.00, -1.00, 364.0, 387.0)">l</text><text xml:space="preserve" font-family="BodoniSvtyTwoITCTT-Book" font-size="53.9" fill="#D93D2A" transform="matrix(1.00, 0.00, -0.00, -1.00, 376.6, 387.0)">i</text><text xml:space="preserve" font-family="BodoniSvtyTwoITCTT-Book" font-size="53.9" fill="#D93D2A" transform="matrix(1.00, 0.00, -0.00, -1.00, 390.1, 387.0)">k</text><text xml:space="preserve" font-family="BodoniSvtyTwoITCTT-Book" font-size="53.9" fill="#D93D2A" transform="matrix(1.00, 0.00, -0.00, -1.00, 415.4, 387.0)">a</text><text xml:space="preserve" font-family="BodoniSvtyTwoITCTT-Book" font-size="53.9" fill="#D93D2A" transform="matrix(1.00, 0.00, -0.00, -1.00, 436.8, 387.0)">c</text><text xml:space="preserve" font-family="BodoniSvtyTwoITCTT-Book" font-size="53.9" fill="#D93D2A" transform="matrix(1.00, 0.00, -0.00, -1.00, 458.9, 387.0)">j</text><text xml:space="preserve" font-family="BodoniSvtyTwoITCTT-Book" font-size="53.9" fill="#D93D2A" transform="matrix(1.00, 0.00, -0.00, -1.00, 471.6, 387.0)">a</text><text xml:space="preserve" font-family="BodoniSvtyTwoITCTT-Book" font-size="53.9" fill="#D93D2A" transform="matrix(1.00, 0.00, -0.00, -1.00, 493.0, 387.0)">c</text><text xml:space="preserve" font-family="BodoniSvtyTwoITCTT-Book" font-size="53.9" fill="#D93D2A" transform="matrix(1.00, 0.00, -0.00, -1.00, 515.1, 387.0)">h</text><text xml:space="preserve" font-family="BodoniSvtyTwoITCTT-Book" font-size="53.9" fill="#D93D2A" transform="matrix(1.00, 0.00, -0.00, -1.00, 540.8, 387.0)"> </text><text xml:space="preserve" font-family="BodoniSvtyTwoITCTT-Book" font-size="53.9" fill="#D93D2A" transform="matrix(1.00, 0.00, -0.00, -1.00, 44.0, 330.0)">m</text><text xml:space="preserve" font-family="BodoniSvtyTwoITCTT-Book" font-size="53.9" fill="#D93D2A" transform="matrix(1.00, 0.00, -0.00, -1.00, 81.9, 330.0)">o</text><text xml:space="preserve" font-family="BodoniSvtyTwoITCTT-Book" font-size="53.9" fill="#D93D2A" transform="matrix(1.00, 0.00, -0.00, -1.00, 107.8, 330.0)">b</text><text xml:space="preserve" font-family="BodoniSvtyTwoITCTT-Book" font-size="53.9" fill="#D93D2A" transform="matrix(1.00, 0.00, -0.00, -1.00, 133.7, 330.0)">i</text><text xml:space="preserve" font-family="BodoniSvtyTwoITCTT-Book" font-size="53.9" fill="#D93D2A" transform="matrix(1.00, 0.00, -0.00, -1.00, 147.2, 330.0)">l</text><text xml:space="preserve" font-family="BodoniSvtyTwoITCTT-Book" font-size="53.9" fill="#D93D2A" transform="matrix(1.00, 0.00, -0.00, -1.00, 159.9, 330.0)">n</text><text xml:space="preserve" font-family="BodoniSvtyTwoITCTT-Book" font-size="53.9" fill="#D93D2A" transform="matrix(1.00, 0.00, -0.00, -1.00, 186.2, 330.0)">y</text><text xml:space="preserve" font-family="BodoniSvtyTwoITCTT-Book" font-size="53.9" fill="#D93D2A" transform="matrix(1.00, 0.00, -0.00, -1.00, 207.9, 330.0)">c</text><text xml:space="preserve" font-family="BodoniSvtyTwoITCTT-Book" font-size="53.9" fill="#D93D2A" transform="matrix(1.00, 0.00, -0.00, -1.00, 229.9, 330.0)">h</text><text xml:space="preserve" font-family="BodoniSvtyTwoITCTT-Book" font-size="53.9" fill="#D93D2A" transform="matrix(1.00, 0.00, -0.00, -1.00, 255.6, 330.0)"> </text><text xml:space="preserve" font-family="BodoniSvtyTwoITCTT-Book" font-size="53.9" fill="#D93D2A" transform="matrix(1.00, 0.00, -0.00, -1.00, 265.6, 330.0)">n</text><text xml:space="preserve" font-family="BodoniSvtyTwoITCTT-Book" font-size="53.9" fill="#D93D2A" transform="matrix(1.00, 0.00, -0.00, -1.00, 292.0, 330.0)">a</text><text xml:space="preserve" font-family="BodoniSvtyTwoITCTT-Book" font-size="53.9" fill="#D93D2A" transform="matrix(1.00, 0.00, -0.00, -1.00, 313.4, 330.0)"> </text><text xml:space="preserve" font-family="BodoniSvtyTwoITCTT-Book" font-size="53.9" fill="#D93D2A" transform="matrix(1.00, 0.00, -0.00, -1.00, 323.4, 330.0)">p</text><text xml:space="preserve" font-family="BodoniSvtyTwoITCTT-Book" font-size="53.9" fill="#D93D2A" transform="matrix(1.00, 0.00, -0.00, -1.00, 349.8, 330.0)">l</text><text xml:space="preserve" font-family="BodoniSvtyTwoITCTT-Book" font-size="53.9" fill="#D93D2A" transform="matrix(1.00, 0.00, -0.00, -1.00, 362.4, 330.0)">a</text><text xml:space="preserve" font-family="BodoniSvtyTwoITCTT-Book" font-size="53.9" fill="#D93D2A" transform="matrix(1.00, 0.00, -0.00, -1.00, 383.8, 330.0)">t</text><text xml:space="preserve" font-family="BodoniSvtyTwoITCTT-Book" font-size="53.9" fill="#D93D2A" transform="matrix(1.00, 0.00, -0.00, -1.00, 399.1, 330.0)">f</text><text xml:space="preserve" font-family="BodoniSvtyTwoITCTT-Book" font-size="53.9" fill="#D93D2A" transform="matrix(1.00, 0.00, -0.00, -1.00, 413.4, 330.0)">o</text><text xml:space="preserve" font-family="BodoniSvtyTwoITCTT-Book" font-size="53.9" fill="#D93D2A" transform="matrix(1.00, 0.00, -0.00, -1.00, 439.2, 330.0)">r</text><text xml:space="preserve" font-family="BodoniSvtyTwoITCTT-Book" font-size="53.9" fill="#D93D2A" transform="matrix(1.00, 0.00, -0.00, -1.00, 457.5, 330.0)">m</text><text xml:space="preserve" font-family="BodoniSvtyTwoITCTT-Book" font-size="53.9" fill="#D93D2A" transform="matrix(1.00, 0.00, -0.00, -1.00, 495.4, 330.0)">a</text><text xml:space="preserve" font-family="BodoniSvtyTwoITCTT-Book" font-size="53.9" fill="#D93D2A" transform="matrix(1.00, 0.00, -0.00, -1.00, 516.8, 330.0)">c</text><text xml:space="preserve" font-family="BodoniSvtyTwoITCTT-Book" font-size="53.9" fill="#D93D2A" transform="matrix(1.00, 0.00, -0.00, -1.00, 538.8, 330.0)">h</text><text xml:space="preserve" font-family="BodoniSvtyTwoITCTT-Book" font-size="53.9" fill="#D93D2A" transform="matrix(1.00, 0.00, -0.00, -1.00, 564.5, 330.0)"> </text><text xml:space="preserve" font-family="BodoniSvtyTwoITCTT-Book" font-size="53.9" fill="#D93D2A" transform="matrix(1.00, 0.00, -0.00, -1.00, 44.0, 272.0)">i</text><text xml:space="preserve" font-family="BodoniSvtyTwoITCTT-Book" font-size="53.9" fill="#D93D2A" transform="matrix(1.00, 0.00, -0.00, -1.00, 57.5, 272.0)">O</text><text xml:space="preserve" font-family="BodoniSvtyTwoITCTT-Book" font-size="53.9" fill="#D93D2A" transform="matrix(1.00, 0.00, -0.00, -1.00, 96.3, 272.0)">S</text><text xml:space="preserve" font-family="BodoniSvtyTwoITCTT-Book" font-size="53.9" fill="#D93D2A" transform="matrix(1.00, 0.00, -0.00, -1.00, 123.2, 272.0)"> </text><text xml:space="preserve" font-family="BodoniSvtyTwoITCTT-Book" font-size="53.9" fill="#D93D2A" transform="matrix(1.00, 0.00, -0.00, -1.00, 133.2, 272.0)">i</text><text xml:space="preserve" font-family="BodoniSvtyTwoITCTT-Book" font-size="53.9" fill="#D93D2A" transform="matrix(1.00, 0.00, -0.00, -1.00, 146.7, 272.0)"> </text><text xml:space="preserve" font-family="BodoniSvtyTwoITCTT-Book" font-size="53.9" fill="#D93D2A" transform="matrix(1.00, 0.00, -0.00, -1.00, 156.8, 272.0)">A</text><text xml:space="preserve" font-family="BodoniSvtyTwoITCTT-Book" font-size="53.9" fill="#D93D2A" transform="matrix(1.00, 0.00, -0.00, -1.00, 189.2, 272.0)">n</text><text xml:space="preserve" font-family="BodoniSvtyTwoITCTT-Book" font-size="53.9" fill="#D93D2A" transform="matrix(1.00, 0.00, -0.00, -1.00, 215.6, 272.0)">d</text><text xml:space="preserve" font-family="BodoniSvtyTwoITCTT-Book" font-size="53.9" fill="#D93D2A" transform="matrix(1.00, 0.00, -0.00, -1.00, 241.2, 272.0)">r</text><text xml:space="preserve" font-family="BodoniSvtyTwoITCTT-Book" font-size="53.9" fill="#D93D2A" transform="matrix(1.00, 0.00, -0.00, -1.00, 259.4, 272.0)">o</text><text xml:space="preserve" font-family="BodoniSvtyTwoITCTT-Book" font-size="53.9" fill="#D93D2A" transform="matrix(1.00, 0.00, -0.00, -1.00, 285.3, 272.0)">i</text><text xml:space="preserve" font-family="BodoniSvtyTwoITCTT-Book" font-size="53.9" fill="#D93D2A" transform="matrix(1.00, 0.00, -0.00, -1.00, 298.8, 272.0)">d</text><text xml:space="preserve" font-family="Palatino-Roman" font-size="24.0" fill="#414040" transform="matrix(1.00, 0.00, -0.00, -1.00, 656.0, 338.0)">M</text><text xml:space="preserve" font-family="Palatino-Roman" font-size="24.0" fill="#414040" transform="matrix(1.00, 0.00, -0.00, -1.00, 678.7, 338.0)">a</text><text xml:space="preserve" font-family="Palatino-Roman" font-size="24.0" fill="#414040" transform="matrix(1.00, 0.00, -0.00, -1.00, 690.7, 338.0)">c</text><text xml:space="preserve" font-family="Palatino-Roman" font-size="24.0" fill="#414040" transform="matrix(1.00, 0.00, -0.00, -1.00, 701.3, 338.0)">i</text><text xml:space="preserve" font-family="Palatino-Roman" font-size="24.0" fill="#414040" transform="matrix(1.00, 0.00, -0.00, -1.00, 708.3, 338.0)">e</text><text xml:space="preserve" font-family="Palatino-Roman" font-size="24.0" fill="#414040" transform="matrix(1.00, 0.00, -0.00, -1.00, 719.8, 338.0)">j</text><text xml:space="preserve" font-family="Palatino-Roman" font-size="24.0" fill="#414040" transform="matrix(1.00, 0.00, -0.00, -1.00, 725.4, 338.0)"> </text><text xml:space="preserve" font-family="Palatino-Roman" font-size="24.0" fill="#414040" transform="matrix(1.00, 0.00, -0.00, -1.00, 731.4, 338.0)">K</text><text xml:space="preserve" font-family="Palatino-Roman" font-size="24.0" fill="#414040" transform="matrix(1.00, 0.00, -0.00, -1.00, 748.9, 338.0)">a</text><text xml:space="preserve" font-family="Palatino-Roman" font-size="24.0" fill="#414040" transform="matrix(1.00, 0.00, -0.00, -1.00, 760.9, 338.0)">s</text><text xml:space="preserve" font-family="Palatino-Roman" font-size="24.0" fill="#414040" transform="matrix(1.00, 0.00, -0.00, -1.00, 771.0, 338.0)">p</text><text xml:space="preserve" font-family="Palatino-Roman" font-size="24.0" fill="#414040" transform="matrix(1.00, 0.00, -0.00, -1.00, 785.5, 338.0)">r</text><text xml:space="preserve" font-family="Palatino-Roman" font-size="24.0" fill="#414040" transform="matrix(1.00, 0.00, -0.00, -1.00, 794.9, 338.0)">z</text><text xml:space="preserve" font-family="Palatino-Roman" font-size="24.0" fill="#414040" transform="matrix(1.00, 0.00, -0.00, -1.00, 806.9, 338.0)">y</text><text xml:space="preserve" font-family="Palatino-Roman" font-size="24.0" fill="#414040" transform="matrix(1.00, 0.00, -0.00, -1.00, 820.3, 338.0)">c</text><text xml:space="preserve" font-family="Palatino-Roman" font-size="24.0" fill="#414040" transform="matrix(1.00, 0.00, -0.00, -1.00, 830.9, 338.0)">k</text><text xml:space="preserve" font-family="Palatino-Roman" font-size="24.0" fill="#414040" transform="matrix(1.00, 0.00, -0.00, -1.00, 844.3, 338.0)">i</text></g></svg>