<?xml version="1.0" encoding="UTF-8" standalone="no"?><svg xmlns="http://www.w3.org/2000/svg" xmlns:xlink="http://www.w3.org/1999/xlink" clip-rule="evenodd" stroke-miterlimit="4.00" viewBox="0 0 892 128"><desc>SVG generated by Keynote</desc><defs></defs><g transform="matrix(1.00, 0.00, -0.00, -1.00, 0.0, 128.0)"><text xml:space="preserve" font-family="BodoniSvtyTwoITCTT-Book" font-size="70.0" fill="#D93D2A" transform="matrix(1.00, 0.00, -0.00, -1.00, -3.0, 77.0)">„</text><text xml:space="preserve" font-family="BodoniSvtyTwoITCTT-Book" font-size="70.0" fill="#D93D2A" transform="matrix(1.00, 0.00, -0.00, -1.00, 28.2, 77.0)">T</text><text xml:space="preserve" font-family="BodoniSvtyTwoITCTT-Book" font-size="70.0" fill="#D93D2A" transform="matrix(1.00, 0.00, -0.00, -1.00, 69.2, 77.0)">a</text><text xml:space="preserve" font-family="BodoniSvtyTwoITCTT-Book" font-size="70.0" fill="#D93D2A" transform="matrix(1.00, 0.00, -0.00, -1.00, 97.0, 77.0)">k</text><text xml:space="preserve" font-family="BodoniSvtyTwoITCTT-Book" font-size="70.0" fill="#D93D2A" transform="matrix(1.00, 0.00, -0.00, -1.00, 129.9, 77.0)">e</text><text xml:space="preserve" font-family="BodoniSvtyTwoITCTT-Book" font-size="70.0" fill="#D93D2A" transform="matrix(1.00, 0.00, -0.00, -1.00, 160.0, 77.0)"> </text><text xml:space="preserve" font-family="BodoniSvtyTwoITCTT-Book" font-size="70.0" fill="#D93D2A" transform="matrix(1.00, 0.00, -0.00, -1.00, 173.0, 77.0)">Y</text><text xml:space="preserve" font-family="BodoniSvtyTwoITCTT-Book" font-size="70.0" fill="#D93D2A" transform="matrix(1.00, 0.00, -0.00, -1.00, 215.5, 77.0)">o</text><text xml:space="preserve" font-family="BodoniSvtyTwoITCTT-Book" font-size="70.0" fill="#D93D2A" transform="matrix(1.00, 0.00, -0.00, -1.00, 249.1, 77.0)">u</text><text xml:space="preserve" font-family="BodoniSvtyTwoITCTT-Book" font-size="70.0" fill="#D93D2A" transform="matrix(1.00, 0.00, -0.00, -1.00, 283.4, 77.0)">r</text><text xml:space="preserve" font-family="BodoniSvtyTwoITCTT-Book" font-size="70.0" fill="#D93D2A" transform="matrix(1.00, 0.00, -0.00, -1.00, 307.0, 77.0)"> </text><text xml:space="preserve" font-family="BodoniSvtyTwoITCTT-Book" font-size="70.0" fill="#D93D2A" transform="matrix(1.00, 0.00, -0.00, -1.00, 320.1, 77.0)">T</text><text xml:space="preserve" font-family="BodoniSvtyTwoITCTT-Book" font-size="70.0" fill="#D93D2A" transform="matrix(1.00, 0.00, -0.00, -1.00, 361.1, 77.0)">i</text><text xml:space="preserve" font-family="BodoniSvtyTwoITCTT-Book" font-size="70.0" fill="#D93D2A" transform="matrix(1.00, 0.00, -0.00, -1.00, 378.6, 77.0)">m</text><text xml:space="preserve" font-family="BodoniSvtyTwoITCTT-Book" font-size="70.0" fill="#D93D2A" transform="matrix(1.00, 0.00, -0.00, -1.00, 427.9, 77.0)">e</text><text xml:space="preserve" font-family="BodoniSvtyTwoITCTT-Book" font-size="70.0" fill="#D93D2A" transform="matrix(1.00, 0.00, -0.00, -1.00, 458.0, 77.0)"> </text><text xml:space="preserve" font-family="BodoniSvtyTwoITCTT-Book" font-size="70.0" fill="#D93D2A" transform="matrix(1.00, 0.00, -0.00, -1.00, 471.0, 77.0)">-</text><text xml:space="preserve" font-family="BodoniSvtyTwoITCTT-Book" font-size="70.0" fill="#D93D2A" transform="matrix(1.00, 0.00, -0.00, -1.00, 492.3, 77.0)"> </text><text xml:space="preserve" font-family="BodoniSvtyTwoITCTT-Book" font-size="70.0" fill="#D93D2A" transform="matrix(1.00, 0.00, -0.00, -1.00, 505.3, 77.0)">I</text><text xml:space="preserve" font-family="BodoniSvtyTwoITCTT-Book" font-size="70.0" fill="#D93D2A" transform="matrix(1.00, 0.00, -0.00, -1.00, 527.3, 77.0)">’</text><text xml:space="preserve" font-family="BodoniSvtyTwoITCTT-Book" font-size="70.0" fill="#D93D2A" transform="matrix(1.00, 0.00, -0.00, -1.00, 545.7, 77.0)">m</text><text xml:space="preserve" font-family="BodoniSvtyTwoITCTT-Book" font-size="70.0" fill="#D93D2A" transform="matrix(1.00, 0.00, -0.00, -1.00, 594.9, 77.0)"> </text><text xml:space="preserve" font-family="BodoniSvtyTwoITCTT-Book" font-size="70.0" fill="#D93D2A" transform="matrix(1.00, 0.00, -0.00, -1.00, 607.9, 77.0)">L</text><text xml:space="preserve" font-family="BodoniSvtyTwoITCTT-Book" font-size="70.0" fill="#D93D2A" transform="matrix(1.00, 0.00, -0.00, -1.00, 647.4, 77.0)">i</text><text xml:space="preserve" font-family="BodoniSvtyTwoITCTT-Book" font-size="70.0" fill="#D93D2A" transform="matrix(1.00, 0.00, -0.00, -1.00, 664.9, 77.0)">s</text><text xml:space="preserve" font-family="BodoniSvtyTwoITCTT-Book" font-size="70.0" fill="#D93D2A" transform="matrix(1.00, 0.00, -0.00, -1.00, 690.3, 77.0)">t</text><text xml:space="preserve" font-family="BodoniSvtyTwoITCTT-Book" font-size="70.0" fill="#D93D2A" transform="matrix(1.00, 0.00, -0.00, -1.00, 710.2, 77.0)">e</text><text xml:space="preserve" font-family="BodoniSvtyTwoITCTT-Book" font-size="70.0" fill="#D93D2A" transform="matrix(1.00, 0.00, -0.00, -1.00, 740.3, 77.0)">n</text><text xml:space="preserve" font-family="BodoniSvtyTwoITCTT-Book" font-size="70.0" fill="#D93D2A" transform="matrix(1.00, 0.00, -0.00, -1.00, 774.5, 77.0)">i</text><text xml:space="preserve" font-family="BodoniSvtyTwoITCTT-Book" font-size="70.0" fill="#D93D2A" transform="matrix(1.00, 0.00, -0.00, -1.00, 792.1, 77.0)">n</text><text xml:space="preserve" font-family="BodoniSvtyTwoITCTT-Book" font-size="70.0" fill="#D93D2A" transform="matrix(1.00, 0.00, -0.00, -1.00, 826.3, 77.0)">g</text><text xml:space="preserve" font-family="BodoniSvtyTwoITCTT-Book" font-size="70.0" fill="#D93D2A" transform="matrix(1.00, 0.00, -0.00, -1.00, 859.0, 77.0)">”</text><text xml:space="preserve" font-family="BodoniSvtyTwoITCTT-Book" font-size="70.0" fill="#D93D2A" transform="matrix(1.00, 0.00, -0.00, -1.00, 890.2, 77.0)"> </text><text xml:space="preserve" font-family="BodoniSvtyTwoITCTT-BookIta" font-style="italic" font-size="40.0" fill="#000000" transform="matrix(1.00, 0.00, -0.00, -1.00, 102.0, 12.0)">H</text><text xml:space="preserve" font-family="BodoniSvtyTwoITCTT-BookIta" font-style="italic" font-size="40.0" fill="#000000" transform="matrix(1.00, 0.00, -0.00, -1.00, 129.8, 12.0)">o</text><text xml:space="preserve" font-family="BodoniSvtyTwoITCTT-BookIta" font-style="italic" font-size="40.0" fill="#000000" transform="matrix(1.00, 0.00, -0.00, -1.00, 148.3, 12.0)">w</text><text xml:space="preserve" font-family="BodoniSvtyTwoITCTT-BookIta" font-style="italic" font-size="40.0" fill="#000000" transform="matrix(1.00, 0.00, -0.00, -1.00, 175.2, 12.0)"> </text><text xml:space="preserve" font-family="BodoniSvtyTwoITCTT-BookIta" font-style="italic" font-size="40.0" fill="#000000" transform="matrix(1.00, 0.00, -0.00, -1.00, 182.6, 12.0)">t</text><text xml:space="preserve" font-family="BodoniSvtyTwoITCTT-BookIta" font-style="italic" font-size="40.0" fill="#000000" transform="matrix(1.00, 0.00, -0.00, -1.00, 192.8, 12.0)">o</text><text xml:space="preserve" font-family="BodoniSvtyTwoITCTT-BookIta" font-style="italic" font-size="40.0" fill="#000000" transform="matrix(1.00, 0.00, -0.00, -1.00, 211.3, 12.0)"> </text><text xml:space="preserve" font-family="BodoniSvtyTwoITCTT-BookIta" font-style="italic" font-size="40.0" fill="#000000" transform="matrix(1.00, 0.00, -0.00, -1.00, 218.7, 12.0)">L</text><text xml:space="preserve" font-family="BodoniSvtyTwoITCTT-BookIta" font-style="italic" font-size="40.0" fill="#000000" transform="matrix(1.00, 0.00, -0.00, -1.00, 241.7, 12.0)">e</text><text xml:space="preserve" font-family="BodoniSvtyTwoITCTT-BookIta" font-style="italic" font-size="40.0" fill="#000000" transform="matrix(1.00, 0.00, -0.00, -1.00, 256.9, 12.0)">t</text><text xml:space="preserve" font-family="BodoniSvtyTwoITCTT-BookIta" font-style="italic" font-size="40.0" fill="#000000" transform="matrix(1.00, 0.00, -0.00, -1.00, 267.1, 12.0)"> </text><text xml:space="preserve" font-family="BodoniSvtyTwoITCTT-BookIta" font-style="italic" font-size="40.0" fill="#000000" transform="matrix(1.00, 0.00, -0.00, -1.00, 274.6, 12.0)">G</text><text xml:space="preserve" font-family="BodoniSvtyTwoITCTT-BookIta" font-style="italic" font-size="40.0" fill="#000000" transform="matrix(1.00, 0.00, -0.00, -1.00, 301.6, 12.0)">o</text><text xml:space="preserve" font-family="BodoniSvtyTwoITCTT-BookIta" font-style="italic" font-size="40.0" fill="#000000" transform="matrix(1.00, 0.00, -0.00, -1.00, 320.0, 12.0)"> </text><text xml:space="preserve" font-family="BodoniSvtyTwoITCTT-BookIta" font-style="italic" font-size="40.0" fill="#000000" transform="matrix(1.00, 0.00, -0.00, -1.00, 327.5, 12.0)">o</text><text xml:space="preserve" font-family="BodoniSvtyTwoITCTT-BookIta" font-style="italic" font-size="40.0" fill="#000000" transform="matrix(1.00, 0.00, -0.00, -1.00, 346.0, 12.0)">f</text><text xml:space="preserve" font-family="BodoniSvtyTwoITCTT-BookIta" font-style="italic" font-size="40.0" fill="#000000" transform="matrix(1.00, 0.00, -0.00, -1.00, 356.7, 12.0)"> </text><text xml:space="preserve" font-family="BodoniSvtyTwoITCTT-BookIta" font-style="italic" font-size="40.0" fill="#000000" transform="matrix(1.00, 0.00, -0.00, -1.00, 364.2, 12.0)">Y</text><text xml:space="preserve" font-family="BodoniSvtyTwoITCTT-BookIta" font-style="italic" font-size="40.0" fill="#000000" transform="matrix(1.00, 0.00, -0.00, -1.00, 385.9, 12.0)">o</text><text xml:space="preserve" font-family="BodoniSvtyTwoITCTT-BookIta" font-style="italic" font-size="40.0" fill="#000000" transform="matrix(1.00, 0.00, -0.00, -1.00, 404.4, 12.0)">u</text><text xml:space="preserve" font-family="BodoniSvtyTwoITCTT-BookIta" font-style="italic" font-size="40.0" fill="#000000" transform="matrix(1.00, 0.00, -0.00, -1.00, 423.9, 12.0)">r</text><text xml:space="preserve" font-family="BodoniSvtyTwoITCTT-BookIta" font-style="italic" font-size="40.0" fill="#000000" transform="matrix(1.00, 0.00, -0.00, -1.00, 437.4, 12.0)"> </text><text xml:space="preserve" font-family="BodoniSvtyTwoITCTT-BookIta" font-style="italic" font-size="40.0" fill="#000000" transform="matrix(1.00, 0.00, -0.00, -1.00, 444.8, 12.0)">O</text><text xml:space="preserve" font-family="BodoniSvtyTwoITCTT-BookIta" font-style="italic" font-size="40.0" fill="#000000" transform="matrix(1.00, 0.00, -0.00, -1.00, 473.2, 12.0)">w</text><text xml:space="preserve" font-family="BodoniSvtyTwoITCTT-BookIta" font-style="italic" font-size="40.0" fill="#000000" transform="matrix(1.00, 0.00, -0.00, -1.00, 500.1, 12.0)">n</text><text xml:space="preserve" font-family="BodoniSvtyTwoITCTT-BookIta" font-style="italic" font-size="40.0" fill="#000000" transform="matrix(1.00, 0.00, -0.00, -1.00, 519.8, 12.0)"> </text><text xml:space="preserve" font-family="BodoniSvtyTwoITCTT-BookIta" font-style="italic" font-size="40.0" fill="#000000" transform="matrix(1.00, 0.00, -0.00, -1.00, 527.2, 12.0)">N</text><text xml:space="preserve" font-family="BodoniSvtyTwoITCTT-BookIta" font-style="italic" font-size="40.0" fill="#000000" transform="matrix(1.00, 0.00, -0.00, -1.00, 554.6, 12.0)">e</text><text xml:space="preserve" font-family="BodoniSvtyTwoITCTT-BookIta" font-style="italic" font-size="40.0" fill="#000000" transform="matrix(1.00, 0.00, -0.00, -1.00, 569.8, 12.0)">e</text><text xml:space="preserve" font-family="BodoniSvtyTwoITCTT-BookIta" font-style="italic" font-size="40.0" fill="#000000" transform="matrix(1.00, 0.00, -0.00, -1.00, 585.0, 12.0)">d</text><text xml:space="preserve" font-family="BodoniSvtyTwoITCTT-BookIta" font-style="italic" font-size="40.0" fill="#000000" transform="matrix(1.00, 0.00, -0.00, -1.00, 605.3, 12.0)">s</text><text xml:space="preserve" font-family="BodoniSvtyTwoITCTT-BookIta" font-style="italic" font-size="40.0" fill="#000000" transform="matrix(1.00, 0.00, -0.00, -1.00, 619.2, 12.0)"> </text><text xml:space="preserve" font-family="BodoniSvtyTwoITCTT-BookIta" font-style="italic" font-size="40.0" fill="#000000" transform="matrix(1.00, 0.00, -0.00, -1.00, 626.6, 12.0)">a</text><text xml:space="preserve" font-family="BodoniSvtyTwoITCTT-BookIta" font-style="italic" font-size="40.0" fill="#000000" transform="matrix(1.00, 0.00, -0.00, -1.00, 646.1, 12.0)">n</text><text xml:space="preserve" font-family="BodoniSvtyTwoITCTT-BookIta" font-style="italic" font-size="40.0" fill="#000000" transform="matrix(1.00, 0.00, -0.00, -1.00, 665.8, 12.0)">d</text><text xml:space="preserve" font-family="BodoniSvtyTwoITCTT-BookIta" font-style="italic" font-size="40.0" fill="#000000" transform="matrix(1.00, 0.00, -0.00, -1.00, 686.0, 12.0)"> </text><text xml:space="preserve" font-family="BodoniSvtyTwoITCTT-BookIta" font-style="italic" font-size="40.0" fill="#000000" transform="matrix(1.00, 0.00, -0.00, -1.00, 693.5, 12.0)">L</text><text xml:space="preserve" font-family="BodoniSvtyTwoITCTT-BookIta" font-style="italic" font-size="40.0" fill="#000000" transform="matrix(1.00, 0.00, -0.00, -1.00, 716.5, 12.0)">i</text><text xml:space="preserve" font-family="BodoniSvtyTwoITCTT-BookIta" font-style="italic" font-size="40.0" fill="#000000" transform="matrix(1.00, 0.00, -0.00, -1.00, 726.1, 12.0)">s</text><text xml:space="preserve" font-family="BodoniSvtyTwoITCTT-BookIta" font-style="italic" font-size="40.0" fill="#000000" transform="matrix(1.00, 0.00, -0.00, -1.00, 739.9, 12.0)">t</text><text xml:space="preserve" font-family="BodoniSvtyTwoITCTT-BookIta" font-style="italic" font-size="40.0" fill="#000000" transform="matrix(1.00, 0.00, -0.00, -1.00, 750.1, 12.0)">e</text><text xml:space="preserve" font-family="BodoniSvtyTwoITCTT-BookIta" font-style="italic" font-size="40.0" fill="#000000" transform="matrix(1.00, 0.00, -0.00, -1.00, 765.3, 12.0)">n</text></g></svg>