<?xml version="1.0" encoding="UTF-8" standalone="no"?><svg xmlns="http://www.w3.org/2000/svg" xmlns:xlink="http://www.w3.org/1999/xlink" clip-rule="evenodd" stroke-miterlimit="4.00" viewBox="0 0 652 104"><desc>SVG generated by Keynote</desc><defs></defs><g transform="matrix(1.00, 0.00, -0.00, -1.00, 0.0, 104.0)"><text xml:space="preserve" font-family="Palatino-Bold" font-weight="bold" font-size="36.0" fill="#414040" transform="matrix(1.00, 0.00, -0.00, -1.00, 0.0, 74.0)">1</text><text xml:space="preserve" font-family="Palatino-Bold" font-weight="bold" font-size="36.0" fill="#414040" transform="matrix(1.00, 0.00, -0.00, -1.00, 18.0, 74.0)">.</text><text xml:space="preserve" font-family="Palatino-Bold" font-weight="bold" font-size="36.0" fill="#414040" transform="matrix(1.00, 0.00, -0.00, -1.00, 52.0, 74.0)">C</text><text xml:space="preserve" font-family="Palatino-Bold" font-weight="bold" font-size="36.0" fill="#414040" transform="matrix(1.00, 0.00, -0.00, -1.00, 78.0, 74.0)">o</text><text xml:space="preserve" font-family="Palatino-Bold" font-weight="bold" font-size="36.0" fill="#414040" transform="matrix(1.00, 0.00, -0.00, -1.00, 98.0, 74.0)">n</text><text xml:space="preserve" font-family="Palatino-Bold" font-weight="bold" font-size="36.0" fill="#414040" transform="matrix(1.00, 0.00, -0.00, -1.00, 120.0, 74.0)">c</text><text xml:space="preserve" font-family="Palatino-Bold" font-weight="bold" font-size="36.0" fill="#414040" transform="matrix(1.00, 0.00, -0.00, -1.00, 136.0, 74.0)">e</text><text xml:space="preserve" font-family="Palatino-Bold" font-weight="bold" font-size="36.0" fill="#414040" transform="matrix(1.00, 0.00, -0.00, -1.00, 154.0, 74.0)">n</text><text xml:space="preserve" font-family="Palatino-Bold" font-weight="bold" font-size="36.0" fill="#414040" transform="matrix(1.00, 0.00, -0.00, -1.00, 176.0, 74.0)">t</text><text xml:space="preserve" font-family="Palatino-Bold" font-weight="bold" font-size="36.0" fill="#414040" transform="matrix(1.00, 0.00, -0.00, -1.00, 188.0, 74.0)">r</text><text xml:space="preserve" font-family="Palatino-Bold" font-weight="bold" font-size="36.0" fill="#414040" transform="matrix(1.00, 0.00, -0.00, -1.00, 202.0, 74.0)">a</text><text xml:space="preserve" font-family="Palatino-Bold" font-weight="bold" font-size="36.0" fill="#414040" transform="matrix(1.00, 0.00, -0.00, -1.00, 220.0, 74.0)">t</text><text xml:space="preserve" font-family="Palatino-Bold" font-weight="bold" font-size="36.0" fill="#414040" transform="matrix(1.00, 0.00, -0.00, -1.00, 232.0, 74.0)">e</text><text xml:space="preserve" font-family="Palatino-Bold" font-weight="bold" font-size="36.0" fill="#414040" transform="matrix(1.00, 0.00, -0.00, -1.00, 250.0, 74.0)"> </text><text xml:space="preserve" font-family="Palatino-Bold" font-weight="bold" font-size="36.0" fill="#414040" transform="matrix(1.00, 0.00, -0.00, -1.00, 259.0, 74.0)">o</text><text xml:space="preserve" font-family="Palatino-Bold" font-weight="bold" font-size="36.0" fill="#414040" transform="matrix(1.00, 0.00, -0.00, -1.00, 279.0, 74.0)">n</text><text xml:space="preserve" font-family="Palatino-Bold" font-weight="bold" font-size="36.0" fill="#414040" transform="matrix(1.00, 0.00, -0.00, -1.00, 301.0, 74.0)"> </text><text xml:space="preserve" font-family="Palatino-Bold" font-weight="bold" font-size="36.0" fill="#414040" transform="matrix(1.00, 0.00, -0.00, -1.00, 310.0, 74.0)">t</text><text xml:space="preserve" font-family="Palatino-Bold" font-weight="bold" font-size="36.0" fill="#414040" transform="matrix(1.00, 0.00, -0.00, -1.00, 322.0, 74.0)">h</text><text xml:space="preserve" font-family="Palatino-Bold" font-weight="bold" font-size="36.0" fill="#414040" transform="matrix(1.00, 0.00, -0.00, -1.00, 343.9, 74.0)">e</text><text xml:space="preserve" font-family="Palatino-Bold" font-weight="bold" font-size="36.0" fill="#414040" transform="matrix(1.00, 0.00, -0.00, -1.00, 361.9, 74.0)"> </text><text xml:space="preserve" font-family="Palatino-Bold" font-weight="bold" font-size="36.0" fill="#414040" transform="matrix(1.00, 0.00, -0.00, -1.00, 370.9, 74.0)">p</text><text xml:space="preserve" font-family="Palatino-Bold" font-weight="bold" font-size="36.0" fill="#414040" transform="matrix(1.00, 0.00, -0.00, -1.00, 392.9, 74.0)">e</text><text xml:space="preserve" font-family="Palatino-Bold" font-weight="bold" font-size="36.0" fill="#414040" transform="matrix(1.00, 0.00, -0.00, -1.00, 410.9, 74.0)">r</text><text xml:space="preserve" font-family="Palatino-Bold" font-weight="bold" font-size="36.0" fill="#414040" transform="matrix(1.00, 0.00, -0.00, -1.00, 424.9, 74.0)">s</text><text xml:space="preserve" font-family="Palatino-Bold" font-weight="bold" font-size="36.0" fill="#414040" transform="matrix(1.00, 0.00, -0.00, -1.00, 440.9, 74.0)">o</text><text xml:space="preserve" font-family="Palatino-Bold" font-weight="bold" font-size="36.0" fill="#414040" transform="matrix(1.00, 0.00, -0.00, -1.00, 460.9, 74.0)">n</text><text xml:space="preserve" font-family="Palatino-Bold" font-weight="bold" font-size="36.0" fill="#414040" transform="matrix(1.00, 0.00, -0.00, -1.00, 482.9, 74.0)"> </text><text xml:space="preserve" font-family="Palatino-Bold" font-weight="bold" font-size="36.0" fill="#414040" transform="matrix(1.00, 0.00, -0.00, -1.00, 491.9, 74.0)">s</text><text xml:space="preserve" font-family="Palatino-Bold" font-weight="bold" font-size="36.0" fill="#414040" transform="matrix(1.00, 0.00, -0.00, -1.00, 507.9, 74.0)">p</text><text xml:space="preserve" font-family="Palatino-Bold" font-weight="bold" font-size="36.0" fill="#414040" transform="matrix(1.00, 0.00, -0.00, -1.00, 529.9, 74.0)">e</text><text xml:space="preserve" font-family="Palatino-Bold" font-weight="bold" font-size="36.0" fill="#414040" transform="matrix(1.00, 0.00, -0.00, -1.00, 547.9, 74.0)">a</text><text xml:space="preserve" font-family="Palatino-Bold" font-weight="bold" font-size="36.0" fill="#414040" transform="matrix(1.00, 0.00, -0.00, -1.00, 565.9, 74.0)">k</text><text xml:space="preserve" font-family="Palatino-Bold" font-weight="bold" font-size="36.0" fill="#414040" transform="matrix(1.00, 0.00, -0.00, -1.00, 587.9, 74.0)">i</text><text xml:space="preserve" font-family="Palatino-Bold" font-weight="bold" font-size="36.0" fill="#414040" transform="matrix(1.00, 0.00, -0.00, -1.00, 599.9, 74.0)">n</text><text xml:space="preserve" font-family="Palatino-Bold" font-weight="bold" font-size="36.0" fill="#414040" transform="matrix(1.00, 0.00, -0.00, -1.00, 621.8, 74.0)">g</text><text xml:space="preserve" font-family="Palatino-Bold" font-weight="bold" font-size="36.0" fill="#414040" transform="matrix(1.00, 0.00, -0.00, -1.00, 641.9, 74.0)">:</text><text xml:space="preserve" font-family="ZapfDingbatsITC" font-size="21.6" fill="#919191" transform="matrix(1.00, 0.00, -0.00, -1.00, 37.0, 7.8)">â–</text><text xml:space="preserve" font-family="Palatino-Bold" font-weight="bold" font-size="36.0" fill="#414040" transform="matrix(1.00, 0.00, -0.00, -1.00, 74.0, 2.0)">S</text><text xml:space="preserve" font-family="Palatino-Bold" font-weight="bold" font-size="36.0" fill="#414040" transform="matrix(1.00, 0.00, -0.00, -1.00, 96.0, 2.0)">e</text><text xml:space="preserve" font-family="Palatino-Bold" font-weight="bold" font-size="36.0" fill="#414040" transform="matrix(1.00, 0.00, -0.00, -1.00, 114.0, 2.0)">t</text><text xml:space="preserve" font-family="Palatino-Bold" font-weight="bold" font-size="36.0" fill="#414040" transform="matrix(1.00, 0.00, -0.00, -1.00, 126.0, 2.0)"> </text><text xml:space="preserve" font-family="Palatino-Bold" font-weight="bold" font-size="36.0" fill="#414040" transform="matrix(1.00, 0.00, -0.00, -1.00, 135.0, 2.0)">a</text><text xml:space="preserve" font-family="Palatino-Bold" font-weight="bold" font-size="36.0" fill="#414040" transform="matrix(1.00, 0.00, -0.00, -1.00, 153.0, 2.0)">s</text><text xml:space="preserve" font-family="Palatino-Bold" font-weight="bold" font-size="36.0" fill="#414040" transform="matrix(1.00, 0.00, -0.00, -1.00, 168.9, 2.0)">i</text><text xml:space="preserve" font-family="Palatino-Bold" font-weight="bold" font-size="36.0" fill="#414040" transform="matrix(1.00, 0.00, -0.00, -1.00, 180.9, 2.0)">d</text><text xml:space="preserve" font-family="Palatino-Bold" font-weight="bold" font-size="36.0" fill="#414040" transform="matrix(1.00, 0.00, -0.00, -1.00, 202.9, 2.0)">e</text><text xml:space="preserve" font-family="Palatino-Bold" font-weight="bold" font-size="36.0" fill="#414040" transform="matrix(1.00, 0.00, -0.00, -1.00, 220.9, 2.0)"> </text><text xml:space="preserve" font-family="Palatino-Bold" font-weight="bold" font-size="36.0" fill="#414040" transform="matrix(1.00, 0.00, -0.00, -1.00, 229.9, 2.0)">d</text><text xml:space="preserve" font-family="Palatino-Bold" font-weight="bold" font-size="36.0" fill="#414040" transform="matrix(1.00, 0.00, -0.00, -1.00, 251.9, 2.0)">i</text><text xml:space="preserve" font-family="Palatino-Bold" font-weight="bold" font-size="36.0" fill="#414040" transform="matrix(1.00, 0.00, -0.00, -1.00, 263.9, 2.0)">s</text><text xml:space="preserve" font-family="Palatino-Bold" font-weight="bold" font-size="36.0" fill="#414040" transform="matrix(1.00, 0.00, -0.00, -1.00, 279.9, 2.0)">t</text><text xml:space="preserve" font-family="Palatino-Bold" font-weight="bold" font-size="36.0" fill="#414040" transform="matrix(1.00, 0.00, -0.00, -1.00, 291.8, 2.0)">r</text><text xml:space="preserve" font-family="Palatino-Bold" font-weight="bold" font-size="36.0" fill="#414040" transform="matrix(1.00, 0.00, -0.00, -1.00, 305.9, 2.0)">a</text><text xml:space="preserve" font-family="Palatino-Bold" font-weight="bold" font-size="36.0" fill="#414040" transform="matrix(1.00, 0.00, -0.00, -1.00, 323.9, 2.0)">c</text><text xml:space="preserve" font-family="Palatino-Bold" font-weight="bold" font-size="36.0" fill="#414040" transform="matrix(1.00, 0.00, -0.00, -1.00, 339.8, 2.0)">t</text><text xml:space="preserve" font-family="Palatino-Bold" font-weight="bold" font-size="36.0" fill="#414040" transform="matrix(1.00, 0.00, -0.00, -1.00, 351.8, 2.0)">i</text><text xml:space="preserve" font-family="Palatino-Bold" font-weight="bold" font-size="36.0" fill="#414040" transform="matrix(1.00, 0.00, -0.00, -1.00, 363.8, 2.0)">o</text><text xml:space="preserve" font-family="Palatino-Bold" font-weight="bold" font-size="36.0" fill="#414040" transform="matrix(1.00, 0.00, -0.00, -1.00, 383.8, 2.0)">n</text><text xml:space="preserve" font-family="Palatino-Bold" font-weight="bold" font-size="36.0" fill="#414040" transform="matrix(1.00, 0.00, -0.00, -1.00, 405.8, 2.0)">s</text></g></svg>