<?xml version="1.0" encoding="UTF-8" standalone="no"?><svg xmlns="http://www.w3.org/2000/svg" xmlns:xlink="http://www.w3.org/1999/xlink" clip-rule="evenodd" stroke-miterlimit="4.00" viewBox="0 0 1024 768"><desc>SVG generated by Keynote</desc><defs><linearGradient id="gradSh1.10" x1="0.0" y1="0.0" x2="100.0" y2="0.0" gradientUnits="userSpaceOnUse" gradientTransform="matrix(0.00, -7.70, -10.26, 0.00, 512.0, 769.0)"><stop offset="0.00000" stop-color="#F1F1FB"></stop><stop offset="0.00293" stop-color="#F0F1FB"></stop><stop offset="0.97801" stop-color="#057FFF"></stop><stop offset="0.98167" stop-color="#047FFF"></stop><stop offset="1.00000" stop-color="#007DFF"></stop></linearGradient></defs><g transform="matrix(1.00, 0.00, -0.00, -1.00, 0.0, 768.0)"><g><clipPath id="clip-131"><path d="M 0.0 768.0 L 1024.0 768.0 L 1024.0 0.0 L 0.0 0.0 Z M 0.0 768.0 "></path></clipPath><g clip-path="url(#clip-131)"><path d="M 0.0 768.0 L 1024.0 768.0 L 1024.0 0.0 L 0.0 0.0 Z M 0.0 768.0 " fill="url(#gradSh1.10)"></path></g></g><image xlink:href="../../7A911799-D6F9-42FA-A54D-1261343CA851/assets/B0B142C114335E62FB8A395F99E6A917.png" width="362.00" height="76.00" transform="matrix(1.00, 0.00, -0.00, -1.00, 41.0, 721.0)"></image><text xml:space="preserve" font-family="HelveticaNeue-Light" font-size="72.0" fill="#FEFFFE" transform="matrix(1.00, 0.00, -0.00, -1.00, 41.0, 668.0)">U</text><text xml:space="preserve" font-family="HelveticaNeue-Light" font-size="72.0" fill="#FEFFFE" transform="matrix(1.00, 0.00, -0.00, -1.00, 90.3, 668.0)">r</text><text xml:space="preserve" font-family="HelveticaNeue-Light" font-size="72.0" fill="#FEFFFE" transform="matrix(1.00, 0.00, -0.00, -1.00, 113.0, 668.0)">z</text><text xml:space="preserve" font-family="HelveticaNeue-Light" font-size="72.0" fill="#FEFFFE" transform="matrix(1.00, 0.00, -0.00, -1.00, 146.3, 668.0)">ą</text><text xml:space="preserve" font-family="HelveticaNeue-Light" font-size="72.0" fill="#FEFFFE" transform="matrix(1.00, 0.00, -0.00, -1.00, 183.7, 668.0)">d</text><text xml:space="preserve" font-family="HelveticaNeue-Light" font-size="72.0" fill="#FEFFFE" transform="matrix(1.00, 0.00, -0.00, -1.00, 225.0, 668.0)">z</text><text xml:space="preserve" font-family="HelveticaNeue-Light" font-size="72.0" fill="#FEFFFE" transform="matrix(1.00, 0.00, -0.00, -1.00, 258.4, 668.0)">e</text><text xml:space="preserve" font-family="HelveticaNeue-Light" font-size="72.0" fill="#FEFFFE" transform="matrix(1.00, 0.00, -0.00, -1.00, 295.7, 668.0)">n</text><text xml:space="preserve" font-family="HelveticaNeue-Light" font-size="72.0" fill="#FEFFFE" transform="matrix(1.00, 0.00, -0.00, -1.00, 334.4, 668.0)">i</text><text xml:space="preserve" font-family="HelveticaNeue-Light" font-size="72.0" fill="#FEFFFE" transform="matrix(1.00, 0.00, -0.00, -1.00, 347.7, 668.0)">e</text><text xml:space="preserve" font-family="HelveticaNeue-Light" font-size="72.0" fill="#FEFFFE" transform="matrix(1.00, 0.00, -0.00, -1.00, 385.1, 668.0)">:</text><text xml:space="preserve" font-family="HelveticaNeue-Light" font-size="72.0" fill="#FEFFFE" transform="matrix(1.00, 0.00, -0.00, -1.00, 405.1, 668.0)"> </text><image xlink:href="../../7A911799-D6F9-42FA-A54D-1261343CA851/assets/B4E59A293379DED0F61F71A5E321BA56.png" width="938.00" height="76.00" transform="matrix(1.00, 0.00, -0.00, -1.00, 39.0, 635.0)"></image><text xml:space="preserve" font-family="HelveticaNeue-Light" font-size="72.0" fill="#FEFFFE" transform="matrix(1.00, 0.00, -0.00, -1.00, 41.0, 581.0)">d</text><text xml:space="preserve" font-family="HelveticaNeue-Light" font-size="72.0" fill="#FEFFFE" transform="matrix(1.00, 0.00, -0.00, -1.00, 82.3, 581.0)">l</text><text xml:space="preserve" font-family="HelveticaNeue-Light" font-size="72.0" fill="#FEFFFE" transform="matrix(1.00, 0.00, -0.00, -1.00, 95.6, 581.0)">a</text><text xml:space="preserve" font-family="HelveticaNeue-Light" font-size="72.0" fill="#FEFFFE" transform="matrix(1.00, 0.00, -0.00, -1.00, 133.0, 581.0)">c</text><text xml:space="preserve" font-family="HelveticaNeue-Light" font-size="72.0" fill="#FEFFFE" transform="matrix(1.00, 0.00, -0.00, -1.00, 170.4, 581.0)">z</text><text xml:space="preserve" font-family="HelveticaNeue-Light" font-size="72.0" fill="#FEFFFE" transform="matrix(1.00, 0.00, -0.00, -1.00, 203.7, 581.0)">e</text><text xml:space="preserve" font-family="HelveticaNeue-Light" font-size="72.0" fill="#FEFFFE" transform="matrix(1.00, 0.00, -0.00, -1.00, 241.1, 581.0)">g</text><text xml:space="preserve" font-family="HelveticaNeue-Light" font-size="72.0" fill="#FEFFFE" transform="matrix(1.00, 0.00, -0.00, -1.00, 281.1, 581.0)">o</text><text xml:space="preserve" font-family="HelveticaNeue-Light" font-size="72.0" fill="#FEFFFE" transform="matrix(1.00, 0.00, -0.00, -1.00, 321.2, 581.0)"> </text><text xml:space="preserve" font-family="HelveticaNeue-Light" font-size="72.0" fill="#FEFFFE" transform="matrix(1.00, 0.00, -0.00, -1.00, 341.2, 581.0)">t</text><text xml:space="preserve" font-family="HelveticaNeue-Light" font-size="72.0" fill="#FEFFFE" transform="matrix(1.00, 0.00, -0.00, -1.00, 362.5, 581.0)">a</text><text xml:space="preserve" font-family="HelveticaNeue-Light" font-size="72.0" fill="#FEFFFE" transform="matrix(1.00, 0.00, -0.00, -1.00, 399.8, 581.0)">k</text><text xml:space="preserve" font-family="HelveticaNeue-Light" font-size="72.0" fill="#FEFFFE" transform="matrix(1.00, 0.00, -0.00, -1.00, 435.8, 581.0)">,</text><text xml:space="preserve" font-family="HelveticaNeue-Light" font-size="72.0" fill="#FEFFFE" transform="matrix(1.00, 0.00, -0.00, -1.00, 455.9, 581.0)"> </text><text xml:space="preserve" font-family="HelveticaNeue-Light" font-size="72.0" fill="#FEFFFE" transform="matrix(1.00, 0.00, -0.00, -1.00, 475.9, 581.0)">d</text><text xml:space="preserve" font-family="HelveticaNeue-Light" font-size="72.0" fill="#FEFFFE" transform="matrix(1.00, 0.00, -0.00, -1.00, 517.2, 581.0)">l</text><text xml:space="preserve" font-family="HelveticaNeue-Light" font-size="72.0" fill="#FEFFFE" transform="matrix(1.00, 0.00, -0.00, -1.00, 530.5, 581.0)">a</text><text xml:space="preserve" font-family="HelveticaNeue-Light" font-size="72.0" fill="#FEFFFE" transform="matrix(1.00, 0.00, -0.00, -1.00, 567.9, 581.0)">c</text><text xml:space="preserve" font-family="HelveticaNeue-Light" font-size="72.0" fill="#FEFFFE" transform="matrix(1.00, 0.00, -0.00, -1.00, 605.3, 581.0)">z</text><text xml:space="preserve" font-family="HelveticaNeue-Light" font-size="72.0" fill="#FEFFFE" transform="matrix(1.00, 0.00, -0.00, -1.00, 638.6, 581.0)">e</text><text xml:space="preserve" font-family="HelveticaNeue-Light" font-size="72.0" fill="#FEFFFE" transform="matrix(1.00, 0.00, -0.00, -1.00, 676.0, 581.0)">g</text><text xml:space="preserve" font-family="HelveticaNeue-Light" font-size="72.0" fill="#FEFFFE" transform="matrix(1.00, 0.00, -0.00, -1.00, 716.0, 581.0)">o</text><text xml:space="preserve" font-family="HelveticaNeue-Light" font-size="72.0" fill="#FEFFFE" transform="matrix(1.00, 0.00, -0.00, -1.00, 756.0, 581.0)"> </text><text xml:space="preserve" font-family="HelveticaNeue-Light" font-size="72.0" fill="#FEFFFE" transform="matrix(1.00, 0.00, -0.00, -1.00, 776.0, 581.0)">n</text><text xml:space="preserve" font-family="HelveticaNeue-Light" font-size="72.0" fill="#FEFFFE" transform="matrix(1.00, 0.00, -0.00, -1.00, 814.7, 581.0)">i</text><text xml:space="preserve" font-family="HelveticaNeue-Light" font-size="72.0" fill="#FEFFFE" transform="matrix(1.00, 0.00, -0.00, -1.00, 828.0, 581.0)">e</text><text xml:space="preserve" font-family="HelveticaNeue-Light" font-size="72.0" fill="#FEFFFE" transform="matrix(1.00, 0.00, -0.00, -1.00, 865.4, 581.0)">…</text><text xml:space="preserve" font-family="HelveticaNeue-Light" font-size="72.0" fill="#FEFFFE" transform="matrix(1.00, 0.00, -0.00, -1.00, 937.4, 581.0)">?</text><image xlink:href="../../F1B4BC77-6245-4A11-9B6C-44A6E150CF4F/assets/EAF6C6CDEC7DBCD52B69A706E10EF119.png" width="13.00" height="14.00" transform="matrix(1.00, 0.00, -0.00, -1.00, 66.0, 511.0)"></image><g><clipPath id="clip-132"><path d="M 66.0 497.9 L 78.7 497.9 L 78.7 510.7 L 66.0 510.7 Z M 66.0 497.9 "></path></clipPath><g clip-path="url(#clip-132)"><g><g><clipPath id="clip-133"><path d="M 66.0 510.7 L 78.7 510.7 L 78.7 497.9 L 66.0 497.9 Z M 66.0 510.7 "></path></clipPath><g clip-path="url(#clip-133)"><g><clipPath id="clip-134"><path d="M 62.0 490.0 L 83.0 490.0 L 83.0 518.0 L 62.0 518.0 Z M 62.0 490.0 "></path></clipPath><g clip-path="url(#clip-134)"><path d="M 78.7 508.1 C 78.7 508.7 78.4 509.2 77.9 509.8 C 77.4 510.4 76.8 510.7 76.1 510.7 C 75.9 510.7 75.4 510.5 74.8 510.2 C 73.8 509.7 73.0 509.5 72.3 509.5 C 71.6 509.5 70.8 509.7 69.8 510.2 C 69.2 510.5 68.8 510.7 68.5 510.7 C 67.9 510.7 67.3 510.4 66.8 509.8 C 66.3 509.3 66.0 508.7 66.0 508.1 C 66.0 507.8 66.1 507.3 66.4 506.7 C 66.9 505.8 67.1 505.0 67.1 504.3 C 67.1 503.6 66.9 502.8 66.4 501.8 C 66.1 501.2 66.0 500.8 66.0 500.5 C 66.0 499.9 66.3 499.3 66.8 498.7 C 67.3 498.2 67.9 497.9 68.5 497.9 C 68.8 497.9 69.2 498.1 69.8 498.4 C 70.8 498.8 71.6 499.1 72.3 499.1 C 73.0 499.1 73.8 498.8 74.8 498.4 C 75.4 498.1 75.9 497.9 76.1 497.9 C 76.8 497.9 77.4 498.2 77.9 498.7 C 78.4 499.3 78.7 499.9 78.7 500.5 C 78.7 500.8 78.5 501.2 78.2 501.8 C 77.8 502.8 77.5 503.6 77.5 504.3 C 77.5 505.0 77.8 505.8 78.2 506.7 C 78.5 507.3 78.7 507.8 78.7 508.1 " fill="#FFFFFF"></path></g></g></g></g></g></g></g><image xlink:href="../../7A911799-D6F9-42FA-A54D-1261343CA851/assets/3D4060F709D76D5FACA3348D415BF15D.png" width="398.00" height="43.00" transform="matrix(1.00, 0.00, -0.00, -1.00, 99.0, 521.0)"></image><text xml:space="preserve" font-family="HelveticaNeue-Light" font-size="36.0" fill="#FEFFFE" transform="matrix(1.00, 0.00, -0.00, -1.00, 101.0, 493.0)">D</text><text xml:space="preserve" font-family="HelveticaNeue-Light" font-size="36.0" fill="#FEFFFE" transform="matrix(1.00, 0.00, -0.00, -1.00, 125.7, 493.0)">l</text><text xml:space="preserve" font-family="HelveticaNeue-Light" font-size="36.0" fill="#FEFFFE" transform="matrix(1.00, 0.00, -0.00, -1.00, 132.3, 493.0)">a</text><text xml:space="preserve" font-family="HelveticaNeue-Light" font-size="36.0" fill="#FEFFFE" transform="matrix(1.00, 0.00, -0.00, -1.00, 151.0, 493.0)">c</text><text xml:space="preserve" font-family="HelveticaNeue-Light" font-size="36.0" fill="#FEFFFE" transform="matrix(1.00, 0.00, -0.00, -1.00, 169.7, 493.0)">z</text><text xml:space="preserve" font-family="HelveticaNeue-Light" font-size="36.0" fill="#FEFFFE" transform="matrix(1.00, 0.00, -0.00, -1.00, 186.4, 493.0)">e</text><text xml:space="preserve" font-family="HelveticaNeue-Light" font-size="36.0" fill="#FEFFFE" transform="matrix(1.00, 0.00, -0.00, -1.00, 205.0, 493.0)">g</text><text xml:space="preserve" font-family="HelveticaNeue-Light" font-size="36.0" fill="#FEFFFE" transform="matrix(1.00, 0.00, -0.00, -1.00, 225.1, 493.0)">o</text><text xml:space="preserve" font-family="HelveticaNeue-Light" font-size="36.0" fill="#FEFFFE" transform="matrix(1.00, 0.00, -0.00, -1.00, 245.1, 493.0)"> </text><text xml:space="preserve" font-family="HelveticaNeue-Light" font-size="36.0" fill="#FEFFFE" transform="matrix(1.00, 0.00, -0.00, -1.00, 255.1, 493.0)">A</text><text xml:space="preserve" font-family="HelveticaNeue-Light" font-size="36.0" fill="#FEFFFE" transform="matrix(1.00, 0.00, -0.00, -1.00, 275.3, 493.0)">T</text><text xml:space="preserve" font-family="HelveticaNeue-Light" font-size="36.0" fill="#FEFFFE" transform="matrix(1.00, 0.00, -0.00, -1.00, 295.3, 493.0)">m</text><text xml:space="preserve" font-family="HelveticaNeue-Light" font-size="36.0" fill="#FEFFFE" transform="matrix(1.00, 0.00, -0.00, -1.00, 325.3, 493.0)">e</text><text xml:space="preserve" font-family="HelveticaNeue-Light" font-size="36.0" fill="#FEFFFE" transform="matrix(1.00, 0.00, -0.00, -1.00, 344.0, 493.0)">g</text><text xml:space="preserve" font-family="HelveticaNeue-Light" font-size="36.0" fill="#FEFFFE" transform="matrix(1.00, 0.00, -0.00, -1.00, 364.0, 493.0)">a</text><text xml:space="preserve" font-family="HelveticaNeue-Light" font-size="36.0" fill="#FEFFFE" transform="matrix(1.00, 0.00, -0.00, -1.00, 382.7, 493.0)"> </text><text xml:space="preserve" font-family="HelveticaNeue-Light" font-size="36.0" fill="#FEFFFE" transform="matrix(1.00, 0.00, -0.00, -1.00, 392.7, 493.0)">3</text><text xml:space="preserve" font-family="HelveticaNeue-Light" font-size="36.0" fill="#FEFFFE" transform="matrix(1.00, 0.00, -0.00, -1.00, 412.7, 493.0)">2</text><text xml:space="preserve" font-family="HelveticaNeue-Light" font-size="36.0" fill="#FEFFFE" transform="matrix(1.00, 0.00, -0.00, -1.00, 432.7, 493.0)">8</text><text xml:space="preserve" font-family="HelveticaNeue-Light" font-size="36.0" fill="#FEFFFE" transform="matrix(1.00, 0.00, -0.00, -1.00, 452.8, 493.0)">P</text><text xml:space="preserve" font-family="HelveticaNeue-Light" font-size="36.0" fill="#FEFFFE" transform="matrix(1.00, 0.00, -0.00, -1.00, 475.4, 493.0)">?</text><text xml:space="preserve" font-family="HelveticaNeue-Light" font-size="36.0" fill="#FEFFFE" transform="matrix(1.00, 0.00, -0.00, -1.00, 494.8, 493.0)"> </text><image xlink:href="../../F1B4BC77-6245-4A11-9B6C-44A6E150CF4F/assets/EAF6C6CDEC7DBCD52B69A706E10EF119.png" width="13.00" height="14.00" transform="matrix(1.00, 0.00, -0.00, -1.00, 66.0, 431.0)"></image><g><clipPath id="clip-135"><path d="M 66.0 417.9 L 78.7 417.9 L 78.7 430.7 L 66.0 430.7 Z M 66.0 417.9 "></path></clipPath><g clip-path="url(#clip-135)"><g><g><clipPath id="clip-136"><path d="M 66.0 430.7 L 78.7 430.7 L 78.7 417.9 L 66.0 417.9 Z M 66.0 430.7 "></path></clipPath><g clip-path="url(#clip-136)"><g><clipPath id="clip-137"><path d="M 62.0 410.0 L 83.0 410.0 L 83.0 438.0 L 62.0 438.0 Z M 62.0 410.0 "></path></clipPath><g clip-path="url(#clip-137)"><path d="M 78.7 428.1 C 78.7 428.7 78.4 429.2 77.9 429.8 C 77.4 430.4 76.8 430.7 76.1 430.7 C 75.9 430.7 75.4 430.5 74.8 430.2 C 73.8 429.7 73.0 429.5 72.3 429.5 C 71.6 429.5 70.8 429.7 69.8 430.2 C 69.2 430.5 68.8 430.7 68.5 430.7 C 67.9 430.7 67.3 430.4 66.8 429.8 C 66.3 429.3 66.0 428.7 66.0 428.1 C 66.0 427.8 66.1 427.3 66.4 426.7 C 66.9 425.8 67.1 425.0 67.1 424.3 C 67.1 423.6 66.9 422.8 66.4 421.8 C 66.1 421.2 66.0 420.8 66.0 420.5 C 66.0 419.9 66.3 419.3 66.8 418.7 C 67.3 418.2 67.9 417.9 68.5 417.9 C 68.8 417.9 69.2 418.1 69.8 418.4 C 70.8 418.8 71.6 419.1 72.3 419.1 C 73.0 419.1 73.8 418.8 74.8 418.4 C 75.4 418.1 75.9 417.9 76.1 417.9 C 76.8 417.9 77.4 418.2 77.9 418.7 C 78.4 419.3 78.7 419.9 78.7 420.5 C 78.7 420.8 78.5 421.2 78.2 421.8 C 77.8 422.8 77.5 423.6 77.5 424.3 C 77.5 425.0 77.8 425.8 78.2 426.7 C 78.5 427.3 78.7 427.8 78.7 428.1 " fill="#FFFFFF"></path></g></g></g></g></g></g></g><image xlink:href="../../7A911799-D6F9-42FA-A54D-1261343CA851/assets/4E82D4520D7E6D20496B732CC227E8DB.png" width="382.00" height="43.00" transform="matrix(1.00, 0.00, -0.00, -1.00, 99.0, 441.0)"></image><text xml:space="preserve" font-family="HelveticaNeue-Light" font-size="36.0" fill="#FEFFFE" transform="matrix(1.00, 0.00, -0.00, -1.00, 101.0, 413.0)">D</text><text xml:space="preserve" font-family="HelveticaNeue-Light" font-size="36.0" fill="#FEFFFE" transform="matrix(1.00, 0.00, -0.00, -1.00, 125.7, 413.0)">l</text><text xml:space="preserve" font-family="HelveticaNeue-Light" font-size="36.0" fill="#FEFFFE" transform="matrix(1.00, 0.00, -0.00, -1.00, 132.3, 413.0)">a</text><text xml:space="preserve" font-family="HelveticaNeue-Light" font-size="36.0" fill="#FEFFFE" transform="matrix(1.00, 0.00, -0.00, -1.00, 151.0, 413.0)">c</text><text xml:space="preserve" font-family="HelveticaNeue-Light" font-size="36.0" fill="#FEFFFE" transform="matrix(1.00, 0.00, -0.00, -1.00, 169.7, 413.0)">z</text><text xml:space="preserve" font-family="HelveticaNeue-Light" font-size="36.0" fill="#FEFFFE" transform="matrix(1.00, 0.00, -0.00, -1.00, 186.4, 413.0)">e</text><text xml:space="preserve" font-family="HelveticaNeue-Light" font-size="36.0" fill="#FEFFFE" transform="matrix(1.00, 0.00, -0.00, -1.00, 205.0, 413.0)">g</text><text xml:space="preserve" font-family="HelveticaNeue-Light" font-size="36.0" fill="#FEFFFE" transform="matrix(1.00, 0.00, -0.00, -1.00, 225.1, 413.0)">o</text><text xml:space="preserve" font-family="HelveticaNeue-Light" font-size="36.0" fill="#FEFFFE" transform="matrix(1.00, 0.00, -0.00, -1.00, 245.1, 413.0)"> </text><text xml:space="preserve" font-family="HelveticaNeue-Light" font-size="36.0" fill="#FEFFFE" transform="matrix(1.00, 0.00, -0.00, -1.00, 255.1, 413.0)">n</text><text xml:space="preserve" font-family="HelveticaNeue-Light" font-size="36.0" fill="#FEFFFE" transform="matrix(1.00, 0.00, -0.00, -1.00, 274.4, 413.0)">i</text><text xml:space="preserve" font-family="HelveticaNeue-Light" font-size="36.0" fill="#FEFFFE" transform="matrix(1.00, 0.00, -0.00, -1.00, 281.1, 413.0)">e</text><text xml:space="preserve" font-family="HelveticaNeue-Light" font-size="36.0" fill="#FEFFFE" transform="matrix(1.00, 0.00, -0.00, -1.00, 299.8, 413.0)"> </text><text xml:space="preserve" font-family="HelveticaNeue-Light" font-size="36.0" fill="#FEFFFE" transform="matrix(1.00, 0.00, -0.00, -1.00, 309.8, 413.0)">m</text><text xml:space="preserve" font-family="HelveticaNeue-Light" font-size="36.0" fill="#FEFFFE" transform="matrix(1.00, 0.00, -0.00, -1.00, 339.8, 413.0)">a</text><text xml:space="preserve" font-family="HelveticaNeue-Light" font-size="36.0" fill="#FEFFFE" transform="matrix(1.00, 0.00, -0.00, -1.00, 358.4, 413.0)"> </text><text xml:space="preserve" font-family="HelveticaNeue-Light" font-size="36.0" fill="#FEFFFE" transform="matrix(1.00, 0.00, -0.00, -1.00, 368.4, 413.0)">G</text><text xml:space="preserve" font-family="HelveticaNeue-Light" font-size="36.0" fill="#FEFFFE" transform="matrix(1.00, 0.00, -0.00, -1.00, 395.1, 413.0)">P</text><text xml:space="preserve" font-family="HelveticaNeue-Light" font-size="36.0" fill="#FEFFFE" transform="matrix(1.00, 0.00, -0.00, -1.00, 417.8, 413.0)">S</text><text xml:space="preserve" font-family="HelveticaNeue-Light" font-size="36.0" fill="#FEFFFE" transform="matrix(1.00, 0.00, -0.00, -1.00, 440.5, 413.0)">a</text><text xml:space="preserve" font-family="HelveticaNeue-Light" font-size="36.0" fill="#FEFFFE" transform="matrix(1.00, 0.00, -0.00, -1.00, 459.2, 413.0)">?</text><text xml:space="preserve" font-family="HelveticaNeue-Light" font-size="36.0" fill="#FEFFFE" transform="matrix(1.00, 0.00, -0.00, -1.00, 478.5, 413.0)"> </text><image xlink:href="../../F1B4BC77-6245-4A11-9B6C-44A6E150CF4F/assets/EAF6C6CDEC7DBCD52B69A706E10EF119.png" width="13.00" height="14.00" transform="matrix(1.00, 0.00, -0.00, -1.00, 66.0, 351.0)"></image><g><clipPath id="clip-138"><path d="M 66.0 337.9 L 78.7 337.9 L 78.7 350.7 L 66.0 350.7 Z M 66.0 337.9 "></path></clipPath><g clip-path="url(#clip-138)"><g><g><clipPath id="clip-139"><path d="M 66.0 350.7 L 78.7 350.7 L 78.7 337.9 L 66.0 337.9 Z M 66.0 350.7 "></path></clipPath><g clip-path="url(#clip-139)"><g><clipPath id="clip-140"><path d="M 62.0 330.0 L 83.0 330.0 L 83.0 358.0 L 62.0 358.0 Z M 62.0 330.0 "></path></clipPath><g clip-path="url(#clip-140)"><path d="M 78.7 348.1 C 78.7 348.7 78.4 349.2 77.9 349.8 C 77.4 350.4 76.8 350.7 76.1 350.7 C 75.9 350.7 75.4 350.5 74.8 350.2 C 73.8 349.7 73.0 349.5 72.3 349.5 C 71.6 349.5 70.8 349.7 69.8 350.2 C 69.2 350.5 68.8 350.7 68.5 350.7 C 67.9 350.7 67.3 350.4 66.8 349.8 C 66.3 349.3 66.0 348.7 66.0 348.1 C 66.0 347.8 66.1 347.3 66.4 346.7 C 66.9 345.8 67.1 345.0 67.1 344.3 C 67.1 343.6 66.9 342.8 66.4 341.8 C 66.1 341.2 66.0 340.8 66.0 340.5 C 66.0 339.9 66.3 339.3 66.8 338.7 C 67.3 338.2 67.9 337.9 68.5 337.9 C 68.8 337.9 69.2 338.1 69.8 338.4 C 70.8 338.8 71.6 339.1 72.3 339.1 C 73.0 339.1 73.8 338.8 74.8 338.4 C 75.4 338.1 75.9 337.9 76.1 337.9 C 76.8 337.9 77.4 338.2 77.9 338.7 C 78.4 339.3 78.7 339.9 78.7 340.5 C 78.7 340.8 78.5 341.2 78.2 341.8 C 77.8 342.8 77.5 343.6 77.5 344.3 C 77.5 345.0 77.8 345.8 78.2 346.7 C 78.5 347.3 78.7 347.8 78.7 348.1 " fill="#FFFFFF"></path></g></g></g></g></g></g></g><image xlink:href="../../7A911799-D6F9-42FA-A54D-1261343CA851/assets/23DDBF8747FCAAD2E062F5F46F709247.png" width="612.00" height="43.00" transform="matrix(1.00, 0.00, -0.00, -1.00, 99.0, 361.0)"></image><text xml:space="preserve" font-family="HelveticaNeue-Light" font-size="36.0" fill="#FEFFFE" transform="matrix(1.00, 0.00, -0.00, -1.00, 101.0, 333.0)">D</text><text xml:space="preserve" font-family="HelveticaNeue-Light" font-size="36.0" fill="#FEFFFE" transform="matrix(1.00, 0.00, -0.00, -1.00, 125.7, 333.0)">l</text><text xml:space="preserve" font-family="HelveticaNeue-Light" font-size="36.0" fill="#FEFFFE" transform="matrix(1.00, 0.00, -0.00, -1.00, 132.3, 333.0)">a</text><text xml:space="preserve" font-family="HelveticaNeue-Light" font-size="36.0" fill="#FEFFFE" transform="matrix(1.00, 0.00, -0.00, -1.00, 151.0, 333.0)">c</text><text xml:space="preserve" font-family="HelveticaNeue-Light" font-size="36.0" fill="#FEFFFE" transform="matrix(1.00, 0.00, -0.00, -1.00, 169.7, 333.0)">z</text><text xml:space="preserve" font-family="HelveticaNeue-Light" font-size="36.0" fill="#FEFFFE" transform="matrix(1.00, 0.00, -0.00, -1.00, 186.4, 333.0)">e</text><text xml:space="preserve" font-family="HelveticaNeue-Light" font-size="36.0" fill="#FEFFFE" transform="matrix(1.00, 0.00, -0.00, -1.00, 205.0, 333.0)">g</text><text xml:space="preserve" font-family="HelveticaNeue-Light" font-size="36.0" fill="#FEFFFE" transform="matrix(1.00, 0.00, -0.00, -1.00, 225.1, 333.0)">o</text><text xml:space="preserve" font-family="HelveticaNeue-Light" font-size="36.0" fill="#FEFFFE" transform="matrix(1.00, 0.00, -0.00, -1.00, 245.1, 333.0)"> </text><text xml:space="preserve" font-family="HelveticaNeue-Light" font-size="36.0" fill="#FEFFFE" transform="matrix(1.00, 0.00, -0.00, -1.00, 255.1, 333.0)">n</text><text xml:space="preserve" font-family="HelveticaNeue-Light" font-size="36.0" fill="#FEFFFE" transform="matrix(1.00, 0.00, -0.00, -1.00, 274.4, 333.0)">i</text><text xml:space="preserve" font-family="HelveticaNeue-Light" font-size="36.0" fill="#FEFFFE" transform="matrix(1.00, 0.00, -0.00, -1.00, 281.1, 333.0)">e</text><text xml:space="preserve" font-family="HelveticaNeue-Light" font-size="36.0" fill="#FEFFFE" transform="matrix(1.00, 0.00, -0.00, -1.00, 299.8, 333.0)"> </text><text xml:space="preserve" font-family="HelveticaNeue-Light" font-size="36.0" fill="#FEFFFE" transform="matrix(1.00, 0.00, -0.00, -1.00, 309.8, 333.0)">m</text><text xml:space="preserve" font-family="HelveticaNeue-Light" font-size="36.0" fill="#FEFFFE" transform="matrix(1.00, 0.00, -0.00, -1.00, 339.8, 333.0)">a</text><text xml:space="preserve" font-family="HelveticaNeue-Light" font-size="36.0" fill="#FEFFFE" transform="matrix(1.00, 0.00, -0.00, -1.00, 358.4, 333.0)"> </text><text xml:space="preserve" font-family="HelveticaNeue-Light" font-size="36.0" fill="#FEFFFE" transform="matrix(1.00, 0.00, -0.00, -1.00, 368.4, 333.0)">c</text><text xml:space="preserve" font-family="HelveticaNeue-Light" font-size="36.0" fill="#FEFFFE" transform="matrix(1.00, 0.00, -0.00, -1.00, 387.1, 333.0)">z</text><text xml:space="preserve" font-family="HelveticaNeue-Light" font-size="36.0" fill="#FEFFFE" transform="matrix(1.00, 0.00, -0.00, -1.00, 403.8, 333.0)">u</text><text xml:space="preserve" font-family="HelveticaNeue-Light" font-size="36.0" fill="#FEFFFE" transform="matrix(1.00, 0.00, -0.00, -1.00, 423.1, 333.0)">j</text><text xml:space="preserve" font-family="HelveticaNeue-Light" font-size="36.0" fill="#FEFFFE" transform="matrix(1.00, 0.00, -0.00, -1.00, 429.8, 333.0)">n</text><text xml:space="preserve" font-family="HelveticaNeue-Light" font-size="36.0" fill="#FEFFFE" transform="matrix(1.00, 0.00, -0.00, -1.00, 449.1, 333.0)">i</text><text xml:space="preserve" font-family="HelveticaNeue-Light" font-size="36.0" fill="#FEFFFE" transform="matrix(1.00, 0.00, -0.00, -1.00, 455.8, 333.0)">k</text><text xml:space="preserve" font-family="HelveticaNeue-Light" font-size="36.0" fill="#FEFFFE" transform="matrix(1.00, 0.00, -0.00, -1.00, 473.8, 333.0)">a</text><text xml:space="preserve" font-family="HelveticaNeue-Light" font-size="36.0" fill="#FEFFFE" transform="matrix(1.00, 0.00, -0.00, -1.00, 492.5, 333.0)"> </text><text xml:space="preserve" font-family="HelveticaNeue-Light" font-size="36.0" fill="#FEFFFE" transform="matrix(1.00, 0.00, -0.00, -1.00, 502.5, 333.0)">t</text><text xml:space="preserve" font-family="HelveticaNeue-Light" font-size="36.0" fill="#FEFFFE" transform="matrix(1.00, 0.00, -0.00, -1.00, 513.1, 333.0)">e</text><text xml:space="preserve" font-family="HelveticaNeue-Light" font-size="36.0" fill="#FEFFFE" transform="matrix(1.00, 0.00, -0.00, -1.00, 531.8, 333.0)">m</text><text xml:space="preserve" font-family="HelveticaNeue-Light" font-size="36.0" fill="#FEFFFE" transform="matrix(1.00, 0.00, -0.00, -1.00, 561.8, 333.0)">p</text><text xml:space="preserve" font-family="HelveticaNeue-Light" font-size="36.0" fill="#FEFFFE" transform="matrix(1.00, 0.00, -0.00, -1.00, 582.5, 333.0)">e</text><text xml:space="preserve" font-family="HelveticaNeue-Light" font-size="36.0" fill="#FEFFFE" transform="matrix(1.00, 0.00, -0.00, -1.00, 601.1, 333.0)">r</text><text xml:space="preserve" font-family="HelveticaNeue-Light" font-size="36.0" fill="#FEFFFE" transform="matrix(1.00, 0.00, -0.00, -1.00, 612.5, 333.0)">a</text><text xml:space="preserve" font-family="HelveticaNeue-Light" font-size="36.0" fill="#FEFFFE" transform="matrix(1.00, 0.00, -0.00, -1.00, 631.2, 333.0)">t</text><text xml:space="preserve" font-family="HelveticaNeue-Light" font-size="36.0" fill="#FEFFFE" transform="matrix(1.00, 0.00, -0.00, -1.00, 641.8, 333.0)">u</text><text xml:space="preserve" font-family="HelveticaNeue-Light" font-size="36.0" fill="#FEFFFE" transform="matrix(1.00, 0.00, -0.00, -1.00, 661.2, 333.0)">r</text><text xml:space="preserve" font-family="HelveticaNeue-Light" font-size="36.0" fill="#FEFFFE" transform="matrix(1.00, 0.00, -0.00, -1.00, 672.5, 333.0)">y</text><text xml:space="preserve" font-family="HelveticaNeue-Light" font-size="36.0" fill="#FEFFFE" transform="matrix(1.00, 0.00, -0.00, -1.00, 689.2, 333.0)">?</text><text xml:space="preserve" font-family="HelveticaNeue-Light" font-size="36.0" fill="#FEFFFE" transform="matrix(1.00, 0.00, -0.00, -1.00, 708.5, 333.0)"> </text><image xlink:href="../../F1B4BC77-6245-4A11-9B6C-44A6E150CF4F/assets/EAF6C6CDEC7DBCD52B69A706E10EF119.png" width="13.00" height="14.00" transform="matrix(1.00, 0.00, -0.00, -1.00, 66.0, 271.0)"></image><g><clipPath id="clip-141"><path d="M 66.0 257.9 L 78.7 257.9 L 78.7 270.7 L 66.0 270.7 Z M 66.0 257.9 "></path></clipPath><g clip-path="url(#clip-141)"><g><g><clipPath id="clip-142"><path d="M 66.0 270.7 L 78.7 270.7 L 78.7 257.9 L 66.0 257.9 Z M 66.0 270.7 "></path></clipPath><g clip-path="url(#clip-142)"><g><clipPath id="clip-143"><path d="M 62.0 250.0 L 83.0 250.0 L 83.0 278.0 L 62.0 278.0 Z M 62.0 250.0 "></path></clipPath><g clip-path="url(#clip-143)"><path d="M 78.7 268.1 C 78.7 268.7 78.4 269.2 77.9 269.8 C 77.4 270.4 76.8 270.7 76.1 270.7 C 75.9 270.7 75.4 270.5 74.8 270.2 C 73.8 269.7 73.0 269.5 72.3 269.5 C 71.6 269.5 70.8 269.7 69.8 270.2 C 69.2 270.5 68.8 270.7 68.5 270.7 C 67.9 270.7 67.3 270.4 66.8 269.8 C 66.3 269.3 66.0 268.7 66.0 268.1 C 66.0 267.8 66.1 267.3 66.4 266.7 C 66.9 265.8 67.1 265.0 67.1 264.3 C 67.1 263.6 66.9 262.8 66.4 261.8 C 66.1 261.2 66.0 260.8 66.0 260.5 C 66.0 259.9 66.3 259.3 66.8 258.7 C 67.3 258.2 67.9 257.9 68.5 257.9 C 68.8 257.9 69.2 258.1 69.8 258.4 C 70.8 258.8 71.6 259.1 72.3 259.1 C 73.0 259.1 73.8 258.8 74.8 258.4 C 75.4 258.1 75.9 257.9 76.1 257.9 C 76.8 257.9 77.4 258.2 77.9 258.7 C 78.4 259.3 78.7 259.9 78.7 260.5 C 78.7 260.8 78.5 261.2 78.2 261.8 C 77.8 262.8 77.5 263.6 77.5 264.3 C 77.5 265.0 77.8 265.8 78.2 266.7 C 78.5 267.3 78.7 267.8 78.7 268.1 " fill="#FFFFFF"></path></g></g></g></g></g></g></g><image xlink:href="../../7A911799-D6F9-42FA-A54D-1261343CA851/assets/77F8B10DE8C588807C2E65D9A3E42C90.png" width="521.00" height="43.00" transform="matrix(1.00, 0.00, -0.00, -1.00, 99.0, 281.0)"></image><text xml:space="preserve" font-family="HelveticaNeue-Light" font-size="36.0" fill="#FEFFFE" transform="matrix(1.00, 0.00, -0.00, -1.00, 101.0, 253.0)">D</text><text xml:space="preserve" font-family="HelveticaNeue-Light" font-size="36.0" fill="#FEFFFE" transform="matrix(1.00, 0.00, -0.00, -1.00, 125.7, 253.0)">l</text><text xml:space="preserve" font-family="HelveticaNeue-Light" font-size="36.0" fill="#FEFFFE" transform="matrix(1.00, 0.00, -0.00, -1.00, 132.3, 253.0)">a</text><text xml:space="preserve" font-family="HelveticaNeue-Light" font-size="36.0" fill="#FEFFFE" transform="matrix(1.00, 0.00, -0.00, -1.00, 151.0, 253.0)">c</text><text xml:space="preserve" font-family="HelveticaNeue-Light" font-size="36.0" fill="#FEFFFE" transform="matrix(1.00, 0.00, -0.00, -1.00, 169.7, 253.0)">z</text><text xml:space="preserve" font-family="HelveticaNeue-Light" font-size="36.0" fill="#FEFFFE" transform="matrix(1.00, 0.00, -0.00, -1.00, 186.4, 253.0)">e</text><text xml:space="preserve" font-family="HelveticaNeue-Light" font-size="36.0" fill="#FEFFFE" transform="matrix(1.00, 0.00, -0.00, -1.00, 205.0, 253.0)">g</text><text xml:space="preserve" font-family="HelveticaNeue-Light" font-size="36.0" fill="#FEFFFE" transform="matrix(1.00, 0.00, -0.00, -1.00, 225.1, 253.0)">o</text><text xml:space="preserve" font-family="HelveticaNeue-Light" font-size="36.0" fill="#FEFFFE" transform="matrix(1.00, 0.00, -0.00, -1.00, 245.1, 253.0)"> </text><text xml:space="preserve" font-family="HelveticaNeue-Light" font-size="36.0" fill="#FEFFFE" transform="matrix(1.00, 0.00, -0.00, -1.00, 255.1, 253.0)">n</text><text xml:space="preserve" font-family="HelveticaNeue-Light" font-size="36.0" fill="#FEFFFE" transform="matrix(1.00, 0.00, -0.00, -1.00, 274.4, 253.0)">i</text><text xml:space="preserve" font-family="HelveticaNeue-Light" font-size="36.0" fill="#FEFFFE" transform="matrix(1.00, 0.00, -0.00, -1.00, 281.1, 253.0)">e</text><text xml:space="preserve" font-family="HelveticaNeue-Light" font-size="36.0" fill="#FEFFFE" transform="matrix(1.00, 0.00, -0.00, -1.00, 299.8, 253.0)"> </text><text xml:space="preserve" font-family="HelveticaNeue-Light" font-size="36.0" fill="#FEFFFE" transform="matrix(1.00, 0.00, -0.00, -1.00, 309.8, 253.0)">m</text><text xml:space="preserve" font-family="HelveticaNeue-Light" font-size="36.0" fill="#FEFFFE" transform="matrix(1.00, 0.00, -0.00, -1.00, 339.8, 253.0)">i</text><text xml:space="preserve" font-family="HelveticaNeue-Light" font-size="36.0" fill="#FEFFFE" transform="matrix(1.00, 0.00, -0.00, -1.00, 346.4, 253.0)">e</text><text xml:space="preserve" font-family="HelveticaNeue-Light" font-size="36.0" fill="#FEFFFE" transform="matrix(1.00, 0.00, -0.00, -1.00, 365.1, 253.0)">r</text><text xml:space="preserve" font-family="HelveticaNeue-Light" font-size="36.0" fill="#FEFFFE" transform="matrix(1.00, 0.00, -0.00, -1.00, 376.4, 253.0)">z</text><text xml:space="preserve" font-family="HelveticaNeue-Light" font-size="36.0" fill="#FEFFFE" transform="matrix(1.00, 0.00, -0.00, -1.00, 393.1, 253.0)">y</text><text xml:space="preserve" font-family="HelveticaNeue-Light" font-size="36.0" fill="#FEFFFE" transform="matrix(1.00, 0.00, -0.00, -1.00, 409.8, 253.0)">m</text><text xml:space="preserve" font-family="HelveticaNeue-Light" font-size="36.0" fill="#FEFFFE" transform="matrix(1.00, 0.00, -0.00, -1.00, 439.8, 253.0)">y</text><text xml:space="preserve" font-family="HelveticaNeue-Light" font-size="36.0" fill="#FEFFFE" transform="matrix(1.00, 0.00, -0.00, -1.00, 456.4, 253.0)"> </text><text xml:space="preserve" font-family="HelveticaNeue-Light" font-size="36.0" fill="#FEFFFE" transform="matrix(1.00, 0.00, -0.00, -1.00, 466.4, 253.0)">c</text><text xml:space="preserve" font-family="HelveticaNeue-Light" font-size="36.0" fill="#FEFFFE" transform="matrix(1.00, 0.00, -0.00, -1.00, 485.1, 253.0)">i</text><text xml:space="preserve" font-family="HelveticaNeue-Light" font-size="36.0" fill="#FEFFFE" transform="matrix(1.00, 0.00, -0.00, -1.00, 491.8, 253.0)">ś</text><text xml:space="preserve" font-family="HelveticaNeue-Light" font-size="36.0" fill="#FEFFFE" transform="matrix(1.00, 0.00, -0.00, -1.00, 509.1, 253.0)">n</text><text xml:space="preserve" font-family="HelveticaNeue-Light" font-size="36.0" fill="#FEFFFE" transform="matrix(1.00, 0.00, -0.00, -1.00, 528.4, 253.0)">i</text><text xml:space="preserve" font-family="HelveticaNeue-Light" font-size="36.0" fill="#FEFFFE" transform="matrix(1.00, 0.00, -0.00, -1.00, 535.1, 253.0)">e</text><text xml:space="preserve" font-family="HelveticaNeue-Light" font-size="36.0" fill="#FEFFFE" transform="matrix(1.00, 0.00, -0.00, -1.00, 553.8, 253.0)">n</text><text xml:space="preserve" font-family="HelveticaNeue-Light" font-size="36.0" fill="#FEFFFE" transform="matrix(1.00, 0.00, -0.00, -1.00, 573.1, 253.0)">i</text><text xml:space="preserve" font-family="HelveticaNeue-Light" font-size="36.0" fill="#FEFFFE" transform="matrix(1.00, 0.00, -0.00, -1.00, 579.8, 253.0)">a</text><text xml:space="preserve" font-family="HelveticaNeue-Light" font-size="36.0" fill="#FEFFFE" transform="matrix(1.00, 0.00, -0.00, -1.00, 598.4, 253.0)">?</text><text xml:space="preserve" font-family="HelveticaNeue-Light" font-size="36.0" fill="#FEFFFE" transform="matrix(1.00, 0.00, -0.00, -1.00, 617.8, 253.0)"> </text><image xlink:href="../../F1B4BC77-6245-4A11-9B6C-44A6E150CF4F/assets/DE07F9AB8193DFDF98269BE738D2089E.png" width="13.00" height="14.00" transform="matrix(1.00, 0.00, -0.00, -1.00, 66.0, 191.0)"></image><g><clipPath id="clip-144"><path d="M 66.0 177.9 L 78.7 177.9 L 78.7 190.7 L 66.0 190.7 Z M 66.0 177.9 "></path></clipPath><g clip-path="url(#clip-144)"><g><g><clipPath id="clip-145"><path d="M 66.0 190.7 L 78.7 190.7 L 78.7 177.9 L 66.0 177.9 Z M 66.0 190.7 "></path></clipPath><g clip-path="url(#clip-145)"><g><clipPath id="clip-146"><path d="M 62.0 170.0 L 83.0 170.0 L 83.0 198.0 L 62.0 198.0 Z M 62.0 170.0 "></path></clipPath><g clip-path="url(#clip-146)"><path d="M 78.7 188.1 C 78.7 188.7 78.4 189.2 77.9 189.8 C 77.4 190.4 76.8 190.7 76.1 190.7 C 75.9 190.7 75.4 190.5 74.8 190.2 C 73.8 189.7 73.0 189.5 72.3 189.5 C 71.6 189.5 70.8 189.7 69.8 190.2 C 69.2 190.5 68.8 190.7 68.5 190.7 C 67.9 190.7 67.3 190.4 66.8 189.8 C 66.3 189.3 66.0 188.7 66.0 188.1 C 66.0 187.8 66.1 187.3 66.4 186.7 C 66.9 185.8 67.1 185.0 67.1 184.3 C 67.1 183.6 66.9 182.8 66.4 181.8 C 66.1 181.2 66.0 180.8 66.0 180.5 C 66.0 179.9 66.3 179.3 66.8 178.7 C 67.3 178.2 67.9 177.9 68.5 177.9 C 68.8 177.9 69.2 178.1 69.8 178.4 C 70.8 178.8 71.6 179.1 72.3 179.1 C 73.0 179.1 73.8 178.8 74.8 178.4 C 75.4 178.1 75.9 177.9 76.1 177.9 C 76.8 177.9 77.4 178.2 77.9 178.7 C 78.4 179.3 78.7 179.9 78.7 180.5 C 78.7 180.8 78.5 181.2 78.2 181.8 C 77.8 182.8 77.5 183.6 77.5 184.3 C 77.5 185.0 77.8 185.8 78.2 186.7 C 78.5 187.3 78.7 187.8 78.7 188.1 " fill="#FFFFFF"></path></g></g></g></g></g></g></g><image xlink:href="../../7A911799-D6F9-42FA-A54D-1261343CA851/assets/19D5688B784552856226557C3F86B352.png" width="786.00" height="42.00" transform="matrix(1.00, 0.00, -0.00, -1.00, 99.0, 200.0)"></image><text xml:space="preserve" font-family="HelveticaNeue-Light" font-size="36.0" fill="#FEFFFE" transform="matrix(1.00, 0.00, -0.00, -1.00, 101.0, 173.0)">D</text><text xml:space="preserve" font-family="HelveticaNeue-Light" font-size="36.0" fill="#FEFFFE" transform="matrix(1.00, 0.00, -0.00, -1.00, 125.7, 173.0)">l</text><text xml:space="preserve" font-family="HelveticaNeue-Light" font-size="36.0" fill="#FEFFFE" transform="matrix(1.00, 0.00, -0.00, -1.00, 132.3, 173.0)">a</text><text xml:space="preserve" font-family="HelveticaNeue-Light" font-size="36.0" fill="#FEFFFE" transform="matrix(1.00, 0.00, -0.00, -1.00, 151.0, 173.0)">c</text><text xml:space="preserve" font-family="HelveticaNeue-Light" font-size="36.0" fill="#FEFFFE" transform="matrix(1.00, 0.00, -0.00, -1.00, 169.7, 173.0)">z</text><text xml:space="preserve" font-family="HelveticaNeue-Light" font-size="36.0" fill="#FEFFFE" transform="matrix(1.00, 0.00, -0.00, -1.00, 186.4, 173.0)">e</text><text xml:space="preserve" font-family="HelveticaNeue-Light" font-size="36.0" fill="#FEFFFE" transform="matrix(1.00, 0.00, -0.00, -1.00, 205.0, 173.0)">g</text><text xml:space="preserve" font-family="HelveticaNeue-Light" font-size="36.0" fill="#FEFFFE" transform="matrix(1.00, 0.00, -0.00, -1.00, 225.1, 173.0)">o</text><text xml:space="preserve" font-family="HelveticaNeue-Light" font-size="36.0" fill="#FEFFFE" transform="matrix(1.00, 0.00, -0.00, -1.00, 245.1, 173.0)"> </text><text xml:space="preserve" font-family="HelveticaNeue-Light" font-size="36.0" fill="#FEFFFE" transform="matrix(1.00, 0.00, -0.00, -1.00, 255.1, 173.0)">u</text><text xml:space="preserve" font-family="HelveticaNeue-Light" font-size="36.0" fill="#FEFFFE" transform="matrix(1.00, 0.00, -0.00, -1.00, 274.4, 173.0)">ż</text><text xml:space="preserve" font-family="HelveticaNeue-Light" font-size="36.0" fill="#FEFFFE" transform="matrix(1.00, 0.00, -0.00, -1.00, 291.1, 173.0)">y</text><text xml:space="preserve" font-family="HelveticaNeue-Light" font-size="36.0" fill="#FEFFFE" transform="matrix(1.00, 0.00, -0.00, -1.00, 307.7, 173.0)">w</text><text xml:space="preserve" font-family="HelveticaNeue-Light" font-size="36.0" fill="#FEFFFE" transform="matrix(1.00, 0.00, -0.00, -1.00, 334.4, 173.0)">a</text><text xml:space="preserve" font-family="HelveticaNeue-Light" font-size="36.0" fill="#FEFFFE" transform="matrix(1.00, 0.00, -0.00, -1.00, 353.1, 173.0)">m</text><text xml:space="preserve" font-family="HelveticaNeue-Light" font-size="36.0" fill="#FEFFFE" transform="matrix(1.00, 0.00, -0.00, -1.00, 383.1, 173.0)">y</text><text xml:space="preserve" font-family="HelveticaNeue-Light" font-size="36.0" fill="#FEFFFE" transform="matrix(1.00, 0.00, -0.00, -1.00, 399.8, 173.0)"> </text><text xml:space="preserve" font-family="HelveticaNeue-Light" font-size="36.0" fill="#FEFFFE" transform="matrix(1.00, 0.00, -0.00, -1.00, 409.8, 173.0)">c</text><text xml:space="preserve" font-family="HelveticaNeue-Light" font-size="36.0" fill="#FEFFFE" transform="matrix(1.00, 0.00, -0.00, -1.00, 428.5, 173.0)">z</text><text xml:space="preserve" font-family="HelveticaNeue-Light" font-size="36.0" fill="#FEFFFE" transform="matrix(1.00, 0.00, -0.00, -1.00, 445.1, 173.0)">u</text><text xml:space="preserve" font-family="HelveticaNeue-Light" font-size="36.0" fill="#FEFFFE" transform="matrix(1.00, 0.00, -0.00, -1.00, 464.5, 173.0)">j</text><text xml:space="preserve" font-family="HelveticaNeue-Light" font-size="36.0" fill="#FEFFFE" transform="matrix(1.00, 0.00, -0.00, -1.00, 471.1, 173.0)">n</text><text xml:space="preserve" font-family="HelveticaNeue-Light" font-size="36.0" fill="#FEFFFE" transform="matrix(1.00, 0.00, -0.00, -1.00, 490.4, 173.0)">i</text><text xml:space="preserve" font-family="HelveticaNeue-Light" font-size="36.0" fill="#FEFFFE" transform="matrix(1.00, 0.00, -0.00, -1.00, 497.1, 173.0)">k</text><text xml:space="preserve" font-family="HelveticaNeue-Light" font-size="36.0" fill="#FEFFFE" transform="matrix(1.00, 0.00, -0.00, -1.00, 515.1, 173.0)">a</text><text xml:space="preserve" font-family="HelveticaNeue-Light" font-size="36.0" fill="#FEFFFE" transform="matrix(1.00, 0.00, -0.00, -1.00, 533.8, 173.0)"> </text><text xml:space="preserve" font-family="HelveticaNeue-Light" font-size="36.0" fill="#FEFFFE" transform="matrix(1.00, 0.00, -0.00, -1.00, 543.8, 173.0)">p</text><text xml:space="preserve" font-family="HelveticaNeue-Light" font-size="36.0" fill="#FEFFFE" transform="matrix(1.00, 0.00, -0.00, -1.00, 564.5, 173.0)">u</text><text xml:space="preserve" font-family="HelveticaNeue-Light" font-size="36.0" fill="#FEFFFE" transform="matrix(1.00, 0.00, -0.00, -1.00, 583.8, 173.0)">l</text><text xml:space="preserve" font-family="HelveticaNeue-Light" font-size="36.0" fill="#FEFFFE" transform="matrix(1.00, 0.00, -0.00, -1.00, 590.5, 173.0)">s</text><text xml:space="preserve" font-family="HelveticaNeue-Light" font-size="36.0" fill="#FEFFFE" transform="matrix(1.00, 0.00, -0.00, -1.00, 607.8, 173.0)">u</text><text xml:space="preserve" font-family="HelveticaNeue-Light" font-size="36.0" fill="#FEFFFE" transform="matrix(1.00, 0.00, -0.00, -1.00, 627.1, 173.0)"> </text><text xml:space="preserve" font-family="HelveticaNeue-Light" font-size="36.0" fill="#FEFFFE" transform="matrix(1.00, 0.00, -0.00, -1.00, 637.1, 173.0)">z</text><text xml:space="preserve" font-family="HelveticaNeue-Light" font-size="36.0" fill="#FEFFFE" transform="matrix(1.00, 0.00, -0.00, -1.00, 653.8, 173.0)">a</text><text xml:space="preserve" font-family="HelveticaNeue-Light" font-size="36.0" fill="#FEFFFE" transform="matrix(1.00, 0.00, -0.00, -1.00, 672.5, 173.0)">k</text><text xml:space="preserve" font-family="HelveticaNeue-Light" font-size="36.0" fill="#FEFFFE" transform="matrix(1.00, 0.00, -0.00, -1.00, 690.5, 173.0)">ł</text><text xml:space="preserve" font-family="HelveticaNeue-Light" font-size="36.0" fill="#FEFFFE" transform="matrix(1.00, 0.00, -0.00, -1.00, 697.1, 173.0)">a</text><text xml:space="preserve" font-family="HelveticaNeue-Light" font-size="36.0" fill="#FEFFFE" transform="matrix(1.00, 0.00, -0.00, -1.00, 715.8, 173.0)">d</text><text xml:space="preserve" font-family="HelveticaNeue-Light" font-size="36.0" fill="#FEFFFE" transform="matrix(1.00, 0.00, -0.00, -1.00, 736.5, 173.0)">a</text><text xml:space="preserve" font-family="HelveticaNeue-Light" font-size="36.0" fill="#FEFFFE" transform="matrix(1.00, 0.00, -0.00, -1.00, 755.2, 173.0)">n</text><text xml:space="preserve" font-family="HelveticaNeue-Light" font-size="36.0" fill="#FEFFFE" transform="matrix(1.00, 0.00, -0.00, -1.00, 774.5, 173.0)">e</text><text xml:space="preserve" font-family="HelveticaNeue-Light" font-size="36.0" fill="#FEFFFE" transform="matrix(1.00, 0.00, -0.00, -1.00, 793.2, 173.0)">g</text><text xml:space="preserve" font-family="HelveticaNeue-Light" font-size="36.0" fill="#FEFFFE" transform="matrix(1.00, 0.00, -0.00, -1.00, 813.2, 173.0)">o</text><text xml:space="preserve" font-family="HelveticaNeue-Light" font-size="36.0" fill="#FEFFFE" transform="matrix(1.00, 0.00, -0.00, -1.00, 833.2, 173.0)"> </text><text xml:space="preserve" font-family="HelveticaNeue-Light" font-size="36.0" fill="#FEFFFE" transform="matrix(1.00, 0.00, -0.00, -1.00, 843.2, 173.0)">n</text><text xml:space="preserve" font-family="HelveticaNeue-Light" font-size="36.0" fill="#FEFFFE" transform="matrix(1.00, 0.00, -0.00, -1.00, 862.5, 173.0)">a</text><text xml:space="preserve" font-family="HelveticaNeue-Light" font-size="36.0" fill="#FEFFFE" transform="matrix(1.00, 0.00, -0.00, -1.00, 881.2, 173.0)"> </text><image xlink:href="../../7A911799-D6F9-42FA-A54D-1261343CA851/assets/42D8AB7EE49F9D8D909753D23179F669.png" width="101.00" height="36.00" transform="matrix(1.00, 0.00, -0.00, -1.00, 99.0, 157.0)"></image><text xml:space="preserve" font-family="HelveticaNeue-Light" font-size="36.0" fill="#FEFFFE" transform="matrix(1.00, 0.00, -0.00, -1.00, 101.0, 129.0)">u</text><text xml:space="preserve" font-family="HelveticaNeue-Light" font-size="36.0" fill="#FEFFFE" transform="matrix(1.00, 0.00, -0.00, -1.00, 120.3, 129.0)">c</text><text xml:space="preserve" font-family="HelveticaNeue-Light" font-size="36.0" fill="#FEFFFE" transform="matrix(1.00, 0.00, -0.00, -1.00, 139.0, 129.0)">h</text><text xml:space="preserve" font-family="HelveticaNeue-Light" font-size="36.0" fill="#FEFFFE" transform="matrix(1.00, 0.00, -0.00, -1.00, 158.3, 129.0)">o</text><text xml:space="preserve" font-family="HelveticaNeue-Light" font-size="36.0" fill="#FEFFFE" transform="matrix(1.00, 0.00, -0.00, -1.00, 178.4, 129.0)">?</text><text xml:space="preserve" font-family="HelveticaNeue-Bold" font-weight="bold" font-size="14.0" fill="#FEFFFE" transform="matrix(1.00, 0.00, -0.00, -1.00, 999.9, 17.4)">6</text></g></svg>