<?xml version="1.0" encoding="UTF-8" standalone="no"?><svg xmlns="http://www.w3.org/2000/svg" xmlns:xlink="http://www.w3.org/1999/xlink" clip-rule="evenodd" stroke-miterlimit="4.00" viewBox="0 0 197 59"><desc>SVG generated by Keynote</desc><defs></defs><g transform="matrix(1.00, 0.00, -0.00, -1.00, 0.0, 59.0)"><text xml:space="preserve" font-family="Palatino-Roman" font-size="24.0" fill="#414040" transform="matrix(1.00, 0.00, -0.00, -1.00, 1.0, 40.0)">A</text><text xml:space="preserve" font-family="Palatino-Roman" font-size="24.0" fill="#414040" transform="matrix(1.00, 0.00, -0.00, -1.00, 17.9, 40.0)">y</text><text xml:space="preserve" font-family="Palatino-Roman" font-size="24.0" fill="#414040" transform="matrix(1.00, 0.00, -0.00, -1.00, 31.2, 40.0)">d</text><text xml:space="preserve" font-family="Palatino-Roman" font-size="24.0" fill="#414040" transform="matrix(1.00, 0.00, -0.00, -1.00, 45.9, 40.0)">i</text><text xml:space="preserve" font-family="Palatino-Roman" font-size="24.0" fill="#414040" transform="matrix(1.00, 0.00, -0.00, -1.00, 52.9, 40.0)">n</text><text xml:space="preserve" font-family="Palatino-Roman" font-size="24.0" fill="#414040" transform="matrix(1.00, 0.00, -0.00, -1.00, 66.9, 40.0)"> </text><text xml:space="preserve" font-family="Palatino-Roman" font-size="24.0" fill="#414040" transform="matrix(1.00, 0.00, -0.00, -1.00, 72.9, 40.0)">G</text><text xml:space="preserve" font-family="Palatino-Roman" font-size="24.0" fill="#414040" transform="matrix(1.00, 0.00, -0.00, -1.00, 91.2, 40.0)">ü</text><text xml:space="preserve" font-family="Palatino-Roman" font-size="24.0" fill="#414040" transform="matrix(1.00, 0.00, -0.00, -1.00, 105.6, 40.0)">v</text><text xml:space="preserve" font-family="Palatino-Roman" font-size="24.0" fill="#414040" transform="matrix(1.00, 0.00, -0.00, -1.00, 119.2, 40.0)">e</text><text xml:space="preserve" font-family="Palatino-Roman" font-size="24.0" fill="#414040" transform="matrix(1.00, 0.00, -0.00, -1.00, 130.7, 40.0)">n</text><text xml:space="preserve" font-family="Palatino-Roman" font-size="24.0" fill="#414040" transform="matrix(1.00, 0.00, -0.00, -1.00, 1.0, 8.0)">M</text><text xml:space="preserve" font-family="Palatino-Roman" font-size="24.0" fill="#414040" transform="matrix(1.00, 0.00, -0.00, -1.00, 23.7, 8.0)">a</text><text xml:space="preserve" font-family="Palatino-Roman" font-size="24.0" fill="#414040" transform="matrix(1.00, 0.00, -0.00, -1.00, 35.7, 8.0)">c</text><text xml:space="preserve" font-family="Palatino-Roman" font-size="24.0" fill="#414040" transform="matrix(1.00, 0.00, -0.00, -1.00, 46.3, 8.0)">i</text><text xml:space="preserve" font-family="Palatino-Roman" font-size="24.0" fill="#414040" transform="matrix(1.00, 0.00, -0.00, -1.00, 53.3, 8.0)">e</text><text xml:space="preserve" font-family="Palatino-Roman" font-size="24.0" fill="#414040" transform="matrix(1.00, 0.00, -0.00, -1.00, 64.8, 8.0)">j</text><text xml:space="preserve" font-family="Palatino-Roman" font-size="24.0" fill="#414040" transform="matrix(1.00, 0.00, -0.00, -1.00, 70.4, 8.0)"> </text><text xml:space="preserve" font-family="Palatino-Roman" font-size="24.0" fill="#414040" transform="matrix(1.00, 0.00, -0.00, -1.00, 76.4, 8.0)">K</text><text xml:space="preserve" font-family="Palatino-Roman" font-size="24.0" fill="#414040" transform="matrix(1.00, 0.00, -0.00, -1.00, 93.9, 8.0)">a</text><text xml:space="preserve" font-family="Palatino-Roman" font-size="24.0" fill="#414040" transform="matrix(1.00, 0.00, -0.00, -1.00, 105.9, 8.0)">s</text><text xml:space="preserve" font-family="Palatino-Roman" font-size="24.0" fill="#414040" transform="matrix(1.00, 0.00, -0.00, -1.00, 116.0, 8.0)">p</text><text xml:space="preserve" font-family="Palatino-Roman" font-size="24.0" fill="#414040" transform="matrix(1.00, 0.00, -0.00, -1.00, 130.5, 8.0)">r</text><text xml:space="preserve" font-family="Palatino-Roman" font-size="24.0" fill="#414040" transform="matrix(1.00, 0.00, -0.00, -1.00, 139.9, 8.0)">z</text><text xml:space="preserve" font-family="Palatino-Roman" font-size="24.0" fill="#414040" transform="matrix(1.00, 0.00, -0.00, -1.00, 151.9, 8.0)">y</text><text xml:space="preserve" font-family="Palatino-Roman" font-size="24.0" fill="#414040" transform="matrix(1.00, 0.00, -0.00, -1.00, 165.3, 8.0)">c</text><text xml:space="preserve" font-family="Palatino-Roman" font-size="24.0" fill="#414040" transform="matrix(1.00, 0.00, -0.00, -1.00, 175.9, 8.0)">k</text><text xml:space="preserve" font-family="Palatino-Roman" font-size="24.0" fill="#414040" transform="matrix(1.00, 0.00, -0.00, -1.00, 189.3, 8.0)">i</text></g></svg>