<?xml version="1.0" encoding="UTF-8" standalone="no"?><svg xmlns="http://www.w3.org/2000/svg" xmlns:xlink="http://www.w3.org/1999/xlink" clip-rule="evenodd" stroke-miterlimit="4.00" viewBox="0 0 1024 768"><desc>SVG generated by Keynote</desc><defs></defs><g transform="matrix(1.00, 0.00, -0.00, -1.00, 0.0, 768.0)"><g><clipPath id="clip-0"><path d="M 0.0 768.0 L 1024.0 768.0 L 1024.0 0.0 L 0.0 0.0 Z M 0.0 768.0 "></path></clipPath><g clip-path="url(#clip-0)"><image xlink:href="50163466EC2834942505D00A94D158E6.jpeg" width="1024.00" height="768.00" transform="matrix(1.00, 0.00, -0.00, -1.00, 0.0, 768.0)"></image></g></g><g opacity="0.30"><g><clipPath id="clip-1"><path d="M 39.0 247.0 L 986.0 247.0 L 986.0 251.0 L 39.0 251.0 Z M 39.0 247.0 "></path></clipPath><g clip-path="url(#clip-1)"><path d="M 0.0 0.0 L 944.8 0.0 " fill="none" stroke="#434343" stroke-width="1.00" transform="matrix(1.00, 0.00, 0.00, -1.00, 40.0, 249.0)"></path></g></g></g><g opacity="0.30"><g><clipPath id="clip-2"><path d="M 39.0 444.0 L 986.0 444.0 L 986.0 448.0 L 39.0 448.0 Z M 39.0 444.0 "></path></clipPath><g clip-path="url(#clip-2)"><path d="M 0.0 0.0 L 944.9 0.0 " fill="none" stroke="#434343" stroke-width="1.00" transform="matrix(1.00, 0.00, 0.00, -1.00, 40.0, 446.0)"></path></g></g></g><g opacity="0.30"><g><clipPath id="clip-3"><path d="M 627.0 281.0 L 631.0 281.0 L 631.0 413.0 L 627.0 413.0 Z M 627.0 281.0 "></path></clipPath><g clip-path="url(#clip-3)"><path d="M 0.0 0.0 L 129.4 0.0 " fill="none" stroke="#434343" stroke-width="1.00" transform="matrix(0.00, 1.00, 1.00, 0.00, 629.5, 282.3)"></path></g></g></g><text xml:space="preserve" font-family="BodoniSvtyTwoITCTT-Book" font-size="70.0" fill="#D93D2A" transform="matrix(1.00, 0.00, -0.00, -1.00, 44.0, 323.0)">L</text><text xml:space="preserve" font-family="BodoniSvtyTwoITCTT-Book" font-size="70.0" fill="#D93D2A" transform="matrix(1.00, 0.00, -0.00, -1.00, 83.5, 323.0)">i</text><text xml:space="preserve" font-family="BodoniSvtyTwoITCTT-Book" font-size="70.0" fill="#D93D2A" transform="matrix(1.00, 0.00, -0.00, -1.00, 101.1, 323.0)">s</text><text xml:space="preserve" font-family="BodoniSvtyTwoITCTT-Book" font-size="70.0" fill="#D93D2A" transform="matrix(1.00, 0.00, -0.00, -1.00, 126.4, 323.0)">t</text><text xml:space="preserve" font-family="BodoniSvtyTwoITCTT-Book" font-size="70.0" fill="#D93D2A" transform="matrix(1.00, 0.00, -0.00, -1.00, 146.3, 323.0)">e</text><text xml:space="preserve" font-family="BodoniSvtyTwoITCTT-Book" font-size="70.0" fill="#D93D2A" transform="matrix(1.00, 0.00, -0.00, -1.00, 176.4, 323.0)">n</text><text xml:space="preserve" font-family="BodoniSvtyTwoITCTT-Book" font-size="70.0" fill="#D93D2A" transform="matrix(1.00, 0.00, -0.00, -1.00, 210.6, 323.0)">i</text><text xml:space="preserve" font-family="BodoniSvtyTwoITCTT-Book" font-size="70.0" fill="#D93D2A" transform="matrix(1.00, 0.00, -0.00, -1.00, 228.2, 323.0)">n</text><text xml:space="preserve" font-family="BodoniSvtyTwoITCTT-Book" font-size="70.0" fill="#D93D2A" transform="matrix(1.00, 0.00, -0.00, -1.00, 262.4, 323.0)">g</text><text xml:space="preserve" font-family="BodoniSvtyTwoITCTT-Book" font-size="70.0" fill="#D93D2A" transform="matrix(1.00, 0.00, -0.00, -1.00, 295.1, 323.0)"> </text><text xml:space="preserve" font-family="BodoniSvtyTwoITCTT-Book" font-size="70.0" fill="#D93D2A" transform="matrix(1.00, 0.00, -0.00, -1.00, 308.1, 323.0)">-</text><text xml:space="preserve" font-family="BodoniSvtyTwoITCTT-Book" font-size="70.0" fill="#D93D2A" transform="matrix(1.00, 0.00, -0.00, -1.00, 329.5, 323.0)"> </text><text xml:space="preserve" font-family="BodoniSvtyTwoITCTT-Book" font-size="70.0" fill="#D93D2A" transform="matrix(1.00, 0.00, -0.00, -1.00, 342.5, 323.0)">l</text><text xml:space="preserve" font-family="BodoniSvtyTwoITCTT-Book" font-size="70.0" fill="#D93D2A" transform="matrix(1.00, 0.00, -0.00, -1.00, 358.9, 323.0)">o</text><text xml:space="preserve" font-family="BodoniSvtyTwoITCTT-Book" font-size="70.0" fill="#D93D2A" transform="matrix(1.00, 0.00, -0.00, -1.00, 392.5, 323.0)">s</text><text xml:space="preserve" font-family="BodoniSvtyTwoITCTT-Book" font-size="70.0" fill="#D93D2A" transform="matrix(1.00, 0.00, -0.00, -1.00, 417.9, 323.0)">t</text><text xml:space="preserve" font-family="BodoniSvtyTwoITCTT-Book" font-size="70.0" fill="#D93D2A" transform="matrix(1.00, 0.00, -0.00, -1.00, 437.8, 323.0)"> </text><text xml:space="preserve" font-family="BodoniSvtyTwoITCTT-Book" font-size="70.0" fill="#D93D2A" transform="matrix(1.00, 0.00, -0.00, -1.00, 450.8, 323.0)">a</text><text xml:space="preserve" font-family="BodoniSvtyTwoITCTT-Book" font-size="70.0" fill="#D93D2A" transform="matrix(1.00, 0.00, -0.00, -1.00, 478.6, 323.0)">r</text><text xml:space="preserve" font-family="BodoniSvtyTwoITCTT-Book" font-size="70.0" fill="#D93D2A" transform="matrix(1.00, 0.00, -0.00, -1.00, 502.2, 323.0)">t</text><text xml:space="preserve" font-family="BodoniSvtyTwoITCTT-Book" font-size="70.0" fill="#D93D2A" transform="matrix(1.00, 0.00, -0.00, -1.00, 522.1, 323.0)">…</text><text xml:space="preserve" font-family="Palatino-Roman" font-size="24.0" fill="#414040" transform="matrix(1.00, 0.00, -0.00, -1.00, 656.0, 354.0)">A</text><text xml:space="preserve" font-family="Palatino-Roman" font-size="24.0" fill="#414040" transform="matrix(1.00, 0.00, -0.00, -1.00, 672.9, 354.0)">y</text><text xml:space="preserve" font-family="Palatino-Roman" font-size="24.0" fill="#414040" transform="matrix(1.00, 0.00, -0.00, -1.00, 686.2, 354.0)">d</text><text xml:space="preserve" font-family="Palatino-Roman" font-size="24.0" fill="#414040" transform="matrix(1.00, 0.00, -0.00, -1.00, 700.9, 354.0)">i</text><text xml:space="preserve" font-family="Palatino-Roman" font-size="24.0" fill="#414040" transform="matrix(1.00, 0.00, -0.00, -1.00, 707.9, 354.0)">n</text><text xml:space="preserve" font-family="Palatino-Roman" font-size="24.0" fill="#414040" transform="matrix(1.00, 0.00, -0.00, -1.00, 721.9, 354.0)"> </text><text xml:space="preserve" font-family="Palatino-Roman" font-size="24.0" fill="#414040" transform="matrix(1.00, 0.00, -0.00, -1.00, 727.9, 354.0)">G</text><text xml:space="preserve" font-family="Palatino-Roman" font-size="24.0" fill="#414040" transform="matrix(1.00, 0.00, -0.00, -1.00, 746.2, 354.0)">ü</text><text xml:space="preserve" font-family="Palatino-Roman" font-size="24.0" fill="#414040" transform="matrix(1.00, 0.00, -0.00, -1.00, 760.6, 354.0)">v</text><text xml:space="preserve" font-family="Palatino-Roman" font-size="24.0" fill="#414040" transform="matrix(1.00, 0.00, -0.00, -1.00, 774.2, 354.0)">e</text><text xml:space="preserve" font-family="Palatino-Roman" font-size="24.0" fill="#414040" transform="matrix(1.00, 0.00, -0.00, -1.00, 785.7, 354.0)">n</text><text xml:space="preserve" font-family="Palatino-Roman" font-size="24.0" fill="#414040" transform="matrix(1.00, 0.00, -0.00, -1.00, 656.0, 322.0)">M</text><text xml:space="preserve" font-family="Palatino-Roman" font-size="24.0" fill="#414040" transform="matrix(1.00, 0.00, -0.00, -1.00, 678.7, 322.0)">a</text><text xml:space="preserve" font-family="Palatino-Roman" font-size="24.0" fill="#414040" transform="matrix(1.00, 0.00, -0.00, -1.00, 690.7, 322.0)">c</text><text xml:space="preserve" font-family="Palatino-Roman" font-size="24.0" fill="#414040" transform="matrix(1.00, 0.00, -0.00, -1.00, 701.3, 322.0)">i</text><text xml:space="preserve" font-family="Palatino-Roman" font-size="24.0" fill="#414040" transform="matrix(1.00, 0.00, -0.00, -1.00, 708.3, 322.0)">e</text><text xml:space="preserve" font-family="Palatino-Roman" font-size="24.0" fill="#414040" transform="matrix(1.00, 0.00, -0.00, -1.00, 719.8, 322.0)">j</text><text xml:space="preserve" font-family="Palatino-Roman" font-size="24.0" fill="#414040" transform="matrix(1.00, 0.00, -0.00, -1.00, 725.4, 322.0)"> </text><text xml:space="preserve" font-family="Palatino-Roman" font-size="24.0" fill="#414040" transform="matrix(1.00, 0.00, -0.00, -1.00, 731.4, 322.0)">K</text><text xml:space="preserve" font-family="Palatino-Roman" font-size="24.0" fill="#414040" transform="matrix(1.00, 0.00, -0.00, -1.00, 748.9, 322.0)">a</text><text xml:space="preserve" font-family="Palatino-Roman" font-size="24.0" fill="#414040" transform="matrix(1.00, 0.00, -0.00, -1.00, 760.9, 322.0)">s</text><text xml:space="preserve" font-family="Palatino-Roman" font-size="24.0" fill="#414040" transform="matrix(1.00, 0.00, -0.00, -1.00, 771.0, 322.0)">p</text><text xml:space="preserve" font-family="Palatino-Roman" font-size="24.0" fill="#414040" transform="matrix(1.00, 0.00, -0.00, -1.00, 785.5, 322.0)">r</text><text xml:space="preserve" font-family="Palatino-Roman" font-size="24.0" fill="#414040" transform="matrix(1.00, 0.00, -0.00, -1.00, 794.9, 322.0)">z</text><text xml:space="preserve" font-family="Palatino-Roman" font-size="24.0" fill="#414040" transform="matrix(1.00, 0.00, -0.00, -1.00, 806.9, 322.0)">y</text><text xml:space="preserve" font-family="Palatino-Roman" font-size="24.0" fill="#414040" transform="matrix(1.00, 0.00, -0.00, -1.00, 820.3, 322.0)">c</text><text xml:space="preserve" font-family="Palatino-Roman" font-size="24.0" fill="#414040" transform="matrix(1.00, 0.00, -0.00, -1.00, 830.9, 322.0)">k</text><text xml:space="preserve" font-family="Palatino-Roman" font-size="24.0" fill="#414040" transform="matrix(1.00, 0.00, -0.00, -1.00, 844.3, 322.0)">i</text></g></svg>