<?xml version="1.0" encoding="UTF-8" standalone="no"?><svg xmlns="http://www.w3.org/2000/svg" xmlns:xlink="http://www.w3.org/1999/xlink" clip-rule="evenodd" stroke-miterlimit="4.00" viewBox="0 0 462 528"><desc>SVG generated by Keynote</desc><defs></defs><g transform="matrix(1.00, 0.00, -0.00, -1.00, 0.0, 528.0)"><g><clipPath id="clip-187"><path d="M 11.0 520.0 L 451.0 520.0 L 451.0 20.0 L 11.0 20.0 Z M 11.0 520.0 "></path></clipPath><g clip-path="url(#clip-187)"><g><clipPath id="clip-188"><path d="M -12.0 20.0 L 474.0 20.0 L 474.0 520.0 L -12.0 520.0 Z M -12.0 20.0 "></path></clipPath><g clip-path="url(#clip-188)"><path d="M -12.0 520.0 L 474.0 520.0 L 474.0 20.0 L -12.0 20.0 Z M -12.0 520.0 " fill="#FEFFFF" fill-opacity="0.00"></path></g></g></g></g><g><clipPath id="clip-189"><path d="M 11.0 520.0 L 451.0 520.0 L 451.0 20.0 L 11.0 20.0 Z M 11.0 520.0 "></path></clipPath><g clip-path="url(#clip-189)"><g><clipPath id="clip-190"><path d="M -11.9 519.5 L 473.0 519.5 L 473.0 20.0 L -11.9 20.0 Z M -11.9 519.5 "></path></clipPath><g clip-path="url(#clip-190)"><g><clipPath id="clip-191"><path d="M -11.9 20.0 L 473.0 20.0 L 473.0 519.5 L -11.9 519.5 Z M -11.9 20.0 "></path></clipPath><g clip-path="url(#clip-191)"><image xlink:href="397C067CC4BB8825ABC7C18E0BA4ECEA.png" width="480.00" height="480.00" transform="matrix(1.01, 0.00, -0.00, -1.04, -11.9, 519.5)"></image></g></g></g></g></g></g><image xlink:href="E7FE096B928EE91F06A53D5317732819.png" width="460.00" height="526.00" transform="matrix(1.00, 0.00, -0.00, 1.00, 1.0, 1.0)"></image></g></svg>