<?xml version="1.0" encoding="UTF-8" standalone="no"?><svg xmlns="http://www.w3.org/2000/svg" xmlns:xlink="http://www.w3.org/1999/xlink" clip-rule="evenodd" stroke-miterlimit="4.00" viewBox="0 0 1024 768"><desc>SVG generated by Keynote</desc><defs></defs><g transform="matrix(1.00, 0.00, -0.00, -1.00, 0.0, 768.0)"><g><clipPath id="clip-65"><path d="M 0.0 768.0 L 1024.0 768.0 L 1024.0 0.0 L 0.0 0.0 Z M 0.0 768.0 "></path></clipPath><g clip-path="url(#clip-65)"><image xlink:href="../../7271B8B7-3FC1-4276-9B71-E31342A69E14/assets/50163466EC2834942505D00A94D158E6.jpeg" width="1024.00" height="768.00" transform="matrix(1.00, 0.00, -0.00, -1.00, 0.0, 768.0)"></image></g></g><text xml:space="preserve" font-family="BodoniSvtyTwoITCTT-Book" font-size="70.0" fill="#D93D2A" transform="matrix(1.00, 0.00, -0.00, -1.00, 62.0, 360.0)">B</text><text xml:space="preserve" font-family="BodoniSvtyTwoITCTT-Book" font-size="70.0" fill="#D93D2A" transform="matrix(1.00, 0.00, -0.00, -1.00, 102.0, 360.0)">u</text><text xml:space="preserve" font-family="BodoniSvtyTwoITCTT-Book" font-size="70.0" fill="#D93D2A" transform="matrix(1.00, 0.00, -0.00, -1.00, 136.3, 360.0)">t</text><text xml:space="preserve" font-family="BodoniSvtyTwoITCTT-Book" font-size="70.0" fill="#D93D2A" transform="matrix(1.00, 0.00, -0.00, -1.00, 156.2, 360.0)"> </text><text xml:space="preserve" font-family="BodoniSvtyTwoITCTT-Book" font-size="70.0" fill="#D93D2A" transform="matrix(1.00, 0.00, -0.00, -1.00, 169.2, 360.0)">h</text><text xml:space="preserve" font-family="BodoniSvtyTwoITCTT-Book" font-size="70.0" fill="#D93D2A" transform="matrix(1.00, 0.00, -0.00, -1.00, 202.6, 360.0)">o</text><text xml:space="preserve" font-family="BodoniSvtyTwoITCTT-Book" font-size="70.0" fill="#D93D2A" transform="matrix(1.00, 0.00, -0.00, -1.00, 236.2, 360.0)">w</text><text xml:space="preserve" font-family="BodoniSvtyTwoITCTT-Book" font-size="70.0" fill="#D93D2A" transform="matrix(1.00, 0.00, -0.00, -1.00, 278.1, 360.0)"> </text><text xml:space="preserve" font-family="BodoniSvtyTwoITCTT-Book" font-size="70.0" fill="#D93D2A" transform="matrix(1.00, 0.00, -0.00, -1.00, 291.1, 360.0)">t</text><text xml:space="preserve" font-family="BodoniSvtyTwoITCTT-Book" font-size="70.0" fill="#D93D2A" transform="matrix(1.00, 0.00, -0.00, -1.00, 311.0, 360.0)">o</text><text xml:space="preserve" font-family="BodoniSvtyTwoITCTT-Book" font-size="70.0" fill="#D93D2A" transform="matrix(1.00, 0.00, -0.00, -1.00, 344.6, 360.0)"> </text><text xml:space="preserve" font-family="BodoniSvtyTwoITCTT-Book" font-size="70.0" fill="#D93D2A" transform="matrix(1.00, 0.00, -0.00, -1.00, 357.6, 360.0)">o</text><text xml:space="preserve" font-family="BodoniSvtyTwoITCTT-Book" font-size="70.0" fill="#D93D2A" transform="matrix(1.00, 0.00, -0.00, -1.00, 391.2, 360.0)">v</text><text xml:space="preserve" font-family="BodoniSvtyTwoITCTT-Book" font-size="70.0" fill="#D93D2A" transform="matrix(1.00, 0.00, -0.00, -1.00, 418.1, 360.0)">e</text><text xml:space="preserve" font-family="BodoniSvtyTwoITCTT-Book" font-size="70.0" fill="#D93D2A" transform="matrix(1.00, 0.00, -0.00, -1.00, 448.2, 360.0)">r</text><text xml:space="preserve" font-family="BodoniSvtyTwoITCTT-Book" font-size="70.0" fill="#D93D2A" transform="matrix(1.00, 0.00, -0.00, -1.00, 471.9, 360.0)">c</text><text xml:space="preserve" font-family="BodoniSvtyTwoITCTT-Book" font-size="70.0" fill="#D93D2A" transform="matrix(1.00, 0.00, -0.00, -1.00, 500.5, 360.0)">o</text><text xml:space="preserve" font-family="BodoniSvtyTwoITCTT-Book" font-size="70.0" fill="#D93D2A" transform="matrix(1.00, 0.00, -0.00, -1.00, 534.1, 360.0)">m</text><text xml:space="preserve" font-family="BodoniSvtyTwoITCTT-Book" font-size="70.0" fill="#D93D2A" transform="matrix(1.00, 0.00, -0.00, -1.00, 583.3, 360.0)">e</text><text xml:space="preserve" font-family="BodoniSvtyTwoITCTT-Book" font-size="70.0" fill="#D93D2A" transform="matrix(1.00, 0.00, -0.00, -1.00, 613.4, 360.0)"> </text><text xml:space="preserve" font-family="BodoniSvtyTwoITCTT-Book" font-size="70.0" fill="#D93D2A" transform="matrix(1.00, 0.00, -0.00, -1.00, 626.4, 360.0)">p</text><text xml:space="preserve" font-family="BodoniSvtyTwoITCTT-Book" font-size="70.0" fill="#D93D2A" transform="matrix(1.00, 0.00, -0.00, -1.00, 660.6, 360.0)">r</text><text xml:space="preserve" font-family="BodoniSvtyTwoITCTT-Book" font-size="70.0" fill="#D93D2A" transform="matrix(1.00, 0.00, -0.00, -1.00, 684.3, 360.0)">e</text><text xml:space="preserve" font-family="BodoniSvtyTwoITCTT-Book" font-size="70.0" fill="#D93D2A" transform="matrix(1.00, 0.00, -0.00, -1.00, 714.4, 360.0)">j</text><text xml:space="preserve" font-family="BodoniSvtyTwoITCTT-Book" font-size="70.0" fill="#D93D2A" transform="matrix(1.00, 0.00, -0.00, -1.00, 731.0, 360.0)">u</text><text xml:space="preserve" font-family="BodoniSvtyTwoITCTT-Book" font-size="70.0" fill="#D93D2A" transform="matrix(1.00, 0.00, -0.00, -1.00, 765.3, 360.0)">d</text><text xml:space="preserve" font-family="BodoniSvtyTwoITCTT-Book" font-size="70.0" fill="#D93D2A" transform="matrix(1.00, 0.00, -0.00, -1.00, 798.6, 360.0)">i</text><text xml:space="preserve" font-family="BodoniSvtyTwoITCTT-Book" font-size="70.0" fill="#D93D2A" transform="matrix(1.00, 0.00, -0.00, -1.00, 816.2, 360.0)">c</text><text xml:space="preserve" font-family="BodoniSvtyTwoITCTT-Book" font-size="70.0" fill="#D93D2A" transform="matrix(1.00, 0.00, -0.00, -1.00, 844.8, 360.0)">e</text><text xml:space="preserve" font-family="BodoniSvtyTwoITCTT-Book" font-size="70.0" fill="#D93D2A" transform="matrix(1.00, 0.00, -0.00, -1.00, 874.9, 360.0)">?</text><text xml:space="preserve" font-family="BodoniSvtyTwoITCTT-Book" font-size="70.0" fill="#D93D2A" transform="matrix(1.00, 0.00, -0.00, -1.00, 903.8, 360.0)">?</text><text xml:space="preserve" font-family="BodoniSvtyTwoITCTT-Book" font-size="70.0" fill="#D93D2A" transform="matrix(1.00, 0.00, -0.00, -1.00, 932.7, 360.0)">?</text></g></svg>