<?xml version="1.0" encoding="UTF-8" standalone="no"?><svg xmlns="http://www.w3.org/2000/svg" xmlns:xlink="http://www.w3.org/1999/xlink" clip-rule="evenodd" stroke-miterlimit="4.00" viewBox="0 0 1024 768"><desc>SVG generated by Keynote</desc><defs></defs><g transform="matrix(1.00, 0.00, -0.00, -1.00, 0.0, 768.0)"><g><clipPath id="clip-66"><path d="M 0.0 768.0 L 1024.0 768.0 L 1024.0 0.0 L 0.0 0.0 Z M 0.0 768.0 "></path></clipPath><g clip-path="url(#clip-66)"><image xlink:href="../../7271B8B7-3FC1-4276-9B71-E31342A69E14/assets/50163466EC2834942505D00A94D158E6.jpeg" width="1024.00" height="768.00" transform="matrix(1.00, 0.00, -0.00, -1.00, 0.0, 768.0)"></image></g></g><g><clipPath id="clip-67"><path d="M 35.0 67.0 L 989.0 67.0 L 989.0 700.0 L 35.0 700.0 Z M 35.0 67.0 "></path></clipPath><g clip-path="url(#clip-67)"><path d="M 35.0 700.0 L 989.0 700.0 L 989.0 67.0 L 35.0 67.0 Z M 35.0 700.0 " fill="#FEFFFF" fill-opacity="0.00"></path></g></g><g><clipPath id="clip-68"><path d="M 35.5 699.9 L 302.3 699.9 L 302.3 441.2 L 35.5 441.2 Z M 35.5 699.9 "></path></clipPath><g clip-path="url(#clip-68)"><g><clipPath id="clip-69"><path d="M 35.5 441.2 L 302.3 441.2 L 302.3 699.9 L 35.5 699.9 Z M 35.5 441.2 "></path></clipPath><g clip-path="url(#clip-69)"><image xlink:href="5270E318E9265426E8E982DD15460241.png" width="200.00" height="194.00" transform="matrix(1.33, 0.00, -0.00, -1.33, 35.5, 699.9)"></image></g></g></g></g><g><clipPath id="clip-70"><path d="M 302.3 699.9 L 708.8 699.9 L 708.8 400.2 L 302.3 400.2 Z M 302.3 699.9 "></path></clipPath><g clip-path="url(#clip-70)"><g><clipPath id="clip-71"><path d="M 302.3 400.2 L 708.8 400.2 L 708.8 699.9 L 302.3 699.9 Z M 302.3 400.2 "></path></clipPath><g clip-path="url(#clip-71)"><image xlink:href="4E16E39C761A89A792492BE674D18845.png" width="236.00" height="174.00" transform="matrix(1.72, 0.00, -0.00, -1.72, 302.3, 699.9)"></image></g></g></g></g><g><clipPath id="clip-72"><path d="M 708.8 699.9 L 988.9 699.9 L 988.9 314.9 L 708.8 314.9 Z M 708.8 699.9 "></path></clipPath><g clip-path="url(#clip-72)"><g><clipPath id="clip-73"><path d="M 708.8 314.9 L 988.9 314.9 L 988.9 699.9 L 708.8 699.9 Z M 708.8 314.9 "></path></clipPath><g clip-path="url(#clip-73)"><image xlink:href="971CFA50C5C9DC8EF98AD65E7E82EA7A.png" width="200.00" height="275.00" transform="matrix(1.40, 0.00, -0.00, -1.40, 708.8, 699.9)"></image></g></g></g></g><g><clipPath id="clip-74"><path d="M 35.5 441.2 L 590.4 441.2 L 590.4 67.7 L 35.5 67.7 Z M 35.5 441.2 "></path></clipPath><g clip-path="url(#clip-74)"><g><clipPath id="clip-75"><path d="M 35.5 67.7 L 590.4 67.7 L 590.4 441.2 L 35.5 441.2 Z M 35.5 67.7 "></path></clipPath><g clip-path="url(#clip-75)"><image xlink:href="7ED2DAF52A44E61C1900800B50CAB354.png" width="500.00" height="347.00" transform="matrix(1.11, 0.00, -0.00, -1.08, 35.5, 441.2)"></image></g></g></g></g><g><clipPath id="clip-76"><path d="M 582.4 400.2 L 988.9 400.2 L 988.9 67.7 L 582.4 67.7 Z M 582.4 400.2 "></path></clipPath><g clip-path="url(#clip-76)"><g><clipPath id="clip-77"><path d="M 582.4 67.7 L 988.9 67.7 L 988.9 400.2 L 582.4 400.2 Z M 582.4 67.7 "></path></clipPath><g clip-path="url(#clip-77)"><image xlink:href="160AA0D40049C630BB36A05D29E78291.png" width="407.00" height="333.00" transform="matrix(1.00, 0.00, -0.00, -1.00, 582.4, 400.2)"></image></g></g></g></g></g></svg>