<?xml version="1.0" encoding="UTF-8" standalone="no"?><svg xmlns="http://www.w3.org/2000/svg" xmlns:xlink="http://www.w3.org/1999/xlink" clip-rule="evenodd" stroke-miterlimit="4.00" viewBox="0 0 956 636"><desc>SVG generated by Keynote</desc><defs></defs><g transform="matrix(1.00, 0.00, -0.00, -1.00, 0.0, 636.0)"><g><clipPath id="clip-200"><path d="M 1.0 1.0 L 955.0 1.0 L 955.0 634.0 L 1.0 634.0 Z M 1.0 1.0 "></path></clipPath><g clip-path="url(#clip-200)"><path d="M 1.0 634.0 L 955.0 634.0 L 955.0 1.0 L 1.0 1.0 Z M 1.0 634.0 " fill="#FEFFFF" fill-opacity="0.00"></path></g></g><g><clipPath id="clip-201"><path d="M 1.5 633.9 L 268.3 633.9 L 268.3 375.2 L 1.5 375.2 Z M 1.5 633.9 "></path></clipPath><g clip-path="url(#clip-201)"><g><clipPath id="clip-202"><path d="M 1.5 375.2 L 268.3 375.2 L 268.3 633.9 L 1.5 633.9 Z M 1.5 375.2 "></path></clipPath><g clip-path="url(#clip-202)"><image xlink:href="5270E318E9265426E8E982DD15460241.png" width="200.00" height="194.00" transform="matrix(1.33, 0.00, -0.00, -1.33, 1.5, 633.9)"></image></g></g></g></g><g><clipPath id="clip-203"><path d="M 268.3 633.9 L 674.8 633.9 L 674.8 334.2 L 268.3 334.2 Z M 268.3 633.9 "></path></clipPath><g clip-path="url(#clip-203)"><g><clipPath id="clip-204"><path d="M 268.3 334.2 L 674.8 334.2 L 674.8 633.9 L 268.3 633.9 Z M 268.3 334.2 "></path></clipPath><g clip-path="url(#clip-204)"><image xlink:href="4E16E39C761A89A792492BE674D18845.png" width="236.00" height="174.00" transform="matrix(1.72, 0.00, -0.00, -1.72, 268.3, 633.9)"></image></g></g></g></g><g><clipPath id="clip-205"><path d="M 674.8 633.9 L 954.9 633.9 L 954.9 248.9 L 674.8 248.9 Z M 674.8 633.9 "></path></clipPath><g clip-path="url(#clip-205)"><g><clipPath id="clip-206"><path d="M 674.8 248.9 L 954.9 248.9 L 954.9 633.9 L 674.8 633.9 Z M 674.8 248.9 "></path></clipPath><g clip-path="url(#clip-206)"><image xlink:href="971CFA50C5C9DC8EF98AD65E7E82EA7A.png" width="200.00" height="275.00" transform="matrix(1.40, 0.00, -0.00, -1.40, 674.8, 633.9)"></image></g></g></g></g><g><clipPath id="clip-207"><path d="M 1.5 375.2 L 556.4 375.2 L 556.4 1.7 L 1.5 1.7 Z M 1.5 375.2 "></path></clipPath><g clip-path="url(#clip-207)"><g><clipPath id="clip-208"><path d="M 1.5 1.7 L 556.4 1.7 L 556.4 375.2 L 1.5 375.2 Z M 1.5 1.7 "></path></clipPath><g clip-path="url(#clip-208)"><image xlink:href="7ED2DAF52A44E61C1900800B50CAB354.png" width="500.00" height="347.00" transform="matrix(1.11, 0.00, -0.00, -1.08, 1.5, 375.2)"></image></g></g></g></g><g><clipPath id="clip-209"><path d="M 548.4 334.2 L 954.9 334.2 L 954.9 1.7 L 548.4 1.7 Z M 548.4 334.2 "></path></clipPath><g clip-path="url(#clip-209)"><g><clipPath id="clip-210"><path d="M 548.4 1.7 L 954.9 1.7 L 954.9 334.2 L 548.4 334.2 Z M 548.4 1.7 "></path></clipPath><g clip-path="url(#clip-210)"><image xlink:href="160AA0D40049C630BB36A05D29E78291.png" width="407.00" height="333.00" transform="matrix(1.00, 0.00, -0.00, -1.00, 548.4, 334.2)"></image></g></g></g></g></g></svg>