<?xml version="1.0" encoding="UTF-8" standalone="no"?><svg xmlns="http://www.w3.org/2000/svg" xmlns:xlink="http://www.w3.org/1999/xlink" clip-rule="evenodd" stroke-miterlimit="4.00" viewBox="0 0 1024 768"><desc>SVG generated by Keynote</desc><defs></defs><g transform="matrix(1.00, 0.00, -0.00, -1.00, 0.0, 768.0)"><g><clipPath id="clip-234"><path d="M 0.0 768.0 L 1024.0 768.0 L 1024.0 0.0 L 0.0 0.0 Z M 0.0 768.0 "></path></clipPath><g clip-path="url(#clip-234)"><image xlink:href="../../7271B8B7-3FC1-4276-9B71-E31342A69E14/assets/50163466EC2834942505D00A94D158E6.jpeg" width="1024.00" height="768.00" transform="matrix(1.00, 0.00, -0.00, -1.00, 0.0, 768.0)"></image></g></g><g opacity="0.30"><g><clipPath id="clip-235"><path d="M 39.0 595.0 L 986.0 595.0 L 986.0 599.0 L 39.0 599.0 Z M 39.0 595.0 "></path></clipPath><g clip-path="url(#clip-235)"><path d="M 0.0 0.0 L 944.7 0.0 " fill="none" stroke="#434343" stroke-width="1.00" transform="matrix(1.00, 0.00, 0.00, -1.00, 40.0, 597.0)"></path></g></g></g><g opacity="0.30"><g><clipPath id="clip-236"><path d="M 39.0 716.0 L 986.0 716.0 L 986.0 720.0 L 39.0 720.0 Z M 39.0 716.0 "></path></clipPath><g clip-path="url(#clip-236)"><path d="M 0.0 0.0 L 944.7 0.0 " fill="none" stroke="#434343" stroke-width="1.00" transform="matrix(1.00, 0.00, 0.00, -1.00, 40.0, 718.0)"></path></g></g></g><text xml:space="preserve" font-family="BodoniSvtyTwoITCTT-Book" font-size="70.0" fill="#D93D2A" transform="matrix(1.00, 0.00, -0.00, -1.00, 185.0, 633.0)">H</text><text xml:space="preserve" font-family="BodoniSvtyTwoITCTT-Book" font-size="70.0" fill="#D93D2A" transform="matrix(1.00, 0.00, -0.00, -1.00, 234.8, 633.0)">o</text><text xml:space="preserve" font-family="BodoniSvtyTwoITCTT-Book" font-size="70.0" fill="#D93D2A" transform="matrix(1.00, 0.00, -0.00, -1.00, 268.4, 633.0)">w</text><text xml:space="preserve" font-family="BodoniSvtyTwoITCTT-Book" font-size="70.0" fill="#D93D2A" transform="matrix(1.00, 0.00, -0.00, -1.00, 310.4, 633.0)"> </text><text xml:space="preserve" font-family="BodoniSvtyTwoITCTT-Book" font-size="70.0" fill="#D93D2A" transform="matrix(1.00, 0.00, -0.00, -1.00, 323.4, 633.0)">t</text><text xml:space="preserve" font-family="BodoniSvtyTwoITCTT-Book" font-size="70.0" fill="#D93D2A" transform="matrix(1.00, 0.00, -0.00, -1.00, 343.3, 633.0)">o</text><text xml:space="preserve" font-family="BodoniSvtyTwoITCTT-Book" font-size="70.0" fill="#D93D2A" transform="matrix(1.00, 0.00, -0.00, -1.00, 376.9, 633.0)"> </text><text xml:space="preserve" font-family="BodoniSvtyTwoITCTT-Book" font-size="70.0" fill="#D93D2A" transform="matrix(1.00, 0.00, -0.00, -1.00, 389.9, 633.0)">l</text><text xml:space="preserve" font-family="BodoniSvtyTwoITCTT-Book" font-size="70.0" fill="#D93D2A" transform="matrix(1.00, 0.00, -0.00, -1.00, 406.3, 633.0)">i</text><text xml:space="preserve" font-family="BodoniSvtyTwoITCTT-Book" font-size="70.0" fill="#D93D2A" transform="matrix(1.00, 0.00, -0.00, -1.00, 423.9, 633.0)">s</text><text xml:space="preserve" font-family="BodoniSvtyTwoITCTT-Book" font-size="70.0" fill="#D93D2A" transform="matrix(1.00, 0.00, -0.00, -1.00, 449.2, 633.0)">t</text><text xml:space="preserve" font-family="BodoniSvtyTwoITCTT-Book" font-size="70.0" fill="#D93D2A" transform="matrix(1.00, 0.00, -0.00, -1.00, 469.1, 633.0)">e</text><text xml:space="preserve" font-family="BodoniSvtyTwoITCTT-Book" font-size="70.0" fill="#D93D2A" transform="matrix(1.00, 0.00, -0.00, -1.00, 499.2, 633.0)">n</text><text xml:space="preserve" font-family="BodoniSvtyTwoITCTT-Book" font-size="70.0" fill="#D93D2A" transform="matrix(1.00, 0.00, -0.00, -1.00, 533.5, 633.0)"> </text><text xml:space="preserve" font-family="BodoniSvtyTwoITCTT-Book" font-size="70.0" fill="#D93D2A" transform="matrix(1.00, 0.00, -0.00, -1.00, 546.5, 633.0)">-</text><text xml:space="preserve" font-family="BodoniSvtyTwoITCTT-Book" font-size="70.0" fill="#D93D2A" transform="matrix(1.00, 0.00, -0.00, -1.00, 567.8, 633.0)"> </text><text xml:space="preserve" font-family="BodoniSvtyTwoITCTT-Book" font-size="70.0" fill="#D93D2A" transform="matrix(1.00, 0.00, -0.00, -1.00, 580.9, 633.0)">g</text><text xml:space="preserve" font-family="BodoniSvtyTwoITCTT-Book" font-size="70.0" fill="#D93D2A" transform="matrix(1.00, 0.00, -0.00, -1.00, 613.5, 633.0)">o</text><text xml:space="preserve" font-family="BodoniSvtyTwoITCTT-Book" font-size="70.0" fill="#D93D2A" transform="matrix(1.00, 0.00, -0.00, -1.00, 647.1, 633.0)">l</text><text xml:space="preserve" font-family="BodoniSvtyTwoITCTT-Book" font-size="70.0" fill="#D93D2A" transform="matrix(1.00, 0.00, -0.00, -1.00, 663.6, 633.0)">d</text><text xml:space="preserve" font-family="BodoniSvtyTwoITCTT-Book" font-size="70.0" fill="#D93D2A" transform="matrix(1.00, 0.00, -0.00, -1.00, 696.9, 633.0)"> </text><text xml:space="preserve" font-family="BodoniSvtyTwoITCTT-Book" font-size="70.0" fill="#D93D2A" transform="matrix(1.00, 0.00, -0.00, -1.00, 709.9, 633.0)">r</text><text xml:space="preserve" font-family="BodoniSvtyTwoITCTT-Book" font-size="70.0" fill="#D93D2A" transform="matrix(1.00, 0.00, -0.00, -1.00, 733.6, 633.0)">u</text><text xml:space="preserve" font-family="BodoniSvtyTwoITCTT-Book" font-size="70.0" fill="#D93D2A" transform="matrix(1.00, 0.00, -0.00, -1.00, 767.9, 633.0)">l</text><text xml:space="preserve" font-family="BodoniSvtyTwoITCTT-Book" font-size="70.0" fill="#D93D2A" transform="matrix(1.00, 0.00, -0.00, -1.00, 784.3, 633.0)">e</text><text xml:space="preserve" font-family="BodoniSvtyTwoITCTT-Book" font-size="70.0" fill="#D93D2A" transform="matrix(1.00, 0.00, -0.00, -1.00, 814.4, 633.0)">s</text><text xml:space="preserve" font-family="Palatino-Bold" font-weight="bold" font-size="36.0" fill="#414040" transform="matrix(1.00, 0.00, -0.00, -1.00, 44.0, 519.0)">1</text><text xml:space="preserve" font-family="Palatino-Bold" font-weight="bold" font-size="36.0" fill="#414040" transform="matrix(1.00, 0.00, -0.00, -1.00, 62.0, 519.0)">.</text><text xml:space="preserve" font-family="Palatino-Bold" font-weight="bold" font-size="36.0" fill="#414040" transform="matrix(1.00, 0.00, -0.00, -1.00, 96.0, 519.0)">C</text><text xml:space="preserve" font-family="Palatino-Bold" font-weight="bold" font-size="36.0" fill="#414040" transform="matrix(1.00, 0.00, -0.00, -1.00, 122.0, 519.0)">o</text><text xml:space="preserve" font-family="Palatino-Bold" font-weight="bold" font-size="36.0" fill="#414040" transform="matrix(1.00, 0.00, -0.00, -1.00, 142.0, 519.0)">n</text><text xml:space="preserve" font-family="Palatino-Bold" font-weight="bold" font-size="36.0" fill="#414040" transform="matrix(1.00, 0.00, -0.00, -1.00, 164.0, 519.0)">c</text><text xml:space="preserve" font-family="Palatino-Bold" font-weight="bold" font-size="36.0" fill="#414040" transform="matrix(1.00, 0.00, -0.00, -1.00, 180.0, 519.0)">e</text><text xml:space="preserve" font-family="Palatino-Bold" font-weight="bold" font-size="36.0" fill="#414040" transform="matrix(1.00, 0.00, -0.00, -1.00, 198.0, 519.0)">n</text><text xml:space="preserve" font-family="Palatino-Bold" font-weight="bold" font-size="36.0" fill="#414040" transform="matrix(1.00, 0.00, -0.00, -1.00, 220.0, 519.0)">t</text><text xml:space="preserve" font-family="Palatino-Bold" font-weight="bold" font-size="36.0" fill="#414040" transform="matrix(1.00, 0.00, -0.00, -1.00, 232.0, 519.0)">r</text><text xml:space="preserve" font-family="Palatino-Bold" font-weight="bold" font-size="36.0" fill="#414040" transform="matrix(1.00, 0.00, -0.00, -1.00, 246.0, 519.0)">a</text><text xml:space="preserve" font-family="Palatino-Bold" font-weight="bold" font-size="36.0" fill="#414040" transform="matrix(1.00, 0.00, -0.00, -1.00, 264.0, 519.0)">t</text><text xml:space="preserve" font-family="Palatino-Bold" font-weight="bold" font-size="36.0" fill="#414040" transform="matrix(1.00, 0.00, -0.00, -1.00, 276.0, 519.0)">e</text><text xml:space="preserve" font-family="Palatino-Bold" font-weight="bold" font-size="36.0" fill="#414040" transform="matrix(1.00, 0.00, -0.00, -1.00, 294.0, 519.0)"> </text><text xml:space="preserve" font-family="Palatino-Bold" font-weight="bold" font-size="36.0" fill="#414040" transform="matrix(1.00, 0.00, -0.00, -1.00, 303.0, 519.0)">o</text><text xml:space="preserve" font-family="Palatino-Bold" font-weight="bold" font-size="36.0" fill="#414040" transform="matrix(1.00, 0.00, -0.00, -1.00, 323.0, 519.0)">n</text><text xml:space="preserve" font-family="Palatino-Bold" font-weight="bold" font-size="36.0" fill="#414040" transform="matrix(1.00, 0.00, -0.00, -1.00, 345.0, 519.0)"> </text><text xml:space="preserve" font-family="Palatino-Bold" font-weight="bold" font-size="36.0" fill="#414040" transform="matrix(1.00, 0.00, -0.00, -1.00, 354.0, 519.0)">t</text><text xml:space="preserve" font-family="Palatino-Bold" font-weight="bold" font-size="36.0" fill="#414040" transform="matrix(1.00, 0.00, -0.00, -1.00, 366.0, 519.0)">h</text><text xml:space="preserve" font-family="Palatino-Bold" font-weight="bold" font-size="36.0" fill="#414040" transform="matrix(1.00, 0.00, -0.00, -1.00, 387.9, 519.0)">e</text><text xml:space="preserve" font-family="Palatino-Bold" font-weight="bold" font-size="36.0" fill="#414040" transform="matrix(1.00, 0.00, -0.00, -1.00, 405.9, 519.0)"> </text><text xml:space="preserve" font-family="Palatino-Bold" font-weight="bold" font-size="36.0" fill="#414040" transform="matrix(1.00, 0.00, -0.00, -1.00, 414.9, 519.0)">p</text><text xml:space="preserve" font-family="Palatino-Bold" font-weight="bold" font-size="36.0" fill="#414040" transform="matrix(1.00, 0.00, -0.00, -1.00, 436.9, 519.0)">e</text><text xml:space="preserve" font-family="Palatino-Bold" font-weight="bold" font-size="36.0" fill="#414040" transform="matrix(1.00, 0.00, -0.00, -1.00, 454.9, 519.0)">r</text><text xml:space="preserve" font-family="Palatino-Bold" font-weight="bold" font-size="36.0" fill="#414040" transform="matrix(1.00, 0.00, -0.00, -1.00, 468.9, 519.0)">s</text><text xml:space="preserve" font-family="Palatino-Bold" font-weight="bold" font-size="36.0" fill="#414040" transform="matrix(1.00, 0.00, -0.00, -1.00, 484.9, 519.0)">o</text><text xml:space="preserve" font-family="Palatino-Bold" font-weight="bold" font-size="36.0" fill="#414040" transform="matrix(1.00, 0.00, -0.00, -1.00, 504.9, 519.0)">n</text><text xml:space="preserve" font-family="Palatino-Bold" font-weight="bold" font-size="36.0" fill="#414040" transform="matrix(1.00, 0.00, -0.00, -1.00, 526.9, 519.0)"> </text><text xml:space="preserve" font-family="Palatino-Bold" font-weight="bold" font-size="36.0" fill="#414040" transform="matrix(1.00, 0.00, -0.00, -1.00, 535.9, 519.0)">s</text><text xml:space="preserve" font-family="Palatino-Bold" font-weight="bold" font-size="36.0" fill="#414040" transform="matrix(1.00, 0.00, -0.00, -1.00, 551.9, 519.0)">p</text><text xml:space="preserve" font-family="Palatino-Bold" font-weight="bold" font-size="36.0" fill="#414040" transform="matrix(1.00, 0.00, -0.00, -1.00, 573.9, 519.0)">e</text><text xml:space="preserve" font-family="Palatino-Bold" font-weight="bold" font-size="36.0" fill="#414040" transform="matrix(1.00, 0.00, -0.00, -1.00, 591.9, 519.0)">a</text><text xml:space="preserve" font-family="Palatino-Bold" font-weight="bold" font-size="36.0" fill="#414040" transform="matrix(1.00, 0.00, -0.00, -1.00, 609.9, 519.0)">k</text><text xml:space="preserve" font-family="Palatino-Bold" font-weight="bold" font-size="36.0" fill="#414040" transform="matrix(1.00, 0.00, -0.00, -1.00, 631.9, 519.0)">i</text><text xml:space="preserve" font-family="Palatino-Bold" font-weight="bold" font-size="36.0" fill="#414040" transform="matrix(1.00, 0.00, -0.00, -1.00, 643.9, 519.0)">n</text><text xml:space="preserve" font-family="Palatino-Bold" font-weight="bold" font-size="36.0" fill="#414040" transform="matrix(1.00, 0.00, -0.00, -1.00, 665.8, 519.0)">g</text><text xml:space="preserve" font-family="Palatino-Bold" font-weight="bold" font-size="36.0" fill="#414040" transform="matrix(1.00, 0.00, -0.00, -1.00, 685.9, 519.0)">:</text><text xml:space="preserve" font-family="ZapfDingbatsITC" font-size="21.6" fill="#919191" transform="matrix(1.00, 0.00, -0.00, -1.00, 81.0, 452.8)">❖</text><text xml:space="preserve" font-family="Palatino-Roman" font-size="36.0" fill="#414040" transform="matrix(1.00, 0.00, -0.00, -1.00, 118.0, 447.0)">S</text><text xml:space="preserve" font-family="Palatino-Roman" font-size="36.0" fill="#414040" transform="matrix(1.00, 0.00, -0.00, -1.00, 136.9, 447.0)">e</text><text xml:space="preserve" font-family="Palatino-Roman" font-size="36.0" fill="#414040" transform="matrix(1.00, 0.00, -0.00, -1.00, 154.1, 447.0)">t</text><text xml:space="preserve" font-family="Palatino-Roman" font-size="36.0" fill="#414040" transform="matrix(1.00, 0.00, -0.00, -1.00, 165.9, 447.0)"> </text><text xml:space="preserve" font-family="Palatino-Roman" font-size="36.0" fill="#414040" transform="matrix(1.00, 0.00, -0.00, -1.00, 174.9, 447.0)">a</text><text xml:space="preserve" font-family="Palatino-Roman" font-size="36.0" fill="#414040" transform="matrix(1.00, 0.00, -0.00, -1.00, 192.9, 447.0)">s</text><text xml:space="preserve" font-family="Palatino-Roman" font-size="36.0" fill="#414040" transform="matrix(1.00, 0.00, -0.00, -1.00, 208.1, 447.0)">i</text><text xml:space="preserve" font-family="Palatino-Roman" font-size="36.0" fill="#414040" transform="matrix(1.00, 0.00, -0.00, -1.00, 218.6, 447.0)">d</text><text xml:space="preserve" font-family="Palatino-Roman" font-size="36.0" fill="#414040" transform="matrix(1.00, 0.00, -0.00, -1.00, 240.6, 447.0)">e</text><text xml:space="preserve" font-family="Palatino-Roman" font-size="36.0" fill="#414040" transform="matrix(1.00, 0.00, -0.00, -1.00, 257.8, 447.0)"> </text><text xml:space="preserve" font-family="Palatino-Roman" font-size="36.0" fill="#414040" transform="matrix(1.00, 0.00, -0.00, -1.00, 266.8, 447.0)">d</text><text xml:space="preserve" font-family="Palatino-Roman" font-size="36.0" fill="#414040" transform="matrix(1.00, 0.00, -0.00, -1.00, 288.8, 447.0)">i</text><text xml:space="preserve" font-family="Palatino-Roman" font-size="36.0" fill="#414040" transform="matrix(1.00, 0.00, -0.00, -1.00, 299.3, 447.0)">s</text><text xml:space="preserve" font-family="Palatino-Roman" font-size="36.0" fill="#414040" transform="matrix(1.00, 0.00, -0.00, -1.00, 314.6, 447.0)">t</text><text xml:space="preserve" font-family="Palatino-Roman" font-size="36.0" fill="#414040" transform="matrix(1.00, 0.00, -0.00, -1.00, 326.3, 447.0)">r</text><text xml:space="preserve" font-family="Palatino-Roman" font-size="36.0" fill="#414040" transform="matrix(1.00, 0.00, -0.00, -1.00, 340.5, 447.0)">a</text><text xml:space="preserve" font-family="Palatino-Roman" font-size="36.0" fill="#414040" transform="matrix(1.00, 0.00, -0.00, -1.00, 358.5, 447.0)">c</text><text xml:space="preserve" font-family="Palatino-Roman" font-size="36.0" fill="#414040" transform="matrix(1.00, 0.00, -0.00, -1.00, 374.5, 447.0)">t</text><text xml:space="preserve" font-family="Palatino-Roman" font-size="36.0" fill="#414040" transform="matrix(1.00, 0.00, -0.00, -1.00, 386.2, 447.0)">i</text><text xml:space="preserve" font-family="Palatino-Roman" font-size="36.0" fill="#414040" transform="matrix(1.00, 0.00, -0.00, -1.00, 396.7, 447.0)">o</text><text xml:space="preserve" font-family="Palatino-Roman" font-size="36.0" fill="#414040" transform="matrix(1.00, 0.00, -0.00, -1.00, 416.4, 447.0)">n</text><text xml:space="preserve" font-family="Palatino-Roman" font-size="36.0" fill="#414040" transform="matrix(1.00, 0.00, -0.00, -1.00, 437.3, 447.0)">s</text><text xml:space="preserve" font-family="ZapfDingbatsITC" font-size="21.6" fill="#919191" transform="matrix(1.00, 0.00, -0.00, -1.00, 81.0, 380.8)">❖</text><text xml:space="preserve" font-family="Palatino-Roman" font-size="36.0" fill="#414040" transform="matrix(1.00, 0.00, -0.00, -1.00, 118.0, 375.0)">S</text><text xml:space="preserve" font-family="Palatino-Roman" font-size="36.0" fill="#414040" transform="matrix(1.00, 0.00, -0.00, -1.00, 136.9, 375.0)">u</text><text xml:space="preserve" font-family="Palatino-Roman" font-size="36.0" fill="#414040" transform="matrix(1.00, 0.00, -0.00, -1.00, 158.6, 375.0)">s</text><text xml:space="preserve" font-family="Palatino-Roman" font-size="36.0" fill="#414040" transform="matrix(1.00, 0.00, -0.00, -1.00, 173.9, 375.0)">p</text><text xml:space="preserve" font-family="Palatino-Roman" font-size="36.0" fill="#414040" transform="matrix(1.00, 0.00, -0.00, -1.00, 195.5, 375.0)">e</text><text xml:space="preserve" font-family="Palatino-Roman" font-size="36.0" fill="#414040" transform="matrix(1.00, 0.00, -0.00, -1.00, 212.7, 375.0)">n</text><text xml:space="preserve" font-family="Palatino-Roman" font-size="36.0" fill="#414040" transform="matrix(1.00, 0.00, -0.00, -1.00, 233.7, 375.0)">d</text><text xml:space="preserve" font-family="Palatino-Roman" font-size="36.0" fill="#414040" transform="matrix(1.00, 0.00, -0.00, -1.00, 255.7, 375.0)"> </text><text xml:space="preserve" font-family="Palatino-Roman" font-size="36.0" fill="#414040" transform="matrix(1.00, 0.00, -0.00, -1.00, 264.7, 375.0)">y</text><text xml:space="preserve" font-family="Palatino-Roman" font-size="36.0" fill="#414040" transform="matrix(1.00, 0.00, -0.00, -1.00, 284.7, 375.0)">o</text><text xml:space="preserve" font-family="Palatino-Roman" font-size="36.0" fill="#414040" transform="matrix(1.00, 0.00, -0.00, -1.00, 304.4, 375.0)">u</text><text xml:space="preserve" font-family="Palatino-Roman" font-size="36.0" fill="#414040" transform="matrix(1.00, 0.00, -0.00, -1.00, 326.1, 375.0)">r</text><text xml:space="preserve" font-family="Palatino-Roman" font-size="36.0" fill="#414040" transform="matrix(1.00, 0.00, -0.00, -1.00, 340.3, 375.0)"> </text><text xml:space="preserve" font-family="Palatino-Roman" font-size="36.0" fill="#414040" transform="matrix(1.00, 0.00, -0.00, -1.00, 349.3, 375.0)">a</text><text xml:space="preserve" font-family="Palatino-Roman" font-size="36.0" fill="#414040" transform="matrix(1.00, 0.00, -0.00, -1.00, 367.3, 375.0)">g</text><text xml:space="preserve" font-family="Palatino-Roman" font-size="36.0" fill="#414040" transform="matrix(1.00, 0.00, -0.00, -1.00, 387.3, 375.0)">e</text><text xml:space="preserve" font-family="Palatino-Roman" font-size="36.0" fill="#414040" transform="matrix(1.00, 0.00, -0.00, -1.00, 404.6, 375.0)">n</text><text xml:space="preserve" font-family="Palatino-Roman" font-size="36.0" fill="#414040" transform="matrix(1.00, 0.00, -0.00, -1.00, 425.5, 375.0)">d</text><text xml:space="preserve" font-family="Palatino-Roman" font-size="36.0" fill="#414040" transform="matrix(1.00, 0.00, -0.00, -1.00, 447.5, 375.0)">a</text><text xml:space="preserve" font-family="Palatino-Roman" font-size="36.0" fill="#414040" transform="matrix(1.00, 0.00, -0.00, -1.00, 465.5, 375.0)"> </text><text xml:space="preserve" font-family="ZapfDingbatsITC" font-size="21.6" fill="#919191" transform="matrix(1.00, 0.00, -0.00, -1.00, 81.0, 308.8)">❖</text><text xml:space="preserve" font-family="Palatino-Bold" font-weight="bold" font-size="36.0" fill="#414040" transform="matrix(1.00, 0.00, -0.00, -1.00, 118.0, 303.0)">I</text><text xml:space="preserve" font-family="Palatino-Bold" font-weight="bold" font-size="36.0" fill="#414040" transform="matrix(1.00, 0.00, -0.00, -1.00, 132.0, 303.0)">n</text><text xml:space="preserve" font-family="Palatino-Bold" font-weight="bold" font-size="36.0" fill="#414040" transform="matrix(1.00, 0.00, -0.00, -1.00, 154.0, 303.0)">t</text><text xml:space="preserve" font-family="Palatino-Bold" font-weight="bold" font-size="36.0" fill="#414040" transform="matrix(1.00, 0.00, -0.00, -1.00, 166.0, 303.0)">e</text><text xml:space="preserve" font-family="Palatino-Bold" font-weight="bold" font-size="36.0" fill="#414040" transform="matrix(1.00, 0.00, -0.00, -1.00, 184.0, 303.0)">r</text><text xml:space="preserve" font-family="Palatino-Bold" font-weight="bold" font-size="36.0" fill="#414040" transform="matrix(1.00, 0.00, -0.00, -1.00, 198.0, 303.0)">r</text><text xml:space="preserve" font-family="Palatino-Bold" font-weight="bold" font-size="36.0" fill="#414040" transform="matrix(1.00, 0.00, -0.00, -1.00, 212.0, 303.0)">u</text><text xml:space="preserve" font-family="Palatino-Bold" font-weight="bold" font-size="36.0" fill="#414040" transform="matrix(1.00, 0.00, -0.00, -1.00, 234.0, 303.0)">p</text><text xml:space="preserve" font-family="Palatino-Bold" font-weight="bold" font-size="36.0" fill="#414040" transform="matrix(1.00, 0.00, -0.00, -1.00, 256.0, 303.0)">t</text><text xml:space="preserve" font-family="Palatino-Bold" font-weight="bold" font-size="36.0" fill="#414040" transform="matrix(1.00, 0.00, -0.00, -1.00, 269.4, 303.0)"> </text><text xml:space="preserve" font-family="Palatino-Bold" font-weight="bold" font-size="36.0" fill="#414040" transform="matrix(1.00, 0.00, -0.00, -1.00, 279.8, 303.0)">a</text><text xml:space="preserve" font-family="Palatino-Bold" font-weight="bold" font-size="36.0" fill="#414040" transform="matrix(1.00, 0.00, -0.00, -1.00, 297.8, 303.0)">s</text><text xml:space="preserve" font-family="Palatino-Bold" font-weight="bold" font-size="36.0" fill="#414040" transform="matrix(1.00, 0.00, -0.00, -1.00, 315.1, 303.0)"> </text><text xml:space="preserve" font-family="Palatino-Bold" font-weight="bold" font-size="36.0" fill="#414040" transform="matrix(1.00, 0.00, -0.00, -1.00, 325.5, 303.0)">l</text><text xml:space="preserve" font-family="Palatino-Bold" font-weight="bold" font-size="36.0" fill="#414040" transform="matrix(1.00, 0.00, -0.00, -1.00, 337.5, 303.0)">i</text><text xml:space="preserve" font-family="Palatino-Bold" font-weight="bold" font-size="36.0" fill="#414040" transform="matrix(1.00, 0.00, -0.00, -1.00, 349.5, 303.0)">t</text><text xml:space="preserve" font-family="Palatino-Bold" font-weight="bold" font-size="36.0" fill="#414040" transform="matrix(1.00, 0.00, -0.00, -1.00, 361.5, 303.0)">t</text><text xml:space="preserve" font-family="Palatino-Bold" font-weight="bold" font-size="36.0" fill="#414040" transform="matrix(1.00, 0.00, -0.00, -1.00, 373.5, 303.0)">l</text><text xml:space="preserve" font-family="Palatino-Bold" font-weight="bold" font-size="36.0" fill="#414040" transform="matrix(1.00, 0.00, -0.00, -1.00, 385.5, 303.0)">e</text><text xml:space="preserve" font-family="Palatino-Bold" font-weight="bold" font-size="36.0" fill="#414040" transform="matrix(1.00, 0.00, -0.00, -1.00, 404.9, 303.0)"> </text><text xml:space="preserve" font-family="Palatino-Bold" font-weight="bold" font-size="36.0" fill="#414040" transform="matrix(1.00, 0.00, -0.00, -1.00, 415.3, 303.0)">a</text><text xml:space="preserve" font-family="Palatino-Bold" font-weight="bold" font-size="36.0" fill="#414040" transform="matrix(1.00, 0.00, -0.00, -1.00, 433.3, 303.0)">s</text><text xml:space="preserve" font-family="Palatino-Bold" font-weight="bold" font-size="36.0" fill="#414040" transform="matrix(1.00, 0.00, -0.00, -1.00, 450.7, 303.0)"> </text><text xml:space="preserve" font-family="Palatino-Bold" font-weight="bold" font-size="36.0" fill="#414040" transform="matrix(1.00, 0.00, -0.00, -1.00, 461.1, 303.0)">p</text><text xml:space="preserve" font-family="Palatino-Bold" font-weight="bold" font-size="36.0" fill="#414040" transform="matrix(1.00, 0.00, -0.00, -1.00, 483.0, 303.0)">o</text><text xml:space="preserve" font-family="Palatino-Bold" font-weight="bold" font-size="36.0" fill="#414040" transform="matrix(1.00, 0.00, -0.00, -1.00, 503.1, 303.0)">s</text><text xml:space="preserve" font-family="Palatino-Bold" font-weight="bold" font-size="36.0" fill="#414040" transform="matrix(1.00, 0.00, -0.00, -1.00, 519.0, 303.0)">s</text><text xml:space="preserve" font-family="Palatino-Bold" font-weight="bold" font-size="36.0" fill="#414040" transform="matrix(1.00, 0.00, -0.00, -1.00, 535.0, 303.0)">i</text><text xml:space="preserve" font-family="Palatino-Bold" font-weight="bold" font-size="36.0" fill="#414040" transform="matrix(1.00, 0.00, -0.00, -1.00, 547.0, 303.0)">b</text><text xml:space="preserve" font-family="Palatino-Bold" font-weight="bold" font-size="36.0" fill="#414040" transform="matrix(1.00, 0.00, -0.00, -1.00, 569.0, 303.0)">l</text><text xml:space="preserve" font-family="Palatino-Bold" font-weight="bold" font-size="36.0" fill="#414040" transform="matrix(1.00, 0.00, -0.00, -1.00, 581.0, 303.0)">e</text><text xml:space="preserve" font-family="Palatino-Bold" font-weight="bold" font-size="36.0" fill="#414040" transform="matrix(1.00, 0.00, -0.00, -1.00, 599.0, 303.0)">.</text><text xml:space="preserve" font-family="Palatino-Bold" font-weight="bold" font-size="36.0" fill="#414040" transform="matrix(1.00, 0.00, -0.00, -1.00, 609.4, 303.0)"> </text><text xml:space="preserve" font-family="Palatino-Bold" font-weight="bold" font-size="36.0" fill="#414040" transform="matrix(1.00, 0.00, -0.00, -1.00, 619.8, 303.0)">I</text><text xml:space="preserve" font-family="Palatino-Bold" font-weight="bold" font-size="36.0" fill="#414040" transform="matrix(1.00, 0.00, -0.00, -1.00, 633.8, 303.0)">f</text><text xml:space="preserve" font-family="Palatino-Bold" font-weight="bold" font-size="36.0" fill="#414040" transform="matrix(1.00, 0.00, -0.00, -1.00, 649.2, 303.0)"> </text><text xml:space="preserve" font-family="Palatino-Bold" font-weight="bold" font-size="36.0" fill="#414040" transform="matrix(1.00, 0.00, -0.00, -1.00, 659.6, 303.0)">y</text><text xml:space="preserve" font-family="Palatino-Bold" font-weight="bold" font-size="36.0" fill="#414040" transform="matrix(1.00, 0.00, -0.00, -1.00, 679.6, 303.0)">o</text><text xml:space="preserve" font-family="Palatino-Bold" font-weight="bold" font-size="36.0" fill="#414040" transform="matrix(1.00, 0.00, -0.00, -1.00, 699.7, 303.0)">u</text><text xml:space="preserve" font-family="Palatino-Bold" font-weight="bold" font-size="36.0" fill="#414040" transform="matrix(1.00, 0.00, -0.00, -1.00, 723.1, 303.0)"> </text><text xml:space="preserve" font-family="Palatino-Bold" font-weight="bold" font-size="36.0" fill="#414040" transform="matrix(1.00, 0.00, -0.00, -1.00, 733.5, 303.0)">d</text><text xml:space="preserve" font-family="Palatino-Bold" font-weight="bold" font-size="36.0" fill="#414040" transform="matrix(1.00, 0.00, -0.00, -1.00, 755.4, 303.0)">o</text><text xml:space="preserve" font-family="Palatino-Bold" font-weight="bold" font-size="36.0" fill="#414040" transform="matrix(1.00, 0.00, -0.00, -1.00, 776.9, 303.0)"> </text><text xml:space="preserve" font-family="Palatino-Bold" font-weight="bold" font-size="36.0" fill="#414040" transform="matrix(1.00, 0.00, -0.00, -1.00, 787.3, 303.0)">i</text><text xml:space="preserve" font-family="Palatino-Bold" font-weight="bold" font-size="36.0" fill="#414040" transform="matrix(1.00, 0.00, -0.00, -1.00, 799.2, 303.0)">n</text><text xml:space="preserve" font-family="Palatino-Bold" font-weight="bold" font-size="36.0" fill="#414040" transform="matrix(1.00, 0.00, -0.00, -1.00, 821.2, 303.0)">t</text><text xml:space="preserve" font-family="Palatino-Bold" font-weight="bold" font-size="36.0" fill="#414040" transform="matrix(1.00, 0.00, -0.00, -1.00, 833.2, 303.0)">e</text><text xml:space="preserve" font-family="Palatino-Bold" font-weight="bold" font-size="36.0" fill="#414040" transform="matrix(1.00, 0.00, -0.00, -1.00, 851.2, 303.0)">r</text><text xml:space="preserve" font-family="Palatino-Bold" font-weight="bold" font-size="36.0" fill="#414040" transform="matrix(1.00, 0.00, -0.00, -1.00, 865.2, 303.0)">r</text><text xml:space="preserve" font-family="Palatino-Bold" font-weight="bold" font-size="36.0" fill="#414040" transform="matrix(1.00, 0.00, -0.00, -1.00, 879.3, 303.0)">u</text><text xml:space="preserve" font-family="Palatino-Bold" font-weight="bold" font-size="36.0" fill="#414040" transform="matrix(1.00, 0.00, -0.00, -1.00, 901.2, 303.0)">p</text><text xml:space="preserve" font-family="Palatino-Bold" font-weight="bold" font-size="36.0" fill="#414040" transform="matrix(1.00, 0.00, -0.00, -1.00, 923.2, 303.0)">t</text><text xml:space="preserve" font-family="Palatino-Bold" font-weight="bold" font-size="36.0" fill="#414040" transform="matrix(1.00, 0.00, -0.00, -1.00, 935.2, 303.0)">,</text><text xml:space="preserve" font-family="Palatino-Bold" font-weight="bold" font-size="36.0" fill="#414040" transform="matrix(1.00, 0.00, -0.00, -1.00, 945.6, 303.0)"> </text><text xml:space="preserve" font-family="Palatino-Bold" font-weight="bold" font-size="36.0" fill="#414040" transform="matrix(1.00, 0.00, -0.00, -1.00, 956.0, 303.0)">i</text><text xml:space="preserve" font-family="Palatino-Bold" font-weight="bold" font-size="36.0" fill="#414040" transform="matrix(1.00, 0.00, -0.00, -1.00, 968.0, 303.0)">t</text><text xml:space="preserve" font-family="Palatino-Bold" font-weight="bold" font-size="36.0" fill="#414040" transform="matrix(1.00, 0.00, -0.00, -1.00, 980.0, 303.0)"> </text><text xml:space="preserve" font-family="Palatino-Bold" font-weight="bold" font-size="36.0" fill="#414040" transform="matrix(1.00, 0.00, -0.00, -1.00, 118.0, 255.0)">s</text><text xml:space="preserve" font-family="Palatino-Bold" font-weight="bold" font-size="36.0" fill="#414040" transform="matrix(1.00, 0.00, -0.00, -1.00, 134.0, 255.0)">h</text><text xml:space="preserve" font-family="Palatino-Bold" font-weight="bold" font-size="36.0" fill="#414040" transform="matrix(1.00, 0.00, -0.00, -1.00, 156.0, 255.0)">o</text><text xml:space="preserve" font-family="Palatino-Bold" font-weight="bold" font-size="36.0" fill="#414040" transform="matrix(1.00, 0.00, -0.00, -1.00, 176.0, 255.0)">u</text><text xml:space="preserve" font-family="Palatino-Bold" font-weight="bold" font-size="36.0" fill="#414040" transform="matrix(1.00, 0.00, -0.00, -1.00, 198.0, 255.0)">l</text><text xml:space="preserve" font-family="Palatino-Bold" font-weight="bold" font-size="36.0" fill="#414040" transform="matrix(1.00, 0.00, -0.00, -1.00, 210.0, 255.0)">d</text><text xml:space="preserve" font-family="Palatino-Bold" font-weight="bold" font-size="36.0" fill="#414040" transform="matrix(1.00, 0.00, -0.00, -1.00, 231.9, 255.0)"> </text><text xml:space="preserve" font-family="Palatino-Bold" font-weight="bold" font-size="36.0" fill="#414040" transform="matrix(1.00, 0.00, -0.00, -1.00, 240.9, 255.0)">b</text><text xml:space="preserve" font-family="Palatino-Bold" font-weight="bold" font-size="36.0" fill="#414040" transform="matrix(1.00, 0.00, -0.00, -1.00, 262.9, 255.0)">e</text><text xml:space="preserve" font-family="Palatino-Bold" font-weight="bold" font-size="36.0" fill="#414040" transform="matrix(1.00, 0.00, -0.00, -1.00, 280.9, 255.0)"> </text><text xml:space="preserve" font-family="Palatino-Bold" font-weight="bold" font-size="36.0" fill="#414040" transform="matrix(1.00, 0.00, -0.00, -1.00, 289.9, 255.0)">t</text><text xml:space="preserve" font-family="Palatino-Bold" font-weight="bold" font-size="36.0" fill="#414040" transform="matrix(1.00, 0.00, -0.00, -1.00, 301.9, 255.0)">o</text><text xml:space="preserve" font-family="Palatino-Bold" font-weight="bold" font-size="36.0" fill="#414040" transform="matrix(1.00, 0.00, -0.00, -1.00, 321.9, 255.0)"> </text><text xml:space="preserve" font-family="Palatino-Bold" font-weight="bold" font-size="36.0" fill="#414040" transform="matrix(1.00, 0.00, -0.00, -1.00, 330.9, 255.0)">e</text><text xml:space="preserve" font-family="Palatino-Bold" font-weight="bold" font-size="36.0" fill="#414040" transform="matrix(1.00, 0.00, -0.00, -1.00, 348.9, 255.0)">n</text><text xml:space="preserve" font-family="Palatino-Bold" font-weight="bold" font-size="36.0" fill="#414040" transform="matrix(1.00, 0.00, -0.00, -1.00, 370.9, 255.0)">c</text><text xml:space="preserve" font-family="Palatino-Bold" font-weight="bold" font-size="36.0" fill="#414040" transform="matrix(1.00, 0.00, -0.00, -1.00, 386.9, 255.0)">o</text><text xml:space="preserve" font-family="Palatino-Bold" font-weight="bold" font-size="36.0" fill="#414040" transform="matrix(1.00, 0.00, -0.00, -1.00, 406.9, 255.0)">u</text><text xml:space="preserve" font-family="Palatino-Bold" font-weight="bold" font-size="36.0" fill="#414040" transform="matrix(1.00, 0.00, -0.00, -1.00, 428.9, 255.0)">r</text><text xml:space="preserve" font-family="Palatino-Bold" font-weight="bold" font-size="36.0" fill="#414040" transform="matrix(1.00, 0.00, -0.00, -1.00, 442.9, 255.0)">a</text><text xml:space="preserve" font-family="Palatino-Bold" font-weight="bold" font-size="36.0" fill="#414040" transform="matrix(1.00, 0.00, -0.00, -1.00, 460.9, 255.0)">g</text><text xml:space="preserve" font-family="Palatino-Bold" font-weight="bold" font-size="36.0" fill="#414040" transform="matrix(1.00, 0.00, -0.00, -1.00, 480.9, 255.0)">e</text><text xml:space="preserve" font-family="Palatino-Bold" font-weight="bold" font-size="36.0" fill="#414040" transform="matrix(1.00, 0.00, -0.00, -1.00, 498.9, 255.0)"> </text><text xml:space="preserve" font-family="Palatino-Bold" font-weight="bold" font-size="36.0" fill="#414040" transform="matrix(1.00, 0.00, -0.00, -1.00, 507.9, 255.0)">t</text><text xml:space="preserve" font-family="Palatino-Bold" font-weight="bold" font-size="36.0" fill="#414040" transform="matrix(1.00, 0.00, -0.00, -1.00, 519.9, 255.0)">h</text><text xml:space="preserve" font-family="Palatino-Bold" font-weight="bold" font-size="36.0" fill="#414040" transform="matrix(1.00, 0.00, -0.00, -1.00, 541.9, 255.0)">e</text><text xml:space="preserve" font-family="Palatino-Bold" font-weight="bold" font-size="36.0" fill="#414040" transform="matrix(1.00, 0.00, -0.00, -1.00, 559.9, 255.0)"> </text><text xml:space="preserve" font-family="Palatino-Bold" font-weight="bold" font-size="36.0" fill="#414040" transform="matrix(1.00, 0.00, -0.00, -1.00, 568.9, 255.0)">s</text><text xml:space="preserve" font-family="Palatino-Bold" font-weight="bold" font-size="36.0" fill="#414040" transform="matrix(1.00, 0.00, -0.00, -1.00, 584.9, 255.0)">p</text><text xml:space="preserve" font-family="Palatino-Bold" font-weight="bold" font-size="36.0" fill="#414040" transform="matrix(1.00, 0.00, -0.00, -1.00, 606.9, 255.0)">e</text><text xml:space="preserve" font-family="Palatino-Bold" font-weight="bold" font-size="36.0" fill="#414040" transform="matrix(1.00, 0.00, -0.00, -1.00, 624.9, 255.0)">a</text><text xml:space="preserve" font-family="Palatino-Bold" font-weight="bold" font-size="36.0" fill="#414040" transform="matrix(1.00, 0.00, -0.00, -1.00, 642.9, 255.0)">k</text><text xml:space="preserve" font-family="Palatino-Bold" font-weight="bold" font-size="36.0" fill="#414040" transform="matrix(1.00, 0.00, -0.00, -1.00, 664.9, 255.0)">e</text><text xml:space="preserve" font-family="Palatino-Bold" font-weight="bold" font-size="36.0" fill="#414040" transform="matrix(1.00, 0.00, -0.00, -1.00, 682.9, 255.0)">r</text><text xml:space="preserve" font-family="Palatino-Bold" font-weight="bold" font-size="36.0" fill="#414040" transform="matrix(1.00, 0.00, -0.00, -1.00, 696.9, 255.0)"> </text><text xml:space="preserve" font-family="Palatino-Bold" font-weight="bold" font-size="36.0" fill="#414040" transform="matrix(1.00, 0.00, -0.00, -1.00, 705.9, 255.0)">t</text><text xml:space="preserve" font-family="Palatino-Bold" font-weight="bold" font-size="36.0" fill="#414040" transform="matrix(1.00, 0.00, -0.00, -1.00, 717.9, 255.0)">o</text><text xml:space="preserve" font-family="Palatino-Bold" font-weight="bold" font-size="36.0" fill="#414040" transform="matrix(1.00, 0.00, -0.00, -1.00, 737.9, 255.0)"> </text><text xml:space="preserve" font-family="Palatino-Bold" font-weight="bold" font-size="36.0" fill="#414040" transform="matrix(1.00, 0.00, -0.00, -1.00, 746.9, 255.0)">s</text><text xml:space="preserve" font-family="Palatino-Bold" font-weight="bold" font-size="36.0" fill="#414040" transform="matrix(1.00, 0.00, -0.00, -1.00, 762.9, 255.0)">a</text><text xml:space="preserve" font-family="Palatino-Bold" font-weight="bold" font-size="36.0" fill="#414040" transform="matrix(1.00, 0.00, -0.00, -1.00, 780.9, 255.0)">y</text><text xml:space="preserve" font-family="Palatino-Bold" font-weight="bold" font-size="36.0" fill="#414040" transform="matrix(1.00, 0.00, -0.00, -1.00, 800.9, 255.0)"> </text><text xml:space="preserve" font-family="Palatino-Bold" font-weight="bold" font-size="36.0" fill="#414040" transform="matrix(1.00, 0.00, -0.00, -1.00, 809.9, 255.0)">m</text><text xml:space="preserve" font-family="Palatino-Bold" font-weight="bold" font-size="36.0" fill="#414040" transform="matrix(1.00, 0.00, -0.00, -1.00, 841.9, 255.0)">o</text><text xml:space="preserve" font-family="Palatino-Bold" font-weight="bold" font-size="36.0" fill="#414040" transform="matrix(1.00, 0.00, -0.00, -1.00, 861.9, 255.0)">r</text><text xml:space="preserve" font-family="Palatino-Bold" font-weight="bold" font-size="36.0" fill="#414040" transform="matrix(1.00, 0.00, -0.00, -1.00, 876.0, 255.0)">e</text><text xml:space="preserve" font-family="Palatino-Bold" font-weight="bold" font-size="36.0" fill="#414040" transform="matrix(1.00, 0.00, -0.00, -1.00, 894.0, 255.0)">.</text></g></svg>