<?xml version="1.0" encoding="UTF-8" standalone="no"?><svg xmlns="http://www.w3.org/2000/svg" xmlns:xlink="http://www.w3.org/1999/xlink" clip-rule="evenodd" stroke-miterlimit="4.00" viewBox="0 0 1024 768"><desc>SVG generated by Keynote</desc><defs></defs><g transform="matrix(1.00, 0.00, -0.00, -1.00, 0.0, 768.0)"><g><clipPath id="clip-707"><path d="M 0.0 768.0 L 1024.0 768.0 L 1024.0 0.0 L 0.0 0.0 Z M 0.0 768.0 "></path></clipPath><g clip-path="url(#clip-707)"><image xlink:href="../../7271B8B7-3FC1-4276-9B71-E31342A69E14/assets/50163466EC2834942505D00A94D158E6.jpeg" width="1024.00" height="768.00" transform="matrix(1.00, 0.00, -0.00, -1.00, 0.0, 768.0)"></image></g></g><g opacity="0.30"><g><clipPath id="clip-708"><path d="M 39.0 595.0 L 986.0 595.0 L 986.0 599.0 L 39.0 599.0 Z M 39.0 595.0 "></path></clipPath><g clip-path="url(#clip-708)"><path d="M 0.0 0.0 L 944.7 0.0 " fill="none" stroke="#434343" stroke-width="1.00" transform="matrix(1.00, 0.00, 0.00, -1.00, 40.0, 597.0)"></path></g></g></g><g opacity="0.30"><g><clipPath id="clip-709"><path d="M 39.0 716.0 L 986.0 716.0 L 986.0 720.0 L 39.0 720.0 Z M 39.0 716.0 "></path></clipPath><g clip-path="url(#clip-709)"><path d="M 0.0 0.0 L 944.7 0.0 " fill="none" stroke="#434343" stroke-width="1.00" transform="matrix(1.00, 0.00, 0.00, -1.00, 40.0, 718.0)"></path></g></g></g><text xml:space="preserve" font-family="BodoniSvtyTwoITCTT-Book" font-size="65.8" fill="#D93D2A" transform="matrix(1.00, 0.00, -0.00, -1.00, 48.0, 635.0)">R</text><text xml:space="preserve" font-family="BodoniSvtyTwoITCTT-Book" font-size="65.8" fill="#D93D2A" transform="matrix(1.00, 0.00, -0.00, -1.00, 86.7, 635.0)">e</text><text xml:space="preserve" font-family="BodoniSvtyTwoITCTT-Book" font-size="65.8" fill="#D93D2A" transform="matrix(1.00, 0.00, -0.00, -1.00, 115.0, 635.0)">s</text><text xml:space="preserve" font-family="BodoniSvtyTwoITCTT-Book" font-size="65.8" fill="#D93D2A" transform="matrix(1.00, 0.00, -0.00, -1.00, 138.8, 635.0)">u</text><text xml:space="preserve" font-family="BodoniSvtyTwoITCTT-Book" font-size="65.8" fill="#D93D2A" transform="matrix(1.00, 0.00, -0.00, -1.00, 171.0, 635.0)">l</text><text xml:space="preserve" font-family="BodoniSvtyTwoITCTT-Book" font-size="65.8" fill="#D93D2A" transform="matrix(1.00, 0.00, -0.00, -1.00, 186.5, 635.0)">t</text><text xml:space="preserve" font-family="BodoniSvtyTwoITCTT-Book" font-size="65.8" fill="#D93D2A" transform="matrix(1.00, 0.00, -0.00, -1.00, 205.2, 635.0)">s</text><text xml:space="preserve" font-family="BodoniSvtyTwoITCTT-Book" font-size="65.8" fill="#D93D2A" transform="matrix(1.00, 0.00, -0.00, -1.00, 229.0, 635.0)">:</text><text xml:space="preserve" font-family="BodoniSvtyTwoITCTT-Book" font-size="65.8" fill="#D93D2A" transform="matrix(1.00, 0.00, -0.00, -1.00, 246.1, 635.0)"> </text><text xml:space="preserve" font-family="BodoniSvtyTwoITCTT-Book" font-size="65.8" fill="#D93D2A" transform="matrix(1.00, 0.00, -0.00, -1.00, 258.3, 635.0)">r</text><text xml:space="preserve" font-family="BodoniSvtyTwoITCTT-Book" font-size="65.8" fill="#D93D2A" transform="matrix(1.00, 0.00, -0.00, -1.00, 280.5, 635.0)">e</text><text xml:space="preserve" font-family="BodoniSvtyTwoITCTT-Book" font-size="65.8" fill="#D93D2A" transform="matrix(1.00, 0.00, -0.00, -1.00, 308.8, 635.0)">m</text><text xml:space="preserve" font-family="BodoniSvtyTwoITCTT-Book" font-size="65.8" fill="#D93D2A" transform="matrix(1.00, 0.00, -0.00, -1.00, 355.1, 635.0)">o</text><text xml:space="preserve" font-family="BodoniSvtyTwoITCTT-Book" font-size="65.8" fill="#D93D2A" transform="matrix(1.00, 0.00, -0.00, -1.00, 386.7, 635.0)">t</text><text xml:space="preserve" font-family="BodoniSvtyTwoITCTT-Book" font-size="65.8" fill="#D93D2A" transform="matrix(1.00, 0.00, -0.00, -1.00, 405.4, 635.0)">e</text><text xml:space="preserve" font-family="BodoniSvtyTwoITCTT-Book" font-size="65.8" fill="#D93D2A" transform="matrix(1.00, 0.00, -0.00, -1.00, 433.7, 635.0)"> </text><text xml:space="preserve" font-family="BodoniSvtyTwoITCTT-Book" font-size="65.8" fill="#D93D2A" transform="matrix(1.00, 0.00, -0.00, -1.00, 445.9, 635.0)">w</text><text xml:space="preserve" font-family="BodoniSvtyTwoITCTT-Book" font-size="65.8" fill="#D93D2A" transform="matrix(1.00, 0.00, -0.00, -1.00, 485.3, 635.0)">o</text><text xml:space="preserve" font-family="BodoniSvtyTwoITCTT-Book" font-size="65.8" fill="#D93D2A" transform="matrix(1.00, 0.00, -0.00, -1.00, 516.9, 635.0)">r</text><text xml:space="preserve" font-family="BodoniSvtyTwoITCTT-Book" font-size="65.8" fill="#D93D2A" transform="matrix(1.00, 0.00, -0.00, -1.00, 539.1, 635.0)">k</text><text xml:space="preserve" font-family="BodoniSvtyTwoITCTT-Book" font-size="65.8" fill="#D93D2A" transform="matrix(1.00, 0.00, -0.00, -1.00, 570.0, 635.0)"> </text><text xml:space="preserve" font-family="BodoniSvtyTwoITCTT-Book" font-size="65.8" fill="#D93D2A" transform="matrix(1.00, 0.00, -0.00, -1.00, 582.2, 635.0)">v</text><text xml:space="preserve" font-family="BodoniSvtyTwoITCTT-Book" font-size="65.8" fill="#D93D2A" transform="matrix(1.00, 0.00, -0.00, -1.00, 607.5, 635.0)">s</text><text xml:space="preserve" font-family="BodoniSvtyTwoITCTT-Book" font-size="65.8" fill="#D93D2A" transform="matrix(1.00, 0.00, -0.00, -1.00, 631.3, 635.0)">.</text><text xml:space="preserve" font-family="BodoniSvtyTwoITCTT-Book" font-size="65.8" fill="#D93D2A" transform="matrix(1.00, 0.00, -0.00, -1.00, 648.4, 635.0)"> </text><text xml:space="preserve" font-family="BodoniSvtyTwoITCTT-Book" font-size="65.8" fill="#D93D2A" transform="matrix(1.00, 0.00, -0.00, -1.00, 660.6, 635.0)">e</text><text xml:space="preserve" font-family="BodoniSvtyTwoITCTT-Book" font-size="65.8" fill="#D93D2A" transform="matrix(1.00, 0.00, -0.00, -1.00, 688.9, 635.0)">f</text><text xml:space="preserve" font-family="BodoniSvtyTwoITCTT-Book" font-size="65.8" fill="#D93D2A" transform="matrix(1.00, 0.00, -0.00, -1.00, 706.3, 635.0)">f</text><text xml:space="preserve" font-family="BodoniSvtyTwoITCTT-Book" font-size="65.8" fill="#D93D2A" transform="matrix(1.00, 0.00, -0.00, -1.00, 723.6, 635.0)">e</text><text xml:space="preserve" font-family="BodoniSvtyTwoITCTT-Book" font-size="65.8" fill="#D93D2A" transform="matrix(1.00, 0.00, -0.00, -1.00, 751.9, 635.0)">c</text><text xml:space="preserve" font-family="BodoniSvtyTwoITCTT-Book" font-size="65.8" fill="#D93D2A" transform="matrix(1.00, 0.00, -0.00, -1.00, 778.8, 635.0)">t</text><text xml:space="preserve" font-family="BodoniSvtyTwoITCTT-Book" font-size="65.8" fill="#D93D2A" transform="matrix(1.00, 0.00, -0.00, -1.00, 797.5, 635.0)">i</text><text xml:space="preserve" font-family="BodoniSvtyTwoITCTT-Book" font-size="65.8" fill="#D93D2A" transform="matrix(1.00, 0.00, -0.00, -1.00, 814.0, 635.0)">v</text><text xml:space="preserve" font-family="BodoniSvtyTwoITCTT-Book" font-size="65.8" fill="#D93D2A" transform="matrix(1.00, 0.00, -0.00, -1.00, 839.3, 635.0)">e</text><text xml:space="preserve" font-family="BodoniSvtyTwoITCTT-Book" font-size="65.8" fill="#D93D2A" transform="matrix(1.00, 0.00, -0.00, -1.00, 867.6, 635.0)">n</text><text xml:space="preserve" font-family="BodoniSvtyTwoITCTT-Book" font-size="65.8" fill="#D93D2A" transform="matrix(1.00, 0.00, -0.00, -1.00, 899.8, 635.0)">e</text><text xml:space="preserve" font-family="BodoniSvtyTwoITCTT-Book" font-size="65.8" fill="#D93D2A" transform="matrix(1.00, 0.00, -0.00, -1.00, 928.1, 635.0)">s</text><text xml:space="preserve" font-family="BodoniSvtyTwoITCTT-Book" font-size="65.8" fill="#D93D2A" transform="matrix(1.00, 0.00, -0.00, -1.00, 951.9, 635.0)">s</text><g><clipPath id="clip-710"><path d="M 55.0 31.0 L 969.0 31.0 L 969.0 585.0 L 55.0 585.0 Z M 55.0 31.0 "></path></clipPath><g clip-path="url(#clip-710)"><path d="M 55.0 585.0 L 969.0 585.0 L 969.0 31.0 L 55.0 31.0 Z M 55.0 585.0 " fill="#FEFFFF" fill-opacity="0.00"></path></g></g><g><clipPath id="clip-711"><path d="M 55.0 31.0 L 969.0 31.0 L 969.0 585.0 L 55.0 585.0 Z M 55.0 31.0 "></path></clipPath><g clip-path="url(#clip-711)"><image xlink:href="../../22CB9E8F-1C8B-48CE-808B-C0B4A863AF83/assets/E8117F5F662BD33FB18C98C033D32CE3.png" width="755.00" height="458.00" transform="matrix(1.21, 0.00, -0.00, -1.21, 55.0, 585.0)"></image></g></g></g></svg>