<?xml version="1.0" encoding="UTF-8" standalone="no"?><svg xmlns="http://www.w3.org/2000/svg" xmlns:xlink="http://www.w3.org/1999/xlink" clip-rule="evenodd" stroke-miterlimit="4.00" viewBox="0 0 331 33"><desc>SVG generated by Keynote</desc><defs></defs><g transform="matrix(1.00, 0.00, -0.00, -1.00, 0.0, 33.0)"><text xml:space="preserve" font-family="ZapfDingbatsITC" font-size="21.6" fill="#919191" transform="matrix(1.00, 0.00, -0.00, -1.00, 0.0, 17.8)">â–</text><text xml:space="preserve" font-family="Palatino-Bold" font-weight="bold" font-size="36.0" fill="#414040" transform="matrix(1.00, 0.00, -0.00, -1.00, 37.0, 12.0)">a</text><text xml:space="preserve" font-family="Palatino-Bold" font-weight="bold" font-size="36.0" fill="#414040" transform="matrix(1.00, 0.00, -0.00, -1.00, 55.0, 12.0)">g</text><text xml:space="preserve" font-family="Palatino-Bold" font-weight="bold" font-size="36.0" fill="#414040" transform="matrix(1.00, 0.00, -0.00, -1.00, 75.0, 12.0)">e</text><text xml:space="preserve" font-family="Palatino-Bold" font-weight="bold" font-size="36.0" fill="#414040" transform="matrix(1.00, 0.00, -0.00, -1.00, 93.0, 12.0)"> </text><text xml:space="preserve" font-family="Palatino-Bold" font-weight="bold" font-size="36.0" fill="#414040" transform="matrix(1.00, 0.00, -0.00, -1.00, 102.0, 12.0)">o</text><text xml:space="preserve" font-family="Palatino-Bold" font-weight="bold" font-size="36.0" fill="#414040" transform="matrix(1.00, 0.00, -0.00, -1.00, 122.1, 12.0)">r</text><text xml:space="preserve" font-family="Palatino-Bold" font-weight="bold" font-size="36.0" fill="#414040" transform="matrix(1.00, 0.00, -0.00, -1.00, 136.1, 12.0)"> </text><text xml:space="preserve" font-family="Palatino-Bold" font-weight="bold" font-size="36.0" fill="#414040" transform="matrix(1.00, 0.00, -0.00, -1.00, 145.1, 12.0)">a</text><text xml:space="preserve" font-family="Palatino-Bold" font-weight="bold" font-size="36.0" fill="#414040" transform="matrix(1.00, 0.00, -0.00, -1.00, 163.1, 12.0)">p</text><text xml:space="preserve" font-family="Palatino-Bold" font-weight="bold" font-size="36.0" fill="#414040" transform="matrix(1.00, 0.00, -0.00, -1.00, 185.1, 12.0)">p</text><text xml:space="preserve" font-family="Palatino-Bold" font-weight="bold" font-size="36.0" fill="#414040" transform="matrix(1.00, 0.00, -0.00, -1.00, 207.0, 12.0)">e</text><text xml:space="preserve" font-family="Palatino-Bold" font-weight="bold" font-size="36.0" fill="#414040" transform="matrix(1.00, 0.00, -0.00, -1.00, 225.0, 12.0)">a</text><text xml:space="preserve" font-family="Palatino-Bold" font-weight="bold" font-size="36.0" fill="#414040" transform="matrix(1.00, 0.00, -0.00, -1.00, 243.0, 12.0)">r</text><text xml:space="preserve" font-family="Palatino-Bold" font-weight="bold" font-size="36.0" fill="#414040" transform="matrix(1.00, 0.00, -0.00, -1.00, 257.1, 12.0)">a</text><text xml:space="preserve" font-family="Palatino-Bold" font-weight="bold" font-size="36.0" fill="#414040" transform="matrix(1.00, 0.00, -0.00, -1.00, 275.1, 12.0)">n</text><text xml:space="preserve" font-family="Palatino-Bold" font-weight="bold" font-size="36.0" fill="#414040" transform="matrix(1.00, 0.00, -0.00, -1.00, 297.0, 12.0)">c</text><text xml:space="preserve" font-family="Palatino-Bold" font-weight="bold" font-size="36.0" fill="#414040" transform="matrix(1.00, 0.00, -0.00, -1.00, 313.0, 12.0)">e</text></g></svg>