<?xml version="1.0" encoding="UTF-8" standalone="no"?><svg xmlns="http://www.w3.org/2000/svg" xmlns:xlink="http://www.w3.org/1999/xlink" clip-rule="evenodd" stroke-miterlimit="4.00" viewBox="0 0 1024 768"><desc>SVG generated by Keynote</desc><defs><linearGradient id="gradSh1.0" x1="0.0" y1="0.0" x2="100.0" y2="0.0" gradientUnits="userSpaceOnUse" gradientTransform="matrix(0.00, -7.70, -10.26, 0.00, 512.0, 769.0)"><stop offset="0.00000" stop-color="#F1F1FB"></stop><stop offset="0.00293" stop-color="#F0F1FB"></stop><stop offset="0.97801" stop-color="#057FFF"></stop><stop offset="0.98167" stop-color="#047FFF"></stop><stop offset="1.00000" stop-color="#007DFF"></stop></linearGradient></defs><g transform="matrix(1.00, 0.00, -0.00, -1.00, 0.0, 768.0)"><g><clipPath id="clip-0"><path d="M 0.0 768.0 L 1024.0 768.0 L 1024.0 0.0 L 0.0 0.0 Z M 0.0 768.0 "></path></clipPath><g clip-path="url(#clip-0)"><path d="M 0.0 768.0 L 1024.0 768.0 L 1024.0 0.0 L 0.0 0.0 Z M 0.0 768.0 " fill="url(#gradSh1.0)"></path></g></g><image xlink:href="125E77511351F71CA67FE3248DFF7F6C.png" width="276.00" height="62.00" transform="matrix(1.00, 0.00, -0.00, -1.00, 72.0, 464.0)"></image><text xml:space="preserve" font-family="HelveticaNeue-Light" font-size="72.0" fill="#FEFFFE" transform="matrix(1.00, 0.00, -0.00, -1.00, 71.0, 411.0)">M</text><text xml:space="preserve" font-family="HelveticaNeue-Light" font-size="72.0" fill="#FEFFFE" transform="matrix(1.00, 0.00, -0.00, -1.00, 130.1, 411.0)">k</text><text xml:space="preserve" font-family="HelveticaNeue-Light" font-size="72.0" fill="#FEFFFE" transform="matrix(1.00, 0.00, -0.00, -1.00, 166.1, 411.0)">u</text><text xml:space="preserve" font-family="HelveticaNeue-Light" font-size="72.0" fill="#FEFFFE" transform="matrix(1.00, 0.00, -0.00, -1.00, 204.8, 411.0)">f</text><text xml:space="preserve" font-family="HelveticaNeue-Light" font-size="72.0" fill="#FEFFFE" transform="matrix(1.00, 0.00, -0.00, -1.00, 223.4, 411.0)">u</text><text xml:space="preserve" font-family="HelveticaNeue-Light" font-size="72.0" fill="#FEFFFE" transform="matrix(1.00, 0.00, -0.00, -1.00, 262.1, 411.0)">n</text><text xml:space="preserve" font-family="HelveticaNeue-Light" font-size="72.0" fill="#FEFFFE" transform="matrix(1.00, 0.00, -0.00, -1.00, 300.8, 411.0)">z</text><text xml:space="preserve" font-family="HelveticaNeue-Light" font-size="72.0" fill="#FEFFFE" transform="matrix(1.00, 0.00, -0.00, -1.00, 334.1, 411.0)">i</text><image xlink:href="72C4B10F4EA9C174B6F0CCA26245ECC8.png" width="688.00" height="46.00" transform="matrix(1.00, 0.00, -0.00, -1.00, 70.0, 371.0)"></image><text xml:space="preserve" font-family="HelveticaNeue-Light" font-size="42.0" fill="#73BFFF" transform="matrix(1.00, 0.00, -0.00, -1.00, 71.0, 340.0)">P</text><text xml:space="preserve" font-family="HelveticaNeue-Light" font-size="42.0" fill="#73BFFF" transform="matrix(1.00, 0.00, -0.00, -1.00, 97.5, 340.0)">r</text><text xml:space="preserve" font-family="HelveticaNeue-Light" font-size="42.0" fill="#73BFFF" transform="matrix(1.00, 0.00, -0.00, -1.00, 109.9, 340.0)">e</text><text xml:space="preserve" font-family="HelveticaNeue-Light" font-size="42.0" fill="#73BFFF" transform="matrix(1.00, 0.00, -0.00, -1.00, 131.7, 340.0)">z</text><text xml:space="preserve" font-family="HelveticaNeue-Light" font-size="42.0" fill="#73BFFF" transform="matrix(1.00, 0.00, -0.00, -1.00, 151.2, 340.0)">e</text><text xml:space="preserve" font-family="HelveticaNeue-Light" font-size="42.0" fill="#73BFFF" transform="matrix(1.00, 0.00, -0.00, -1.00, 173.0, 340.0)">n</text><text xml:space="preserve" font-family="HelveticaNeue-Light" font-size="42.0" fill="#73BFFF" transform="matrix(1.00, 0.00, -0.00, -1.00, 195.5, 340.0)">t</text><text xml:space="preserve" font-family="HelveticaNeue-Light" font-size="42.0" fill="#73BFFF" transform="matrix(1.00, 0.00, -0.00, -1.00, 208.0, 340.0)">a</text><text xml:space="preserve" font-family="HelveticaNeue-Light" font-size="42.0" fill="#73BFFF" transform="matrix(1.00, 0.00, -0.00, -1.00, 229.8, 340.0)">c</text><text xml:space="preserve" font-family="HelveticaNeue-Light" font-size="42.0" fill="#73BFFF" transform="matrix(1.00, 0.00, -0.00, -1.00, 251.6, 340.0)">j</text><text xml:space="preserve" font-family="HelveticaNeue-Light" font-size="42.0" fill="#73BFFF" transform="matrix(1.00, 0.00, -0.00, -1.00, 259.3, 340.0)">a</text><text xml:space="preserve" font-family="HelveticaNeue-Light" font-size="42.0" fill="#73BFFF" transform="matrix(1.00, 0.00, -0.00, -1.00, 281.1, 340.0)"> </text><text xml:space="preserve" font-family="HelveticaNeue-Light" font-size="42.0" fill="#73BFFF" transform="matrix(1.00, 0.00, -0.00, -1.00, 292.8, 340.0)">t</text><text xml:space="preserve" font-family="HelveticaNeue-Light" font-size="42.0" fill="#73BFFF" transform="matrix(1.00, 0.00, -0.00, -1.00, 305.2, 340.0)">e</text><text xml:space="preserve" font-family="HelveticaNeue-Light" font-size="42.0" fill="#73BFFF" transform="matrix(1.00, 0.00, -0.00, -1.00, 327.0, 340.0)">m</text><text xml:space="preserve" font-family="HelveticaNeue-Light" font-size="42.0" fill="#73BFFF" transform="matrix(1.00, 0.00, -0.00, -1.00, 362.0, 340.0)">a</text><text xml:space="preserve" font-family="HelveticaNeue-Light" font-size="42.0" fill="#73BFFF" transform="matrix(1.00, 0.00, -0.00, -1.00, 383.8, 340.0)">t</text><text xml:space="preserve" font-family="HelveticaNeue-Light" font-size="42.0" fill="#73BFFF" transform="matrix(1.00, 0.00, -0.00, -1.00, 396.2, 340.0)">u</text><text xml:space="preserve" font-family="HelveticaNeue-Light" font-size="42.0" fill="#73BFFF" transform="matrix(1.00, 0.00, -0.00, -1.00, 418.8, 340.0)"> </text><text xml:space="preserve" font-family="HelveticaNeue-Light" font-size="42.0" fill="#73BFFF" transform="matrix(1.00, 0.00, -0.00, -1.00, 430.5, 340.0)">p</text><text xml:space="preserve" font-family="HelveticaNeue-Light" font-size="42.0" fill="#73BFFF" transform="matrix(1.00, 0.00, -0.00, -1.00, 454.6, 340.0)">r</text><text xml:space="preserve" font-family="HelveticaNeue-Light" font-size="42.0" fill="#73BFFF" transform="matrix(1.00, 0.00, -0.00, -1.00, 467.8, 340.0)">a</text><text xml:space="preserve" font-family="HelveticaNeue-Light" font-size="42.0" fill="#73BFFF" transform="matrix(1.00, 0.00, -0.00, -1.00, 489.6, 340.0)">c</text><text xml:space="preserve" font-family="HelveticaNeue-Light" font-size="42.0" fill="#73BFFF" transform="matrix(1.00, 0.00, -0.00, -1.00, 511.4, 340.0)">y</text><text xml:space="preserve" font-family="HelveticaNeue-Light" font-size="42.0" fill="#73BFFF" transform="matrix(1.00, 0.00, -0.00, -1.00, 530.9, 340.0)"> </text><text xml:space="preserve" font-family="HelveticaNeue-Light" font-size="42.0" fill="#73BFFF" transform="matrix(1.00, 0.00, -0.00, -1.00, 542.5, 340.0)">i</text><text xml:space="preserve" font-family="HelveticaNeue-Light" font-size="42.0" fill="#73BFFF" transform="matrix(1.00, 0.00, -0.00, -1.00, 550.3, 340.0)">n</text><text xml:space="preserve" font-family="HelveticaNeue-Light" font-size="42.0" fill="#73BFFF" transform="matrix(1.00, 0.00, -0.00, -1.00, 572.9, 340.0)">ż</text><text xml:space="preserve" font-family="HelveticaNeue-Light" font-size="42.0" fill="#73BFFF" transform="matrix(1.00, 0.00, -0.00, -1.00, 592.3, 340.0)">y</text><text xml:space="preserve" font-family="HelveticaNeue-Light" font-size="42.0" fill="#73BFFF" transform="matrix(1.00, 0.00, -0.00, -1.00, 611.8, 340.0)">n</text><text xml:space="preserve" font-family="HelveticaNeue-Light" font-size="42.0" fill="#73BFFF" transform="matrix(1.00, 0.00, -0.00, -1.00, 634.3, 340.0)">i</text><text xml:space="preserve" font-family="HelveticaNeue-Light" font-size="42.0" fill="#73BFFF" transform="matrix(1.00, 0.00, -0.00, -1.00, 642.1, 340.0)">e</text><text xml:space="preserve" font-family="HelveticaNeue-Light" font-size="42.0" fill="#73BFFF" transform="matrix(1.00, 0.00, -0.00, -1.00, 663.9, 340.0)">r</text><text xml:space="preserve" font-family="HelveticaNeue-Light" font-size="42.0" fill="#73BFFF" transform="matrix(1.00, 0.00, -0.00, -1.00, 677.1, 340.0)">s</text><text xml:space="preserve" font-family="HelveticaNeue-Light" font-size="42.0" fill="#73BFFF" transform="matrix(1.00, 0.00, -0.00, -1.00, 697.3, 340.0)">k</text><text xml:space="preserve" font-family="HelveticaNeue-Light" font-size="42.0" fill="#73BFFF" transform="matrix(1.00, 0.00, -0.00, -1.00, 718.3, 340.0)">i</text><text xml:space="preserve" font-family="HelveticaNeue-Light" font-size="42.0" fill="#73BFFF" transform="matrix(1.00, 0.00, -0.00, -1.00, 726.1, 340.0)">e</text><text xml:space="preserve" font-family="HelveticaNeue-Light" font-size="42.0" fill="#73BFFF" transform="matrix(1.00, 0.00, -0.00, -1.00, 747.9, 340.0)">j</text><text xml:space="preserve" font-family="HelveticaNeue-Bold" font-weight="bold" font-size="14.0" fill="#FEFFFE" transform="matrix(1.00, 0.00, -0.00, -1.00, 999.9, 17.4)">1</text></g></svg>