<?xml version="1.0" encoding="UTF-8" standalone="no"?><svg xmlns="http://www.w3.org/2000/svg" xmlns:xlink="http://www.w3.org/1999/xlink" clip-rule="evenodd" stroke-miterlimit="4.00" viewBox="0 0 1024 768"><desc>SVG generated by Keynote</desc><defs></defs><g transform="matrix(1.00, 0.00, -0.00, -1.00, 0.0, 768.0)"><g><clipPath id="clip-0"><path d="M 0.0 768.0 L 1024.0 768.0 L 1024.0 0.0 L 0.0 0.0 Z M 0.0 768.0 "></path></clipPath><g clip-path="url(#clip-0)"><image xlink:href="50163466EC2834942505D00A94D158E6.jpeg" width="1024.00" height="768.00" transform="matrix(1.00, 0.00, -0.00, -1.00, 0.0, 768.0)"></image></g></g><g opacity="0.30"><g><clipPath id="clip-1"><path d="M 39.0 247.0 L 986.0 247.0 L 986.0 251.0 L 39.0 251.0 Z M 39.0 247.0 "></path></clipPath><g clip-path="url(#clip-1)"><path d="M 0.0 0.0 L 944.8 0.0 " fill="none" stroke="#434343" stroke-width="1.00" transform="matrix(1.00, 0.00, 0.00, -1.00, 40.0, 249.0)"></path></g></g></g><g opacity="0.30"><g><clipPath id="clip-2"><path d="M 39.0 444.0 L 986.0 444.0 L 986.0 448.0 L 39.0 448.0 Z M 39.0 444.0 "></path></clipPath><g clip-path="url(#clip-2)"><path d="M 0.0 0.0 L 944.9 0.0 " fill="none" stroke="#434343" stroke-width="1.00" transform="matrix(1.00, 0.00, 0.00, -1.00, 40.0, 446.0)"></path></g></g></g><g opacity="0.30"><g><clipPath id="clip-3"><path d="M 627.0 281.0 L 631.0 281.0 L 631.0 413.0 L 627.0 413.0 Z M 627.0 281.0 "></path></clipPath><g clip-path="url(#clip-3)"><path d="M 0.0 0.0 L 129.4 0.0 " fill="none" stroke="#434343" stroke-width="1.00" transform="matrix(0.00, 1.00, 1.00, 0.00, 629.5, 282.3)"></path></g></g></g><text xml:space="preserve" font-family="Palatino-Italic" font-style="italic" font-size="24.0" fill="#414040" transform="matrix(1.00, 0.00, -0.00, -1.00, 44.0, 463.0)">D</text><text xml:space="preserve" font-family="Palatino-Italic" font-style="italic" font-size="24.0" fill="#414040" transform="matrix(1.00, 0.00, -0.00, -1.00, 62.7, 463.0)">i</text><text xml:space="preserve" font-family="Palatino-Italic" font-style="italic" font-size="24.0" fill="#414040" transform="matrix(1.00, 0.00, -0.00, -1.00, 69.3, 463.0)">p</text><text xml:space="preserve" font-family="Palatino-Italic" font-style="italic" font-size="24.0" fill="#414040" transform="matrix(1.00, 0.00, -0.00, -1.00, 81.3, 463.0)">l</text><text xml:space="preserve" font-family="Palatino-Italic" font-style="italic" font-size="24.0" fill="#414040" transform="matrix(1.00, 0.00, -0.00, -1.00, 88.0, 463.0)">o</text><text xml:space="preserve" font-family="Palatino-Italic" font-style="italic" font-size="24.0" fill="#414040" transform="matrix(1.00, 0.00, -0.00, -1.00, 98.6, 463.0)">m</text><text xml:space="preserve" font-family="Palatino-Italic" font-style="italic" font-size="24.0" fill="#414040" transform="matrix(1.00, 0.00, -0.00, -1.00, 117.3, 463.0)">a</text><text xml:space="preserve" font-family="Palatino-Italic" font-style="italic" font-size="24.0" fill="#414040" transform="matrix(1.00, 0.00, -0.00, -1.00, 127.9, 463.0)"> </text><text xml:space="preserve" font-family="Palatino-Italic" font-style="italic" font-size="24.0" fill="#414040" transform="matrix(1.00, 0.00, -0.00, -1.00, 133.9, 463.0)">S</text><text xml:space="preserve" font-family="Palatino-Italic" font-style="italic" font-size="24.0" fill="#414040" transform="matrix(1.00, 0.00, -0.00, -1.00, 147.3, 463.0)">e</text><text xml:space="preserve" font-family="Palatino-Italic" font-style="italic" font-size="24.0" fill="#414040" transform="matrix(1.00, 0.00, -0.00, -1.00, 156.6, 463.0)">m</text><text xml:space="preserve" font-family="Palatino-Italic" font-style="italic" font-size="24.0" fill="#414040" transform="matrix(1.00, 0.00, -0.00, -1.00, 175.3, 463.0)">i</text><text xml:space="preserve" font-family="Palatino-Italic" font-style="italic" font-size="24.0" fill="#414040" transform="matrix(1.00, 0.00, -0.00, -1.00, 182.0, 463.0)">n</text><text xml:space="preserve" font-family="Palatino-Italic" font-style="italic" font-size="24.0" fill="#414040" transform="matrix(1.00, 0.00, -0.00, -1.00, 195.3, 463.0)">a</text><text xml:space="preserve" font-family="Palatino-Italic" font-style="italic" font-size="24.0" fill="#414040" transform="matrix(1.00, 0.00, -0.00, -1.00, 206.0, 463.0)">r</text><text xml:space="preserve" font-family="BodoniSvtyTwoITCTT-Book" font-size="70.0" fill="#D93D2A" transform="matrix(1.00, 0.00, -0.00, -1.00, 44.0, 362.0)">M</text><text xml:space="preserve" font-family="BodoniSvtyTwoITCTT-Book" font-size="70.0" fill="#D93D2A" transform="matrix(1.00, 0.00, -0.00, -1.00, 96.9, 362.0)">a</text><text xml:space="preserve" font-family="BodoniSvtyTwoITCTT-Book" font-size="70.0" fill="#D93D2A" transform="matrix(1.00, 0.00, -0.00, -1.00, 124.6, 362.0)">s</text><text xml:space="preserve" font-family="BodoniSvtyTwoITCTT-Book" font-size="70.0" fill="#D93D2A" transform="matrix(1.00, 0.00, -0.00, -1.00, 150.0, 362.0)">t</text><text xml:space="preserve" font-family="BodoniSvtyTwoITCTT-Book" font-size="70.0" fill="#D93D2A" transform="matrix(1.00, 0.00, -0.00, -1.00, 169.9, 362.0)">e</text><text xml:space="preserve" font-family="BodoniSvtyTwoITCTT-Book" font-size="70.0" fill="#D93D2A" transform="matrix(1.00, 0.00, -0.00, -1.00, 200.0, 362.0)">r</text><text xml:space="preserve" font-family="BodoniSvtyTwoITCTT-Book" font-size="70.0" fill="#D93D2A" transform="matrix(1.00, 0.00, -0.00, -1.00, 223.6, 362.0)"> </text><text xml:space="preserve" font-family="BodoniSvtyTwoITCTT-Book" font-size="70.0" fill="#D93D2A" transform="matrix(1.00, 0.00, -0.00, -1.00, 236.6, 362.0)">T</text><text xml:space="preserve" font-family="BodoniSvtyTwoITCTT-Book" font-size="70.0" fill="#D93D2A" transform="matrix(1.00, 0.00, -0.00, -1.00, 277.7, 362.0)">h</text><text xml:space="preserve" font-family="BodoniSvtyTwoITCTT-Book" font-size="70.0" fill="#D93D2A" transform="matrix(1.00, 0.00, -0.00, -1.00, 311.1, 362.0)">e</text><text xml:space="preserve" font-family="BodoniSvtyTwoITCTT-Book" font-size="70.0" fill="#D93D2A" transform="matrix(1.00, 0.00, -0.00, -1.00, 341.2, 362.0)">s</text><text xml:space="preserve" font-family="BodoniSvtyTwoITCTT-Book" font-size="70.0" fill="#D93D2A" transform="matrix(1.00, 0.00, -0.00, -1.00, 366.5, 362.0)">i</text><text xml:space="preserve" font-family="BodoniSvtyTwoITCTT-Book" font-size="70.0" fill="#D93D2A" transform="matrix(1.00, 0.00, -0.00, -1.00, 384.1, 362.0)">s</text><text xml:space="preserve" font-family="BodoniSvtyTwoITCTT-Book" font-size="70.0" fill="#D93D2A" transform="matrix(1.00, 0.00, -0.00, -1.00, 409.4, 362.0)">:</text><text xml:space="preserve" font-family="LucidaGrande" font-size="70.0" fill="#D93D2A" transform="matrix(1.00, 0.00, -0.00, -1.00, 427.5, 362.0)"> </text><text xml:space="preserve" font-family="BodoniSvtyTwoITCTT-Book" font-size="70.0" fill="#D93D2A" transform="matrix(1.00, 0.00, -0.00, -1.00, 44.0, 285.0)">S</text><text xml:space="preserve" font-family="BodoniSvtyTwoITCTT-Book" font-size="70.0" fill="#D93D2A" transform="matrix(1.00, 0.00, -0.00, -1.00, 78.9, 285.0)">p</text><text xml:space="preserve" font-family="BodoniSvtyTwoITCTT-Book" font-size="70.0" fill="#D93D2A" transform="matrix(1.00, 0.00, -0.00, -1.00, 113.1, 285.0)">r</text><text xml:space="preserve" font-family="BodoniSvtyTwoITCTT-Book" font-size="70.0" fill="#D93D2A" transform="matrix(1.00, 0.00, -0.00, -1.00, 136.8, 285.0)">i</text><text xml:space="preserve" font-family="BodoniSvtyTwoITCTT-Book" font-size="70.0" fill="#D93D2A" transform="matrix(1.00, 0.00, -0.00, -1.00, 154.3, 285.0)">n</text><text xml:space="preserve" font-family="BodoniSvtyTwoITCTT-Book" font-size="70.0" fill="#D93D2A" transform="matrix(1.00, 0.00, -0.00, -1.00, 188.6, 285.0)">t</text><text xml:space="preserve" font-family="BodoniSvtyTwoITCTT-Book" font-size="70.0" fill="#D93D2A" transform="matrix(1.00, 0.00, -0.00, -1.00, 208.4, 285.0)"> </text><text xml:space="preserve" font-family="BodoniSvtyTwoITCTT-Book" font-size="70.0" fill="#D93D2A" transform="matrix(1.00, 0.00, -0.00, -1.00, 221.5, 285.0)">2</text><text xml:space="preserve" font-family="BodoniSvtyTwoITCTT-Book" font-size="70.0" fill="#D93D2A" transform="matrix(1.00, 0.00, -0.00, -1.00, 258.8, 285.0)"> </text><text xml:space="preserve" font-family="BodoniSvtyTwoITCTT-Book" font-size="70.0" fill="#D93D2A" transform="matrix(1.00, 0.00, -0.00, -1.00, 271.8, 285.0)">S</text><text xml:space="preserve" font-family="BodoniSvtyTwoITCTT-Book" font-size="70.0" fill="#D93D2A" transform="matrix(1.00, 0.00, -0.00, -1.00, 306.6, 285.0)">u</text><text xml:space="preserve" font-family="BodoniSvtyTwoITCTT-Book" font-size="70.0" fill="#D93D2A" transform="matrix(1.00, 0.00, -0.00, -1.00, 340.9, 285.0)">m</text><text xml:space="preserve" font-family="BodoniSvtyTwoITCTT-Book" font-size="70.0" fill="#D93D2A" transform="matrix(1.00, 0.00, -0.00, -1.00, 390.2, 285.0)">m</text><text xml:space="preserve" font-family="BodoniSvtyTwoITCTT-Book" font-size="70.0" fill="#D93D2A" transform="matrix(1.00, 0.00, -0.00, -1.00, 439.4, 285.0)">a</text><text xml:space="preserve" font-family="BodoniSvtyTwoITCTT-Book" font-size="70.0" fill="#D93D2A" transform="matrix(1.00, 0.00, -0.00, -1.00, 467.2, 285.0)">r</text><text xml:space="preserve" font-family="BodoniSvtyTwoITCTT-Book" font-size="70.0" fill="#D93D2A" transform="matrix(1.00, 0.00, -0.00, -1.00, 490.8, 285.0)">y</text><text xml:space="preserve" font-family="Palatino-Roman" font-size="24.0" fill="#414040" transform="matrix(1.00, 0.00, -0.00, -1.00, 656.0, 338.0)">M</text><text xml:space="preserve" font-family="Palatino-Roman" font-size="24.0" fill="#414040" transform="matrix(1.00, 0.00, -0.00, -1.00, 678.7, 338.0)">a</text><text xml:space="preserve" font-family="Palatino-Roman" font-size="24.0" fill="#414040" transform="matrix(1.00, 0.00, -0.00, -1.00, 690.7, 338.0)">c</text><text xml:space="preserve" font-family="Palatino-Roman" font-size="24.0" fill="#414040" transform="matrix(1.00, 0.00, -0.00, -1.00, 701.3, 338.0)">i</text><text xml:space="preserve" font-family="Palatino-Roman" font-size="24.0" fill="#414040" transform="matrix(1.00, 0.00, -0.00, -1.00, 708.3, 338.0)">e</text><text xml:space="preserve" font-family="Palatino-Roman" font-size="24.0" fill="#414040" transform="matrix(1.00, 0.00, -0.00, -1.00, 719.8, 338.0)">j</text><text xml:space="preserve" font-family="Palatino-Roman" font-size="24.0" fill="#414040" transform="matrix(1.00, 0.00, -0.00, -1.00, 725.4, 338.0)"> </text><text xml:space="preserve" font-family="Palatino-Roman" font-size="24.0" fill="#414040" transform="matrix(1.00, 0.00, -0.00, -1.00, 731.4, 338.0)">K</text><text xml:space="preserve" font-family="Palatino-Roman" font-size="24.0" fill="#414040" transform="matrix(1.00, 0.00, -0.00, -1.00, 748.9, 338.0)">a</text><text xml:space="preserve" font-family="Palatino-Roman" font-size="24.0" fill="#414040" transform="matrix(1.00, 0.00, -0.00, -1.00, 760.9, 338.0)">s</text><text xml:space="preserve" font-family="Palatino-Roman" font-size="24.0" fill="#414040" transform="matrix(1.00, 0.00, -0.00, -1.00, 771.0, 338.0)">p</text><text xml:space="preserve" font-family="Palatino-Roman" font-size="24.0" fill="#414040" transform="matrix(1.00, 0.00, -0.00, -1.00, 785.5, 338.0)">r</text><text xml:space="preserve" font-family="Palatino-Roman" font-size="24.0" fill="#414040" transform="matrix(1.00, 0.00, -0.00, -1.00, 794.9, 338.0)">z</text><text xml:space="preserve" font-family="Palatino-Roman" font-size="24.0" fill="#414040" transform="matrix(1.00, 0.00, -0.00, -1.00, 806.9, 338.0)">y</text><text xml:space="preserve" font-family="Palatino-Roman" font-size="24.0" fill="#414040" transform="matrix(1.00, 0.00, -0.00, -1.00, 820.3, 338.0)">c</text><text xml:space="preserve" font-family="Palatino-Roman" font-size="24.0" fill="#414040" transform="matrix(1.00, 0.00, -0.00, -1.00, 830.9, 338.0)">k</text><text xml:space="preserve" font-family="Palatino-Roman" font-size="24.0" fill="#414040" transform="matrix(1.00, 0.00, -0.00, -1.00, 844.3, 338.0)">i</text></g></svg>