<?xml version="1.0" encoding="UTF-8" standalone="no"?><svg xmlns="http://www.w3.org/2000/svg" xmlns:xlink="http://www.w3.org/1999/xlink" clip-rule="evenodd" stroke-miterlimit="4.00" viewBox="0 0 1024 768"><desc>SVG generated by Keynote</desc><defs><pattern id="A3AEC36D-8744-4EA5-B3AA-414F214716B2" patternUnits="userSpaceOnUse" width="287" height="287" viewBox="0 0 287 287" patternTransform="matrix(1.010453, 0.000000, 0.000000, -1.010453, 32.549410, 360.949700)"><image xlink:href="B05A21738AC14BF7ABDAC9626AB62F61.png" width="287.00" height="287.00"></image></pattern></defs><g transform="matrix(1.00, 0.00, -0.00, -1.00, 0.0, 768.0)"><g><clipPath id="clip-96"><path d="M 0.0 768.0 L 1024.0 768.0 L 1024.0 0.0 L 0.0 0.0 Z M 0.0 768.0 "></path></clipPath><g clip-path="url(#clip-96)"><image xlink:href="../../7271B8B7-3FC1-4276-9B71-E31342A69E14/assets/50163466EC2834942505D00A94D158E6.jpeg" width="1024.00" height="768.00" transform="matrix(1.00, 0.00, -0.00, -1.00, 0.0, 768.0)"></image></g></g><g opacity="0.30"><g><clipPath id="clip-97"><path d="M 39.0 595.0 L 986.0 595.0 L 986.0 599.0 L 39.0 599.0 Z M 39.0 595.0 "></path></clipPath><g clip-path="url(#clip-97)"><path d="M 0.0 0.0 L 944.7 0.0 " fill="none" stroke="#434343" stroke-width="1.00" transform="matrix(1.00, 0.00, 0.00, -1.00, 40.0, 597.0)"></path></g></g></g><g opacity="0.30"><g><clipPath id="clip-98"><path d="M 39.0 716.0 L 986.0 716.0 L 986.0 720.0 L 39.0 720.0 Z M 39.0 716.0 "></path></clipPath><g clip-path="url(#clip-98)"><path d="M 0.0 0.0 L 944.7 0.0 " fill="none" stroke="#434343" stroke-width="1.00" transform="matrix(1.00, 0.00, 0.00, -1.00, 40.0, 718.0)"></path></g></g></g><g><clipPath id="clip-99"><path d="M 386.6 360.9 L 372.1 339.5 L 40.0 339.5 C 35.9 339.5 32.5 336.2 32.5 332.1 L 32.5 197.6 C 32.5 193.5 35.9 190.1 40.0 190.1 L 994.6 190.1 C 998.7 190.1 1002.1 193.5 1002.1 197.6 L 1002.1 332.1 C 1002.1 336.2 998.7 339.5 994.6 339.5 L 401.2 339.5 L 386.6 360.9 Z M 386.6 360.9 "></path></clipPath><g clip-path="url(#clip-99)"><path d="M 32.5 190.1 L 1002.1 190.1 L 1002.1 360.9 L 32.5 360.9 Z M 32.5 190.1 " fill="url(#A3AEC36D-8744-4EA5-B3AA-414F214716B2)"></path><path d="M 32.5 360.9 L 1002.1 360.9 L 1002.1 190.1 L 32.5 190.1 Z M 32.5 360.9 " fill="#2E81B1" fill-opacity="0.63"></path></g></g><text xml:space="preserve" font-family="BodoniSvtyTwoITCTT-Book" font-size="67.2" fill="#D93D2A" transform="matrix(1.00, 0.00, -0.00, -1.00, 48.0, 634.0)">D</text><text xml:space="preserve" font-family="BodoniSvtyTwoITCTT-Book" font-size="67.2" fill="#D93D2A" transform="matrix(1.00, 0.00, -0.00, -1.00, 96.1, 634.0)">e</text><text xml:space="preserve" font-family="BodoniSvtyTwoITCTT-Book" font-size="67.2" fill="#D93D2A" transform="matrix(1.00, 0.00, -0.00, -1.00, 125.0, 634.0)">v</text><text xml:space="preserve" font-family="BodoniSvtyTwoITCTT-Book" font-size="67.2" fill="#D93D2A" transform="matrix(1.00, 0.00, -0.00, -1.00, 150.8, 634.0)">O</text><text xml:space="preserve" font-family="BodoniSvtyTwoITCTT-Book" font-size="67.2" fill="#D93D2A" transform="matrix(1.00, 0.00, -0.00, -1.00, 199.2, 634.0)">p</text><text xml:space="preserve" font-family="BodoniSvtyTwoITCTT-Book" font-size="67.2" fill="#D93D2A" transform="matrix(1.00, 0.00, -0.00, -1.00, 232.1, 634.0)">s</text><text xml:space="preserve" font-family="BodoniSvtyTwoITCTT-Book" font-size="67.2" fill="#D93D2A" transform="matrix(1.00, 0.00, -0.00, -1.00, 256.4, 634.0)"> </text><text xml:space="preserve" font-family="BodoniSvtyTwoITCTT-Book" font-size="67.2" fill="#D93D2A" transform="matrix(1.00, 0.00, -0.00, -1.00, 268.9, 634.0)">-</text><text xml:space="preserve" font-family="BodoniSvtyTwoITCTT-Book" font-size="67.2" fill="#D93D2A" transform="matrix(1.00, 0.00, -0.00, -1.00, 289.4, 634.0)"> </text><text xml:space="preserve" font-family="BodoniSvtyTwoITCTT-Book" font-size="67.2" fill="#D93D2A" transform="matrix(1.00, 0.00, -0.00, -1.00, 301.9, 634.0)">j</text><text xml:space="preserve" font-family="BodoniSvtyTwoITCTT-Book" font-size="67.2" fill="#D93D2A" transform="matrix(1.00, 0.00, -0.00, -1.00, 317.8, 634.0)">e</text><text xml:space="preserve" font-family="BodoniSvtyTwoITCTT-Book" font-size="67.2" fill="#D93D2A" transform="matrix(1.00, 0.00, -0.00, -1.00, 346.7, 634.0)">d</text><text xml:space="preserve" font-family="BodoniSvtyTwoITCTT-Book" font-size="67.2" fill="#D93D2A" transform="matrix(1.00, 0.00, -0.00, -1.00, 378.7, 634.0)">n</text><text xml:space="preserve" font-family="BodoniSvtyTwoITCTT-Book" font-size="67.2" fill="#D93D2A" transform="matrix(1.00, 0.00, -0.00, -1.00, 411.6, 634.0)">o</text><text xml:space="preserve" font-family="BodoniSvtyTwoITCTT-Book" font-size="67.2" fill="#D93D2A" transform="matrix(1.00, 0.00, -0.00, -1.00, 443.8, 634.0)"> </text><text xml:space="preserve" font-family="BodoniSvtyTwoITCTT-Book" font-size="67.2" fill="#D93D2A" transform="matrix(1.00, 0.00, -0.00, -1.00, 456.3, 634.0)">s</text><text xml:space="preserve" font-family="BodoniSvtyTwoITCTT-Book" font-size="67.2" fill="#D93D2A" transform="matrix(1.00, 0.00, -0.00, -1.00, 480.6, 634.0)">ł</text><text xml:space="preserve" font-family="BodoniSvtyTwoITCTT-Book" font-size="67.2" fill="#D93D2A" transform="matrix(1.00, 0.00, -0.00, -1.00, 496.4, 634.0)">o</text><text xml:space="preserve" font-family="BodoniSvtyTwoITCTT-Book" font-size="67.2" fill="#D93D2A" transform="matrix(1.00, 0.00, -0.00, -1.00, 528.7, 634.0)">w</text><text xml:space="preserve" font-family="BodoniSvtyTwoITCTT-Book" font-size="67.2" fill="#D93D2A" transform="matrix(1.00, 0.00, -0.00, -1.00, 568.9, 634.0)">o</text><text xml:space="preserve" font-family="BodoniSvtyTwoITCTT-Book" font-size="67.2" fill="#D93D2A" transform="matrix(1.00, 0.00, -0.00, -1.00, 601.2, 634.0)">,</text><text xml:space="preserve" font-family="BodoniSvtyTwoITCTT-Book" font-size="67.2" fill="#D93D2A" transform="matrix(1.00, 0.00, -0.00, -1.00, 618.6, 634.0)"> </text><text xml:space="preserve" font-family="BodoniSvtyTwoITCTT-Book" font-size="67.2" fill="#D93D2A" transform="matrix(1.00, 0.00, -0.00, -1.00, 631.1, 634.0)">w</text><text xml:space="preserve" font-family="BodoniSvtyTwoITCTT-Book" font-size="67.2" fill="#D93D2A" transform="matrix(1.00, 0.00, -0.00, -1.00, 671.3, 634.0)">i</text><text xml:space="preserve" font-family="BodoniSvtyTwoITCTT-Book" font-size="67.2" fill="#D93D2A" transform="matrix(1.00, 0.00, -0.00, -1.00, 688.2, 634.0)">e</text><text xml:space="preserve" font-family="BodoniSvtyTwoITCTT-Book" font-size="67.2" fill="#D93D2A" transform="matrix(1.00, 0.00, -0.00, -1.00, 717.1, 634.0)">l</text><text xml:space="preserve" font-family="BodoniSvtyTwoITCTT-Book" font-size="67.2" fill="#D93D2A" transform="matrix(1.00, 0.00, -0.00, -1.00, 732.9, 634.0)">e</text><text xml:space="preserve" font-family="BodoniSvtyTwoITCTT-Book" font-size="67.2" fill="#D93D2A" transform="matrix(1.00, 0.00, -0.00, -1.00, 761.8, 634.0)"> </text><text xml:space="preserve" font-family="BodoniSvtyTwoITCTT-Book" font-size="67.2" fill="#D93D2A" transform="matrix(1.00, 0.00, -0.00, -1.00, 774.3, 634.0)">z</text><text xml:space="preserve" font-family="BodoniSvtyTwoITCTT-Book" font-size="67.2" fill="#D93D2A" transform="matrix(1.00, 0.00, -0.00, -1.00, 800.8, 634.0)">n</text><text xml:space="preserve" font-family="BodoniSvtyTwoITCTT-Book" font-size="67.2" fill="#D93D2A" transform="matrix(1.00, 0.00, -0.00, -1.00, 833.7, 634.0)">a</text><text xml:space="preserve" font-family="BodoniSvtyTwoITCTT-Book" font-size="67.2" fill="#D93D2A" transform="matrix(1.00, 0.00, -0.00, -1.00, 860.4, 634.0)">c</text><text xml:space="preserve" font-family="BodoniSvtyTwoITCTT-Book" font-size="67.2" fill="#D93D2A" transform="matrix(1.00, 0.00, -0.00, -1.00, 887.9, 634.0)">z</text><text xml:space="preserve" font-family="BodoniSvtyTwoITCTT-Book" font-size="67.2" fill="#D93D2A" transform="matrix(1.00, 0.00, -0.00, -1.00, 914.4, 634.0)">e</text><text xml:space="preserve" font-family="BodoniSvtyTwoITCTT-Book" font-size="67.2" fill="#D93D2A" transform="matrix(1.00, 0.00, -0.00, -1.00, 943.3, 634.0)">ń</text><image xlink:href="../../93A9A0D0-6DD6-4B36-9901-FDEDAC5FA056/assets/6268A03F3746D65B4583AC1C5C9BEBD4.jpeg" width="920.00" height="316.00" transform="matrix(0.72, 0.00, -0.00, -0.72, 52.0, 585.0)"></image><text xml:space="preserve" font-family="Palatino-Roman" font-size="16.0" fill="#414040" transform="matrix(1.00, 0.00, -0.00, -1.00, 864.0, 12.0)">ź</text><text xml:space="preserve" font-family="Palatino-Roman" font-size="16.0" fill="#414040" transform="matrix(1.00, 0.00, -0.00, -1.00, 872.0, 12.0)">r</text><text xml:space="preserve" font-family="Palatino-Roman" font-size="16.0" fill="#414040" transform="matrix(1.00, 0.00, -0.00, -1.00, 878.3, 12.0)">ó</text><text xml:space="preserve" font-family="Palatino-Roman" font-size="16.0" fill="#414040" transform="matrix(1.00, 0.00, -0.00, -1.00, 887.1, 12.0)">d</text><text xml:space="preserve" font-family="Palatino-Roman" font-size="16.0" fill="#414040" transform="matrix(1.00, 0.00, -0.00, -1.00, 896.8, 12.0)">ł</text><text xml:space="preserve" font-family="Palatino-Roman" font-size="16.0" fill="#414040" transform="matrix(1.00, 0.00, -0.00, -1.00, 901.5, 12.0)">o</text><text xml:space="preserve" font-family="Palatino-Roman" font-size="16.0" fill="#414040" transform="matrix(1.00, 0.00, -0.00, -1.00, 910.2, 12.0)">:</text><text xml:space="preserve" font-family="Palatino-Roman" font-size="16.0" fill="#414040" transform="matrix(1.00, 0.00, -0.00, -1.00, 914.2, 12.0)"> </text><text xml:space="preserve" font-family="Palatino-Roman" font-size="16.0" fill="#414040" transform="matrix(1.00, 0.00, -0.00, -1.00, 918.2, 12.0)">o</text><text xml:space="preserve" font-family="Palatino-Roman" font-size="16.0" fill="#414040" transform="matrix(1.00, 0.00, -0.00, -1.00, 926.9, 12.0)">p</text><text xml:space="preserve" font-family="Palatino-Roman" font-size="16.0" fill="#414040" transform="matrix(1.00, 0.00, -0.00, -1.00, 936.6, 12.0)">r</text><text xml:space="preserve" font-family="Palatino-Roman" font-size="16.0" fill="#414040" transform="matrix(1.00, 0.00, -0.00, -1.00, 942.9, 12.0)">a</text><text xml:space="preserve" font-family="Palatino-Roman" font-size="16.0" fill="#414040" transform="matrix(1.00, 0.00, -0.00, -1.00, 950.9, 12.0)">c</text><text xml:space="preserve" font-family="Palatino-Roman" font-size="16.0" fill="#414040" transform="matrix(1.00, 0.00, -0.00, -1.00, 958.0, 12.0)">.</text><text xml:space="preserve" font-family="Palatino-Roman" font-size="16.0" fill="#414040" transform="matrix(1.00, 0.00, -0.00, -1.00, 962.0, 12.0)"> </text><text xml:space="preserve" font-family="Palatino-Roman" font-size="16.0" fill="#414040" transform="matrix(1.00, 0.00, -0.00, -1.00, 966.0, 12.0)">w</text><text xml:space="preserve" font-family="Palatino-Roman" font-size="16.0" fill="#414040" transform="matrix(1.00, 0.00, -0.00, -1.00, 979.3, 12.0)">ł</text><text xml:space="preserve" font-family="Palatino-Roman" font-size="16.0" fill="#414040" transform="matrix(1.00, 0.00, -0.00, -1.00, 984.0, 12.0)">a</text><text xml:space="preserve" font-family="Palatino-Roman" font-size="16.0" fill="#414040" transform="matrix(1.00, 0.00, -0.00, -1.00, 992.0, 12.0)">s</text><text xml:space="preserve" font-family="Palatino-Roman" font-size="16.0" fill="#414040" transform="matrix(1.00, 0.00, -0.00, -1.00, 998.8, 12.0)">n</text><text xml:space="preserve" font-family="Palatino-Roman" font-size="16.0" fill="#414040" transform="matrix(1.00, 0.00, -0.00, -1.00, 1008.1, 12.0)">e</text><image xlink:href="../../94DE5723-AE28-42FE-8D14-2E20CACDFCB7/assets/20D079FCA47675C35AF837920F1F91A9.jpeg" width="929.00" height="129.00" transform="matrix(1.00, 0.00, -0.00, -1.00, 48.0, 332.0)"></image><text xml:space="preserve" font-family="Palatino-Bold" font-weight="bold" font-size="147.0" fill="#FF2600" transform="matrix(1.00, 0.00, -0.00, -1.00, 462.0, 56.0)">?</text></g></svg>