<?xml version="1.0" encoding="UTF-8" standalone="no"?><svg xmlns="http://www.w3.org/2000/svg" xmlns:xlink="http://www.w3.org/1999/xlink" clip-rule="evenodd" stroke-miterlimit="4.00" viewBox="0 0 1024 768"><desc>SVG generated by Keynote</desc><defs></defs><g transform="matrix(1.00, 0.00, -0.00, -1.00, 0.0, 768.0)"><g><clipPath id="clip-39"><path d="M 0.0 768.0 L 1024.0 768.0 L 1024.0 0.0 L 0.0 0.0 Z M 0.0 768.0 "></path></clipPath><g clip-path="url(#clip-39)"><image xlink:href="../../7271B8B7-3FC1-4276-9B71-E31342A69E14/assets/50163466EC2834942505D00A94D158E6.jpeg" width="1024.00" height="768.00" transform="matrix(1.00, 0.00, -0.00, -1.00, 0.0, 768.0)"></image></g></g><g opacity="0.30"><g><clipPath id="clip-40"><path d="M 39.0 595.0 L 986.0 595.0 L 986.0 599.0 L 39.0 599.0 Z M 39.0 595.0 "></path></clipPath><g clip-path="url(#clip-40)"><path d="M 0.0 0.0 L 944.7 0.0 " fill="none" stroke="#434343" stroke-width="1.00" transform="matrix(1.00, 0.00, 0.00, -1.00, 40.0, 597.0)"></path></g></g></g><g opacity="0.30"><g><clipPath id="clip-41"><path d="M 39.0 716.0 L 986.0 716.0 L 986.0 720.0 L 39.0 720.0 Z M 39.0 716.0 "></path></clipPath><g clip-path="url(#clip-41)"><path d="M 0.0 0.0 L 944.7 0.0 " fill="none" stroke="#434343" stroke-width="1.00" transform="matrix(1.00, 0.00, 0.00, -1.00, 40.0, 718.0)"></path></g></g></g><text xml:space="preserve" font-family="BodoniSvtyTwoITCTT-Book" font-size="70.0" fill="#D93D2A" transform="matrix(1.00, 0.00, -0.00, -1.00, 73.0, 633.0)">S</text><text xml:space="preserve" font-family="BodoniSvtyTwoITCTT-Book" font-size="70.0" fill="#D93D2A" transform="matrix(1.00, 0.00, -0.00, -1.00, 107.9, 633.0)">i</text><text xml:space="preserve" font-family="BodoniSvtyTwoITCTT-Book" font-size="70.0" fill="#D93D2A" transform="matrix(1.00, 0.00, -0.00, -1.00, 125.4, 633.0)">l</text><text xml:space="preserve" font-family="BodoniSvtyTwoITCTT-Book" font-size="70.0" fill="#D93D2A" transform="matrix(1.00, 0.00, -0.00, -1.00, 141.9, 633.0)">o</text><text xml:space="preserve" font-family="BodoniSvtyTwoITCTT-Book" font-size="70.0" fill="#D93D2A" transform="matrix(1.00, 0.00, -0.00, -1.00, 175.5, 633.0)">s</text><text xml:space="preserve" font-family="BodoniSvtyTwoITCTT-Book" font-size="70.0" fill="#D93D2A" transform="matrix(1.00, 0.00, -0.00, -1.00, 200.8, 633.0)"> </text><text xml:space="preserve" font-family="BodoniSvtyTwoITCTT-Book" font-size="70.0" fill="#D93D2A" transform="matrix(1.00, 0.00, -0.00, -1.00, 213.8, 633.0)">-</text><text xml:space="preserve" font-family="BodoniSvtyTwoITCTT-Book" font-size="70.0" fill="#D93D2A" transform="matrix(1.00, 0.00, -0.00, -1.00, 235.2, 633.0)"> </text><text xml:space="preserve" font-family="BodoniSvtyTwoITCTT-Book" font-size="70.0" fill="#D93D2A" transform="matrix(1.00, 0.00, -0.00, -1.00, 248.2, 633.0)">j</text><text xml:space="preserve" font-family="BodoniSvtyTwoITCTT-Book" font-size="70.0" fill="#D93D2A" transform="matrix(1.00, 0.00, -0.00, -1.00, 264.8, 633.0)">e</text><text xml:space="preserve" font-family="BodoniSvtyTwoITCTT-Book" font-size="70.0" fill="#D93D2A" transform="matrix(1.00, 0.00, -0.00, -1.00, 294.9, 633.0)">d</text><text xml:space="preserve" font-family="BodoniSvtyTwoITCTT-Book" font-size="70.0" fill="#D93D2A" transform="matrix(1.00, 0.00, -0.00, -1.00, 328.2, 633.0)">n</text><text xml:space="preserve" font-family="BodoniSvtyTwoITCTT-Book" font-size="70.0" fill="#D93D2A" transform="matrix(1.00, 0.00, -0.00, -1.00, 362.5, 633.0)">o</text><text xml:space="preserve" font-family="BodoniSvtyTwoITCTT-Book" font-size="70.0" fill="#D93D2A" transform="matrix(1.00, 0.00, -0.00, -1.00, 396.1, 633.0)"> </text><text xml:space="preserve" font-family="BodoniSvtyTwoITCTT-Book" font-size="70.0" fill="#D93D2A" transform="matrix(1.00, 0.00, -0.00, -1.00, 409.1, 633.0)">s</text><text xml:space="preserve" font-family="BodoniSvtyTwoITCTT-Book" font-size="70.0" fill="#D93D2A" transform="matrix(1.00, 0.00, -0.00, -1.00, 434.4, 633.0)">ł</text><text xml:space="preserve" font-family="BodoniSvtyTwoITCTT-Book" font-size="70.0" fill="#D93D2A" transform="matrix(1.00, 0.00, -0.00, -1.00, 450.9, 633.0)">o</text><text xml:space="preserve" font-family="BodoniSvtyTwoITCTT-Book" font-size="70.0" fill="#D93D2A" transform="matrix(1.00, 0.00, -0.00, -1.00, 484.5, 633.0)">w</text><text xml:space="preserve" font-family="BodoniSvtyTwoITCTT-Book" font-size="70.0" fill="#D93D2A" transform="matrix(1.00, 0.00, -0.00, -1.00, 526.4, 633.0)">o</text><text xml:space="preserve" font-family="BodoniSvtyTwoITCTT-Book" font-size="70.0" fill="#D93D2A" transform="matrix(1.00, 0.00, -0.00, -1.00, 560.0, 633.0)">,</text><text xml:space="preserve" font-family="BodoniSvtyTwoITCTT-Book" font-size="70.0" fill="#D93D2A" transform="matrix(1.00, 0.00, -0.00, -1.00, 578.1, 633.0)"> </text><text xml:space="preserve" font-family="BodoniSvtyTwoITCTT-Book" font-size="70.0" fill="#D93D2A" transform="matrix(1.00, 0.00, -0.00, -1.00, 591.1, 633.0)">w</text><text xml:space="preserve" font-family="BodoniSvtyTwoITCTT-Book" font-size="70.0" fill="#D93D2A" transform="matrix(1.00, 0.00, -0.00, -1.00, 633.1, 633.0)">i</text><text xml:space="preserve" font-family="BodoniSvtyTwoITCTT-Book" font-size="70.0" fill="#D93D2A" transform="matrix(1.00, 0.00, -0.00, -1.00, 650.6, 633.0)">e</text><text xml:space="preserve" font-family="BodoniSvtyTwoITCTT-Book" font-size="70.0" fill="#D93D2A" transform="matrix(1.00, 0.00, -0.00, -1.00, 680.7, 633.0)">l</text><text xml:space="preserve" font-family="BodoniSvtyTwoITCTT-Book" font-size="70.0" fill="#D93D2A" transform="matrix(1.00, 0.00, -0.00, -1.00, 697.2, 633.0)">e</text><text xml:space="preserve" font-family="BodoniSvtyTwoITCTT-Book" font-size="70.0" fill="#D93D2A" transform="matrix(1.00, 0.00, -0.00, -1.00, 727.3, 633.0)"> </text><text xml:space="preserve" font-family="BodoniSvtyTwoITCTT-Book" font-size="70.0" fill="#D93D2A" transform="matrix(1.00, 0.00, -0.00, -1.00, 740.3, 633.0)">z</text><text xml:space="preserve" font-family="BodoniSvtyTwoITCTT-Book" font-size="70.0" fill="#D93D2A" transform="matrix(1.00, 0.00, -0.00, -1.00, 768.0, 633.0)">n</text><text xml:space="preserve" font-family="BodoniSvtyTwoITCTT-Book" font-size="70.0" fill="#D93D2A" transform="matrix(1.00, 0.00, -0.00, -1.00, 802.2, 633.0)">a</text><text xml:space="preserve" font-family="BodoniSvtyTwoITCTT-Book" font-size="70.0" fill="#D93D2A" transform="matrix(1.00, 0.00, -0.00, -1.00, 830.0, 633.0)">c</text><text xml:space="preserve" font-family="BodoniSvtyTwoITCTT-Book" font-size="70.0" fill="#D93D2A" transform="matrix(1.00, 0.00, -0.00, -1.00, 858.6, 633.0)">z</text><text xml:space="preserve" font-family="BodoniSvtyTwoITCTT-Book" font-size="70.0" fill="#D93D2A" transform="matrix(1.00, 0.00, -0.00, -1.00, 886.3, 633.0)">e</text><text xml:space="preserve" font-family="BodoniSvtyTwoITCTT-Book" font-size="70.0" fill="#D93D2A" transform="matrix(1.00, 0.00, -0.00, -1.00, 916.4, 633.0)">ń</text><text xml:space="preserve" font-family="Palatino-Roman" font-size="36.0" fill="#414040" transform="matrix(1.00, 0.00, -0.00, -1.00, 44.0, 519.0)">1</text><text xml:space="preserve" font-family="Palatino-Roman" font-size="36.0" fill="#414040" transform="matrix(1.00, 0.00, -0.00, -1.00, 62.0, 519.0)">.</text><text xml:space="preserve" font-family="Palatino-Roman" font-size="36.0" fill="#414040" transform="matrix(1.00, 0.00, -0.00, -1.00, 96.0, 519.0)">S</text><text xml:space="preserve" font-family="Palatino-Roman" font-size="36.0" fill="#414040" transform="matrix(1.00, 0.00, -0.00, -1.00, 114.9, 519.0)">i</text><text xml:space="preserve" font-family="Palatino-Roman" font-size="36.0" fill="#414040" transform="matrix(1.00, 0.00, -0.00, -1.00, 125.4, 519.0)">l</text><text xml:space="preserve" font-family="Palatino-Roman" font-size="36.0" fill="#414040" transform="matrix(1.00, 0.00, -0.00, -1.00, 135.8, 519.0)">o</text><text xml:space="preserve" font-family="Palatino-Roman" font-size="36.0" fill="#414040" transform="matrix(1.00, 0.00, -0.00, -1.00, 155.5, 519.0)">s</text><text xml:space="preserve" font-family="Palatino-Roman" font-size="36.0" fill="#414040" transform="matrix(1.00, 0.00, -0.00, -1.00, 170.7, 519.0)"> </text><text xml:space="preserve" font-family="Palatino-Roman" font-size="36.0" fill="#414040" transform="matrix(1.00, 0.00, -0.00, -1.00, 179.7, 519.0)">w</text><text xml:space="preserve" font-family="Palatino-Roman" font-size="36.0" fill="#414040" transform="matrix(1.00, 0.00, -0.00, -1.00, 209.8, 519.0)">e</text><text xml:space="preserve" font-family="Palatino-Roman" font-size="36.0" fill="#414040" transform="matrix(1.00, 0.00, -0.00, -1.00, 227.0, 519.0)">w</text><text xml:space="preserve" font-family="Palatino-Roman" font-size="36.0" fill="#414040" transform="matrix(1.00, 0.00, -0.00, -1.00, 257.0, 519.0)">n</text><text xml:space="preserve" font-family="Palatino-Roman" font-size="36.0" fill="#414040" transform="matrix(1.00, 0.00, -0.00, -1.00, 278.0, 519.0)">ą</text><text xml:space="preserve" font-family="Palatino-Roman" font-size="36.0" fill="#414040" transform="matrix(1.00, 0.00, -0.00, -1.00, 296.0, 519.0)">t</text><text xml:space="preserve" font-family="Palatino-Roman" font-size="36.0" fill="#414040" transform="matrix(1.00, 0.00, -0.00, -1.00, 307.7, 519.0)">r</text><text xml:space="preserve" font-family="Palatino-Roman" font-size="36.0" fill="#414040" transform="matrix(1.00, 0.00, -0.00, -1.00, 322.0, 519.0)">z</text><text xml:space="preserve" font-family="Palatino-Roman" font-size="36.0" fill="#414040" transform="matrix(1.00, 0.00, -0.00, -1.00, 340.0, 519.0)"> </text><text xml:space="preserve" font-family="Palatino-Roman" font-size="36.0" fill="#414040" transform="matrix(1.00, 0.00, -0.00, -1.00, 349.0, 519.0)">z</text><text xml:space="preserve" font-family="Palatino-Roman" font-size="36.0" fill="#414040" transform="matrix(1.00, 0.00, -0.00, -1.00, 367.0, 519.0)">e</text><text xml:space="preserve" font-family="Palatino-Roman" font-size="36.0" fill="#414040" transform="matrix(1.00, 0.00, -0.00, -1.00, 384.2, 519.0)">s</text><text xml:space="preserve" font-family="Palatino-Roman" font-size="36.0" fill="#414040" transform="matrix(1.00, 0.00, -0.00, -1.00, 399.5, 519.0)">p</text><text xml:space="preserve" font-family="Palatino-Roman" font-size="36.0" fill="#414040" transform="matrix(1.00, 0.00, -0.00, -1.00, 421.1, 519.0)">o</text><text xml:space="preserve" font-family="Palatino-Roman" font-size="36.0" fill="#414040" transform="matrix(1.00, 0.00, -0.00, -1.00, 440.7, 519.0)">ł</text><text xml:space="preserve" font-family="Palatino-Roman" font-size="36.0" fill="#414040" transform="matrix(1.00, 0.00, -0.00, -1.00, 451.2, 519.0)">u</text><text xml:space="preserve" font-family="Palatino-Roman" font-size="36.0" fill="#414040" transform="matrix(1.00, 0.00, -0.00, -1.00, 44.0, 447.0)">2</text><text xml:space="preserve" font-family="Palatino-Roman" font-size="36.0" fill="#414040" transform="matrix(1.00, 0.00, -0.00, -1.00, 62.0, 447.0)">.</text><text xml:space="preserve" font-family="Palatino-Roman" font-size="36.0" fill="#414040" transform="matrix(1.00, 0.00, -0.00, -1.00, 96.0, 447.0)">S</text><text xml:space="preserve" font-family="Palatino-Roman" font-size="36.0" fill="#414040" transform="matrix(1.00, 0.00, -0.00, -1.00, 114.9, 447.0)">i</text><text xml:space="preserve" font-family="Palatino-Roman" font-size="36.0" fill="#414040" transform="matrix(1.00, 0.00, -0.00, -1.00, 125.4, 447.0)">l</text><text xml:space="preserve" font-family="Palatino-Roman" font-size="36.0" fill="#414040" transform="matrix(1.00, 0.00, -0.00, -1.00, 135.8, 447.0)">o</text><text xml:space="preserve" font-family="Palatino-Roman" font-size="36.0" fill="#414040" transform="matrix(1.00, 0.00, -0.00, -1.00, 155.5, 447.0)">s</text><text xml:space="preserve" font-family="Palatino-Roman" font-size="36.0" fill="#414040" transform="matrix(1.00, 0.00, -0.00, -1.00, 170.7, 447.0)"> </text><text xml:space="preserve" font-family="Palatino-Roman" font-size="36.0" fill="#414040" transform="matrix(1.00, 0.00, -0.00, -1.00, 179.7, 447.0)">m</text><text xml:space="preserve" font-family="Palatino-Roman" font-size="36.0" fill="#414040" transform="matrix(1.00, 0.00, -0.00, -1.00, 211.5, 447.0)">i</text><text xml:space="preserve" font-family="Palatino-Roman" font-size="36.0" fill="#414040" transform="matrix(1.00, 0.00, -0.00, -1.00, 222.0, 447.0)">ę</text><text xml:space="preserve" font-family="Palatino-Roman" font-size="36.0" fill="#414040" transform="matrix(1.00, 0.00, -0.00, -1.00, 239.2, 447.0)">d</text><text xml:space="preserve" font-family="Palatino-Roman" font-size="36.0" fill="#414040" transform="matrix(1.00, 0.00, -0.00, -1.00, 261.2, 447.0)">z</text><text xml:space="preserve" font-family="Palatino-Roman" font-size="36.0" fill="#414040" transform="matrix(1.00, 0.00, -0.00, -1.00, 279.2, 447.0)">y</text><text xml:space="preserve" font-family="Palatino-Roman" font-size="36.0" fill="#414040" transform="matrix(1.00, 0.00, -0.00, -1.00, 299.3, 447.0)"> </text><text xml:space="preserve" font-family="Palatino-Roman" font-size="36.0" fill="#414040" transform="matrix(1.00, 0.00, -0.00, -1.00, 308.3, 447.0)">z</text><text xml:space="preserve" font-family="Palatino-Roman" font-size="36.0" fill="#414040" transform="matrix(1.00, 0.00, -0.00, -1.00, 326.3, 447.0)">e</text><text xml:space="preserve" font-family="Palatino-Roman" font-size="36.0" fill="#414040" transform="matrix(1.00, 0.00, -0.00, -1.00, 343.5, 447.0)">s</text><text xml:space="preserve" font-family="Palatino-Roman" font-size="36.0" fill="#414040" transform="matrix(1.00, 0.00, -0.00, -1.00, 358.7, 447.0)">p</text><text xml:space="preserve" font-family="Palatino-Roman" font-size="36.0" fill="#414040" transform="matrix(1.00, 0.00, -0.00, -1.00, 380.4, 447.0)">o</text><text xml:space="preserve" font-family="Palatino-Roman" font-size="36.0" fill="#414040" transform="matrix(1.00, 0.00, -0.00, -1.00, 400.0, 447.0)">ł</text><text xml:space="preserve" font-family="Palatino-Roman" font-size="36.0" fill="#414040" transform="matrix(1.00, 0.00, -0.00, -1.00, 410.5, 447.0)">a</text><text xml:space="preserve" font-family="Palatino-Roman" font-size="36.0" fill="#414040" transform="matrix(1.00, 0.00, -0.00, -1.00, 428.5, 447.0)">m</text><text xml:space="preserve" font-family="Palatino-Roman" font-size="36.0" fill="#414040" transform="matrix(1.00, 0.00, -0.00, -1.00, 460.3, 447.0)">i</text><image xlink:href="../../DE16FA8B-AB3D-4320-9EC2-1E2F5E1AC16B/assets/10B53973BBA10370EAC6FF032503663B.jpeg" width="384.00" height="406.00" transform="matrix(1.26, 0.00, -0.00, -1.25, 502.0, 561.0)"></image><text xml:space="preserve" font-family="Palatino-Roman" font-size="16.0" fill="#414040" transform="matrix(1.00, 0.00, -0.00, -1.00, 864.0, 12.0)">ź</text><text xml:space="preserve" font-family="Palatino-Roman" font-size="16.0" fill="#414040" transform="matrix(1.00, 0.00, -0.00, -1.00, 872.0, 12.0)">r</text><text xml:space="preserve" font-family="Palatino-Roman" font-size="16.0" fill="#414040" transform="matrix(1.00, 0.00, -0.00, -1.00, 878.3, 12.0)">ó</text><text xml:space="preserve" font-family="Palatino-Roman" font-size="16.0" fill="#414040" transform="matrix(1.00, 0.00, -0.00, -1.00, 887.1, 12.0)">d</text><text xml:space="preserve" font-family="Palatino-Roman" font-size="16.0" fill="#414040" transform="matrix(1.00, 0.00, -0.00, -1.00, 896.8, 12.0)">ł</text><text xml:space="preserve" font-family="Palatino-Roman" font-size="16.0" fill="#414040" transform="matrix(1.00, 0.00, -0.00, -1.00, 901.5, 12.0)">o</text><text xml:space="preserve" font-family="Palatino-Roman" font-size="16.0" fill="#414040" transform="matrix(1.00, 0.00, -0.00, -1.00, 910.2, 12.0)">:</text><text xml:space="preserve" font-family="Palatino-Roman" font-size="16.0" fill="#414040" transform="matrix(1.00, 0.00, -0.00, -1.00, 914.2, 12.0)"> </text><text xml:space="preserve" font-family="Palatino-Roman" font-size="16.0" fill="#414040" transform="matrix(1.00, 0.00, -0.00, -1.00, 918.2, 12.0)">o</text><text xml:space="preserve" font-family="Palatino-Roman" font-size="16.0" fill="#414040" transform="matrix(1.00, 0.00, -0.00, -1.00, 926.9, 12.0)">p</text><text xml:space="preserve" font-family="Palatino-Roman" font-size="16.0" fill="#414040" transform="matrix(1.00, 0.00, -0.00, -1.00, 936.6, 12.0)">r</text><text xml:space="preserve" font-family="Palatino-Roman" font-size="16.0" fill="#414040" transform="matrix(1.00, 0.00, -0.00, -1.00, 942.9, 12.0)">a</text><text xml:space="preserve" font-family="Palatino-Roman" font-size="16.0" fill="#414040" transform="matrix(1.00, 0.00, -0.00, -1.00, 950.9, 12.0)">c</text><text xml:space="preserve" font-family="Palatino-Roman" font-size="16.0" fill="#414040" transform="matrix(1.00, 0.00, -0.00, -1.00, 958.0, 12.0)">.</text><text xml:space="preserve" font-family="Palatino-Roman" font-size="16.0" fill="#414040" transform="matrix(1.00, 0.00, -0.00, -1.00, 962.0, 12.0)"> </text><text xml:space="preserve" font-family="Palatino-Roman" font-size="16.0" fill="#414040" transform="matrix(1.00, 0.00, -0.00, -1.00, 966.0, 12.0)">w</text><text xml:space="preserve" font-family="Palatino-Roman" font-size="16.0" fill="#414040" transform="matrix(1.00, 0.00, -0.00, -1.00, 979.3, 12.0)">ł</text><text xml:space="preserve" font-family="Palatino-Roman" font-size="16.0" fill="#414040" transform="matrix(1.00, 0.00, -0.00, -1.00, 984.0, 12.0)">a</text><text xml:space="preserve" font-family="Palatino-Roman" font-size="16.0" fill="#414040" transform="matrix(1.00, 0.00, -0.00, -1.00, 992.0, 12.0)">s</text><text xml:space="preserve" font-family="Palatino-Roman" font-size="16.0" fill="#414040" transform="matrix(1.00, 0.00, -0.00, -1.00, 998.8, 12.0)">n</text><text xml:space="preserve" font-family="Palatino-Roman" font-size="16.0" fill="#414040" transform="matrix(1.00, 0.00, -0.00, -1.00, 1008.1, 12.0)">e</text></g></svg>