<?xml version="1.0" encoding="UTF-8" standalone="no"?><svg xmlns="http://www.w3.org/2000/svg" xmlns:xlink="http://www.w3.org/1999/xlink" clip-rule="evenodd" stroke-miterlimit="4.00" viewBox="0 0 1024 768"><desc>SVG generated by Keynote</desc><defs></defs><g transform="matrix(1.00, 0.00, -0.00, -1.00, 0.0, 768.0)"><g><clipPath id="clip-20"><path d="M 0.0 768.0 L 1024.0 768.0 L 1024.0 0.0 L 0.0 0.0 Z M 0.0 768.0 "></path></clipPath><g clip-path="url(#clip-20)"><image xlink:href="../../7271B8B7-3FC1-4276-9B71-E31342A69E14/assets/50163466EC2834942505D00A94D158E6.jpeg" width="1024.00" height="768.00" transform="matrix(1.00, 0.00, -0.00, -1.00, 0.0, 768.0)"></image></g></g><text xml:space="preserve" font-family="Palatino-Italic" font-style="italic" font-size="30.0" fill="#414040" transform="matrix(1.00, 0.00, -0.00, -1.00, 621.0, 262.0)">–</text><text xml:space="preserve" font-family="Palatino-Italic" font-style="italic" font-size="30.0" fill="#414040" transform="matrix(1.00, 0.00, -0.00, -1.00, 636.0, 262.0)"> </text><text xml:space="preserve" font-family="Palatino-Italic" font-style="italic" font-size="30.0" fill="#414040" transform="matrix(1.00, 0.00, -0.00, -1.00, 643.5, 262.0)">C</text><text xml:space="preserve" font-family="Palatino-Italic" font-style="italic" font-size="30.0" fill="#414040" transform="matrix(1.00, 0.00, -0.00, -1.00, 663.5, 262.0)">r</text><text xml:space="preserve" font-family="Palatino-Italic" font-style="italic" font-size="30.0" fill="#414040" transform="matrix(1.00, 0.00, -0.00, -1.00, 675.2, 262.0)">i</text><text xml:space="preserve" font-family="Palatino-Italic" font-style="italic" font-size="30.0" fill="#414040" transform="matrix(1.00, 0.00, -0.00, -1.00, 683.5, 262.0)">s</text><text xml:space="preserve" font-family="Palatino-Italic" font-style="italic" font-size="30.0" fill="#414040" transform="matrix(1.00, 0.00, -0.00, -1.00, 695.2, 262.0)">s</text><text xml:space="preserve" font-family="Palatino-Italic" font-style="italic" font-size="30.0" fill="#414040" transform="matrix(1.00, 0.00, -0.00, -1.00, 706.9, 262.0)"> </text><text xml:space="preserve" font-family="Palatino-Italic" font-style="italic" font-size="30.0" fill="#414040" transform="matrix(1.00, 0.00, -0.00, -1.00, 714.4, 262.0)">J</text><text xml:space="preserve" font-family="Palatino-Italic" font-style="italic" font-size="30.0" fill="#414040" transform="matrix(1.00, 0.00, -0.00, -1.00, 724.4, 262.0)">a</text><text xml:space="preserve" font-family="Palatino-Italic" font-style="italic" font-size="30.0" fill="#414040" transform="matrix(1.00, 0.00, -0.00, -1.00, 737.7, 262.0)">m</text><text xml:space="preserve" font-family="Palatino-Italic" font-style="italic" font-size="30.0" fill="#414040" transform="matrix(1.00, 0.00, -0.00, -1.00, 761.0, 262.0)">i</text><text xml:space="preserve" font-family="Palatino-Italic" font-style="italic" font-size="30.0" fill="#414040" transform="matrix(1.00, 0.00, -0.00, -1.00, 769.3, 262.0)">,</text><text xml:space="preserve" font-family="Palatino-Italic" font-style="italic" font-size="30.0" fill="#414040" transform="matrix(1.00, 0.00, -0.00, -1.00, 776.8, 262.0)"> </text><text xml:space="preserve" font-family="Palatino-Italic" font-style="italic" font-size="30.0" fill="#414040" transform="matrix(1.00, 0.00, -0.00, -1.00, 784.3, 262.0)">K</text><text xml:space="preserve" font-family="Palatino-Italic" font-style="italic" font-size="30.0" fill="#414040" transform="matrix(1.00, 0.00, -0.00, -1.00, 804.3, 262.0)">i</text><text xml:space="preserve" font-family="Palatino-Italic" font-style="italic" font-size="30.0" fill="#414040" transform="matrix(1.00, 0.00, -0.00, -1.00, 812.7, 262.0)">l</text><text xml:space="preserve" font-family="Palatino-Italic" font-style="italic" font-size="30.0" fill="#414040" transform="matrix(1.00, 0.00, -0.00, -1.00, 821.0, 262.0)">l</text><text xml:space="preserve" font-family="Palatino-Italic" font-style="italic" font-size="30.0" fill="#414040" transform="matrix(1.00, 0.00, -0.00, -1.00, 829.3, 262.0)">o</text><text xml:space="preserve" font-family="Palatino-Italic" font-style="italic" font-size="30.0" fill="#414040" transform="matrix(1.00, 0.00, -0.00, -1.00, 842.6, 262.0)">s</text><text xml:space="preserve" font-family="Palatino-Italic" font-style="italic" font-size="30.0" fill="#414040" transform="matrix(1.00, 0.00, -0.00, -1.00, 854.3, 262.0)">o</text><text xml:space="preserve" font-family="Palatino-Italic" font-style="italic" font-size="30.0" fill="#414040" transform="matrix(1.00, 0.00, -0.00, -1.00, 867.6, 262.0)">p</text><text xml:space="preserve" font-family="Palatino-Italic" font-style="italic" font-size="30.0" fill="#414040" transform="matrix(1.00, 0.00, -0.00, -1.00, 882.6, 262.0)">h</text><text xml:space="preserve" font-family="Palatino-Italic" font-style="italic" font-size="30.0" fill="#414040" transform="matrix(1.00, 0.00, -0.00, -1.00, 897.6, 262.0)">y</text><text xml:space="preserve" font-family="Palatino-Roman" font-size="36.0" fill="#414040" transform="matrix(1.00, 0.00, -0.00, -1.00, 170.0, 415.0)">„</text><text xml:space="preserve" font-family="Palatino-Roman" font-size="36.0" fill="#414040" transform="matrix(1.00, 0.00, -0.00, -1.00, 188.0, 415.0)">I</text><text xml:space="preserve" font-family="Palatino-Roman" font-size="36.0" fill="#414040" transform="matrix(1.00, 0.00, -0.00, -1.00, 200.1, 415.0)">t</text><text xml:space="preserve" font-family="Palatino-Roman" font-size="36.0" fill="#414040" transform="matrix(1.00, 0.00, -0.00, -1.00, 211.9, 415.0)">'</text><text xml:space="preserve" font-family="Palatino-Roman" font-size="36.0" fill="#414040" transform="matrix(1.00, 0.00, -0.00, -1.00, 219.4, 415.0)">s</text><text xml:space="preserve" font-family="Palatino-Roman" font-size="36.0" fill="#414040" transform="matrix(1.00, 0.00, -0.00, -1.00, 234.6, 415.0)"> </text><text xml:space="preserve" font-family="Palatino-Roman" font-size="36.0" fill="#414040" transform="matrix(1.00, 0.00, -0.00, -1.00, 243.6, 415.0)">n</text><text xml:space="preserve" font-family="Palatino-Roman" font-size="36.0" fill="#414040" transform="matrix(1.00, 0.00, -0.00, -1.00, 264.6, 415.0)">o</text><text xml:space="preserve" font-family="Palatino-Roman" font-size="36.0" fill="#414040" transform="matrix(1.00, 0.00, -0.00, -1.00, 284.2, 415.0)">t</text><text xml:space="preserve" font-family="Palatino-Roman" font-size="36.0" fill="#414040" transform="matrix(1.00, 0.00, -0.00, -1.00, 296.0, 415.0)"> </text><text xml:space="preserve" font-family="Palatino-Roman" font-size="36.0" fill="#414040" transform="matrix(1.00, 0.00, -0.00, -1.00, 305.0, 415.0)">a</text><text xml:space="preserve" font-family="Palatino-Roman" font-size="36.0" fill="#414040" transform="matrix(1.00, 0.00, -0.00, -1.00, 323.0, 415.0)">t</text><text xml:space="preserve" font-family="Palatino-Roman" font-size="36.0" fill="#414040" transform="matrix(1.00, 0.00, -0.00, -1.00, 334.7, 415.0)"> </text><text xml:space="preserve" font-family="Palatino-Roman" font-size="36.0" fill="#414040" transform="matrix(1.00, 0.00, -0.00, -1.00, 343.7, 415.0)">a</text><text xml:space="preserve" font-family="Palatino-Roman" font-size="36.0" fill="#414040" transform="matrix(1.00, 0.00, -0.00, -1.00, 361.7, 415.0)">l</text><text xml:space="preserve" font-family="Palatino-Roman" font-size="36.0" fill="#414040" transform="matrix(1.00, 0.00, -0.00, -1.00, 372.2, 415.0)">l</text><text xml:space="preserve" font-family="Palatino-Roman" font-size="36.0" fill="#414040" transform="matrix(1.00, 0.00, -0.00, -1.00, 382.7, 415.0)"> </text><text xml:space="preserve" font-family="Palatino-Roman" font-size="36.0" fill="#414040" transform="matrix(1.00, 0.00, -0.00, -1.00, 391.7, 415.0)">h</text><text xml:space="preserve" font-family="Palatino-Roman" font-size="36.0" fill="#414040" transform="matrix(1.00, 0.00, -0.00, -1.00, 412.6, 415.0)">a</text><text xml:space="preserve" font-family="Palatino-Roman" font-size="36.0" fill="#414040" transform="matrix(1.00, 0.00, -0.00, -1.00, 430.6, 415.0)">r</text><text xml:space="preserve" font-family="Palatino-Roman" font-size="36.0" fill="#414040" transform="matrix(1.00, 0.00, -0.00, -1.00, 444.2, 415.0)">d</text><text xml:space="preserve" font-family="Palatino-Roman" font-size="36.0" fill="#414040" transform="matrix(1.00, 0.00, -0.00, -1.00, 466.2, 415.0)"> </text><text xml:space="preserve" font-family="Palatino-Roman" font-size="36.0" fill="#414040" transform="matrix(1.00, 0.00, -0.00, -1.00, 475.2, 415.0)">t</text><text xml:space="preserve" font-family="Palatino-Roman" font-size="36.0" fill="#414040" transform="matrix(1.00, 0.00, -0.00, -1.00, 486.9, 415.0)">o</text><text xml:space="preserve" font-family="Palatino-Roman" font-size="36.0" fill="#414040" transform="matrix(1.00, 0.00, -0.00, -1.00, 506.6, 415.0)"> </text><text xml:space="preserve" font-family="Palatino-Roman" font-size="36.0" fill="#414040" transform="matrix(1.00, 0.00, -0.00, -1.00, 515.6, 415.0)">u</text><text xml:space="preserve" font-family="Palatino-Roman" font-size="36.0" fill="#414040" transform="matrix(1.00, 0.00, -0.00, -1.00, 537.3, 415.0)">n</text><text xml:space="preserve" font-family="Palatino-Roman" font-size="36.0" fill="#414040" transform="matrix(1.00, 0.00, -0.00, -1.00, 558.3, 415.0)">d</text><text xml:space="preserve" font-family="Palatino-Roman" font-size="36.0" fill="#414040" transform="matrix(1.00, 0.00, -0.00, -1.00, 580.2, 415.0)">e</text><text xml:space="preserve" font-family="Palatino-Roman" font-size="36.0" fill="#414040" transform="matrix(1.00, 0.00, -0.00, -1.00, 597.5, 415.0)">r</text><text xml:space="preserve" font-family="Palatino-Roman" font-size="36.0" fill="#414040" transform="matrix(1.00, 0.00, -0.00, -1.00, 611.7, 415.0)">s</text><text xml:space="preserve" font-family="Palatino-Roman" font-size="36.0" fill="#414040" transform="matrix(1.00, 0.00, -0.00, -1.00, 626.9, 415.0)">t</text><text xml:space="preserve" font-family="Palatino-Roman" font-size="36.0" fill="#414040" transform="matrix(1.00, 0.00, -0.00, -1.00, 638.7, 415.0)">a</text><text xml:space="preserve" font-family="Palatino-Roman" font-size="36.0" fill="#414040" transform="matrix(1.00, 0.00, -0.00, -1.00, 656.7, 415.0)">n</text><text xml:space="preserve" font-family="Palatino-Roman" font-size="36.0" fill="#414040" transform="matrix(1.00, 0.00, -0.00, -1.00, 677.7, 415.0)">d</text><text xml:space="preserve" font-family="Palatino-Roman" font-size="36.0" fill="#414040" transform="matrix(1.00, 0.00, -0.00, -1.00, 699.6, 415.0)"> </text><text xml:space="preserve" font-family="Palatino-Roman" font-size="36.0" fill="#414040" transform="matrix(1.00, 0.00, -0.00, -1.00, 708.6, 415.0)">a</text><text xml:space="preserve" font-family="Palatino-Roman" font-size="36.0" fill="#414040" transform="matrix(1.00, 0.00, -0.00, -1.00, 726.6, 415.0)"> </text><text xml:space="preserve" font-family="Palatino-Roman" font-size="36.0" fill="#414040" transform="matrix(1.00, 0.00, -0.00, -1.00, 735.6, 415.0)">p</text><text xml:space="preserve" font-family="Palatino-Roman" font-size="36.0" fill="#414040" transform="matrix(1.00, 0.00, -0.00, -1.00, 757.3, 415.0)">e</text><text xml:space="preserve" font-family="Palatino-Roman" font-size="36.0" fill="#414040" transform="matrix(1.00, 0.00, -0.00, -1.00, 774.5, 415.0)">r</text><text xml:space="preserve" font-family="Palatino-Roman" font-size="36.0" fill="#414040" transform="matrix(1.00, 0.00, -0.00, -1.00, 788.7, 415.0)">s</text><text xml:space="preserve" font-family="Palatino-Roman" font-size="36.0" fill="#414040" transform="matrix(1.00, 0.00, -0.00, -1.00, 804.0, 415.0)">o</text><text xml:space="preserve" font-family="Palatino-Roman" font-size="36.0" fill="#414040" transform="matrix(1.00, 0.00, -0.00, -1.00, 823.6, 415.0)">n</text><text xml:space="preserve" font-family="Palatino-Roman" font-size="36.0" fill="#414040" transform="matrix(1.00, 0.00, -0.00, -1.00, 844.6, 415.0)">;</text><text xml:space="preserve" font-family="Palatino-Roman" font-size="36.0" fill="#414040" transform="matrix(1.00, 0.00, -0.00, -1.00, 853.6, 415.0)"> </text><text xml:space="preserve" font-family="Palatino-Roman" font-size="36.0" fill="#525252" transform="matrix(1.00, 0.00, -0.00, -1.00, 170.0, 367.0)">i</text><text xml:space="preserve" font-family="Palatino-Roman" font-size="36.0" fill="#525252" transform="matrix(1.00, 0.00, -0.00, -1.00, 180.5, 367.0)">t</text><text xml:space="preserve" font-family="Palatino-Roman" font-size="36.0" fill="#525252" transform="matrix(1.00, 0.00, -0.00, -1.00, 192.2, 367.0)">'</text><text xml:space="preserve" font-family="Palatino-Roman" font-size="36.0" fill="#525252" transform="matrix(1.00, 0.00, -0.00, -1.00, 199.7, 367.0)">s</text><text xml:space="preserve" font-family="Palatino-Roman" font-size="36.0" fill="#525252" transform="matrix(1.00, 0.00, -0.00, -1.00, 215.0, 367.0)"> </text><text xml:space="preserve" font-family="Palatino-Roman" font-size="36.0" fill="#525252" transform="matrix(1.00, 0.00, -0.00, -1.00, 224.0, 367.0)">o</text><text xml:space="preserve" font-family="Palatino-Roman" font-size="36.0" fill="#525252" transform="matrix(1.00, 0.00, -0.00, -1.00, 243.6, 367.0)">n</text><text xml:space="preserve" font-family="Palatino-Roman" font-size="36.0" fill="#525252" transform="matrix(1.00, 0.00, -0.00, -1.00, 264.6, 367.0)">l</text><text xml:space="preserve" font-family="Palatino-Roman" font-size="36.0" fill="#525252" transform="matrix(1.00, 0.00, -0.00, -1.00, 275.0, 367.0)">y</text><text xml:space="preserve" font-family="Palatino-Roman" font-size="36.0" fill="#525252" transform="matrix(1.00, 0.00, -0.00, -1.00, 295.1, 367.0)"> </text><text xml:space="preserve" font-family="Palatino-Roman" font-size="36.0" fill="#525252" transform="matrix(1.00, 0.00, -0.00, -1.00, 304.1, 367.0)">h</text><text xml:space="preserve" font-family="Palatino-Roman" font-size="36.0" fill="#525252" transform="matrix(1.00, 0.00, -0.00, -1.00, 325.0, 367.0)">a</text><text xml:space="preserve" font-family="Palatino-Roman" font-size="36.0" fill="#525252" transform="matrix(1.00, 0.00, -0.00, -1.00, 343.0, 367.0)">r</text><text xml:space="preserve" font-family="Palatino-Roman" font-size="36.0" fill="#525252" transform="matrix(1.00, 0.00, -0.00, -1.00, 356.6, 367.0)">d</text><text xml:space="preserve" font-family="Palatino-Roman" font-size="36.0" fill="#525252" transform="matrix(1.00, 0.00, -0.00, -1.00, 378.6, 367.0)"> </text><text xml:space="preserve" font-family="Palatino-Roman" font-size="36.0" fill="#525252" transform="matrix(1.00, 0.00, -0.00, -1.00, 387.6, 367.0)">t</text><text xml:space="preserve" font-family="Palatino-Roman" font-size="36.0" fill="#525252" transform="matrix(1.00, 0.00, -0.00, -1.00, 399.3, 367.0)">o</text><text xml:space="preserve" font-family="Palatino-Roman" font-size="36.0" fill="#525252" transform="matrix(1.00, 0.00, -0.00, -1.00, 419.0, 367.0)"> </text><text xml:space="preserve" font-family="Palatino-Roman" font-size="36.0" fill="#525252" transform="matrix(1.00, 0.00, -0.00, -1.00, 428.0, 367.0)">l</text><text xml:space="preserve" font-family="Palatino-Roman" font-size="36.0" fill="#525252" transform="matrix(1.00, 0.00, -0.00, -1.00, 438.5, 367.0)">i</text><text xml:space="preserve" font-family="Palatino-Roman" font-size="36.0" fill="#525252" transform="matrix(1.00, 0.00, -0.00, -1.00, 448.9, 367.0)">s</text><text xml:space="preserve" font-family="Palatino-Roman" font-size="36.0" fill="#525252" transform="matrix(1.00, 0.00, -0.00, -1.00, 464.2, 367.0)">t</text><text xml:space="preserve" font-family="Palatino-Roman" font-size="36.0" fill="#525252" transform="matrix(1.00, 0.00, -0.00, -1.00, 475.9, 367.0)">e</text><text xml:space="preserve" font-family="Palatino-Roman" font-size="36.0" fill="#525252" transform="matrix(1.00, 0.00, -0.00, -1.00, 493.2, 367.0)">n</text><text xml:space="preserve" font-family="Palatino-Roman" font-size="36.0" fill="#525252" transform="matrix(1.00, 0.00, -0.00, -1.00, 514.1, 367.0)"> </text><text xml:space="preserve" font-family="Palatino-Roman" font-size="36.0" fill="#525252" transform="matrix(1.00, 0.00, -0.00, -1.00, 523.1, 367.0)">w</text><text xml:space="preserve" font-family="Palatino-Roman" font-size="36.0" fill="#525252" transform="matrix(1.00, 0.00, -0.00, -1.00, 553.2, 367.0)">i</text><text xml:space="preserve" font-family="Palatino-Roman" font-size="36.0" fill="#525252" transform="matrix(1.00, 0.00, -0.00, -1.00, 563.6, 367.0)">t</text><text xml:space="preserve" font-family="Palatino-Roman" font-size="36.0" fill="#525252" transform="matrix(1.00, 0.00, -0.00, -1.00, 575.4, 367.0)">h</text><text xml:space="preserve" font-family="Palatino-Roman" font-size="36.0" fill="#525252" transform="matrix(1.00, 0.00, -0.00, -1.00, 596.3, 367.0)">o</text><text xml:space="preserve" font-family="Palatino-Roman" font-size="36.0" fill="#525252" transform="matrix(1.00, 0.00, -0.00, -1.00, 616.0, 367.0)">u</text><text xml:space="preserve" font-family="Palatino-Roman" font-size="36.0" fill="#525252" transform="matrix(1.00, 0.00, -0.00, -1.00, 637.7, 367.0)">t</text><text xml:space="preserve" font-family="Palatino-Roman" font-size="36.0" fill="#525252" transform="matrix(1.00, 0.00, -0.00, -1.00, 649.5, 367.0)"> </text><text xml:space="preserve" font-family="Palatino-Roman" font-size="36.0" fill="#525252" transform="matrix(1.00, 0.00, -0.00, -1.00, 658.5, 367.0)">b</text><text xml:space="preserve" font-family="Palatino-Roman" font-size="36.0" fill="#525252" transform="matrix(1.00, 0.00, -0.00, -1.00, 678.4, 367.0)">i</text><text xml:space="preserve" font-family="Palatino-Roman" font-size="36.0" fill="#525252" transform="matrix(1.00, 0.00, -0.00, -1.00, 688.9, 367.0)">a</text><text xml:space="preserve" font-family="Palatino-Roman" font-size="36.0" fill="#525252" transform="matrix(1.00, 0.00, -0.00, -1.00, 706.9, 367.0)">s</text><text xml:space="preserve" font-family="Palatino-Roman" font-size="36.0" fill="#525252" transform="matrix(1.00, 0.00, -0.00, -1.00, 722.1, 367.0)">.</text><text xml:space="preserve" font-family="Palatino-Roman" font-size="36.0" fill="#525252" transform="matrix(1.00, 0.00, -0.00, -1.00, 731.1, 367.0)">”</text><text xml:space="preserve" font-family="Palatino-Roman" font-size="36.0" fill="#525252" transform="matrix(1.00, 0.00, -0.00, -1.00, 749.1, 367.0)"> </text></g></svg>