<?xml version="1.0" encoding="UTF-8" standalone="no"?><svg xmlns="http://www.w3.org/2000/svg" xmlns:xlink="http://www.w3.org/1999/xlink" clip-rule="evenodd" stroke-miterlimit="4.00" viewBox="0 0 1024 768"><desc>SVG generated by Keynote</desc><defs></defs><g transform="matrix(1.00, 0.00, -0.00, -1.00, 0.0, 768.0)"><g><clipPath id="clip-134"><path d="M 0.0 768.0 L 1024.0 768.0 L 1024.0 0.0 L 0.0 0.0 Z M 0.0 768.0 "></path></clipPath><g clip-path="url(#clip-134)"><image xlink:href="../../7271B8B7-3FC1-4276-9B71-E31342A69E14/assets/50163466EC2834942505D00A94D158E6.jpeg" width="1024.00" height="768.00" transform="matrix(1.00, 0.00, -0.00, -1.00, 0.0, 768.0)"></image></g></g><g opacity="0.30"><g><clipPath id="clip-135"><path d="M 39.0 595.0 L 986.0 595.0 L 986.0 599.0 L 39.0 599.0 Z M 39.0 595.0 "></path></clipPath><g clip-path="url(#clip-135)"><path d="M 0.0 0.0 L 944.7 0.0 " fill="none" stroke="#434343" stroke-width="1.00" transform="matrix(1.00, 0.00, 0.00, -1.00, 40.0, 597.0)"></path></g></g></g><g opacity="0.30"><g><clipPath id="clip-136"><path d="M 39.0 716.0 L 986.0 716.0 L 986.0 720.0 L 39.0 720.0 Z M 39.0 716.0 "></path></clipPath><g clip-path="url(#clip-136)"><path d="M 0.0 0.0 L 944.7 0.0 " fill="none" stroke="#434343" stroke-width="1.00" transform="matrix(1.00, 0.00, 0.00, -1.00, 40.0, 718.0)"></path></g></g></g><text xml:space="preserve" font-family="BodoniSvtyTwoITCTT-Book" font-size="70.0" fill="#D93D2A" transform="matrix(1.00, 0.00, -0.00, -1.00, 185.0, 633.0)">H</text><text xml:space="preserve" font-family="BodoniSvtyTwoITCTT-Book" font-size="70.0" fill="#D93D2A" transform="matrix(1.00, 0.00, -0.00, -1.00, 234.8, 633.0)">o</text><text xml:space="preserve" font-family="BodoniSvtyTwoITCTT-Book" font-size="70.0" fill="#D93D2A" transform="matrix(1.00, 0.00, -0.00, -1.00, 268.4, 633.0)">w</text><text xml:space="preserve" font-family="BodoniSvtyTwoITCTT-Book" font-size="70.0" fill="#D93D2A" transform="matrix(1.00, 0.00, -0.00, -1.00, 310.4, 633.0)"> </text><text xml:space="preserve" font-family="BodoniSvtyTwoITCTT-Book" font-size="70.0" fill="#D93D2A" transform="matrix(1.00, 0.00, -0.00, -1.00, 323.4, 633.0)">t</text><text xml:space="preserve" font-family="BodoniSvtyTwoITCTT-Book" font-size="70.0" fill="#D93D2A" transform="matrix(1.00, 0.00, -0.00, -1.00, 343.3, 633.0)">o</text><text xml:space="preserve" font-family="BodoniSvtyTwoITCTT-Book" font-size="70.0" fill="#D93D2A" transform="matrix(1.00, 0.00, -0.00, -1.00, 376.9, 633.0)"> </text><text xml:space="preserve" font-family="BodoniSvtyTwoITCTT-Book" font-size="70.0" fill="#D93D2A" transform="matrix(1.00, 0.00, -0.00, -1.00, 389.9, 633.0)">l</text><text xml:space="preserve" font-family="BodoniSvtyTwoITCTT-Book" font-size="70.0" fill="#D93D2A" transform="matrix(1.00, 0.00, -0.00, -1.00, 406.3, 633.0)">i</text><text xml:space="preserve" font-family="BodoniSvtyTwoITCTT-Book" font-size="70.0" fill="#D93D2A" transform="matrix(1.00, 0.00, -0.00, -1.00, 423.9, 633.0)">s</text><text xml:space="preserve" font-family="BodoniSvtyTwoITCTT-Book" font-size="70.0" fill="#D93D2A" transform="matrix(1.00, 0.00, -0.00, -1.00, 449.2, 633.0)">t</text><text xml:space="preserve" font-family="BodoniSvtyTwoITCTT-Book" font-size="70.0" fill="#D93D2A" transform="matrix(1.00, 0.00, -0.00, -1.00, 469.1, 633.0)">e</text><text xml:space="preserve" font-family="BodoniSvtyTwoITCTT-Book" font-size="70.0" fill="#D93D2A" transform="matrix(1.00, 0.00, -0.00, -1.00, 499.2, 633.0)">n</text><text xml:space="preserve" font-family="BodoniSvtyTwoITCTT-Book" font-size="70.0" fill="#D93D2A" transform="matrix(1.00, 0.00, -0.00, -1.00, 533.5, 633.0)"> </text><text xml:space="preserve" font-family="BodoniSvtyTwoITCTT-Book" font-size="70.0" fill="#D93D2A" transform="matrix(1.00, 0.00, -0.00, -1.00, 546.5, 633.0)">-</text><text xml:space="preserve" font-family="BodoniSvtyTwoITCTT-Book" font-size="70.0" fill="#D93D2A" transform="matrix(1.00, 0.00, -0.00, -1.00, 567.8, 633.0)"> </text><text xml:space="preserve" font-family="BodoniSvtyTwoITCTT-Book" font-size="70.0" fill="#D93D2A" transform="matrix(1.00, 0.00, -0.00, -1.00, 580.9, 633.0)">g</text><text xml:space="preserve" font-family="BodoniSvtyTwoITCTT-Book" font-size="70.0" fill="#D93D2A" transform="matrix(1.00, 0.00, -0.00, -1.00, 613.5, 633.0)">o</text><text xml:space="preserve" font-family="BodoniSvtyTwoITCTT-Book" font-size="70.0" fill="#D93D2A" transform="matrix(1.00, 0.00, -0.00, -1.00, 647.1, 633.0)">l</text><text xml:space="preserve" font-family="BodoniSvtyTwoITCTT-Book" font-size="70.0" fill="#D93D2A" transform="matrix(1.00, 0.00, -0.00, -1.00, 663.6, 633.0)">d</text><text xml:space="preserve" font-family="BodoniSvtyTwoITCTT-Book" font-size="70.0" fill="#D93D2A" transform="matrix(1.00, 0.00, -0.00, -1.00, 696.9, 633.0)"> </text><text xml:space="preserve" font-family="BodoniSvtyTwoITCTT-Book" font-size="70.0" fill="#D93D2A" transform="matrix(1.00, 0.00, -0.00, -1.00, 709.9, 633.0)">r</text><text xml:space="preserve" font-family="BodoniSvtyTwoITCTT-Book" font-size="70.0" fill="#D93D2A" transform="matrix(1.00, 0.00, -0.00, -1.00, 733.6, 633.0)">u</text><text xml:space="preserve" font-family="BodoniSvtyTwoITCTT-Book" font-size="70.0" fill="#D93D2A" transform="matrix(1.00, 0.00, -0.00, -1.00, 767.9, 633.0)">l</text><text xml:space="preserve" font-family="BodoniSvtyTwoITCTT-Book" font-size="70.0" fill="#D93D2A" transform="matrix(1.00, 0.00, -0.00, -1.00, 784.3, 633.0)">e</text><text xml:space="preserve" font-family="BodoniSvtyTwoITCTT-Book" font-size="70.0" fill="#D93D2A" transform="matrix(1.00, 0.00, -0.00, -1.00, 814.4, 633.0)">s</text><text xml:space="preserve" font-family="Palatino-Roman" font-size="36.0" fill="#414040" transform="matrix(1.00, 0.00, -0.00, -1.00, 44.0, 519.0)">1</text><text xml:space="preserve" font-family="Palatino-Roman" font-size="36.0" fill="#414040" transform="matrix(1.00, 0.00, -0.00, -1.00, 62.0, 519.0)">.</text><text xml:space="preserve" font-family="Palatino-Roman" font-size="36.0" fill="#414040" transform="matrix(1.00, 0.00, -0.00, -1.00, 96.0, 519.0)">C</text><text xml:space="preserve" font-family="Palatino-Roman" font-size="36.0" fill="#414040" transform="matrix(1.00, 0.00, -0.00, -1.00, 121.5, 519.0)">o</text><text xml:space="preserve" font-family="Palatino-Roman" font-size="36.0" fill="#414040" transform="matrix(1.00, 0.00, -0.00, -1.00, 141.2, 519.0)">n</text><text xml:space="preserve" font-family="Palatino-Roman" font-size="36.0" fill="#414040" transform="matrix(1.00, 0.00, -0.00, -1.00, 162.1, 519.0)">c</text><text xml:space="preserve" font-family="Palatino-Roman" font-size="36.0" fill="#414040" transform="matrix(1.00, 0.00, -0.00, -1.00, 178.1, 519.0)">e</text><text xml:space="preserve" font-family="Palatino-Roman" font-size="36.0" fill="#414040" transform="matrix(1.00, 0.00, -0.00, -1.00, 195.3, 519.0)">n</text><text xml:space="preserve" font-family="Palatino-Roman" font-size="36.0" fill="#414040" transform="matrix(1.00, 0.00, -0.00, -1.00, 216.3, 519.0)">t</text><text xml:space="preserve" font-family="Palatino-Roman" font-size="36.0" fill="#414040" transform="matrix(1.00, 0.00, -0.00, -1.00, 228.0, 519.0)">r</text><text xml:space="preserve" font-family="Palatino-Roman" font-size="36.0" fill="#414040" transform="matrix(1.00, 0.00, -0.00, -1.00, 242.3, 519.0)">a</text><text xml:space="preserve" font-family="Palatino-Roman" font-size="36.0" fill="#414040" transform="matrix(1.00, 0.00, -0.00, -1.00, 260.3, 519.0)">t</text><text xml:space="preserve" font-family="Palatino-Roman" font-size="36.0" fill="#414040" transform="matrix(1.00, 0.00, -0.00, -1.00, 272.0, 519.0)">e</text><text xml:space="preserve" font-family="Palatino-Roman" font-size="36.0" fill="#414040" transform="matrix(1.00, 0.00, -0.00, -1.00, 289.3, 519.0)"> </text><text xml:space="preserve" font-family="Palatino-Roman" font-size="36.0" fill="#414040" transform="matrix(1.00, 0.00, -0.00, -1.00, 298.3, 519.0)">o</text><text xml:space="preserve" font-family="Palatino-Roman" font-size="36.0" fill="#414040" transform="matrix(1.00, 0.00, -0.00, -1.00, 317.9, 519.0)">n</text><text xml:space="preserve" font-family="Palatino-Roman" font-size="36.0" fill="#414040" transform="matrix(1.00, 0.00, -0.00, -1.00, 338.9, 519.0)"> </text><text xml:space="preserve" font-family="Palatino-Roman" font-size="36.0" fill="#414040" transform="matrix(1.00, 0.00, -0.00, -1.00, 347.9, 519.0)">t</text><text xml:space="preserve" font-family="Palatino-Roman" font-size="36.0" fill="#414040" transform="matrix(1.00, 0.00, -0.00, -1.00, 359.6, 519.0)">h</text><text xml:space="preserve" font-family="Palatino-Roman" font-size="36.0" fill="#414040" transform="matrix(1.00, 0.00, -0.00, -1.00, 380.6, 519.0)">e</text><text xml:space="preserve" font-family="Palatino-Roman" font-size="36.0" fill="#414040" transform="matrix(1.00, 0.00, -0.00, -1.00, 397.8, 519.0)"> </text><text xml:space="preserve" font-family="Palatino-Roman" font-size="36.0" fill="#414040" transform="matrix(1.00, 0.00, -0.00, -1.00, 406.8, 519.0)">p</text><text xml:space="preserve" font-family="Palatino-Roman" font-size="36.0" fill="#414040" transform="matrix(1.00, 0.00, -0.00, -1.00, 428.4, 519.0)">e</text><text xml:space="preserve" font-family="Palatino-Roman" font-size="36.0" fill="#414040" transform="matrix(1.00, 0.00, -0.00, -1.00, 445.7, 519.0)">r</text><text xml:space="preserve" font-family="Palatino-Roman" font-size="36.0" fill="#414040" transform="matrix(1.00, 0.00, -0.00, -1.00, 459.9, 519.0)">s</text><text xml:space="preserve" font-family="Palatino-Roman" font-size="36.0" fill="#414040" transform="matrix(1.00, 0.00, -0.00, -1.00, 475.2, 519.0)">o</text><text xml:space="preserve" font-family="Palatino-Roman" font-size="36.0" fill="#414040" transform="matrix(1.00, 0.00, -0.00, -1.00, 494.8, 519.0)">n</text><text xml:space="preserve" font-family="Palatino-Roman" font-size="36.0" fill="#414040" transform="matrix(1.00, 0.00, -0.00, -1.00, 515.8, 519.0)"> </text><text xml:space="preserve" font-family="Palatino-Roman" font-size="36.0" fill="#414040" transform="matrix(1.00, 0.00, -0.00, -1.00, 524.8, 519.0)">s</text><text xml:space="preserve" font-family="Palatino-Roman" font-size="36.0" fill="#414040" transform="matrix(1.00, 0.00, -0.00, -1.00, 540.0, 519.0)">p</text><text xml:space="preserve" font-family="Palatino-Roman" font-size="36.0" fill="#414040" transform="matrix(1.00, 0.00, -0.00, -1.00, 561.7, 519.0)">e</text><text xml:space="preserve" font-family="Palatino-Roman" font-size="36.0" fill="#414040" transform="matrix(1.00, 0.00, -0.00, -1.00, 578.9, 519.0)">a</text><text xml:space="preserve" font-family="Palatino-Roman" font-size="36.0" fill="#414040" transform="matrix(1.00, 0.00, -0.00, -1.00, 596.9, 519.0)">k</text><text xml:space="preserve" font-family="Palatino-Roman" font-size="36.0" fill="#414040" transform="matrix(1.00, 0.00, -0.00, -1.00, 616.9, 519.0)">i</text><text xml:space="preserve" font-family="Palatino-Roman" font-size="36.0" fill="#414040" transform="matrix(1.00, 0.00, -0.00, -1.00, 627.4, 519.0)">n</text><text xml:space="preserve" font-family="Palatino-Roman" font-size="36.0" fill="#414040" transform="matrix(1.00, 0.00, -0.00, -1.00, 648.4, 519.0)">g</text><text xml:space="preserve" font-family="Palatino-Roman" font-size="36.0" fill="#414040" transform="matrix(1.00, 0.00, -0.00, -1.00, 668.4, 519.0)">.</text><text xml:space="preserve" font-family="Palatino-Roman" font-size="36.0" fill="#414040" transform="matrix(1.00, 0.00, -0.00, -1.00, 44.0, 447.0)">2</text><text xml:space="preserve" font-family="Palatino-Roman" font-size="36.0" fill="#414040" transform="matrix(1.00, 0.00, -0.00, -1.00, 62.0, 447.0)">.</text><text xml:space="preserve" font-family="Palatino-Roman" font-size="36.0" fill="#414040" transform="matrix(1.00, 0.00, -0.00, -1.00, 96.0, 447.0)">T</text><text xml:space="preserve" font-family="Palatino-Roman" font-size="36.0" fill="#414040" transform="matrix(1.00, 0.00, -0.00, -1.00, 114.8, 447.0)">r</text><text xml:space="preserve" font-family="Palatino-Roman" font-size="36.0" fill="#414040" transform="matrix(1.00, 0.00, -0.00, -1.00, 129.0, 447.0)">y</text><text xml:space="preserve" font-family="Palatino-Roman" font-size="36.0" fill="#414040" transform="matrix(1.00, 0.00, -0.00, -1.00, 149.1, 447.0)"> </text><text xml:space="preserve" font-family="Palatino-Roman" font-size="36.0" fill="#414040" transform="matrix(1.00, 0.00, -0.00, -1.00, 158.1, 447.0)">t</text><text xml:space="preserve" font-family="Palatino-Roman" font-size="36.0" fill="#414040" transform="matrix(1.00, 0.00, -0.00, -1.00, 169.8, 447.0)">o</text><text xml:space="preserve" font-family="Palatino-Roman" font-size="36.0" fill="#414040" transform="matrix(1.00, 0.00, -0.00, -1.00, 189.5, 447.0)"> </text><text xml:space="preserve" font-family="Palatino-Roman" font-size="36.0" fill="#414040" transform="matrix(1.00, 0.00, -0.00, -1.00, 198.5, 447.0)">g</text><text xml:space="preserve" font-family="Palatino-Roman" font-size="36.0" fill="#414040" transform="matrix(1.00, 0.00, -0.00, -1.00, 218.5, 447.0)">r</text><text xml:space="preserve" font-family="Palatino-Roman" font-size="36.0" fill="#414040" transform="matrix(1.00, 0.00, -0.00, -1.00, 232.7, 447.0)">a</text><text xml:space="preserve" font-family="Palatino-Roman" font-size="36.0" fill="#414040" transform="matrix(1.00, 0.00, -0.00, -1.00, 250.7, 447.0)">s</text><text xml:space="preserve" font-family="Palatino-Roman" font-size="36.0" fill="#414040" transform="matrix(1.00, 0.00, -0.00, -1.00, 266.0, 447.0)">p</text><text xml:space="preserve" font-family="Palatino-Roman" font-size="36.0" fill="#414040" transform="matrix(1.00, 0.00, -0.00, -1.00, 287.6, 447.0)"> </text><text xml:space="preserve" font-family="Palatino-Roman" font-size="36.0" fill="#414040" transform="matrix(1.00, 0.00, -0.00, -1.00, 296.6, 447.0)">w</text><text xml:space="preserve" font-family="Palatino-Roman" font-size="36.0" fill="#414040" transform="matrix(1.00, 0.00, -0.00, -1.00, 326.6, 447.0)">h</text><text xml:space="preserve" font-family="Palatino-Roman" font-size="36.0" fill="#414040" transform="matrix(1.00, 0.00, -0.00, -1.00, 347.6, 447.0)">a</text><text xml:space="preserve" font-family="Palatino-Roman" font-size="36.0" fill="#414040" transform="matrix(1.00, 0.00, -0.00, -1.00, 365.6, 447.0)">t</text><text xml:space="preserve" font-family="Palatino-Roman" font-size="36.0" fill="#414040" transform="matrix(1.00, 0.00, -0.00, -1.00, 377.3, 447.0)"> </text><text xml:space="preserve" font-family="Palatino-Roman" font-size="36.0" fill="#414040" transform="matrix(1.00, 0.00, -0.00, -1.00, 386.3, 447.0)">t</text><text xml:space="preserve" font-family="Palatino-Roman" font-size="36.0" fill="#414040" transform="matrix(1.00, 0.00, -0.00, -1.00, 398.1, 447.0)">h</text><text xml:space="preserve" font-family="Palatino-Roman" font-size="36.0" fill="#414040" transform="matrix(1.00, 0.00, -0.00, -1.00, 419.0, 447.0)">e</text><text xml:space="preserve" font-family="Palatino-Roman" font-size="36.0" fill="#414040" transform="matrix(1.00, 0.00, -0.00, -1.00, 436.3, 447.0)"> </text><text xml:space="preserve" font-family="Palatino-Roman" font-size="36.0" fill="#414040" transform="matrix(1.00, 0.00, -0.00, -1.00, 445.3, 447.0)">s</text><text xml:space="preserve" font-family="Palatino-Roman" font-size="36.0" fill="#414040" transform="matrix(1.00, 0.00, -0.00, -1.00, 460.5, 447.0)">p</text><text xml:space="preserve" font-family="Palatino-Roman" font-size="36.0" fill="#414040" transform="matrix(1.00, 0.00, -0.00, -1.00, 482.2, 447.0)">e</text><text xml:space="preserve" font-family="Palatino-Roman" font-size="36.0" fill="#414040" transform="matrix(1.00, 0.00, -0.00, -1.00, 499.4, 447.0)">a</text><text xml:space="preserve" font-family="Palatino-Roman" font-size="36.0" fill="#414040" transform="matrix(1.00, 0.00, -0.00, -1.00, 517.4, 447.0)">k</text><text xml:space="preserve" font-family="Palatino-Roman" font-size="36.0" fill="#414040" transform="matrix(1.00, 0.00, -0.00, -1.00, 537.4, 447.0)">e</text><text xml:space="preserve" font-family="Palatino-Roman" font-size="36.0" fill="#414040" transform="matrix(1.00, 0.00, -0.00, -1.00, 554.7, 447.0)">r</text><text xml:space="preserve" font-family="Palatino-Roman" font-size="36.0" fill="#414040" transform="matrix(1.00, 0.00, -0.00, -1.00, 568.9, 447.0)"> </text><text xml:space="preserve" font-family="Palatino-Roman" font-size="36.0" fill="#414040" transform="matrix(1.00, 0.00, -0.00, -1.00, 577.9, 447.0)">i</text><text xml:space="preserve" font-family="Palatino-Roman" font-size="36.0" fill="#414040" transform="matrix(1.00, 0.00, -0.00, -1.00, 588.4, 447.0)">s</text><text xml:space="preserve" font-family="Palatino-Roman" font-size="36.0" fill="#414040" transform="matrix(1.00, 0.00, -0.00, -1.00, 603.6, 447.0)"> </text><text xml:space="preserve" font-family="Palatino-Roman" font-size="36.0" fill="#414040" transform="matrix(1.00, 0.00, -0.00, -1.00, 612.6, 447.0)">t</text><text xml:space="preserve" font-family="Palatino-Roman" font-size="36.0" fill="#414040" transform="matrix(1.00, 0.00, -0.00, -1.00, 624.4, 447.0)">r</text><text xml:space="preserve" font-family="Palatino-Roman" font-size="36.0" fill="#414040" transform="matrix(1.00, 0.00, -0.00, -1.00, 638.6, 447.0)">y</text><text xml:space="preserve" font-family="Palatino-Roman" font-size="36.0" fill="#414040" transform="matrix(1.00, 0.00, -0.00, -1.00, 658.6, 447.0)">i</text><text xml:space="preserve" font-family="Palatino-Roman" font-size="36.0" fill="#414040" transform="matrix(1.00, 0.00, -0.00, -1.00, 669.1, 447.0)">n</text><text xml:space="preserve" font-family="Palatino-Roman" font-size="36.0" fill="#414040" transform="matrix(1.00, 0.00, -0.00, -1.00, 690.1, 447.0)">g</text><text xml:space="preserve" font-family="Palatino-Roman" font-size="36.0" fill="#414040" transform="matrix(1.00, 0.00, -0.00, -1.00, 710.1, 447.0)"> </text><text xml:space="preserve" font-family="Palatino-Roman" font-size="36.0" fill="#414040" transform="matrix(1.00, 0.00, -0.00, -1.00, 719.1, 447.0)">t</text><text xml:space="preserve" font-family="Palatino-Roman" font-size="36.0" fill="#414040" transform="matrix(1.00, 0.00, -0.00, -1.00, 730.8, 447.0)">o</text><text xml:space="preserve" font-family="Palatino-Roman" font-size="36.0" fill="#414040" transform="matrix(1.00, 0.00, -0.00, -1.00, 750.5, 447.0)"> </text><text xml:space="preserve" font-family="Palatino-Roman" font-size="36.0" fill="#414040" transform="matrix(1.00, 0.00, -0.00, -1.00, 759.5, 447.0)">e</text><text xml:space="preserve" font-family="Palatino-Roman" font-size="36.0" fill="#414040" transform="matrix(1.00, 0.00, -0.00, -1.00, 776.7, 447.0)">x</text><text xml:space="preserve" font-family="Palatino-Roman" font-size="36.0" fill="#414040" transform="matrix(1.00, 0.00, -0.00, -1.00, 795.3, 447.0)">p</text><text xml:space="preserve" font-family="Palatino-Roman" font-size="36.0" fill="#414040" transform="matrix(1.00, 0.00, -0.00, -1.00, 817.0, 447.0)">r</text><text xml:space="preserve" font-family="Palatino-Roman" font-size="36.0" fill="#414040" transform="matrix(1.00, 0.00, -0.00, -1.00, 830.5, 447.0)">e</text><text xml:space="preserve" font-family="Palatino-Roman" font-size="36.0" fill="#414040" transform="matrix(1.00, 0.00, -0.00, -1.00, 847.8, 447.0)">s</text><text xml:space="preserve" font-family="Palatino-Roman" font-size="36.0" fill="#414040" transform="matrix(1.00, 0.00, -0.00, -1.00, 863.0, 447.0)">s</text><text xml:space="preserve" font-family="Palatino-Roman" font-size="36.0" fill="#414040" transform="matrix(1.00, 0.00, -0.00, -1.00, 878.3, 447.0)">.</text><text xml:space="preserve" font-family="Palatino-Bold" font-weight="bold" font-size="36.0" fill="#414040" transform="matrix(1.00, 0.00, -0.00, -1.00, 44.0, 375.0)">3</text><text xml:space="preserve" font-family="Palatino-Bold" font-weight="bold" font-size="36.0" fill="#414040" transform="matrix(1.00, 0.00, -0.00, -1.00, 62.0, 375.0)">.</text><text xml:space="preserve" font-family="Palatino-Bold" font-weight="bold" font-size="36.0" fill="#414040" transform="matrix(1.00, 0.00, -0.00, -1.00, 96.0, 375.0)">L</text><text xml:space="preserve" font-family="Palatino-Bold" font-weight="bold" font-size="36.0" fill="#414040" transform="matrix(1.00, 0.00, -0.00, -1.00, 118.0, 375.0)">e</text><text xml:space="preserve" font-family="Palatino-Bold" font-weight="bold" font-size="36.0" fill="#414040" transform="matrix(1.00, 0.00, -0.00, -1.00, 136.0, 375.0)">t</text><text xml:space="preserve" font-family="Palatino-Bold" font-weight="bold" font-size="36.0" fill="#414040" transform="matrix(1.00, 0.00, -0.00, -1.00, 148.0, 375.0)"> </text><text xml:space="preserve" font-family="Palatino-Bold" font-weight="bold" font-size="36.0" fill="#414040" transform="matrix(1.00, 0.00, -0.00, -1.00, 157.0, 375.0)">t</text><text xml:space="preserve" font-family="Palatino-Bold" font-weight="bold" font-size="36.0" fill="#414040" transform="matrix(1.00, 0.00, -0.00, -1.00, 169.0, 375.0)">h</text><text xml:space="preserve" font-family="Palatino-Bold" font-weight="bold" font-size="36.0" fill="#414040" transform="matrix(1.00, 0.00, -0.00, -1.00, 190.9, 375.0)">e</text><text xml:space="preserve" font-family="Palatino-Bold" font-weight="bold" font-size="36.0" fill="#414040" transform="matrix(1.00, 0.00, -0.00, -1.00, 208.9, 375.0)"> </text><text xml:space="preserve" font-family="Palatino-Bold" font-weight="bold" font-size="36.0" fill="#414040" transform="matrix(1.00, 0.00, -0.00, -1.00, 217.9, 375.0)">s</text><text xml:space="preserve" font-family="Palatino-Bold" font-weight="bold" font-size="36.0" fill="#414040" transform="matrix(1.00, 0.00, -0.00, -1.00, 233.9, 375.0)">p</text><text xml:space="preserve" font-family="Palatino-Bold" font-weight="bold" font-size="36.0" fill="#414040" transform="matrix(1.00, 0.00, -0.00, -1.00, 255.9, 375.0)">e</text><text xml:space="preserve" font-family="Palatino-Bold" font-weight="bold" font-size="36.0" fill="#414040" transform="matrix(1.00, 0.00, -0.00, -1.00, 273.9, 375.0)">a</text><text xml:space="preserve" font-family="Palatino-Bold" font-weight="bold" font-size="36.0" fill="#414040" transform="matrix(1.00, 0.00, -0.00, -1.00, 291.9, 375.0)">k</text><text xml:space="preserve" font-family="Palatino-Bold" font-weight="bold" font-size="36.0" fill="#414040" transform="matrix(1.00, 0.00, -0.00, -1.00, 313.9, 375.0)">e</text><text xml:space="preserve" font-family="Palatino-Bold" font-weight="bold" font-size="36.0" fill="#414040" transform="matrix(1.00, 0.00, -0.00, -1.00, 331.9, 375.0)">r</text><text xml:space="preserve" font-family="Palatino-Bold" font-weight="bold" font-size="36.0" fill="#414040" transform="matrix(1.00, 0.00, -0.00, -1.00, 345.9, 375.0)"> </text><text xml:space="preserve" font-family="Palatino-Bold" font-weight="bold" font-size="36.0" fill="#414040" transform="matrix(1.00, 0.00, -0.00, -1.00, 354.9, 375.0)">k</text><text xml:space="preserve" font-family="Palatino-Bold" font-weight="bold" font-size="36.0" fill="#414040" transform="matrix(1.00, 0.00, -0.00, -1.00, 376.9, 375.0)">n</text><text xml:space="preserve" font-family="Palatino-Bold" font-weight="bold" font-size="36.0" fill="#414040" transform="matrix(1.00, 0.00, -0.00, -1.00, 398.9, 375.0)">o</text><text xml:space="preserve" font-family="Palatino-Bold" font-weight="bold" font-size="36.0" fill="#414040" transform="matrix(1.00, 0.00, -0.00, -1.00, 418.9, 375.0)">w</text><text xml:space="preserve" font-family="Palatino-Bold" font-weight="bold" font-size="36.0" fill="#414040" transform="matrix(1.00, 0.00, -0.00, -1.00, 448.9, 375.0)"> </text><text xml:space="preserve" font-family="Palatino-Bold" font-weight="bold" font-size="36.0" fill="#414040" transform="matrix(1.00, 0.00, -0.00, -1.00, 457.9, 375.0)">t</text><text xml:space="preserve" font-family="Palatino-Bold" font-weight="bold" font-size="36.0" fill="#414040" transform="matrix(1.00, 0.00, -0.00, -1.00, 469.9, 375.0)">h</text><text xml:space="preserve" font-family="Palatino-Bold" font-weight="bold" font-size="36.0" fill="#414040" transform="matrix(1.00, 0.00, -0.00, -1.00, 491.9, 375.0)">a</text><text xml:space="preserve" font-family="Palatino-Bold" font-weight="bold" font-size="36.0" fill="#414040" transform="matrix(1.00, 0.00, -0.00, -1.00, 509.9, 375.0)">t</text><text xml:space="preserve" font-family="Palatino-Bold" font-weight="bold" font-size="36.0" fill="#414040" transform="matrix(1.00, 0.00, -0.00, -1.00, 521.8, 375.0)"> </text><text xml:space="preserve" font-family="Palatino-Bold" font-weight="bold" font-size="36.0" fill="#414040" transform="matrix(1.00, 0.00, -0.00, -1.00, 530.8, 375.0)">y</text><text xml:space="preserve" font-family="Palatino-Bold" font-weight="bold" font-size="36.0" fill="#414040" transform="matrix(1.00, 0.00, -0.00, -1.00, 550.9, 375.0)">o</text><text xml:space="preserve" font-family="Palatino-Bold" font-weight="bold" font-size="36.0" fill="#414040" transform="matrix(1.00, 0.00, -0.00, -1.00, 570.9, 375.0)">u</text><text xml:space="preserve" font-family="Palatino-Bold" font-weight="bold" font-size="36.0" fill="#414040" transform="matrix(1.00, 0.00, -0.00, -1.00, 592.9, 375.0)"> </text><text xml:space="preserve" font-family="Palatino-Bold" font-weight="bold" font-size="36.0" fill="#414040" transform="matrix(1.00, 0.00, -0.00, -1.00, 601.9, 375.0)">u</text><text xml:space="preserve" font-family="Palatino-Bold" font-weight="bold" font-size="36.0" fill="#414040" transform="matrix(1.00, 0.00, -0.00, -1.00, 623.9, 375.0)">n</text><text xml:space="preserve" font-family="Palatino-Bold" font-weight="bold" font-size="36.0" fill="#414040" transform="matrix(1.00, 0.00, -0.00, -1.00, 645.8, 375.0)">d</text><text xml:space="preserve" font-family="Palatino-Bold" font-weight="bold" font-size="36.0" fill="#414040" transform="matrix(1.00, 0.00, -0.00, -1.00, 667.8, 375.0)">e</text><text xml:space="preserve" font-family="Palatino-Bold" font-weight="bold" font-size="36.0" fill="#414040" transform="matrix(1.00, 0.00, -0.00, -1.00, 685.8, 375.0)">r</text><text xml:space="preserve" font-family="Palatino-Bold" font-weight="bold" font-size="36.0" fill="#414040" transform="matrix(1.00, 0.00, -0.00, -1.00, 699.8, 375.0)">s</text><text xml:space="preserve" font-family="Palatino-Bold" font-weight="bold" font-size="36.0" fill="#414040" transform="matrix(1.00, 0.00, -0.00, -1.00, 715.8, 375.0)">t</text><text xml:space="preserve" font-family="Palatino-Bold" font-weight="bold" font-size="36.0" fill="#414040" transform="matrix(1.00, 0.00, -0.00, -1.00, 727.8, 375.0)">a</text><text xml:space="preserve" font-family="Palatino-Bold" font-weight="bold" font-size="36.0" fill="#414040" transform="matrix(1.00, 0.00, -0.00, -1.00, 745.8, 375.0)">n</text><text xml:space="preserve" font-family="Palatino-Bold" font-weight="bold" font-size="36.0" fill="#414040" transform="matrix(1.00, 0.00, -0.00, -1.00, 767.8, 375.0)">d</text><text xml:space="preserve" font-family="Palatino-Bold" font-weight="bold" font-size="36.0" fill="#414040" transform="matrix(1.00, 0.00, -0.00, -1.00, 789.8, 375.0)">:</text><text xml:space="preserve" font-family="ZapfDingbatsITC" font-size="21.6" fill="#919191" transform="matrix(1.00, 0.00, -0.00, -1.00, 81.0, 308.8)">â–</text><text xml:space="preserve" font-family="Palatino-Bold" font-weight="bold" font-size="36.0" fill="#414040" transform="matrix(1.00, 0.00, -0.00, -1.00, 118.0, 303.0)">U</text><text xml:space="preserve" font-family="Palatino-Bold" font-weight="bold" font-size="36.0" fill="#414040" transform="matrix(1.00, 0.00, -0.00, -1.00, 146.0, 303.0)">s</text><text xml:space="preserve" font-family="Palatino-Bold" font-weight="bold" font-size="36.0" fill="#414040" transform="matrix(1.00, 0.00, -0.00, -1.00, 162.0, 303.0)">e</text><text xml:space="preserve" font-family="Palatino-Bold" font-weight="bold" font-size="36.0" fill="#414040" transform="matrix(1.00, 0.00, -0.00, -1.00, 180.0, 303.0)"> </text><text xml:space="preserve" font-family="Palatino-Bold" font-weight="bold" font-size="36.0" fill="#414040" transform="matrix(1.00, 0.00, -0.00, -1.00, 189.0, 303.0)">s</text><text xml:space="preserve" font-family="Palatino-Bold" font-weight="bold" font-size="36.0" fill="#414040" transform="matrix(1.00, 0.00, -0.00, -1.00, 204.9, 303.0)">i</text><text xml:space="preserve" font-family="Palatino-Bold" font-weight="bold" font-size="36.0" fill="#414040" transform="matrix(1.00, 0.00, -0.00, -1.00, 216.9, 303.0)">l</text><text xml:space="preserve" font-family="Palatino-Bold" font-weight="bold" font-size="36.0" fill="#414040" transform="matrix(1.00, 0.00, -0.00, -1.00, 228.9, 303.0)">e</text><text xml:space="preserve" font-family="Palatino-Bold" font-weight="bold" font-size="36.0" fill="#414040" transform="matrix(1.00, 0.00, -0.00, -1.00, 246.9, 303.0)">n</text><text xml:space="preserve" font-family="Palatino-Bold" font-weight="bold" font-size="36.0" fill="#414040" transform="matrix(1.00, 0.00, -0.00, -1.00, 268.9, 303.0)">c</text><text xml:space="preserve" font-family="Palatino-Bold" font-weight="bold" font-size="36.0" fill="#414040" transform="matrix(1.00, 0.00, -0.00, -1.00, 284.9, 303.0)">e</text><text xml:space="preserve" font-family="Palatino-Bold" font-weight="bold" font-size="36.0" fill="#414040" transform="matrix(1.00, 0.00, -0.00, -1.00, 302.9, 303.0)">,</text><text xml:space="preserve" font-family="Palatino-Bold" font-weight="bold" font-size="36.0" fill="#414040" transform="matrix(1.00, 0.00, -0.00, -1.00, 311.9, 303.0)"> </text><text xml:space="preserve" font-family="Palatino-Bold" font-weight="bold" font-size="36.0" fill="#414040" transform="matrix(1.00, 0.00, -0.00, -1.00, 320.9, 303.0)">r</text><text xml:space="preserve" font-family="Palatino-Bold" font-weight="bold" font-size="36.0" fill="#414040" transform="matrix(1.00, 0.00, -0.00, -1.00, 334.9, 303.0)">e</text><text xml:space="preserve" font-family="Palatino-Bold" font-weight="bold" font-size="36.0" fill="#414040" transform="matrix(1.00, 0.00, -0.00, -1.00, 352.9, 303.0)">a</text><text xml:space="preserve" font-family="Palatino-Bold" font-weight="bold" font-size="36.0" fill="#414040" transform="matrix(1.00, 0.00, -0.00, -1.00, 370.9, 303.0)">s</text><text xml:space="preserve" font-family="Palatino-Bold" font-weight="bold" font-size="36.0" fill="#414040" transform="matrix(1.00, 0.00, -0.00, -1.00, 386.9, 303.0)">s</text><text xml:space="preserve" font-family="Palatino-Bold" font-weight="bold" font-size="36.0" fill="#414040" transform="matrix(1.00, 0.00, -0.00, -1.00, 402.8, 303.0)">u</text><text xml:space="preserve" font-family="Palatino-Bold" font-weight="bold" font-size="36.0" fill="#414040" transform="matrix(1.00, 0.00, -0.00, -1.00, 424.8, 303.0)">r</text><text xml:space="preserve" font-family="Palatino-Bold" font-weight="bold" font-size="36.0" fill="#414040" transform="matrix(1.00, 0.00, -0.00, -1.00, 438.8, 303.0)">i</text><text xml:space="preserve" font-family="Palatino-Bold" font-weight="bold" font-size="36.0" fill="#414040" transform="matrix(1.00, 0.00, -0.00, -1.00, 450.8, 303.0)">n</text><text xml:space="preserve" font-family="Palatino-Bold" font-weight="bold" font-size="36.0" fill="#414040" transform="matrix(1.00, 0.00, -0.00, -1.00, 472.8, 303.0)">g</text><text xml:space="preserve" font-family="Palatino-Bold" font-weight="bold" font-size="36.0" fill="#414040" transform="matrix(1.00, 0.00, -0.00, -1.00, 492.8, 303.0)"> </text><text xml:space="preserve" font-family="Palatino-Bold" font-weight="bold" font-size="36.0" fill="#414040" transform="matrix(1.00, 0.00, -0.00, -1.00, 501.8, 303.0)">c</text><text xml:space="preserve" font-family="Palatino-Bold" font-weight="bold" font-size="36.0" fill="#414040" transform="matrix(1.00, 0.00, -0.00, -1.00, 517.8, 303.0)">o</text><text xml:space="preserve" font-family="Palatino-Bold" font-weight="bold" font-size="36.0" fill="#414040" transform="matrix(1.00, 0.00, -0.00, -1.00, 537.8, 303.0)">m</text><text xml:space="preserve" font-family="Palatino-Bold" font-weight="bold" font-size="36.0" fill="#414040" transform="matrix(1.00, 0.00, -0.00, -1.00, 569.8, 303.0)">m</text><text xml:space="preserve" font-family="Palatino-Bold" font-weight="bold" font-size="36.0" fill="#414040" transform="matrix(1.00, 0.00, -0.00, -1.00, 601.9, 303.0)">e</text><text xml:space="preserve" font-family="Palatino-Bold" font-weight="bold" font-size="36.0" fill="#414040" transform="matrix(1.00, 0.00, -0.00, -1.00, 619.9, 303.0)">n</text><text xml:space="preserve" font-family="Palatino-Bold" font-weight="bold" font-size="36.0" fill="#414040" transform="matrix(1.00, 0.00, -0.00, -1.00, 641.8, 303.0)">t</text><text xml:space="preserve" font-family="Palatino-Bold" font-weight="bold" font-size="36.0" fill="#414040" transform="matrix(1.00, 0.00, -0.00, -1.00, 653.8, 303.0)">s</text><text xml:space="preserve" font-family="Palatino-Bold" font-weight="bold" font-size="36.0" fill="#414040" transform="matrix(1.00, 0.00, -0.00, -1.00, 669.8, 303.0)">,</text><text xml:space="preserve" font-family="Palatino-Bold" font-weight="bold" font-size="36.0" fill="#414040" transform="matrix(1.00, 0.00, -0.00, -1.00, 678.8, 303.0)"> </text><text xml:space="preserve" font-family="Palatino-Bold" font-weight="bold" font-size="36.0" fill="#414040" transform="matrix(1.00, 0.00, -0.00, -1.00, 687.8, 303.0)">p</text><text xml:space="preserve" font-family="Palatino-Bold" font-weight="bold" font-size="36.0" fill="#414040" transform="matrix(1.00, 0.00, -0.00, -1.00, 709.8, 303.0)">a</text><text xml:space="preserve" font-family="Palatino-Bold" font-weight="bold" font-size="36.0" fill="#414040" transform="matrix(1.00, 0.00, -0.00, -1.00, 727.8, 303.0)">r</text><text xml:space="preserve" font-family="Palatino-Bold" font-weight="bold" font-size="36.0" fill="#414040" transform="matrix(1.00, 0.00, -0.00, -1.00, 741.8, 303.0)">a</text><text xml:space="preserve" font-family="Palatino-Bold" font-weight="bold" font-size="36.0" fill="#414040" transform="matrix(1.00, 0.00, -0.00, -1.00, 759.8, 303.0)">p</text><text xml:space="preserve" font-family="Palatino-Bold" font-weight="bold" font-size="36.0" fill="#414040" transform="matrix(1.00, 0.00, -0.00, -1.00, 781.8, 303.0)">h</text><text xml:space="preserve" font-family="Palatino-Bold" font-weight="bold" font-size="36.0" fill="#414040" transform="matrix(1.00, 0.00, -0.00, -1.00, 803.8, 303.0)">r</text><text xml:space="preserve" font-family="Palatino-Bold" font-weight="bold" font-size="36.0" fill="#414040" transform="matrix(1.00, 0.00, -0.00, -1.00, 817.8, 303.0)">a</text><text xml:space="preserve" font-family="Palatino-Bold" font-weight="bold" font-size="36.0" fill="#414040" transform="matrix(1.00, 0.00, -0.00, -1.00, 835.8, 303.0)">s</text><text xml:space="preserve" font-family="Palatino-Bold" font-weight="bold" font-size="36.0" fill="#414040" transform="matrix(1.00, 0.00, -0.00, -1.00, 851.8, 303.0)">i</text><text xml:space="preserve" font-family="Palatino-Bold" font-weight="bold" font-size="36.0" fill="#414040" transform="matrix(1.00, 0.00, -0.00, -1.00, 863.7, 303.0)">n</text><text xml:space="preserve" font-family="Palatino-Bold" font-weight="bold" font-size="36.0" fill="#414040" transform="matrix(1.00, 0.00, -0.00, -1.00, 885.7, 303.0)">g</text></g></svg>